%TF.GenerationSoftware,KiCad,Pcbnew,(6.0.5)*%
%TF.CreationDate,2022-09-09T13:51:24+12:00*%
%TF.ProjectId,RGB-to-component,5247422d-746f-42d6-936f-6d706f6e656e,rev?*%
%TF.SameCoordinates,Original*%
%TF.FileFunction,Soldermask,Bot*%
%TF.FilePolarity,Negative*%
%FSLAX46Y46*%
G04 Gerber Fmt 4.6, Leading zero omitted, Abs format (unit mm)*
G04 Created by KiCad (PCBNEW (6.0.5)) date 2022-09-09 13:51:24*
%MOMM*%
%LPD*%
G01*
G04 APERTURE LIST*
%ADD10C,4.102000*%
%ADD11C,2.302000*%
%ADD12C,2.102000*%
%ADD13C,2.402000*%
%ADD14O,2.602000X2.602000*%
%ADD15O,4.102000X3.102000*%
%ADD16O,3.102000X4.102000*%
%ADD17O,1.802000X1.202000*%
%ADD18C,1.702000*%
%ADD19C,4.602000*%
%ADD20O,3.102000X3.102000*%
G04 APERTURE END LIST*
D10*
X27100000Y-107270000D03*
X27100000Y-55000000D03*
D11*
X34380000Y-99905000D03*
X29300000Y-98000000D03*
X34380000Y-96095000D03*
X29300000Y-94190000D03*
X34380000Y-92285000D03*
X29300000Y-90380000D03*
X34380000Y-88475000D03*
X29300000Y-86570000D03*
X34380000Y-84665000D03*
X29300000Y-82760000D03*
X34380000Y-80855000D03*
X29300000Y-78950000D03*
X34380000Y-77045000D03*
X29300000Y-75140000D03*
X34380000Y-73235000D03*
X29300000Y-71330000D03*
X34380000Y-69425000D03*
X29300000Y-67520000D03*
X34380000Y-65615000D03*
X29300000Y-63710000D03*
X34380000Y-61805000D03*
D12*
X61700000Y-54500000D03*
X61700000Y-69500000D03*
D13*
X69044520Y-51466620D03*
D14*
X65900000Y-42200000D03*
D13*
X69044520Y-72533380D03*
D14*
X65900000Y-81800000D03*
D15*
X61400000Y-62000000D03*
X61400000Y-47000000D03*
X61400000Y-77000000D03*
D16*
X65900000Y-47000000D03*
X65900000Y-62000000D03*
X65900000Y-77000000D03*
D17*
X24700000Y-43280000D03*
X20900000Y-43280000D03*
X24700000Y-51920000D03*
X20900000Y-51920000D03*
D18*
X27040000Y-78440000D03*
X27040000Y-76150000D03*
X27040000Y-73860000D03*
X27040000Y-71570000D03*
X27040000Y-69280000D03*
X24500000Y-79580000D03*
X24500000Y-77290000D03*
X24500000Y-75000000D03*
X24500000Y-72710000D03*
D19*
X24500000Y-61620000D03*
D18*
X24500000Y-70420000D03*
D19*
X24500000Y-86620000D03*
D18*
X21960000Y-78440000D03*
X21960000Y-76150000D03*
X21960000Y-73860000D03*
X21960000Y-71570000D03*
X21960000Y-69280000D03*
D11*
X68750000Y-86350000D03*
X68750000Y-94850000D03*
D20*
X61100000Y-90600000D03*
X65600000Y-90600000D03*
D11*
X68750000Y-99370000D03*
X68750000Y-107870000D03*
D20*
X61100000Y-103620000D03*
X65600000Y-103620000D03*
M02*
