M48
; DRILL file {KiCad (5.1.9)-1} date 05/10/21 06:47:55
; FORMAT={-:-/ absolute / inch / decimal}
; #@! TF.CreationDate,2021-05-10T06:47:55+12:00
; #@! TF.GenerationSoftware,Kicad,Pcbnew,(5.1.9)-1
; #@! TF.FileFunction,Plated,1,2,PTH
FMAT,2
INCH
T1C0.0157
T2C0.0236
T3C0.0394
T4C0.0472
T5C0.0512
T6C0.0787
T7C0.0906
T8C0.0984
T9C0.1260
T10C0.1417
%
G90
G05
T1
X0.8937Y-2.1496
X0.9528Y-2.2638
X1.0Y-3.6929
X1.0079Y-3.9843
X1.0394Y-2.0039
X1.0906Y-3.1457
X1.0906Y-3.3346
X1.1024Y-1.6614
X1.1085Y-3.4864
X1.126Y-2.878
X1.126Y-3.9528
X1.1496Y-2.0433
X1.1693Y-1.752
X1.1732Y-4.1693
X1.2126Y-3.3307
X1.2402Y-4.0551
X1.2559Y-3.1772
X1.2638Y-2.2756
X1.2638Y-3.874
X1.2717Y-1.9094
X1.2756Y-3.5394
X1.2795Y-3.0354
X1.2992Y-3.4291
X1.3031Y-3.2598
X1.4213Y-1.7402
X1.4252Y-4.0197
X1.4291Y-1.6575
X1.4291Y-3.126
X1.4291Y-3.4094
X1.4291Y-4.1299
X1.4331Y-2.063
X1.4409Y-4.2402
X1.4843Y-1.7874
X1.4843Y-2.2835
X1.4882Y-2.4606
X1.4921Y-1.8701
X1.5394Y-3.1417
X1.5866Y-2.8898
X1.6024Y-2.5906
X1.6024Y-3.0866
X1.6063Y-2.4488
X1.6102Y-2.2835
X1.6102Y-3.5433
X1.6202Y-2.0963
X1.626Y-3.374
X1.6417Y-2.1496
X1.6575Y-1.9567
X1.6614Y-2.9882
X1.6693Y-2.8071
X1.6732Y-2.689
X1.685Y-2.4055
X1.7087Y-4.1181
X1.7126Y-4.0118
X1.7165Y-2.2795
X1.7205Y-3.0394
X1.7362Y-2.5197
X1.7402Y-2.6339
X1.7446Y-2.0005
X1.752Y-2.3425
X1.752Y-4.2717
X1.7717Y-2.8661
X1.7874Y-2.4213
X1.7913Y-3.1063
X1.7992Y-2.5118
X1.7992Y-2.9488
X1.8189Y-2.1339
X1.8228Y-2.3465
X1.8543Y-3.0315
X1.8583Y-3.5709
X1.8622Y-2.6772
X1.8622Y-2.8346
X1.878Y-2.0
X1.8819Y-3.1772
X1.8937Y-1.9094
X1.8937Y-2.1339
X1.8976Y-2.3937
X1.9016Y-2.3189
X1.9016Y-2.7402
X1.9252Y-1.7323
X1.9331Y-2.2283
X1.9331Y-3.0236
X1.9646Y-2.7402
X1.9961Y-2.185
X1.9961Y-2.9291
X1.9961Y-3.0591
X1.9961Y-3.1339
X2.0433Y-3.1693
X2.0669Y-4.0276
X2.0748Y-2.9685
X2.0748Y-3.0276
X2.0945Y-1.7283
X2.1102Y-3.0709
X2.1181Y-2.9213
X2.1181Y-3.2087
X2.1457Y-4.2205
X2.1535Y-2.2362
X2.1732Y-4.1339
X2.2126Y-3.9449
X2.2165Y-2.937
X2.2598Y-2.2598
X2.2677Y-3.0118
X2.2953Y-3.1063
X2.3071Y-2.6575
X2.3346Y-2.9567
X2.3425Y-4.2244
X2.3583Y-3.7402
X2.3701Y-3.9724
X2.5Y-3.7323
T3
X0.8646Y-2.7276
X0.8646Y-2.8177
X0.8646Y-2.9079
X0.8646Y-2.998
X0.8646Y-3.0882
X0.9646Y-2.7724
X0.9646Y-2.8626
X0.9646Y-2.9528
X0.9646Y-3.0429
X0.9646Y-3.1331
X1.0646Y-2.7276
X1.0646Y-2.8177
X1.0646Y-2.9079
X1.0646Y-2.998
X1.0646Y-3.0882
T5
X1.1535Y-2.5083
X1.1535Y-2.6583
X1.1535Y-2.8083
X1.1535Y-2.9583
X1.1535Y-3.1083
X1.1535Y-3.2583
X1.1535Y-3.4083
X1.1535Y-3.5583
X1.1535Y-3.7083
X1.1535Y-3.8583
X1.3535Y-2.4333
X1.3535Y-2.5833
X1.3535Y-2.7333
X1.3535Y-2.8833
X1.3535Y-3.0333
X1.3535Y-3.1833
X1.3535Y-3.3333
X1.3535Y-3.4833
X1.3535Y-3.6333
X1.3535Y-3.7833
X1.3535Y-3.9333
T6
X2.4291Y-2.1457
X2.4291Y-2.7362
T7
X2.7183Y-2.0262
X2.7183Y-2.8556
T8
X2.5945Y-1.6614
X2.5945Y-3.2205
T9
X0.9646Y-2.426
X0.9646Y-3.4102
T10
X1.0669Y-2.1654
X1.0669Y-4.2232
T2
G00X0.811Y-1.7039
M15
G01X0.8346Y-1.7039
M16
G05
G00X0.811Y-2.0441
M15
G01X0.8346Y-2.0441
M16
G05
G00X0.9606Y-1.7039
M15
G01X0.9843Y-1.7039
M16
G05
G00X0.9606Y-2.0441
M15
G01X0.9843Y-2.0441
M16
G05
T3
G00X2.435Y-3.5669
M15
G01X2.376Y-3.5669
M16
G05
G00X2.435Y-4.0795
M15
G01X2.376Y-4.0795
M16
G05
T4
G00X2.3819Y-1.8504
M15
G01X2.4528Y-1.8504
M16
G05
G00X2.3819Y-2.4409
M15
G01X2.4528Y-2.4409
M16
G05
G00X2.3819Y-3.0315
M15
G01X2.4528Y-3.0315
M16
G05
G00X2.5945Y-1.8823
M15
G01X2.5945Y-1.8185
M16
G05
G00X2.5945Y-2.4728
M15
G01X2.5945Y-2.4091
M16
G05
G00X2.5945Y-3.0634
M15
G01X2.5945Y-2.9996
M16
G05
T5
G00X2.5827Y-3.5433
M15
G01X2.5827Y-3.5906
M16
G05
G00X2.5827Y-4.0559
M15
G01X2.5827Y-4.1031
M16
G05
T0
M30
