%TF.GenerationSoftware,KiCad,Pcbnew,(6.0.5)*%
%TF.CreationDate,2022-09-09T13:51:23+12:00*%
%TF.ProjectId,RGB-to-component,5247422d-746f-42d6-936f-6d706f6e656e,rev?*%
%TF.SameCoordinates,Original*%
%TF.FileFunction,Soldermask,Top*%
%TF.FilePolarity,Negative*%
%FSLAX46Y46*%
G04 Gerber Fmt 4.6, Leading zero omitted, Abs format (unit mm)*
G04 Created by KiCad (PCBNEW (6.0.5)) date 2022-09-09 13:51:23*
%MOMM*%
%LPD*%
G01*
G04 APERTURE LIST*
G04 Aperture macros list*
%AMRoundRect*
0 Rectangle with rounded corners*
0 $1 Rounding radius*
0 $2 $3 $4 $5 $6 $7 $8 $9 X,Y pos of 4 corners*
0 Add a 4 corners polygon primitive as box body*
4,1,4,$2,$3,$4,$5,$6,$7,$8,$9,$2,$3,0*
0 Add four circle primitives for the rounded corners*
1,1,$1+$1,$2,$3*
1,1,$1+$1,$4,$5*
1,1,$1+$1,$6,$7*
1,1,$1+$1,$8,$9*
0 Add four rect primitives between the rounded corners*
20,1,$1+$1,$2,$3,$4,$5,0*
20,1,$1+$1,$4,$5,$6,$7,0*
20,1,$1+$1,$6,$7,$8,$9,0*
20,1,$1+$1,$8,$9,$2,$3,0*%
G04 Aperture macros list end*
%ADD10RoundRect,0.151000X-0.637500X-0.100000X0.637500X-0.100000X0.637500X0.100000X-0.637500X0.100000X0*%
%ADD11RoundRect,0.300999X0.450001X-0.325001X0.450001X0.325001X-0.450001X0.325001X-0.450001X-0.325001X0*%
%ADD12RoundRect,0.300999X-0.450001X0.325001X-0.450001X-0.325001X0.450001X-0.325001X0.450001X0.325001X0*%
%ADD13RoundRect,0.300999X0.325001X0.450001X-0.325001X0.450001X-0.325001X-0.450001X0.325001X-0.450001X0*%
%ADD14RoundRect,0.051000X0.400000X-0.450000X0.400000X0.450000X-0.400000X0.450000X-0.400000X-0.450000X0*%
%ADD15RoundRect,0.301000X0.925000X-0.500000X0.925000X0.500000X-0.925000X0.500000X-0.925000X-0.500000X0*%
%ADD16C,4.102000*%
%ADD17C,2.302000*%
%ADD18C,2.102000*%
%ADD19C,2.402000*%
%ADD20O,2.602000X2.602000*%
%ADD21O,4.102000X3.102000*%
%ADD22O,3.102000X4.102000*%
%ADD23RoundRect,0.051000X0.600000X-0.350000X0.600000X0.350000X-0.600000X0.350000X-0.600000X-0.350000X0*%
%ADD24RoundRect,0.051000X0.600000X-0.380000X0.600000X0.380000X-0.600000X0.380000X-0.600000X-0.380000X0*%
%ADD25RoundRect,0.051000X0.600000X-0.400000X0.600000X0.400000X-0.600000X0.400000X-0.600000X-0.400000X0*%
%ADD26O,1.802000X1.202000*%
%ADD27RoundRect,0.051000X-0.530000X-0.325000X0.530000X-0.325000X0.530000X0.325000X-0.530000X0.325000X0*%
%ADD28RoundRect,0.201000X-0.825000X-0.150000X0.825000X-0.150000X0.825000X0.150000X-0.825000X0.150000X0*%
%ADD29C,1.702000*%
%ADD30C,4.602000*%
%ADD31O,3.102000X3.102000*%
%ADD32RoundRect,0.300999X-0.325001X-0.450001X0.325001X-0.450001X0.325001X0.450001X-0.325001X0.450001X0*%
%ADD33RoundRect,0.201000X-0.150000X0.825000X-0.150000X-0.825000X0.150000X-0.825000X0.150000X0.825000X0*%
%ADD34RoundRect,0.051000X-0.750000X0.500000X-0.750000X-0.500000X0.750000X-0.500000X0.750000X0.500000X0*%
%ADD35RoundRect,0.300999X-0.425001X0.537501X-0.425001X-0.537501X0.425001X-0.537501X0.425001X0.537501X0*%
%ADD36RoundRect,0.294750X-0.456250X0.243750X-0.456250X-0.243750X0.456250X-0.243750X0.456250X0.243750X0*%
G04 APERTURE END LIST*
D10*
X42437500Y-86800000D03*
X42437500Y-87450000D03*
X42437500Y-88100000D03*
X42437500Y-88750000D03*
X42437500Y-89400000D03*
X42437500Y-90050000D03*
X42437500Y-90700000D03*
X48162500Y-90700000D03*
X48162500Y-90050000D03*
X48162500Y-89400000D03*
X48162500Y-88750000D03*
X48162500Y-88100000D03*
X48162500Y-87450000D03*
X48162500Y-86800000D03*
D11*
X37700000Y-78525000D03*
X37700000Y-76475000D03*
D12*
X37700000Y-80275000D03*
X37700000Y-82325000D03*
X37700000Y-87875000D03*
X37700000Y-89925000D03*
D13*
X45525000Y-47600000D03*
X43475000Y-47600000D03*
X41725000Y-47600000D03*
X39675000Y-47600000D03*
D12*
X37700000Y-91675000D03*
X37700000Y-93725000D03*
D14*
X41696000Y-45142000D03*
X43596000Y-45142000D03*
X42646000Y-43142000D03*
D15*
X50900000Y-49625000D03*
X50900000Y-46375000D03*
D12*
X57800000Y-52975000D03*
X57800000Y-55025000D03*
D11*
X56800000Y-80025000D03*
X56800000Y-77975000D03*
D16*
X27100000Y-107270000D03*
X27100000Y-55000000D03*
D17*
X34380000Y-99905000D03*
X29300000Y-98000000D03*
X34380000Y-96095000D03*
X29300000Y-94190000D03*
X34380000Y-92285000D03*
X29300000Y-90380000D03*
X34380000Y-88475000D03*
X29300000Y-86570000D03*
X34380000Y-84665000D03*
X29300000Y-82760000D03*
X34380000Y-80855000D03*
X29300000Y-78950000D03*
X34380000Y-77045000D03*
X29300000Y-75140000D03*
X34380000Y-73235000D03*
X29300000Y-71330000D03*
X34380000Y-69425000D03*
X29300000Y-67520000D03*
X34380000Y-65615000D03*
X29300000Y-63710000D03*
X34380000Y-61805000D03*
D18*
X61700000Y-54500000D03*
X61700000Y-69500000D03*
D19*
X69044520Y-51466620D03*
D20*
X65900000Y-42200000D03*
D19*
X69044520Y-72533380D03*
D20*
X65900000Y-81800000D03*
D21*
X61400000Y-62000000D03*
X61400000Y-47000000D03*
X61400000Y-77000000D03*
D22*
X65900000Y-47000000D03*
X65900000Y-62000000D03*
X65900000Y-77000000D03*
D12*
X39400000Y-43075000D03*
X39400000Y-45125000D03*
D13*
X45525000Y-49600000D03*
X43475000Y-49600000D03*
X39825000Y-52700000D03*
X37775000Y-52700000D03*
X46025000Y-92600000D03*
X43975000Y-92600000D03*
D12*
X39400000Y-62275000D03*
X39400000Y-64325000D03*
D23*
X24850000Y-47100000D03*
D24*
X24850000Y-49120000D03*
D25*
X24850000Y-50350000D03*
D23*
X24850000Y-48100000D03*
D24*
X24850000Y-46080000D03*
D25*
X24850000Y-44850000D03*
D26*
X24700000Y-43280000D03*
X20900000Y-43280000D03*
X24700000Y-51920000D03*
X20900000Y-51920000D03*
D11*
X39400000Y-60425000D03*
X39400000Y-58375000D03*
D13*
X30525000Y-46200000D03*
X28475000Y-46200000D03*
X30525000Y-48200000D03*
X28475000Y-48200000D03*
D27*
X32600000Y-54650000D03*
X32600000Y-55600000D03*
X32600000Y-56550000D03*
X34800000Y-56550000D03*
X34800000Y-54650000D03*
X37600000Y-54650000D03*
X37600000Y-55600000D03*
X37600000Y-56550000D03*
X39800000Y-56550000D03*
X39800000Y-54650000D03*
D28*
X42425000Y-62995000D03*
X42425000Y-64265000D03*
X42425000Y-65535000D03*
X42425000Y-66805000D03*
X47375000Y-66805000D03*
X47375000Y-65535000D03*
X47375000Y-64265000D03*
X47375000Y-62995000D03*
D29*
X27040000Y-78440000D03*
X27040000Y-76150000D03*
X27040000Y-73860000D03*
X27040000Y-71570000D03*
X27040000Y-69280000D03*
X24500000Y-79580000D03*
X24500000Y-77290000D03*
X24500000Y-75000000D03*
X24500000Y-72710000D03*
D30*
X24500000Y-61620000D03*
D29*
X24500000Y-70420000D03*
D30*
X24500000Y-86620000D03*
D29*
X21960000Y-78440000D03*
X21960000Y-76150000D03*
X21960000Y-73860000D03*
X21960000Y-71570000D03*
X21960000Y-69280000D03*
D13*
X45925000Y-68650000D03*
X43875000Y-68650000D03*
X45925000Y-70700000D03*
X43875000Y-70700000D03*
X34725000Y-52700000D03*
X32675000Y-52700000D03*
D17*
X68750000Y-86350000D03*
X68750000Y-94850000D03*
D31*
X61100000Y-90600000D03*
X65600000Y-90600000D03*
D17*
X68750000Y-99370000D03*
X68750000Y-107870000D03*
D31*
X61100000Y-103620000D03*
X65600000Y-103620000D03*
D32*
X44475000Y-80700000D03*
X46525000Y-80700000D03*
X44475000Y-82700000D03*
X46525000Y-82700000D03*
X44475000Y-84700000D03*
X46525000Y-84700000D03*
D11*
X42400000Y-84625000D03*
X42400000Y-82575000D03*
D12*
X56500000Y-58975000D03*
X56500000Y-61025000D03*
X54500000Y-58975000D03*
X54500000Y-61025000D03*
X52500000Y-58975000D03*
X52500000Y-61025000D03*
X50500000Y-58975000D03*
X50500000Y-61025000D03*
D11*
X57000000Y-65225000D03*
X57000000Y-63175000D03*
X57000000Y-72925000D03*
X57000000Y-70875000D03*
X55000000Y-72925000D03*
X55000000Y-70875000D03*
X52700000Y-72925000D03*
X52700000Y-70875000D03*
X48700000Y-72925000D03*
X48700000Y-70875000D03*
X50700000Y-72925000D03*
X50700000Y-70875000D03*
D12*
X37700000Y-84075000D03*
X37700000Y-86125000D03*
D33*
X54905000Y-63425000D03*
X53635000Y-63425000D03*
X52365000Y-63425000D03*
X51095000Y-63425000D03*
X51095000Y-68375000D03*
X52365000Y-68375000D03*
X53635000Y-68375000D03*
X54905000Y-68375000D03*
D13*
X43925000Y-77950000D03*
X41875000Y-77950000D03*
D34*
X45400000Y-55700000D03*
X45400000Y-57000000D03*
X45400000Y-58300000D03*
D11*
X37700000Y-74725000D03*
X37700000Y-72675000D03*
D35*
X33600000Y-43062500D03*
X33600000Y-45937500D03*
D11*
X57000000Y-69025000D03*
X57000000Y-66975000D03*
D36*
X57900000Y-45962500D03*
X57900000Y-47837500D03*
D32*
X53675000Y-49600000D03*
X55725000Y-49600000D03*
X29475000Y-43100000D03*
X31525000Y-43100000D03*
D12*
X58900000Y-68575000D03*
X58900000Y-70625000D03*
D11*
X54800000Y-80025000D03*
X54800000Y-77975000D03*
G36*
X41710508Y-90269404D02*
G01*
X41741862Y-90290354D01*
X41785328Y-90299000D01*
X43089671Y-90298999D01*
X43133138Y-90290354D01*
X43164492Y-90269404D01*
X43166488Y-90269273D01*
X43167599Y-90270936D01*
X43167138Y-90272350D01*
X43122347Y-90325945D01*
X43113715Y-90394660D01*
X43143679Y-90457290D01*
X43166912Y-90477420D01*
X43167566Y-90479310D01*
X43166256Y-90480822D01*
X43164491Y-90480595D01*
X43133138Y-90459646D01*
X43089672Y-90451000D01*
X41785329Y-90451001D01*
X41741862Y-90459646D01*
X41710508Y-90480596D01*
X41708512Y-90480727D01*
X41707401Y-90479064D01*
X41707862Y-90477650D01*
X41752653Y-90424055D01*
X41761285Y-90355340D01*
X41731321Y-90292710D01*
X41708087Y-90272579D01*
X41707433Y-90270689D01*
X41708743Y-90269177D01*
X41710508Y-90269404D01*
G37*
G36*
X47435508Y-90269404D02*
G01*
X47466862Y-90290354D01*
X47510328Y-90299000D01*
X48814671Y-90298999D01*
X48858138Y-90290354D01*
X48889492Y-90269404D01*
X48891488Y-90269273D01*
X48892599Y-90270936D01*
X48892138Y-90272350D01*
X48847347Y-90325945D01*
X48838715Y-90394660D01*
X48868679Y-90457290D01*
X48891912Y-90477420D01*
X48892566Y-90479310D01*
X48891256Y-90480822D01*
X48889491Y-90480595D01*
X48858138Y-90459646D01*
X48814672Y-90451000D01*
X47510329Y-90451001D01*
X47466862Y-90459646D01*
X47435508Y-90480596D01*
X47433512Y-90480727D01*
X47432401Y-90479064D01*
X47432862Y-90477650D01*
X47477653Y-90424055D01*
X47486285Y-90355340D01*
X47456321Y-90292710D01*
X47433087Y-90272579D01*
X47432433Y-90270689D01*
X47433743Y-90269177D01*
X47435508Y-90269404D01*
G37*
G36*
X47435508Y-89619404D02*
G01*
X47466862Y-89640354D01*
X47510328Y-89649000D01*
X48814671Y-89648999D01*
X48858138Y-89640354D01*
X48889492Y-89619404D01*
X48891488Y-89619273D01*
X48892599Y-89620936D01*
X48892138Y-89622350D01*
X48847347Y-89675945D01*
X48838715Y-89744660D01*
X48868679Y-89807290D01*
X48891912Y-89827420D01*
X48892566Y-89829310D01*
X48891256Y-89830822D01*
X48889491Y-89830595D01*
X48858138Y-89809646D01*
X48814672Y-89801000D01*
X47510329Y-89801001D01*
X47466862Y-89809646D01*
X47435508Y-89830596D01*
X47433512Y-89830727D01*
X47432401Y-89829064D01*
X47432862Y-89827650D01*
X47477653Y-89774055D01*
X47486285Y-89705340D01*
X47456321Y-89642710D01*
X47433087Y-89622579D01*
X47432433Y-89620689D01*
X47433743Y-89619177D01*
X47435508Y-89619404D01*
G37*
G36*
X41710508Y-89619404D02*
G01*
X41741862Y-89640354D01*
X41785328Y-89649000D01*
X43089671Y-89648999D01*
X43133138Y-89640354D01*
X43164492Y-89619404D01*
X43166488Y-89619273D01*
X43167599Y-89620936D01*
X43167138Y-89622350D01*
X43122347Y-89675945D01*
X43113715Y-89744660D01*
X43143679Y-89807290D01*
X43166912Y-89827420D01*
X43167566Y-89829310D01*
X43166256Y-89830822D01*
X43164491Y-89830595D01*
X43133138Y-89809646D01*
X43089672Y-89801000D01*
X41785329Y-89801001D01*
X41741862Y-89809646D01*
X41710508Y-89830596D01*
X41708512Y-89830727D01*
X41707401Y-89829064D01*
X41707862Y-89827650D01*
X41752653Y-89774055D01*
X41761285Y-89705340D01*
X41731321Y-89642710D01*
X41708087Y-89622579D01*
X41707433Y-89620689D01*
X41708743Y-89619177D01*
X41710508Y-89619404D01*
G37*
G36*
X47435508Y-88969404D02*
G01*
X47466862Y-88990354D01*
X47510328Y-88999000D01*
X48814671Y-88998999D01*
X48858138Y-88990354D01*
X48889492Y-88969404D01*
X48891488Y-88969273D01*
X48892599Y-88970936D01*
X48892138Y-88972350D01*
X48847347Y-89025945D01*
X48838715Y-89094660D01*
X48868679Y-89157290D01*
X48891912Y-89177420D01*
X48892566Y-89179310D01*
X48891256Y-89180822D01*
X48889491Y-89180595D01*
X48858138Y-89159646D01*
X48814672Y-89151000D01*
X47510329Y-89151001D01*
X47466862Y-89159646D01*
X47435508Y-89180596D01*
X47433512Y-89180727D01*
X47432401Y-89179064D01*
X47432862Y-89177650D01*
X47477653Y-89124055D01*
X47486285Y-89055340D01*
X47456321Y-88992710D01*
X47433087Y-88972579D01*
X47432433Y-88970689D01*
X47433743Y-88969177D01*
X47435508Y-88969404D01*
G37*
G36*
X41710508Y-88969404D02*
G01*
X41741862Y-88990354D01*
X41785328Y-88999000D01*
X43089671Y-88998999D01*
X43133138Y-88990354D01*
X43164492Y-88969404D01*
X43166488Y-88969273D01*
X43167599Y-88970936D01*
X43167138Y-88972350D01*
X43122347Y-89025945D01*
X43113715Y-89094660D01*
X43143679Y-89157290D01*
X43166912Y-89177420D01*
X43167566Y-89179310D01*
X43166256Y-89180822D01*
X43164491Y-89180595D01*
X43133138Y-89159646D01*
X43089672Y-89151000D01*
X41785329Y-89151001D01*
X41741862Y-89159646D01*
X41710508Y-89180596D01*
X41708512Y-89180727D01*
X41707401Y-89179064D01*
X41707862Y-89177650D01*
X41752653Y-89124055D01*
X41761285Y-89055340D01*
X41731321Y-88992710D01*
X41708087Y-88972579D01*
X41707433Y-88970689D01*
X41708743Y-88969177D01*
X41710508Y-88969404D01*
G37*
G36*
X47435508Y-88319404D02*
G01*
X47466862Y-88340354D01*
X47510328Y-88349000D01*
X48814671Y-88348999D01*
X48858138Y-88340354D01*
X48889492Y-88319404D01*
X48891488Y-88319273D01*
X48892599Y-88320936D01*
X48892138Y-88322350D01*
X48847347Y-88375945D01*
X48838715Y-88444660D01*
X48868679Y-88507290D01*
X48891912Y-88527420D01*
X48892566Y-88529310D01*
X48891256Y-88530822D01*
X48889491Y-88530595D01*
X48858138Y-88509646D01*
X48814672Y-88501000D01*
X47510329Y-88501001D01*
X47466862Y-88509646D01*
X47435508Y-88530596D01*
X47433512Y-88530727D01*
X47432401Y-88529064D01*
X47432862Y-88527650D01*
X47477653Y-88474055D01*
X47486285Y-88405340D01*
X47456321Y-88342710D01*
X47433087Y-88322579D01*
X47432433Y-88320689D01*
X47433743Y-88319177D01*
X47435508Y-88319404D01*
G37*
G36*
X41710508Y-88319404D02*
G01*
X41741862Y-88340354D01*
X41785328Y-88349000D01*
X43089671Y-88348999D01*
X43133138Y-88340354D01*
X43164492Y-88319404D01*
X43166488Y-88319273D01*
X43167599Y-88320936D01*
X43167138Y-88322350D01*
X43122347Y-88375945D01*
X43113715Y-88444660D01*
X43143679Y-88507290D01*
X43166912Y-88527420D01*
X43167566Y-88529310D01*
X43166256Y-88530822D01*
X43164491Y-88530595D01*
X43133138Y-88509646D01*
X43089672Y-88501000D01*
X41785329Y-88501001D01*
X41741862Y-88509646D01*
X41710508Y-88530596D01*
X41708512Y-88530727D01*
X41707401Y-88529064D01*
X41707862Y-88527650D01*
X41752653Y-88474055D01*
X41761285Y-88405340D01*
X41731321Y-88342710D01*
X41708087Y-88322579D01*
X41707433Y-88320689D01*
X41708743Y-88319177D01*
X41710508Y-88319404D01*
G37*
G36*
X47435508Y-87669404D02*
G01*
X47466862Y-87690354D01*
X47510328Y-87699000D01*
X48814671Y-87698999D01*
X48858138Y-87690354D01*
X48889492Y-87669404D01*
X48891488Y-87669273D01*
X48892599Y-87670936D01*
X48892138Y-87672350D01*
X48847347Y-87725945D01*
X48838715Y-87794660D01*
X48868679Y-87857290D01*
X48891912Y-87877420D01*
X48892566Y-87879310D01*
X48891256Y-87880822D01*
X48889491Y-87880595D01*
X48858138Y-87859646D01*
X48814672Y-87851000D01*
X47510329Y-87851001D01*
X47466862Y-87859646D01*
X47435508Y-87880596D01*
X47433512Y-87880727D01*
X47432401Y-87879064D01*
X47432862Y-87877650D01*
X47477653Y-87824055D01*
X47486285Y-87755340D01*
X47456321Y-87692710D01*
X47433087Y-87672579D01*
X47432433Y-87670689D01*
X47433743Y-87669177D01*
X47435508Y-87669404D01*
G37*
G36*
X41710508Y-87669404D02*
G01*
X41741862Y-87690354D01*
X41785328Y-87699000D01*
X43089671Y-87698999D01*
X43133138Y-87690354D01*
X43164492Y-87669404D01*
X43166488Y-87669273D01*
X43167599Y-87670936D01*
X43167138Y-87672350D01*
X43122347Y-87725945D01*
X43113715Y-87794660D01*
X43143679Y-87857290D01*
X43166912Y-87877420D01*
X43167566Y-87879310D01*
X43166256Y-87880822D01*
X43164491Y-87880595D01*
X43133138Y-87859646D01*
X43089672Y-87851000D01*
X41785329Y-87851001D01*
X41741862Y-87859646D01*
X41710508Y-87880596D01*
X41708512Y-87880727D01*
X41707401Y-87879064D01*
X41707862Y-87877650D01*
X41752653Y-87824055D01*
X41761285Y-87755340D01*
X41731321Y-87692710D01*
X41708087Y-87672579D01*
X41707433Y-87670689D01*
X41708743Y-87669177D01*
X41710508Y-87669404D01*
G37*
G36*
X47435508Y-87019404D02*
G01*
X47466862Y-87040354D01*
X47510328Y-87049000D01*
X48814671Y-87048999D01*
X48858138Y-87040354D01*
X48889492Y-87019404D01*
X48891488Y-87019273D01*
X48892599Y-87020936D01*
X48892138Y-87022350D01*
X48847347Y-87075945D01*
X48838715Y-87144660D01*
X48868679Y-87207290D01*
X48891912Y-87227420D01*
X48892566Y-87229310D01*
X48891256Y-87230822D01*
X48889491Y-87230595D01*
X48858138Y-87209646D01*
X48814672Y-87201000D01*
X47510329Y-87201001D01*
X47466862Y-87209646D01*
X47435508Y-87230596D01*
X47433512Y-87230727D01*
X47432401Y-87229064D01*
X47432862Y-87227650D01*
X47477653Y-87174055D01*
X47486285Y-87105340D01*
X47456321Y-87042710D01*
X47433087Y-87022579D01*
X47432433Y-87020689D01*
X47433743Y-87019177D01*
X47435508Y-87019404D01*
G37*
G36*
X41710508Y-87019404D02*
G01*
X41741862Y-87040354D01*
X41785328Y-87049000D01*
X43089671Y-87048999D01*
X43133138Y-87040354D01*
X43164492Y-87019404D01*
X43166488Y-87019273D01*
X43167599Y-87020936D01*
X43167138Y-87022350D01*
X43122347Y-87075945D01*
X43113715Y-87144660D01*
X43143679Y-87207290D01*
X43166912Y-87227420D01*
X43167566Y-87229310D01*
X43166256Y-87230822D01*
X43164491Y-87230595D01*
X43133138Y-87209646D01*
X43089672Y-87201000D01*
X41785329Y-87201001D01*
X41741862Y-87209646D01*
X41710508Y-87230596D01*
X41708512Y-87230727D01*
X41707401Y-87229064D01*
X41707862Y-87227650D01*
X41752653Y-87174055D01*
X41761285Y-87105340D01*
X41731321Y-87042710D01*
X41708087Y-87022579D01*
X41707433Y-87020689D01*
X41708743Y-87019177D01*
X41710508Y-87019404D01*
G37*
G36*
X46166668Y-57546665D02*
G01*
X46167058Y-57548627D01*
X46166699Y-57549267D01*
X46123511Y-57600946D01*
X46114880Y-57669661D01*
X46144844Y-57732291D01*
X46165682Y-57750348D01*
X46166336Y-57752238D01*
X46165026Y-57753749D01*
X46163982Y-57753821D01*
X46149801Y-57751000D01*
X44650199Y-57751000D01*
X44635226Y-57753978D01*
X44633332Y-57753335D01*
X44632942Y-57751373D01*
X44633301Y-57750733D01*
X44676489Y-57699054D01*
X44685120Y-57630339D01*
X44655156Y-57567709D01*
X44634318Y-57549652D01*
X44633664Y-57547762D01*
X44634974Y-57546251D01*
X44636018Y-57546179D01*
X44650199Y-57549000D01*
X46149801Y-57549000D01*
X46164774Y-57546022D01*
X46166668Y-57546665D01*
G37*
G36*
X46166668Y-56246665D02*
G01*
X46167058Y-56248627D01*
X46166699Y-56249267D01*
X46123511Y-56300946D01*
X46114880Y-56369661D01*
X46144844Y-56432291D01*
X46165682Y-56450348D01*
X46166336Y-56452238D01*
X46165026Y-56453749D01*
X46163982Y-56453821D01*
X46149801Y-56451000D01*
X44650199Y-56451000D01*
X44635226Y-56453978D01*
X44633332Y-56453335D01*
X44632942Y-56451373D01*
X44633301Y-56450733D01*
X44676489Y-56399054D01*
X44685120Y-56330339D01*
X44655156Y-56267709D01*
X44634318Y-56249652D01*
X44633664Y-56247762D01*
X44634974Y-56246251D01*
X44636018Y-56246179D01*
X44650199Y-56249000D01*
X46149801Y-56249000D01*
X46164774Y-56246022D01*
X46166668Y-56246665D01*
G37*
G36*
X33146668Y-55971665D02*
G01*
X33147058Y-55973627D01*
X33146699Y-55974267D01*
X33103511Y-56025946D01*
X33094880Y-56094661D01*
X33124844Y-56157291D01*
X33145682Y-56175348D01*
X33146336Y-56177238D01*
X33145026Y-56178749D01*
X33143982Y-56178821D01*
X33129801Y-56176000D01*
X32070199Y-56176000D01*
X32055226Y-56178978D01*
X32053332Y-56178335D01*
X32052942Y-56176373D01*
X32053301Y-56175733D01*
X32096489Y-56124054D01*
X32105120Y-56055339D01*
X32075156Y-55992709D01*
X32054318Y-55974652D01*
X32053664Y-55972762D01*
X32054974Y-55971251D01*
X32056018Y-55971179D01*
X32070199Y-55974000D01*
X33129801Y-55974000D01*
X33144774Y-55971022D01*
X33146668Y-55971665D01*
G37*
G36*
X38146668Y-55971665D02*
G01*
X38147058Y-55973627D01*
X38146699Y-55974267D01*
X38103511Y-56025946D01*
X38094880Y-56094661D01*
X38124844Y-56157291D01*
X38145682Y-56175348D01*
X38146336Y-56177238D01*
X38145026Y-56178749D01*
X38143982Y-56178821D01*
X38129801Y-56176000D01*
X37070199Y-56176000D01*
X37055226Y-56178978D01*
X37053332Y-56178335D01*
X37052942Y-56176373D01*
X37053301Y-56175733D01*
X37096489Y-56124054D01*
X37105120Y-56055339D01*
X37075156Y-55992709D01*
X37054318Y-55974652D01*
X37053664Y-55972762D01*
X37054974Y-55971251D01*
X37056018Y-55971179D01*
X37070199Y-55974000D01*
X38129801Y-55974000D01*
X38144774Y-55971022D01*
X38146668Y-55971665D01*
G37*
G36*
X38146668Y-55021665D02*
G01*
X38147058Y-55023627D01*
X38146699Y-55024267D01*
X38103511Y-55075946D01*
X38094880Y-55144661D01*
X38124844Y-55207291D01*
X38145682Y-55225348D01*
X38146336Y-55227238D01*
X38145026Y-55228749D01*
X38143982Y-55228821D01*
X38129801Y-55226000D01*
X37070199Y-55226000D01*
X37055226Y-55228978D01*
X37053332Y-55228335D01*
X37052942Y-55226373D01*
X37053301Y-55225733D01*
X37096489Y-55174054D01*
X37105120Y-55105339D01*
X37075156Y-55042709D01*
X37054318Y-55024652D01*
X37053664Y-55022762D01*
X37054974Y-55021251D01*
X37056018Y-55021179D01*
X37070199Y-55024000D01*
X38129801Y-55024000D01*
X38144774Y-55021022D01*
X38146668Y-55021665D01*
G37*
G36*
X33146668Y-55021665D02*
G01*
X33147058Y-55023627D01*
X33146699Y-55024267D01*
X33103511Y-55075946D01*
X33094880Y-55144661D01*
X33124844Y-55207291D01*
X33145682Y-55225348D01*
X33146336Y-55227238D01*
X33145026Y-55228749D01*
X33143982Y-55228821D01*
X33129801Y-55226000D01*
X32070199Y-55226000D01*
X32055226Y-55228978D01*
X32053332Y-55228335D01*
X32052942Y-55226373D01*
X32053301Y-55225733D01*
X32096489Y-55174054D01*
X32105120Y-55105339D01*
X32075156Y-55042709D01*
X32054318Y-55024652D01*
X32053664Y-55022762D01*
X32054974Y-55021251D01*
X32056018Y-55021179D01*
X32070199Y-55024000D01*
X33129801Y-55024000D01*
X33144774Y-55021022D01*
X33146668Y-55021665D01*
G37*
G36*
X25470631Y-48495877D02*
G01*
X25471021Y-48497839D01*
X25470662Y-48498479D01*
X25430994Y-48545946D01*
X25422363Y-48614661D01*
X25452327Y-48677291D01*
X25467905Y-48690790D01*
X25468559Y-48692680D01*
X25467249Y-48694191D01*
X25466205Y-48694263D01*
X25449801Y-48691000D01*
X24250199Y-48691000D01*
X24231263Y-48694766D01*
X24229369Y-48694123D01*
X24228979Y-48692161D01*
X24229338Y-48691521D01*
X24269006Y-48644054D01*
X24277637Y-48575339D01*
X24247673Y-48512709D01*
X24232095Y-48499210D01*
X24231441Y-48497320D01*
X24232751Y-48495809D01*
X24233795Y-48495737D01*
X24250199Y-48499000D01*
X25449801Y-48499000D01*
X25468737Y-48495234D01*
X25470631Y-48495877D01*
G37*
G36*
X25466668Y-47496665D02*
G01*
X25467058Y-47498627D01*
X25466699Y-47499267D01*
X25423511Y-47550946D01*
X25414880Y-47619661D01*
X25444844Y-47682291D01*
X25465682Y-47700348D01*
X25466336Y-47702238D01*
X25465026Y-47703749D01*
X25463982Y-47703821D01*
X25449801Y-47701000D01*
X24250199Y-47701000D01*
X24235226Y-47703978D01*
X24233332Y-47703335D01*
X24232942Y-47701373D01*
X24233301Y-47700733D01*
X24276489Y-47649054D01*
X24285120Y-47580339D01*
X24255156Y-47517709D01*
X24234318Y-47499652D01*
X24233664Y-47497762D01*
X24234974Y-47496251D01*
X24236018Y-47496179D01*
X24250199Y-47499000D01*
X25449801Y-47499000D01*
X25464774Y-47496022D01*
X25466668Y-47496665D01*
G37*
G36*
X25470631Y-46505877D02*
G01*
X25471021Y-46507839D01*
X25470662Y-46508479D01*
X25430994Y-46555946D01*
X25422363Y-46624661D01*
X25452327Y-46687291D01*
X25467905Y-46700790D01*
X25468559Y-46702680D01*
X25467249Y-46704191D01*
X25466205Y-46704263D01*
X25449801Y-46701000D01*
X24250199Y-46701000D01*
X24231263Y-46704766D01*
X24229369Y-46704123D01*
X24228979Y-46702161D01*
X24229338Y-46701521D01*
X24269006Y-46654054D01*
X24277637Y-46585339D01*
X24247673Y-46522709D01*
X24232095Y-46509210D01*
X24231441Y-46507320D01*
X24232751Y-46505809D01*
X24233795Y-46505737D01*
X24250199Y-46509000D01*
X25449801Y-46509000D01*
X25468737Y-46505234D01*
X25470631Y-46505877D01*
G37*
M02*
