M48
; DRILL file {KiCad (5.1.5)-2} date 14/06/2020 05:32:11
; FORMAT={-:-/ absolute / inch / decimal}
; #@! TF.CreationDate,2020-06-14T05:32:11+12:00
; #@! TF.GenerationSoftware,Kicad,Pcbnew,(5.1.5)-2
; #@! TF.FileFunction,Plated,1,2,PTH
FMAT,2
INCH
T1C0.0157
T2C0.0236
T3C0.0394
T4C0.0472
T5C0.0512
T6C0.0787
T7C0.0906
T8C0.0984
T9C0.1260
T10C0.1417
%
G90
G05
T1
X0.8976Y-2.1496
X0.8976Y-5.0236
X0.9567Y-2.2638
X0.9567Y-5.1378
X1.0039Y-3.6929
X1.0039Y-6.5669
X1.0118Y-3.9843
X1.0118Y-6.8583
X1.0433Y-2.0039
X1.0433Y-4.878
X1.0945Y-3.1457
X1.0945Y-3.3346
X1.0945Y-6.0197
X1.0945Y-6.2087
X1.1063Y-1.6614
X1.1063Y-4.5354
X1.1124Y-3.4864
X1.1124Y-6.3604
X1.1299Y-2.878
X1.1299Y-3.9528
X1.1299Y-5.752
X1.1299Y-6.8268
X1.1535Y-2.0433
X1.1535Y-4.9173
X1.1732Y-1.752
X1.1732Y-4.626
X1.1772Y-4.1693
X1.1772Y-7.0433
X1.2165Y-3.3307
X1.2165Y-6.2047
X1.2441Y-4.0551
X1.2441Y-6.9291
X1.2598Y-3.1772
X1.2598Y-6.0512
X1.2677Y-2.2756
X1.2677Y-3.874
X1.2677Y-5.1496
X1.2677Y-6.748
X1.2756Y-1.9094
X1.2756Y-4.7835
X1.2795Y-3.5394
X1.2795Y-6.4134
X1.2835Y-3.0354
X1.2835Y-5.9094
X1.3031Y-3.4291
X1.3031Y-6.3031
X1.3071Y-3.2598
X1.3071Y-6.1339
X1.4252Y-1.7402
X1.4252Y-4.6142
X1.4291Y-4.0197
X1.4291Y-6.8937
X1.4331Y-1.6575
X1.4331Y-3.126
X1.4331Y-3.4094
X1.4331Y-4.1299
X1.4331Y-4.5315
X1.4331Y-6.0
X1.4331Y-6.2835
X1.4331Y-7.0039
X1.437Y-2.063
X1.437Y-4.937
X1.4449Y-4.2402
X1.4449Y-7.1142
X1.4882Y-1.7874
X1.4882Y-2.2835
X1.4882Y-4.6614
X1.4882Y-5.1575
X1.4921Y-2.4606
X1.4921Y-5.3346
X1.4961Y-1.8701
X1.4961Y-4.7441
X1.5433Y-3.1417
X1.5433Y-6.0157
X1.5906Y-2.8898
X1.5906Y-5.7638
X1.6063Y-2.5906
X1.6063Y-3.0866
X1.6063Y-5.4646
X1.6063Y-5.9606
X1.6102Y-2.4488
X1.6102Y-5.3228
X1.6142Y-3.5433
X1.6142Y-6.4173
X1.6242Y-2.0963
X1.6242Y-4.9703
X1.6299Y-3.374
X1.6299Y-6.248
X1.6457Y-2.1496
X1.6457Y-5.0236
X1.6614Y-1.9567
X1.6614Y-4.8307
X1.6654Y-2.9882
X1.6654Y-5.8622
X1.6732Y-2.8071
X1.6732Y-5.6811
X1.6772Y-2.689
X1.6772Y-5.563
X1.689Y-2.4055
X1.689Y-5.2795
X1.7126Y-4.1181
X1.7126Y-6.9921
X1.7165Y-4.0118
X1.7165Y-6.8858
X1.7205Y-2.2795
X1.7205Y-5.1535
X1.7244Y-3.0394
X1.7244Y-5.9134
X1.7402Y-2.5197
X1.7402Y-5.3937
X1.7441Y-2.6339
X1.7441Y-5.5079
X1.7485Y-2.0005
X1.7485Y-4.8745
X1.7559Y-2.3425
X1.7559Y-4.2717
X1.7559Y-5.2165
X1.7559Y-7.1457
X1.7756Y-2.8661
X1.7756Y-5.7402
X1.7913Y-2.4213
X1.7913Y-5.2953
X1.7953Y-3.1063
X1.7953Y-5.9803
X1.8031Y-2.5118
X1.8031Y-2.9488
X1.8031Y-5.3858
X1.8031Y-5.8228
X1.8228Y-2.1339
X1.8228Y-5.0079
X1.8268Y-2.3465
X1.8268Y-5.2205
X1.8583Y-3.0315
X1.8583Y-5.9055
X1.8622Y-3.5709
X1.8622Y-6.4449
X1.8661Y-2.6772
X1.8661Y-2.8346
X1.8661Y-5.5512
X1.8661Y-5.7087
X1.8819Y-2.0
X1.8819Y-4.874
X1.8858Y-3.1772
X1.8858Y-6.0512
X1.8976Y-1.9094
X1.8976Y-2.1339
X1.8976Y-4.7835
X1.8976Y-5.0079
X1.9016Y-2.3937
X1.9016Y-5.2677
X1.9055Y-2.3189
X1.9055Y-2.7402
X1.9055Y-5.1929
X1.9055Y-5.6142
X1.9291Y-1.7323
X1.9291Y-4.6063
X1.937Y-2.2283
X1.937Y-3.0236
X1.937Y-5.1024
X1.937Y-5.8976
X1.9685Y-2.5276
X1.9685Y-2.6063
X1.9685Y-2.7402
X1.9685Y-5.4016
X1.9685Y-5.4803
X1.9685Y-5.6142
X2.0Y-2.185
X2.0Y-2.9291
X2.0Y-3.0591
X2.0Y-3.1339
X2.0Y-5.0591
X2.0Y-5.8031
X2.0Y-5.9331
X2.0Y-6.0079
X2.0433Y-2.7323
X2.0433Y-5.6063
X2.0472Y-2.4724
X2.0472Y-3.1693
X2.0472Y-5.3465
X2.0472Y-6.0433
X2.0709Y-4.0276
X2.0709Y-6.9016
X2.0787Y-2.9685
X2.0787Y-3.0276
X2.0787Y-5.8425
X2.0787Y-5.9016
X2.0827Y-2.6496
X2.0827Y-5.5236
X2.0984Y-1.7283
X2.0984Y-4.6024
X2.1142Y-2.5512
X2.1142Y-3.0709
X2.1142Y-5.4252
X2.1142Y-5.9449
X2.122Y-2.9213
X2.122Y-3.2087
X2.122Y-5.7953
X2.122Y-6.0827
X2.1496Y-4.2205
X2.1496Y-7.0945
X2.1575Y-2.2362
X2.1575Y-5.1102
X2.1772Y-4.1339
X2.1772Y-7.0079
X2.189Y-2.626
X2.189Y-5.5
X2.2165Y-3.9449
X2.2165Y-6.8189
X2.2205Y-2.937
X2.2205Y-5.811
X2.2638Y-2.2598
X2.2638Y-5.1339
X2.2717Y-3.0118
X2.2717Y-5.8858
X2.2992Y-3.1063
X2.2992Y-5.9803
X2.311Y-2.6575
X2.311Y-5.5315
X2.3386Y-2.9567
X2.3386Y-5.8307
X2.3465Y-4.2244
X2.3465Y-7.0984
X2.3622Y-3.7402
X2.3622Y-6.6142
X2.374Y-3.9724
X2.374Y-6.8465
X2.5039Y-3.7323
X2.5039Y-6.6063
X2.9843Y-2.1496
X2.9843Y-5.0236
X3.0433Y-2.2638
X3.0433Y-5.1378
X3.0906Y-3.6929
X3.0906Y-6.5669
X3.0984Y-3.9843
X3.0984Y-6.8583
X3.1299Y-2.0039
X3.1299Y-4.878
X3.1811Y-3.1457
X3.1811Y-3.3346
X3.1811Y-6.0197
X3.1811Y-6.2087
X3.1929Y-1.6614
X3.1929Y-4.5354
X3.199Y-3.4864
X3.199Y-6.3604
X3.2165Y-2.878
X3.2165Y-3.9528
X3.2165Y-5.752
X3.2165Y-6.8268
X3.2402Y-2.0433
X3.2402Y-4.9173
X3.2598Y-1.752
X3.2598Y-4.626
X3.2638Y-4.1693
X3.2638Y-7.0433
X3.3031Y-3.3307
X3.3031Y-6.2047
X3.3307Y-4.0551
X3.3307Y-6.9291
X3.3465Y-3.1772
X3.3465Y-6.0512
X3.3543Y-2.2756
X3.3543Y-3.874
X3.3543Y-5.1496
X3.3543Y-6.748
X3.3622Y-1.9094
X3.3622Y-4.7835
X3.3661Y-3.5394
X3.3661Y-6.4134
X3.3701Y-3.0354
X3.3701Y-5.9094
X3.3898Y-3.4291
X3.3898Y-6.3031
X3.3937Y-3.2598
X3.3937Y-6.1339
X3.5118Y-1.7402
X3.5118Y-4.6142
X3.5157Y-4.0197
X3.5157Y-6.8937
X3.5197Y-1.6575
X3.5197Y-3.126
X3.5197Y-3.4094
X3.5197Y-4.1299
X3.5197Y-4.5315
X3.5197Y-6.0
X3.5197Y-6.2835
X3.5197Y-7.0039
X3.5236Y-2.063
X3.5236Y-4.937
X3.5315Y-4.2402
X3.5315Y-7.1142
X3.5748Y-1.7874
X3.5748Y-2.2835
X3.5748Y-4.6614
X3.5748Y-5.1575
X3.5787Y-2.4606
X3.5787Y-5.3346
X3.5827Y-1.8701
X3.5827Y-4.7441
X3.6299Y-3.1417
X3.6299Y-6.0157
X3.6772Y-2.8898
X3.6772Y-5.7638
X3.6929Y-2.5906
X3.6929Y-3.0866
X3.6929Y-5.4646
X3.6929Y-5.9606
X3.6969Y-2.4488
X3.6969Y-5.3228
X3.7008Y-3.5433
X3.7008Y-6.4173
X3.7108Y-2.0963
X3.7108Y-4.9703
X3.7165Y-3.374
X3.7165Y-6.248
X3.7323Y-2.1496
X3.7323Y-5.0236
X3.748Y-1.9567
X3.748Y-4.8307
X3.752Y-2.9882
X3.752Y-5.8622
X3.7598Y-2.8071
X3.7598Y-5.6811
X3.7638Y-2.689
X3.7638Y-5.563
X3.7756Y-2.4055
X3.7756Y-5.2795
X3.7992Y-4.1181
X3.7992Y-6.9921
X3.8031Y-4.0118
X3.8031Y-6.8858
X3.8071Y-2.2795
X3.8071Y-5.1535
X3.811Y-3.0394
X3.811Y-5.9134
X3.8268Y-2.5197
X3.8268Y-5.3937
X3.8307Y-2.6339
X3.8307Y-5.5079
X3.8351Y-2.0005
X3.8351Y-4.8745
X3.8425Y-2.3425
X3.8425Y-4.2717
X3.8425Y-5.2165
X3.8425Y-7.1457
X3.8622Y-2.8661
X3.8622Y-5.7402
X3.878Y-2.4213
X3.878Y-5.2953
X3.8819Y-3.1063
X3.8819Y-5.9803
X3.8898Y-2.5118
X3.8898Y-2.9488
X3.8898Y-5.3858
X3.8898Y-5.8228
X3.9094Y-2.1339
X3.9094Y-5.0079
X3.9134Y-2.3465
X3.9134Y-5.2205
X3.9449Y-3.0315
X3.9449Y-5.9055
X3.9488Y-3.5709
X3.9488Y-6.4449
X3.9528Y-2.6772
X3.9528Y-2.8346
X3.9528Y-5.5512
X3.9528Y-5.7087
X3.9685Y-2.0
X3.9685Y-4.874
X3.9724Y-3.1772
X3.9724Y-6.0512
X3.9843Y-1.9094
X3.9843Y-2.1339
X3.9843Y-4.7835
X3.9843Y-5.0079
X3.9882Y-2.3937
X3.9882Y-5.2677
X3.9921Y-2.3189
X3.9921Y-2.7402
X3.9921Y-5.1929
X3.9921Y-5.6142
X4.0157Y-1.7323
X4.0157Y-4.6063
X4.0236Y-2.2283
X4.0236Y-3.0236
X4.0236Y-5.1024
X4.0236Y-5.8976
X4.0551Y-2.5276
X4.0551Y-2.6063
X4.0551Y-2.7402
X4.0551Y-5.4016
X4.0551Y-5.4803
X4.0551Y-5.6142
X4.0866Y-2.185
X4.0866Y-2.9291
X4.0866Y-3.0591
X4.0866Y-3.1339
X4.0866Y-5.0591
X4.0866Y-5.8031
X4.0866Y-5.9331
X4.0866Y-6.0079
X4.1299Y-2.7323
X4.1299Y-5.6063
X4.1339Y-2.4724
X4.1339Y-3.1693
X4.1339Y-5.3465
X4.1339Y-6.0433
X4.1575Y-4.0276
X4.1575Y-6.9016
X4.1654Y-2.9685
X4.1654Y-3.0276
X4.1654Y-5.8425
X4.1654Y-5.9016
X4.1693Y-2.6496
X4.1693Y-5.5236
X4.185Y-1.7283
X4.185Y-4.6024
X4.2008Y-2.5512
X4.2008Y-3.0709
X4.2008Y-5.4252
X4.2008Y-5.9449
X4.2087Y-2.9213
X4.2087Y-3.2087
X4.2087Y-5.7953
X4.2087Y-6.0827
X4.2362Y-4.2205
X4.2362Y-7.0945
X4.2441Y-2.2362
X4.2441Y-5.1102
X4.2638Y-4.1339
X4.2638Y-7.0079
X4.2756Y-2.626
X4.2756Y-5.5
X4.3031Y-3.9449
X4.3031Y-6.8189
X4.3071Y-2.937
X4.3071Y-5.811
X4.3504Y-2.2598
X4.3504Y-5.1339
X4.3583Y-3.0118
X4.3583Y-5.8858
X4.3858Y-3.1063
X4.3858Y-5.9803
X4.3976Y-2.6575
X4.3976Y-5.5315
X4.4252Y-2.9567
X4.4252Y-5.8307
X4.4331Y-4.2244
X4.4331Y-7.0984
X4.4488Y-3.7402
X4.4488Y-6.6142
X4.4606Y-3.9724
X4.4606Y-6.8465
X4.5906Y-3.7323
X4.5906Y-6.6063
T3
X0.8685Y-2.7276
X0.8685Y-2.8177
X0.8685Y-2.9079
X0.8685Y-2.998
X0.8685Y-3.0882
X0.9685Y-2.7724
X0.9685Y-2.8626
X0.9685Y-2.9528
X0.9685Y-3.0429
X0.9685Y-3.1331
X1.0685Y-2.7276
X1.0685Y-2.8177
X1.0685Y-2.9079
X1.0685Y-2.998
X1.0685Y-3.0882
X2.9551Y-5.6016
X2.9551Y-5.6917
X2.9551Y-5.7819
X2.9551Y-5.872
X2.9551Y-5.9622
X3.0551Y-5.6465
X3.0551Y-5.7366
X3.0551Y-5.8268
X3.0551Y-5.9169
X3.0551Y-6.0071
X3.1551Y-5.6016
X3.1551Y-5.6917
X3.1551Y-5.7819
X3.1551Y-5.872
X3.1551Y-5.9622
X0.8685Y-5.6016
X0.8685Y-5.6917
X0.8685Y-5.7819
X0.8685Y-5.872
X0.8685Y-5.9622
X0.9685Y-5.6465
X0.9685Y-5.7366
X0.9685Y-5.8268
X0.9685Y-5.9169
X0.9685Y-6.0071
X1.0685Y-5.6016
X1.0685Y-5.6917
X1.0685Y-5.7819
X1.0685Y-5.872
X1.0685Y-5.9622
X2.9551Y-2.7276
X2.9551Y-2.8177
X2.9551Y-2.9079
X2.9551Y-2.998
X2.9551Y-3.0882
X3.0551Y-2.7724
X3.0551Y-2.8626
X3.0551Y-2.9528
X3.0551Y-3.0429
X3.0551Y-3.1331
X3.1551Y-2.7276
X3.1551Y-2.8177
X3.1551Y-2.9079
X3.1551Y-2.998
X3.1551Y-3.0882
T5
X1.1575Y-5.3823
X1.1575Y-5.5323
X1.1575Y-5.6823
X1.1575Y-5.8323
X1.1575Y-5.9823
X1.1575Y-6.1323
X1.1575Y-6.2823
X1.1575Y-6.4323
X1.1575Y-6.5823
X1.1575Y-6.7323
X1.3575Y-5.3073
X1.3575Y-5.4573
X1.3575Y-5.6073
X1.3575Y-5.7573
X1.3575Y-5.9073
X1.3575Y-6.0573
X1.3575Y-6.2073
X1.3575Y-6.3573
X1.3575Y-6.5073
X1.3575Y-6.6573
X1.3575Y-6.8073
X1.1575Y-2.5083
X1.1575Y-2.6583
X1.1575Y-2.8083
X1.1575Y-2.9583
X1.1575Y-3.1083
X1.1575Y-3.2583
X1.1575Y-3.4083
X1.1575Y-3.5583
X1.1575Y-3.7083
X1.1575Y-3.8583
X1.3575Y-2.4333
X1.3575Y-2.5833
X1.3575Y-2.7333
X1.3575Y-2.8833
X1.3575Y-3.0333
X1.3575Y-3.1833
X1.3575Y-3.3333
X1.3575Y-3.4833
X1.3575Y-3.6333
X1.3575Y-3.7833
X1.3575Y-3.9333
X3.2441Y-5.3823
X3.2441Y-5.5323
X3.2441Y-5.6823
X3.2441Y-5.8323
X3.2441Y-5.9823
X3.2441Y-6.1323
X3.2441Y-6.2823
X3.2441Y-6.4323
X3.2441Y-6.5823
X3.2441Y-6.7323
X3.4441Y-5.3073
X3.4441Y-5.4573
X3.4441Y-5.6073
X3.4441Y-5.7573
X3.4441Y-5.9073
X3.4441Y-6.0573
X3.4441Y-6.2073
X3.4441Y-6.3573
X3.4441Y-6.5073
X3.4441Y-6.6573
X3.4441Y-6.8073
X3.2441Y-2.5083
X3.2441Y-2.6583
X3.2441Y-2.8083
X3.2441Y-2.9583
X3.2441Y-3.1083
X3.2441Y-3.2583
X3.2441Y-3.4083
X3.2441Y-3.5583
X3.2441Y-3.7083
X3.2441Y-3.8583
X3.4441Y-2.4333
X3.4441Y-2.5833
X3.4441Y-2.7333
X3.4441Y-2.8833
X3.4441Y-3.0333
X3.4441Y-3.1833
X3.4441Y-3.3333
X3.4441Y-3.4833
X3.4441Y-3.6333
X3.4441Y-3.7833
X3.4441Y-3.9333
T6
X2.4331Y-5.6102
X4.5197Y-2.7362
X4.5197Y-5.0197
X4.5197Y-5.6102
X2.4331Y-5.0197
X2.4331Y-2.1457
X2.4331Y-2.7362
X4.5197Y-2.1457
T7
X2.7222Y-4.9003
X2.7222Y-5.7297
X2.7222Y-2.0262
X2.7222Y-2.8556
X4.8088Y-2.0262
X4.8088Y-2.8556
X4.8088Y-4.9003
X4.8088Y-5.7297
T8
X4.685Y-3.2205
X4.685Y-4.5354
X4.685Y-6.0945
X2.5984Y-4.5354
X2.5984Y-6.0945
X2.5984Y-1.6614
X2.5984Y-3.2205
X4.685Y-1.6614
T9
X3.0551Y-2.426
X3.0551Y-3.4102
X0.9685Y-2.426
X0.9685Y-3.4102
X3.0551Y-5.3
X3.0551Y-6.2843
X0.9685Y-5.3
X0.9685Y-6.2843
T10
X1.0709Y-5.0394
X1.0709Y-7.0972
X1.0709Y-2.1654
X1.0709Y-4.2232
X3.1575Y-5.0394
X3.1575Y-7.0972
X3.1575Y-2.1654
X3.1575Y-4.2232
T2
G00X0.815Y-4.578
M15
G01X0.8386Y-4.578
M16
G05
G00X0.815Y-4.9181
M15
G01X0.8386Y-4.9181
M16
G05
G00X0.9646Y-4.578
M15
G01X0.9882Y-4.578
M16
G05
G00X0.9646Y-4.9181
M15
G01X0.9882Y-4.9181
M16
G05
G00X0.815Y-1.7039
M15
G01X0.8386Y-1.7039
M16
G05
G00X0.815Y-2.0441
M15
G01X0.8386Y-2.0441
M16
G05
G00X0.9646Y-1.7039
M15
G01X0.9882Y-1.7039
M16
G05
G00X0.9646Y-2.0441
M15
G01X0.9882Y-2.0441
M16
G05
G00X2.9016Y-1.7039
M15
G01X2.9252Y-1.7039
M16
G05
G00X2.9016Y-2.0441
M15
G01X2.9252Y-2.0441
M16
G05
G00X3.0512Y-1.7039
M15
G01X3.0748Y-1.7039
M16
G05
G00X3.0512Y-2.0441
M15
G01X3.0748Y-2.0441
M16
G05
G00X2.9016Y-4.578
M15
G01X2.9252Y-4.578
M16
G05
G00X2.9016Y-4.9181
M15
G01X2.9252Y-4.9181
M16
G05
G00X3.0512Y-4.578
M15
G01X3.0748Y-4.578
M16
G05
G00X3.0512Y-4.9181
M15
G01X3.0748Y-4.9181
M16
G05
T3
G00X2.439Y-6.9535
M15
G01X2.3799Y-6.9535
M16
G05
G00X2.439Y-4.0795
M15
G01X2.3799Y-4.0795
M16
G05
G00X4.5256Y-6.9535
M15
G01X4.4665Y-6.9535
M16
G05
G00X4.5256Y-6.4409
M15
G01X4.4665Y-6.4409
M16
G05
G00X2.439Y-6.4409
M15
G01X2.3799Y-6.4409
M16
G05
G00X4.5256Y-3.5669
M15
G01X4.4665Y-3.5669
M16
G05
G00X2.439Y-3.5669
M15
G01X2.3799Y-3.5669
M16
G05
G00X4.5256Y-4.0795
M15
G01X4.4665Y-4.0795
M16
G05
T4
G00X2.3858Y-4.5768
M15
G01X2.4567Y-4.5768
M16
G05
G00X2.3858Y-4.872
M15
G01X2.4567Y-4.872
M16
G05
G00X2.3858Y-5.1673
M15
G01X2.4567Y-5.1673
M16
G05
G00X2.3858Y-5.4626
M15
G01X2.4567Y-5.4626
M16
G05
G00X2.3858Y-5.7579
M15
G01X2.4567Y-5.7579
M16
G05
G00X2.3858Y-6.0531
M15
G01X2.4567Y-6.0531
M16
G05
G00X2.5984Y-4.7563
M15
G01X2.5984Y-4.6925
M16
G05
G00X2.5984Y-5.3469
M15
G01X2.5984Y-5.2831
M16
G05
G00X2.5984Y-5.9374
M15
G01X2.5984Y-5.8736
M16
G05
G00X2.3858Y-1.7028
M15
G01X2.4567Y-1.7028
M16
G05
G00X2.3858Y-1.998
M15
G01X2.4567Y-1.998
M16
G05
G00X2.3858Y-2.2933
M15
G01X2.4567Y-2.2933
M16
G05
G00X2.3858Y-2.5886
M15
G01X2.4567Y-2.5886
M16
G05
G00X2.3858Y-2.8839
M15
G01X2.4567Y-2.8839
M16
G05
G00X2.3858Y-3.1791
M15
G01X2.4567Y-3.1791
M16
G05
G00X2.5984Y-1.8823
M15
G01X2.5984Y-1.8185
M16
G05
G00X2.5984Y-2.4728
M15
G01X2.5984Y-2.4091
M16
G05
G00X2.5984Y-3.0634
M15
G01X2.5984Y-2.9996
M16
G05
G00X4.4724Y-1.7028
M15
G01X4.5433Y-1.7028
M16
G05
G00X4.4724Y-1.998
M15
G01X4.5433Y-1.998
M16
G05
G00X4.4724Y-2.2933
M15
G01X4.5433Y-2.2933
M16
G05
G00X4.4724Y-2.5886
M15
G01X4.5433Y-2.5886
M16
G05
G00X4.4724Y-2.8839
M15
G01X4.5433Y-2.8839
M16
G05
G00X4.4724Y-3.1791
M15
G01X4.5433Y-3.1791
M16
G05
G00X4.685Y-1.8823
M15
G01X4.685Y-1.8185
M16
G05
G00X4.685Y-2.4728
M15
G01X4.685Y-2.4091
M16
G05
G00X4.685Y-3.0634
M15
G01X4.685Y-2.9996
M16
G05
G00X4.4724Y-4.5768
M15
G01X4.5433Y-4.5768
M16
G05
G00X4.4724Y-4.872
M15
G01X4.5433Y-4.872
M16
G05
G00X4.4724Y-5.1673
M15
G01X4.5433Y-5.1673
M16
G05
G00X4.4724Y-5.4626
M15
G01X4.5433Y-5.4626
M16
G05
G00X4.4724Y-5.7579
M15
G01X4.5433Y-5.7579
M16
G05
G00X4.4724Y-6.0531
M15
G01X4.5433Y-6.0531
M16
G05
G00X4.685Y-4.7563
M15
G01X4.685Y-4.6925
M16
G05
G00X4.685Y-5.3469
M15
G01X4.685Y-5.2831
M16
G05
G00X4.685Y-5.9374
M15
G01X4.685Y-5.8736
M16
G05
T5
G00X4.6732Y-4.0559
M15
G01X4.6732Y-4.1031
M16
G05
G00X2.5866Y-6.9299
M15
G01X2.5866Y-6.9772
M16
G05
G00X2.5866Y-4.0559
M15
G01X2.5866Y-4.1031
M16
G05
G00X4.6732Y-6.9299
M15
G01X4.6732Y-6.9772
M16
G05
G00X4.6732Y-6.4173
M15
G01X4.6732Y-6.4646
M16
G05
G00X2.5866Y-6.4173
M15
G01X2.5866Y-6.4646
M16
G05
G00X4.6732Y-3.5433
M15
G01X4.6732Y-3.5906
M16
G05
G00X2.5866Y-3.5433
M15
G01X2.5866Y-3.5906
M16
G05
T0
M30
