M48
; DRILL file {KiCad (5.1.5)-2} date 14/06/2020 05:32:11
; FORMAT={-:-/ absolute / inch / decimal}
; #@! TF.CreationDate,2020-06-14T05:32:11+12:00
; #@! TF.GenerationSoftware,Kicad,Pcbnew,(5.1.5)-2
; #@! TF.FileFunction,NonPlated,1,2,NPTH
FMAT,2
INCH
T1C0.0315
T2C0.0787
%
G90
G05
T1
X4.2839Y-4.3209
X4.3414Y-4.3209
X4.3988Y-4.3209
X4.4562Y-4.3209
X3.2603Y-4.3209
X3.3177Y-4.3209
X3.3752Y-4.3209
X3.4326Y-4.3209
X2.8839Y-4.9926
X2.8839Y-5.05
X2.8839Y-5.1075
X2.8839Y-5.1649
X2.1973Y-4.4587
X2.2548Y-4.4587
X2.3122Y-4.4587
X2.3696Y-4.4587
X2.1973Y-4.3209
X2.2548Y-4.3209
X2.3122Y-4.3209
X2.3696Y-4.3209
X2.7461Y-6.3706
X2.7461Y-6.428
X2.7461Y-6.4854
X2.7461Y-6.5428
X1.1737Y-4.4587
X1.2311Y-4.4587
X1.2886Y-4.4587
X1.346Y-4.4587
X2.7461Y-2.1186
X2.7461Y-2.176
X2.7461Y-2.2334
X2.7461Y-2.2909
X2.8839Y-3.4965
X2.8839Y-3.554
X2.8839Y-3.6114
X2.8839Y-3.6688
X2.8839Y-2.1186
X2.8839Y-2.176
X2.8839Y-2.2334
X2.8839Y-2.2909
X4.2839Y-4.4587
X4.3414Y-4.4587
X4.3988Y-4.4587
X4.4562Y-4.4587
X3.2603Y-4.4587
X3.3177Y-4.4587
X3.3752Y-4.4587
X3.4326Y-4.4587
X1.1737Y-4.3209
X1.2311Y-4.3209
X1.2886Y-4.3209
X1.346Y-4.3209
X2.7461Y-4.9926
X2.7461Y-5.05
X2.7461Y-5.1075
X2.7461Y-5.1649
X2.7461Y-3.4965
X2.7461Y-3.554
X2.7461Y-3.6114
X2.7461Y-3.6688
X2.8839Y-6.3706
X2.8839Y-6.428
X2.8839Y-6.4854
X2.8839Y-6.5428
T2
X4.7972Y-6.2736
X4.7972Y-6.6083
X2.7106Y-6.2736
X2.7106Y-6.6083
X4.7972Y-3.3996
X4.7972Y-3.7343
X2.7106Y-3.3996
X2.7106Y-3.7343
X4.7972Y-3.9122
X4.7972Y-4.2469
X2.7106Y-6.7862
X2.7106Y-7.1209
X2.7106Y-3.9122
X2.7106Y-4.2469
X4.7972Y-6.7862
X4.7972Y-7.1209
T0
M30
