%TF.GenerationSoftware,KiCad,Pcbnew,(5.1.5)-2*%
%TF.CreationDate,2020-06-14T05:32:06+12:00*%
%TF.ProjectId,output.RGB-to-component-panel,6f757470-7574-42e5-9247-422d746f2d63,rev?*%
%TF.SameCoordinates,Original*%
%TF.FileFunction,Profile,NP*%
%FSLAX46Y46*%
G04 Gerber Fmt 4.6, Leading zero omitted, Abs format (unit mm)*
G04 Created by KiCad (PCBNEW (5.1.5)-2) date 2020-06-14 05:32:06*
%MOMM*%
%LPD*%
G04 APERTURE LIST*
%ADD10C,0.050000*%
%ADD11C,0.100000*%
G04 APERTURE END LIST*
D10*
X123000000Y-113000000D02*
X123000000Y-183000000D01*
X123000000Y-183000000D02*
X73000000Y-183000000D01*
X20000000Y-183000000D02*
X20000000Y-113000000D01*
X70000000Y-183000000D02*
X20000000Y-183000000D01*
X73000000Y-40000000D02*
X123000000Y-40000000D01*
X123000000Y-40000000D02*
X123000000Y-110000000D01*
X20000000Y-110000000D02*
X20000000Y-40000000D01*
X20000000Y-40000000D02*
X70000000Y-40000000D01*
D11*
X70000000Y-166500020D02*
X70000000Y-183000000D01*
X73000000Y-166500020D02*
X73000000Y-183000000D01*
X73000000Y-166500020D02*
X72992313Y-166400316D01*
X70000000Y-166500020D02*
X70007687Y-166400316D01*
X72992313Y-166400316D02*
X72976985Y-166301498D01*
X70007687Y-166400316D02*
X70023015Y-166301498D01*
X72976985Y-166301498D02*
X72954107Y-166204151D01*
X70023015Y-166301498D02*
X70045893Y-166204151D01*
X72954107Y-166204151D02*
X72923814Y-166108851D01*
X70045893Y-166204151D02*
X70076186Y-166108851D01*
X72923814Y-166108851D02*
X72886285Y-166016161D01*
X70076186Y-166108851D02*
X70113715Y-166016161D01*
X72886285Y-166016161D02*
X72841742Y-165926630D01*
X70113715Y-166016161D02*
X70158258Y-165926630D01*
X72841742Y-165926630D02*
X72790449Y-165840788D01*
X70158258Y-165926630D02*
X70209551Y-165840788D01*
X72790449Y-165840788D02*
X72732709Y-165759143D01*
X70209551Y-165840788D02*
X70267291Y-165759143D01*
X72732709Y-165759143D02*
X72668864Y-165682178D01*
X70267291Y-165759143D02*
X70331136Y-165682178D01*
X72668864Y-165682178D02*
X72599292Y-165610348D01*
X70331136Y-165682178D02*
X70400708Y-165610348D01*
X72599292Y-165610348D02*
X72524405Y-165544078D01*
X70400708Y-165610348D02*
X70475595Y-165544078D01*
X72524405Y-165544078D02*
X72444646Y-165483760D01*
X70475595Y-165544078D02*
X70555354Y-165483760D01*
X72444646Y-165483760D02*
X72360487Y-165429751D01*
X70555354Y-165483760D02*
X70639513Y-165429751D01*
X72360487Y-165429751D02*
X72272426Y-165382371D01*
X70639513Y-165429751D02*
X70727574Y-165382371D01*
X72272426Y-165382371D02*
X72180984Y-165341900D01*
X70727574Y-165382371D02*
X70819016Y-165341900D01*
X72180984Y-165341900D02*
X72086702Y-165308578D01*
X70819016Y-165341900D02*
X70913298Y-165308578D01*
X72086702Y-165308578D02*
X71990138Y-165282602D01*
X70913298Y-165308578D02*
X71009862Y-165282602D01*
X71990138Y-165282602D02*
X71891863Y-165264125D01*
X71009862Y-165282602D02*
X71108137Y-165264125D01*
X71891863Y-165264125D02*
X71792458Y-165253257D01*
X71108137Y-165264125D02*
X71207542Y-165253257D01*
X71792458Y-165253257D02*
X71692512Y-165250062D01*
X71207542Y-165253257D02*
X71307488Y-165250062D01*
X71307488Y-165250062D02*
X71692512Y-165250062D01*
X73000000Y-161499980D02*
X72992313Y-161599684D01*
X70000000Y-161499980D02*
X70007687Y-161599684D01*
X72992313Y-161599684D02*
X72976985Y-161698502D01*
X70007687Y-161599684D02*
X70023015Y-161698502D01*
X72976985Y-161698502D02*
X72954107Y-161795849D01*
X70023015Y-161698502D02*
X70045893Y-161795849D01*
X72954107Y-161795849D02*
X72923814Y-161891149D01*
X70045893Y-161795849D02*
X70076186Y-161891149D01*
X72923814Y-161891149D02*
X72886285Y-161983839D01*
X70076186Y-161891149D02*
X70113715Y-161983839D01*
X72886285Y-161983839D02*
X72841742Y-162073370D01*
X70113715Y-161983839D02*
X70158258Y-162073370D01*
X72841742Y-162073370D02*
X72790449Y-162159212D01*
X70158258Y-162073370D02*
X70209551Y-162159212D01*
X72790449Y-162159212D02*
X72732709Y-162240857D01*
X70209551Y-162159212D02*
X70267291Y-162240857D01*
X72732709Y-162240857D02*
X72668864Y-162317822D01*
X70267291Y-162240857D02*
X70331136Y-162317822D01*
X72668864Y-162317822D02*
X72599292Y-162389652D01*
X70331136Y-162317822D02*
X70400708Y-162389652D01*
X72599292Y-162389652D02*
X72524405Y-162455922D01*
X70400708Y-162389652D02*
X70475595Y-162455922D01*
X72524405Y-162455922D02*
X72444646Y-162516240D01*
X70475595Y-162455922D02*
X70555354Y-162516240D01*
X72444646Y-162516240D02*
X72360487Y-162570249D01*
X70555354Y-162516240D02*
X70639513Y-162570249D01*
X72360487Y-162570249D02*
X72272426Y-162617629D01*
X70639513Y-162570249D02*
X70727574Y-162617629D01*
X72272426Y-162617629D02*
X72180984Y-162658100D01*
X70727574Y-162617629D02*
X70819016Y-162658100D01*
X72180984Y-162658100D02*
X72086702Y-162691422D01*
X70819016Y-162658100D02*
X70913298Y-162691422D01*
X72086702Y-162691422D02*
X71990138Y-162717398D01*
X70913298Y-162691422D02*
X71009862Y-162717398D01*
X71990138Y-162717398D02*
X71891863Y-162735875D01*
X71009862Y-162717398D02*
X71108137Y-162735875D01*
X71891863Y-162735875D02*
X71792458Y-162746743D01*
X71108137Y-162735875D02*
X71207542Y-162746743D01*
X71792458Y-162746743D02*
X71692512Y-162749938D01*
X71207542Y-162746743D02*
X71307488Y-162749938D01*
X71307488Y-162749938D02*
X71692512Y-162749938D01*
X70000000Y-131499980D02*
X70000000Y-161499980D01*
X70000000Y-126500000D02*
X70000000Y-113000000D01*
X73000000Y-131499980D02*
X73000000Y-161499980D01*
X73000000Y-126500000D02*
X73000000Y-113000000D01*
X73000000Y-131499980D02*
X72992313Y-131400276D01*
X70000000Y-131499980D02*
X70007687Y-131400276D01*
X72992313Y-131400276D02*
X72976985Y-131301458D01*
X70007687Y-131400276D02*
X70023015Y-131301458D01*
X72976985Y-131301458D02*
X72954107Y-131204111D01*
X70023015Y-131301458D02*
X70045893Y-131204111D01*
X72954107Y-131204111D02*
X72923814Y-131108811D01*
X70045893Y-131204111D02*
X70076186Y-131108811D01*
X72923814Y-131108811D02*
X72886285Y-131016121D01*
X70076186Y-131108811D02*
X70113715Y-131016121D01*
X72886285Y-131016121D02*
X72841742Y-130926590D01*
X70113715Y-131016121D02*
X70158258Y-130926590D01*
X72841742Y-130926590D02*
X72790449Y-130840748D01*
X70158258Y-130926590D02*
X70209551Y-130840748D01*
X72790449Y-130840748D02*
X72732709Y-130759103D01*
X70209551Y-130840748D02*
X70267291Y-130759103D01*
X72732709Y-130759103D02*
X72668864Y-130682138D01*
X70267291Y-130759103D02*
X70331136Y-130682138D01*
X72668864Y-130682138D02*
X72599292Y-130610308D01*
X70331136Y-130682138D02*
X70400708Y-130610308D01*
X72599292Y-130610308D02*
X72524405Y-130544038D01*
X70400708Y-130610308D02*
X70475595Y-130544038D01*
X72524405Y-130544038D02*
X72444646Y-130483720D01*
X70475595Y-130544038D02*
X70555354Y-130483720D01*
X72444646Y-130483720D02*
X72360487Y-130429711D01*
X70555354Y-130483720D02*
X70639513Y-130429711D01*
X72360487Y-130429711D02*
X72272426Y-130382331D01*
X70639513Y-130429711D02*
X70727574Y-130382331D01*
X72272426Y-130382331D02*
X72180984Y-130341860D01*
X70727574Y-130382331D02*
X70819016Y-130341860D01*
X72180984Y-130341860D02*
X72086702Y-130308538D01*
X70819016Y-130341860D02*
X70913298Y-130308538D01*
X72086702Y-130308538D02*
X71990138Y-130282562D01*
X70913298Y-130308538D02*
X71009862Y-130282562D01*
X71990138Y-130282562D02*
X71891863Y-130264085D01*
X71009862Y-130282562D02*
X71108137Y-130264085D01*
X71891863Y-130264085D02*
X71792458Y-130253217D01*
X71108137Y-130264085D02*
X71207542Y-130253217D01*
X71792458Y-130253217D02*
X71692512Y-130250022D01*
X71207542Y-130253217D02*
X71307488Y-130250022D01*
X71307488Y-130250022D02*
X71692512Y-130250022D01*
X73000000Y-126500000D02*
X72992313Y-126599704D01*
X70000000Y-126500000D02*
X70007687Y-126599704D01*
X72992313Y-126599704D02*
X72976985Y-126698522D01*
X70007687Y-126599704D02*
X70023015Y-126698522D01*
X72976985Y-126698522D02*
X72954107Y-126795869D01*
X70023015Y-126698522D02*
X70045893Y-126795869D01*
X72954107Y-126795869D02*
X72923814Y-126891169D01*
X70045893Y-126795869D02*
X70076186Y-126891169D01*
X72923814Y-126891169D02*
X72886285Y-126983859D01*
X70076186Y-126891169D02*
X70113715Y-126983859D01*
X72886285Y-126983859D02*
X72841742Y-127073390D01*
X70113715Y-126983859D02*
X70158258Y-127073390D01*
X72841742Y-127073390D02*
X72790449Y-127159232D01*
X70158258Y-127073390D02*
X70209551Y-127159232D01*
X72790449Y-127159232D02*
X72732709Y-127240877D01*
X70209551Y-127159232D02*
X70267291Y-127240877D01*
X72732709Y-127240877D02*
X72668864Y-127317842D01*
X70267291Y-127240877D02*
X70331136Y-127317842D01*
X72668864Y-127317842D02*
X72599292Y-127389672D01*
X70331136Y-127317842D02*
X70400708Y-127389672D01*
X72599292Y-127389672D02*
X72524405Y-127455942D01*
X70400708Y-127389672D02*
X70475595Y-127455942D01*
X72524405Y-127455942D02*
X72444646Y-127516260D01*
X70475595Y-127455942D02*
X70555354Y-127516260D01*
X72444646Y-127516260D02*
X72360487Y-127570269D01*
X70555354Y-127516260D02*
X70639513Y-127570269D01*
X72360487Y-127570269D02*
X72272426Y-127617649D01*
X70639513Y-127570269D02*
X70727574Y-127617649D01*
X72272426Y-127617649D02*
X72180984Y-127658120D01*
X70727574Y-127617649D02*
X70819016Y-127658120D01*
X72180984Y-127658120D02*
X72086702Y-127691442D01*
X70819016Y-127658120D02*
X70913298Y-127691442D01*
X72086702Y-127691442D02*
X71990138Y-127717418D01*
X70913298Y-127691442D02*
X71009862Y-127717418D01*
X71990138Y-127717418D02*
X71891863Y-127735895D01*
X71009862Y-127717418D02*
X71108137Y-127735895D01*
X71891863Y-127735895D02*
X71792458Y-127746763D01*
X71108137Y-127735895D02*
X71207542Y-127746763D01*
X71792458Y-127746763D02*
X71692512Y-127749958D01*
X71207542Y-127746763D02*
X71307488Y-127749958D01*
X71307488Y-127749958D02*
X71692512Y-127749958D01*
X70000000Y-93500020D02*
X70000000Y-110000000D01*
X73000000Y-93500020D02*
X73000000Y-110000000D01*
X73000000Y-93500020D02*
X72992313Y-93400316D01*
X70000000Y-93500020D02*
X70007687Y-93400316D01*
X72992313Y-93400316D02*
X72976985Y-93301498D01*
X70007687Y-93400316D02*
X70023015Y-93301498D01*
X72976985Y-93301498D02*
X72954107Y-93204151D01*
X70023015Y-93301498D02*
X70045893Y-93204151D01*
X72954107Y-93204151D02*
X72923814Y-93108851D01*
X70045893Y-93204151D02*
X70076186Y-93108851D01*
X72923814Y-93108851D02*
X72886285Y-93016161D01*
X70076186Y-93108851D02*
X70113715Y-93016161D01*
X72886285Y-93016161D02*
X72841742Y-92926630D01*
X70113715Y-93016161D02*
X70158258Y-92926630D01*
X72841742Y-92926630D02*
X72790449Y-92840788D01*
X70158258Y-92926630D02*
X70209551Y-92840788D01*
X72790449Y-92840788D02*
X72732709Y-92759143D01*
X70209551Y-92840788D02*
X70267291Y-92759143D01*
X72732709Y-92759143D02*
X72668864Y-92682178D01*
X70267291Y-92759143D02*
X70331136Y-92682178D01*
X72668864Y-92682178D02*
X72599292Y-92610348D01*
X70331136Y-92682178D02*
X70400708Y-92610348D01*
X72599292Y-92610348D02*
X72524405Y-92544078D01*
X70400708Y-92610348D02*
X70475595Y-92544078D01*
X72524405Y-92544078D02*
X72444646Y-92483760D01*
X70475595Y-92544078D02*
X70555354Y-92483760D01*
X72444646Y-92483760D02*
X72360487Y-92429751D01*
X70555354Y-92483760D02*
X70639513Y-92429751D01*
X72360487Y-92429751D02*
X72272426Y-92382371D01*
X70639513Y-92429751D02*
X70727574Y-92382371D01*
X72272426Y-92382371D02*
X72180984Y-92341900D01*
X70727574Y-92382371D02*
X70819016Y-92341900D01*
X72180984Y-92341900D02*
X72086702Y-92308578D01*
X70819016Y-92341900D02*
X70913298Y-92308578D01*
X72086702Y-92308578D02*
X71990138Y-92282602D01*
X70913298Y-92308578D02*
X71009862Y-92282602D01*
X71990138Y-92282602D02*
X71891863Y-92264125D01*
X71009862Y-92282602D02*
X71108137Y-92264125D01*
X71891863Y-92264125D02*
X71792458Y-92253257D01*
X71108137Y-92264125D02*
X71207542Y-92253257D01*
X71792458Y-92253257D02*
X71692512Y-92250062D01*
X71207542Y-92253257D02*
X71307488Y-92250062D01*
X71307488Y-92250062D02*
X71692512Y-92250062D01*
X73000000Y-88499980D02*
X72992313Y-88599684D01*
X70000000Y-88499980D02*
X70007687Y-88599684D01*
X72992313Y-88599684D02*
X72976985Y-88698502D01*
X70007687Y-88599684D02*
X70023015Y-88698502D01*
X72976985Y-88698502D02*
X72954107Y-88795849D01*
X70023015Y-88698502D02*
X70045893Y-88795849D01*
X72954107Y-88795849D02*
X72923814Y-88891149D01*
X70045893Y-88795849D02*
X70076186Y-88891149D01*
X72923814Y-88891149D02*
X72886285Y-88983839D01*
X70076186Y-88891149D02*
X70113715Y-88983839D01*
X72886285Y-88983839D02*
X72841742Y-89073370D01*
X70113715Y-88983839D02*
X70158258Y-89073370D01*
X72841742Y-89073370D02*
X72790449Y-89159212D01*
X70158258Y-89073370D02*
X70209551Y-89159212D01*
X72790449Y-89159212D02*
X72732709Y-89240857D01*
X70209551Y-89159212D02*
X70267291Y-89240857D01*
X72732709Y-89240857D02*
X72668864Y-89317822D01*
X70267291Y-89240857D02*
X70331136Y-89317822D01*
X72668864Y-89317822D02*
X72599292Y-89389652D01*
X70331136Y-89317822D02*
X70400708Y-89389652D01*
X72599292Y-89389652D02*
X72524405Y-89455922D01*
X70400708Y-89389652D02*
X70475595Y-89455922D01*
X72524405Y-89455922D02*
X72444646Y-89516240D01*
X70475595Y-89455922D02*
X70555354Y-89516240D01*
X72444646Y-89516240D02*
X72360487Y-89570249D01*
X70555354Y-89516240D02*
X70639513Y-89570249D01*
X72360487Y-89570249D02*
X72272426Y-89617629D01*
X70639513Y-89570249D02*
X70727574Y-89617629D01*
X72272426Y-89617629D02*
X72180984Y-89658100D01*
X70727574Y-89617629D02*
X70819016Y-89658100D01*
X72180984Y-89658100D02*
X72086702Y-89691422D01*
X70819016Y-89658100D02*
X70913298Y-89691422D01*
X72086702Y-89691422D02*
X71990138Y-89717398D01*
X70913298Y-89691422D02*
X71009862Y-89717398D01*
X71990138Y-89717398D02*
X71891863Y-89735875D01*
X71009862Y-89717398D02*
X71108137Y-89735875D01*
X71891863Y-89735875D02*
X71792458Y-89746743D01*
X71108137Y-89735875D02*
X71207542Y-89746743D01*
X71792458Y-89746743D02*
X71692512Y-89749938D01*
X71207542Y-89746743D02*
X71307488Y-89749938D01*
X71307488Y-89749938D02*
X71692512Y-89749938D01*
X70000000Y-58499980D02*
X70000000Y-88499980D01*
X70000000Y-53500000D02*
X70000000Y-40000000D01*
X73000000Y-58499980D02*
X73000000Y-88499980D01*
X73000000Y-53500000D02*
X73000000Y-40000000D01*
X73000000Y-58499980D02*
X72992313Y-58400276D01*
X70000000Y-58499980D02*
X70007687Y-58400276D01*
X72992313Y-58400276D02*
X72976985Y-58301458D01*
X70007687Y-58400276D02*
X70023015Y-58301458D01*
X72976985Y-58301458D02*
X72954107Y-58204111D01*
X70023015Y-58301458D02*
X70045893Y-58204111D01*
X72954107Y-58204111D02*
X72923814Y-58108811D01*
X70045893Y-58204111D02*
X70076186Y-58108811D01*
X72923814Y-58108811D02*
X72886285Y-58016121D01*
X70076186Y-58108811D02*
X70113715Y-58016121D01*
X72886285Y-58016121D02*
X72841742Y-57926590D01*
X70113715Y-58016121D02*
X70158258Y-57926590D01*
X72841742Y-57926590D02*
X72790449Y-57840748D01*
X70158258Y-57926590D02*
X70209551Y-57840748D01*
X72790449Y-57840748D02*
X72732709Y-57759103D01*
X70209551Y-57840748D02*
X70267291Y-57759103D01*
X72732709Y-57759103D02*
X72668864Y-57682138D01*
X70267291Y-57759103D02*
X70331136Y-57682138D01*
X72668864Y-57682138D02*
X72599292Y-57610308D01*
X70331136Y-57682138D02*
X70400708Y-57610308D01*
X72599292Y-57610308D02*
X72524405Y-57544038D01*
X70400708Y-57610308D02*
X70475595Y-57544038D01*
X72524405Y-57544038D02*
X72444646Y-57483720D01*
X70475595Y-57544038D02*
X70555354Y-57483720D01*
X72444646Y-57483720D02*
X72360487Y-57429711D01*
X70555354Y-57483720D02*
X70639513Y-57429711D01*
X72360487Y-57429711D02*
X72272426Y-57382331D01*
X70639513Y-57429711D02*
X70727574Y-57382331D01*
X72272426Y-57382331D02*
X72180984Y-57341860D01*
X70727574Y-57382331D02*
X70819016Y-57341860D01*
X72180984Y-57341860D02*
X72086702Y-57308538D01*
X70819016Y-57341860D02*
X70913298Y-57308538D01*
X72086702Y-57308538D02*
X71990138Y-57282562D01*
X70913298Y-57308538D02*
X71009862Y-57282562D01*
X71990138Y-57282562D02*
X71891863Y-57264085D01*
X71009862Y-57282562D02*
X71108137Y-57264085D01*
X71891863Y-57264085D02*
X71792458Y-57253217D01*
X71108137Y-57264085D02*
X71207542Y-57253217D01*
X71792458Y-57253217D02*
X71692512Y-57250022D01*
X71207542Y-57253217D02*
X71307488Y-57250022D01*
X71307488Y-57250022D02*
X71692512Y-57250022D01*
X73000000Y-53500000D02*
X72992313Y-53599704D01*
X70000000Y-53500000D02*
X70007687Y-53599704D01*
X72992313Y-53599704D02*
X72976985Y-53698522D01*
X70007687Y-53599704D02*
X70023015Y-53698522D01*
X72976985Y-53698522D02*
X72954107Y-53795869D01*
X70023015Y-53698522D02*
X70045893Y-53795869D01*
X72954107Y-53795869D02*
X72923814Y-53891169D01*
X70045893Y-53795869D02*
X70076186Y-53891169D01*
X72923814Y-53891169D02*
X72886285Y-53983859D01*
X70076186Y-53891169D02*
X70113715Y-53983859D01*
X72886285Y-53983859D02*
X72841742Y-54073390D01*
X70113715Y-53983859D02*
X70158258Y-54073390D01*
X72841742Y-54073390D02*
X72790449Y-54159232D01*
X70158258Y-54073390D02*
X70209551Y-54159232D01*
X72790449Y-54159232D02*
X72732709Y-54240877D01*
X70209551Y-54159232D02*
X70267291Y-54240877D01*
X72732709Y-54240877D02*
X72668864Y-54317842D01*
X70267291Y-54240877D02*
X70331136Y-54317842D01*
X72668864Y-54317842D02*
X72599292Y-54389672D01*
X70331136Y-54317842D02*
X70400708Y-54389672D01*
X72599292Y-54389672D02*
X72524405Y-54455942D01*
X70400708Y-54389672D02*
X70475595Y-54455942D01*
X72524405Y-54455942D02*
X72444646Y-54516260D01*
X70475595Y-54455942D02*
X70555354Y-54516260D01*
X72444646Y-54516260D02*
X72360487Y-54570269D01*
X70555354Y-54516260D02*
X70639513Y-54570269D01*
X72360487Y-54570269D02*
X72272426Y-54617649D01*
X70639513Y-54570269D02*
X70727574Y-54617649D01*
X72272426Y-54617649D02*
X72180984Y-54658120D01*
X70727574Y-54617649D02*
X70819016Y-54658120D01*
X72180984Y-54658120D02*
X72086702Y-54691442D01*
X70819016Y-54658120D02*
X70913298Y-54691442D01*
X72086702Y-54691442D02*
X71990138Y-54717418D01*
X70913298Y-54691442D02*
X71009862Y-54717418D01*
X71990138Y-54717418D02*
X71891863Y-54735895D01*
X71009862Y-54717418D02*
X71108137Y-54735895D01*
X71891863Y-54735895D02*
X71792458Y-54746763D01*
X71108137Y-54735895D02*
X71207542Y-54746763D01*
X71792458Y-54746763D02*
X71692512Y-54749958D01*
X71207542Y-54746763D02*
X71307488Y-54749958D01*
X71307488Y-54749958D02*
X71692512Y-54749958D01*
X29500010Y-110000000D02*
X20000000Y-110000000D01*
X29500010Y-113000000D02*
X20000000Y-113000000D01*
X29500010Y-113000000D02*
X29599714Y-112992313D01*
X29500010Y-110000000D02*
X29599714Y-110007687D01*
X29599714Y-112992313D02*
X29698532Y-112976985D01*
X29599714Y-110007687D02*
X29698532Y-110023015D01*
X29698532Y-112976985D02*
X29795879Y-112954107D01*
X29698532Y-110023015D02*
X29795879Y-110045893D01*
X29795879Y-112954107D02*
X29891179Y-112923814D01*
X29795879Y-110045893D02*
X29891179Y-110076186D01*
X29891179Y-112923814D02*
X29983869Y-112886285D01*
X29891179Y-110076186D02*
X29983869Y-110113715D01*
X29983869Y-112886285D02*
X30073400Y-112841742D01*
X29983869Y-110113715D02*
X30073400Y-110158258D01*
X30073400Y-112841742D02*
X30159242Y-112790449D01*
X30073400Y-110158258D02*
X30159242Y-110209551D01*
X30159242Y-112790449D02*
X30240887Y-112732709D01*
X30159242Y-110209551D02*
X30240887Y-110267291D01*
X30240887Y-112732709D02*
X30317852Y-112668864D01*
X30240887Y-110267291D02*
X30317852Y-110331136D01*
X30317852Y-112668864D02*
X30389682Y-112599292D01*
X30317852Y-110331136D02*
X30389682Y-110400708D01*
X30389682Y-112599292D02*
X30455952Y-112524405D01*
X30389682Y-110400708D02*
X30455952Y-110475595D01*
X30455952Y-112524405D02*
X30516270Y-112444646D01*
X30455952Y-110475595D02*
X30516270Y-110555354D01*
X30516270Y-112444646D02*
X30570279Y-112360487D01*
X30516270Y-110555354D02*
X30570279Y-110639513D01*
X30570279Y-112360487D02*
X30617659Y-112272426D01*
X30570279Y-110639513D02*
X30617659Y-110727574D01*
X30617659Y-112272426D02*
X30658130Y-112180984D01*
X30617659Y-110727574D02*
X30658130Y-110819016D01*
X30658130Y-112180984D02*
X30691452Y-112086702D01*
X30658130Y-110819016D02*
X30691452Y-110913298D01*
X30691452Y-112086702D02*
X30717428Y-111990138D01*
X30691452Y-110913298D02*
X30717428Y-111009862D01*
X30717428Y-111990138D02*
X30735905Y-111891863D01*
X30717428Y-111009862D02*
X30735905Y-111108137D01*
X30735905Y-111891863D02*
X30746773Y-111792458D01*
X30735905Y-111108137D02*
X30746773Y-111207542D01*
X30746773Y-111792458D02*
X30749968Y-111692512D01*
X30746773Y-111207542D02*
X30749968Y-111307488D01*
X30749968Y-111307488D02*
X30749968Y-111692512D01*
X34500020Y-113000000D02*
X34400316Y-112992313D01*
X34500020Y-110000000D02*
X34400316Y-110007687D01*
X34400316Y-112992313D02*
X34301498Y-112976985D01*
X34400316Y-110007687D02*
X34301498Y-110023015D01*
X34301498Y-112976985D02*
X34204151Y-112954107D01*
X34301498Y-110023015D02*
X34204151Y-110045893D01*
X34204151Y-112954107D02*
X34108851Y-112923814D01*
X34204151Y-110045893D02*
X34108851Y-110076186D01*
X34108851Y-112923814D02*
X34016161Y-112886285D01*
X34108851Y-110076186D02*
X34016161Y-110113715D01*
X34016161Y-112886285D02*
X33926630Y-112841742D01*
X34016161Y-110113715D02*
X33926630Y-110158258D01*
X33926630Y-112841742D02*
X33840788Y-112790449D01*
X33926630Y-110158258D02*
X33840788Y-110209551D01*
X33840788Y-112790449D02*
X33759143Y-112732709D01*
X33840788Y-110209551D02*
X33759143Y-110267291D01*
X33759143Y-112732709D02*
X33682178Y-112668864D01*
X33759143Y-110267291D02*
X33682178Y-110331136D01*
X33682178Y-112668864D02*
X33610348Y-112599292D01*
X33682178Y-110331136D02*
X33610348Y-110400708D01*
X33610348Y-112599292D02*
X33544078Y-112524405D01*
X33610348Y-110400708D02*
X33544078Y-110475595D01*
X33544078Y-112524405D02*
X33483760Y-112444646D01*
X33544078Y-110475595D02*
X33483760Y-110555354D01*
X33483760Y-112444646D02*
X33429751Y-112360487D01*
X33483760Y-110555354D02*
X33429751Y-110639513D01*
X33429751Y-112360487D02*
X33382371Y-112272426D01*
X33429751Y-110639513D02*
X33382371Y-110727574D01*
X33382371Y-112272426D02*
X33341900Y-112180984D01*
X33382371Y-110727574D02*
X33341900Y-110819016D01*
X33341900Y-112180984D02*
X33308578Y-112086702D01*
X33341900Y-110819016D02*
X33308578Y-110913298D01*
X33308578Y-112086702D02*
X33282602Y-111990138D01*
X33308578Y-110913298D02*
X33282602Y-111009862D01*
X33282602Y-111990138D02*
X33264125Y-111891863D01*
X33282602Y-111009862D02*
X33264125Y-111108137D01*
X33264125Y-111891863D02*
X33253257Y-111792458D01*
X33264125Y-111108137D02*
X33253257Y-111207542D01*
X33253257Y-111792458D02*
X33250062Y-111692512D01*
X33253257Y-111207542D02*
X33250062Y-111307488D01*
X33250062Y-111307488D02*
X33250062Y-111692512D01*
X55500012Y-110000000D02*
X34500020Y-110000000D01*
X60499990Y-110000000D02*
X70000000Y-110000000D01*
X55500012Y-113000000D02*
X34500020Y-113000000D01*
X60499990Y-113000000D02*
X70000000Y-113000000D01*
X55500012Y-113000000D02*
X55599716Y-112992313D01*
X55500012Y-110000000D02*
X55599716Y-110007687D01*
X55599716Y-112992313D02*
X55698534Y-112976985D01*
X55599716Y-110007687D02*
X55698534Y-110023015D01*
X55698534Y-112976985D02*
X55795881Y-112954107D01*
X55698534Y-110023015D02*
X55795881Y-110045893D01*
X55795881Y-112954107D02*
X55891181Y-112923814D01*
X55795881Y-110045893D02*
X55891181Y-110076186D01*
X55891181Y-112923814D02*
X55983871Y-112886285D01*
X55891181Y-110076186D02*
X55983871Y-110113715D01*
X55983871Y-112886285D02*
X56073402Y-112841742D01*
X55983871Y-110113715D02*
X56073402Y-110158258D01*
X56073402Y-112841742D02*
X56159244Y-112790449D01*
X56073402Y-110158258D02*
X56159244Y-110209551D01*
X56159244Y-112790449D02*
X56240889Y-112732709D01*
X56159244Y-110209551D02*
X56240889Y-110267291D01*
X56240889Y-112732709D02*
X56317854Y-112668864D01*
X56240889Y-110267291D02*
X56317854Y-110331136D01*
X56317854Y-112668864D02*
X56389684Y-112599292D01*
X56317854Y-110331136D02*
X56389684Y-110400708D01*
X56389684Y-112599292D02*
X56455954Y-112524405D01*
X56389684Y-110400708D02*
X56455954Y-110475595D01*
X56455954Y-112524405D02*
X56516272Y-112444646D01*
X56455954Y-110475595D02*
X56516272Y-110555354D01*
X56516272Y-112444646D02*
X56570281Y-112360487D01*
X56516272Y-110555354D02*
X56570281Y-110639513D01*
X56570281Y-112360487D02*
X56617661Y-112272426D01*
X56570281Y-110639513D02*
X56617661Y-110727574D01*
X56617661Y-112272426D02*
X56658132Y-112180984D01*
X56617661Y-110727574D02*
X56658132Y-110819016D01*
X56658132Y-112180984D02*
X56691454Y-112086702D01*
X56658132Y-110819016D02*
X56691454Y-110913298D01*
X56691454Y-112086702D02*
X56717430Y-111990138D01*
X56691454Y-110913298D02*
X56717430Y-111009862D01*
X56717430Y-111990138D02*
X56735907Y-111891863D01*
X56717430Y-111009862D02*
X56735907Y-111108137D01*
X56735907Y-111891863D02*
X56746775Y-111792458D01*
X56735907Y-111108137D02*
X56746775Y-111207542D01*
X56746775Y-111792458D02*
X56749970Y-111692512D01*
X56746775Y-111207542D02*
X56749970Y-111307488D01*
X56749970Y-111307488D02*
X56749970Y-111692512D01*
X60499990Y-113000000D02*
X60400286Y-112992313D01*
X60499990Y-110000000D02*
X60400286Y-110007687D01*
X60400286Y-112992313D02*
X60301468Y-112976985D01*
X60400286Y-110007687D02*
X60301468Y-110023015D01*
X60301468Y-112976985D02*
X60204121Y-112954107D01*
X60301468Y-110023015D02*
X60204121Y-110045893D01*
X60204121Y-112954107D02*
X60108821Y-112923814D01*
X60204121Y-110045893D02*
X60108821Y-110076186D01*
X60108821Y-112923814D02*
X60016131Y-112886285D01*
X60108821Y-110076186D02*
X60016131Y-110113715D01*
X60016131Y-112886285D02*
X59926600Y-112841742D01*
X60016131Y-110113715D02*
X59926600Y-110158258D01*
X59926600Y-112841742D02*
X59840758Y-112790449D01*
X59926600Y-110158258D02*
X59840758Y-110209551D01*
X59840758Y-112790449D02*
X59759113Y-112732709D01*
X59840758Y-110209551D02*
X59759113Y-110267291D01*
X59759113Y-112732709D02*
X59682148Y-112668864D01*
X59759113Y-110267291D02*
X59682148Y-110331136D01*
X59682148Y-112668864D02*
X59610318Y-112599292D01*
X59682148Y-110331136D02*
X59610318Y-110400708D01*
X59610318Y-112599292D02*
X59544048Y-112524405D01*
X59610318Y-110400708D02*
X59544048Y-110475595D01*
X59544048Y-112524405D02*
X59483730Y-112444646D01*
X59544048Y-110475595D02*
X59483730Y-110555354D01*
X59483730Y-112444646D02*
X59429721Y-112360487D01*
X59483730Y-110555354D02*
X59429721Y-110639513D01*
X59429721Y-112360487D02*
X59382341Y-112272426D01*
X59429721Y-110639513D02*
X59382341Y-110727574D01*
X59382341Y-112272426D02*
X59341870Y-112180984D01*
X59382341Y-110727574D02*
X59341870Y-110819016D01*
X59341870Y-112180984D02*
X59308548Y-112086702D01*
X59341870Y-110819016D02*
X59308548Y-110913298D01*
X59308548Y-112086702D02*
X59282572Y-111990138D01*
X59308548Y-110913298D02*
X59282572Y-111009862D01*
X59282572Y-111990138D02*
X59264095Y-111891863D01*
X59282572Y-111009862D02*
X59264095Y-111108137D01*
X59264095Y-111891863D02*
X59253227Y-111792458D01*
X59264095Y-111108137D02*
X59253227Y-111207542D01*
X59253227Y-111792458D02*
X59250032Y-111692512D01*
X59253227Y-111207542D02*
X59250032Y-111307488D01*
X59250032Y-111307488D02*
X59250032Y-111692512D01*
X82500010Y-110000000D02*
X73000000Y-110000000D01*
X82500010Y-113000000D02*
X73000000Y-113000000D01*
X82500010Y-113000000D02*
X82599714Y-112992313D01*
X82500010Y-110000000D02*
X82599714Y-110007687D01*
X82599714Y-112992313D02*
X82698532Y-112976985D01*
X82599714Y-110007687D02*
X82698532Y-110023015D01*
X82698532Y-112976985D02*
X82795879Y-112954107D01*
X82698532Y-110023015D02*
X82795879Y-110045893D01*
X82795879Y-112954107D02*
X82891179Y-112923814D01*
X82795879Y-110045893D02*
X82891179Y-110076186D01*
X82891179Y-112923814D02*
X82983869Y-112886285D01*
X82891179Y-110076186D02*
X82983869Y-110113715D01*
X82983869Y-112886285D02*
X83073400Y-112841742D01*
X82983869Y-110113715D02*
X83073400Y-110158258D01*
X83073400Y-112841742D02*
X83159242Y-112790449D01*
X83073400Y-110158258D02*
X83159242Y-110209551D01*
X83159242Y-112790449D02*
X83240887Y-112732709D01*
X83159242Y-110209551D02*
X83240887Y-110267291D01*
X83240887Y-112732709D02*
X83317852Y-112668864D01*
X83240887Y-110267291D02*
X83317852Y-110331136D01*
X83317852Y-112668864D02*
X83389682Y-112599292D01*
X83317852Y-110331136D02*
X83389682Y-110400708D01*
X83389682Y-112599292D02*
X83455952Y-112524405D01*
X83389682Y-110400708D02*
X83455952Y-110475595D01*
X83455952Y-112524405D02*
X83516270Y-112444646D01*
X83455952Y-110475595D02*
X83516270Y-110555354D01*
X83516270Y-112444646D02*
X83570279Y-112360487D01*
X83516270Y-110555354D02*
X83570279Y-110639513D01*
X83570279Y-112360487D02*
X83617659Y-112272426D01*
X83570279Y-110639513D02*
X83617659Y-110727574D01*
X83617659Y-112272426D02*
X83658130Y-112180984D01*
X83617659Y-110727574D02*
X83658130Y-110819016D01*
X83658130Y-112180984D02*
X83691452Y-112086702D01*
X83658130Y-110819016D02*
X83691452Y-110913298D01*
X83691452Y-112086702D02*
X83717428Y-111990138D01*
X83691452Y-110913298D02*
X83717428Y-111009862D01*
X83717428Y-111990138D02*
X83735905Y-111891863D01*
X83717428Y-111009862D02*
X83735905Y-111108137D01*
X83735905Y-111891863D02*
X83746773Y-111792458D01*
X83735905Y-111108137D02*
X83746773Y-111207542D01*
X83746773Y-111792458D02*
X83749968Y-111692512D01*
X83746773Y-111207542D02*
X83749968Y-111307488D01*
X83749968Y-111307488D02*
X83749968Y-111692512D01*
X87500020Y-113000000D02*
X87400316Y-112992313D01*
X87500020Y-110000000D02*
X87400316Y-110007687D01*
X87400316Y-112992313D02*
X87301498Y-112976985D01*
X87400316Y-110007687D02*
X87301498Y-110023015D01*
X87301498Y-112976985D02*
X87204151Y-112954107D01*
X87301498Y-110023015D02*
X87204151Y-110045893D01*
X87204151Y-112954107D02*
X87108851Y-112923814D01*
X87204151Y-110045893D02*
X87108851Y-110076186D01*
X87108851Y-112923814D02*
X87016161Y-112886285D01*
X87108851Y-110076186D02*
X87016161Y-110113715D01*
X87016161Y-112886285D02*
X86926630Y-112841742D01*
X87016161Y-110113715D02*
X86926630Y-110158258D01*
X86926630Y-112841742D02*
X86840788Y-112790449D01*
X86926630Y-110158258D02*
X86840788Y-110209551D01*
X86840788Y-112790449D02*
X86759143Y-112732709D01*
X86840788Y-110209551D02*
X86759143Y-110267291D01*
X86759143Y-112732709D02*
X86682178Y-112668864D01*
X86759143Y-110267291D02*
X86682178Y-110331136D01*
X86682178Y-112668864D02*
X86610348Y-112599292D01*
X86682178Y-110331136D02*
X86610348Y-110400708D01*
X86610348Y-112599292D02*
X86544078Y-112524405D01*
X86610348Y-110400708D02*
X86544078Y-110475595D01*
X86544078Y-112524405D02*
X86483760Y-112444646D01*
X86544078Y-110475595D02*
X86483760Y-110555354D01*
X86483760Y-112444646D02*
X86429751Y-112360487D01*
X86483760Y-110555354D02*
X86429751Y-110639513D01*
X86429751Y-112360487D02*
X86382371Y-112272426D01*
X86429751Y-110639513D02*
X86382371Y-110727574D01*
X86382371Y-112272426D02*
X86341900Y-112180984D01*
X86382371Y-110727574D02*
X86341900Y-110819016D01*
X86341900Y-112180984D02*
X86308578Y-112086702D01*
X86341900Y-110819016D02*
X86308578Y-110913298D01*
X86308578Y-112086702D02*
X86282602Y-111990138D01*
X86308578Y-110913298D02*
X86282602Y-111009862D01*
X86282602Y-111990138D02*
X86264125Y-111891863D01*
X86282602Y-111009862D02*
X86264125Y-111108137D01*
X86264125Y-111891863D02*
X86253257Y-111792458D01*
X86264125Y-111108137D02*
X86253257Y-111207542D01*
X86253257Y-111792458D02*
X86250062Y-111692512D01*
X86253257Y-111207542D02*
X86250062Y-111307488D01*
X86250062Y-111307488D02*
X86250062Y-111692512D01*
X108500012Y-110000000D02*
X87500020Y-110000000D01*
X113499990Y-110000000D02*
X123000000Y-110000000D01*
X108500012Y-113000000D02*
X87500020Y-113000000D01*
X113499990Y-113000000D02*
X123000000Y-113000000D01*
X108500012Y-113000000D02*
X108599716Y-112992313D01*
X108500012Y-110000000D02*
X108599716Y-110007687D01*
X108599716Y-112992313D02*
X108698534Y-112976985D01*
X108599716Y-110007687D02*
X108698534Y-110023015D01*
X108698534Y-112976985D02*
X108795881Y-112954107D01*
X108698534Y-110023015D02*
X108795881Y-110045893D01*
X108795881Y-112954107D02*
X108891181Y-112923814D01*
X108795881Y-110045893D02*
X108891181Y-110076186D01*
X108891181Y-112923814D02*
X108983871Y-112886285D01*
X108891181Y-110076186D02*
X108983871Y-110113715D01*
X108983871Y-112886285D02*
X109073402Y-112841742D01*
X108983871Y-110113715D02*
X109073402Y-110158258D01*
X109073402Y-112841742D02*
X109159244Y-112790449D01*
X109073402Y-110158258D02*
X109159244Y-110209551D01*
X109159244Y-112790449D02*
X109240889Y-112732709D01*
X109159244Y-110209551D02*
X109240889Y-110267291D01*
X109240889Y-112732709D02*
X109317854Y-112668864D01*
X109240889Y-110267291D02*
X109317854Y-110331136D01*
X109317854Y-112668864D02*
X109389684Y-112599292D01*
X109317854Y-110331136D02*
X109389684Y-110400708D01*
X109389684Y-112599292D02*
X109455954Y-112524405D01*
X109389684Y-110400708D02*
X109455954Y-110475595D01*
X109455954Y-112524405D02*
X109516272Y-112444646D01*
X109455954Y-110475595D02*
X109516272Y-110555354D01*
X109516272Y-112444646D02*
X109570281Y-112360487D01*
X109516272Y-110555354D02*
X109570281Y-110639513D01*
X109570281Y-112360487D02*
X109617661Y-112272426D01*
X109570281Y-110639513D02*
X109617661Y-110727574D01*
X109617661Y-112272426D02*
X109658132Y-112180984D01*
X109617661Y-110727574D02*
X109658132Y-110819016D01*
X109658132Y-112180984D02*
X109691454Y-112086702D01*
X109658132Y-110819016D02*
X109691454Y-110913298D01*
X109691454Y-112086702D02*
X109717430Y-111990138D01*
X109691454Y-110913298D02*
X109717430Y-111009862D01*
X109717430Y-111990138D02*
X109735907Y-111891863D01*
X109717430Y-111009862D02*
X109735907Y-111108137D01*
X109735907Y-111891863D02*
X109746775Y-111792458D01*
X109735907Y-111108137D02*
X109746775Y-111207542D01*
X109746775Y-111792458D02*
X109749970Y-111692512D01*
X109746775Y-111207542D02*
X109749970Y-111307488D01*
X109749970Y-111307488D02*
X109749970Y-111692512D01*
X113499990Y-113000000D02*
X113400286Y-112992313D01*
X113499990Y-110000000D02*
X113400286Y-110007687D01*
X113400286Y-112992313D02*
X113301468Y-112976985D01*
X113400286Y-110007687D02*
X113301468Y-110023015D01*
X113301468Y-112976985D02*
X113204121Y-112954107D01*
X113301468Y-110023015D02*
X113204121Y-110045893D01*
X113204121Y-112954107D02*
X113108821Y-112923814D01*
X113204121Y-110045893D02*
X113108821Y-110076186D01*
X113108821Y-112923814D02*
X113016131Y-112886285D01*
X113108821Y-110076186D02*
X113016131Y-110113715D01*
X113016131Y-112886285D02*
X112926600Y-112841742D01*
X113016131Y-110113715D02*
X112926600Y-110158258D01*
X112926600Y-112841742D02*
X112840758Y-112790449D01*
X112926600Y-110158258D02*
X112840758Y-110209551D01*
X112840758Y-112790449D02*
X112759113Y-112732709D01*
X112840758Y-110209551D02*
X112759113Y-110267291D01*
X112759113Y-112732709D02*
X112682148Y-112668864D01*
X112759113Y-110267291D02*
X112682148Y-110331136D01*
X112682148Y-112668864D02*
X112610318Y-112599292D01*
X112682148Y-110331136D02*
X112610318Y-110400708D01*
X112610318Y-112599292D02*
X112544048Y-112524405D01*
X112610318Y-110400708D02*
X112544048Y-110475595D01*
X112544048Y-112524405D02*
X112483730Y-112444646D01*
X112544048Y-110475595D02*
X112483730Y-110555354D01*
X112483730Y-112444646D02*
X112429721Y-112360487D01*
X112483730Y-110555354D02*
X112429721Y-110639513D01*
X112429721Y-112360487D02*
X112382341Y-112272426D01*
X112429721Y-110639513D02*
X112382341Y-110727574D01*
X112382341Y-112272426D02*
X112341870Y-112180984D01*
X112382341Y-110727574D02*
X112341870Y-110819016D01*
X112341870Y-112180984D02*
X112308548Y-112086702D01*
X112341870Y-110819016D02*
X112308548Y-110913298D01*
X112308548Y-112086702D02*
X112282572Y-111990138D01*
X112308548Y-110913298D02*
X112282572Y-111009862D01*
X112282572Y-111990138D02*
X112264095Y-111891863D01*
X112282572Y-111009862D02*
X112264095Y-111108137D01*
X112264095Y-111891863D02*
X112253227Y-111792458D01*
X112264095Y-111108137D02*
X112253227Y-111207542D01*
X112253227Y-111792458D02*
X112250032Y-111692512D01*
X112253227Y-111207542D02*
X112250032Y-111307488D01*
X112250032Y-111307488D02*
X112250032Y-111692512D01*
M02*
