G04 #@! TF.GenerationSoftware,KiCad,Pcbnew,(5.1.9)-1*
G04 #@! TF.CreationDate,2021-09-23T17:16:36+12:00*
G04 #@! TF.ProjectId,RGB-to-component-covers,5247422d-746f-42d6-936f-6d706f6e656e,rev?*
G04 #@! TF.SameCoordinates,Original*
G04 #@! TF.FileFunction,Soldermask,Bot*
G04 #@! TF.FilePolarity,Negative*
%FSLAX46Y46*%
G04 Gerber Fmt 4.6, Leading zero omitted, Abs format (unit mm)*
G04 Created by KiCad (PCBNEW (5.1.9)-1) date 2021-09-23 17:16:36*
%MOMM*%
%LPD*%
G01*
G04 APERTURE LIST*
%ADD10C,4.802000*%
%ADD11C,0.254000*%
%ADD12C,0.100000*%
G04 APERTURE END LIST*
D10*
X78800000Y-41000000D03*
X102200000Y-109000000D03*
X102150000Y-41000000D03*
X78800000Y-109000000D03*
X108800000Y-109000000D03*
X132150000Y-41000000D03*
X132200000Y-109000000D03*
X108800000Y-41000000D03*
X108800000Y-185300000D03*
X132150000Y-117300000D03*
X108800000Y-117300000D03*
X132200000Y-185300000D03*
X102200000Y-185300000D03*
X78800000Y-117300000D03*
X78800000Y-185300000D03*
X102150000Y-117300000D03*
D11*
X96073000Y-128623762D02*
X88027000Y-128672232D01*
X88027000Y-119026238D01*
X96073000Y-118977768D01*
X96073000Y-128623762D01*
D12*
G36*
X96073000Y-128623762D02*
G01*
X88027000Y-128672232D01*
X88027000Y-119026238D01*
X96073000Y-118977768D01*
X96073000Y-128623762D01*
G37*
D11*
X95573000Y-52373000D02*
X88027000Y-52373000D01*
X88027000Y-42727000D01*
X95573000Y-42727000D01*
X95573000Y-52373000D01*
D12*
G36*
X95573000Y-52373000D02*
G01*
X88027000Y-52373000D01*
X88027000Y-42727000D01*
X95573000Y-42727000D01*
X95573000Y-52373000D01*
G37*
G36*
X96195788Y-128749036D02*
G01*
X96195788Y-128751036D01*
X96194068Y-128752036D01*
X87906154Y-128801963D01*
X87904416Y-128800973D01*
X87904404Y-128798973D01*
X87906130Y-128797963D01*
X96194042Y-128748036D01*
X96194056Y-128748036D01*
X96195788Y-128749036D01*
G37*
G36*
X96195584Y-118849027D02*
G01*
X96195596Y-118851027D01*
X96193870Y-118852037D01*
X87905958Y-118901964D01*
X87905944Y-118901964D01*
X87904212Y-118900964D01*
X87904212Y-118898964D01*
X87905932Y-118897964D01*
X96193846Y-118848037D01*
X96195584Y-118849027D01*
G37*
M02*
