G04 #@! TF.GenerationSoftware,KiCad,Pcbnew,(5.1.9)-1*
G04 #@! TF.CreationDate,2021-09-23T17:16:36+12:00*
G04 #@! TF.ProjectId,RGB-to-component-covers,5247422d-746f-42d6-936f-6d706f6e656e,rev?*
G04 #@! TF.SameCoordinates,Original*
G04 #@! TF.FileFunction,Legend,Bot*
G04 #@! TF.FilePolarity,Positive*
%FSLAX46Y46*%
G04 Gerber Fmt 4.6, Leading zero omitted, Abs format (unit mm)*
G04 Created by KiCad (PCBNEW (5.1.9)-1) date 2021-09-23 17:16:36*
%MOMM*%
%LPD*%
G01*
G04 APERTURE LIST*
%ADD10C,0.150000*%
%ADD11C,0.300000*%
%ADD12C,0.010000*%
%ADD13C,0.254000*%
%ADD14C,0.100000*%
G04 APERTURE END LIST*
D10*
X111947619Y-100219047D02*
X111233333Y-100219047D01*
X111090476Y-100266666D01*
X110995238Y-100361904D01*
X110947619Y-100504761D01*
X110947619Y-100600000D01*
X110947619Y-99266666D02*
X110947619Y-99742857D01*
X111947619Y-99742857D01*
X111042857Y-98361904D02*
X110995238Y-98409523D01*
X110947619Y-98552380D01*
X110947619Y-98647619D01*
X110995238Y-98790476D01*
X111090476Y-98885714D01*
X111185714Y-98933333D01*
X111376190Y-98980952D01*
X111519047Y-98980952D01*
X111709523Y-98933333D01*
X111804761Y-98885714D01*
X111900000Y-98790476D01*
X111947619Y-98647619D01*
X111947619Y-98552380D01*
X111900000Y-98409523D01*
X111852380Y-98361904D01*
X111947619Y-97647619D02*
X111233333Y-97647619D01*
X111090476Y-97695238D01*
X110995238Y-97790476D01*
X110947619Y-97933333D01*
X110947619Y-98028571D01*
X110947619Y-96695238D02*
X110947619Y-97171428D01*
X111947619Y-97171428D01*
X111042857Y-95790476D02*
X110995238Y-95838095D01*
X110947619Y-95980952D01*
X110947619Y-96076190D01*
X110995238Y-96219047D01*
X111090476Y-96314285D01*
X111185714Y-96361904D01*
X111376190Y-96409523D01*
X111519047Y-96409523D01*
X111709523Y-96361904D01*
X111804761Y-96314285D01*
X111900000Y-96219047D01*
X111947619Y-96076190D01*
X111947619Y-95980952D01*
X111900000Y-95838095D01*
X111852380Y-95790476D01*
X111947619Y-95076190D02*
X111233333Y-95076190D01*
X111090476Y-95123809D01*
X110995238Y-95219047D01*
X110947619Y-95361904D01*
X110947619Y-95457142D01*
X110947619Y-94123809D02*
X110947619Y-94600000D01*
X111947619Y-94600000D01*
X111042857Y-93219047D02*
X110995238Y-93266666D01*
X110947619Y-93409523D01*
X110947619Y-93504761D01*
X110995238Y-93647619D01*
X111090476Y-93742857D01*
X111185714Y-93790476D01*
X111376190Y-93838095D01*
X111519047Y-93838095D01*
X111709523Y-93790476D01*
X111804761Y-93742857D01*
X111900000Y-93647619D01*
X111947619Y-93504761D01*
X111947619Y-93409523D01*
X111900000Y-93266666D01*
X111852380Y-93219047D01*
X111947619Y-92504761D02*
X111233333Y-92504761D01*
X111090476Y-92552380D01*
X110995238Y-92647619D01*
X110947619Y-92790476D01*
X110947619Y-92885714D01*
X110947619Y-91552380D02*
X110947619Y-92028571D01*
X111947619Y-92028571D01*
X111042857Y-90647619D02*
X110995238Y-90695238D01*
X110947619Y-90838095D01*
X110947619Y-90933333D01*
X110995238Y-91076190D01*
X111090476Y-91171428D01*
X111185714Y-91219047D01*
X111376190Y-91266666D01*
X111519047Y-91266666D01*
X111709523Y-91219047D01*
X111804761Y-91171428D01*
X111900000Y-91076190D01*
X111947619Y-90933333D01*
X111947619Y-90838095D01*
X111900000Y-90695238D01*
X111852380Y-90647619D01*
D11*
X128047619Y-77000000D02*
X127095238Y-77000000D01*
X129095238Y-77666666D02*
X128047619Y-77000000D01*
X129095238Y-76333333D01*
X127195238Y-63328571D02*
X129195238Y-63328571D01*
X129195238Y-62566666D01*
X129100000Y-62376190D01*
X129004761Y-62280952D01*
X128814285Y-62185714D01*
X128528571Y-62185714D01*
X128338095Y-62280952D01*
X128242857Y-62376190D01*
X128147619Y-62566666D01*
X128147619Y-63328571D01*
X127195238Y-61328571D02*
X129195238Y-61328571D01*
X128433333Y-61328571D02*
X128528571Y-61138095D01*
X128528571Y-60757142D01*
X128433333Y-60566666D01*
X128338095Y-60471428D01*
X128147619Y-60376190D01*
X127576190Y-60376190D01*
X127385714Y-60471428D01*
X127290476Y-60566666D01*
X127195238Y-60757142D01*
X127195238Y-61138095D01*
X127290476Y-61328571D01*
X127095238Y-48242857D02*
X129095238Y-48242857D01*
X129095238Y-47480952D01*
X129000000Y-47290476D01*
X128904761Y-47195238D01*
X128714285Y-47100000D01*
X128428571Y-47100000D01*
X128238095Y-47195238D01*
X128142857Y-47290476D01*
X128047619Y-47480952D01*
X128047619Y-48242857D01*
X127095238Y-46242857D02*
X128428571Y-46242857D01*
X128047619Y-46242857D02*
X128238095Y-46147619D01*
X128333333Y-46052380D01*
X128428571Y-45861904D01*
X128428571Y-45671428D01*
X127095238Y-124542857D02*
X129095238Y-124542857D01*
X129095238Y-123780952D01*
X129000000Y-123590476D01*
X128904761Y-123495238D01*
X128714285Y-123400000D01*
X128428571Y-123400000D01*
X128238095Y-123495238D01*
X128142857Y-123590476D01*
X128047619Y-123780952D01*
X128047619Y-124542857D01*
X127095238Y-122542857D02*
X128428571Y-122542857D01*
X128047619Y-122542857D02*
X128238095Y-122447619D01*
X128333333Y-122352380D01*
X128428571Y-122161904D01*
X128428571Y-121971428D01*
X128047619Y-153300000D02*
X127095238Y-153300000D01*
X129095238Y-153966666D02*
X128047619Y-153300000D01*
X129095238Y-152633333D01*
X127195238Y-139628571D02*
X129195238Y-139628571D01*
X129195238Y-138866666D01*
X129100000Y-138676190D01*
X129004761Y-138580952D01*
X128814285Y-138485714D01*
X128528571Y-138485714D01*
X128338095Y-138580952D01*
X128242857Y-138676190D01*
X128147619Y-138866666D01*
X128147619Y-139628571D01*
X127195238Y-137628571D02*
X129195238Y-137628571D01*
X128433333Y-137628571D02*
X128528571Y-137438095D01*
X128528571Y-137057142D01*
X128433333Y-136866666D01*
X128338095Y-136771428D01*
X128147619Y-136676190D01*
X127576190Y-136676190D01*
X127385714Y-136771428D01*
X127290476Y-136866666D01*
X127195238Y-137057142D01*
X127195238Y-137438095D01*
X127290476Y-137628571D01*
X127095238Y-179280952D02*
X127095238Y-180233333D01*
X129095238Y-180233333D01*
X127095238Y-166180952D02*
X128047619Y-166847619D01*
X127095238Y-167323809D02*
X129095238Y-167323809D01*
X129095238Y-166561904D01*
X129000000Y-166371428D01*
X128904761Y-166276190D01*
X128714285Y-166180952D01*
X128428571Y-166180952D01*
X128238095Y-166276190D01*
X128142857Y-166371428D01*
X128047619Y-166561904D01*
X128047619Y-167323809D01*
D10*
X87247619Y-179919047D02*
X86533333Y-179919047D01*
X86390476Y-179966666D01*
X86295238Y-180061904D01*
X86247619Y-180204761D01*
X86247619Y-180300000D01*
X86247619Y-178966666D02*
X86247619Y-179442857D01*
X87247619Y-179442857D01*
X86342857Y-178061904D02*
X86295238Y-178109523D01*
X86247619Y-178252380D01*
X86247619Y-178347619D01*
X86295238Y-178490476D01*
X86390476Y-178585714D01*
X86485714Y-178633333D01*
X86676190Y-178680952D01*
X86819047Y-178680952D01*
X87009523Y-178633333D01*
X87104761Y-178585714D01*
X87200000Y-178490476D01*
X87247619Y-178347619D01*
X87247619Y-178252380D01*
X87200000Y-178109523D01*
X87152380Y-178061904D01*
X87247619Y-177347619D02*
X86533333Y-177347619D01*
X86390476Y-177395238D01*
X86295238Y-177490476D01*
X86247619Y-177633333D01*
X86247619Y-177728571D01*
X86247619Y-176395238D02*
X86247619Y-176871428D01*
X87247619Y-176871428D01*
X86342857Y-175490476D02*
X86295238Y-175538095D01*
X86247619Y-175680952D01*
X86247619Y-175776190D01*
X86295238Y-175919047D01*
X86390476Y-176014285D01*
X86485714Y-176061904D01*
X86676190Y-176109523D01*
X86819047Y-176109523D01*
X87009523Y-176061904D01*
X87104761Y-176014285D01*
X87200000Y-175919047D01*
X87247619Y-175776190D01*
X87247619Y-175680952D01*
X87200000Y-175538095D01*
X87152380Y-175490476D01*
X87247619Y-174776190D02*
X86533333Y-174776190D01*
X86390476Y-174823809D01*
X86295238Y-174919047D01*
X86247619Y-175061904D01*
X86247619Y-175157142D01*
X86247619Y-173823809D02*
X86247619Y-174300000D01*
X87247619Y-174300000D01*
X86342857Y-172919047D02*
X86295238Y-172966666D01*
X86247619Y-173109523D01*
X86247619Y-173204761D01*
X86295238Y-173347619D01*
X86390476Y-173442857D01*
X86485714Y-173490476D01*
X86676190Y-173538095D01*
X86819047Y-173538095D01*
X87009523Y-173490476D01*
X87104761Y-173442857D01*
X87200000Y-173347619D01*
X87247619Y-173204761D01*
X87247619Y-173109523D01*
X87200000Y-172966666D01*
X87152380Y-172919047D01*
X87247619Y-172204761D02*
X86533333Y-172204761D01*
X86390476Y-172252380D01*
X86295238Y-172347619D01*
X86247619Y-172490476D01*
X86247619Y-172585714D01*
X86247619Y-171252380D02*
X86247619Y-171728571D01*
X87247619Y-171728571D01*
X86342857Y-170347619D02*
X86295238Y-170395238D01*
X86247619Y-170538095D01*
X86247619Y-170633333D01*
X86295238Y-170776190D01*
X86390476Y-170871428D01*
X86485714Y-170919047D01*
X86676190Y-170966666D01*
X86819047Y-170966666D01*
X87009523Y-170919047D01*
X87104761Y-170871428D01*
X87200000Y-170776190D01*
X87247619Y-170633333D01*
X87247619Y-170538095D01*
X87200000Y-170395238D01*
X87152380Y-170347619D01*
D12*
G36*
X81280330Y-91186369D02*
G01*
X81276996Y-91182729D01*
X81210584Y-91157113D01*
X81156085Y-91180228D01*
X81099289Y-91247591D01*
X81036983Y-91370832D01*
X80975619Y-91528801D01*
X80921646Y-91700349D01*
X80881516Y-91864328D01*
X80861678Y-91999588D01*
X80868582Y-92084979D01*
X80876393Y-92097281D01*
X80941129Y-92123854D01*
X80980668Y-92127667D01*
X81035258Y-92100947D01*
X81071471Y-92010974D01*
X81083724Y-91947750D01*
X81115586Y-91810659D01*
X81168594Y-91637956D01*
X81218939Y-91499278D01*
X81275817Y-91340430D01*
X81295363Y-91241134D01*
X81280330Y-91186369D01*
G37*
X81280330Y-91186369D02*
X81276996Y-91182729D01*
X81210584Y-91157113D01*
X81156085Y-91180228D01*
X81099289Y-91247591D01*
X81036983Y-91370832D01*
X80975619Y-91528801D01*
X80921646Y-91700349D01*
X80881516Y-91864328D01*
X80861678Y-91999588D01*
X80868582Y-92084979D01*
X80876393Y-92097281D01*
X80941129Y-92123854D01*
X80980668Y-92127667D01*
X81035258Y-92100947D01*
X81071471Y-92010974D01*
X81083724Y-91947750D01*
X81115586Y-91810659D01*
X81168594Y-91637956D01*
X81218939Y-91499278D01*
X81275817Y-91340430D01*
X81295363Y-91241134D01*
X81280330Y-91186369D01*
G36*
X81172686Y-90749579D02*
G01*
X81099942Y-90603909D01*
X81083167Y-90578473D01*
X80997393Y-90396217D01*
X80977334Y-90262555D01*
X80965797Y-90097241D01*
X80927971Y-90003050D01*
X80859033Y-89969205D01*
X80845805Y-89968667D01*
X80801635Y-89978860D01*
X80777353Y-90021943D01*
X80767291Y-90116671D01*
X80765667Y-90233815D01*
X80772170Y-90397115D01*
X80800291Y-90518658D01*
X80862955Y-90640730D01*
X80914017Y-90719250D01*
X81017662Y-90855392D01*
X81094096Y-90914647D01*
X81125683Y-90915239D01*
X81181559Y-90855675D01*
X81172686Y-90749579D01*
G37*
X81172686Y-90749579D02*
X81099942Y-90603909D01*
X81083167Y-90578473D01*
X80997393Y-90396217D01*
X80977334Y-90262555D01*
X80965797Y-90097241D01*
X80927971Y-90003050D01*
X80859033Y-89969205D01*
X80845805Y-89968667D01*
X80801635Y-89978860D01*
X80777353Y-90021943D01*
X80767291Y-90116671D01*
X80765667Y-90233815D01*
X80772170Y-90397115D01*
X80800291Y-90518658D01*
X80862955Y-90640730D01*
X80914017Y-90719250D01*
X81017662Y-90855392D01*
X81094096Y-90914647D01*
X81125683Y-90915239D01*
X81181559Y-90855675D01*
X81172686Y-90749579D01*
G36*
X80579067Y-90248385D02*
G01*
X80512765Y-90225487D01*
X80443187Y-90222667D01*
X80331343Y-90237723D01*
X80229544Y-90293466D01*
X80125687Y-90387020D01*
X80003539Y-90540798D01*
X79963639Y-90676084D01*
X80005817Y-90793781D01*
X80042715Y-90833527D01*
X80144032Y-90889465D01*
X80280148Y-90923863D01*
X80414067Y-90930948D01*
X80507253Y-90906010D01*
X80548974Y-90843651D01*
X80524323Y-90779404D01*
X80447824Y-90736365D01*
X80396579Y-90730019D01*
X80290219Y-90718177D01*
X80226569Y-90696173D01*
X80201959Y-90642531D01*
X80239094Y-90569902D01*
X80323257Y-90495667D01*
X80439736Y-90437204D01*
X80448298Y-90434290D01*
X80561532Y-90376248D01*
X80596334Y-90304050D01*
X80579067Y-90248385D01*
G37*
X80579067Y-90248385D02*
X80512765Y-90225487D01*
X80443187Y-90222667D01*
X80331343Y-90237723D01*
X80229544Y-90293466D01*
X80125687Y-90387020D01*
X80003539Y-90540798D01*
X79963639Y-90676084D01*
X80005817Y-90793781D01*
X80042715Y-90833527D01*
X80144032Y-90889465D01*
X80280148Y-90923863D01*
X80414067Y-90930948D01*
X80507253Y-90906010D01*
X80548974Y-90843651D01*
X80524323Y-90779404D01*
X80447824Y-90736365D01*
X80396579Y-90730019D01*
X80290219Y-90718177D01*
X80226569Y-90696173D01*
X80201959Y-90642531D01*
X80239094Y-90569902D01*
X80323257Y-90495667D01*
X80439736Y-90437204D01*
X80448298Y-90434290D01*
X80561532Y-90376248D01*
X80596334Y-90304050D01*
X80579067Y-90248385D01*
G36*
X80610455Y-91426072D02*
G01*
X80549613Y-91369171D01*
X80443443Y-91365331D01*
X80308702Y-91410048D01*
X80162149Y-91498816D01*
X80077750Y-91569260D01*
X79982700Y-91696845D01*
X79971781Y-91827677D01*
X80044513Y-91967978D01*
X80046662Y-91970727D01*
X80164494Y-92074270D01*
X80307931Y-92136594D01*
X80446945Y-92147632D01*
X80512878Y-92127019D01*
X80576998Y-92064268D01*
X80578451Y-92015125D01*
X80556797Y-91949188D01*
X80554000Y-91933704D01*
X80517204Y-91921147D01*
X80430024Y-91916000D01*
X80314645Y-91894481D01*
X80230785Y-91841257D01*
X80197613Y-91773326D01*
X80215276Y-91725570D01*
X80284402Y-91672932D01*
X80390229Y-91619713D01*
X80396654Y-91617126D01*
X80536782Y-91552991D01*
X80605439Y-91496245D01*
X80613987Y-91436737D01*
X80610455Y-91426072D01*
G37*
X80610455Y-91426072D02*
X80549613Y-91369171D01*
X80443443Y-91365331D01*
X80308702Y-91410048D01*
X80162149Y-91498816D01*
X80077750Y-91569260D01*
X79982700Y-91696845D01*
X79971781Y-91827677D01*
X80044513Y-91967978D01*
X80046662Y-91970727D01*
X80164494Y-92074270D01*
X80307931Y-92136594D01*
X80446945Y-92147632D01*
X80512878Y-92127019D01*
X80576998Y-92064268D01*
X80578451Y-92015125D01*
X80556797Y-91949188D01*
X80554000Y-91933704D01*
X80517204Y-91921147D01*
X80430024Y-91916000D01*
X80314645Y-91894481D01*
X80230785Y-91841257D01*
X80197613Y-91773326D01*
X80215276Y-91725570D01*
X80284402Y-91672932D01*
X80390229Y-91619713D01*
X80396654Y-91617126D01*
X80536782Y-91552991D01*
X80605439Y-91496245D01*
X80613987Y-91436737D01*
X80610455Y-91426072D01*
G36*
X79606945Y-91079166D02*
G01*
X79573793Y-91078549D01*
X79517594Y-91131980D01*
X79502208Y-91172967D01*
X79511390Y-91228834D01*
X79544541Y-91229451D01*
X79600741Y-91176020D01*
X79616127Y-91135033D01*
X79606945Y-91079166D01*
G37*
X79606945Y-91079166D02*
X79573793Y-91078549D01*
X79517594Y-91131980D01*
X79502208Y-91172967D01*
X79511390Y-91228834D01*
X79544541Y-91229451D01*
X79600741Y-91176020D01*
X79616127Y-91135033D01*
X79606945Y-91079166D01*
G36*
X79588978Y-91450918D02*
G01*
X79559167Y-91435025D01*
X79504553Y-91441529D01*
X79495667Y-91472829D01*
X79529583Y-91527794D01*
X79559167Y-91535000D01*
X79615538Y-91514547D01*
X79622667Y-91497196D01*
X79588978Y-91450918D01*
G37*
X79588978Y-91450918D02*
X79559167Y-91435025D01*
X79504553Y-91441529D01*
X79495667Y-91472829D01*
X79529583Y-91527794D01*
X79559167Y-91535000D01*
X79615538Y-91514547D01*
X79622667Y-91497196D01*
X79588978Y-91450918D01*
G36*
X79708214Y-89891916D02*
G01*
X79647019Y-89904016D01*
X79561024Y-89951127D01*
X79484913Y-90010571D01*
X79453334Y-90058591D01*
X79484107Y-90061643D01*
X79561474Y-90024508D01*
X79599799Y-90000806D01*
X79681217Y-89939674D01*
X79713045Y-89898848D01*
X79708214Y-89891916D01*
G37*
X79708214Y-89891916D02*
X79647019Y-89904016D01*
X79561024Y-89951127D01*
X79484913Y-90010571D01*
X79453334Y-90058591D01*
X79484107Y-90061643D01*
X79561474Y-90024508D01*
X79599799Y-90000806D01*
X79681217Y-89939674D01*
X79713045Y-89898848D01*
X79708214Y-89891916D01*
G36*
X79722442Y-90011287D02*
G01*
X79716417Y-90011000D01*
X79658981Y-90037221D01*
X79576784Y-90099038D01*
X79499177Y-90171186D01*
X79455509Y-90228397D01*
X79453334Y-90237481D01*
X79482998Y-90237772D01*
X79556537Y-90196740D01*
X79579054Y-90181245D01*
X79686400Y-90096021D01*
X79736562Y-90036436D01*
X79722442Y-90011287D01*
G37*
X79722442Y-90011287D02*
X79716417Y-90011000D01*
X79658981Y-90037221D01*
X79576784Y-90099038D01*
X79499177Y-90171186D01*
X79455509Y-90228397D01*
X79453334Y-90237481D01*
X79482998Y-90237772D01*
X79556537Y-90196740D01*
X79579054Y-90181245D01*
X79686400Y-90096021D01*
X79736562Y-90036436D01*
X79722442Y-90011287D01*
G36*
X79692844Y-90224075D02*
G01*
X79637714Y-90246985D01*
X79553382Y-90304339D01*
X79549552Y-90307333D01*
X79488819Y-90363882D01*
X79481091Y-90391469D01*
X79485268Y-90392000D01*
X79536569Y-90372164D01*
X79605837Y-90325881D01*
X79668547Y-90272994D01*
X79700174Y-90233341D01*
X79692844Y-90224075D01*
G37*
X79692844Y-90224075D02*
X79637714Y-90246985D01*
X79553382Y-90304339D01*
X79549552Y-90307333D01*
X79488819Y-90363882D01*
X79481091Y-90391469D01*
X79485268Y-90392000D01*
X79536569Y-90372164D01*
X79605837Y-90325881D01*
X79668547Y-90272994D01*
X79700174Y-90233341D01*
X79692844Y-90224075D01*
G36*
X79696403Y-90360911D02*
G01*
X79614899Y-90413137D01*
X79559167Y-90457655D01*
X79432167Y-90565222D01*
X79567066Y-90500079D01*
X79665165Y-90444800D01*
X79725389Y-90396413D01*
X79728314Y-90392301D01*
X79738562Y-90352284D01*
X79696403Y-90360911D01*
G37*
X79696403Y-90360911D02*
X79614899Y-90413137D01*
X79559167Y-90457655D01*
X79432167Y-90565222D01*
X79567066Y-90500079D01*
X79665165Y-90444800D01*
X79725389Y-90396413D01*
X79728314Y-90392301D01*
X79738562Y-90352284D01*
X79696403Y-90360911D01*
G36*
X79516429Y-90616313D02*
G01*
X79448258Y-90647234D01*
X79411217Y-90691209D01*
X79411000Y-90694352D01*
X79441676Y-90707658D01*
X79499293Y-90686393D01*
X79560000Y-90643684D01*
X79568852Y-90620407D01*
X79516429Y-90616313D01*
G37*
X79516429Y-90616313D02*
X79448258Y-90647234D01*
X79411217Y-90691209D01*
X79411000Y-90694352D01*
X79441676Y-90707658D01*
X79499293Y-90686393D01*
X79560000Y-90643684D01*
X79568852Y-90620407D01*
X79516429Y-90616313D01*
G36*
X79635869Y-92259540D02*
G01*
X79569073Y-92280762D01*
X79495667Y-92318167D01*
X79435182Y-92362260D01*
X79451717Y-92379996D01*
X79455826Y-92380167D01*
X79540146Y-92357081D01*
X79603993Y-92319513D01*
X79651997Y-92272513D01*
X79635869Y-92259540D01*
G37*
X79635869Y-92259540D02*
X79569073Y-92280762D01*
X79495667Y-92318167D01*
X79435182Y-92362260D01*
X79451717Y-92379996D01*
X79455826Y-92380167D01*
X79540146Y-92357081D01*
X79603993Y-92319513D01*
X79651997Y-92272513D01*
X79635869Y-92259540D01*
G36*
X79640589Y-92393897D02*
G01*
X79554293Y-92425080D01*
X79471276Y-92474093D01*
X79426436Y-92523662D01*
X79425112Y-92531515D01*
X79441539Y-92586852D01*
X79454680Y-92593333D01*
X79505039Y-92570723D01*
X79579890Y-92517685D01*
X79651932Y-92456407D01*
X79693862Y-92409078D01*
X79695261Y-92397816D01*
X79640589Y-92393897D01*
G37*
X79640589Y-92393897D02*
X79554293Y-92425080D01*
X79471276Y-92474093D01*
X79426436Y-92523662D01*
X79425112Y-92531515D01*
X79441539Y-92586852D01*
X79454680Y-92593333D01*
X79505039Y-92570723D01*
X79579890Y-92517685D01*
X79651932Y-92456407D01*
X79693862Y-92409078D01*
X79695261Y-92397816D01*
X79640589Y-92393897D01*
G36*
X79651394Y-92015282D02*
G01*
X79602252Y-92015806D01*
X79544409Y-92039570D01*
X79455929Y-92079299D01*
X79423592Y-92078490D01*
X79456566Y-92039370D01*
X79476993Y-92023180D01*
X79530474Y-91972785D01*
X79510045Y-91961235D01*
X79435630Y-91984029D01*
X79380544Y-92018455D01*
X79382228Y-92077984D01*
X79396494Y-92116455D01*
X79430540Y-92143718D01*
X79504913Y-92122515D01*
X79545253Y-92102750D01*
X79624719Y-92053337D01*
X79653039Y-92018281D01*
X79651394Y-92015282D01*
G37*
X79651394Y-92015282D02*
X79602252Y-92015806D01*
X79544409Y-92039570D01*
X79455929Y-92079299D01*
X79423592Y-92078490D01*
X79456566Y-92039370D01*
X79476993Y-92023180D01*
X79530474Y-91972785D01*
X79510045Y-91961235D01*
X79435630Y-91984029D01*
X79380544Y-92018455D01*
X79382228Y-92077984D01*
X79396494Y-92116455D01*
X79430540Y-92143718D01*
X79504913Y-92122515D01*
X79545253Y-92102750D01*
X79624719Y-92053337D01*
X79653039Y-92018281D01*
X79651394Y-92015282D01*
G36*
X79673112Y-92121604D02*
G01*
X79586719Y-92143922D01*
X79538431Y-92162561D01*
X79435252Y-92212621D01*
X79375243Y-92254739D01*
X79369098Y-92265818D01*
X79402916Y-92271834D01*
X79487899Y-92247511D01*
X79522004Y-92234068D01*
X79623303Y-92193282D01*
X79685176Y-92171257D01*
X79691337Y-92170000D01*
X79707092Y-92137597D01*
X79707334Y-92130811D01*
X79673112Y-92121604D01*
G37*
X79673112Y-92121604D02*
X79586719Y-92143922D01*
X79538431Y-92162561D01*
X79435252Y-92212621D01*
X79375243Y-92254739D01*
X79369098Y-92265818D01*
X79402916Y-92271834D01*
X79487899Y-92247511D01*
X79522004Y-92234068D01*
X79623303Y-92193282D01*
X79685176Y-92171257D01*
X79691337Y-92170000D01*
X79707092Y-92137597D01*
X79707334Y-92130811D01*
X79673112Y-92121604D01*
G36*
X78969947Y-90789809D02*
G01*
X78963710Y-90787238D01*
X78887531Y-90800219D01*
X78779913Y-90876764D01*
X78752044Y-90902705D01*
X78646210Y-91024793D01*
X78610387Y-91126032D01*
X78639029Y-91223778D01*
X78645859Y-91235034D01*
X78666357Y-91317248D01*
X78662176Y-91427876D01*
X78669520Y-91538506D01*
X78716327Y-91647933D01*
X78787916Y-91741928D01*
X78869605Y-91806262D01*
X78946715Y-91826706D01*
X79004564Y-91789031D01*
X79014214Y-91769078D01*
X79006391Y-91696023D01*
X78955258Y-91601752D01*
X78948737Y-91593211D01*
X78892080Y-91510844D01*
X78888560Y-91456874D01*
X78923519Y-91408717D01*
X78982536Y-91305085D01*
X78958327Y-91213262D01*
X78913584Y-91169222D01*
X78866913Y-91123701D01*
X78878870Y-91082346D01*
X78934750Y-91030770D01*
X79011557Y-90936166D01*
X79024077Y-90849214D01*
X78969947Y-90789809D01*
G37*
X78969947Y-90789809D02*
X78963710Y-90787238D01*
X78887531Y-90800219D01*
X78779913Y-90876764D01*
X78752044Y-90902705D01*
X78646210Y-91024793D01*
X78610387Y-91126032D01*
X78639029Y-91223778D01*
X78645859Y-91235034D01*
X78666357Y-91317248D01*
X78662176Y-91427876D01*
X78669520Y-91538506D01*
X78716327Y-91647933D01*
X78787916Y-91741928D01*
X78869605Y-91806262D01*
X78946715Y-91826706D01*
X79004564Y-91789031D01*
X79014214Y-91769078D01*
X79006391Y-91696023D01*
X78955258Y-91601752D01*
X78948737Y-91593211D01*
X78892080Y-91510844D01*
X78888560Y-91456874D01*
X78923519Y-91408717D01*
X78982536Y-91305085D01*
X78958327Y-91213262D01*
X78913584Y-91169222D01*
X78866913Y-91123701D01*
X78878870Y-91082346D01*
X78934750Y-91030770D01*
X79011557Y-90936166D01*
X79024077Y-90849214D01*
X78969947Y-90789809D01*
G36*
X82297758Y-91450333D02*
G01*
X82239343Y-91427769D01*
X82187921Y-91395057D01*
X82142581Y-91353226D01*
X82135444Y-91302576D01*
X82165394Y-91213197D01*
X82179830Y-91178220D01*
X82225205Y-91034155D01*
X82241989Y-90875688D01*
X82228824Y-90688235D01*
X82184351Y-90457214D01*
X82107212Y-90168039D01*
X82075873Y-90062387D01*
X82003675Y-89817546D01*
X81958801Y-89637839D01*
X81942818Y-89507744D01*
X81957293Y-89411741D01*
X82003793Y-89334311D01*
X82083884Y-89259933D01*
X82162949Y-89199764D01*
X82262144Y-89113583D01*
X82283078Y-89059594D01*
X82225742Y-89037827D01*
X82207662Y-89037333D01*
X82153791Y-89024486D01*
X82139872Y-88970300D01*
X82148828Y-88894549D01*
X82152383Y-88784121D01*
X82125414Y-88722978D01*
X82124999Y-88722717D01*
X82085932Y-88729888D01*
X82077790Y-88770252D01*
X82051980Y-88851793D01*
X81988628Y-88954540D01*
X81973479Y-88973833D01*
X81869379Y-89100833D01*
X81867856Y-88963250D01*
X81855424Y-88869580D01*
X81827187Y-88826055D01*
X81824000Y-88825667D01*
X81790914Y-88861547D01*
X81781553Y-88920917D01*
X81775316Y-88967652D01*
X81748489Y-88966379D01*
X81688654Y-88910637D01*
X81622803Y-88838358D01*
X81360907Y-88605420D01*
X81033324Y-88416700D01*
X80744500Y-88305894D01*
X80604051Y-88266335D01*
X80466406Y-88239705D01*
X80309638Y-88223761D01*
X80111822Y-88216260D01*
X79855500Y-88214945D01*
X79476566Y-88226974D01*
X79162412Y-88262995D01*
X78895530Y-88327068D01*
X78658412Y-88423253D01*
X78458500Y-88538976D01*
X78338894Y-88622719D01*
X78273896Y-88690789D01*
X78245089Y-88770356D01*
X78235238Y-88868327D01*
X78261202Y-89105670D01*
X78313233Y-89237382D01*
X78426276Y-89400761D01*
X78587201Y-89521830D01*
X78811167Y-89610963D01*
X78890379Y-89632396D01*
X79110591Y-89687295D01*
X78940673Y-89817398D01*
X78802937Y-89961530D01*
X78668962Y-90171213D01*
X78546154Y-90427410D01*
X78441919Y-90711085D01*
X78363664Y-91003199D01*
X78318794Y-91284715D01*
X78310984Y-91435979D01*
X78328660Y-91635889D01*
X78376647Y-91856168D01*
X78445782Y-92065524D01*
X78526902Y-92232664D01*
X78556985Y-92276107D01*
X78644971Y-92387962D01*
X78519986Y-92560500D01*
X78443478Y-92682683D01*
X78405978Y-92800414D01*
X78395104Y-92955175D01*
X78395000Y-92979249D01*
X78411843Y-93172972D01*
X78457158Y-93346470D01*
X78523130Y-93478107D01*
X78599537Y-93545362D01*
X78737991Y-93577642D01*
X78925858Y-93595136D01*
X79004567Y-93595729D01*
X79004567Y-93524667D01*
X78789300Y-93507796D01*
X78641286Y-93450153D01*
X78548694Y-93341197D01*
X78499691Y-93170384D01*
X78488273Y-93064654D01*
X78482266Y-92906871D01*
X78497351Y-92796707D01*
X78541176Y-92698188D01*
X78579020Y-92637866D01*
X78688656Y-92472196D01*
X78816858Y-92591954D01*
X78974020Y-92686269D01*
X79189822Y-92740478D01*
X79448659Y-92755172D01*
X79734924Y-92730941D01*
X80033013Y-92668375D01*
X80327320Y-92568066D01*
X80410454Y-92531667D01*
X80588752Y-92456158D01*
X80762526Y-92394151D01*
X80900105Y-92356684D01*
X80924417Y-92352543D01*
X81034199Y-92328578D01*
X81097889Y-92297484D01*
X81104334Y-92285349D01*
X81068001Y-92257221D01*
X80969936Y-92258186D01*
X80826536Y-92284719D01*
X80654199Y-92333293D01*
X80469323Y-92400382D01*
X80369363Y-92443382D01*
X80019795Y-92572065D01*
X79667577Y-92644153D01*
X79335657Y-92655735D01*
X79207144Y-92641504D01*
X78977682Y-92562057D01*
X78773922Y-92403002D01*
X78597695Y-92165960D01*
X78532164Y-92043195D01*
X78475174Y-91913552D01*
X78441197Y-91794239D01*
X78424789Y-91655290D01*
X78420503Y-91466735D01*
X78420581Y-91429167D01*
X78427528Y-91212505D01*
X78450758Y-91026748D01*
X78496892Y-90833517D01*
X78556020Y-90643883D01*
X78678904Y-90332286D01*
X78821649Y-90090322D01*
X78994292Y-89903526D01*
X79146826Y-89792540D01*
X79216282Y-89753127D01*
X79285707Y-89726561D01*
X79372452Y-89710824D01*
X79493867Y-89703897D01*
X79667302Y-89703760D01*
X79876347Y-89707644D01*
X80274674Y-89726223D01*
X80601551Y-89764148D01*
X80868433Y-89823571D01*
X81086771Y-89906648D01*
X81169887Y-89950941D01*
X81303141Y-90017096D01*
X81382798Y-90035080D01*
X81401651Y-90011344D01*
X81352490Y-89952335D01*
X81250768Y-89878578D01*
X80995058Y-89751429D01*
X80696293Y-89670586D01*
X80341144Y-89632964D01*
X80174690Y-89629311D01*
X79844709Y-89623205D01*
X79526523Y-89607028D01*
X79234929Y-89582299D01*
X78984724Y-89550537D01*
X78790708Y-89513260D01*
X78674387Y-89475320D01*
X78525720Y-89371080D01*
X78411775Y-89227617D01*
X78339069Y-89064402D01*
X78314118Y-88900909D01*
X78343439Y-88756611D01*
X78405584Y-88672154D01*
X78561901Y-88562419D01*
X78768985Y-88454277D01*
X78994094Y-88363282D01*
X79157000Y-88315185D01*
X79297572Y-88292195D01*
X79493557Y-88273543D01*
X79715726Y-88261537D01*
X79876667Y-88258302D01*
X80110148Y-88260349D01*
X80289676Y-88271336D01*
X80445834Y-88295498D01*
X80609206Y-88337071D01*
X80742265Y-88378165D01*
X80920706Y-88442152D01*
X81076954Y-88510163D01*
X81186752Y-88571151D01*
X81214288Y-88593106D01*
X81301256Y-88667987D01*
X81370795Y-88710635D01*
X81432656Y-88757673D01*
X81515776Y-88848447D01*
X81553335Y-88896703D01*
X81674340Y-89053846D01*
X81762708Y-89148045D01*
X81830337Y-89188366D01*
X81889128Y-89183870D01*
X81913577Y-89171092D01*
X82007327Y-89124532D01*
X82041406Y-89135090D01*
X82013774Y-89197858D01*
X81955386Y-89271640D01*
X81879046Y-89369689D01*
X81839541Y-89462838D01*
X81825284Y-89586561D01*
X81824000Y-89673807D01*
X81830461Y-89808499D01*
X81847319Y-89899752D01*
X81866334Y-89926333D01*
X81908466Y-89892591D01*
X81912887Y-89873417D01*
X81923010Y-89848674D01*
X81940204Y-89887423D01*
X81959845Y-89969302D01*
X81977307Y-90073947D01*
X81987968Y-90180996D01*
X81989114Y-90209060D01*
X82006971Y-90337628D01*
X82046192Y-90435743D01*
X82058596Y-90451215D01*
X82148686Y-90575548D01*
X82183300Y-90722805D01*
X82164037Y-90909460D01*
X82119018Y-91073425D01*
X82023539Y-91370367D01*
X82119769Y-91437770D01*
X82216000Y-91505172D01*
X82115250Y-91586714D01*
X82052538Y-91652324D01*
X82065140Y-91688731D01*
X82068308Y-91690119D01*
X82118958Y-91738059D01*
X82180752Y-91827122D01*
X82230894Y-91920865D01*
X82247334Y-91976350D01*
X82213714Y-91979870D01*
X82142999Y-91958903D01*
X82049268Y-91939366D01*
X82019025Y-91975134D01*
X82052831Y-92064873D01*
X82080132Y-92109141D01*
X82129236Y-92219023D01*
X82157053Y-92350204D01*
X82160767Y-92472628D01*
X82137566Y-92556242D01*
X82123312Y-92570326D01*
X82085424Y-92551317D01*
X82040966Y-92473654D01*
X82030956Y-92448079D01*
X81981696Y-92347877D01*
X81940908Y-92330315D01*
X81914831Y-92393393D01*
X81908667Y-92487243D01*
X81869227Y-92726666D01*
X81750669Y-92936040D01*
X81707554Y-92984917D01*
X81612905Y-93073770D01*
X81565575Y-93095275D01*
X81568540Y-93050772D01*
X81621958Y-92946362D01*
X81678418Y-92821623D01*
X81707583Y-92671680D01*
X81715780Y-92495392D01*
X81709183Y-92311917D01*
X81686101Y-92210176D01*
X81647025Y-92190618D01*
X81592446Y-92253694D01*
X81547990Y-92341206D01*
X81454797Y-92500960D01*
X81330438Y-92615801D01*
X81153961Y-92701886D01*
X81027252Y-92742785D01*
X80897731Y-92789313D01*
X80717033Y-92866690D01*
X80507966Y-92964606D01*
X80293340Y-93072747D01*
X80268690Y-93085713D01*
X79956459Y-93245644D01*
X79700200Y-93364004D01*
X79485238Y-93445888D01*
X79296901Y-93496391D01*
X79120515Y-93520608D01*
X79004567Y-93524667D01*
X79004567Y-93595729D01*
X79128984Y-93596668D01*
X79313216Y-93581059D01*
X79364972Y-93571747D01*
X79492484Y-93533027D01*
X79670063Y-93464050D01*
X79873332Y-93374884D01*
X80060798Y-93284326D01*
X80325019Y-93150506D01*
X80526392Y-93049365D01*
X80677498Y-92975126D01*
X80790916Y-92922012D01*
X80879228Y-92884245D01*
X80955014Y-92856049D01*
X81030855Y-92831645D01*
X81076251Y-92818013D01*
X81295880Y-92736928D01*
X81451584Y-92638134D01*
X81564005Y-92508049D01*
X81575799Y-92489312D01*
X81654351Y-92360500D01*
X81653579Y-92508667D01*
X81622972Y-92689099D01*
X81540541Y-92898027D01*
X81417921Y-93107895D01*
X81376425Y-93165102D01*
X81313539Y-93263765D01*
X81313788Y-93309412D01*
X81374207Y-93301931D01*
X81491828Y-93241210D01*
X81597128Y-93173426D01*
X81801067Y-92989869D01*
X81908581Y-92824176D01*
X82014329Y-92614500D01*
X82038717Y-92762667D01*
X82063104Y-92910833D01*
X82158973Y-92699167D01*
X82225950Y-92506079D01*
X82239023Y-92323656D01*
X82236506Y-92290272D01*
X82230514Y-92169201D01*
X82244457Y-92116525D01*
X82275085Y-92114885D01*
X82319977Y-92102848D01*
X82330111Y-92028944D01*
X82305894Y-91908321D01*
X82266586Y-91799056D01*
X82227846Y-91695149D01*
X82226174Y-91638035D01*
X82261572Y-91598386D01*
X82266586Y-91594665D01*
X82318870Y-91533601D01*
X82330450Y-91474762D01*
X82297758Y-91450333D01*
G37*
X82297758Y-91450333D02*
X82239343Y-91427769D01*
X82187921Y-91395057D01*
X82142581Y-91353226D01*
X82135444Y-91302576D01*
X82165394Y-91213197D01*
X82179830Y-91178220D01*
X82225205Y-91034155D01*
X82241989Y-90875688D01*
X82228824Y-90688235D01*
X82184351Y-90457214D01*
X82107212Y-90168039D01*
X82075873Y-90062387D01*
X82003675Y-89817546D01*
X81958801Y-89637839D01*
X81942818Y-89507744D01*
X81957293Y-89411741D01*
X82003793Y-89334311D01*
X82083884Y-89259933D01*
X82162949Y-89199764D01*
X82262144Y-89113583D01*
X82283078Y-89059594D01*
X82225742Y-89037827D01*
X82207662Y-89037333D01*
X82153791Y-89024486D01*
X82139872Y-88970300D01*
X82148828Y-88894549D01*
X82152383Y-88784121D01*
X82125414Y-88722978D01*
X82124999Y-88722717D01*
X82085932Y-88729888D01*
X82077790Y-88770252D01*
X82051980Y-88851793D01*
X81988628Y-88954540D01*
X81973479Y-88973833D01*
X81869379Y-89100833D01*
X81867856Y-88963250D01*
X81855424Y-88869580D01*
X81827187Y-88826055D01*
X81824000Y-88825667D01*
X81790914Y-88861547D01*
X81781553Y-88920917D01*
X81775316Y-88967652D01*
X81748489Y-88966379D01*
X81688654Y-88910637D01*
X81622803Y-88838358D01*
X81360907Y-88605420D01*
X81033324Y-88416700D01*
X80744500Y-88305894D01*
X80604051Y-88266335D01*
X80466406Y-88239705D01*
X80309638Y-88223761D01*
X80111822Y-88216260D01*
X79855500Y-88214945D01*
X79476566Y-88226974D01*
X79162412Y-88262995D01*
X78895530Y-88327068D01*
X78658412Y-88423253D01*
X78458500Y-88538976D01*
X78338894Y-88622719D01*
X78273896Y-88690789D01*
X78245089Y-88770356D01*
X78235238Y-88868327D01*
X78261202Y-89105670D01*
X78313233Y-89237382D01*
X78426276Y-89400761D01*
X78587201Y-89521830D01*
X78811167Y-89610963D01*
X78890379Y-89632396D01*
X79110591Y-89687295D01*
X78940673Y-89817398D01*
X78802937Y-89961530D01*
X78668962Y-90171213D01*
X78546154Y-90427410D01*
X78441919Y-90711085D01*
X78363664Y-91003199D01*
X78318794Y-91284715D01*
X78310984Y-91435979D01*
X78328660Y-91635889D01*
X78376647Y-91856168D01*
X78445782Y-92065524D01*
X78526902Y-92232664D01*
X78556985Y-92276107D01*
X78644971Y-92387962D01*
X78519986Y-92560500D01*
X78443478Y-92682683D01*
X78405978Y-92800414D01*
X78395104Y-92955175D01*
X78395000Y-92979249D01*
X78411843Y-93172972D01*
X78457158Y-93346470D01*
X78523130Y-93478107D01*
X78599537Y-93545362D01*
X78737991Y-93577642D01*
X78925858Y-93595136D01*
X79004567Y-93595729D01*
X79004567Y-93524667D01*
X78789300Y-93507796D01*
X78641286Y-93450153D01*
X78548694Y-93341197D01*
X78499691Y-93170384D01*
X78488273Y-93064654D01*
X78482266Y-92906871D01*
X78497351Y-92796707D01*
X78541176Y-92698188D01*
X78579020Y-92637866D01*
X78688656Y-92472196D01*
X78816858Y-92591954D01*
X78974020Y-92686269D01*
X79189822Y-92740478D01*
X79448659Y-92755172D01*
X79734924Y-92730941D01*
X80033013Y-92668375D01*
X80327320Y-92568066D01*
X80410454Y-92531667D01*
X80588752Y-92456158D01*
X80762526Y-92394151D01*
X80900105Y-92356684D01*
X80924417Y-92352543D01*
X81034199Y-92328578D01*
X81097889Y-92297484D01*
X81104334Y-92285349D01*
X81068001Y-92257221D01*
X80969936Y-92258186D01*
X80826536Y-92284719D01*
X80654199Y-92333293D01*
X80469323Y-92400382D01*
X80369363Y-92443382D01*
X80019795Y-92572065D01*
X79667577Y-92644153D01*
X79335657Y-92655735D01*
X79207144Y-92641504D01*
X78977682Y-92562057D01*
X78773922Y-92403002D01*
X78597695Y-92165960D01*
X78532164Y-92043195D01*
X78475174Y-91913552D01*
X78441197Y-91794239D01*
X78424789Y-91655290D01*
X78420503Y-91466735D01*
X78420581Y-91429167D01*
X78427528Y-91212505D01*
X78450758Y-91026748D01*
X78496892Y-90833517D01*
X78556020Y-90643883D01*
X78678904Y-90332286D01*
X78821649Y-90090322D01*
X78994292Y-89903526D01*
X79146826Y-89792540D01*
X79216282Y-89753127D01*
X79285707Y-89726561D01*
X79372452Y-89710824D01*
X79493867Y-89703897D01*
X79667302Y-89703760D01*
X79876347Y-89707644D01*
X80274674Y-89726223D01*
X80601551Y-89764148D01*
X80868433Y-89823571D01*
X81086771Y-89906648D01*
X81169887Y-89950941D01*
X81303141Y-90017096D01*
X81382798Y-90035080D01*
X81401651Y-90011344D01*
X81352490Y-89952335D01*
X81250768Y-89878578D01*
X80995058Y-89751429D01*
X80696293Y-89670586D01*
X80341144Y-89632964D01*
X80174690Y-89629311D01*
X79844709Y-89623205D01*
X79526523Y-89607028D01*
X79234929Y-89582299D01*
X78984724Y-89550537D01*
X78790708Y-89513260D01*
X78674387Y-89475320D01*
X78525720Y-89371080D01*
X78411775Y-89227617D01*
X78339069Y-89064402D01*
X78314118Y-88900909D01*
X78343439Y-88756611D01*
X78405584Y-88672154D01*
X78561901Y-88562419D01*
X78768985Y-88454277D01*
X78994094Y-88363282D01*
X79157000Y-88315185D01*
X79297572Y-88292195D01*
X79493557Y-88273543D01*
X79715726Y-88261537D01*
X79876667Y-88258302D01*
X80110148Y-88260349D01*
X80289676Y-88271336D01*
X80445834Y-88295498D01*
X80609206Y-88337071D01*
X80742265Y-88378165D01*
X80920706Y-88442152D01*
X81076954Y-88510163D01*
X81186752Y-88571151D01*
X81214288Y-88593106D01*
X81301256Y-88667987D01*
X81370795Y-88710635D01*
X81432656Y-88757673D01*
X81515776Y-88848447D01*
X81553335Y-88896703D01*
X81674340Y-89053846D01*
X81762708Y-89148045D01*
X81830337Y-89188366D01*
X81889128Y-89183870D01*
X81913577Y-89171092D01*
X82007327Y-89124532D01*
X82041406Y-89135090D01*
X82013774Y-89197858D01*
X81955386Y-89271640D01*
X81879046Y-89369689D01*
X81839541Y-89462838D01*
X81825284Y-89586561D01*
X81824000Y-89673807D01*
X81830461Y-89808499D01*
X81847319Y-89899752D01*
X81866334Y-89926333D01*
X81908466Y-89892591D01*
X81912887Y-89873417D01*
X81923010Y-89848674D01*
X81940204Y-89887423D01*
X81959845Y-89969302D01*
X81977307Y-90073947D01*
X81987968Y-90180996D01*
X81989114Y-90209060D01*
X82006971Y-90337628D01*
X82046192Y-90435743D01*
X82058596Y-90451215D01*
X82148686Y-90575548D01*
X82183300Y-90722805D01*
X82164037Y-90909460D01*
X82119018Y-91073425D01*
X82023539Y-91370367D01*
X82119769Y-91437770D01*
X82216000Y-91505172D01*
X82115250Y-91586714D01*
X82052538Y-91652324D01*
X82065140Y-91688731D01*
X82068308Y-91690119D01*
X82118958Y-91738059D01*
X82180752Y-91827122D01*
X82230894Y-91920865D01*
X82247334Y-91976350D01*
X82213714Y-91979870D01*
X82142999Y-91958903D01*
X82049268Y-91939366D01*
X82019025Y-91975134D01*
X82052831Y-92064873D01*
X82080132Y-92109141D01*
X82129236Y-92219023D01*
X82157053Y-92350204D01*
X82160767Y-92472628D01*
X82137566Y-92556242D01*
X82123312Y-92570326D01*
X82085424Y-92551317D01*
X82040966Y-92473654D01*
X82030956Y-92448079D01*
X81981696Y-92347877D01*
X81940908Y-92330315D01*
X81914831Y-92393393D01*
X81908667Y-92487243D01*
X81869227Y-92726666D01*
X81750669Y-92936040D01*
X81707554Y-92984917D01*
X81612905Y-93073770D01*
X81565575Y-93095275D01*
X81568540Y-93050772D01*
X81621958Y-92946362D01*
X81678418Y-92821623D01*
X81707583Y-92671680D01*
X81715780Y-92495392D01*
X81709183Y-92311917D01*
X81686101Y-92210176D01*
X81647025Y-92190618D01*
X81592446Y-92253694D01*
X81547990Y-92341206D01*
X81454797Y-92500960D01*
X81330438Y-92615801D01*
X81153961Y-92701886D01*
X81027252Y-92742785D01*
X80897731Y-92789313D01*
X80717033Y-92866690D01*
X80507966Y-92964606D01*
X80293340Y-93072747D01*
X80268690Y-93085713D01*
X79956459Y-93245644D01*
X79700200Y-93364004D01*
X79485238Y-93445888D01*
X79296901Y-93496391D01*
X79120515Y-93520608D01*
X79004567Y-93524667D01*
X79004567Y-93595729D01*
X79128984Y-93596668D01*
X79313216Y-93581059D01*
X79364972Y-93571747D01*
X79492484Y-93533027D01*
X79670063Y-93464050D01*
X79873332Y-93374884D01*
X80060798Y-93284326D01*
X80325019Y-93150506D01*
X80526392Y-93049365D01*
X80677498Y-92975126D01*
X80790916Y-92922012D01*
X80879228Y-92884245D01*
X80955014Y-92856049D01*
X81030855Y-92831645D01*
X81076251Y-92818013D01*
X81295880Y-92736928D01*
X81451584Y-92638134D01*
X81564005Y-92508049D01*
X81575799Y-92489312D01*
X81654351Y-92360500D01*
X81653579Y-92508667D01*
X81622972Y-92689099D01*
X81540541Y-92898027D01*
X81417921Y-93107895D01*
X81376425Y-93165102D01*
X81313539Y-93263765D01*
X81313788Y-93309412D01*
X81374207Y-93301931D01*
X81491828Y-93241210D01*
X81597128Y-93173426D01*
X81801067Y-92989869D01*
X81908581Y-92824176D01*
X82014329Y-92614500D01*
X82038717Y-92762667D01*
X82063104Y-92910833D01*
X82158973Y-92699167D01*
X82225950Y-92506079D01*
X82239023Y-92323656D01*
X82236506Y-92290272D01*
X82230514Y-92169201D01*
X82244457Y-92116525D01*
X82275085Y-92114885D01*
X82319977Y-92102848D01*
X82330111Y-92028944D01*
X82305894Y-91908321D01*
X82266586Y-91799056D01*
X82227846Y-91695149D01*
X82226174Y-91638035D01*
X82261572Y-91598386D01*
X82266586Y-91594665D01*
X82318870Y-91533601D01*
X82330450Y-91474762D01*
X82297758Y-91450333D01*
G36*
X92997758Y-175550333D02*
G01*
X92939343Y-175527769D01*
X92887921Y-175495057D01*
X92842581Y-175453226D01*
X92835444Y-175402576D01*
X92865394Y-175313197D01*
X92879830Y-175278220D01*
X92925205Y-175134155D01*
X92941989Y-174975688D01*
X92928824Y-174788235D01*
X92884351Y-174557214D01*
X92807212Y-174268039D01*
X92775873Y-174162387D01*
X92703675Y-173917546D01*
X92658801Y-173737839D01*
X92642818Y-173607744D01*
X92657293Y-173511741D01*
X92703793Y-173434311D01*
X92783884Y-173359933D01*
X92862949Y-173299764D01*
X92962144Y-173213583D01*
X92983078Y-173159594D01*
X92925742Y-173137827D01*
X92907662Y-173137333D01*
X92853791Y-173124486D01*
X92839872Y-173070300D01*
X92848828Y-172994549D01*
X92852383Y-172884121D01*
X92825414Y-172822978D01*
X92824999Y-172822717D01*
X92785932Y-172829888D01*
X92777790Y-172870252D01*
X92751980Y-172951793D01*
X92688628Y-173054540D01*
X92673479Y-173073833D01*
X92569379Y-173200833D01*
X92567856Y-173063250D01*
X92555424Y-172969580D01*
X92527187Y-172926055D01*
X92524000Y-172925667D01*
X92490914Y-172961547D01*
X92481553Y-173020917D01*
X92475316Y-173067652D01*
X92448489Y-173066379D01*
X92388654Y-173010637D01*
X92322803Y-172938358D01*
X92060907Y-172705420D01*
X91733324Y-172516700D01*
X91444500Y-172405894D01*
X91304051Y-172366335D01*
X91166406Y-172339705D01*
X91009638Y-172323761D01*
X90811822Y-172316260D01*
X90555500Y-172314945D01*
X90176566Y-172326974D01*
X89862412Y-172362995D01*
X89595530Y-172427068D01*
X89358412Y-172523253D01*
X89158500Y-172638976D01*
X89038894Y-172722719D01*
X88973896Y-172790789D01*
X88945089Y-172870356D01*
X88935238Y-172968327D01*
X88961202Y-173205670D01*
X89013233Y-173337382D01*
X89126276Y-173500761D01*
X89287201Y-173621830D01*
X89511167Y-173710963D01*
X89590379Y-173732396D01*
X89810591Y-173787295D01*
X89640673Y-173917398D01*
X89502937Y-174061530D01*
X89368962Y-174271213D01*
X89246154Y-174527410D01*
X89141919Y-174811085D01*
X89063664Y-175103199D01*
X89018794Y-175384715D01*
X89010984Y-175535979D01*
X89028660Y-175735889D01*
X89076647Y-175956168D01*
X89145782Y-176165524D01*
X89226902Y-176332664D01*
X89256985Y-176376107D01*
X89344971Y-176487962D01*
X89219986Y-176660500D01*
X89143478Y-176782683D01*
X89105978Y-176900414D01*
X89095104Y-177055175D01*
X89095000Y-177079249D01*
X89111843Y-177272972D01*
X89157158Y-177446470D01*
X89223130Y-177578107D01*
X89299537Y-177645362D01*
X89437991Y-177677642D01*
X89625858Y-177695136D01*
X89704567Y-177695729D01*
X89704567Y-177624667D01*
X89489300Y-177607796D01*
X89341286Y-177550153D01*
X89248694Y-177441197D01*
X89199691Y-177270384D01*
X89188273Y-177164654D01*
X89182266Y-177006871D01*
X89197351Y-176896707D01*
X89241176Y-176798188D01*
X89279020Y-176737866D01*
X89388656Y-176572196D01*
X89516858Y-176691954D01*
X89674020Y-176786269D01*
X89889822Y-176840478D01*
X90148659Y-176855172D01*
X90434924Y-176830941D01*
X90733013Y-176768375D01*
X91027320Y-176668066D01*
X91110454Y-176631667D01*
X91288752Y-176556158D01*
X91462526Y-176494151D01*
X91600105Y-176456684D01*
X91624417Y-176452543D01*
X91734199Y-176428578D01*
X91797889Y-176397484D01*
X91804334Y-176385349D01*
X91768001Y-176357221D01*
X91669936Y-176358186D01*
X91526536Y-176384719D01*
X91354199Y-176433293D01*
X91169323Y-176500382D01*
X91069363Y-176543382D01*
X90719795Y-176672065D01*
X90367577Y-176744153D01*
X90035657Y-176755735D01*
X89907144Y-176741504D01*
X89677682Y-176662057D01*
X89473922Y-176503002D01*
X89297695Y-176265960D01*
X89232164Y-176143195D01*
X89175174Y-176013552D01*
X89141197Y-175894239D01*
X89124789Y-175755290D01*
X89120503Y-175566735D01*
X89120581Y-175529167D01*
X89127528Y-175312505D01*
X89150758Y-175126748D01*
X89196892Y-174933517D01*
X89256020Y-174743883D01*
X89378904Y-174432286D01*
X89521649Y-174190322D01*
X89694292Y-174003526D01*
X89846826Y-173892540D01*
X89916282Y-173853127D01*
X89985707Y-173826561D01*
X90072452Y-173810824D01*
X90193867Y-173803897D01*
X90367302Y-173803760D01*
X90576347Y-173807644D01*
X90974674Y-173826223D01*
X91301551Y-173864148D01*
X91568433Y-173923571D01*
X91786771Y-174006648D01*
X91869887Y-174050941D01*
X92003141Y-174117096D01*
X92082798Y-174135080D01*
X92101651Y-174111344D01*
X92052490Y-174052335D01*
X91950768Y-173978578D01*
X91695058Y-173851429D01*
X91396293Y-173770586D01*
X91041144Y-173732964D01*
X90874690Y-173729311D01*
X90544709Y-173723205D01*
X90226523Y-173707028D01*
X89934929Y-173682299D01*
X89684724Y-173650537D01*
X89490708Y-173613260D01*
X89374387Y-173575320D01*
X89225720Y-173471080D01*
X89111775Y-173327617D01*
X89039069Y-173164402D01*
X89014118Y-173000909D01*
X89043439Y-172856611D01*
X89105584Y-172772154D01*
X89261901Y-172662419D01*
X89468985Y-172554277D01*
X89694094Y-172463282D01*
X89857000Y-172415185D01*
X89997572Y-172392195D01*
X90193557Y-172373543D01*
X90415726Y-172361537D01*
X90576667Y-172358302D01*
X90810148Y-172360349D01*
X90989676Y-172371336D01*
X91145834Y-172395498D01*
X91309206Y-172437071D01*
X91442265Y-172478165D01*
X91620706Y-172542152D01*
X91776954Y-172610163D01*
X91886752Y-172671151D01*
X91914288Y-172693106D01*
X92001256Y-172767987D01*
X92070795Y-172810635D01*
X92132656Y-172857673D01*
X92215776Y-172948447D01*
X92253335Y-172996703D01*
X92374340Y-173153846D01*
X92462708Y-173248045D01*
X92530337Y-173288366D01*
X92589128Y-173283870D01*
X92613577Y-173271092D01*
X92707327Y-173224532D01*
X92741406Y-173235090D01*
X92713774Y-173297858D01*
X92655386Y-173371640D01*
X92579046Y-173469689D01*
X92539541Y-173562838D01*
X92525284Y-173686561D01*
X92524000Y-173773807D01*
X92530461Y-173908499D01*
X92547319Y-173999752D01*
X92566334Y-174026333D01*
X92608466Y-173992591D01*
X92612887Y-173973417D01*
X92623010Y-173948674D01*
X92640204Y-173987423D01*
X92659845Y-174069302D01*
X92677307Y-174173947D01*
X92687968Y-174280996D01*
X92689114Y-174309060D01*
X92706971Y-174437628D01*
X92746192Y-174535743D01*
X92758596Y-174551215D01*
X92848686Y-174675548D01*
X92883300Y-174822805D01*
X92864037Y-175009460D01*
X92819018Y-175173425D01*
X92723539Y-175470367D01*
X92819769Y-175537770D01*
X92916000Y-175605172D01*
X92815250Y-175686714D01*
X92752538Y-175752324D01*
X92765140Y-175788731D01*
X92768308Y-175790119D01*
X92818958Y-175838059D01*
X92880752Y-175927122D01*
X92930894Y-176020865D01*
X92947334Y-176076350D01*
X92913714Y-176079870D01*
X92842999Y-176058903D01*
X92749268Y-176039366D01*
X92719025Y-176075134D01*
X92752831Y-176164873D01*
X92780132Y-176209141D01*
X92829236Y-176319023D01*
X92857053Y-176450204D01*
X92860767Y-176572628D01*
X92837566Y-176656242D01*
X92823312Y-176670326D01*
X92785424Y-176651317D01*
X92740966Y-176573654D01*
X92730956Y-176548079D01*
X92681696Y-176447877D01*
X92640908Y-176430315D01*
X92614831Y-176493393D01*
X92608667Y-176587243D01*
X92569227Y-176826666D01*
X92450669Y-177036040D01*
X92407554Y-177084917D01*
X92312905Y-177173770D01*
X92265575Y-177195275D01*
X92268540Y-177150772D01*
X92321958Y-177046362D01*
X92378418Y-176921623D01*
X92407583Y-176771680D01*
X92415780Y-176595392D01*
X92409183Y-176411917D01*
X92386101Y-176310176D01*
X92347025Y-176290618D01*
X92292446Y-176353694D01*
X92247990Y-176441206D01*
X92154797Y-176600960D01*
X92030438Y-176715801D01*
X91853961Y-176801886D01*
X91727252Y-176842785D01*
X91597731Y-176889313D01*
X91417033Y-176966690D01*
X91207966Y-177064606D01*
X90993340Y-177172747D01*
X90968690Y-177185713D01*
X90656459Y-177345644D01*
X90400200Y-177464004D01*
X90185238Y-177545888D01*
X89996901Y-177596391D01*
X89820515Y-177620608D01*
X89704567Y-177624667D01*
X89704567Y-177695729D01*
X89828984Y-177696668D01*
X90013216Y-177681059D01*
X90064972Y-177671747D01*
X90192484Y-177633027D01*
X90370063Y-177564050D01*
X90573332Y-177474884D01*
X90760798Y-177384326D01*
X91025019Y-177250506D01*
X91226392Y-177149365D01*
X91377498Y-177075126D01*
X91490916Y-177022012D01*
X91579228Y-176984245D01*
X91655014Y-176956049D01*
X91730855Y-176931645D01*
X91776251Y-176918013D01*
X91995880Y-176836928D01*
X92151584Y-176738134D01*
X92264005Y-176608049D01*
X92275799Y-176589312D01*
X92354351Y-176460500D01*
X92353579Y-176608667D01*
X92322972Y-176789099D01*
X92240541Y-176998027D01*
X92117921Y-177207895D01*
X92076425Y-177265102D01*
X92013539Y-177363765D01*
X92013788Y-177409412D01*
X92074207Y-177401931D01*
X92191828Y-177341210D01*
X92297128Y-177273426D01*
X92501067Y-177089869D01*
X92608581Y-176924176D01*
X92714329Y-176714500D01*
X92738717Y-176862667D01*
X92763104Y-177010833D01*
X92858973Y-176799167D01*
X92925950Y-176606079D01*
X92939023Y-176423656D01*
X92936506Y-176390272D01*
X92930514Y-176269201D01*
X92944457Y-176216525D01*
X92975085Y-176214885D01*
X93019977Y-176202848D01*
X93030111Y-176128944D01*
X93005894Y-176008321D01*
X92966586Y-175899056D01*
X92927846Y-175795149D01*
X92926174Y-175738035D01*
X92961572Y-175698386D01*
X92966586Y-175694665D01*
X93018870Y-175633601D01*
X93030450Y-175574762D01*
X92997758Y-175550333D01*
G37*
X92997758Y-175550333D02*
X92939343Y-175527769D01*
X92887921Y-175495057D01*
X92842581Y-175453226D01*
X92835444Y-175402576D01*
X92865394Y-175313197D01*
X92879830Y-175278220D01*
X92925205Y-175134155D01*
X92941989Y-174975688D01*
X92928824Y-174788235D01*
X92884351Y-174557214D01*
X92807212Y-174268039D01*
X92775873Y-174162387D01*
X92703675Y-173917546D01*
X92658801Y-173737839D01*
X92642818Y-173607744D01*
X92657293Y-173511741D01*
X92703793Y-173434311D01*
X92783884Y-173359933D01*
X92862949Y-173299764D01*
X92962144Y-173213583D01*
X92983078Y-173159594D01*
X92925742Y-173137827D01*
X92907662Y-173137333D01*
X92853791Y-173124486D01*
X92839872Y-173070300D01*
X92848828Y-172994549D01*
X92852383Y-172884121D01*
X92825414Y-172822978D01*
X92824999Y-172822717D01*
X92785932Y-172829888D01*
X92777790Y-172870252D01*
X92751980Y-172951793D01*
X92688628Y-173054540D01*
X92673479Y-173073833D01*
X92569379Y-173200833D01*
X92567856Y-173063250D01*
X92555424Y-172969580D01*
X92527187Y-172926055D01*
X92524000Y-172925667D01*
X92490914Y-172961547D01*
X92481553Y-173020917D01*
X92475316Y-173067652D01*
X92448489Y-173066379D01*
X92388654Y-173010637D01*
X92322803Y-172938358D01*
X92060907Y-172705420D01*
X91733324Y-172516700D01*
X91444500Y-172405894D01*
X91304051Y-172366335D01*
X91166406Y-172339705D01*
X91009638Y-172323761D01*
X90811822Y-172316260D01*
X90555500Y-172314945D01*
X90176566Y-172326974D01*
X89862412Y-172362995D01*
X89595530Y-172427068D01*
X89358412Y-172523253D01*
X89158500Y-172638976D01*
X89038894Y-172722719D01*
X88973896Y-172790789D01*
X88945089Y-172870356D01*
X88935238Y-172968327D01*
X88961202Y-173205670D01*
X89013233Y-173337382D01*
X89126276Y-173500761D01*
X89287201Y-173621830D01*
X89511167Y-173710963D01*
X89590379Y-173732396D01*
X89810591Y-173787295D01*
X89640673Y-173917398D01*
X89502937Y-174061530D01*
X89368962Y-174271213D01*
X89246154Y-174527410D01*
X89141919Y-174811085D01*
X89063664Y-175103199D01*
X89018794Y-175384715D01*
X89010984Y-175535979D01*
X89028660Y-175735889D01*
X89076647Y-175956168D01*
X89145782Y-176165524D01*
X89226902Y-176332664D01*
X89256985Y-176376107D01*
X89344971Y-176487962D01*
X89219986Y-176660500D01*
X89143478Y-176782683D01*
X89105978Y-176900414D01*
X89095104Y-177055175D01*
X89095000Y-177079249D01*
X89111843Y-177272972D01*
X89157158Y-177446470D01*
X89223130Y-177578107D01*
X89299537Y-177645362D01*
X89437991Y-177677642D01*
X89625858Y-177695136D01*
X89704567Y-177695729D01*
X89704567Y-177624667D01*
X89489300Y-177607796D01*
X89341286Y-177550153D01*
X89248694Y-177441197D01*
X89199691Y-177270384D01*
X89188273Y-177164654D01*
X89182266Y-177006871D01*
X89197351Y-176896707D01*
X89241176Y-176798188D01*
X89279020Y-176737866D01*
X89388656Y-176572196D01*
X89516858Y-176691954D01*
X89674020Y-176786269D01*
X89889822Y-176840478D01*
X90148659Y-176855172D01*
X90434924Y-176830941D01*
X90733013Y-176768375D01*
X91027320Y-176668066D01*
X91110454Y-176631667D01*
X91288752Y-176556158D01*
X91462526Y-176494151D01*
X91600105Y-176456684D01*
X91624417Y-176452543D01*
X91734199Y-176428578D01*
X91797889Y-176397484D01*
X91804334Y-176385349D01*
X91768001Y-176357221D01*
X91669936Y-176358186D01*
X91526536Y-176384719D01*
X91354199Y-176433293D01*
X91169323Y-176500382D01*
X91069363Y-176543382D01*
X90719795Y-176672065D01*
X90367577Y-176744153D01*
X90035657Y-176755735D01*
X89907144Y-176741504D01*
X89677682Y-176662057D01*
X89473922Y-176503002D01*
X89297695Y-176265960D01*
X89232164Y-176143195D01*
X89175174Y-176013552D01*
X89141197Y-175894239D01*
X89124789Y-175755290D01*
X89120503Y-175566735D01*
X89120581Y-175529167D01*
X89127528Y-175312505D01*
X89150758Y-175126748D01*
X89196892Y-174933517D01*
X89256020Y-174743883D01*
X89378904Y-174432286D01*
X89521649Y-174190322D01*
X89694292Y-174003526D01*
X89846826Y-173892540D01*
X89916282Y-173853127D01*
X89985707Y-173826561D01*
X90072452Y-173810824D01*
X90193867Y-173803897D01*
X90367302Y-173803760D01*
X90576347Y-173807644D01*
X90974674Y-173826223D01*
X91301551Y-173864148D01*
X91568433Y-173923571D01*
X91786771Y-174006648D01*
X91869887Y-174050941D01*
X92003141Y-174117096D01*
X92082798Y-174135080D01*
X92101651Y-174111344D01*
X92052490Y-174052335D01*
X91950768Y-173978578D01*
X91695058Y-173851429D01*
X91396293Y-173770586D01*
X91041144Y-173732964D01*
X90874690Y-173729311D01*
X90544709Y-173723205D01*
X90226523Y-173707028D01*
X89934929Y-173682299D01*
X89684724Y-173650537D01*
X89490708Y-173613260D01*
X89374387Y-173575320D01*
X89225720Y-173471080D01*
X89111775Y-173327617D01*
X89039069Y-173164402D01*
X89014118Y-173000909D01*
X89043439Y-172856611D01*
X89105584Y-172772154D01*
X89261901Y-172662419D01*
X89468985Y-172554277D01*
X89694094Y-172463282D01*
X89857000Y-172415185D01*
X89997572Y-172392195D01*
X90193557Y-172373543D01*
X90415726Y-172361537D01*
X90576667Y-172358302D01*
X90810148Y-172360349D01*
X90989676Y-172371336D01*
X91145834Y-172395498D01*
X91309206Y-172437071D01*
X91442265Y-172478165D01*
X91620706Y-172542152D01*
X91776954Y-172610163D01*
X91886752Y-172671151D01*
X91914288Y-172693106D01*
X92001256Y-172767987D01*
X92070795Y-172810635D01*
X92132656Y-172857673D01*
X92215776Y-172948447D01*
X92253335Y-172996703D01*
X92374340Y-173153846D01*
X92462708Y-173248045D01*
X92530337Y-173288366D01*
X92589128Y-173283870D01*
X92613577Y-173271092D01*
X92707327Y-173224532D01*
X92741406Y-173235090D01*
X92713774Y-173297858D01*
X92655386Y-173371640D01*
X92579046Y-173469689D01*
X92539541Y-173562838D01*
X92525284Y-173686561D01*
X92524000Y-173773807D01*
X92530461Y-173908499D01*
X92547319Y-173999752D01*
X92566334Y-174026333D01*
X92608466Y-173992591D01*
X92612887Y-173973417D01*
X92623010Y-173948674D01*
X92640204Y-173987423D01*
X92659845Y-174069302D01*
X92677307Y-174173947D01*
X92687968Y-174280996D01*
X92689114Y-174309060D01*
X92706971Y-174437628D01*
X92746192Y-174535743D01*
X92758596Y-174551215D01*
X92848686Y-174675548D01*
X92883300Y-174822805D01*
X92864037Y-175009460D01*
X92819018Y-175173425D01*
X92723539Y-175470367D01*
X92819769Y-175537770D01*
X92916000Y-175605172D01*
X92815250Y-175686714D01*
X92752538Y-175752324D01*
X92765140Y-175788731D01*
X92768308Y-175790119D01*
X92818958Y-175838059D01*
X92880752Y-175927122D01*
X92930894Y-176020865D01*
X92947334Y-176076350D01*
X92913714Y-176079870D01*
X92842999Y-176058903D01*
X92749268Y-176039366D01*
X92719025Y-176075134D01*
X92752831Y-176164873D01*
X92780132Y-176209141D01*
X92829236Y-176319023D01*
X92857053Y-176450204D01*
X92860767Y-176572628D01*
X92837566Y-176656242D01*
X92823312Y-176670326D01*
X92785424Y-176651317D01*
X92740966Y-176573654D01*
X92730956Y-176548079D01*
X92681696Y-176447877D01*
X92640908Y-176430315D01*
X92614831Y-176493393D01*
X92608667Y-176587243D01*
X92569227Y-176826666D01*
X92450669Y-177036040D01*
X92407554Y-177084917D01*
X92312905Y-177173770D01*
X92265575Y-177195275D01*
X92268540Y-177150772D01*
X92321958Y-177046362D01*
X92378418Y-176921623D01*
X92407583Y-176771680D01*
X92415780Y-176595392D01*
X92409183Y-176411917D01*
X92386101Y-176310176D01*
X92347025Y-176290618D01*
X92292446Y-176353694D01*
X92247990Y-176441206D01*
X92154797Y-176600960D01*
X92030438Y-176715801D01*
X91853961Y-176801886D01*
X91727252Y-176842785D01*
X91597731Y-176889313D01*
X91417033Y-176966690D01*
X91207966Y-177064606D01*
X90993340Y-177172747D01*
X90968690Y-177185713D01*
X90656459Y-177345644D01*
X90400200Y-177464004D01*
X90185238Y-177545888D01*
X89996901Y-177596391D01*
X89820515Y-177620608D01*
X89704567Y-177624667D01*
X89704567Y-177695729D01*
X89828984Y-177696668D01*
X90013216Y-177681059D01*
X90064972Y-177671747D01*
X90192484Y-177633027D01*
X90370063Y-177564050D01*
X90573332Y-177474884D01*
X90760798Y-177384326D01*
X91025019Y-177250506D01*
X91226392Y-177149365D01*
X91377498Y-177075126D01*
X91490916Y-177022012D01*
X91579228Y-176984245D01*
X91655014Y-176956049D01*
X91730855Y-176931645D01*
X91776251Y-176918013D01*
X91995880Y-176836928D01*
X92151584Y-176738134D01*
X92264005Y-176608049D01*
X92275799Y-176589312D01*
X92354351Y-176460500D01*
X92353579Y-176608667D01*
X92322972Y-176789099D01*
X92240541Y-176998027D01*
X92117921Y-177207895D01*
X92076425Y-177265102D01*
X92013539Y-177363765D01*
X92013788Y-177409412D01*
X92074207Y-177401931D01*
X92191828Y-177341210D01*
X92297128Y-177273426D01*
X92501067Y-177089869D01*
X92608581Y-176924176D01*
X92714329Y-176714500D01*
X92738717Y-176862667D01*
X92763104Y-177010833D01*
X92858973Y-176799167D01*
X92925950Y-176606079D01*
X92939023Y-176423656D01*
X92936506Y-176390272D01*
X92930514Y-176269201D01*
X92944457Y-176216525D01*
X92975085Y-176214885D01*
X93019977Y-176202848D01*
X93030111Y-176128944D01*
X93005894Y-176008321D01*
X92966586Y-175899056D01*
X92927846Y-175795149D01*
X92926174Y-175738035D01*
X92961572Y-175698386D01*
X92966586Y-175694665D01*
X93018870Y-175633601D01*
X93030450Y-175574762D01*
X92997758Y-175550333D01*
G36*
X89669947Y-174889809D02*
G01*
X89663710Y-174887238D01*
X89587531Y-174900219D01*
X89479913Y-174976764D01*
X89452044Y-175002705D01*
X89346210Y-175124793D01*
X89310387Y-175226032D01*
X89339029Y-175323778D01*
X89345859Y-175335034D01*
X89366357Y-175417248D01*
X89362176Y-175527876D01*
X89369520Y-175638506D01*
X89416327Y-175747933D01*
X89487916Y-175841928D01*
X89569605Y-175906262D01*
X89646715Y-175926706D01*
X89704564Y-175889031D01*
X89714214Y-175869078D01*
X89706391Y-175796023D01*
X89655258Y-175701752D01*
X89648737Y-175693211D01*
X89592080Y-175610844D01*
X89588560Y-175556874D01*
X89623519Y-175508717D01*
X89682536Y-175405085D01*
X89658327Y-175313262D01*
X89613584Y-175269222D01*
X89566913Y-175223701D01*
X89578870Y-175182346D01*
X89634750Y-175130770D01*
X89711557Y-175036166D01*
X89724077Y-174949214D01*
X89669947Y-174889809D01*
G37*
X89669947Y-174889809D02*
X89663710Y-174887238D01*
X89587531Y-174900219D01*
X89479913Y-174976764D01*
X89452044Y-175002705D01*
X89346210Y-175124793D01*
X89310387Y-175226032D01*
X89339029Y-175323778D01*
X89345859Y-175335034D01*
X89366357Y-175417248D01*
X89362176Y-175527876D01*
X89369520Y-175638506D01*
X89416327Y-175747933D01*
X89487916Y-175841928D01*
X89569605Y-175906262D01*
X89646715Y-175926706D01*
X89704564Y-175889031D01*
X89714214Y-175869078D01*
X89706391Y-175796023D01*
X89655258Y-175701752D01*
X89648737Y-175693211D01*
X89592080Y-175610844D01*
X89588560Y-175556874D01*
X89623519Y-175508717D01*
X89682536Y-175405085D01*
X89658327Y-175313262D01*
X89613584Y-175269222D01*
X89566913Y-175223701D01*
X89578870Y-175182346D01*
X89634750Y-175130770D01*
X89711557Y-175036166D01*
X89724077Y-174949214D01*
X89669947Y-174889809D01*
G36*
X90373112Y-176221604D02*
G01*
X90286719Y-176243922D01*
X90238431Y-176262561D01*
X90135252Y-176312621D01*
X90075243Y-176354739D01*
X90069098Y-176365818D01*
X90102916Y-176371834D01*
X90187899Y-176347511D01*
X90222004Y-176334068D01*
X90323303Y-176293282D01*
X90385176Y-176271257D01*
X90391337Y-176270000D01*
X90407092Y-176237597D01*
X90407334Y-176230811D01*
X90373112Y-176221604D01*
G37*
X90373112Y-176221604D02*
X90286719Y-176243922D01*
X90238431Y-176262561D01*
X90135252Y-176312621D01*
X90075243Y-176354739D01*
X90069098Y-176365818D01*
X90102916Y-176371834D01*
X90187899Y-176347511D01*
X90222004Y-176334068D01*
X90323303Y-176293282D01*
X90385176Y-176271257D01*
X90391337Y-176270000D01*
X90407092Y-176237597D01*
X90407334Y-176230811D01*
X90373112Y-176221604D01*
G36*
X90351394Y-176115282D02*
G01*
X90302252Y-176115806D01*
X90244409Y-176139570D01*
X90155929Y-176179299D01*
X90123592Y-176178490D01*
X90156566Y-176139370D01*
X90176993Y-176123180D01*
X90230474Y-176072785D01*
X90210045Y-176061235D01*
X90135630Y-176084029D01*
X90080544Y-176118455D01*
X90082228Y-176177984D01*
X90096494Y-176216455D01*
X90130540Y-176243718D01*
X90204913Y-176222515D01*
X90245253Y-176202750D01*
X90324719Y-176153337D01*
X90353039Y-176118281D01*
X90351394Y-176115282D01*
G37*
X90351394Y-176115282D02*
X90302252Y-176115806D01*
X90244409Y-176139570D01*
X90155929Y-176179299D01*
X90123592Y-176178490D01*
X90156566Y-176139370D01*
X90176993Y-176123180D01*
X90230474Y-176072785D01*
X90210045Y-176061235D01*
X90135630Y-176084029D01*
X90080544Y-176118455D01*
X90082228Y-176177984D01*
X90096494Y-176216455D01*
X90130540Y-176243718D01*
X90204913Y-176222515D01*
X90245253Y-176202750D01*
X90324719Y-176153337D01*
X90353039Y-176118281D01*
X90351394Y-176115282D01*
G36*
X90340589Y-176493897D02*
G01*
X90254293Y-176525080D01*
X90171276Y-176574093D01*
X90126436Y-176623662D01*
X90125112Y-176631515D01*
X90141539Y-176686852D01*
X90154680Y-176693333D01*
X90205039Y-176670723D01*
X90279890Y-176617685D01*
X90351932Y-176556407D01*
X90393862Y-176509078D01*
X90395261Y-176497816D01*
X90340589Y-176493897D01*
G37*
X90340589Y-176493897D02*
X90254293Y-176525080D01*
X90171276Y-176574093D01*
X90126436Y-176623662D01*
X90125112Y-176631515D01*
X90141539Y-176686852D01*
X90154680Y-176693333D01*
X90205039Y-176670723D01*
X90279890Y-176617685D01*
X90351932Y-176556407D01*
X90393862Y-176509078D01*
X90395261Y-176497816D01*
X90340589Y-176493897D01*
G36*
X90335869Y-176359540D02*
G01*
X90269073Y-176380762D01*
X90195667Y-176418167D01*
X90135182Y-176462260D01*
X90151717Y-176479996D01*
X90155826Y-176480167D01*
X90240146Y-176457081D01*
X90303993Y-176419513D01*
X90351997Y-176372513D01*
X90335869Y-176359540D01*
G37*
X90335869Y-176359540D02*
X90269073Y-176380762D01*
X90195667Y-176418167D01*
X90135182Y-176462260D01*
X90151717Y-176479996D01*
X90155826Y-176480167D01*
X90240146Y-176457081D01*
X90303993Y-176419513D01*
X90351997Y-176372513D01*
X90335869Y-176359540D01*
G36*
X90216429Y-174716313D02*
G01*
X90148258Y-174747234D01*
X90111217Y-174791209D01*
X90111000Y-174794352D01*
X90141676Y-174807658D01*
X90199293Y-174786393D01*
X90260000Y-174743684D01*
X90268852Y-174720407D01*
X90216429Y-174716313D01*
G37*
X90216429Y-174716313D02*
X90148258Y-174747234D01*
X90111217Y-174791209D01*
X90111000Y-174794352D01*
X90141676Y-174807658D01*
X90199293Y-174786393D01*
X90260000Y-174743684D01*
X90268852Y-174720407D01*
X90216429Y-174716313D01*
G36*
X90396403Y-174460911D02*
G01*
X90314899Y-174513137D01*
X90259167Y-174557655D01*
X90132167Y-174665222D01*
X90267066Y-174600079D01*
X90365165Y-174544800D01*
X90425389Y-174496413D01*
X90428314Y-174492301D01*
X90438562Y-174452284D01*
X90396403Y-174460911D01*
G37*
X90396403Y-174460911D02*
X90314899Y-174513137D01*
X90259167Y-174557655D01*
X90132167Y-174665222D01*
X90267066Y-174600079D01*
X90365165Y-174544800D01*
X90425389Y-174496413D01*
X90428314Y-174492301D01*
X90438562Y-174452284D01*
X90396403Y-174460911D01*
G36*
X90392844Y-174324075D02*
G01*
X90337714Y-174346985D01*
X90253382Y-174404339D01*
X90249552Y-174407333D01*
X90188819Y-174463882D01*
X90181091Y-174491469D01*
X90185268Y-174492000D01*
X90236569Y-174472164D01*
X90305837Y-174425881D01*
X90368547Y-174372994D01*
X90400174Y-174333341D01*
X90392844Y-174324075D01*
G37*
X90392844Y-174324075D02*
X90337714Y-174346985D01*
X90253382Y-174404339D01*
X90249552Y-174407333D01*
X90188819Y-174463882D01*
X90181091Y-174491469D01*
X90185268Y-174492000D01*
X90236569Y-174472164D01*
X90305837Y-174425881D01*
X90368547Y-174372994D01*
X90400174Y-174333341D01*
X90392844Y-174324075D01*
G36*
X90422442Y-174111287D02*
G01*
X90416417Y-174111000D01*
X90358981Y-174137221D01*
X90276784Y-174199038D01*
X90199177Y-174271186D01*
X90155509Y-174328397D01*
X90153334Y-174337481D01*
X90182998Y-174337772D01*
X90256537Y-174296740D01*
X90279054Y-174281245D01*
X90386400Y-174196021D01*
X90436562Y-174136436D01*
X90422442Y-174111287D01*
G37*
X90422442Y-174111287D02*
X90416417Y-174111000D01*
X90358981Y-174137221D01*
X90276784Y-174199038D01*
X90199177Y-174271186D01*
X90155509Y-174328397D01*
X90153334Y-174337481D01*
X90182998Y-174337772D01*
X90256537Y-174296740D01*
X90279054Y-174281245D01*
X90386400Y-174196021D01*
X90436562Y-174136436D01*
X90422442Y-174111287D01*
G36*
X90408214Y-173991916D02*
G01*
X90347019Y-174004016D01*
X90261024Y-174051127D01*
X90184913Y-174110571D01*
X90153334Y-174158591D01*
X90184107Y-174161643D01*
X90261474Y-174124508D01*
X90299799Y-174100806D01*
X90381217Y-174039674D01*
X90413045Y-173998848D01*
X90408214Y-173991916D01*
G37*
X90408214Y-173991916D02*
X90347019Y-174004016D01*
X90261024Y-174051127D01*
X90184913Y-174110571D01*
X90153334Y-174158591D01*
X90184107Y-174161643D01*
X90261474Y-174124508D01*
X90299799Y-174100806D01*
X90381217Y-174039674D01*
X90413045Y-173998848D01*
X90408214Y-173991916D01*
G36*
X90288978Y-175550918D02*
G01*
X90259167Y-175535025D01*
X90204553Y-175541529D01*
X90195667Y-175572829D01*
X90229583Y-175627794D01*
X90259167Y-175635000D01*
X90315538Y-175614547D01*
X90322667Y-175597196D01*
X90288978Y-175550918D01*
G37*
X90288978Y-175550918D02*
X90259167Y-175535025D01*
X90204553Y-175541529D01*
X90195667Y-175572829D01*
X90229583Y-175627794D01*
X90259167Y-175635000D01*
X90315538Y-175614547D01*
X90322667Y-175597196D01*
X90288978Y-175550918D01*
G36*
X90306945Y-175179166D02*
G01*
X90273793Y-175178549D01*
X90217594Y-175231980D01*
X90202208Y-175272967D01*
X90211390Y-175328834D01*
X90244541Y-175329451D01*
X90300741Y-175276020D01*
X90316127Y-175235033D01*
X90306945Y-175179166D01*
G37*
X90306945Y-175179166D02*
X90273793Y-175178549D01*
X90217594Y-175231980D01*
X90202208Y-175272967D01*
X90211390Y-175328834D01*
X90244541Y-175329451D01*
X90300741Y-175276020D01*
X90316127Y-175235033D01*
X90306945Y-175179166D01*
G36*
X91310455Y-175526072D02*
G01*
X91249613Y-175469171D01*
X91143443Y-175465331D01*
X91008702Y-175510048D01*
X90862149Y-175598816D01*
X90777750Y-175669260D01*
X90682700Y-175796845D01*
X90671781Y-175927677D01*
X90744513Y-176067978D01*
X90746662Y-176070727D01*
X90864494Y-176174270D01*
X91007931Y-176236594D01*
X91146945Y-176247632D01*
X91212878Y-176227019D01*
X91276998Y-176164268D01*
X91278451Y-176115125D01*
X91256797Y-176049188D01*
X91254000Y-176033704D01*
X91217204Y-176021147D01*
X91130024Y-176016000D01*
X91014645Y-175994481D01*
X90930785Y-175941257D01*
X90897613Y-175873326D01*
X90915276Y-175825570D01*
X90984402Y-175772932D01*
X91090229Y-175719713D01*
X91096654Y-175717126D01*
X91236782Y-175652991D01*
X91305439Y-175596245D01*
X91313987Y-175536737D01*
X91310455Y-175526072D01*
G37*
X91310455Y-175526072D02*
X91249613Y-175469171D01*
X91143443Y-175465331D01*
X91008702Y-175510048D01*
X90862149Y-175598816D01*
X90777750Y-175669260D01*
X90682700Y-175796845D01*
X90671781Y-175927677D01*
X90744513Y-176067978D01*
X90746662Y-176070727D01*
X90864494Y-176174270D01*
X91007931Y-176236594D01*
X91146945Y-176247632D01*
X91212878Y-176227019D01*
X91276998Y-176164268D01*
X91278451Y-176115125D01*
X91256797Y-176049188D01*
X91254000Y-176033704D01*
X91217204Y-176021147D01*
X91130024Y-176016000D01*
X91014645Y-175994481D01*
X90930785Y-175941257D01*
X90897613Y-175873326D01*
X90915276Y-175825570D01*
X90984402Y-175772932D01*
X91090229Y-175719713D01*
X91096654Y-175717126D01*
X91236782Y-175652991D01*
X91305439Y-175596245D01*
X91313987Y-175536737D01*
X91310455Y-175526072D01*
G36*
X91279067Y-174348385D02*
G01*
X91212765Y-174325487D01*
X91143187Y-174322667D01*
X91031343Y-174337723D01*
X90929544Y-174393466D01*
X90825687Y-174487020D01*
X90703539Y-174640798D01*
X90663639Y-174776084D01*
X90705817Y-174893781D01*
X90742715Y-174933527D01*
X90844032Y-174989465D01*
X90980148Y-175023863D01*
X91114067Y-175030948D01*
X91207253Y-175006010D01*
X91248974Y-174943651D01*
X91224323Y-174879404D01*
X91147824Y-174836365D01*
X91096579Y-174830019D01*
X90990219Y-174818177D01*
X90926569Y-174796173D01*
X90901959Y-174742531D01*
X90939094Y-174669902D01*
X91023257Y-174595667D01*
X91139736Y-174537204D01*
X91148298Y-174534290D01*
X91261532Y-174476248D01*
X91296334Y-174404050D01*
X91279067Y-174348385D01*
G37*
X91279067Y-174348385D02*
X91212765Y-174325487D01*
X91143187Y-174322667D01*
X91031343Y-174337723D01*
X90929544Y-174393466D01*
X90825687Y-174487020D01*
X90703539Y-174640798D01*
X90663639Y-174776084D01*
X90705817Y-174893781D01*
X90742715Y-174933527D01*
X90844032Y-174989465D01*
X90980148Y-175023863D01*
X91114067Y-175030948D01*
X91207253Y-175006010D01*
X91248974Y-174943651D01*
X91224323Y-174879404D01*
X91147824Y-174836365D01*
X91096579Y-174830019D01*
X90990219Y-174818177D01*
X90926569Y-174796173D01*
X90901959Y-174742531D01*
X90939094Y-174669902D01*
X91023257Y-174595667D01*
X91139736Y-174537204D01*
X91148298Y-174534290D01*
X91261532Y-174476248D01*
X91296334Y-174404050D01*
X91279067Y-174348385D01*
G36*
X91872686Y-174849579D02*
G01*
X91799942Y-174703909D01*
X91783167Y-174678473D01*
X91697393Y-174496217D01*
X91677334Y-174362555D01*
X91665797Y-174197241D01*
X91627971Y-174103050D01*
X91559033Y-174069205D01*
X91545805Y-174068667D01*
X91501635Y-174078860D01*
X91477353Y-174121943D01*
X91467291Y-174216671D01*
X91465667Y-174333815D01*
X91472170Y-174497115D01*
X91500291Y-174618658D01*
X91562955Y-174740730D01*
X91614017Y-174819250D01*
X91717662Y-174955392D01*
X91794096Y-175014647D01*
X91825683Y-175015239D01*
X91881559Y-174955675D01*
X91872686Y-174849579D01*
G37*
X91872686Y-174849579D02*
X91799942Y-174703909D01*
X91783167Y-174678473D01*
X91697393Y-174496217D01*
X91677334Y-174362555D01*
X91665797Y-174197241D01*
X91627971Y-174103050D01*
X91559033Y-174069205D01*
X91545805Y-174068667D01*
X91501635Y-174078860D01*
X91477353Y-174121943D01*
X91467291Y-174216671D01*
X91465667Y-174333815D01*
X91472170Y-174497115D01*
X91500291Y-174618658D01*
X91562955Y-174740730D01*
X91614017Y-174819250D01*
X91717662Y-174955392D01*
X91794096Y-175014647D01*
X91825683Y-175015239D01*
X91881559Y-174955675D01*
X91872686Y-174849579D01*
G36*
X91980330Y-175286369D02*
G01*
X91976996Y-175282729D01*
X91910584Y-175257113D01*
X91856085Y-175280228D01*
X91799289Y-175347591D01*
X91736983Y-175470832D01*
X91675619Y-175628801D01*
X91621646Y-175800349D01*
X91581516Y-175964328D01*
X91561678Y-176099588D01*
X91568582Y-176184979D01*
X91576393Y-176197281D01*
X91641129Y-176223854D01*
X91680668Y-176227667D01*
X91735258Y-176200947D01*
X91771471Y-176110974D01*
X91783724Y-176047750D01*
X91815586Y-175910659D01*
X91868594Y-175737956D01*
X91918939Y-175599278D01*
X91975817Y-175440430D01*
X91995363Y-175341134D01*
X91980330Y-175286369D01*
G37*
X91980330Y-175286369D02*
X91976996Y-175282729D01*
X91910584Y-175257113D01*
X91856085Y-175280228D01*
X91799289Y-175347591D01*
X91736983Y-175470832D01*
X91675619Y-175628801D01*
X91621646Y-175800349D01*
X91581516Y-175964328D01*
X91561678Y-176099588D01*
X91568582Y-176184979D01*
X91576393Y-176197281D01*
X91641129Y-176223854D01*
X91680668Y-176227667D01*
X91735258Y-176200947D01*
X91771471Y-176110974D01*
X91783724Y-176047750D01*
X91815586Y-175910659D01*
X91868594Y-175737956D01*
X91918939Y-175599278D01*
X91975817Y-175440430D01*
X91995363Y-175341134D01*
X91980330Y-175286369D01*
D13*
X102873000Y-178873000D02*
X98127000Y-178873000D01*
X98127000Y-170127000D01*
X102873000Y-170127000D01*
X102873000Y-178873000D01*
D14*
G36*
X102873000Y-178873000D02*
G01*
X98127000Y-178873000D01*
X98127000Y-170127000D01*
X102873000Y-170127000D01*
X102873000Y-178873000D01*
G37*
D13*
X83573000Y-85459348D02*
X76927000Y-85459348D01*
X76927000Y-80713348D01*
X83573000Y-80713348D01*
X83573000Y-85459348D01*
D14*
G36*
X83573000Y-85459348D02*
G01*
X76927000Y-85459348D01*
X76927000Y-80713348D01*
X83573000Y-80713348D01*
X83573000Y-85459348D01*
G37*
M02*
