M48
; DRILL file {KiCad (5.1.5)-2} date 17/06/2020 11:39:28
; FORMAT={-:-/ absolute / inch / decimal}
; #@! TF.CreationDate,2020-06-17T11:39:28+12:00
; #@! TF.GenerationSoftware,Kicad,Pcbnew,(5.1.5)-2
; #@! TF.FileFunction,NonPlated,1,2,NPTH
FMAT,2
INCH
T1C0.0315
T2C0.0787
%
G90
G05
T1
X2.7382Y-3.4965
X2.7382Y-3.554
X2.7382Y-3.6114
X2.7382Y-3.6688
X3.2564Y-4.3209
X3.3138Y-4.3209
X3.3712Y-4.3209
X3.4287Y-4.3209
X2.7382Y-6.3706
X2.7382Y-6.428
X2.7382Y-6.4854
X2.7382Y-6.5428
X2.876Y-4.9926
X2.876Y-5.05
X2.876Y-5.1075
X2.876Y-5.1649
X4.28Y-4.3209
X4.3374Y-4.3209
X4.3949Y-4.3209
X4.4523Y-4.3209
X2.7382Y-4.9926
X2.7382Y-5.05
X2.7382Y-5.1075
X2.7382Y-5.1649
X2.1934Y-4.4587
X2.2508Y-4.4587
X2.3082Y-4.4587
X2.3657Y-4.4587
X1.1698Y-4.4587
X1.2272Y-4.4587
X1.2846Y-4.4587
X1.342Y-4.4587
X2.876Y-2.1186
X2.876Y-2.176
X2.876Y-2.2334
X2.876Y-2.2909
X4.28Y-4.4587
X4.3374Y-4.4587
X4.3949Y-4.4587
X4.4523Y-4.4587
X1.1698Y-4.3209
X1.2272Y-4.3209
X1.2846Y-4.3209
X1.342Y-4.3209
X2.876Y-3.4965
X2.876Y-3.554
X2.876Y-3.6114
X2.876Y-3.6688
X2.1934Y-4.3209
X2.2508Y-4.3209
X2.3082Y-4.3209
X2.3657Y-4.3209
X3.2564Y-4.4587
X3.3138Y-4.4587
X3.3712Y-4.4587
X3.4287Y-4.4587
X2.7382Y-2.1186
X2.7382Y-2.176
X2.7382Y-2.2334
X2.7382Y-2.2909
X2.876Y-6.3706
X2.876Y-6.428
X2.876Y-6.4854
X2.876Y-6.5428
T2
X4.7894Y-6.2736
X4.7894Y-6.6083
X2.7028Y-3.9122
X2.7028Y-4.2469
X2.7028Y-3.3996
X2.7028Y-3.7343
X4.7894Y-6.7862
X4.7894Y-7.1209
X2.7028Y-6.7862
X2.7028Y-7.1209
X4.7894Y-3.9122
X4.7894Y-4.2469
X2.7028Y-6.2736
X2.7028Y-6.6083
X4.7894Y-3.3996
X4.7894Y-3.7343
T0
M30
