%TF.GenerationSoftware,KiCad,Pcbnew,(5.1.5)-2*%
%TF.CreationDate,2020-06-17T11:39:24+12:00*%
%TF.ProjectId,output.RGB-to-component-panel,6f757470-7574-42e5-9247-422d746f2d63,rev?*%
%TF.SameCoordinates,Original*%
%TF.FileFunction,Profile,NP*%
%FSLAX46Y46*%
G04 Gerber Fmt 4.6, Leading zero omitted, Abs format (unit mm)*
G04 Created by KiCad (PCBNEW (5.1.5)-2) date 2020-06-17 11:39:24*
%MOMM*%
%LPD*%
G04 APERTURE LIST*
%ADD10C,0.050000*%
%ADD11C,0.100000*%
G04 APERTURE END LIST*
D10*
X19800000Y-110000000D02*
X19800000Y-40000000D01*
X19800000Y-40000000D02*
X69800000Y-40000000D01*
X122800000Y-40000000D02*
X122800000Y-110000000D01*
X72800000Y-40000000D02*
X122800000Y-40000000D01*
X19800000Y-183000000D02*
X19800000Y-113000000D01*
X69800000Y-183000000D02*
X19800000Y-183000000D01*
X122800000Y-183000000D02*
X72800000Y-183000000D01*
X122800000Y-113000000D02*
X122800000Y-183000000D01*
D11*
X69800000Y-166500020D02*
X69800000Y-183000000D01*
X72800000Y-166500020D02*
X72800000Y-183000000D01*
X72800000Y-166500020D02*
X72792313Y-166400316D01*
X69800000Y-166500020D02*
X69807687Y-166400316D01*
X72792313Y-166400316D02*
X72776985Y-166301498D01*
X69807687Y-166400316D02*
X69823015Y-166301498D01*
X72776985Y-166301498D02*
X72754107Y-166204151D01*
X69823015Y-166301498D02*
X69845893Y-166204151D01*
X72754107Y-166204151D02*
X72723814Y-166108851D01*
X69845893Y-166204151D02*
X69876186Y-166108851D01*
X72723814Y-166108851D02*
X72686285Y-166016161D01*
X69876186Y-166108851D02*
X69913715Y-166016161D01*
X72686285Y-166016161D02*
X72641742Y-165926630D01*
X69913715Y-166016161D02*
X69958258Y-165926630D01*
X72641742Y-165926630D02*
X72590449Y-165840788D01*
X69958258Y-165926630D02*
X70009551Y-165840788D01*
X72590449Y-165840788D02*
X72532709Y-165759143D01*
X70009551Y-165840788D02*
X70067291Y-165759143D01*
X72532709Y-165759143D02*
X72468864Y-165682178D01*
X70067291Y-165759143D02*
X70131136Y-165682178D01*
X72468864Y-165682178D02*
X72399292Y-165610348D01*
X70131136Y-165682178D02*
X70200708Y-165610348D01*
X72399292Y-165610348D02*
X72324405Y-165544078D01*
X70200708Y-165610348D02*
X70275595Y-165544078D01*
X72324405Y-165544078D02*
X72244646Y-165483760D01*
X70275595Y-165544078D02*
X70355354Y-165483760D01*
X72244646Y-165483760D02*
X72160487Y-165429751D01*
X70355354Y-165483760D02*
X70439513Y-165429751D01*
X72160487Y-165429751D02*
X72072426Y-165382371D01*
X70439513Y-165429751D02*
X70527574Y-165382371D01*
X72072426Y-165382371D02*
X71980984Y-165341900D01*
X70527574Y-165382371D02*
X70619016Y-165341900D01*
X71980984Y-165341900D02*
X71886702Y-165308578D01*
X70619016Y-165341900D02*
X70713298Y-165308578D01*
X71886702Y-165308578D02*
X71790138Y-165282602D01*
X70713298Y-165308578D02*
X70809862Y-165282602D01*
X71790138Y-165282602D02*
X71691863Y-165264125D01*
X70809862Y-165282602D02*
X70908137Y-165264125D01*
X71691863Y-165264125D02*
X71592458Y-165253257D01*
X70908137Y-165264125D02*
X71007542Y-165253257D01*
X71592458Y-165253257D02*
X71492512Y-165250062D01*
X71007542Y-165253257D02*
X71107488Y-165250062D01*
X71107488Y-165250062D02*
X71492512Y-165250062D01*
X72800000Y-161499980D02*
X72792313Y-161599684D01*
X69800000Y-161499980D02*
X69807687Y-161599684D01*
X72792313Y-161599684D02*
X72776985Y-161698502D01*
X69807687Y-161599684D02*
X69823015Y-161698502D01*
X72776985Y-161698502D02*
X72754107Y-161795849D01*
X69823015Y-161698502D02*
X69845893Y-161795849D01*
X72754107Y-161795849D02*
X72723814Y-161891149D01*
X69845893Y-161795849D02*
X69876186Y-161891149D01*
X72723814Y-161891149D02*
X72686285Y-161983839D01*
X69876186Y-161891149D02*
X69913715Y-161983839D01*
X72686285Y-161983839D02*
X72641742Y-162073370D01*
X69913715Y-161983839D02*
X69958258Y-162073370D01*
X72641742Y-162073370D02*
X72590449Y-162159212D01*
X69958258Y-162073370D02*
X70009551Y-162159212D01*
X72590449Y-162159212D02*
X72532709Y-162240857D01*
X70009551Y-162159212D02*
X70067291Y-162240857D01*
X72532709Y-162240857D02*
X72468864Y-162317822D01*
X70067291Y-162240857D02*
X70131136Y-162317822D01*
X72468864Y-162317822D02*
X72399292Y-162389652D01*
X70131136Y-162317822D02*
X70200708Y-162389652D01*
X72399292Y-162389652D02*
X72324405Y-162455922D01*
X70200708Y-162389652D02*
X70275595Y-162455922D01*
X72324405Y-162455922D02*
X72244646Y-162516240D01*
X70275595Y-162455922D02*
X70355354Y-162516240D01*
X72244646Y-162516240D02*
X72160487Y-162570249D01*
X70355354Y-162516240D02*
X70439513Y-162570249D01*
X72160487Y-162570249D02*
X72072426Y-162617629D01*
X70439513Y-162570249D02*
X70527574Y-162617629D01*
X72072426Y-162617629D02*
X71980984Y-162658100D01*
X70527574Y-162617629D02*
X70619016Y-162658100D01*
X71980984Y-162658100D02*
X71886702Y-162691422D01*
X70619016Y-162658100D02*
X70713298Y-162691422D01*
X71886702Y-162691422D02*
X71790138Y-162717398D01*
X70713298Y-162691422D02*
X70809862Y-162717398D01*
X71790138Y-162717398D02*
X71691863Y-162735875D01*
X70809862Y-162717398D02*
X70908137Y-162735875D01*
X71691863Y-162735875D02*
X71592458Y-162746743D01*
X70908137Y-162735875D02*
X71007542Y-162746743D01*
X71592458Y-162746743D02*
X71492512Y-162749938D01*
X71007542Y-162746743D02*
X71107488Y-162749938D01*
X71107488Y-162749938D02*
X71492512Y-162749938D01*
X29399987Y-110000000D02*
X19800000Y-110000000D01*
X29399987Y-113000000D02*
X19800000Y-113000000D01*
X29399987Y-113000000D02*
X29499691Y-112992313D01*
X29399987Y-110000000D02*
X29499691Y-110007687D01*
X29499691Y-112992313D02*
X29598509Y-112976985D01*
X29499691Y-110007687D02*
X29598509Y-110023015D01*
X29598509Y-112976985D02*
X29695856Y-112954107D01*
X29598509Y-110023015D02*
X29695856Y-110045893D01*
X29695856Y-112954107D02*
X29791156Y-112923814D01*
X29695856Y-110045893D02*
X29791156Y-110076186D01*
X29791156Y-112923814D02*
X29883846Y-112886285D01*
X29791156Y-110076186D02*
X29883846Y-110113715D01*
X29883846Y-112886285D02*
X29973377Y-112841742D01*
X29883846Y-110113715D02*
X29973377Y-110158258D01*
X29973377Y-112841742D02*
X30059219Y-112790449D01*
X29973377Y-110158258D02*
X30059219Y-110209551D01*
X30059219Y-112790449D02*
X30140864Y-112732709D01*
X30059219Y-110209551D02*
X30140864Y-110267291D01*
X30140864Y-112732709D02*
X30217829Y-112668864D01*
X30140864Y-110267291D02*
X30217829Y-110331136D01*
X30217829Y-112668864D02*
X30289659Y-112599292D01*
X30217829Y-110331136D02*
X30289659Y-110400708D01*
X30289659Y-112599292D02*
X30355929Y-112524405D01*
X30289659Y-110400708D02*
X30355929Y-110475595D01*
X30355929Y-112524405D02*
X30416247Y-112444646D01*
X30355929Y-110475595D02*
X30416247Y-110555354D01*
X30416247Y-112444646D02*
X30470256Y-112360487D01*
X30416247Y-110555354D02*
X30470256Y-110639513D01*
X30470256Y-112360487D02*
X30517636Y-112272426D01*
X30470256Y-110639513D02*
X30517636Y-110727574D01*
X30517636Y-112272426D02*
X30558107Y-112180984D01*
X30517636Y-110727574D02*
X30558107Y-110819016D01*
X30558107Y-112180984D02*
X30591429Y-112086702D01*
X30558107Y-110819016D02*
X30591429Y-110913298D01*
X30591429Y-112086702D02*
X30617405Y-111990138D01*
X30591429Y-110913298D02*
X30617405Y-111009862D01*
X30617405Y-111990138D02*
X30635882Y-111891863D01*
X30617405Y-111009862D02*
X30635882Y-111108137D01*
X30635882Y-111891863D02*
X30646750Y-111792458D01*
X30635882Y-111108137D02*
X30646750Y-111207542D01*
X30646750Y-111792458D02*
X30649945Y-111692512D01*
X30646750Y-111207542D02*
X30649945Y-111307488D01*
X30649945Y-111307488D02*
X30649945Y-111692512D01*
X34399980Y-113000000D02*
X34300276Y-112992313D01*
X34399980Y-110000000D02*
X34300276Y-110007687D01*
X34300276Y-112992313D02*
X34201458Y-112976985D01*
X34300276Y-110007687D02*
X34201458Y-110023015D01*
X34201458Y-112976985D02*
X34104111Y-112954107D01*
X34201458Y-110023015D02*
X34104111Y-110045893D01*
X34104111Y-112954107D02*
X34008811Y-112923814D01*
X34104111Y-110045893D02*
X34008811Y-110076186D01*
X34008811Y-112923814D02*
X33916121Y-112886285D01*
X34008811Y-110076186D02*
X33916121Y-110113715D01*
X33916121Y-112886285D02*
X33826590Y-112841742D01*
X33916121Y-110113715D02*
X33826590Y-110158258D01*
X33826590Y-112841742D02*
X33740748Y-112790449D01*
X33826590Y-110158258D02*
X33740748Y-110209551D01*
X33740748Y-112790449D02*
X33659103Y-112732709D01*
X33740748Y-110209551D02*
X33659103Y-110267291D01*
X33659103Y-112732709D02*
X33582138Y-112668864D01*
X33659103Y-110267291D02*
X33582138Y-110331136D01*
X33582138Y-112668864D02*
X33510308Y-112599292D01*
X33582138Y-110331136D02*
X33510308Y-110400708D01*
X33510308Y-112599292D02*
X33444038Y-112524405D01*
X33510308Y-110400708D02*
X33444038Y-110475595D01*
X33444038Y-112524405D02*
X33383720Y-112444646D01*
X33444038Y-110475595D02*
X33383720Y-110555354D01*
X33383720Y-112444646D02*
X33329711Y-112360487D01*
X33383720Y-110555354D02*
X33329711Y-110639513D01*
X33329711Y-112360487D02*
X33282331Y-112272426D01*
X33329711Y-110639513D02*
X33282331Y-110727574D01*
X33282331Y-112272426D02*
X33241860Y-112180984D01*
X33282331Y-110727574D02*
X33241860Y-110819016D01*
X33241860Y-112180984D02*
X33208538Y-112086702D01*
X33241860Y-110819016D02*
X33208538Y-110913298D01*
X33208538Y-112086702D02*
X33182562Y-111990138D01*
X33208538Y-110913298D02*
X33182562Y-111009862D01*
X33182562Y-111990138D02*
X33164085Y-111891863D01*
X33182562Y-111009862D02*
X33164085Y-111108137D01*
X33164085Y-111891863D02*
X33153217Y-111792458D01*
X33164085Y-111108137D02*
X33153217Y-111207542D01*
X33153217Y-111792458D02*
X33150022Y-111692512D01*
X33153217Y-111207542D02*
X33150022Y-111307488D01*
X33150022Y-111307488D02*
X33150022Y-111692512D01*
X55400010Y-110000000D02*
X34399980Y-110000000D01*
X60400013Y-110000000D02*
X69800000Y-110000000D01*
X55400010Y-113000000D02*
X34399980Y-113000000D01*
X60400013Y-113000000D02*
X69800000Y-113000000D01*
X55400010Y-113000000D02*
X55499714Y-112992313D01*
X55400010Y-110000000D02*
X55499714Y-110007687D01*
X55499714Y-112992313D02*
X55598532Y-112976985D01*
X55499714Y-110007687D02*
X55598532Y-110023015D01*
X55598532Y-112976985D02*
X55695879Y-112954107D01*
X55598532Y-110023015D02*
X55695879Y-110045893D01*
X55695879Y-112954107D02*
X55791179Y-112923814D01*
X55695879Y-110045893D02*
X55791179Y-110076186D01*
X55791179Y-112923814D02*
X55883869Y-112886285D01*
X55791179Y-110076186D02*
X55883869Y-110113715D01*
X55883869Y-112886285D02*
X55973400Y-112841742D01*
X55883869Y-110113715D02*
X55973400Y-110158258D01*
X55973400Y-112841742D02*
X56059242Y-112790449D01*
X55973400Y-110158258D02*
X56059242Y-110209551D01*
X56059242Y-112790449D02*
X56140887Y-112732709D01*
X56059242Y-110209551D02*
X56140887Y-110267291D01*
X56140887Y-112732709D02*
X56217852Y-112668864D01*
X56140887Y-110267291D02*
X56217852Y-110331136D01*
X56217852Y-112668864D02*
X56289682Y-112599292D01*
X56217852Y-110331136D02*
X56289682Y-110400708D01*
X56289682Y-112599292D02*
X56355952Y-112524405D01*
X56289682Y-110400708D02*
X56355952Y-110475595D01*
X56355952Y-112524405D02*
X56416270Y-112444646D01*
X56355952Y-110475595D02*
X56416270Y-110555354D01*
X56416270Y-112444646D02*
X56470279Y-112360487D01*
X56416270Y-110555354D02*
X56470279Y-110639513D01*
X56470279Y-112360487D02*
X56517659Y-112272426D01*
X56470279Y-110639513D02*
X56517659Y-110727574D01*
X56517659Y-112272426D02*
X56558130Y-112180984D01*
X56517659Y-110727574D02*
X56558130Y-110819016D01*
X56558130Y-112180984D02*
X56591452Y-112086702D01*
X56558130Y-110819016D02*
X56591452Y-110913298D01*
X56591452Y-112086702D02*
X56617428Y-111990138D01*
X56591452Y-110913298D02*
X56617428Y-111009862D01*
X56617428Y-111990138D02*
X56635905Y-111891863D01*
X56617428Y-111009862D02*
X56635905Y-111108137D01*
X56635905Y-111891863D02*
X56646773Y-111792458D01*
X56635905Y-111108137D02*
X56646773Y-111207542D01*
X56646773Y-111792458D02*
X56649968Y-111692512D01*
X56646773Y-111207542D02*
X56649968Y-111307488D01*
X56649968Y-111307488D02*
X56649968Y-111692512D01*
X60400013Y-113000000D02*
X60300309Y-112992313D01*
X60400013Y-110000000D02*
X60300309Y-110007687D01*
X60300309Y-112992313D02*
X60201491Y-112976985D01*
X60300309Y-110007687D02*
X60201491Y-110023015D01*
X60201491Y-112976985D02*
X60104144Y-112954107D01*
X60201491Y-110023015D02*
X60104144Y-110045893D01*
X60104144Y-112954107D02*
X60008844Y-112923814D01*
X60104144Y-110045893D02*
X60008844Y-110076186D01*
X60008844Y-112923814D02*
X59916154Y-112886285D01*
X60008844Y-110076186D02*
X59916154Y-110113715D01*
X59916154Y-112886285D02*
X59826623Y-112841742D01*
X59916154Y-110113715D02*
X59826623Y-110158258D01*
X59826623Y-112841742D02*
X59740781Y-112790449D01*
X59826623Y-110158258D02*
X59740781Y-110209551D01*
X59740781Y-112790449D02*
X59659136Y-112732709D01*
X59740781Y-110209551D02*
X59659136Y-110267291D01*
X59659136Y-112732709D02*
X59582171Y-112668864D01*
X59659136Y-110267291D02*
X59582171Y-110331136D01*
X59582171Y-112668864D02*
X59510341Y-112599292D01*
X59582171Y-110331136D02*
X59510341Y-110400708D01*
X59510341Y-112599292D02*
X59444071Y-112524405D01*
X59510341Y-110400708D02*
X59444071Y-110475595D01*
X59444071Y-112524405D02*
X59383753Y-112444646D01*
X59444071Y-110475595D02*
X59383753Y-110555354D01*
X59383753Y-112444646D02*
X59329744Y-112360487D01*
X59383753Y-110555354D02*
X59329744Y-110639513D01*
X59329744Y-112360487D02*
X59282364Y-112272426D01*
X59329744Y-110639513D02*
X59282364Y-110727574D01*
X59282364Y-112272426D02*
X59241893Y-112180984D01*
X59282364Y-110727574D02*
X59241893Y-110819016D01*
X59241893Y-112180984D02*
X59208571Y-112086702D01*
X59241893Y-110819016D02*
X59208571Y-110913298D01*
X59208571Y-112086702D02*
X59182595Y-111990138D01*
X59208571Y-110913298D02*
X59182595Y-111009862D01*
X59182595Y-111990138D02*
X59164118Y-111891863D01*
X59182595Y-111009862D02*
X59164118Y-111108137D01*
X59164118Y-111891863D02*
X59153250Y-111792458D01*
X59164118Y-111108137D02*
X59153250Y-111207542D01*
X59153250Y-111792458D02*
X59150055Y-111692512D01*
X59153250Y-111207542D02*
X59150055Y-111307488D01*
X59150055Y-111307488D02*
X59150055Y-111692512D01*
X69800000Y-131499980D02*
X69800000Y-161499980D01*
X69800000Y-126500000D02*
X69800000Y-113000000D01*
X72800000Y-131499980D02*
X72800000Y-161499980D01*
X72800000Y-126500000D02*
X72800000Y-113000000D01*
X72800000Y-131499980D02*
X72792313Y-131400276D01*
X69800000Y-131499980D02*
X69807687Y-131400276D01*
X72792313Y-131400276D02*
X72776985Y-131301458D01*
X69807687Y-131400276D02*
X69823015Y-131301458D01*
X72776985Y-131301458D02*
X72754107Y-131204111D01*
X69823015Y-131301458D02*
X69845893Y-131204111D01*
X72754107Y-131204111D02*
X72723814Y-131108811D01*
X69845893Y-131204111D02*
X69876186Y-131108811D01*
X72723814Y-131108811D02*
X72686285Y-131016121D01*
X69876186Y-131108811D02*
X69913715Y-131016121D01*
X72686285Y-131016121D02*
X72641742Y-130926590D01*
X69913715Y-131016121D02*
X69958258Y-130926590D01*
X72641742Y-130926590D02*
X72590449Y-130840748D01*
X69958258Y-130926590D02*
X70009551Y-130840748D01*
X72590449Y-130840748D02*
X72532709Y-130759103D01*
X70009551Y-130840748D02*
X70067291Y-130759103D01*
X72532709Y-130759103D02*
X72468864Y-130682138D01*
X70067291Y-130759103D02*
X70131136Y-130682138D01*
X72468864Y-130682138D02*
X72399292Y-130610308D01*
X70131136Y-130682138D02*
X70200708Y-130610308D01*
X72399292Y-130610308D02*
X72324405Y-130544038D01*
X70200708Y-130610308D02*
X70275595Y-130544038D01*
X72324405Y-130544038D02*
X72244646Y-130483720D01*
X70275595Y-130544038D02*
X70355354Y-130483720D01*
X72244646Y-130483720D02*
X72160487Y-130429711D01*
X70355354Y-130483720D02*
X70439513Y-130429711D01*
X72160487Y-130429711D02*
X72072426Y-130382331D01*
X70439513Y-130429711D02*
X70527574Y-130382331D01*
X72072426Y-130382331D02*
X71980984Y-130341860D01*
X70527574Y-130382331D02*
X70619016Y-130341860D01*
X71980984Y-130341860D02*
X71886702Y-130308538D01*
X70619016Y-130341860D02*
X70713298Y-130308538D01*
X71886702Y-130308538D02*
X71790138Y-130282562D01*
X70713298Y-130308538D02*
X70809862Y-130282562D01*
X71790138Y-130282562D02*
X71691863Y-130264085D01*
X70809862Y-130282562D02*
X70908137Y-130264085D01*
X71691863Y-130264085D02*
X71592458Y-130253217D01*
X70908137Y-130264085D02*
X71007542Y-130253217D01*
X71592458Y-130253217D02*
X71492512Y-130250022D01*
X71007542Y-130253217D02*
X71107488Y-130250022D01*
X71107488Y-130250022D02*
X71492512Y-130250022D01*
X72800000Y-126500000D02*
X72792313Y-126599704D01*
X69800000Y-126500000D02*
X69807687Y-126599704D01*
X72792313Y-126599704D02*
X72776985Y-126698522D01*
X69807687Y-126599704D02*
X69823015Y-126698522D01*
X72776985Y-126698522D02*
X72754107Y-126795869D01*
X69823015Y-126698522D02*
X69845893Y-126795869D01*
X72754107Y-126795869D02*
X72723814Y-126891169D01*
X69845893Y-126795869D02*
X69876186Y-126891169D01*
X72723814Y-126891169D02*
X72686285Y-126983859D01*
X69876186Y-126891169D02*
X69913715Y-126983859D01*
X72686285Y-126983859D02*
X72641742Y-127073390D01*
X69913715Y-126983859D02*
X69958258Y-127073390D01*
X72641742Y-127073390D02*
X72590449Y-127159232D01*
X69958258Y-127073390D02*
X70009551Y-127159232D01*
X72590449Y-127159232D02*
X72532709Y-127240877D01*
X70009551Y-127159232D02*
X70067291Y-127240877D01*
X72532709Y-127240877D02*
X72468864Y-127317842D01*
X70067291Y-127240877D02*
X70131136Y-127317842D01*
X72468864Y-127317842D02*
X72399292Y-127389672D01*
X70131136Y-127317842D02*
X70200708Y-127389672D01*
X72399292Y-127389672D02*
X72324405Y-127455942D01*
X70200708Y-127389672D02*
X70275595Y-127455942D01*
X72324405Y-127455942D02*
X72244646Y-127516260D01*
X70275595Y-127455942D02*
X70355354Y-127516260D01*
X72244646Y-127516260D02*
X72160487Y-127570269D01*
X70355354Y-127516260D02*
X70439513Y-127570269D01*
X72160487Y-127570269D02*
X72072426Y-127617649D01*
X70439513Y-127570269D02*
X70527574Y-127617649D01*
X72072426Y-127617649D02*
X71980984Y-127658120D01*
X70527574Y-127617649D02*
X70619016Y-127658120D01*
X71980984Y-127658120D02*
X71886702Y-127691442D01*
X70619016Y-127658120D02*
X70713298Y-127691442D01*
X71886702Y-127691442D02*
X71790138Y-127717418D01*
X70713298Y-127691442D02*
X70809862Y-127717418D01*
X71790138Y-127717418D02*
X71691863Y-127735895D01*
X70809862Y-127717418D02*
X70908137Y-127735895D01*
X71691863Y-127735895D02*
X71592458Y-127746763D01*
X70908137Y-127735895D02*
X71007542Y-127746763D01*
X71592458Y-127746763D02*
X71492512Y-127749958D01*
X71007542Y-127746763D02*
X71107488Y-127749958D01*
X71107488Y-127749958D02*
X71492512Y-127749958D01*
X69800000Y-93500020D02*
X69800000Y-110000000D01*
X72800000Y-93500020D02*
X72800000Y-110000000D01*
X72800000Y-93500020D02*
X72792313Y-93400316D01*
X69800000Y-93500020D02*
X69807687Y-93400316D01*
X72792313Y-93400316D02*
X72776985Y-93301498D01*
X69807687Y-93400316D02*
X69823015Y-93301498D01*
X72776985Y-93301498D02*
X72754107Y-93204151D01*
X69823015Y-93301498D02*
X69845893Y-93204151D01*
X72754107Y-93204151D02*
X72723814Y-93108851D01*
X69845893Y-93204151D02*
X69876186Y-93108851D01*
X72723814Y-93108851D02*
X72686285Y-93016161D01*
X69876186Y-93108851D02*
X69913715Y-93016161D01*
X72686285Y-93016161D02*
X72641742Y-92926630D01*
X69913715Y-93016161D02*
X69958258Y-92926630D01*
X72641742Y-92926630D02*
X72590449Y-92840788D01*
X69958258Y-92926630D02*
X70009551Y-92840788D01*
X72590449Y-92840788D02*
X72532709Y-92759143D01*
X70009551Y-92840788D02*
X70067291Y-92759143D01*
X72532709Y-92759143D02*
X72468864Y-92682178D01*
X70067291Y-92759143D02*
X70131136Y-92682178D01*
X72468864Y-92682178D02*
X72399292Y-92610348D01*
X70131136Y-92682178D02*
X70200708Y-92610348D01*
X72399292Y-92610348D02*
X72324405Y-92544078D01*
X70200708Y-92610348D02*
X70275595Y-92544078D01*
X72324405Y-92544078D02*
X72244646Y-92483760D01*
X70275595Y-92544078D02*
X70355354Y-92483760D01*
X72244646Y-92483760D02*
X72160487Y-92429751D01*
X70355354Y-92483760D02*
X70439513Y-92429751D01*
X72160487Y-92429751D02*
X72072426Y-92382371D01*
X70439513Y-92429751D02*
X70527574Y-92382371D01*
X72072426Y-92382371D02*
X71980984Y-92341900D01*
X70527574Y-92382371D02*
X70619016Y-92341900D01*
X71980984Y-92341900D02*
X71886702Y-92308578D01*
X70619016Y-92341900D02*
X70713298Y-92308578D01*
X71886702Y-92308578D02*
X71790138Y-92282602D01*
X70713298Y-92308578D02*
X70809862Y-92282602D01*
X71790138Y-92282602D02*
X71691863Y-92264125D01*
X70809862Y-92282602D02*
X70908137Y-92264125D01*
X71691863Y-92264125D02*
X71592458Y-92253257D01*
X70908137Y-92264125D02*
X71007542Y-92253257D01*
X71592458Y-92253257D02*
X71492512Y-92250062D01*
X71007542Y-92253257D02*
X71107488Y-92250062D01*
X71107488Y-92250062D02*
X71492512Y-92250062D01*
X72800000Y-88499980D02*
X72792313Y-88599684D01*
X69800000Y-88499980D02*
X69807687Y-88599684D01*
X72792313Y-88599684D02*
X72776985Y-88698502D01*
X69807687Y-88599684D02*
X69823015Y-88698502D01*
X72776985Y-88698502D02*
X72754107Y-88795849D01*
X69823015Y-88698502D02*
X69845893Y-88795849D01*
X72754107Y-88795849D02*
X72723814Y-88891149D01*
X69845893Y-88795849D02*
X69876186Y-88891149D01*
X72723814Y-88891149D02*
X72686285Y-88983839D01*
X69876186Y-88891149D02*
X69913715Y-88983839D01*
X72686285Y-88983839D02*
X72641742Y-89073370D01*
X69913715Y-88983839D02*
X69958258Y-89073370D01*
X72641742Y-89073370D02*
X72590449Y-89159212D01*
X69958258Y-89073370D02*
X70009551Y-89159212D01*
X72590449Y-89159212D02*
X72532709Y-89240857D01*
X70009551Y-89159212D02*
X70067291Y-89240857D01*
X72532709Y-89240857D02*
X72468864Y-89317822D01*
X70067291Y-89240857D02*
X70131136Y-89317822D01*
X72468864Y-89317822D02*
X72399292Y-89389652D01*
X70131136Y-89317822D02*
X70200708Y-89389652D01*
X72399292Y-89389652D02*
X72324405Y-89455922D01*
X70200708Y-89389652D02*
X70275595Y-89455922D01*
X72324405Y-89455922D02*
X72244646Y-89516240D01*
X70275595Y-89455922D02*
X70355354Y-89516240D01*
X72244646Y-89516240D02*
X72160487Y-89570249D01*
X70355354Y-89516240D02*
X70439513Y-89570249D01*
X72160487Y-89570249D02*
X72072426Y-89617629D01*
X70439513Y-89570249D02*
X70527574Y-89617629D01*
X72072426Y-89617629D02*
X71980984Y-89658100D01*
X70527574Y-89617629D02*
X70619016Y-89658100D01*
X71980984Y-89658100D02*
X71886702Y-89691422D01*
X70619016Y-89658100D02*
X70713298Y-89691422D01*
X71886702Y-89691422D02*
X71790138Y-89717398D01*
X70713298Y-89691422D02*
X70809862Y-89717398D01*
X71790138Y-89717398D02*
X71691863Y-89735875D01*
X70809862Y-89717398D02*
X70908137Y-89735875D01*
X71691863Y-89735875D02*
X71592458Y-89746743D01*
X70908137Y-89735875D02*
X71007542Y-89746743D01*
X71592458Y-89746743D02*
X71492512Y-89749938D01*
X71007542Y-89746743D02*
X71107488Y-89749938D01*
X71107488Y-89749938D02*
X71492512Y-89749938D01*
X69800000Y-58499980D02*
X69800000Y-88499980D01*
X69800000Y-53500000D02*
X69800000Y-40000000D01*
X72800000Y-58499980D02*
X72800000Y-88499980D01*
X72800000Y-53500000D02*
X72800000Y-40000000D01*
X72800000Y-58499980D02*
X72792313Y-58400276D01*
X69800000Y-58499980D02*
X69807687Y-58400276D01*
X72792313Y-58400276D02*
X72776985Y-58301458D01*
X69807687Y-58400276D02*
X69823015Y-58301458D01*
X72776985Y-58301458D02*
X72754107Y-58204111D01*
X69823015Y-58301458D02*
X69845893Y-58204111D01*
X72754107Y-58204111D02*
X72723814Y-58108811D01*
X69845893Y-58204111D02*
X69876186Y-58108811D01*
X72723814Y-58108811D02*
X72686285Y-58016121D01*
X69876186Y-58108811D02*
X69913715Y-58016121D01*
X72686285Y-58016121D02*
X72641742Y-57926590D01*
X69913715Y-58016121D02*
X69958258Y-57926590D01*
X72641742Y-57926590D02*
X72590449Y-57840748D01*
X69958258Y-57926590D02*
X70009551Y-57840748D01*
X72590449Y-57840748D02*
X72532709Y-57759103D01*
X70009551Y-57840748D02*
X70067291Y-57759103D01*
X72532709Y-57759103D02*
X72468864Y-57682138D01*
X70067291Y-57759103D02*
X70131136Y-57682138D01*
X72468864Y-57682138D02*
X72399292Y-57610308D01*
X70131136Y-57682138D02*
X70200708Y-57610308D01*
X72399292Y-57610308D02*
X72324405Y-57544038D01*
X70200708Y-57610308D02*
X70275595Y-57544038D01*
X72324405Y-57544038D02*
X72244646Y-57483720D01*
X70275595Y-57544038D02*
X70355354Y-57483720D01*
X72244646Y-57483720D02*
X72160487Y-57429711D01*
X70355354Y-57483720D02*
X70439513Y-57429711D01*
X72160487Y-57429711D02*
X72072426Y-57382331D01*
X70439513Y-57429711D02*
X70527574Y-57382331D01*
X72072426Y-57382331D02*
X71980984Y-57341860D01*
X70527574Y-57382331D02*
X70619016Y-57341860D01*
X71980984Y-57341860D02*
X71886702Y-57308538D01*
X70619016Y-57341860D02*
X70713298Y-57308538D01*
X71886702Y-57308538D02*
X71790138Y-57282562D01*
X70713298Y-57308538D02*
X70809862Y-57282562D01*
X71790138Y-57282562D02*
X71691863Y-57264085D01*
X70809862Y-57282562D02*
X70908137Y-57264085D01*
X71691863Y-57264085D02*
X71592458Y-57253217D01*
X70908137Y-57264085D02*
X71007542Y-57253217D01*
X71592458Y-57253217D02*
X71492512Y-57250022D01*
X71007542Y-57253217D02*
X71107488Y-57250022D01*
X71107488Y-57250022D02*
X71492512Y-57250022D01*
X72800000Y-53500000D02*
X72792313Y-53599704D01*
X69800000Y-53500000D02*
X69807687Y-53599704D01*
X72792313Y-53599704D02*
X72776985Y-53698522D01*
X69807687Y-53599704D02*
X69823015Y-53698522D01*
X72776985Y-53698522D02*
X72754107Y-53795869D01*
X69823015Y-53698522D02*
X69845893Y-53795869D01*
X72754107Y-53795869D02*
X72723814Y-53891169D01*
X69845893Y-53795869D02*
X69876186Y-53891169D01*
X72723814Y-53891169D02*
X72686285Y-53983859D01*
X69876186Y-53891169D02*
X69913715Y-53983859D01*
X72686285Y-53983859D02*
X72641742Y-54073390D01*
X69913715Y-53983859D02*
X69958258Y-54073390D01*
X72641742Y-54073390D02*
X72590449Y-54159232D01*
X69958258Y-54073390D02*
X70009551Y-54159232D01*
X72590449Y-54159232D02*
X72532709Y-54240877D01*
X70009551Y-54159232D02*
X70067291Y-54240877D01*
X72532709Y-54240877D02*
X72468864Y-54317842D01*
X70067291Y-54240877D02*
X70131136Y-54317842D01*
X72468864Y-54317842D02*
X72399292Y-54389672D01*
X70131136Y-54317842D02*
X70200708Y-54389672D01*
X72399292Y-54389672D02*
X72324405Y-54455942D01*
X70200708Y-54389672D02*
X70275595Y-54455942D01*
X72324405Y-54455942D02*
X72244646Y-54516260D01*
X70275595Y-54455942D02*
X70355354Y-54516260D01*
X72244646Y-54516260D02*
X72160487Y-54570269D01*
X70355354Y-54516260D02*
X70439513Y-54570269D01*
X72160487Y-54570269D02*
X72072426Y-54617649D01*
X70439513Y-54570269D02*
X70527574Y-54617649D01*
X72072426Y-54617649D02*
X71980984Y-54658120D01*
X70527574Y-54617649D02*
X70619016Y-54658120D01*
X71980984Y-54658120D02*
X71886702Y-54691442D01*
X70619016Y-54658120D02*
X70713298Y-54691442D01*
X71886702Y-54691442D02*
X71790138Y-54717418D01*
X70713298Y-54691442D02*
X70809862Y-54717418D01*
X71790138Y-54717418D02*
X71691863Y-54735895D01*
X70809862Y-54717418D02*
X70908137Y-54735895D01*
X71691863Y-54735895D02*
X71592458Y-54746763D01*
X70908137Y-54735895D02*
X71007542Y-54746763D01*
X71592458Y-54746763D02*
X71492512Y-54749958D01*
X71007542Y-54746763D02*
X71107488Y-54749958D01*
X71107488Y-54749958D02*
X71492512Y-54749958D01*
X82399987Y-110000000D02*
X72800000Y-110000000D01*
X82399987Y-113000000D02*
X72800000Y-113000000D01*
X82399987Y-113000000D02*
X82499691Y-112992313D01*
X82399987Y-110000000D02*
X82499691Y-110007687D01*
X82499691Y-112992313D02*
X82598509Y-112976985D01*
X82499691Y-110007687D02*
X82598509Y-110023015D01*
X82598509Y-112976985D02*
X82695856Y-112954107D01*
X82598509Y-110023015D02*
X82695856Y-110045893D01*
X82695856Y-112954107D02*
X82791156Y-112923814D01*
X82695856Y-110045893D02*
X82791156Y-110076186D01*
X82791156Y-112923814D02*
X82883846Y-112886285D01*
X82791156Y-110076186D02*
X82883846Y-110113715D01*
X82883846Y-112886285D02*
X82973377Y-112841742D01*
X82883846Y-110113715D02*
X82973377Y-110158258D01*
X82973377Y-112841742D02*
X83059219Y-112790449D01*
X82973377Y-110158258D02*
X83059219Y-110209551D01*
X83059219Y-112790449D02*
X83140864Y-112732709D01*
X83059219Y-110209551D02*
X83140864Y-110267291D01*
X83140864Y-112732709D02*
X83217829Y-112668864D01*
X83140864Y-110267291D02*
X83217829Y-110331136D01*
X83217829Y-112668864D02*
X83289659Y-112599292D01*
X83217829Y-110331136D02*
X83289659Y-110400708D01*
X83289659Y-112599292D02*
X83355929Y-112524405D01*
X83289659Y-110400708D02*
X83355929Y-110475595D01*
X83355929Y-112524405D02*
X83416247Y-112444646D01*
X83355929Y-110475595D02*
X83416247Y-110555354D01*
X83416247Y-112444646D02*
X83470256Y-112360487D01*
X83416247Y-110555354D02*
X83470256Y-110639513D01*
X83470256Y-112360487D02*
X83517636Y-112272426D01*
X83470256Y-110639513D02*
X83517636Y-110727574D01*
X83517636Y-112272426D02*
X83558107Y-112180984D01*
X83517636Y-110727574D02*
X83558107Y-110819016D01*
X83558107Y-112180984D02*
X83591429Y-112086702D01*
X83558107Y-110819016D02*
X83591429Y-110913298D01*
X83591429Y-112086702D02*
X83617405Y-111990138D01*
X83591429Y-110913298D02*
X83617405Y-111009862D01*
X83617405Y-111990138D02*
X83635882Y-111891863D01*
X83617405Y-111009862D02*
X83635882Y-111108137D01*
X83635882Y-111891863D02*
X83646750Y-111792458D01*
X83635882Y-111108137D02*
X83646750Y-111207542D01*
X83646750Y-111792458D02*
X83649945Y-111692512D01*
X83646750Y-111207542D02*
X83649945Y-111307488D01*
X83649945Y-111307488D02*
X83649945Y-111692512D01*
X87399980Y-113000000D02*
X87300276Y-112992313D01*
X87399980Y-110000000D02*
X87300276Y-110007687D01*
X87300276Y-112992313D02*
X87201458Y-112976985D01*
X87300276Y-110007687D02*
X87201458Y-110023015D01*
X87201458Y-112976985D02*
X87104111Y-112954107D01*
X87201458Y-110023015D02*
X87104111Y-110045893D01*
X87104111Y-112954107D02*
X87008811Y-112923814D01*
X87104111Y-110045893D02*
X87008811Y-110076186D01*
X87008811Y-112923814D02*
X86916121Y-112886285D01*
X87008811Y-110076186D02*
X86916121Y-110113715D01*
X86916121Y-112886285D02*
X86826590Y-112841742D01*
X86916121Y-110113715D02*
X86826590Y-110158258D01*
X86826590Y-112841742D02*
X86740748Y-112790449D01*
X86826590Y-110158258D02*
X86740748Y-110209551D01*
X86740748Y-112790449D02*
X86659103Y-112732709D01*
X86740748Y-110209551D02*
X86659103Y-110267291D01*
X86659103Y-112732709D02*
X86582138Y-112668864D01*
X86659103Y-110267291D02*
X86582138Y-110331136D01*
X86582138Y-112668864D02*
X86510308Y-112599292D01*
X86582138Y-110331136D02*
X86510308Y-110400708D01*
X86510308Y-112599292D02*
X86444038Y-112524405D01*
X86510308Y-110400708D02*
X86444038Y-110475595D01*
X86444038Y-112524405D02*
X86383720Y-112444646D01*
X86444038Y-110475595D02*
X86383720Y-110555354D01*
X86383720Y-112444646D02*
X86329711Y-112360487D01*
X86383720Y-110555354D02*
X86329711Y-110639513D01*
X86329711Y-112360487D02*
X86282331Y-112272426D01*
X86329711Y-110639513D02*
X86282331Y-110727574D01*
X86282331Y-112272426D02*
X86241860Y-112180984D01*
X86282331Y-110727574D02*
X86241860Y-110819016D01*
X86241860Y-112180984D02*
X86208538Y-112086702D01*
X86241860Y-110819016D02*
X86208538Y-110913298D01*
X86208538Y-112086702D02*
X86182562Y-111990138D01*
X86208538Y-110913298D02*
X86182562Y-111009862D01*
X86182562Y-111990138D02*
X86164085Y-111891863D01*
X86182562Y-111009862D02*
X86164085Y-111108137D01*
X86164085Y-111891863D02*
X86153217Y-111792458D01*
X86164085Y-111108137D02*
X86153217Y-111207542D01*
X86153217Y-111792458D02*
X86150022Y-111692512D01*
X86153217Y-111207542D02*
X86150022Y-111307488D01*
X86150022Y-111307488D02*
X86150022Y-111692512D01*
X108400010Y-110000000D02*
X87399980Y-110000000D01*
X113400013Y-110000000D02*
X122800000Y-110000000D01*
X108400010Y-113000000D02*
X87399980Y-113000000D01*
X113400013Y-113000000D02*
X122800000Y-113000000D01*
X108400010Y-113000000D02*
X108499714Y-112992313D01*
X108400010Y-110000000D02*
X108499714Y-110007687D01*
X108499714Y-112992313D02*
X108598532Y-112976985D01*
X108499714Y-110007687D02*
X108598532Y-110023015D01*
X108598532Y-112976985D02*
X108695879Y-112954107D01*
X108598532Y-110023015D02*
X108695879Y-110045893D01*
X108695879Y-112954107D02*
X108791179Y-112923814D01*
X108695879Y-110045893D02*
X108791179Y-110076186D01*
X108791179Y-112923814D02*
X108883869Y-112886285D01*
X108791179Y-110076186D02*
X108883869Y-110113715D01*
X108883869Y-112886285D02*
X108973400Y-112841742D01*
X108883869Y-110113715D02*
X108973400Y-110158258D01*
X108973400Y-112841742D02*
X109059242Y-112790449D01*
X108973400Y-110158258D02*
X109059242Y-110209551D01*
X109059242Y-112790449D02*
X109140887Y-112732709D01*
X109059242Y-110209551D02*
X109140887Y-110267291D01*
X109140887Y-112732709D02*
X109217852Y-112668864D01*
X109140887Y-110267291D02*
X109217852Y-110331136D01*
X109217852Y-112668864D02*
X109289682Y-112599292D01*
X109217852Y-110331136D02*
X109289682Y-110400708D01*
X109289682Y-112599292D02*
X109355952Y-112524405D01*
X109289682Y-110400708D02*
X109355952Y-110475595D01*
X109355952Y-112524405D02*
X109416270Y-112444646D01*
X109355952Y-110475595D02*
X109416270Y-110555354D01*
X109416270Y-112444646D02*
X109470279Y-112360487D01*
X109416270Y-110555354D02*
X109470279Y-110639513D01*
X109470279Y-112360487D02*
X109517659Y-112272426D01*
X109470279Y-110639513D02*
X109517659Y-110727574D01*
X109517659Y-112272426D02*
X109558130Y-112180984D01*
X109517659Y-110727574D02*
X109558130Y-110819016D01*
X109558130Y-112180984D02*
X109591452Y-112086702D01*
X109558130Y-110819016D02*
X109591452Y-110913298D01*
X109591452Y-112086702D02*
X109617428Y-111990138D01*
X109591452Y-110913298D02*
X109617428Y-111009862D01*
X109617428Y-111990138D02*
X109635905Y-111891863D01*
X109617428Y-111009862D02*
X109635905Y-111108137D01*
X109635905Y-111891863D02*
X109646773Y-111792458D01*
X109635905Y-111108137D02*
X109646773Y-111207542D01*
X109646773Y-111792458D02*
X109649968Y-111692512D01*
X109646773Y-111207542D02*
X109649968Y-111307488D01*
X109649968Y-111307488D02*
X109649968Y-111692512D01*
X113400013Y-113000000D02*
X113300309Y-112992313D01*
X113400013Y-110000000D02*
X113300309Y-110007687D01*
X113300309Y-112992313D02*
X113201491Y-112976985D01*
X113300309Y-110007687D02*
X113201491Y-110023015D01*
X113201491Y-112976985D02*
X113104144Y-112954107D01*
X113201491Y-110023015D02*
X113104144Y-110045893D01*
X113104144Y-112954107D02*
X113008844Y-112923814D01*
X113104144Y-110045893D02*
X113008844Y-110076186D01*
X113008844Y-112923814D02*
X112916154Y-112886285D01*
X113008844Y-110076186D02*
X112916154Y-110113715D01*
X112916154Y-112886285D02*
X112826623Y-112841742D01*
X112916154Y-110113715D02*
X112826623Y-110158258D01*
X112826623Y-112841742D02*
X112740781Y-112790449D01*
X112826623Y-110158258D02*
X112740781Y-110209551D01*
X112740781Y-112790449D02*
X112659136Y-112732709D01*
X112740781Y-110209551D02*
X112659136Y-110267291D01*
X112659136Y-112732709D02*
X112582171Y-112668864D01*
X112659136Y-110267291D02*
X112582171Y-110331136D01*
X112582171Y-112668864D02*
X112510341Y-112599292D01*
X112582171Y-110331136D02*
X112510341Y-110400708D01*
X112510341Y-112599292D02*
X112444071Y-112524405D01*
X112510341Y-110400708D02*
X112444071Y-110475595D01*
X112444071Y-112524405D02*
X112383753Y-112444646D01*
X112444071Y-110475595D02*
X112383753Y-110555354D01*
X112383753Y-112444646D02*
X112329744Y-112360487D01*
X112383753Y-110555354D02*
X112329744Y-110639513D01*
X112329744Y-112360487D02*
X112282364Y-112272426D01*
X112329744Y-110639513D02*
X112282364Y-110727574D01*
X112282364Y-112272426D02*
X112241893Y-112180984D01*
X112282364Y-110727574D02*
X112241893Y-110819016D01*
X112241893Y-112180984D02*
X112208571Y-112086702D01*
X112241893Y-110819016D02*
X112208571Y-110913298D01*
X112208571Y-112086702D02*
X112182595Y-111990138D01*
X112208571Y-110913298D02*
X112182595Y-111009862D01*
X112182595Y-111990138D02*
X112164118Y-111891863D01*
X112182595Y-111009862D02*
X112164118Y-111108137D01*
X112164118Y-111891863D02*
X112153250Y-111792458D01*
X112164118Y-111108137D02*
X112153250Y-111207542D01*
X112153250Y-111792458D02*
X112150055Y-111692512D01*
X112153250Y-111207542D02*
X112150055Y-111307488D01*
X112150055Y-111307488D02*
X112150055Y-111692512D01*
M02*
