M48
; DRILL file {KiCad (5.1.5)-2} date 17/06/2020 11:39:28
; FORMAT={-:-/ absolute / inch / decimal}
; #@! TF.CreationDate,2020-06-17T11:39:28+12:00
; #@! TF.GenerationSoftware,Kicad,Pcbnew,(5.1.5)-2
; #@! TF.FileFunction,Plated,1,2,PTH
FMAT,2
INCH
T1C0.0157
T2C0.0236
T3C0.0394
T4C0.0472
T5C0.0512
T6C0.0787
T7C0.0906
T8C0.0984
T9C0.1260
T10C0.1417
%
G90
G05
T1
X0.8898Y-2.1496
X0.8898Y-5.0236
X0.9488Y-2.2638
X0.9488Y-5.1378
X0.9961Y-3.6929
X0.9961Y-6.5669
X1.0039Y-3.9843
X1.0039Y-6.8583
X1.0354Y-2.0039
X1.0354Y-4.878
X1.0866Y-3.1457
X1.0866Y-3.3346
X1.0866Y-6.0197
X1.0866Y-6.2087
X1.0984Y-1.6614
X1.0984Y-4.5354
X1.1045Y-3.4864
X1.1045Y-6.3604
X1.122Y-2.878
X1.122Y-3.9528
X1.122Y-5.752
X1.122Y-6.8268
X1.1457Y-2.0433
X1.1457Y-4.9173
X1.1654Y-1.752
X1.1654Y-4.626
X1.1693Y-4.1693
X1.1693Y-7.0433
X1.2087Y-3.3307
X1.2087Y-6.2047
X1.2362Y-4.0551
X1.2362Y-6.9291
X1.252Y-3.1772
X1.252Y-6.0512
X1.2598Y-2.2756
X1.2598Y-3.874
X1.2598Y-5.1496
X1.2598Y-6.748
X1.2677Y-1.9094
X1.2677Y-4.7835
X1.2717Y-3.5394
X1.2717Y-6.4134
X1.2756Y-3.0354
X1.2756Y-5.9094
X1.2953Y-3.4291
X1.2953Y-6.3031
X1.2992Y-3.2598
X1.2992Y-6.1339
X1.4173Y-1.7402
X1.4173Y-4.6142
X1.4213Y-4.0197
X1.4213Y-6.8937
X1.4252Y-1.6575
X1.4252Y-3.126
X1.4252Y-3.4094
X1.4252Y-4.1299
X1.4252Y-4.5315
X1.4252Y-6.0
X1.4252Y-6.2835
X1.4252Y-7.0039
X1.4291Y-2.063
X1.4291Y-4.937
X1.437Y-4.2402
X1.437Y-7.1142
X1.4803Y-1.7874
X1.4803Y-2.2835
X1.4803Y-4.6614
X1.4803Y-5.1575
X1.4843Y-2.4606
X1.4843Y-5.3346
X1.4882Y-1.8701
X1.4882Y-4.7441
X1.5354Y-3.1417
X1.5354Y-6.0157
X1.5827Y-2.8898
X1.5827Y-5.7638
X1.5984Y-2.5906
X1.5984Y-3.0866
X1.5984Y-5.4646
X1.5984Y-5.9606
X1.6024Y-2.4488
X1.6024Y-5.3228
X1.6063Y-3.5433
X1.6063Y-6.4173
X1.6163Y-2.0963
X1.6163Y-4.9703
X1.622Y-3.374
X1.622Y-6.248
X1.6378Y-2.1496
X1.6378Y-5.0236
X1.6535Y-1.9567
X1.6535Y-4.8307
X1.6575Y-2.9882
X1.6575Y-5.8622
X1.6654Y-2.8071
X1.6654Y-5.6811
X1.6693Y-2.689
X1.6693Y-5.563
X1.6811Y-2.4055
X1.6811Y-5.2795
X1.7047Y-4.1181
X1.7047Y-6.9921
X1.7087Y-4.0118
X1.7087Y-6.8858
X1.7126Y-2.2795
X1.7126Y-5.1535
X1.7165Y-3.0394
X1.7165Y-5.9134
X1.7323Y-2.5197
X1.7323Y-5.3937
X1.7362Y-2.6339
X1.7362Y-5.5079
X1.7406Y-2.0005
X1.7406Y-4.8745
X1.748Y-2.3425
X1.748Y-4.2717
X1.748Y-5.2165
X1.748Y-7.1457
X1.7677Y-2.8661
X1.7677Y-5.7402
X1.7835Y-2.4213
X1.7835Y-5.2953
X1.7874Y-3.1063
X1.7874Y-5.9803
X1.7953Y-2.5118
X1.7953Y-2.9488
X1.7953Y-5.3858
X1.7953Y-5.8228
X1.815Y-2.1339
X1.815Y-5.0079
X1.8189Y-2.3465
X1.8189Y-5.2205
X1.8504Y-3.0315
X1.8504Y-5.9055
X1.8543Y-3.5709
X1.8543Y-6.4449
X1.8583Y-2.6772
X1.8583Y-2.8346
X1.8583Y-5.5512
X1.8583Y-5.7087
X1.874Y-2.0
X1.874Y-4.874
X1.878Y-3.1772
X1.878Y-6.0512
X1.8898Y-1.9094
X1.8898Y-2.1339
X1.8898Y-4.7835
X1.8898Y-5.0079
X1.8937Y-2.3937
X1.8937Y-5.2677
X1.8976Y-2.3189
X1.8976Y-2.7402
X1.8976Y-5.1929
X1.8976Y-5.6142
X1.9213Y-1.7323
X1.9213Y-4.6063
X1.9291Y-2.2283
X1.9291Y-3.0236
X1.9291Y-5.1024
X1.9291Y-5.8976
X1.9606Y-2.5276
X1.9606Y-2.6063
X1.9606Y-2.7402
X1.9606Y-5.4016
X1.9606Y-5.4803
X1.9606Y-5.6142
X1.9921Y-2.185
X1.9921Y-2.9291
X1.9921Y-3.0591
X1.9921Y-3.1339
X1.9921Y-5.0591
X1.9921Y-5.8031
X1.9921Y-5.9331
X1.9921Y-6.0079
X2.0354Y-2.7323
X2.0354Y-5.6063
X2.0394Y-2.4724
X2.0394Y-3.1693
X2.0394Y-5.3465
X2.0394Y-6.0433
X2.063Y-4.0276
X2.063Y-6.9016
X2.0709Y-2.9685
X2.0709Y-3.0276
X2.0709Y-5.8425
X2.0709Y-5.9016
X2.0748Y-2.6496
X2.0748Y-5.5236
X2.0906Y-1.7283
X2.0906Y-4.6024
X2.1063Y-3.0709
X2.1063Y-5.9449
X2.1142Y-2.9213
X2.1142Y-3.2087
X2.1142Y-5.7953
X2.1142Y-6.0827
X2.1417Y-4.2205
X2.1417Y-7.0945
X2.1496Y-2.2362
X2.1496Y-5.1102
X2.1693Y-4.1339
X2.1693Y-7.0079
X2.1811Y-2.626
X2.1811Y-5.5
X2.2087Y-3.9449
X2.2087Y-6.8189
X2.2126Y-2.937
X2.2126Y-5.811
X2.2559Y-2.2598
X2.2559Y-5.1339
X2.2638Y-3.0118
X2.2638Y-5.8858
X2.2913Y-3.1063
X2.2913Y-5.9803
X2.3031Y-2.6575
X2.3031Y-5.5315
X2.3307Y-2.9567
X2.3307Y-5.8307
X2.3386Y-4.2244
X2.3386Y-7.0984
X2.3543Y-3.7402
X2.3543Y-6.6142
X2.3661Y-3.9724
X2.3661Y-6.8465
X2.4961Y-3.7323
X2.4961Y-6.6063
X2.9764Y-2.1496
X2.9764Y-5.0236
X3.0354Y-2.2638
X3.0354Y-5.1378
X3.0827Y-3.6929
X3.0827Y-6.5669
X3.0906Y-3.9843
X3.0906Y-6.8583
X3.122Y-2.0039
X3.122Y-4.878
X3.1732Y-3.1457
X3.1732Y-3.3346
X3.1732Y-6.0197
X3.1732Y-6.2087
X3.185Y-1.6614
X3.185Y-4.5354
X3.1911Y-3.4864
X3.1911Y-6.3604
X3.2087Y-2.878
X3.2087Y-3.9528
X3.2087Y-5.752
X3.2087Y-6.8268
X3.2323Y-2.0433
X3.2323Y-4.9173
X3.252Y-1.752
X3.252Y-4.626
X3.2559Y-4.1693
X3.2559Y-7.0433
X3.2953Y-3.3307
X3.2953Y-6.2047
X3.3228Y-4.0551
X3.3228Y-6.9291
X3.3386Y-3.1772
X3.3386Y-6.0512
X3.3465Y-2.2756
X3.3465Y-3.874
X3.3465Y-5.1496
X3.3465Y-6.748
X3.3543Y-1.9094
X3.3543Y-4.7835
X3.3583Y-3.5394
X3.3583Y-6.4134
X3.3622Y-3.0354
X3.3622Y-5.9094
X3.3819Y-3.4291
X3.3819Y-6.3031
X3.3858Y-3.2598
X3.3858Y-6.1339
X3.5039Y-1.7402
X3.5039Y-4.6142
X3.5079Y-4.0197
X3.5079Y-6.8937
X3.5118Y-1.6575
X3.5118Y-3.126
X3.5118Y-3.4094
X3.5118Y-4.1299
X3.5118Y-4.5315
X3.5118Y-6.0
X3.5118Y-6.2835
X3.5118Y-7.0039
X3.5157Y-2.063
X3.5157Y-4.937
X3.5236Y-4.2402
X3.5236Y-7.1142
X3.5669Y-1.7874
X3.5669Y-2.2835
X3.5669Y-4.6614
X3.5669Y-5.1575
X3.5709Y-2.4606
X3.5709Y-5.3346
X3.5748Y-1.8701
X3.5748Y-4.7441
X3.622Y-3.1417
X3.622Y-6.0157
X3.6693Y-2.8898
X3.6693Y-5.7638
X3.685Y-2.5906
X3.685Y-3.0866
X3.685Y-5.4646
X3.685Y-5.9606
X3.689Y-2.4488
X3.689Y-5.3228
X3.6929Y-3.5433
X3.6929Y-6.4173
X3.7029Y-2.0963
X3.7029Y-4.9703
X3.7087Y-3.374
X3.7087Y-6.248
X3.7244Y-2.1496
X3.7244Y-5.0236
X3.7402Y-1.9567
X3.7402Y-4.8307
X3.7441Y-2.9882
X3.7441Y-5.8622
X3.752Y-2.8071
X3.752Y-5.6811
X3.7559Y-2.689
X3.7559Y-5.563
X3.7677Y-2.4055
X3.7677Y-5.2795
X3.7913Y-4.1181
X3.7913Y-6.9921
X3.7953Y-4.0118
X3.7953Y-6.8858
X3.7992Y-2.2795
X3.7992Y-5.1535
X3.8031Y-3.0394
X3.8031Y-5.9134
X3.8189Y-2.5197
X3.8189Y-5.3937
X3.8228Y-2.6339
X3.8228Y-5.5079
X3.8273Y-2.0005
X3.8273Y-4.8745
X3.8346Y-2.3425
X3.8346Y-4.2717
X3.8346Y-5.2165
X3.8346Y-7.1457
X3.8543Y-2.8661
X3.8543Y-5.7402
X3.8701Y-2.4213
X3.8701Y-5.2953
X3.874Y-3.1063
X3.874Y-5.9803
X3.8819Y-2.5118
X3.8819Y-2.9488
X3.8819Y-5.3858
X3.8819Y-5.8228
X3.9016Y-2.1339
X3.9016Y-5.0079
X3.9055Y-2.3465
X3.9055Y-5.2205
X3.937Y-3.0315
X3.937Y-5.9055
X3.9409Y-3.5709
X3.9409Y-6.4449
X3.9449Y-2.6772
X3.9449Y-2.8346
X3.9449Y-5.5512
X3.9449Y-5.7087
X3.9606Y-2.0
X3.9606Y-4.874
X3.9646Y-3.1772
X3.9646Y-6.0512
X3.9764Y-1.9094
X3.9764Y-2.1339
X3.9764Y-4.7835
X3.9764Y-5.0079
X3.9803Y-2.3937
X3.9803Y-5.2677
X3.9843Y-2.3189
X3.9843Y-2.7402
X3.9843Y-5.1929
X3.9843Y-5.6142
X4.0079Y-1.7323
X4.0079Y-4.6063
X4.0157Y-2.2283
X4.0157Y-3.0236
X4.0157Y-5.1024
X4.0157Y-5.8976
X4.0472Y-2.5276
X4.0472Y-2.6063
X4.0472Y-2.7402
X4.0472Y-5.4016
X4.0472Y-5.4803
X4.0472Y-5.6142
X4.0787Y-2.185
X4.0787Y-2.9291
X4.0787Y-3.0591
X4.0787Y-3.1339
X4.0787Y-5.0591
X4.0787Y-5.8031
X4.0787Y-5.9331
X4.0787Y-6.0079
X4.122Y-2.7323
X4.122Y-5.6063
X4.126Y-2.4724
X4.126Y-3.1693
X4.126Y-5.3465
X4.126Y-6.0433
X4.1496Y-4.0276
X4.1496Y-6.9016
X4.1575Y-2.9685
X4.1575Y-3.0276
X4.1575Y-5.8425
X4.1575Y-5.9016
X4.1614Y-2.6496
X4.1614Y-5.5236
X4.1772Y-1.7283
X4.1772Y-4.6024
X4.1929Y-3.0709
X4.1929Y-5.9449
X4.2008Y-2.9213
X4.2008Y-3.2087
X4.2008Y-5.7953
X4.2008Y-6.0827
X4.2283Y-4.2205
X4.2283Y-7.0945
X4.2362Y-2.2362
X4.2362Y-5.1102
X4.2559Y-4.1339
X4.2559Y-7.0079
X4.2677Y-2.626
X4.2677Y-5.5
X4.2953Y-3.9449
X4.2953Y-6.8189
X4.2992Y-2.937
X4.2992Y-5.811
X4.3425Y-2.2598
X4.3425Y-5.1339
X4.3504Y-3.0118
X4.3504Y-5.8858
X4.378Y-3.1063
X4.378Y-5.9803
X4.3898Y-2.6575
X4.3898Y-5.5315
X4.4173Y-2.9567
X4.4173Y-5.8307
X4.4252Y-4.2244
X4.4252Y-7.0984
X4.4409Y-3.7402
X4.4409Y-6.6142
X4.4528Y-3.9724
X4.4528Y-6.8465
X4.5827Y-3.7323
X4.5827Y-6.6063
T3
X2.9472Y-2.7276
X2.9472Y-2.8177
X2.9472Y-2.9079
X2.9472Y-2.998
X2.9472Y-3.0882
X3.0472Y-2.7724
X3.0472Y-2.8626
X3.0472Y-2.9528
X3.0472Y-3.0429
X3.0472Y-3.1331
X3.1472Y-2.7276
X3.1472Y-2.8177
X3.1472Y-2.9079
X3.1472Y-2.998
X3.1472Y-3.0882
X0.8606Y-2.7276
X0.8606Y-2.8177
X0.8606Y-2.9079
X0.8606Y-2.998
X0.8606Y-3.0882
X0.9606Y-2.7724
X0.9606Y-2.8626
X0.9606Y-2.9528
X0.9606Y-3.0429
X0.9606Y-3.1331
X1.0606Y-2.7276
X1.0606Y-2.8177
X1.0606Y-2.9079
X1.0606Y-2.998
X1.0606Y-3.0882
X0.8606Y-5.6016
X0.8606Y-5.6917
X0.8606Y-5.7819
X0.8606Y-5.872
X0.8606Y-5.9622
X0.9606Y-5.6465
X0.9606Y-5.7366
X0.9606Y-5.8268
X0.9606Y-5.9169
X0.9606Y-6.0071
X1.0606Y-5.6016
X1.0606Y-5.6917
X1.0606Y-5.7819
X1.0606Y-5.872
X1.0606Y-5.9622
X2.9472Y-5.6016
X2.9472Y-5.6917
X2.9472Y-5.7819
X2.9472Y-5.872
X2.9472Y-5.9622
X3.0472Y-5.6465
X3.0472Y-5.7366
X3.0472Y-5.8268
X3.0472Y-5.9169
X3.0472Y-6.0071
X3.1472Y-5.6016
X3.1472Y-5.6917
X3.1472Y-5.7819
X3.1472Y-5.872
X3.1472Y-5.9622
T5
X3.2362Y-2.5083
X3.2362Y-2.6583
X3.2362Y-2.8083
X3.2362Y-2.9583
X3.2362Y-3.1083
X3.2362Y-3.2583
X3.2362Y-3.4083
X3.2362Y-3.5583
X3.2362Y-3.7083
X3.2362Y-3.8583
X3.4362Y-2.4333
X3.4362Y-2.5833
X3.4362Y-2.7333
X3.4362Y-2.8833
X3.4362Y-3.0333
X3.4362Y-3.1833
X3.4362Y-3.3333
X3.4362Y-3.4833
X3.4362Y-3.6333
X3.4362Y-3.7833
X3.4362Y-3.9333
X1.1496Y-2.5083
X1.1496Y-2.6583
X1.1496Y-2.8083
X1.1496Y-2.9583
X1.1496Y-3.1083
X1.1496Y-3.2583
X1.1496Y-3.4083
X1.1496Y-3.5583
X1.1496Y-3.7083
X1.1496Y-3.8583
X1.3496Y-2.4333
X1.3496Y-2.5833
X1.3496Y-2.7333
X1.3496Y-2.8833
X1.3496Y-3.0333
X1.3496Y-3.1833
X1.3496Y-3.3333
X1.3496Y-3.4833
X1.3496Y-3.6333
X1.3496Y-3.7833
X1.3496Y-3.9333
X1.1496Y-5.3823
X1.1496Y-5.5323
X1.1496Y-5.6823
X1.1496Y-5.8323
X1.1496Y-5.9823
X1.1496Y-6.1323
X1.1496Y-6.2823
X1.1496Y-6.4323
X1.1496Y-6.5823
X1.1496Y-6.7323
X1.3496Y-5.3073
X1.3496Y-5.4573
X1.3496Y-5.6073
X1.3496Y-5.7573
X1.3496Y-5.9073
X1.3496Y-6.0573
X1.3496Y-6.2073
X1.3496Y-6.3573
X1.3496Y-6.5073
X1.3496Y-6.6573
X1.3496Y-6.8073
X3.2362Y-5.3823
X3.2362Y-5.5323
X3.2362Y-5.6823
X3.2362Y-5.8323
X3.2362Y-5.9823
X3.2362Y-6.1323
X3.2362Y-6.2823
X3.2362Y-6.4323
X3.2362Y-6.5823
X3.2362Y-6.7323
X3.4362Y-5.3073
X3.4362Y-5.4573
X3.4362Y-5.6073
X3.4362Y-5.7573
X3.4362Y-5.9073
X3.4362Y-6.0573
X3.4362Y-6.2073
X3.4362Y-6.3573
X3.4362Y-6.5073
X3.4362Y-6.6573
X3.4362Y-6.8073
T6
X2.4252Y-5.0197
X2.4252Y-5.6102
X4.5118Y-5.0197
X4.5118Y-5.6102
X4.5118Y-2.1457
X4.5118Y-2.7362
X2.4252Y-2.1457
X2.4252Y-2.7362
T7
X2.7144Y-4.9003
X2.7144Y-5.7297
X4.801Y-4.9003
X4.801Y-5.7297
X4.801Y-2.0262
X4.801Y-2.8556
X2.7144Y-2.0262
X2.7144Y-2.8556
T8
X2.5906Y-4.5354
X2.5906Y-6.0945
X4.6772Y-4.5354
X4.6772Y-6.0945
X4.6772Y-1.6614
X4.6772Y-3.2205
X2.5906Y-1.6614
X2.5906Y-3.2205
T9
X3.0472Y-2.426
X3.0472Y-3.4102
X0.9606Y-2.426
X0.9606Y-3.4102
X0.9606Y-5.3
X0.9606Y-6.2843
X3.0472Y-5.3
X3.0472Y-6.2843
T10
X3.1496Y-2.1654
X1.063Y-2.1654
X1.063Y-4.2232
X1.063Y-5.0394
X1.063Y-7.0972
X3.1496Y-5.0394
X3.1496Y-7.0972
X3.1496Y-4.2232
T2
G00X0.8071Y-4.578
M15
G01X0.8307Y-4.578
M16
G05
G00X0.8071Y-4.9181
M15
G01X0.8307Y-4.9181
M16
G05
G00X0.9567Y-4.578
M15
G01X0.9803Y-4.578
M16
G05
G00X0.9567Y-4.9181
M15
G01X0.9803Y-4.9181
M16
G05
G00X2.8937Y-1.7039
M15
G01X2.9173Y-1.7039
M16
G05
G00X2.8937Y-2.0441
M15
G01X2.9173Y-2.0441
M16
G05
G00X3.0433Y-1.7039
M15
G01X3.0669Y-1.7039
M16
G05
G00X3.0433Y-2.0441
M15
G01X3.0669Y-2.0441
M16
G05
G00X2.8937Y-4.578
M15
G01X2.9173Y-4.578
M16
G05
G00X2.8937Y-4.9181
M15
G01X2.9173Y-4.9181
M16
G05
G00X3.0433Y-4.578
M15
G01X3.0669Y-4.578
M16
G05
G00X3.0433Y-4.9181
M15
G01X3.0669Y-4.9181
M16
G05
G00X0.8071Y-1.7039
M15
G01X0.8307Y-1.7039
M16
G05
G00X0.8071Y-2.0441
M15
G01X0.8307Y-2.0441
M16
G05
G00X0.9567Y-1.7039
M15
G01X0.9803Y-1.7039
M16
G05
G00X0.9567Y-2.0441
M15
G01X0.9803Y-2.0441
M16
G05
T3
G00X2.4311Y-3.5669
M15
G01X2.372Y-3.5669
M16
G05
G00X4.5177Y-6.9535
M15
G01X4.4587Y-6.9535
M16
G05
G00X2.4311Y-6.9535
M15
G01X2.372Y-6.9535
M16
G05
G00X4.5177Y-4.0795
M15
G01X4.4587Y-4.0795
M16
G05
G00X2.4311Y-6.4409
M15
G01X2.372Y-6.4409
M16
G05
G00X4.5177Y-3.5669
M15
G01X4.4587Y-3.5669
M16
G05
G00X4.5177Y-6.4409
M15
G01X4.4587Y-6.4409
M16
G05
G00X2.4311Y-4.0795
M15
G01X2.372Y-4.0795
M16
G05
T4
G00X2.378Y-4.5768
M15
G01X2.4488Y-4.5768
M16
G05
G00X2.378Y-4.872
M15
G01X2.4488Y-4.872
M16
G05
G00X2.378Y-5.1673
M15
G01X2.4488Y-5.1673
M16
G05
G00X2.378Y-5.4626
M15
G01X2.4488Y-5.4626
M16
G05
G00X2.378Y-5.7579
M15
G01X2.4488Y-5.7579
M16
G05
G00X2.378Y-6.0531
M15
G01X2.4488Y-6.0531
M16
G05
G00X2.5906Y-4.7563
M15
G01X2.5906Y-4.6925
M16
G05
G00X2.5906Y-5.3469
M15
G01X2.5906Y-5.2831
M16
G05
G00X2.5906Y-5.9374
M15
G01X2.5906Y-5.8736
M16
G05
G00X4.4646Y-4.5768
M15
G01X4.5354Y-4.5768
M16
G05
G00X4.4646Y-4.872
M15
G01X4.5354Y-4.872
M16
G05
G00X4.4646Y-5.1673
M15
G01X4.5354Y-5.1673
M16
G05
G00X4.4646Y-5.4626
M15
G01X4.5354Y-5.4626
M16
G05
G00X4.4646Y-5.7579
M15
G01X4.5354Y-5.7579
M16
G05
G00X4.4646Y-6.0531
M15
G01X4.5354Y-6.0531
M16
G05
G00X4.6772Y-4.7563
M15
G01X4.6772Y-4.6925
M16
G05
G00X4.6772Y-5.3469
M15
G01X4.6772Y-5.2831
M16
G05
G00X4.6772Y-5.9374
M15
G01X4.6772Y-5.8736
M16
G05
G00X4.4646Y-1.7028
M15
G01X4.5354Y-1.7028
M16
G05
G00X4.4646Y-1.998
M15
G01X4.5354Y-1.998
M16
G05
G00X4.4646Y-2.2933
M15
G01X4.5354Y-2.2933
M16
G05
G00X4.4646Y-2.5886
M15
G01X4.5354Y-2.5886
M16
G05
G00X4.4646Y-2.8839
M15
G01X4.5354Y-2.8839
M16
G05
G00X4.4646Y-3.1791
M15
G01X4.5354Y-3.1791
M16
G05
G00X4.6772Y-1.8823
M15
G01X4.6772Y-1.8185
M16
G05
G00X4.6772Y-2.4728
M15
G01X4.6772Y-2.4091
M16
G05
G00X4.6772Y-3.0634
M15
G01X4.6772Y-2.9996
M16
G05
G00X2.378Y-1.7028
M15
G01X2.4488Y-1.7028
M16
G05
G00X2.378Y-1.998
M15
G01X2.4488Y-1.998
M16
G05
G00X2.378Y-2.2933
M15
G01X2.4488Y-2.2933
M16
G05
G00X2.378Y-2.5886
M15
G01X2.4488Y-2.5886
M16
G05
G00X2.378Y-2.8839
M15
G01X2.4488Y-2.8839
M16
G05
G00X2.378Y-3.1791
M15
G01X2.4488Y-3.1791
M16
G05
G00X2.5906Y-1.8823
M15
G01X2.5906Y-1.8185
M16
G05
G00X2.5906Y-2.4728
M15
G01X2.5906Y-2.4091
M16
G05
G00X2.5906Y-3.0634
M15
G01X2.5906Y-2.9996
M16
G05
T5
G00X2.5787Y-4.0559
M15
G01X2.5787Y-4.1031
M16
G05
G00X2.5787Y-3.5433
M15
G01X2.5787Y-3.5906
M16
G05
G00X4.6654Y-6.9299
M15
G01X4.6654Y-6.9772
M16
G05
G00X2.5787Y-6.9299
M15
G01X2.5787Y-6.9772
M16
G05
G00X4.6654Y-4.0559
M15
G01X4.6654Y-4.1031
M16
G05
G00X2.5787Y-6.4173
M15
G01X2.5787Y-6.4646
M16
G05
G00X4.6654Y-3.5433
M15
G01X4.6654Y-3.5906
M16
G05
G00X4.6654Y-6.4173
M15
G01X4.6654Y-6.4646
M16
G05
T0
M30
