%TF.GenerationSoftware,KiCad,Pcbnew,(5.1.9)-1*%
%TF.CreationDate,2021-05-10T07:03:42+12:00*%
%TF.ProjectId,output.RGB-to-component-panel,6f757470-7574-42e5-9247-422d746f2d63,rev?*%
%TF.SameCoordinates,Original*%
%TF.FileFunction,Soldermask,Bot*%
%TF.FilePolarity,Negative*%
%FSLAX46Y46*%
G04 Gerber Fmt 4.6, Leading zero omitted, Abs format (unit mm)*
G04 Created by KiCad (PCBNEW (5.1.9)-1) date 2021-05-10 07:03:42*
%MOMM*%
%LPD*%
G01*
G04 APERTURE LIST*
%ADD10O,4.102000X3.102000*%
%ADD11O,2.602000X2.602000*%
%ADD12O,3.102000X4.102000*%
%ADD13C,2.402000*%
%ADD14C,2.102000*%
%ADD15C,2.302000*%
%ADD16O,3.102000X3.102000*%
%ADD17C,1.702000*%
%ADD18C,4.602000*%
%ADD19C,4.102000*%
%ADD20O,1.802000X1.202000*%
%ADD21C,0.902000*%
%ADD22C,0.100000*%
G04 APERTURE END LIST*
D10*
X61400000Y-137000000D03*
D11*
X65900000Y-156800000D03*
X65900000Y-117200000D03*
D12*
X65900000Y-122000000D03*
X65900000Y-137000000D03*
X65900000Y-152000000D03*
D10*
X61400000Y-152000000D03*
X61400000Y-122000000D03*
D13*
X69044520Y-126466620D03*
X69044520Y-147533380D03*
D14*
X61700000Y-144500000D03*
X61700000Y-129500000D03*
D15*
X122750000Y-174370000D03*
X122750000Y-182870000D03*
D16*
X119600000Y-178620000D03*
X115100000Y-178620000D03*
X61100000Y-178620000D03*
X65600000Y-178620000D03*
D15*
X68750000Y-182870000D03*
X68750000Y-174370000D03*
D16*
X61100000Y-165600000D03*
X65600000Y-165600000D03*
D15*
X68750000Y-169850000D03*
X68750000Y-161350000D03*
D17*
X24500000Y-150000000D03*
X24500000Y-147710000D03*
X24500000Y-145420000D03*
X27040000Y-153440000D03*
X27040000Y-151150000D03*
X27040000Y-148860000D03*
X27040000Y-146570000D03*
X27040000Y-144280000D03*
X24500000Y-154580000D03*
X24500000Y-152290000D03*
X21960000Y-153440000D03*
X21960000Y-151150000D03*
X21960000Y-148860000D03*
X21960000Y-146570000D03*
X21960000Y-144280000D03*
D18*
X24500000Y-161620000D03*
X24500000Y-136620000D03*
X78500000Y-136620000D03*
X78500000Y-161620000D03*
D17*
X75960000Y-144280000D03*
X75960000Y-146570000D03*
X75960000Y-148860000D03*
X75960000Y-151150000D03*
X75960000Y-153440000D03*
X78500000Y-152290000D03*
X78500000Y-154580000D03*
X81040000Y-144280000D03*
X81040000Y-146570000D03*
X81040000Y-148860000D03*
X81040000Y-151150000D03*
X81040000Y-153440000D03*
X78500000Y-145420000D03*
X78500000Y-147710000D03*
X78500000Y-150000000D03*
D15*
X122750000Y-161350000D03*
X122750000Y-169850000D03*
D16*
X119600000Y-165600000D03*
X115100000Y-165600000D03*
D15*
X88380000Y-174905000D03*
X88380000Y-136805000D03*
X83300000Y-142520000D03*
X88380000Y-140615000D03*
X83300000Y-146330000D03*
X88380000Y-144425000D03*
X83300000Y-150140000D03*
X88380000Y-148235000D03*
X83300000Y-138710000D03*
X88380000Y-152045000D03*
X83300000Y-153950000D03*
X88380000Y-155855000D03*
X83300000Y-157760000D03*
X88380000Y-159665000D03*
X83300000Y-161570000D03*
X88380000Y-163475000D03*
X83300000Y-165380000D03*
X88380000Y-167285000D03*
X83300000Y-169190000D03*
X88380000Y-171095000D03*
X83300000Y-173000000D03*
D19*
X81100000Y-130000000D03*
X81100000Y-182270000D03*
D14*
X115700000Y-129500000D03*
X115700000Y-144500000D03*
D13*
X123044520Y-147533380D03*
X123044520Y-126466620D03*
D10*
X115400000Y-122000000D03*
X115400000Y-152000000D03*
D12*
X119900000Y-152000000D03*
X119900000Y-137000000D03*
X119900000Y-122000000D03*
D11*
X119900000Y-117200000D03*
X119900000Y-156800000D03*
D10*
X115400000Y-137000000D03*
D19*
X27100000Y-182270000D03*
X27100000Y-130000000D03*
D15*
X29300000Y-173000000D03*
X34380000Y-171095000D03*
X29300000Y-169190000D03*
X34380000Y-167285000D03*
X29300000Y-165380000D03*
X34380000Y-163475000D03*
X29300000Y-161570000D03*
X34380000Y-159665000D03*
X29300000Y-157760000D03*
X34380000Y-155855000D03*
X29300000Y-153950000D03*
X34380000Y-152045000D03*
X29300000Y-138710000D03*
X34380000Y-148235000D03*
X29300000Y-150140000D03*
X34380000Y-144425000D03*
X29300000Y-146330000D03*
X34380000Y-140615000D03*
X29300000Y-142520000D03*
X34380000Y-136805000D03*
X34380000Y-174905000D03*
D20*
X78700000Y-118280000D03*
X78700000Y-126920000D03*
X74900000Y-126920000D03*
X74900000Y-118280000D03*
X20900000Y-118280000D03*
X20900000Y-126920000D03*
X24700000Y-126920000D03*
X24700000Y-118280000D03*
D10*
X115400000Y-62000000D03*
D11*
X119900000Y-81800000D03*
X119900000Y-42200000D03*
D12*
X119900000Y-47000000D03*
X119900000Y-62000000D03*
X119900000Y-77000000D03*
D10*
X115400000Y-77000000D03*
X115400000Y-47000000D03*
D13*
X123044520Y-51466620D03*
X123044520Y-72533380D03*
D14*
X115700000Y-69500000D03*
X115700000Y-54500000D03*
D16*
X115100000Y-103620000D03*
X119600000Y-103620000D03*
D15*
X122750000Y-107870000D03*
X122750000Y-99370000D03*
D16*
X115100000Y-90600000D03*
X119600000Y-90600000D03*
D15*
X122750000Y-94850000D03*
X122750000Y-86350000D03*
D17*
X78500000Y-75000000D03*
X78500000Y-72710000D03*
X78500000Y-70420000D03*
X81040000Y-78440000D03*
X81040000Y-76150000D03*
X81040000Y-73860000D03*
X81040000Y-71570000D03*
X81040000Y-69280000D03*
X78500000Y-79580000D03*
X78500000Y-77290000D03*
X75960000Y-78440000D03*
X75960000Y-76150000D03*
X75960000Y-73860000D03*
X75960000Y-71570000D03*
X75960000Y-69280000D03*
D18*
X78500000Y-86620000D03*
X78500000Y-61620000D03*
D19*
X81100000Y-107270000D03*
X81100000Y-55000000D03*
D15*
X83300000Y-98000000D03*
X88380000Y-96095000D03*
X83300000Y-94190000D03*
X88380000Y-92285000D03*
X83300000Y-90380000D03*
X88380000Y-88475000D03*
X83300000Y-86570000D03*
X88380000Y-84665000D03*
X83300000Y-82760000D03*
X88380000Y-80855000D03*
X83300000Y-78950000D03*
X88380000Y-77045000D03*
X83300000Y-63710000D03*
X88380000Y-73235000D03*
X83300000Y-75140000D03*
X88380000Y-69425000D03*
X83300000Y-71330000D03*
X88380000Y-65615000D03*
X83300000Y-67520000D03*
X88380000Y-61805000D03*
X88380000Y-99905000D03*
D20*
X74900000Y-43280000D03*
X74900000Y-51920000D03*
X78700000Y-51920000D03*
X78700000Y-43280000D03*
D14*
X61700000Y-54500000D03*
X61700000Y-69500000D03*
D13*
X69044520Y-72533380D03*
X69044520Y-51466620D03*
D10*
X61400000Y-47000000D03*
X61400000Y-77000000D03*
D12*
X65900000Y-77000000D03*
X65900000Y-62000000D03*
X65900000Y-47000000D03*
D11*
X65900000Y-42200000D03*
X65900000Y-81800000D03*
D10*
X61400000Y-62000000D03*
D15*
X68750000Y-86350000D03*
X68750000Y-94850000D03*
D16*
X65600000Y-90600000D03*
X61100000Y-90600000D03*
D15*
X68750000Y-99370000D03*
X68750000Y-107870000D03*
D16*
X65600000Y-103620000D03*
X61100000Y-103620000D03*
D18*
X24500000Y-61620000D03*
X24500000Y-86620000D03*
D17*
X21960000Y-69280000D03*
X21960000Y-71570000D03*
X21960000Y-73860000D03*
X21960000Y-76150000D03*
X21960000Y-78440000D03*
X24500000Y-77290000D03*
X24500000Y-79580000D03*
X27040000Y-69280000D03*
X27040000Y-71570000D03*
X27040000Y-73860000D03*
X27040000Y-76150000D03*
X27040000Y-78440000D03*
X24500000Y-70420000D03*
X24500000Y-72710000D03*
X24500000Y-75000000D03*
D15*
X34380000Y-99905000D03*
X34380000Y-61805000D03*
X29300000Y-67520000D03*
X34380000Y-65615000D03*
X29300000Y-71330000D03*
X34380000Y-69425000D03*
X29300000Y-75140000D03*
X34380000Y-73235000D03*
X29300000Y-63710000D03*
X34380000Y-77045000D03*
X29300000Y-78950000D03*
X34380000Y-80855000D03*
X29300000Y-82760000D03*
X34380000Y-84665000D03*
X29300000Y-86570000D03*
X34380000Y-88475000D03*
X29300000Y-90380000D03*
X34380000Y-92285000D03*
X29300000Y-94190000D03*
X34380000Y-96095000D03*
X29300000Y-98000000D03*
D19*
X27100000Y-55000000D03*
X27100000Y-107270000D03*
D20*
X24700000Y-43280000D03*
X24700000Y-51920000D03*
X20900000Y-51920000D03*
X20900000Y-43280000D03*
D21*
X109593629Y-109649999D03*
X110746806Y-109649999D03*
X111899983Y-109649999D03*
X113053160Y-109649999D03*
X114206337Y-109649999D03*
X114206341Y-115350001D03*
X113053164Y-115350001D03*
X111899987Y-115350001D03*
X110746810Y-115350001D03*
X109593633Y-115350001D03*
X83593659Y-109650000D03*
X84746830Y-109650000D03*
X85900001Y-109650000D03*
X87053172Y-109650000D03*
X88206343Y-109650000D03*
X88206339Y-115350000D03*
X87053168Y-115350000D03*
X85899997Y-115350000D03*
X84746826Y-115350000D03*
X83593655Y-115350000D03*
X54593651Y-109650000D03*
X55746827Y-109650000D03*
X56900003Y-109650000D03*
X58053179Y-109650000D03*
X59206355Y-109650000D03*
X59206349Y-115350000D03*
X58053173Y-115350000D03*
X56899997Y-115350000D03*
X55746821Y-115350000D03*
X54593645Y-115350000D03*
X29593659Y-109650001D03*
X30746825Y-109650001D03*
X31899991Y-109650001D03*
X33053157Y-109650001D03*
X34206323Y-109650001D03*
X34206326Y-115349999D03*
X33053160Y-115349999D03*
X31899994Y-115349999D03*
X30746828Y-115349999D03*
X29593662Y-115349999D03*
X69550001Y-136306371D03*
X69550001Y-135153184D03*
X69550001Y-133999997D03*
X69550001Y-132846810D03*
X69550001Y-131693623D03*
X74249999Y-131693629D03*
X74249999Y-132846816D03*
X74249999Y-134000003D03*
X74249999Y-135153190D03*
X74249999Y-136306377D03*
X69550000Y-168306371D03*
X69550000Y-167153197D03*
X69550000Y-166000023D03*
X69550000Y-164846849D03*
X69550000Y-163693675D03*
X74250000Y-163693674D03*
X74250000Y-164846848D03*
X74250000Y-166000022D03*
X74250000Y-167153196D03*
X74250000Y-168306370D03*
X69550001Y-61306371D03*
X69550001Y-60153184D03*
X69550001Y-58999997D03*
X69550001Y-57846810D03*
X69550001Y-56693623D03*
X74249999Y-56693629D03*
X74249999Y-57846816D03*
X74249999Y-59000003D03*
X74249999Y-60153190D03*
X74249999Y-61306377D03*
X69550000Y-93306371D03*
X69550000Y-92153197D03*
X69550000Y-91000023D03*
X69550000Y-89846849D03*
X69550000Y-88693675D03*
X74250000Y-88693674D03*
X74250000Y-89846848D03*
X74250000Y-91000022D03*
X74250000Y-92153196D03*
X74250000Y-93306370D03*
D22*
G36*
X69177830Y-168553648D02*
G01*
X69202926Y-168591208D01*
X69265163Y-168653445D01*
X69338347Y-168702344D01*
X69419664Y-168736027D01*
X69505993Y-168753199D01*
X69569330Y-168753199D01*
X69571062Y-168754199D01*
X69571062Y-168756199D01*
X69569526Y-168757189D01*
X69551451Y-168758969D01*
X69528376Y-168765969D01*
X69507112Y-168777334D01*
X69488475Y-168792629D01*
X69473180Y-168811266D01*
X69461815Y-168832530D01*
X69454815Y-168855605D01*
X69452452Y-168879596D01*
X69454815Y-168903587D01*
X69461815Y-168926662D01*
X69473180Y-168947926D01*
X69484701Y-168961964D01*
X69485027Y-168963938D01*
X69483481Y-168965206D01*
X69481741Y-168964647D01*
X69478913Y-168961819D01*
X69291631Y-168836682D01*
X69083536Y-168750486D01*
X69050664Y-168743947D01*
X69049160Y-168742628D01*
X69049550Y-168740666D01*
X69051250Y-168739995D01*
X69069338Y-168741777D01*
X69093329Y-168739414D01*
X69116404Y-168732414D01*
X69137668Y-168721049D01*
X69156305Y-168705754D01*
X69171600Y-168687117D01*
X69182965Y-168665853D01*
X69189965Y-168642778D01*
X69192328Y-168618787D01*
X69189965Y-168594796D01*
X69182965Y-168571721D01*
X69174403Y-168555702D01*
X69174469Y-168553703D01*
X69176232Y-168552760D01*
X69177830Y-168553648D01*
G37*
G36*
X69177830Y-93553648D02*
G01*
X69202926Y-93591208D01*
X69265163Y-93653445D01*
X69338347Y-93702344D01*
X69419664Y-93736027D01*
X69505993Y-93753199D01*
X69569330Y-93753199D01*
X69571062Y-93754199D01*
X69571062Y-93756199D01*
X69569526Y-93757189D01*
X69551451Y-93758969D01*
X69528376Y-93765969D01*
X69507112Y-93777334D01*
X69488475Y-93792629D01*
X69473180Y-93811266D01*
X69461815Y-93832530D01*
X69454815Y-93855605D01*
X69452452Y-93879596D01*
X69454815Y-93903587D01*
X69461815Y-93926662D01*
X69473180Y-93947926D01*
X69484701Y-93961964D01*
X69485027Y-93963938D01*
X69483481Y-93965206D01*
X69481741Y-93964647D01*
X69478913Y-93961819D01*
X69291631Y-93836682D01*
X69083536Y-93750486D01*
X69050664Y-93743947D01*
X69049160Y-93742628D01*
X69049550Y-93740666D01*
X69051250Y-93739995D01*
X69069338Y-93741777D01*
X69093329Y-93739414D01*
X69116404Y-93732414D01*
X69137668Y-93721049D01*
X69156305Y-93705754D01*
X69171600Y-93687117D01*
X69182965Y-93665853D01*
X69189965Y-93642778D01*
X69192328Y-93618787D01*
X69189965Y-93594796D01*
X69182965Y-93571721D01*
X69174403Y-93555702D01*
X69174469Y-93553703D01*
X69176232Y-93552760D01*
X69177830Y-93553648D01*
G37*
M02*
