M48
; DRILL file {KiCad (5.1.5)-2} date 02/11/2020 10:43:13
; FORMAT={-:-/ absolute / inch / decimal}
; #@! TF.CreationDate,2020-11-02T10:43:13+13:00
; #@! TF.GenerationSoftware,Kicad,Pcbnew,(5.1.5)-2
; #@! TF.FileFunction,Plated,1,2,PTH
FMAT,2
INCH
T1C0.0157
T2C0.0236
T3C0.0394
T4C0.0472
T5C0.0512
T6C0.0787
T7C0.0906
T8C0.0984
T9C0.1260
T10C0.1417
%
G90
G05
T1
X1.2835Y-2.5827
X1.2835Y-5.5354
X1.3425Y-2.6969
X1.3425Y-5.6496
X1.3898Y-4.126
X1.3898Y-7.0787
X1.3976Y-4.4173
X1.3976Y-7.3701
X1.4291Y-2.437
X1.4291Y-5.3898
X1.4803Y-3.5787
X1.4803Y-3.7677
X1.4803Y-6.5315
X1.4803Y-6.7205
X1.4921Y-2.0945
X1.4921Y-5.0472
X1.4982Y-3.9195
X1.4982Y-6.8722
X1.5157Y-3.311
X1.5157Y-4.3858
X1.5157Y-6.2638
X1.5157Y-7.3386
X1.5394Y-2.4764
X1.5394Y-5.4291
X1.5591Y-2.185
X1.5591Y-5.1378
X1.563Y-4.6024
X1.563Y-7.5551
X1.6024Y-3.7638
X1.6024Y-6.7165
X1.6299Y-4.4882
X1.6299Y-7.4409
X1.6457Y-3.6102
X1.6457Y-6.563
X1.6535Y-2.7087
X1.6535Y-4.3071
X1.6535Y-5.6614
X1.6535Y-7.2598
X1.6614Y-2.3425
X1.6614Y-5.2953
X1.6654Y-3.9724
X1.6654Y-6.9252
X1.6693Y-3.4685
X1.6693Y-6.4213
X1.689Y-3.8622
X1.689Y-6.815
X1.6929Y-3.6929
X1.6929Y-6.6457
X1.811Y-2.1732
X1.811Y-5.126
X1.815Y-4.4528
X1.815Y-7.4055
X1.8189Y-2.0906
X1.8189Y-3.5591
X1.8189Y-3.8425
X1.8189Y-4.563
X1.8189Y-5.0433
X1.8189Y-6.5118
X1.8189Y-6.7953
X1.8189Y-7.5157
X1.8228Y-2.4961
X1.8228Y-5.4488
X1.8307Y-4.6732
X1.8307Y-7.626
X1.874Y-2.2205
X1.874Y-2.7165
X1.874Y-5.1732
X1.874Y-5.6693
X1.878Y-2.8937
X1.878Y-5.8465
X1.8819Y-2.3031
X1.8819Y-5.2559
X1.9291Y-3.5748
X1.9291Y-6.5276
X1.9764Y-3.3228
X1.9764Y-6.2756
X1.9921Y-3.0236
X1.9921Y-3.5197
X1.9921Y-5.9764
X1.9921Y-6.4724
X1.9961Y-2.8819
X1.9961Y-5.8346
X2.0Y-2.7165
X2.0Y-3.9764
X2.0Y-5.6693
X2.0Y-6.9291
X2.01Y-2.5294
X2.01Y-5.4821
X2.0157Y-3.8071
X2.0157Y-6.7598
X2.0315Y-2.5827
X2.0315Y-5.5354
X2.0472Y-2.3898
X2.0472Y-5.3425
X2.0512Y-3.4213
X2.0512Y-6.374
X2.0591Y-3.2402
X2.0591Y-6.1929
X2.063Y-3.122
X2.063Y-6.0748
X2.0748Y-2.8386
X2.0748Y-5.7913
X2.0984Y-4.5512
X2.0984Y-7.5039
X2.1024Y-4.4449
X2.1024Y-7.3976
X2.1063Y-2.7126
X2.1063Y-5.6654
X2.1102Y-3.4724
X2.1102Y-6.4252
X2.126Y-2.9528
X2.126Y-5.9055
X2.1299Y-3.0669
X2.1299Y-6.0197
X2.1344Y-2.4336
X2.1344Y-5.3863
X2.1417Y-2.7756
X2.1417Y-4.7047
X2.1417Y-5.7283
X2.1417Y-7.6575
X2.1614Y-3.2992
X2.1614Y-6.252
X2.1772Y-2.8543
X2.1772Y-5.8071
X2.1811Y-3.5394
X2.1811Y-6.4921
X2.189Y-2.9449
X2.189Y-3.3819
X2.189Y-5.8976
X2.189Y-6.3346
X2.2087Y-2.5669
X2.2087Y-5.5197
X2.2126Y-2.7795
X2.2126Y-5.7323
X2.2441Y-3.4646
X2.2441Y-6.4173
X2.248Y-4.0039
X2.248Y-6.9567
X2.252Y-3.1102
X2.252Y-3.2677
X2.252Y-6.063
X2.252Y-6.2205
X2.2677Y-2.4331
X2.2677Y-5.3858
X2.2717Y-3.6102
X2.2717Y-6.563
X2.2835Y-2.3425
X2.2835Y-2.5669
X2.2835Y-5.2953
X2.2835Y-5.5197
X2.2874Y-2.8268
X2.2874Y-5.7795
X2.2913Y-2.752
X2.2913Y-3.1732
X2.2913Y-5.7047
X2.2913Y-6.126
X2.315Y-2.1654
X2.315Y-5.1181
X2.3228Y-2.6614
X2.3228Y-3.4567
X2.3228Y-5.6142
X2.3228Y-6.4094
X2.3543Y-2.9606
X2.3543Y-3.0394
X2.3543Y-3.1732
X2.3543Y-5.9134
X2.3543Y-5.9921
X2.3543Y-6.126
X2.3858Y-2.6181
X2.3858Y-3.3622
X2.3858Y-3.4921
X2.3858Y-3.5669
X2.3858Y-5.5709
X2.3858Y-6.315
X2.3858Y-6.4449
X2.3858Y-6.5197
X2.4291Y-3.1654
X2.4291Y-6.1181
X2.4331Y-2.9055
X2.4331Y-3.6024
X2.4331Y-5.8583
X2.4331Y-6.5551
X2.4567Y-4.4606
X2.4567Y-7.4134
X2.4646Y-3.4016
X2.4646Y-3.4606
X2.4646Y-6.3543
X2.4646Y-6.4134
X2.4685Y-3.0827
X2.4685Y-6.0354
X2.4843Y-2.1614
X2.4843Y-5.1142
X2.5Y-3.5039
X2.5Y-6.4567
X2.5079Y-3.3543
X2.5079Y-3.6417
X2.5079Y-6.3071
X2.5079Y-6.5945
X2.5354Y-4.6535
X2.5354Y-7.6063
X2.5433Y-2.6693
X2.5433Y-5.622
X2.563Y-4.5669
X2.563Y-7.5197
X2.5748Y-3.0591
X2.5748Y-6.0118
X2.6024Y-4.378
X2.6024Y-7.3307
X2.6063Y-3.3701
X2.6063Y-6.3228
X2.6496Y-2.6929
X2.6496Y-5.6457
X2.6575Y-3.4449
X2.6575Y-6.3976
X2.685Y-3.5394
X2.685Y-6.4921
X2.6969Y-3.0906
X2.6969Y-6.0433
X2.7244Y-3.3898
X2.7244Y-6.3425
X2.7323Y-4.6575
X2.7323Y-7.6102
X2.748Y-4.1732
X2.748Y-7.126
X2.7598Y-4.4055
X2.7598Y-7.3583
X2.8898Y-4.1654
X2.8898Y-7.1181
X3.4488Y-2.5827
X3.4488Y-5.5354
X3.5079Y-2.6969
X3.5079Y-5.6496
X3.5551Y-4.126
X3.5551Y-7.0787
X3.563Y-4.4173
X3.563Y-7.3701
X3.5945Y-2.437
X3.5945Y-5.3898
X3.6457Y-3.5787
X3.6457Y-3.7677
X3.6457Y-6.5315
X3.6457Y-6.7205
X3.6575Y-2.0945
X3.6575Y-5.0472
X3.6636Y-3.9195
X3.6636Y-6.8722
X3.6811Y-3.311
X3.6811Y-4.3858
X3.6811Y-6.2638
X3.6811Y-7.3386
X3.7047Y-2.4764
X3.7047Y-5.4291
X3.7244Y-2.185
X3.7244Y-5.1378
X3.7283Y-4.6024
X3.7283Y-7.5551
X3.7677Y-3.7638
X3.7677Y-6.7165
X3.7953Y-4.4882
X3.7953Y-7.4409
X3.811Y-3.6102
X3.811Y-6.563
X3.8189Y-2.7087
X3.8189Y-4.3071
X3.8189Y-5.6614
X3.8189Y-7.2598
X3.8268Y-2.3425
X3.8268Y-5.2953
X3.8307Y-3.9724
X3.8307Y-6.9252
X3.8346Y-3.4685
X3.8346Y-6.4213
X3.8543Y-3.8622
X3.8543Y-6.815
X3.8583Y-3.6929
X3.8583Y-6.6457
X3.9764Y-2.1732
X3.9764Y-5.126
X3.9803Y-4.4528
X3.9803Y-7.4055
X3.9843Y-2.0906
X3.9843Y-3.5591
X3.9843Y-3.8425
X3.9843Y-4.563
X3.9843Y-5.0433
X3.9843Y-6.5118
X3.9843Y-6.7953
X3.9843Y-7.5157
X3.9882Y-2.4961
X3.9882Y-5.4488
X3.9961Y-4.6732
X3.9961Y-7.626
X4.0394Y-2.2205
X4.0394Y-2.7165
X4.0394Y-5.1732
X4.0394Y-5.6693
X4.0433Y-2.8937
X4.0433Y-5.8465
X4.0472Y-2.3031
X4.0472Y-5.2559
X4.0945Y-3.5748
X4.0945Y-6.5276
X4.1417Y-3.3228
X4.1417Y-6.2756
X4.1575Y-3.0236
X4.1575Y-3.5197
X4.1575Y-5.9764
X4.1575Y-6.4724
X4.1614Y-2.8819
X4.1614Y-5.8346
X4.1654Y-2.7165
X4.1654Y-3.9764
X4.1654Y-5.6693
X4.1654Y-6.9291
X4.1754Y-2.5294
X4.1754Y-5.4821
X4.1811Y-3.8071
X4.1811Y-6.7598
X4.1969Y-2.5827
X4.1969Y-5.5354
X4.2126Y-2.3898
X4.2126Y-5.3425
X4.2165Y-3.4213
X4.2165Y-6.374
X4.2244Y-3.2402
X4.2244Y-6.1929
X4.2283Y-3.122
X4.2283Y-6.0748
X4.2402Y-2.8386
X4.2402Y-5.7913
X4.2638Y-4.5512
X4.2638Y-7.5039
X4.2677Y-4.4449
X4.2677Y-7.3976
X4.2717Y-2.7126
X4.2717Y-5.6654
X4.2756Y-3.4724
X4.2756Y-6.4252
X4.2913Y-2.9528
X4.2913Y-5.9055
X4.2953Y-3.0669
X4.2953Y-6.0197
X4.2997Y-2.4336
X4.2997Y-5.3863
X4.3071Y-2.7756
X4.3071Y-4.7047
X4.3071Y-5.7283
X4.3071Y-7.6575
X4.3268Y-3.2992
X4.3268Y-6.252
X4.3425Y-2.8543
X4.3425Y-5.8071
X4.3465Y-3.5394
X4.3465Y-6.4921
X4.3543Y-2.9449
X4.3543Y-3.3819
X4.3543Y-5.8976
X4.3543Y-6.3346
X4.374Y-2.5669
X4.374Y-5.5197
X4.378Y-2.7795
X4.378Y-5.7323
X4.4094Y-3.4646
X4.4094Y-6.4173
X4.4134Y-4.0039
X4.4134Y-6.9567
X4.4173Y-3.1102
X4.4173Y-3.2677
X4.4173Y-6.063
X4.4173Y-6.2205
X4.4331Y-2.4331
X4.4331Y-5.3858
X4.437Y-3.6102
X4.437Y-6.563
X4.4488Y-2.3425
X4.4488Y-2.5669
X4.4488Y-5.2953
X4.4488Y-5.5197
X4.4528Y-2.8268
X4.4528Y-5.7795
X4.4567Y-2.752
X4.4567Y-3.1732
X4.4567Y-5.7047
X4.4567Y-6.126
X4.4803Y-2.1654
X4.4803Y-5.1181
X4.4882Y-2.6614
X4.4882Y-3.4567
X4.4882Y-5.6142
X4.4882Y-6.4094
X4.5197Y-2.9606
X4.5197Y-3.0394
X4.5197Y-3.1732
X4.5197Y-5.9134
X4.5197Y-5.9921
X4.5197Y-6.126
X4.5512Y-2.6181
X4.5512Y-3.3622
X4.5512Y-3.4921
X4.5512Y-3.5669
X4.5512Y-5.5709
X4.5512Y-6.315
X4.5512Y-6.4449
X4.5512Y-6.5197
X4.5945Y-3.1654
X4.5945Y-6.1181
X4.5984Y-2.9055
X4.5984Y-3.6024
X4.5984Y-5.8583
X4.5984Y-6.5551
X4.622Y-4.4606
X4.622Y-7.4134
X4.6299Y-3.4016
X4.6299Y-3.4606
X4.6299Y-6.3543
X4.6299Y-6.4134
X4.6339Y-3.0827
X4.6339Y-6.0354
X4.6496Y-2.1614
X4.6496Y-5.1142
X4.6654Y-3.5039
X4.6654Y-6.4567
X4.6732Y-3.3543
X4.6732Y-3.6417
X4.6732Y-6.3071
X4.6732Y-6.5945
X4.7008Y-4.6535
X4.7008Y-7.6063
X4.7087Y-2.6693
X4.7087Y-5.622
X4.7283Y-4.5669
X4.7283Y-7.5197
X4.7402Y-3.0591
X4.7402Y-6.0118
X4.7677Y-4.378
X4.7677Y-7.3307
X4.7717Y-3.3701
X4.7717Y-6.3228
X4.815Y-2.6929
X4.815Y-5.6457
X4.8228Y-3.4449
X4.8228Y-6.3976
X4.8504Y-3.5394
X4.8504Y-6.4921
X4.8622Y-3.0906
X4.8622Y-6.0433
X4.8898Y-3.3898
X4.8898Y-6.3425
X4.8976Y-4.6575
X4.8976Y-7.6102
X4.9134Y-4.1732
X4.9134Y-7.126
X4.9252Y-4.4055
X4.9252Y-7.3583
X5.0551Y-4.1654
X5.0551Y-7.1181
T3
X1.2543Y-3.1606
X1.2543Y-3.2508
X1.2543Y-3.3409
X1.2543Y-3.4311
X1.2543Y-3.5213
X1.3543Y-3.2055
X1.3543Y-3.2957
X1.3543Y-3.3858
X1.3543Y-3.476
X1.3543Y-3.5661
X1.4543Y-3.1606
X1.4543Y-3.2508
X1.4543Y-3.3409
X1.4543Y-3.4311
X1.4543Y-3.5213
X1.2543Y-6.1134
X1.2543Y-6.2035
X1.2543Y-6.2937
X1.2543Y-6.3839
X1.2543Y-6.474
X1.3543Y-6.1583
X1.3543Y-6.2484
X1.3543Y-6.3386
X1.3543Y-6.4287
X1.3543Y-6.5189
X1.4543Y-6.1134
X1.4543Y-6.2035
X1.4543Y-6.2937
X1.4543Y-6.3839
X1.4543Y-6.474
X3.4197Y-3.1606
X3.4197Y-3.2508
X3.4197Y-3.3409
X3.4197Y-3.4311
X3.4197Y-3.5213
X3.5197Y-3.2055
X3.5197Y-3.2957
X3.5197Y-3.3858
X3.5197Y-3.476
X3.5197Y-3.5661
X3.6197Y-3.1606
X3.6197Y-3.2508
X3.6197Y-3.3409
X3.6197Y-3.4311
X3.6197Y-3.5213
X3.4197Y-6.1134
X3.4197Y-6.2035
X3.4197Y-6.2937
X3.4197Y-6.3839
X3.4197Y-6.474
X3.5197Y-6.1583
X3.5197Y-6.2484
X3.5197Y-6.3386
X3.5197Y-6.4287
X3.5197Y-6.5189
X3.6197Y-6.1134
X3.6197Y-6.2035
X3.6197Y-6.2937
X3.6197Y-6.3839
X3.6197Y-6.474
T5
X1.5433Y-5.8941
X1.5433Y-6.0441
X1.5433Y-6.1941
X1.5433Y-6.3441
X1.5433Y-6.4941
X1.5433Y-6.6441
X1.5433Y-6.7941
X1.5433Y-6.9441
X1.5433Y-7.0941
X1.5433Y-7.2441
X1.7433Y-5.8191
X1.7433Y-5.9691
X1.7433Y-6.1191
X1.7433Y-6.2691
X1.7433Y-6.4191
X1.7433Y-6.5691
X1.7433Y-6.7191
X1.7433Y-6.8691
X1.7433Y-7.0191
X1.7433Y-7.1691
X1.7433Y-7.3191
X3.7087Y-2.9413
X3.7087Y-3.0913
X3.7087Y-3.2413
X3.7087Y-3.3913
X3.7087Y-3.5413
X3.7087Y-3.6913
X3.7087Y-3.8413
X3.7087Y-3.9913
X3.7087Y-4.1413
X3.7087Y-4.2913
X3.9087Y-2.8663
X3.9087Y-3.0163
X3.9087Y-3.1663
X3.9087Y-3.3163
X3.9087Y-3.4663
X3.9087Y-3.6163
X3.9087Y-3.7663
X3.9087Y-3.9163
X3.9087Y-4.0663
X3.9087Y-4.2163
X3.9087Y-4.3663
X3.7087Y-5.8941
X3.7087Y-6.0441
X3.7087Y-6.1941
X3.7087Y-6.3441
X3.7087Y-6.4941
X3.7087Y-6.6441
X3.7087Y-6.7941
X3.7087Y-6.9441
X3.7087Y-7.0941
X3.7087Y-7.2441
X3.9087Y-5.8191
X3.9087Y-5.9691
X3.9087Y-6.1191
X3.9087Y-6.2691
X3.9087Y-6.4191
X3.9087Y-6.5691
X3.9087Y-6.7191
X3.9087Y-6.8691
X3.9087Y-7.0191
X3.9087Y-7.1691
X3.9087Y-7.3191
X1.5433Y-2.9413
X1.5433Y-3.0913
X1.5433Y-3.2413
X1.5433Y-3.3913
X1.5433Y-3.5413
X1.5433Y-3.6913
X1.5433Y-3.8413
X1.5433Y-3.9913
X1.5433Y-4.1413
X1.5433Y-4.2913
X1.7433Y-2.8663
X1.7433Y-3.0163
X1.7433Y-3.1663
X1.7433Y-3.3163
X1.7433Y-3.4663
X1.7433Y-3.6163
X1.7433Y-3.7663
X1.7433Y-3.9163
X1.7433Y-4.0663
X1.7433Y-4.2163
X1.7433Y-4.3663
T6
X4.9843Y-2.5787
X4.9843Y-3.1693
X4.9843Y-5.5315
X4.9843Y-6.122
X2.8189Y-5.5315
X2.8189Y-6.122
X2.8189Y-2.5787
X2.8189Y-3.1693
T7
X5.2734Y-2.4593
X5.2734Y-3.2887
X5.2734Y-5.4121
X5.2734Y-6.2415
X3.1081Y-5.4121
X3.1081Y-6.2415
X3.1081Y-2.4593
X3.1081Y-3.2887
T8
X5.1496Y-2.0945
X5.1496Y-3.6535
X5.1496Y-5.0472
X5.1496Y-6.6063
X2.9843Y-5.0472
X2.9843Y-6.6063
X2.9843Y-2.0945
X2.9843Y-3.6535
T9
X3.5197Y-2.8591
X3.5197Y-3.8433
X3.5197Y-5.8118
X3.5197Y-6.7961
X1.3543Y-2.8591
X1.3543Y-3.8433
X1.3543Y-5.8118
X1.3543Y-6.7961
T10
X1.4567Y-2.5984
X1.4567Y-4.6563
X1.4567Y-5.5512
X1.4567Y-7.6091
X3.622Y-2.5984
X3.622Y-4.6563
X3.622Y-5.5512
X3.622Y-7.6091
T2
G00X3.3661Y-2.137
M15
G01X3.3898Y-2.137
M16
G05
G00X3.3661Y-2.4772
M15
G01X3.3898Y-2.4772
M16
G05
G00X3.5157Y-2.137
M15
G01X3.5394Y-2.137
M16
G05
G00X3.5157Y-2.4772
M15
G01X3.5394Y-2.4772
M16
G05
G00X1.2008Y-2.137
M15
G01X1.2244Y-2.137
M16
G05
G00X1.2008Y-2.4772
M15
G01X1.2244Y-2.4772
M16
G05
G00X1.3504Y-2.137
M15
G01X1.374Y-2.137
M16
G05
G00X1.3504Y-2.4772
M15
G01X1.374Y-2.4772
M16
G05
G00X1.2008Y-5.0898
M15
G01X1.2244Y-5.0898
M16
G05
G00X1.2008Y-5.4299
M15
G01X1.2244Y-5.4299
M16
G05
G00X1.3504Y-5.0898
M15
G01X1.374Y-5.0898
M16
G05
G00X1.3504Y-5.4299
M15
G01X1.374Y-5.4299
M16
G05
G00X3.3661Y-5.0898
M15
G01X3.3898Y-5.0898
M16
G05
G00X3.3661Y-5.4299
M15
G01X3.3898Y-5.4299
M16
G05
G00X3.5157Y-5.0898
M15
G01X3.5394Y-5.0898
M16
G05
G00X3.5157Y-5.4299
M15
G01X3.5394Y-5.4299
M16
G05
T3
G00X4.9902Y-6.9528
M15
G01X4.9311Y-6.9528
M16
G05
G00X4.9902Y-4.0
M15
G01X4.9311Y-4.0
M16
G05
G00X4.9902Y-4.5126
M15
G01X4.9311Y-4.5126
M16
G05
G00X2.8248Y-4.0
M15
G01X2.7657Y-4.0
M16
G05
G00X2.8248Y-7.4654
M15
G01X2.7657Y-7.4654
M16
G05
G00X2.8248Y-4.5126
M15
G01X2.7657Y-4.5126
M16
G05
G00X4.9902Y-7.4654
M15
G01X4.9311Y-7.4654
M16
G05
G00X2.8248Y-6.9528
M15
G01X2.7657Y-6.9528
M16
G05
T4
G00X4.937Y-2.2835
M15
G01X5.0079Y-2.2835
M16
G05
G00X4.937Y-2.874
M15
G01X5.0079Y-2.874
M16
G05
G00X4.937Y-3.4646
M15
G01X5.0079Y-3.4646
M16
G05
G00X5.1496Y-2.3154
M15
G01X5.1496Y-2.2516
M16
G05
G00X5.1496Y-2.9059
M15
G01X5.1496Y-2.8421
M16
G05
G00X5.1496Y-3.4965
M15
G01X5.1496Y-3.4327
M16
G05
G00X4.937Y-5.2362
M15
G01X5.0079Y-5.2362
M16
G05
G00X4.937Y-5.8268
M15
G01X5.0079Y-5.8268
M16
G05
G00X4.937Y-6.4173
M15
G01X5.0079Y-6.4173
M16
G05
G00X5.1496Y-5.2681
M15
G01X5.1496Y-5.2043
M16
G05
G00X5.1496Y-5.8587
M15
G01X5.1496Y-5.7949
M16
G05
G00X5.1496Y-6.4492
M15
G01X5.1496Y-6.3854
M16
G05
G00X2.7717Y-5.2362
M15
G01X2.8425Y-5.2362
M16
G05
G00X2.7717Y-5.8268
M15
G01X2.8425Y-5.8268
M16
G05
G00X2.7717Y-6.4173
M15
G01X2.8425Y-6.4173
M16
G05
G00X2.9843Y-5.2681
M15
G01X2.9843Y-5.2043
M16
G05
G00X2.9843Y-5.8587
M15
G01X2.9843Y-5.7949
M16
G05
G00X2.9843Y-6.4492
M15
G01X2.9843Y-6.3854
M16
G05
G00X2.7717Y-2.2835
M15
G01X2.8425Y-2.2835
M16
G05
G00X2.7717Y-2.874
M15
G01X2.8425Y-2.874
M16
G05
G00X2.7717Y-3.4646
M15
G01X2.8425Y-3.4646
M16
G05
G00X2.9843Y-2.3154
M15
G01X2.9843Y-2.2516
M16
G05
G00X2.9843Y-2.9059
M15
G01X2.9843Y-2.8421
M16
G05
G00X2.9843Y-3.4965
M15
G01X2.9843Y-3.4327
M16
G05
T5
G00X5.1378Y-3.9764
M15
G01X5.1378Y-4.0236
M16
G05
G00X5.1378Y-4.489
M15
G01X5.1378Y-4.5362
M16
G05
G00X2.9724Y-3.9764
M15
G01X2.9724Y-4.0236
M16
G05
G00X2.9724Y-7.4417
M15
G01X2.9724Y-7.489
M16
G05
G00X2.9724Y-4.489
M15
G01X2.9724Y-4.5362
M16
G05
G00X5.1378Y-7.4417
M15
G01X5.1378Y-7.489
M16
G05
G00X2.9724Y-6.9291
M15
G01X2.9724Y-6.9764
M16
G05
G00X5.1378Y-6.9291
M15
G01X5.1378Y-6.9764
M16
G05
T0
M30
