M48
; DRILL file {KiCad (5.1.9)-1} date 05/10/21 07:03:45
; FORMAT={-:-/ absolute / inch / decimal}
; #@! TF.CreationDate,2021-05-10T07:03:45+12:00
; #@! TF.GenerationSoftware,Kicad,Pcbnew,(5.1.9)-1
; #@! TF.FileFunction,Plated,1,2,PTH
FMAT,2
INCH
T1C0.0157
T2C0.0236
T3C0.0394
T4C0.0472
T5C0.0512
T6C0.0787
T7C0.0906
T8C0.0984
T9C0.1260
T10C0.1417
%
G90
G05
T1
X0.8937Y-2.1496
X0.8937Y-5.1024
X0.9528Y-2.2638
X0.9528Y-5.2165
X1.0Y-3.6929
X1.0Y-6.6457
X1.0079Y-3.9843
X1.0079Y-6.937
X1.0394Y-2.0039
X1.0394Y-4.9567
X1.0906Y-3.1457
X1.0906Y-3.3346
X1.0906Y-6.0984
X1.0906Y-6.2874
X1.1024Y-1.6614
X1.1024Y-4.6142
X1.1085Y-3.4864
X1.1085Y-6.4392
X1.126Y-2.878
X1.126Y-3.9528
X1.126Y-5.8307
X1.126Y-6.9055
X1.1496Y-2.0433
X1.1496Y-4.9961
X1.1693Y-1.752
X1.1693Y-4.7047
X1.1732Y-4.1693
X1.1732Y-7.122
X1.2126Y-3.3307
X1.2126Y-6.2835
X1.2402Y-4.0551
X1.2402Y-7.0079
X1.2559Y-3.1772
X1.2559Y-6.1299
X1.2638Y-2.2756
X1.2638Y-3.874
X1.2638Y-5.2283
X1.2638Y-6.8268
X1.2717Y-1.9094
X1.2717Y-4.8622
X1.2756Y-3.5394
X1.2756Y-6.4921
X1.2795Y-3.0354
X1.2795Y-5.9882
X1.2992Y-3.4291
X1.2992Y-6.3819
X1.3031Y-3.2598
X1.3031Y-6.2126
X1.4213Y-1.7402
X1.4213Y-4.6929
X1.4252Y-4.0197
X1.4252Y-6.9724
X1.4291Y-1.6575
X1.4291Y-3.126
X1.4291Y-3.4094
X1.4291Y-4.1299
X1.4291Y-4.6102
X1.4291Y-6.0787
X1.4291Y-6.3622
X1.4291Y-7.0827
X1.4331Y-2.063
X1.4331Y-5.0157
X1.4409Y-4.2402
X1.4409Y-7.1929
X1.4843Y-1.7874
X1.4843Y-2.2835
X1.4843Y-4.7402
X1.4843Y-5.2362
X1.4882Y-2.4606
X1.4882Y-5.4134
X1.4921Y-1.8701
X1.4921Y-4.8228
X1.5394Y-3.1417
X1.5394Y-6.0945
X1.5866Y-2.8898
X1.5866Y-5.8425
X1.6024Y-2.5906
X1.6024Y-3.0866
X1.6024Y-5.5433
X1.6024Y-6.0394
X1.6063Y-2.4488
X1.6063Y-5.4016
X1.6102Y-2.2835
X1.6102Y-3.5433
X1.6102Y-5.2362
X1.6102Y-6.4961
X1.6202Y-2.0963
X1.6202Y-5.0491
X1.626Y-3.374
X1.626Y-6.3268
X1.6417Y-2.1496
X1.6417Y-5.1024
X1.6575Y-1.9567
X1.6575Y-4.9094
X1.6614Y-2.9882
X1.6614Y-5.9409
X1.6693Y-2.8071
X1.6693Y-5.7598
X1.6732Y-2.689
X1.6732Y-5.6417
X1.685Y-2.4055
X1.685Y-5.3583
X1.7087Y-4.1181
X1.7087Y-7.0709
X1.7126Y-4.0118
X1.7126Y-6.9646
X1.7165Y-2.2795
X1.7165Y-5.2323
X1.7205Y-3.0394
X1.7205Y-5.9921
X1.7362Y-2.5197
X1.7362Y-5.4724
X1.7402Y-2.6339
X1.7402Y-5.5866
X1.7446Y-2.0005
X1.7446Y-4.9532
X1.752Y-2.3425
X1.752Y-4.2717
X1.752Y-5.2953
X1.752Y-7.2244
X1.7717Y-2.8661
X1.7717Y-5.8189
X1.7874Y-2.4213
X1.7874Y-5.374
X1.7913Y-3.1063
X1.7913Y-6.0591
X1.7992Y-2.5118
X1.7992Y-2.9488
X1.7992Y-5.4646
X1.7992Y-5.9016
X1.8189Y-2.1339
X1.8189Y-5.0866
X1.8228Y-2.3465
X1.8228Y-5.2992
X1.8543Y-3.0315
X1.8543Y-5.9843
X1.8583Y-3.5709
X1.8583Y-6.5236
X1.8622Y-2.6772
X1.8622Y-2.8346
X1.8622Y-5.6299
X1.8622Y-5.7874
X1.878Y-2.0
X1.878Y-4.9528
X1.8819Y-3.1772
X1.8819Y-6.1299
X1.8937Y-1.9094
X1.8937Y-2.1339
X1.8937Y-4.8622
X1.8937Y-5.0866
X1.8976Y-2.3937
X1.8976Y-5.3465
X1.9016Y-2.3189
X1.9016Y-2.7402
X1.9016Y-5.2717
X1.9016Y-5.6929
X1.9252Y-1.7323
X1.9252Y-4.685
X1.9331Y-2.2283
X1.9331Y-3.0236
X1.9331Y-5.1811
X1.9331Y-5.9764
X1.9646Y-2.7402
X1.9646Y-5.6929
X1.9961Y-2.185
X1.9961Y-2.9291
X1.9961Y-3.0591
X1.9961Y-3.1339
X1.9961Y-5.1378
X1.9961Y-5.8819
X1.9961Y-6.0118
X1.9961Y-6.0866
X2.0433Y-3.1693
X2.0433Y-6.122
X2.0669Y-4.0276
X2.0669Y-6.9803
X2.0748Y-2.9685
X2.0748Y-3.0276
X2.0748Y-5.9213
X2.0748Y-5.9803
X2.0945Y-1.7283
X2.0945Y-4.6811
X2.1102Y-3.0709
X2.1102Y-6.0236
X2.1181Y-2.9213
X2.1181Y-3.2087
X2.1181Y-5.874
X2.1181Y-6.1614
X2.1457Y-4.2205
X2.1457Y-7.1732
X2.1535Y-2.2362
X2.1535Y-5.189
X2.1732Y-4.1339
X2.1732Y-7.0866
X2.2126Y-3.9449
X2.2126Y-6.8976
X2.2165Y-2.937
X2.2165Y-5.8898
X2.2598Y-2.2598
X2.2598Y-5.2126
X2.2677Y-3.0118
X2.2677Y-5.9646
X2.2953Y-3.1063
X2.2953Y-6.0591
X2.3071Y-2.6575
X2.3071Y-5.6102
X2.3346Y-2.9567
X2.3346Y-5.9094
X2.3425Y-4.2244
X2.3425Y-7.1772
X2.3583Y-3.7402
X2.3583Y-6.6929
X2.3701Y-3.9724
X2.3701Y-6.9252
X2.5Y-3.7323
X2.5Y-6.685
X3.0197Y-2.1496
X3.0197Y-5.1024
X3.0787Y-2.2638
X3.0787Y-5.2165
X3.126Y-3.6929
X3.126Y-6.6457
X3.1339Y-3.9843
X3.1339Y-6.937
X3.1654Y-2.0039
X3.1654Y-4.9567
X3.2165Y-3.1457
X3.2165Y-3.3346
X3.2165Y-6.0984
X3.2165Y-6.2874
X3.2283Y-1.6614
X3.2283Y-4.6142
X3.2344Y-3.4864
X3.2344Y-6.4392
X3.252Y-2.878
X3.252Y-3.9528
X3.252Y-5.8307
X3.252Y-6.9055
X3.2756Y-2.0433
X3.2756Y-4.9961
X3.2953Y-1.752
X3.2953Y-4.7047
X3.2992Y-4.1693
X3.2992Y-7.122
X3.3386Y-3.3307
X3.3386Y-6.2835
X3.3661Y-4.0551
X3.3661Y-7.0079
X3.3819Y-3.1772
X3.3819Y-6.1299
X3.3898Y-2.2756
X3.3898Y-3.874
X3.3898Y-5.2283
X3.3898Y-6.8268
X3.3976Y-1.9094
X3.3976Y-4.8622
X3.4016Y-3.5394
X3.4016Y-6.4921
X3.4055Y-3.0354
X3.4055Y-5.9882
X3.4252Y-3.4291
X3.4252Y-6.3819
X3.4291Y-3.2598
X3.4291Y-6.2126
X3.5472Y-1.7402
X3.5472Y-4.6929
X3.5512Y-4.0197
X3.5512Y-6.9724
X3.5551Y-1.6575
X3.5551Y-3.126
X3.5551Y-3.4094
X3.5551Y-4.1299
X3.5551Y-4.6102
X3.5551Y-6.0787
X3.5551Y-6.3622
X3.5551Y-7.0827
X3.5591Y-2.063
X3.5591Y-5.0157
X3.5669Y-4.2402
X3.5669Y-7.1929
X3.6102Y-1.7874
X3.6102Y-2.2835
X3.6102Y-4.7402
X3.6102Y-5.2362
X3.6142Y-2.4606
X3.6142Y-5.4134
X3.6181Y-1.8701
X3.6181Y-4.8228
X3.6654Y-3.1417
X3.6654Y-6.0945
X3.7126Y-2.8898
X3.7126Y-5.8425
X3.7283Y-2.5906
X3.7283Y-3.0866
X3.7283Y-5.5433
X3.7283Y-6.0394
X3.7323Y-2.4488
X3.7323Y-5.4016
X3.7362Y-2.2835
X3.7362Y-3.5433
X3.7362Y-5.2362
X3.7362Y-6.4961
X3.7462Y-2.0963
X3.7462Y-5.0491
X3.752Y-3.374
X3.752Y-6.3268
X3.7677Y-2.1496
X3.7677Y-5.1024
X3.7835Y-1.9567
X3.7835Y-4.9094
X3.7874Y-2.9882
X3.7874Y-5.9409
X3.7953Y-2.8071
X3.7953Y-5.7598
X3.7992Y-2.689
X3.7992Y-5.6417
X3.811Y-2.4055
X3.811Y-5.3583
X3.8346Y-4.1181
X3.8346Y-7.0709
X3.8386Y-4.0118
X3.8386Y-6.9646
X3.8425Y-2.2795
X3.8425Y-5.2323
X3.8465Y-3.0394
X3.8465Y-5.9921
X3.8622Y-2.5197
X3.8622Y-5.4724
X3.8661Y-2.6339
X3.8661Y-5.5866
X3.8706Y-2.0005
X3.8706Y-4.9532
X3.878Y-2.3425
X3.878Y-4.2717
X3.878Y-5.2953
X3.878Y-7.2244
X3.8976Y-2.8661
X3.8976Y-5.8189
X3.9134Y-2.4213
X3.9134Y-5.374
X3.9173Y-3.1063
X3.9173Y-6.0591
X3.9252Y-2.5118
X3.9252Y-2.9488
X3.9252Y-5.4646
X3.9252Y-5.9016
X3.9449Y-2.1339
X3.9449Y-5.0866
X3.9488Y-2.3465
X3.9488Y-5.2992
X3.9803Y-3.0315
X3.9803Y-5.9843
X3.9843Y-3.5709
X3.9843Y-6.5236
X3.9882Y-2.6772
X3.9882Y-2.8346
X3.9882Y-5.6299
X3.9882Y-5.7874
X4.0039Y-2.0
X4.0039Y-4.9528
X4.0079Y-3.1772
X4.0079Y-6.1299
X4.0197Y-1.9094
X4.0197Y-2.1339
X4.0197Y-4.8622
X4.0197Y-5.0866
X4.0236Y-2.3937
X4.0236Y-5.3465
X4.0276Y-2.3189
X4.0276Y-2.7402
X4.0276Y-5.2717
X4.0276Y-5.6929
X4.0512Y-1.7323
X4.0512Y-4.685
X4.0591Y-2.2283
X4.0591Y-3.0236
X4.0591Y-5.1811
X4.0591Y-5.9764
X4.0906Y-2.7402
X4.0906Y-5.6929
X4.122Y-2.185
X4.122Y-2.9291
X4.122Y-3.0591
X4.122Y-3.1339
X4.122Y-5.1378
X4.122Y-5.8819
X4.122Y-6.0118
X4.122Y-6.0866
X4.1693Y-3.1693
X4.1693Y-6.122
X4.1929Y-4.0276
X4.1929Y-6.9803
X4.2008Y-2.9685
X4.2008Y-3.0276
X4.2008Y-5.9213
X4.2008Y-5.9803
X4.2205Y-1.7283
X4.2205Y-4.6811
X4.2362Y-3.0709
X4.2362Y-6.0236
X4.2441Y-2.9213
X4.2441Y-3.2087
X4.2441Y-5.874
X4.2441Y-6.1614
X4.2717Y-4.2205
X4.2717Y-7.1732
X4.2795Y-2.2362
X4.2795Y-5.189
X4.2992Y-4.1339
X4.2992Y-7.0866
X4.3386Y-3.9449
X4.3386Y-6.8976
X4.3425Y-2.937
X4.3425Y-5.8898
X4.3858Y-2.2598
X4.3858Y-5.2126
X4.3937Y-3.0118
X4.3937Y-5.9646
X4.4213Y-3.1063
X4.4213Y-6.0591
X4.4331Y-2.6575
X4.4331Y-5.6102
X4.4606Y-2.9567
X4.4606Y-5.9094
X4.4685Y-4.2244
X4.4685Y-7.1772
X4.4843Y-3.7402
X4.4843Y-6.6929
X4.4961Y-3.9724
X4.4961Y-6.9252
X4.626Y-3.7323
X4.626Y-6.685
T3
X0.8646Y-2.7276
X0.8646Y-2.8177
X0.8646Y-2.9079
X0.8646Y-2.998
X0.8646Y-3.0882
X0.8646Y-5.6803
X0.8646Y-5.7705
X0.8646Y-5.8606
X0.8646Y-5.9508
X0.8646Y-6.0409
X0.9646Y-2.7724
X0.9646Y-2.8626
X0.9646Y-2.9528
X0.9646Y-3.0429
X0.9646Y-3.1331
X0.9646Y-5.7252
X0.9646Y-5.8154
X0.9646Y-5.9055
X0.9646Y-5.9957
X0.9646Y-6.0858
X1.0646Y-2.7276
X1.0646Y-2.8177
X1.0646Y-2.9079
X1.0646Y-2.998
X1.0646Y-3.0882
X1.0646Y-5.6803
X1.0646Y-5.7705
X1.0646Y-5.8606
X1.0646Y-5.9508
X1.0646Y-6.0409
X2.9906Y-2.7276
X2.9906Y-2.8177
X2.9906Y-2.9079
X2.9906Y-2.998
X2.9906Y-3.0882
X2.9906Y-5.6803
X2.9906Y-5.7705
X2.9906Y-5.8606
X2.9906Y-5.9508
X2.9906Y-6.0409
X3.0906Y-2.7724
X3.0906Y-2.8626
X3.0906Y-2.9528
X3.0906Y-3.0429
X3.0906Y-3.1331
X3.0906Y-5.7252
X3.0906Y-5.8154
X3.0906Y-5.9055
X3.0906Y-5.9957
X3.0906Y-6.0858
X3.1906Y-2.7276
X3.1906Y-2.8177
X3.1906Y-2.9079
X3.1906Y-2.998
X3.1906Y-3.0882
X3.1906Y-5.6803
X3.1906Y-5.7705
X3.1906Y-5.8606
X3.1906Y-5.9508
X3.1906Y-6.0409
T5
X1.1535Y-2.5083
X1.1535Y-2.6583
X1.1535Y-2.8083
X1.1535Y-2.9583
X1.1535Y-3.1083
X1.1535Y-3.2583
X1.1535Y-3.4083
X1.1535Y-3.5583
X1.1535Y-3.7083
X1.1535Y-3.8583
X1.1535Y-5.461
X1.1535Y-5.611
X1.1535Y-5.761
X1.1535Y-5.911
X1.1535Y-6.061
X1.1535Y-6.211
X1.1535Y-6.361
X1.1535Y-6.511
X1.1535Y-6.661
X1.1535Y-6.811
X1.3535Y-2.4333
X1.3535Y-2.5833
X1.3535Y-2.7333
X1.3535Y-2.8833
X1.3535Y-3.0333
X1.3535Y-3.1833
X1.3535Y-3.3333
X1.3535Y-3.4833
X1.3535Y-3.6333
X1.3535Y-3.7833
X1.3535Y-3.9333
X1.3535Y-5.386
X1.3535Y-5.536
X1.3535Y-5.686
X1.3535Y-5.836
X1.3535Y-5.986
X1.3535Y-6.136
X1.3535Y-6.286
X1.3535Y-6.436
X1.3535Y-6.586
X1.3535Y-6.736
X1.3535Y-6.886
X3.2795Y-2.5083
X3.2795Y-2.6583
X3.2795Y-2.8083
X3.2795Y-2.9583
X3.2795Y-3.1083
X3.2795Y-3.2583
X3.2795Y-3.4083
X3.2795Y-3.5583
X3.2795Y-3.7083
X3.2795Y-3.8583
X3.2795Y-5.461
X3.2795Y-5.611
X3.2795Y-5.761
X3.2795Y-5.911
X3.2795Y-6.061
X3.2795Y-6.211
X3.2795Y-6.361
X3.2795Y-6.511
X3.2795Y-6.661
X3.2795Y-6.811
X3.4795Y-2.4333
X3.4795Y-2.5833
X3.4795Y-2.7333
X3.4795Y-2.8833
X3.4795Y-3.0333
X3.4795Y-3.1833
X3.4795Y-3.3333
X3.4795Y-3.4833
X3.4795Y-3.6333
X3.4795Y-3.7833
X3.4795Y-3.9333
X3.4795Y-5.386
X3.4795Y-5.536
X3.4795Y-5.686
X3.4795Y-5.836
X3.4795Y-5.986
X3.4795Y-6.136
X3.4795Y-6.286
X3.4795Y-6.436
X3.4795Y-6.586
X3.4795Y-6.736
X3.4795Y-6.886
T6
X2.4291Y-2.1457
X2.4291Y-2.7362
X2.4291Y-5.0984
X2.4291Y-5.689
X4.5551Y-2.1457
X4.5551Y-2.7362
X4.5551Y-5.0984
X4.5551Y-5.689
T7
X2.7183Y-2.0262
X2.7183Y-2.8556
X2.7183Y-4.979
X2.7183Y-5.8084
X4.8443Y-2.0262
X4.8443Y-2.8556
X4.8443Y-4.979
X4.8443Y-5.8084
T8
X2.5945Y-1.6614
X2.5945Y-3.2205
X2.5945Y-4.6142
X2.5945Y-6.1732
X4.7205Y-1.6614
X4.7205Y-3.2205
X4.7205Y-4.6142
X4.7205Y-6.1732
T9
X0.9646Y-2.426
X0.9646Y-3.4102
X0.9646Y-5.3787
X0.9646Y-6.363
X3.0906Y-2.426
X3.0906Y-3.4102
X3.0906Y-5.3787
X3.0906Y-6.363
T10
X1.0669Y-2.1654
X1.0669Y-4.2232
X1.0669Y-5.1181
X1.0669Y-7.176
X3.1929Y-2.1654
X3.1929Y-4.2232
X3.1929Y-5.1181
X3.1929Y-7.176
T2
G00X0.811Y-1.7039
M15
G01X0.8346Y-1.7039
M16
G05
G00X0.811Y-2.0441
M15
G01X0.8346Y-2.0441
M16
G05
G00X0.811Y-4.6567
M15
G01X0.8346Y-4.6567
M16
G05
G00X0.811Y-4.9969
M15
G01X0.8346Y-4.9969
M16
G05
G00X0.9606Y-1.7039
M15
G01X0.9843Y-1.7039
M16
G05
G00X0.9606Y-2.0441
M15
G01X0.9843Y-2.0441
M16
G05
G00X0.9606Y-4.6567
M15
G01X0.9843Y-4.6567
M16
G05
G00X0.9606Y-4.9969
M15
G01X0.9843Y-4.9969
M16
G05
G00X2.937Y-1.7039
M15
G01X2.9606Y-1.7039
M16
G05
G00X2.937Y-2.0441
M15
G01X2.9606Y-2.0441
M16
G05
G00X2.937Y-4.6567
M15
G01X2.9606Y-4.6567
M16
G05
G00X2.937Y-4.9969
M15
G01X2.9606Y-4.9969
M16
G05
G00X3.0866Y-1.7039
M15
G01X3.1102Y-1.7039
M16
G05
G00X3.0866Y-2.0441
M15
G01X3.1102Y-2.0441
M16
G05
G00X3.0866Y-4.6567
M15
G01X3.1102Y-4.6567
M16
G05
G00X3.0866Y-4.9969
M15
G01X3.1102Y-4.9969
M16
G05
T3
G00X2.435Y-3.5669
M15
G01X2.376Y-3.5669
M16
G05
G00X2.435Y-4.0795
M15
G01X2.376Y-4.0795
M16
G05
G00X2.435Y-6.5197
M15
G01X2.376Y-6.5197
M16
G05
G00X2.435Y-7.0323
M15
G01X2.376Y-7.0323
M16
G05
G00X4.561Y-3.5669
M15
G01X4.502Y-3.5669
M16
G05
G00X4.561Y-4.0795
M15
G01X4.502Y-4.0795
M16
G05
G00X4.561Y-6.5197
M15
G01X4.502Y-6.5197
M16
G05
G00X4.561Y-7.0323
M15
G01X4.502Y-7.0323
M16
G05
T4
G00X2.3819Y-1.8504
M15
G01X2.4528Y-1.8504
M16
G05
G00X2.3819Y-2.4409
M15
G01X2.4528Y-2.4409
M16
G05
G00X2.3819Y-3.0315
M15
G01X2.4528Y-3.0315
M16
G05
G00X2.3819Y-4.8031
M15
G01X2.4528Y-4.8031
M16
G05
G00X2.3819Y-5.3937
M15
G01X2.4528Y-5.3937
M16
G05
G00X2.3819Y-5.9843
M15
G01X2.4528Y-5.9843
M16
G05
G00X2.5945Y-1.8823
M15
G01X2.5945Y-1.8185
M16
G05
G00X2.5945Y-2.4728
M15
G01X2.5945Y-2.4091
M16
G05
G00X2.5945Y-3.0634
M15
G01X2.5945Y-2.9996
M16
G05
G00X2.5945Y-4.835
M15
G01X2.5945Y-4.7713
M16
G05
G00X2.5945Y-5.4256
M15
G01X2.5945Y-5.3618
M16
G05
G00X2.5945Y-6.0161
M15
G01X2.5945Y-5.9524
M16
G05
G00X4.5079Y-1.8504
M15
G01X4.5787Y-1.8504
M16
G05
G00X4.5079Y-2.4409
M15
G01X4.5787Y-2.4409
M16
G05
G00X4.5079Y-3.0315
M15
G01X4.5787Y-3.0315
M16
G05
G00X4.5079Y-4.8031
M15
G01X4.5787Y-4.8031
M16
G05
G00X4.5079Y-5.3937
M15
G01X4.5787Y-5.3937
M16
G05
G00X4.5079Y-5.9843
M15
G01X4.5787Y-5.9843
M16
G05
G00X4.7205Y-1.8823
M15
G01X4.7205Y-1.8185
M16
G05
G00X4.7205Y-2.4728
M15
G01X4.7205Y-2.4091
M16
G05
G00X4.7205Y-3.0634
M15
G01X4.7205Y-2.9996
M16
G05
G00X4.7205Y-4.835
M15
G01X4.7205Y-4.7713
M16
G05
G00X4.7205Y-5.4256
M15
G01X4.7205Y-5.3618
M16
G05
G00X4.7205Y-6.0161
M15
G01X4.7205Y-5.9524
M16
G05
T5
G00X2.5827Y-3.5433
M15
G01X2.5827Y-3.5906
M16
G05
G00X2.5827Y-4.0559
M15
G01X2.5827Y-4.1031
M16
G05
G00X2.5827Y-6.4961
M15
G01X2.5827Y-6.5433
M16
G05
G00X2.5827Y-7.0087
M15
G01X2.5827Y-7.0559
M16
G05
G00X4.7087Y-3.5433
M15
G01X4.7087Y-3.5906
M16
G05
G00X4.7087Y-4.0559
M15
G01X4.7087Y-4.1031
M16
G05
G00X4.7087Y-6.4961
M15
G01X4.7087Y-6.5433
M16
G05
G00X4.7087Y-7.0087
M15
G01X4.7087Y-7.0559
M16
G05
T0
M30
