%TF.GenerationSoftware,KiCad,Pcbnew,(5.1.5)-2*%
%TF.CreationDate,2020-11-02T10:43:00+13:00*%
%TF.ProjectId,output.RGB-to-component-panel,6f757470-7574-42e5-9247-422d746f2d63,rev?*%
%TF.SameCoordinates,Original*%
%TF.FileFunction,Profile,NP*%
%FSLAX46Y46*%
G04 Gerber Fmt 4.6, Leading zero omitted, Abs format (unit mm)*
G04 Created by KiCad (PCBNEW (5.1.5)-2) date 2020-11-02 10:43:00*
%MOMM*%
%LPD*%
G04 APERTURE LIST*
%ADD10C,0.050000*%
%ADD11C,0.100000*%
G04 APERTURE END LIST*
D10*
X134800000Y-196000000D02*
X84800000Y-196000000D01*
X134800000Y-126000000D02*
X134800000Y-196000000D01*
X79800000Y-196000000D02*
X29800000Y-196000000D01*
X29800000Y-196000000D02*
X29800000Y-126000000D01*
X29800000Y-121000000D02*
X29800000Y-51000000D01*
X29800000Y-51000000D02*
X79800000Y-51000000D01*
X134800000Y-51000000D02*
X134800000Y-121000000D01*
X84800000Y-51000000D02*
X134800000Y-51000000D01*
D11*
X79800000Y-180500020D02*
X79800000Y-196000000D01*
X84800000Y-180500020D02*
X84800000Y-196000000D01*
X84800000Y-180500020D02*
X84792313Y-180400316D01*
X79800000Y-180500020D02*
X79807687Y-180400316D01*
X84792313Y-180400316D02*
X84776985Y-180301498D01*
X79807687Y-180400316D02*
X79823015Y-180301498D01*
X84776985Y-180301498D02*
X84754107Y-180204151D01*
X79823015Y-180301498D02*
X79845893Y-180204151D01*
X84754107Y-180204151D02*
X84723814Y-180108851D01*
X79845893Y-180204151D02*
X79876186Y-180108851D01*
X84723814Y-180108851D02*
X84686285Y-180016161D01*
X79876186Y-180108851D02*
X79913715Y-180016161D01*
X84686285Y-180016161D02*
X84641742Y-179926630D01*
X79913715Y-180016161D02*
X79958258Y-179926630D01*
X84641742Y-179926630D02*
X84590449Y-179840788D01*
X79958258Y-179926630D02*
X80009551Y-179840788D01*
X84590449Y-179840788D02*
X84532709Y-179759143D01*
X80009551Y-179840788D02*
X80067291Y-179759143D01*
X84532709Y-179759143D02*
X84468864Y-179682178D01*
X80067291Y-179759143D02*
X80131136Y-179682178D01*
X84468864Y-179682178D02*
X84399292Y-179610348D01*
X80131136Y-179682178D02*
X80200708Y-179610348D01*
X84399292Y-179610348D02*
X84324405Y-179544078D01*
X80200708Y-179610348D02*
X80275595Y-179544078D01*
X84324405Y-179544078D02*
X84244646Y-179483760D01*
X80275595Y-179544078D02*
X80355354Y-179483760D01*
X84244646Y-179483760D02*
X84160487Y-179429751D01*
X80355354Y-179483760D02*
X80439513Y-179429751D01*
X84160487Y-179429751D02*
X84072426Y-179382371D01*
X80439513Y-179429751D02*
X80527574Y-179382371D01*
X84072426Y-179382371D02*
X83980984Y-179341900D01*
X80527574Y-179382371D02*
X80619016Y-179341900D01*
X83980984Y-179341900D02*
X83886702Y-179308578D01*
X80619016Y-179341900D02*
X80713298Y-179308578D01*
X83886702Y-179308578D02*
X83790138Y-179282602D01*
X80713298Y-179308578D02*
X80809862Y-179282602D01*
X83790138Y-179282602D02*
X83691863Y-179264125D01*
X80809862Y-179282602D02*
X80908137Y-179264125D01*
X83691863Y-179264125D02*
X83592458Y-179253257D01*
X80908137Y-179264125D02*
X81007542Y-179253257D01*
X83592458Y-179253257D02*
X83492512Y-179250062D01*
X81007542Y-179253257D02*
X81107488Y-179250062D01*
X81107488Y-179250062D02*
X83492512Y-179250062D01*
X84800000Y-175499970D02*
X84792313Y-175599674D01*
X79800000Y-175499970D02*
X79807687Y-175599674D01*
X84792313Y-175599674D02*
X84776985Y-175698492D01*
X79807687Y-175599674D02*
X79823015Y-175698492D01*
X84776985Y-175698492D02*
X84754107Y-175795839D01*
X79823015Y-175698492D02*
X79845893Y-175795839D01*
X84754107Y-175795839D02*
X84723814Y-175891139D01*
X79845893Y-175795839D02*
X79876186Y-175891139D01*
X84723814Y-175891139D02*
X84686285Y-175983829D01*
X79876186Y-175891139D02*
X79913715Y-175983829D01*
X84686285Y-175983829D02*
X84641742Y-176073360D01*
X79913715Y-175983829D02*
X79958258Y-176073360D01*
X84641742Y-176073360D02*
X84590449Y-176159202D01*
X79958258Y-176073360D02*
X80009551Y-176159202D01*
X84590449Y-176159202D02*
X84532709Y-176240847D01*
X80009551Y-176159202D02*
X80067291Y-176240847D01*
X84532709Y-176240847D02*
X84468864Y-176317812D01*
X80067291Y-176240847D02*
X80131136Y-176317812D01*
X84468864Y-176317812D02*
X84399292Y-176389642D01*
X80131136Y-176317812D02*
X80200708Y-176389642D01*
X84399292Y-176389642D02*
X84324405Y-176455912D01*
X80200708Y-176389642D02*
X80275595Y-176455912D01*
X84324405Y-176455912D02*
X84244646Y-176516230D01*
X80275595Y-176455912D02*
X80355354Y-176516230D01*
X84244646Y-176516230D02*
X84160487Y-176570239D01*
X80355354Y-176516230D02*
X80439513Y-176570239D01*
X84160487Y-176570239D02*
X84072426Y-176617619D01*
X80439513Y-176570239D02*
X80527574Y-176617619D01*
X84072426Y-176617619D02*
X83980984Y-176658090D01*
X80527574Y-176617619D02*
X80619016Y-176658090D01*
X83980984Y-176658090D02*
X83886702Y-176691412D01*
X80619016Y-176658090D02*
X80713298Y-176691412D01*
X83886702Y-176691412D02*
X83790138Y-176717388D01*
X80713298Y-176691412D02*
X80809862Y-176717388D01*
X83790138Y-176717388D02*
X83691863Y-176735865D01*
X80809862Y-176717388D02*
X80908137Y-176735865D01*
X83691863Y-176735865D02*
X83592458Y-176746733D01*
X80908137Y-176735865D02*
X81007542Y-176746733D01*
X83592458Y-176746733D02*
X83492512Y-176749928D01*
X81007542Y-176746733D02*
X81107488Y-176749928D01*
X81107488Y-176749928D02*
X83492512Y-176749928D01*
X79800000Y-143500040D02*
X79800000Y-175499970D01*
X79800000Y-138499987D02*
X79800000Y-126000000D01*
X84800000Y-143500040D02*
X84800000Y-175499970D01*
X84800000Y-138499987D02*
X84800000Y-126000000D01*
X84800000Y-143500040D02*
X84792313Y-143400336D01*
X79800000Y-143500040D02*
X79807687Y-143400336D01*
X84792313Y-143400336D02*
X84776985Y-143301518D01*
X79807687Y-143400336D02*
X79823015Y-143301518D01*
X84776985Y-143301518D02*
X84754107Y-143204171D01*
X79823015Y-143301518D02*
X79845893Y-143204171D01*
X84754107Y-143204171D02*
X84723814Y-143108871D01*
X79845893Y-143204171D02*
X79876186Y-143108871D01*
X84723814Y-143108871D02*
X84686285Y-143016181D01*
X79876186Y-143108871D02*
X79913715Y-143016181D01*
X84686285Y-143016181D02*
X84641742Y-142926650D01*
X79913715Y-143016181D02*
X79958258Y-142926650D01*
X84641742Y-142926650D02*
X84590449Y-142840808D01*
X79958258Y-142926650D02*
X80009551Y-142840808D01*
X84590449Y-142840808D02*
X84532709Y-142759163D01*
X80009551Y-142840808D02*
X80067291Y-142759163D01*
X84532709Y-142759163D02*
X84468864Y-142682198D01*
X80067291Y-142759163D02*
X80131136Y-142682198D01*
X84468864Y-142682198D02*
X84399292Y-142610368D01*
X80131136Y-142682198D02*
X80200708Y-142610368D01*
X84399292Y-142610368D02*
X84324405Y-142544098D01*
X80200708Y-142610368D02*
X80275595Y-142544098D01*
X84324405Y-142544098D02*
X84244646Y-142483780D01*
X80275595Y-142544098D02*
X80355354Y-142483780D01*
X84244646Y-142483780D02*
X84160487Y-142429771D01*
X80355354Y-142483780D02*
X80439513Y-142429771D01*
X84160487Y-142429771D02*
X84072426Y-142382391D01*
X80439513Y-142429771D02*
X80527574Y-142382391D01*
X84072426Y-142382391D02*
X83980984Y-142341920D01*
X80527574Y-142382391D02*
X80619016Y-142341920D01*
X83980984Y-142341920D02*
X83886702Y-142308598D01*
X80619016Y-142341920D02*
X80713298Y-142308598D01*
X83886702Y-142308598D02*
X83790138Y-142282622D01*
X80713298Y-142308598D02*
X80809862Y-142282622D01*
X83790138Y-142282622D02*
X83691863Y-142264145D01*
X80809862Y-142282622D02*
X80908137Y-142264145D01*
X83691863Y-142264145D02*
X83592458Y-142253277D01*
X80908137Y-142264145D02*
X81007542Y-142253277D01*
X83592458Y-142253277D02*
X83492512Y-142250082D01*
X81007542Y-142253277D02*
X81107488Y-142250082D01*
X81107488Y-142250082D02*
X83492512Y-142250082D01*
X84800000Y-138499987D02*
X84792313Y-138599691D01*
X79800000Y-138499987D02*
X79807687Y-138599691D01*
X84792313Y-138599691D02*
X84776985Y-138698509D01*
X79807687Y-138599691D02*
X79823015Y-138698509D01*
X84776985Y-138698509D02*
X84754107Y-138795856D01*
X79823015Y-138698509D02*
X79845893Y-138795856D01*
X84754107Y-138795856D02*
X84723814Y-138891156D01*
X79845893Y-138795856D02*
X79876186Y-138891156D01*
X84723814Y-138891156D02*
X84686285Y-138983846D01*
X79876186Y-138891156D02*
X79913715Y-138983846D01*
X84686285Y-138983846D02*
X84641742Y-139073377D01*
X79913715Y-138983846D02*
X79958258Y-139073377D01*
X84641742Y-139073377D02*
X84590449Y-139159219D01*
X79958258Y-139073377D02*
X80009551Y-139159219D01*
X84590449Y-139159219D02*
X84532709Y-139240864D01*
X80009551Y-139159219D02*
X80067291Y-139240864D01*
X84532709Y-139240864D02*
X84468864Y-139317829D01*
X80067291Y-139240864D02*
X80131136Y-139317829D01*
X84468864Y-139317829D02*
X84399292Y-139389659D01*
X80131136Y-139317829D02*
X80200708Y-139389659D01*
X84399292Y-139389659D02*
X84324405Y-139455929D01*
X80200708Y-139389659D02*
X80275595Y-139455929D01*
X84324405Y-139455929D02*
X84244646Y-139516247D01*
X80275595Y-139455929D02*
X80355354Y-139516247D01*
X84244646Y-139516247D02*
X84160487Y-139570256D01*
X80355354Y-139516247D02*
X80439513Y-139570256D01*
X84160487Y-139570256D02*
X84072426Y-139617636D01*
X80439513Y-139570256D02*
X80527574Y-139617636D01*
X84072426Y-139617636D02*
X83980984Y-139658107D01*
X80527574Y-139617636D02*
X80619016Y-139658107D01*
X83980984Y-139658107D02*
X83886702Y-139691429D01*
X80619016Y-139658107D02*
X80713298Y-139691429D01*
X83886702Y-139691429D02*
X83790138Y-139717405D01*
X80713298Y-139691429D02*
X80809862Y-139717405D01*
X83790138Y-139717405D02*
X83691863Y-139735882D01*
X80809862Y-139717405D02*
X80908137Y-139735882D01*
X83691863Y-139735882D02*
X83592458Y-139746750D01*
X80908137Y-139735882D02*
X81007542Y-139746750D01*
X83592458Y-139746750D02*
X83492512Y-139749945D01*
X81007542Y-139746750D02*
X81107488Y-139749945D01*
X81107488Y-139749945D02*
X83492512Y-139749945D01*
X79800000Y-105500020D02*
X79800000Y-121000000D01*
X84800000Y-105500020D02*
X84800000Y-121000000D01*
X84800000Y-105500020D02*
X84792313Y-105400316D01*
X79800000Y-105500020D02*
X79807687Y-105400316D01*
X84792313Y-105400316D02*
X84776985Y-105301498D01*
X79807687Y-105400316D02*
X79823015Y-105301498D01*
X84776985Y-105301498D02*
X84754107Y-105204151D01*
X79823015Y-105301498D02*
X79845893Y-105204151D01*
X84754107Y-105204151D02*
X84723814Y-105108851D01*
X79845893Y-105204151D02*
X79876186Y-105108851D01*
X84723814Y-105108851D02*
X84686285Y-105016161D01*
X79876186Y-105108851D02*
X79913715Y-105016161D01*
X84686285Y-105016161D02*
X84641742Y-104926630D01*
X79913715Y-105016161D02*
X79958258Y-104926630D01*
X84641742Y-104926630D02*
X84590449Y-104840788D01*
X79958258Y-104926630D02*
X80009551Y-104840788D01*
X84590449Y-104840788D02*
X84532709Y-104759143D01*
X80009551Y-104840788D02*
X80067291Y-104759143D01*
X84532709Y-104759143D02*
X84468864Y-104682178D01*
X80067291Y-104759143D02*
X80131136Y-104682178D01*
X84468864Y-104682178D02*
X84399292Y-104610348D01*
X80131136Y-104682178D02*
X80200708Y-104610348D01*
X84399292Y-104610348D02*
X84324405Y-104544078D01*
X80200708Y-104610348D02*
X80275595Y-104544078D01*
X84324405Y-104544078D02*
X84244646Y-104483760D01*
X80275595Y-104544078D02*
X80355354Y-104483760D01*
X84244646Y-104483760D02*
X84160487Y-104429751D01*
X80355354Y-104483760D02*
X80439513Y-104429751D01*
X84160487Y-104429751D02*
X84072426Y-104382371D01*
X80439513Y-104429751D02*
X80527574Y-104382371D01*
X84072426Y-104382371D02*
X83980984Y-104341900D01*
X80527574Y-104382371D02*
X80619016Y-104341900D01*
X83980984Y-104341900D02*
X83886702Y-104308578D01*
X80619016Y-104341900D02*
X80713298Y-104308578D01*
X83886702Y-104308578D02*
X83790138Y-104282602D01*
X80713298Y-104308578D02*
X80809862Y-104282602D01*
X83790138Y-104282602D02*
X83691863Y-104264125D01*
X80809862Y-104282602D02*
X80908137Y-104264125D01*
X83691863Y-104264125D02*
X83592458Y-104253257D01*
X80908137Y-104264125D02*
X81007542Y-104253257D01*
X83592458Y-104253257D02*
X83492512Y-104250062D01*
X81007542Y-104253257D02*
X81107488Y-104250062D01*
X81107488Y-104250062D02*
X83492512Y-104250062D01*
X84800000Y-100499970D02*
X84792313Y-100599674D01*
X79800000Y-100499970D02*
X79807687Y-100599674D01*
X84792313Y-100599674D02*
X84776985Y-100698492D01*
X79807687Y-100599674D02*
X79823015Y-100698492D01*
X84776985Y-100698492D02*
X84754107Y-100795839D01*
X79823015Y-100698492D02*
X79845893Y-100795839D01*
X84754107Y-100795839D02*
X84723814Y-100891139D01*
X79845893Y-100795839D02*
X79876186Y-100891139D01*
X84723814Y-100891139D02*
X84686285Y-100983829D01*
X79876186Y-100891139D02*
X79913715Y-100983829D01*
X84686285Y-100983829D02*
X84641742Y-101073360D01*
X79913715Y-100983829D02*
X79958258Y-101073360D01*
X84641742Y-101073360D02*
X84590449Y-101159202D01*
X79958258Y-101073360D02*
X80009551Y-101159202D01*
X84590449Y-101159202D02*
X84532709Y-101240847D01*
X80009551Y-101159202D02*
X80067291Y-101240847D01*
X84532709Y-101240847D02*
X84468864Y-101317812D01*
X80067291Y-101240847D02*
X80131136Y-101317812D01*
X84468864Y-101317812D02*
X84399292Y-101389642D01*
X80131136Y-101317812D02*
X80200708Y-101389642D01*
X84399292Y-101389642D02*
X84324405Y-101455912D01*
X80200708Y-101389642D02*
X80275595Y-101455912D01*
X84324405Y-101455912D02*
X84244646Y-101516230D01*
X80275595Y-101455912D02*
X80355354Y-101516230D01*
X84244646Y-101516230D02*
X84160487Y-101570239D01*
X80355354Y-101516230D02*
X80439513Y-101570239D01*
X84160487Y-101570239D02*
X84072426Y-101617619D01*
X80439513Y-101570239D02*
X80527574Y-101617619D01*
X84072426Y-101617619D02*
X83980984Y-101658090D01*
X80527574Y-101617619D02*
X80619016Y-101658090D01*
X83980984Y-101658090D02*
X83886702Y-101691412D01*
X80619016Y-101658090D02*
X80713298Y-101691412D01*
X83886702Y-101691412D02*
X83790138Y-101717388D01*
X80713298Y-101691412D02*
X80809862Y-101717388D01*
X83790138Y-101717388D02*
X83691863Y-101735865D01*
X80809862Y-101717388D02*
X80908137Y-101735865D01*
X83691863Y-101735865D02*
X83592458Y-101746733D01*
X80908137Y-101735865D02*
X81007542Y-101746733D01*
X83592458Y-101746733D02*
X83492512Y-101749928D01*
X81007542Y-101746733D02*
X81107488Y-101749928D01*
X81107488Y-101749928D02*
X83492512Y-101749928D01*
X79800000Y-68500040D02*
X79800000Y-100499970D01*
X79800000Y-63499987D02*
X79800000Y-51000000D01*
X84800000Y-68500040D02*
X84800000Y-100499970D01*
X84800000Y-63499987D02*
X84800000Y-51000000D01*
X84800000Y-68500040D02*
X84792313Y-68400336D01*
X79800000Y-68500040D02*
X79807687Y-68400336D01*
X84792313Y-68400336D02*
X84776985Y-68301518D01*
X79807687Y-68400336D02*
X79823015Y-68301518D01*
X84776985Y-68301518D02*
X84754107Y-68204171D01*
X79823015Y-68301518D02*
X79845893Y-68204171D01*
X84754107Y-68204171D02*
X84723814Y-68108871D01*
X79845893Y-68204171D02*
X79876186Y-68108871D01*
X84723814Y-68108871D02*
X84686285Y-68016181D01*
X79876186Y-68108871D02*
X79913715Y-68016181D01*
X84686285Y-68016181D02*
X84641742Y-67926650D01*
X79913715Y-68016181D02*
X79958258Y-67926650D01*
X84641742Y-67926650D02*
X84590449Y-67840808D01*
X79958258Y-67926650D02*
X80009551Y-67840808D01*
X84590449Y-67840808D02*
X84532709Y-67759163D01*
X80009551Y-67840808D02*
X80067291Y-67759163D01*
X84532709Y-67759163D02*
X84468864Y-67682198D01*
X80067291Y-67759163D02*
X80131136Y-67682198D01*
X84468864Y-67682198D02*
X84399292Y-67610368D01*
X80131136Y-67682198D02*
X80200708Y-67610368D01*
X84399292Y-67610368D02*
X84324405Y-67544098D01*
X80200708Y-67610368D02*
X80275595Y-67544098D01*
X84324405Y-67544098D02*
X84244646Y-67483780D01*
X80275595Y-67544098D02*
X80355354Y-67483780D01*
X84244646Y-67483780D02*
X84160487Y-67429771D01*
X80355354Y-67483780D02*
X80439513Y-67429771D01*
X84160487Y-67429771D02*
X84072426Y-67382391D01*
X80439513Y-67429771D02*
X80527574Y-67382391D01*
X84072426Y-67382391D02*
X83980984Y-67341920D01*
X80527574Y-67382391D02*
X80619016Y-67341920D01*
X83980984Y-67341920D02*
X83886702Y-67308598D01*
X80619016Y-67341920D02*
X80713298Y-67308598D01*
X83886702Y-67308598D02*
X83790138Y-67282622D01*
X80713298Y-67308598D02*
X80809862Y-67282622D01*
X83790138Y-67282622D02*
X83691863Y-67264145D01*
X80809862Y-67282622D02*
X80908137Y-67264145D01*
X83691863Y-67264145D02*
X83592458Y-67253277D01*
X80908137Y-67264145D02*
X81007542Y-67253277D01*
X83592458Y-67253277D02*
X83492512Y-67250082D01*
X81007542Y-67253277D02*
X81107488Y-67250082D01*
X81107488Y-67250082D02*
X83492512Y-67250082D01*
X84800000Y-63499987D02*
X84792313Y-63599691D01*
X79800000Y-63499987D02*
X79807687Y-63599691D01*
X84792313Y-63599691D02*
X84776985Y-63698509D01*
X79807687Y-63599691D02*
X79823015Y-63698509D01*
X84776985Y-63698509D02*
X84754107Y-63795856D01*
X79823015Y-63698509D02*
X79845893Y-63795856D01*
X84754107Y-63795856D02*
X84723814Y-63891156D01*
X79845893Y-63795856D02*
X79876186Y-63891156D01*
X84723814Y-63891156D02*
X84686285Y-63983846D01*
X79876186Y-63891156D02*
X79913715Y-63983846D01*
X84686285Y-63983846D02*
X84641742Y-64073377D01*
X79913715Y-63983846D02*
X79958258Y-64073377D01*
X84641742Y-64073377D02*
X84590449Y-64159219D01*
X79958258Y-64073377D02*
X80009551Y-64159219D01*
X84590449Y-64159219D02*
X84532709Y-64240864D01*
X80009551Y-64159219D02*
X80067291Y-64240864D01*
X84532709Y-64240864D02*
X84468864Y-64317829D01*
X80067291Y-64240864D02*
X80131136Y-64317829D01*
X84468864Y-64317829D02*
X84399292Y-64389659D01*
X80131136Y-64317829D02*
X80200708Y-64389659D01*
X84399292Y-64389659D02*
X84324405Y-64455929D01*
X80200708Y-64389659D02*
X80275595Y-64455929D01*
X84324405Y-64455929D02*
X84244646Y-64516247D01*
X80275595Y-64455929D02*
X80355354Y-64516247D01*
X84244646Y-64516247D02*
X84160487Y-64570256D01*
X80355354Y-64516247D02*
X80439513Y-64570256D01*
X84160487Y-64570256D02*
X84072426Y-64617636D01*
X80439513Y-64570256D02*
X80527574Y-64617636D01*
X84072426Y-64617636D02*
X83980984Y-64658107D01*
X80527574Y-64617636D02*
X80619016Y-64658107D01*
X83980984Y-64658107D02*
X83886702Y-64691429D01*
X80619016Y-64658107D02*
X80713298Y-64691429D01*
X83886702Y-64691429D02*
X83790138Y-64717405D01*
X80713298Y-64691429D02*
X80809862Y-64717405D01*
X83790138Y-64717405D02*
X83691863Y-64735882D01*
X80809862Y-64717405D02*
X80908137Y-64735882D01*
X83691863Y-64735882D02*
X83592458Y-64746750D01*
X80908137Y-64735882D02*
X81007542Y-64746750D01*
X83592458Y-64746750D02*
X83492512Y-64749945D01*
X81007542Y-64746750D02*
X81107488Y-64749945D01*
X81107488Y-64749945D02*
X83492512Y-64749945D01*
X127300000Y-126000000D02*
X134800000Y-126000000D01*
X127300000Y-121000000D02*
X134800000Y-121000000D01*
X127300000Y-121000000D02*
X127200296Y-121007687D01*
X127300000Y-126000000D02*
X127200296Y-125992313D01*
X127200296Y-121007687D02*
X127101478Y-121023015D01*
X127200296Y-125992313D02*
X127101478Y-125976985D01*
X127101478Y-121023015D02*
X127004131Y-121045893D01*
X127101478Y-125976985D02*
X127004131Y-125954107D01*
X127004131Y-121045893D02*
X126908831Y-121076186D01*
X127004131Y-125954107D02*
X126908831Y-125923814D01*
X126908831Y-121076186D02*
X126816141Y-121113715D01*
X126908831Y-125923814D02*
X126816141Y-125886285D01*
X126816141Y-121113715D02*
X126726610Y-121158258D01*
X126816141Y-125886285D02*
X126726610Y-125841742D01*
X126726610Y-121158258D02*
X126640768Y-121209551D01*
X126726610Y-125841742D02*
X126640768Y-125790449D01*
X126640768Y-121209551D02*
X126559123Y-121267291D01*
X126640768Y-125790449D02*
X126559123Y-125732709D01*
X126559123Y-121267291D02*
X126482158Y-121331136D01*
X126559123Y-125732709D02*
X126482158Y-125668864D01*
X126482158Y-121331136D02*
X126410328Y-121400708D01*
X126482158Y-125668864D02*
X126410328Y-125599292D01*
X126410328Y-121400708D02*
X126344058Y-121475595D01*
X126410328Y-125599292D02*
X126344058Y-125524405D01*
X126344058Y-121475595D02*
X126283740Y-121555354D01*
X126344058Y-125524405D02*
X126283740Y-125444646D01*
X126283740Y-121555354D02*
X126229731Y-121639513D01*
X126283740Y-125444646D02*
X126229731Y-125360487D01*
X126229731Y-121639513D02*
X126182351Y-121727574D01*
X126229731Y-125360487D02*
X126182351Y-125272426D01*
X126182351Y-121727574D02*
X126141880Y-121819016D01*
X126182351Y-125272426D02*
X126141880Y-125180984D01*
X126141880Y-121819016D02*
X126108558Y-121913298D01*
X126141880Y-125180984D02*
X126108558Y-125086702D01*
X126108558Y-121913298D02*
X126082582Y-122009862D01*
X126108558Y-125086702D02*
X126082582Y-124990138D01*
X126082582Y-122009862D02*
X126064105Y-122108137D01*
X126082582Y-124990138D02*
X126064105Y-124891863D01*
X126064105Y-122108137D02*
X126053237Y-122207542D01*
X126064105Y-124891863D02*
X126053237Y-124792458D01*
X126053237Y-122207542D02*
X126050042Y-122307488D01*
X126053237Y-124792458D02*
X126050042Y-124692512D01*
X126050042Y-124692512D02*
X126050042Y-122307488D01*
X122300000Y-121000000D02*
X122399704Y-121007687D01*
X122300000Y-126000000D02*
X122399704Y-125992313D01*
X122399704Y-121007687D02*
X122498522Y-121023015D01*
X122399704Y-125992313D02*
X122498522Y-125976985D01*
X122498522Y-121023015D02*
X122595869Y-121045893D01*
X122498522Y-125976985D02*
X122595869Y-125954107D01*
X122595869Y-121045893D02*
X122691169Y-121076186D01*
X122595869Y-125954107D02*
X122691169Y-125923814D01*
X122691169Y-121076186D02*
X122783859Y-121113715D01*
X122691169Y-125923814D02*
X122783859Y-125886285D01*
X122783859Y-121113715D02*
X122873390Y-121158258D01*
X122783859Y-125886285D02*
X122873390Y-125841742D01*
X122873390Y-121158258D02*
X122959232Y-121209551D01*
X122873390Y-125841742D02*
X122959232Y-125790449D01*
X122959232Y-121209551D02*
X123040877Y-121267291D01*
X122959232Y-125790449D02*
X123040877Y-125732709D01*
X123040877Y-121267291D02*
X123117842Y-121331136D01*
X123040877Y-125732709D02*
X123117842Y-125668864D01*
X123117842Y-121331136D02*
X123189672Y-121400708D01*
X123117842Y-125668864D02*
X123189672Y-125599292D01*
X123189672Y-121400708D02*
X123255942Y-121475595D01*
X123189672Y-125599292D02*
X123255942Y-125524405D01*
X123255942Y-121475595D02*
X123316260Y-121555354D01*
X123255942Y-125524405D02*
X123316260Y-125444646D01*
X123316260Y-121555354D02*
X123370269Y-121639513D01*
X123316260Y-125444646D02*
X123370269Y-125360487D01*
X123370269Y-121639513D02*
X123417649Y-121727574D01*
X123370269Y-125360487D02*
X123417649Y-125272426D01*
X123417649Y-121727574D02*
X123458120Y-121819016D01*
X123417649Y-125272426D02*
X123458120Y-125180984D01*
X123458120Y-121819016D02*
X123491442Y-121913298D01*
X123458120Y-125180984D02*
X123491442Y-125086702D01*
X123491442Y-121913298D02*
X123517418Y-122009862D01*
X123491442Y-125086702D02*
X123517418Y-124990138D01*
X123517418Y-122009862D02*
X123535895Y-122108137D01*
X123517418Y-124990138D02*
X123535895Y-124891863D01*
X123535895Y-122108137D02*
X123546763Y-122207542D01*
X123535895Y-124891863D02*
X123546763Y-124792458D01*
X123546763Y-122207542D02*
X123549958Y-122307488D01*
X123546763Y-124792458D02*
X123549958Y-124692512D01*
X123549958Y-124692512D02*
X123549958Y-122307488D01*
X97300025Y-126000000D02*
X122300000Y-126000000D01*
X92300000Y-126000000D02*
X84800000Y-126000000D01*
X97300025Y-121000000D02*
X122300000Y-121000000D01*
X92300000Y-121000000D02*
X84800000Y-121000000D01*
X97300025Y-121000000D02*
X97200321Y-121007687D01*
X97300025Y-126000000D02*
X97200321Y-125992313D01*
X97200321Y-121007687D02*
X97101503Y-121023015D01*
X97200321Y-125992313D02*
X97101503Y-125976985D01*
X97101503Y-121023015D02*
X97004156Y-121045893D01*
X97101503Y-125976985D02*
X97004156Y-125954107D01*
X97004156Y-121045893D02*
X96908856Y-121076186D01*
X97004156Y-125954107D02*
X96908856Y-125923814D01*
X96908856Y-121076186D02*
X96816166Y-121113715D01*
X96908856Y-125923814D02*
X96816166Y-125886285D01*
X96816166Y-121113715D02*
X96726635Y-121158258D01*
X96816166Y-125886285D02*
X96726635Y-125841742D01*
X96726635Y-121158258D02*
X96640793Y-121209551D01*
X96726635Y-125841742D02*
X96640793Y-125790449D01*
X96640793Y-121209551D02*
X96559148Y-121267291D01*
X96640793Y-125790449D02*
X96559148Y-125732709D01*
X96559148Y-121267291D02*
X96482183Y-121331136D01*
X96559148Y-125732709D02*
X96482183Y-125668864D01*
X96482183Y-121331136D02*
X96410353Y-121400708D01*
X96482183Y-125668864D02*
X96410353Y-125599292D01*
X96410353Y-121400708D02*
X96344083Y-121475595D01*
X96410353Y-125599292D02*
X96344083Y-125524405D01*
X96344083Y-121475595D02*
X96283765Y-121555354D01*
X96344083Y-125524405D02*
X96283765Y-125444646D01*
X96283765Y-121555354D02*
X96229756Y-121639513D01*
X96283765Y-125444646D02*
X96229756Y-125360487D01*
X96229756Y-121639513D02*
X96182376Y-121727574D01*
X96229756Y-125360487D02*
X96182376Y-125272426D01*
X96182376Y-121727574D02*
X96141905Y-121819016D01*
X96182376Y-125272426D02*
X96141905Y-125180984D01*
X96141905Y-121819016D02*
X96108583Y-121913298D01*
X96141905Y-125180984D02*
X96108583Y-125086702D01*
X96108583Y-121913298D02*
X96082607Y-122009862D01*
X96108583Y-125086702D02*
X96082607Y-124990138D01*
X96082607Y-122009862D02*
X96064130Y-122108137D01*
X96082607Y-124990138D02*
X96064130Y-124891863D01*
X96064130Y-122108137D02*
X96053262Y-122207542D01*
X96064130Y-124891863D02*
X96053262Y-124792458D01*
X96053262Y-122207542D02*
X96050067Y-122307488D01*
X96053262Y-124792458D02*
X96050067Y-124692512D01*
X96050067Y-124692512D02*
X96050067Y-122307488D01*
X92300000Y-121000000D02*
X92399704Y-121007687D01*
X92300000Y-126000000D02*
X92399704Y-125992313D01*
X92399704Y-121007687D02*
X92498522Y-121023015D01*
X92399704Y-125992313D02*
X92498522Y-125976985D01*
X92498522Y-121023015D02*
X92595869Y-121045893D01*
X92498522Y-125976985D02*
X92595869Y-125954107D01*
X92595869Y-121045893D02*
X92691169Y-121076186D01*
X92595869Y-125954107D02*
X92691169Y-125923814D01*
X92691169Y-121076186D02*
X92783859Y-121113715D01*
X92691169Y-125923814D02*
X92783859Y-125886285D01*
X92783859Y-121113715D02*
X92873390Y-121158258D01*
X92783859Y-125886285D02*
X92873390Y-125841742D01*
X92873390Y-121158258D02*
X92959232Y-121209551D01*
X92873390Y-125841742D02*
X92959232Y-125790449D01*
X92959232Y-121209551D02*
X93040877Y-121267291D01*
X92959232Y-125790449D02*
X93040877Y-125732709D01*
X93040877Y-121267291D02*
X93117842Y-121331136D01*
X93040877Y-125732709D02*
X93117842Y-125668864D01*
X93117842Y-121331136D02*
X93189672Y-121400708D01*
X93117842Y-125668864D02*
X93189672Y-125599292D01*
X93189672Y-121400708D02*
X93255942Y-121475595D01*
X93189672Y-125599292D02*
X93255942Y-125524405D01*
X93255942Y-121475595D02*
X93316260Y-121555354D01*
X93255942Y-125524405D02*
X93316260Y-125444646D01*
X93316260Y-121555354D02*
X93370269Y-121639513D01*
X93316260Y-125444646D02*
X93370269Y-125360487D01*
X93370269Y-121639513D02*
X93417649Y-121727574D01*
X93370269Y-125360487D02*
X93417649Y-125272426D01*
X93417649Y-121727574D02*
X93458120Y-121819016D01*
X93417649Y-125272426D02*
X93458120Y-125180984D01*
X93458120Y-121819016D02*
X93491442Y-121913298D01*
X93458120Y-125180984D02*
X93491442Y-125086702D01*
X93491442Y-121913298D02*
X93517418Y-122009862D01*
X93491442Y-125086702D02*
X93517418Y-124990138D01*
X93517418Y-122009862D02*
X93535895Y-122108137D01*
X93517418Y-124990138D02*
X93535895Y-124891863D01*
X93535895Y-122108137D02*
X93546763Y-122207542D01*
X93535895Y-124891863D02*
X93546763Y-124792458D01*
X93546763Y-122207542D02*
X93549958Y-122307488D01*
X93546763Y-124792458D02*
X93549958Y-124692512D01*
X93549958Y-124692512D02*
X93549958Y-122307488D01*
X72300000Y-121000000D02*
X79800000Y-121000000D01*
X72300000Y-126000000D02*
X79800000Y-126000000D01*
X67300000Y-126000000D02*
X67399704Y-125992313D01*
X67300000Y-121000000D02*
X67399704Y-121007687D01*
X67399704Y-125992313D02*
X67498522Y-125976985D01*
X67399704Y-121007687D02*
X67498522Y-121023015D01*
X67498522Y-125976985D02*
X67595869Y-125954107D01*
X67498522Y-121023015D02*
X67595869Y-121045893D01*
X67595869Y-125954107D02*
X67691169Y-125923814D01*
X67595869Y-121045893D02*
X67691169Y-121076186D01*
X67691169Y-125923814D02*
X67783859Y-125886285D01*
X67691169Y-121076186D02*
X67783859Y-121113715D01*
X67783859Y-125886285D02*
X67873390Y-125841742D01*
X67783859Y-121113715D02*
X67873390Y-121158258D01*
X67873390Y-125841742D02*
X67959232Y-125790449D01*
X67873390Y-121158258D02*
X67959232Y-121209551D01*
X67959232Y-125790449D02*
X68040877Y-125732709D01*
X67959232Y-121209551D02*
X68040877Y-121267291D01*
X68040877Y-125732709D02*
X68117842Y-125668864D01*
X68040877Y-121267291D02*
X68117842Y-121331136D01*
X68117842Y-125668864D02*
X68189672Y-125599292D01*
X68117842Y-121331136D02*
X68189672Y-121400708D01*
X68189672Y-125599292D02*
X68255942Y-125524405D01*
X68189672Y-121400708D02*
X68255942Y-121475595D01*
X68255942Y-125524405D02*
X68316260Y-125444646D01*
X68255942Y-121475595D02*
X68316260Y-121555354D01*
X68316260Y-125444646D02*
X68370269Y-125360487D01*
X68316260Y-121555354D02*
X68370269Y-121639513D01*
X68370269Y-125360487D02*
X68417649Y-125272426D01*
X68370269Y-121639513D02*
X68417649Y-121727574D01*
X68417649Y-125272426D02*
X68458120Y-125180984D01*
X68417649Y-121727574D02*
X68458120Y-121819016D01*
X68458120Y-125180984D02*
X68491442Y-125086702D01*
X68458120Y-121819016D02*
X68491442Y-121913298D01*
X68491442Y-125086702D02*
X68517418Y-124990138D01*
X68491442Y-121913298D02*
X68517418Y-122009862D01*
X68517418Y-124990138D02*
X68535895Y-124891863D01*
X68517418Y-122009862D02*
X68535895Y-122108137D01*
X68535895Y-124891863D02*
X68546763Y-124792458D01*
X68535895Y-122108137D02*
X68546763Y-122207542D01*
X68546763Y-124792458D02*
X68549958Y-124692512D01*
X68546763Y-122207542D02*
X68549958Y-122307488D01*
X68549958Y-122307488D02*
X68549958Y-124692512D01*
X72300000Y-126000000D02*
X72200296Y-125992313D01*
X72300000Y-121000000D02*
X72200296Y-121007687D01*
X72200296Y-125992313D02*
X72101478Y-125976985D01*
X72200296Y-121007687D02*
X72101478Y-121023015D01*
X72101478Y-125976985D02*
X72004131Y-125954107D01*
X72101478Y-121023015D02*
X72004131Y-121045893D01*
X72004131Y-125954107D02*
X71908831Y-125923814D01*
X72004131Y-121045893D02*
X71908831Y-121076186D01*
X71908831Y-125923814D02*
X71816141Y-125886285D01*
X71908831Y-121076186D02*
X71816141Y-121113715D01*
X71816141Y-125886285D02*
X71726610Y-125841742D01*
X71816141Y-121113715D02*
X71726610Y-121158258D01*
X71726610Y-125841742D02*
X71640768Y-125790449D01*
X71726610Y-121158258D02*
X71640768Y-121209551D01*
X71640768Y-125790449D02*
X71559123Y-125732709D01*
X71640768Y-121209551D02*
X71559123Y-121267291D01*
X71559123Y-125732709D02*
X71482158Y-125668864D01*
X71559123Y-121267291D02*
X71482158Y-121331136D01*
X71482158Y-125668864D02*
X71410328Y-125599292D01*
X71482158Y-121331136D02*
X71410328Y-121400708D01*
X71410328Y-125599292D02*
X71344058Y-125524405D01*
X71410328Y-121400708D02*
X71344058Y-121475595D01*
X71344058Y-125524405D02*
X71283740Y-125444646D01*
X71344058Y-121475595D02*
X71283740Y-121555354D01*
X71283740Y-125444646D02*
X71229731Y-125360487D01*
X71283740Y-121555354D02*
X71229731Y-121639513D01*
X71229731Y-125360487D02*
X71182351Y-125272426D01*
X71229731Y-121639513D02*
X71182351Y-121727574D01*
X71182351Y-125272426D02*
X71141880Y-125180984D01*
X71182351Y-121727574D02*
X71141880Y-121819016D01*
X71141880Y-125180984D02*
X71108558Y-125086702D01*
X71141880Y-121819016D02*
X71108558Y-121913298D01*
X71108558Y-125086702D02*
X71082582Y-124990138D01*
X71108558Y-121913298D02*
X71082582Y-122009862D01*
X71082582Y-124990138D02*
X71064105Y-124891863D01*
X71082582Y-122009862D02*
X71064105Y-122108137D01*
X71064105Y-124891863D02*
X71053237Y-124792458D01*
X71064105Y-122108137D02*
X71053237Y-122207542D01*
X71053237Y-124792458D02*
X71050042Y-124692512D01*
X71053237Y-122207542D02*
X71050042Y-122307488D01*
X71050042Y-122307488D02*
X71050042Y-124692512D01*
X42300025Y-121000000D02*
X67300000Y-121000000D01*
X37300000Y-121000000D02*
X29800000Y-121000000D01*
X42300025Y-126000000D02*
X67300000Y-126000000D01*
X37300000Y-126000000D02*
X29800000Y-126000000D01*
X37300000Y-126000000D02*
X37399704Y-125992313D01*
X37300000Y-121000000D02*
X37399704Y-121007687D01*
X37399704Y-125992313D02*
X37498522Y-125976985D01*
X37399704Y-121007687D02*
X37498522Y-121023015D01*
X37498522Y-125976985D02*
X37595869Y-125954107D01*
X37498522Y-121023015D02*
X37595869Y-121045893D01*
X37595869Y-125954107D02*
X37691169Y-125923814D01*
X37595869Y-121045893D02*
X37691169Y-121076186D01*
X37691169Y-125923814D02*
X37783859Y-125886285D01*
X37691169Y-121076186D02*
X37783859Y-121113715D01*
X37783859Y-125886285D02*
X37873390Y-125841742D01*
X37783859Y-121113715D02*
X37873390Y-121158258D01*
X37873390Y-125841742D02*
X37959232Y-125790449D01*
X37873390Y-121158258D02*
X37959232Y-121209551D01*
X37959232Y-125790449D02*
X38040877Y-125732709D01*
X37959232Y-121209551D02*
X38040877Y-121267291D01*
X38040877Y-125732709D02*
X38117842Y-125668864D01*
X38040877Y-121267291D02*
X38117842Y-121331136D01*
X38117842Y-125668864D02*
X38189672Y-125599292D01*
X38117842Y-121331136D02*
X38189672Y-121400708D01*
X38189672Y-125599292D02*
X38255942Y-125524405D01*
X38189672Y-121400708D02*
X38255942Y-121475595D01*
X38255942Y-125524405D02*
X38316260Y-125444646D01*
X38255942Y-121475595D02*
X38316260Y-121555354D01*
X38316260Y-125444646D02*
X38370269Y-125360487D01*
X38316260Y-121555354D02*
X38370269Y-121639513D01*
X38370269Y-125360487D02*
X38417649Y-125272426D01*
X38370269Y-121639513D02*
X38417649Y-121727574D01*
X38417649Y-125272426D02*
X38458120Y-125180984D01*
X38417649Y-121727574D02*
X38458120Y-121819016D01*
X38458120Y-125180984D02*
X38491442Y-125086702D01*
X38458120Y-121819016D02*
X38491442Y-121913298D01*
X38491442Y-125086702D02*
X38517418Y-124990138D01*
X38491442Y-121913298D02*
X38517418Y-122009862D01*
X38517418Y-124990138D02*
X38535895Y-124891863D01*
X38517418Y-122009862D02*
X38535895Y-122108137D01*
X38535895Y-124891863D02*
X38546763Y-124792458D01*
X38535895Y-122108137D02*
X38546763Y-122207542D01*
X38546763Y-124792458D02*
X38549958Y-124692512D01*
X38546763Y-122207542D02*
X38549958Y-122307488D01*
X38549958Y-122307488D02*
X38549958Y-124692512D01*
X42300025Y-126000000D02*
X42200321Y-125992313D01*
X42300025Y-121000000D02*
X42200321Y-121007687D01*
X42200321Y-125992313D02*
X42101503Y-125976985D01*
X42200321Y-121007687D02*
X42101503Y-121023015D01*
X42101503Y-125976985D02*
X42004156Y-125954107D01*
X42101503Y-121023015D02*
X42004156Y-121045893D01*
X42004156Y-125954107D02*
X41908856Y-125923814D01*
X42004156Y-121045893D02*
X41908856Y-121076186D01*
X41908856Y-125923814D02*
X41816166Y-125886285D01*
X41908856Y-121076186D02*
X41816166Y-121113715D01*
X41816166Y-125886285D02*
X41726635Y-125841742D01*
X41816166Y-121113715D02*
X41726635Y-121158258D01*
X41726635Y-125841742D02*
X41640793Y-125790449D01*
X41726635Y-121158258D02*
X41640793Y-121209551D01*
X41640793Y-125790449D02*
X41559148Y-125732709D01*
X41640793Y-121209551D02*
X41559148Y-121267291D01*
X41559148Y-125732709D02*
X41482183Y-125668864D01*
X41559148Y-121267291D02*
X41482183Y-121331136D01*
X41482183Y-125668864D02*
X41410353Y-125599292D01*
X41482183Y-121331136D02*
X41410353Y-121400708D01*
X41410353Y-125599292D02*
X41344083Y-125524405D01*
X41410353Y-121400708D02*
X41344083Y-121475595D01*
X41344083Y-125524405D02*
X41283765Y-125444646D01*
X41344083Y-121475595D02*
X41283765Y-121555354D01*
X41283765Y-125444646D02*
X41229756Y-125360487D01*
X41283765Y-121555354D02*
X41229756Y-121639513D01*
X41229756Y-125360487D02*
X41182376Y-125272426D01*
X41229756Y-121639513D02*
X41182376Y-121727574D01*
X41182376Y-125272426D02*
X41141905Y-125180984D01*
X41182376Y-121727574D02*
X41141905Y-121819016D01*
X41141905Y-125180984D02*
X41108583Y-125086702D01*
X41141905Y-121819016D02*
X41108583Y-121913298D01*
X41108583Y-125086702D02*
X41082607Y-124990138D01*
X41108583Y-121913298D02*
X41082607Y-122009862D01*
X41082607Y-124990138D02*
X41064130Y-124891863D01*
X41082607Y-122009862D02*
X41064130Y-122108137D01*
X41064130Y-124891863D02*
X41053262Y-124792458D01*
X41064130Y-122108137D02*
X41053262Y-122207542D01*
X41053262Y-124792458D02*
X41050067Y-124692512D01*
X41053262Y-122207542D02*
X41050067Y-122307488D01*
X41050067Y-122307488D02*
X41050067Y-124692512D01*
M02*
