M48
; DRILL file {KiCad (5.1.5)-2} date 02/11/2020 10:43:13
; FORMAT={-:-/ absolute / inch / decimal}
; #@! TF.CreationDate,2020-11-02T10:43:13+13:00
; #@! TF.GenerationSoftware,Kicad,Pcbnew,(5.1.5)-2
; #@! TF.FileFunction,NonPlated,1,2,NPTH
FMAT,2
INCH
T1C0.0315
T2C0.0787
%
G90
G05
T1
X3.6415Y-4.9744
X3.6869Y-4.9744
X3.7323Y-4.9744
X3.7777Y-4.9744
X3.8231Y-4.9744
X3.3524Y-6.9171
X3.3524Y-6.9625
X3.3524Y-7.0079
X3.3524Y-7.0533
X3.3524Y-7.0987
X1.4761Y-4.9744
X1.5215Y-4.9744
X1.5669Y-4.9744
X1.6123Y-4.9744
X1.6577Y-4.9744
X3.128Y-6.9171
X3.128Y-6.9625
X3.128Y-7.0079
X3.128Y-7.0533
X3.128Y-7.0987
X3.128Y-5.4604
X3.128Y-5.5058
X3.128Y-5.5512
X3.128Y-5.5966
X3.128Y-5.642
X2.6572Y-4.75
X2.7026Y-4.75
X2.748Y-4.75
X2.7934Y-4.75
X2.8388Y-4.75
X2.6572Y-4.9744
X2.7026Y-4.9744
X2.748Y-4.9744
X2.7934Y-4.9744
X2.8388Y-4.9744
X3.3524Y-2.5076
X3.3524Y-2.553
X3.3524Y-2.5984
X3.3524Y-2.6438
X3.3524Y-2.6892
X3.128Y-2.5076
X3.128Y-2.553
X3.128Y-2.5984
X3.128Y-2.6438
X3.128Y-2.6892
X4.8226Y-4.9744
X4.868Y-4.9744
X4.9134Y-4.9744
X4.9588Y-4.9744
X5.0042Y-4.9744
X4.8226Y-4.75
X4.868Y-4.75
X4.9134Y-4.75
X4.9588Y-4.75
X5.0042Y-4.75
X3.128Y-3.9643
X3.128Y-4.0097
X3.128Y-4.0551
X3.128Y-4.1005
X3.128Y-4.1459
X3.6415Y-4.75
X3.6869Y-4.75
X3.7323Y-4.75
X3.7777Y-4.75
X3.8231Y-4.75
X3.3524Y-3.9643
X3.3524Y-4.0097
X3.3524Y-4.0551
X3.3524Y-4.1005
X3.3524Y-4.1459
X3.3524Y-5.4604
X3.3524Y-5.5058
X3.3524Y-5.5512
X3.3524Y-5.5966
X3.3524Y-5.642
X1.4761Y-4.75
X1.5215Y-4.75
X1.5669Y-4.75
X1.6123Y-4.75
X1.6577Y-4.75
T2
X5.2618Y-6.7854
X5.2618Y-7.1201
X5.2618Y-3.8327
X5.2618Y-4.1673
X5.2618Y-4.3453
X5.2618Y-4.6799
X3.0965Y-3.8327
X3.0965Y-4.1673
X3.0965Y-7.298
X3.0965Y-7.6327
X3.0965Y-4.3453
X3.0965Y-4.6799
X5.2618Y-7.298
X5.2618Y-7.6327
X3.0965Y-6.7854
X3.0965Y-7.1201
T0
M30
