M48
; DRILL file {KiCad (5.1.9)-1} date 05/10/21 07:03:45
; FORMAT={-:-/ absolute / inch / decimal}
; #@! TF.CreationDate,2021-05-10T07:03:45+12:00
; #@! TF.GenerationSoftware,Kicad,Pcbnew,(5.1.9)-1
; #@! TF.FileFunction,NonPlated,1,2,NPTH
FMAT,2
INCH
T1C0.0315
T2C0.0787
%
G90
G05
T1
X1.1651Y-4.3169
X1.1651Y-4.5413
X1.2105Y-4.3169
X1.2105Y-4.5413
X1.2559Y-4.3169
X1.2559Y-4.5413
X1.3013Y-4.3169
X1.3013Y-4.5413
X1.3467Y-4.3169
X1.3467Y-4.5413
X2.1494Y-4.5413
X2.1494Y-4.3169
X2.1948Y-4.5413
X2.1948Y-4.3169
X2.2402Y-4.5413
X2.2402Y-4.3169
X2.2856Y-4.5413
X2.2856Y-4.3169
X2.331Y-4.5413
X2.331Y-4.3169
X2.7382Y-3.4919
X2.7382Y-3.5373
X2.7382Y-3.5827
X2.7382Y-3.6281
X2.7382Y-3.6735
X2.7382Y-6.4446
X2.7382Y-6.49
X2.7382Y-6.5354
X2.7382Y-6.5808
X2.7382Y-6.6262
X2.7382Y-2.232
X2.7382Y-2.2774
X2.7382Y-2.3228
X2.7382Y-2.3682
X2.7382Y-2.4136
X2.7382Y-5.1848
X2.7382Y-5.2302
X2.7382Y-5.2756
X2.7382Y-5.321
X2.7382Y-5.3664
X2.9232Y-2.232
X2.9232Y-2.2774
X2.9232Y-2.3228
X2.9232Y-2.3682
X2.9232Y-2.4136
X2.9232Y-5.1848
X2.9232Y-5.2302
X2.9232Y-5.2756
X2.9232Y-5.321
X2.9232Y-5.3664
X2.9232Y-3.4919
X2.9232Y-3.5373
X2.9232Y-3.5827
X2.9232Y-3.6281
X2.9232Y-3.6735
X2.9232Y-6.4446
X2.9232Y-6.49
X2.9232Y-6.5354
X2.9232Y-6.5808
X2.9232Y-6.6262
X3.2911Y-4.5413
X3.2911Y-4.3169
X3.3365Y-4.5413
X3.3365Y-4.3169
X3.3819Y-4.5413
X3.3819Y-4.3169
X3.4273Y-4.5413
X3.4273Y-4.3169
X3.4727Y-4.5413
X3.4727Y-4.3169
X4.3147Y-4.3169
X4.3147Y-4.5413
X4.3601Y-4.3169
X4.3601Y-4.5413
X4.4055Y-4.3169
X4.4055Y-4.5413
X4.4509Y-4.3169
X4.4509Y-4.5413
X4.4963Y-4.3169
X4.4963Y-4.5413
T2
X2.7067Y-3.3996
X2.7067Y-3.7343
X2.7067Y-3.9122
X2.7067Y-4.2469
X2.7067Y-6.3524
X2.7067Y-6.687
X2.7067Y-6.865
X2.7067Y-7.1996
X4.8327Y-3.3996
X4.8327Y-3.7343
X4.8327Y-3.9122
X4.8327Y-4.2469
X4.8327Y-6.3524
X4.8327Y-6.687
X4.8327Y-6.865
X4.8327Y-7.1996
T0
M30
