M48
; DRILL file {KiCad (6.0.5)} date Tue Nov 22 13:16:39 2022
; FORMAT={-:-/ absolute / inch / decimal}
; #@! TF.CreationDate,2022-11-22T13:16:39+13:00
; #@! TF.GenerationSoftware,Kicad,Pcbnew,(6.0.5)
; #@! TF.FileFunction,Plated,1,2,PTH
FMAT,2
INCH
; #@! TA.AperFunction,Plated,PTH,ViaDrill
T1C0.0157
; #@! TA.AperFunction,Plated,PTH,ComponentDrill
T2C0.1063
; #@! TA.AperFunction,Plated,PTH,ViaDrill
T3C0.3346
%
G90
G05
T1
X3.4843Y-1.7047
X3.4843Y-2.0433
X3.4843Y-5.0472
X3.4882Y-4.7087
T2
X3.1024Y-1.6142
X3.1024Y-4.2913
X3.1024Y-4.6181
X3.1024Y-7.2953
X4.0217Y-1.6142
X4.0217Y-4.6181
X4.0236Y-4.2913
X4.0236Y-7.2953
X4.2835Y-1.6142
X4.2835Y-4.2913
X4.2835Y-4.6181
X4.2835Y-7.2953
X5.2028Y-1.6142
X5.2028Y-4.6181
X5.2047Y-4.2913
X5.2047Y-7.2953
T3
X4.7677Y-1.8504
X4.7677Y-2.4409
X4.7677Y-3.0315
X4.7677Y-4.8543
X4.7677Y-5.4449
X4.7677Y-6.0354
X4.7677Y-6.5709
X4.7677Y-7.0827
T0
M30
