G04 #@! TF.GenerationSoftware,KiCad,Pcbnew,(6.0.5)*
G04 #@! TF.CreationDate,2022-11-22T13:16:36+13:00*
G04 #@! TF.ProjectId,RGB-to-component-covers,5247422d-746f-42d6-936f-6d706f6e656e,rev?*
G04 #@! TF.SameCoordinates,Original*
G04 #@! TF.FileFunction,Legend,Top*
G04 #@! TF.FilePolarity,Positive*
%FSLAX46Y46*%
G04 Gerber Fmt 4.6, Leading zero omitted, Abs format (unit mm)*
G04 Created by KiCad (PCBNEW (6.0.5)) date 2022-11-22 13:16:36*
%MOMM*%
%LPD*%
G01*
G04 APERTURE LIST*
%ADD10C,0.150000*%
%ADD11C,0.300000*%
%ADD12C,0.010000*%
%ADD13C,0.254000*%
G04 APERTURE END LIST*
D10*
X108147619Y-136280952D02*
X107433333Y-136280952D01*
X107290476Y-136233333D01*
X107195238Y-136138095D01*
X107147619Y-135995238D01*
X107147619Y-135900000D01*
X107147619Y-137233333D02*
X107147619Y-136757142D01*
X108147619Y-136757142D01*
X107242857Y-138138095D02*
X107195238Y-138090476D01*
X107147619Y-137947619D01*
X107147619Y-137852380D01*
X107195238Y-137709523D01*
X107290476Y-137614285D01*
X107385714Y-137566666D01*
X107576190Y-137519047D01*
X107719047Y-137519047D01*
X107909523Y-137566666D01*
X108004761Y-137614285D01*
X108100000Y-137709523D01*
X108147619Y-137852380D01*
X108147619Y-137947619D01*
X108100000Y-138090476D01*
X108052380Y-138138095D01*
X108147619Y-138852380D02*
X107433333Y-138852380D01*
X107290476Y-138804761D01*
X107195238Y-138709523D01*
X107147619Y-138566666D01*
X107147619Y-138471428D01*
X107147619Y-139804761D02*
X107147619Y-139328571D01*
X108147619Y-139328571D01*
X107242857Y-140709523D02*
X107195238Y-140661904D01*
X107147619Y-140519047D01*
X107147619Y-140423809D01*
X107195238Y-140280952D01*
X107290476Y-140185714D01*
X107385714Y-140138095D01*
X107576190Y-140090476D01*
X107719047Y-140090476D01*
X107909523Y-140138095D01*
X108004761Y-140185714D01*
X108100000Y-140280952D01*
X108147619Y-140423809D01*
X108147619Y-140519047D01*
X108100000Y-140661904D01*
X108052380Y-140709523D01*
X108147619Y-141423809D02*
X107433333Y-141423809D01*
X107290476Y-141376190D01*
X107195238Y-141280952D01*
X107147619Y-141138095D01*
X107147619Y-141042857D01*
X107147619Y-142376190D02*
X107147619Y-141900000D01*
X108147619Y-141900000D01*
X107242857Y-143280952D02*
X107195238Y-143233333D01*
X107147619Y-143090476D01*
X107147619Y-142995238D01*
X107195238Y-142852380D01*
X107290476Y-142757142D01*
X107385714Y-142709523D01*
X107576190Y-142661904D01*
X107719047Y-142661904D01*
X107909523Y-142709523D01*
X108004761Y-142757142D01*
X108100000Y-142852380D01*
X108147619Y-142995238D01*
X108147619Y-143090476D01*
X108100000Y-143233333D01*
X108052380Y-143280952D01*
X108147619Y-143995238D02*
X107433333Y-143995238D01*
X107290476Y-143947619D01*
X107195238Y-143852380D01*
X107147619Y-143709523D01*
X107147619Y-143614285D01*
X107147619Y-144947619D02*
X107147619Y-144471428D01*
X108147619Y-144471428D01*
X107242857Y-145852380D02*
X107195238Y-145804761D01*
X107147619Y-145661904D01*
X107147619Y-145566666D01*
X107195238Y-145423809D01*
X107290476Y-145328571D01*
X107385714Y-145280952D01*
X107576190Y-145233333D01*
X107719047Y-145233333D01*
X107909523Y-145280952D01*
X108004761Y-145328571D01*
X108100000Y-145423809D01*
X108147619Y-145566666D01*
X108147619Y-145661904D01*
X108100000Y-145804761D01*
X108052380Y-145852380D01*
D11*
X81005238Y-61723809D02*
X81957619Y-61057142D01*
X81005238Y-60580952D02*
X83005238Y-60580952D01*
X83005238Y-61342857D01*
X82910000Y-61533333D01*
X82814761Y-61628571D01*
X82624285Y-61723809D01*
X82338571Y-61723809D01*
X82148095Y-61628571D01*
X82052857Y-61533333D01*
X81957619Y-61342857D01*
X81957619Y-60580952D01*
X82910000Y-63628571D02*
X83005238Y-63438095D01*
X83005238Y-63152380D01*
X82910000Y-62866666D01*
X82719523Y-62676190D01*
X82529047Y-62580952D01*
X82148095Y-62485714D01*
X81862380Y-62485714D01*
X81481428Y-62580952D01*
X81290952Y-62676190D01*
X81100476Y-62866666D01*
X81005238Y-63152380D01*
X81005238Y-63342857D01*
X81100476Y-63628571D01*
X81195714Y-63723809D01*
X81862380Y-63723809D01*
X81862380Y-63342857D01*
X82052857Y-65247619D02*
X81957619Y-65533333D01*
X81862380Y-65628571D01*
X81671904Y-65723809D01*
X81386190Y-65723809D01*
X81195714Y-65628571D01*
X81100476Y-65533333D01*
X81005238Y-65342857D01*
X81005238Y-64580952D01*
X83005238Y-64580952D01*
X83005238Y-65247619D01*
X82910000Y-65438095D01*
X82814761Y-65533333D01*
X82624285Y-65628571D01*
X82433809Y-65628571D01*
X82243333Y-65533333D01*
X82148095Y-65438095D01*
X82052857Y-65247619D01*
X82052857Y-64580952D01*
X82338571Y-67819047D02*
X82338571Y-68580952D01*
X83005238Y-68104761D02*
X81290952Y-68104761D01*
X81100476Y-68200000D01*
X81005238Y-68390476D01*
X81005238Y-68580952D01*
X81005238Y-69533333D02*
X81100476Y-69342857D01*
X81195714Y-69247619D01*
X81386190Y-69152380D01*
X81957619Y-69152380D01*
X82148095Y-69247619D01*
X82243333Y-69342857D01*
X82338571Y-69533333D01*
X82338571Y-69819047D01*
X82243333Y-70009523D01*
X82148095Y-70104761D01*
X81957619Y-70200000D01*
X81386190Y-70200000D01*
X81195714Y-70104761D01*
X81100476Y-70009523D01*
X81005238Y-69819047D01*
X81005238Y-69533333D01*
X81957619Y-72961904D02*
X81005238Y-72961904D01*
X83005238Y-72295238D02*
X81957619Y-72961904D01*
X83005238Y-73628571D01*
X81005238Y-74295238D02*
X83005238Y-74295238D01*
X83005238Y-75057142D01*
X82910000Y-75247619D01*
X82814761Y-75342857D01*
X82624285Y-75438095D01*
X82338571Y-75438095D01*
X82148095Y-75342857D01*
X82052857Y-75247619D01*
X81957619Y-75057142D01*
X81957619Y-74295238D01*
X81005238Y-76295238D02*
X83005238Y-76295238D01*
X82243333Y-76295238D02*
X82338571Y-76485714D01*
X82338571Y-76866666D01*
X82243333Y-77057142D01*
X82148095Y-77152380D01*
X81957619Y-77247619D01*
X81386190Y-77247619D01*
X81195714Y-77152380D01*
X81100476Y-77057142D01*
X81005238Y-76866666D01*
X81005238Y-76485714D01*
X81100476Y-76295238D01*
X81005238Y-78104761D02*
X83005238Y-78104761D01*
X83005238Y-78866666D01*
X82910000Y-79057142D01*
X82814761Y-79152380D01*
X82624285Y-79247619D01*
X82338571Y-79247619D01*
X82148095Y-79152380D01*
X82052857Y-79057142D01*
X81957619Y-78866666D01*
X81957619Y-78104761D01*
X81005238Y-80104761D02*
X82338571Y-80104761D01*
X81957619Y-80104761D02*
X82148095Y-80200000D01*
X82243333Y-80295238D01*
X82338571Y-80485714D01*
X82338571Y-80676190D01*
X82338571Y-82580952D02*
X82338571Y-83342857D01*
X83005238Y-82866666D02*
X81290952Y-82866666D01*
X81100476Y-82961904D01*
X81005238Y-83152380D01*
X81005238Y-83342857D01*
X81005238Y-84009523D02*
X82338571Y-84009523D01*
X81957619Y-84009523D02*
X82148095Y-84104761D01*
X82243333Y-84200000D01*
X82338571Y-84390476D01*
X82338571Y-84580952D01*
X81005238Y-86104761D02*
X82052857Y-86104761D01*
X82243333Y-86009523D01*
X82338571Y-85819047D01*
X82338571Y-85438095D01*
X82243333Y-85247619D01*
X81100476Y-86104761D02*
X81005238Y-85914285D01*
X81005238Y-85438095D01*
X81100476Y-85247619D01*
X81290952Y-85152380D01*
X81481428Y-85152380D01*
X81671904Y-85247619D01*
X81767142Y-85438095D01*
X81767142Y-85914285D01*
X81862380Y-86104761D01*
X82338571Y-87057142D02*
X81005238Y-87057142D01*
X82148095Y-87057142D02*
X82243333Y-87152380D01*
X82338571Y-87342857D01*
X82338571Y-87628571D01*
X82243333Y-87819047D01*
X82052857Y-87914285D01*
X81005238Y-87914285D01*
X81100476Y-88771428D02*
X81005238Y-88961904D01*
X81005238Y-89342857D01*
X81100476Y-89533333D01*
X81290952Y-89628571D01*
X81386190Y-89628571D01*
X81576666Y-89533333D01*
X81671904Y-89342857D01*
X81671904Y-89057142D01*
X81767142Y-88866666D01*
X81957619Y-88771428D01*
X82052857Y-88771428D01*
X82243333Y-88866666D01*
X82338571Y-89057142D01*
X82338571Y-89342857D01*
X82243333Y-89533333D01*
X81100476Y-91342857D02*
X81005238Y-91152380D01*
X81005238Y-90771428D01*
X81100476Y-90580952D01*
X81195714Y-90485714D01*
X81386190Y-90390476D01*
X81957619Y-90390476D01*
X82148095Y-90485714D01*
X82243333Y-90580952D01*
X82338571Y-90771428D01*
X82338571Y-91152380D01*
X82243333Y-91342857D01*
X81005238Y-92485714D02*
X81100476Y-92295238D01*
X81195714Y-92200000D01*
X81386190Y-92104761D01*
X81957619Y-92104761D01*
X82148095Y-92200000D01*
X82243333Y-92295238D01*
X82338571Y-92485714D01*
X82338571Y-92771428D01*
X82243333Y-92961904D01*
X82148095Y-93057142D01*
X81957619Y-93152380D01*
X81386190Y-93152380D01*
X81195714Y-93057142D01*
X81100476Y-92961904D01*
X81005238Y-92771428D01*
X81005238Y-92485714D01*
X81005238Y-94866666D02*
X83005238Y-94866666D01*
X81100476Y-94866666D02*
X81005238Y-94676190D01*
X81005238Y-94295238D01*
X81100476Y-94104761D01*
X81195714Y-94009523D01*
X81386190Y-93914285D01*
X81957619Y-93914285D01*
X82148095Y-94009523D01*
X82243333Y-94104761D01*
X82338571Y-94295238D01*
X82338571Y-94676190D01*
X82243333Y-94866666D01*
X81100476Y-96580952D02*
X81005238Y-96390476D01*
X81005238Y-96009523D01*
X81100476Y-95819047D01*
X81290952Y-95723809D01*
X82052857Y-95723809D01*
X82243333Y-95819047D01*
X82338571Y-96009523D01*
X82338571Y-96390476D01*
X82243333Y-96580952D01*
X82052857Y-96676190D01*
X81862380Y-96676190D01*
X81671904Y-95723809D01*
X81005238Y-97533333D02*
X82338571Y-97533333D01*
X81957619Y-97533333D02*
X82148095Y-97628571D01*
X82243333Y-97723809D01*
X82338571Y-97914285D01*
X82338571Y-98104761D01*
X79118571Y-66533333D02*
X77785238Y-66914285D01*
X78737619Y-67295238D01*
X77785238Y-67676190D01*
X79118571Y-68057142D01*
X77785238Y-69676190D02*
X78832857Y-69676190D01*
X79023333Y-69580952D01*
X79118571Y-69390476D01*
X79118571Y-69009523D01*
X79023333Y-68819047D01*
X77880476Y-69676190D02*
X77785238Y-69485714D01*
X77785238Y-69009523D01*
X77880476Y-68819047D01*
X78070952Y-68723809D01*
X78261428Y-68723809D01*
X78451904Y-68819047D01*
X78547142Y-69009523D01*
X78547142Y-69485714D01*
X78642380Y-69676190D01*
X77785238Y-70628571D02*
X79785238Y-70628571D01*
X78547142Y-70819047D02*
X77785238Y-71390476D01*
X79118571Y-71390476D02*
X78356666Y-70628571D01*
X77785238Y-73104761D02*
X78832857Y-73104761D01*
X79023333Y-73009523D01*
X79118571Y-72819047D01*
X79118571Y-72438095D01*
X79023333Y-72247619D01*
X77880476Y-73104761D02*
X77785238Y-72914285D01*
X77785238Y-72438095D01*
X77880476Y-72247619D01*
X78070952Y-72152380D01*
X78261428Y-72152380D01*
X78451904Y-72247619D01*
X78547142Y-72438095D01*
X78547142Y-72914285D01*
X78642380Y-73104761D01*
X77785238Y-74057142D02*
X79785238Y-74057142D01*
X79023333Y-74057142D02*
X79118571Y-74247619D01*
X79118571Y-74628571D01*
X79023333Y-74819047D01*
X78928095Y-74914285D01*
X78737619Y-75009523D01*
X78166190Y-75009523D01*
X77975714Y-74914285D01*
X77880476Y-74819047D01*
X77785238Y-74628571D01*
X77785238Y-74247619D01*
X77880476Y-74057142D01*
X77785238Y-76723809D02*
X78832857Y-76723809D01*
X79023333Y-76628571D01*
X79118571Y-76438095D01*
X79118571Y-76057142D01*
X79023333Y-75866666D01*
X77880476Y-76723809D02*
X77785238Y-76533333D01*
X77785238Y-76057142D01*
X77880476Y-75866666D01*
X78070952Y-75771428D01*
X78261428Y-75771428D01*
X78451904Y-75866666D01*
X78547142Y-76057142D01*
X78547142Y-76533333D01*
X78642380Y-76723809D01*
X79118571Y-77485714D02*
X77785238Y-77961904D01*
X79118571Y-78438095D01*
X77785238Y-79200000D02*
X79118571Y-79200000D01*
X79785238Y-79200000D02*
X79690000Y-79104761D01*
X79594761Y-79200000D01*
X79690000Y-79295238D01*
X79785238Y-79200000D01*
X79594761Y-79200000D01*
X77785238Y-81009523D02*
X79785238Y-81009523D01*
X77880476Y-81009523D02*
X77785238Y-80819047D01*
X77785238Y-80438095D01*
X77880476Y-80247619D01*
X77975714Y-80152380D01*
X78166190Y-80057142D01*
X78737619Y-80057142D01*
X78928095Y-80152380D01*
X79023333Y-80247619D01*
X79118571Y-80438095D01*
X79118571Y-80819047D01*
X79023333Y-81009523D01*
X77880476Y-82723809D02*
X77785238Y-82533333D01*
X77785238Y-82152380D01*
X77880476Y-81961904D01*
X78070952Y-81866666D01*
X78832857Y-81866666D01*
X79023333Y-81961904D01*
X79118571Y-82152380D01*
X79118571Y-82533333D01*
X79023333Y-82723809D01*
X78832857Y-82819047D01*
X78642380Y-82819047D01*
X78451904Y-81866666D01*
X77785238Y-83961904D02*
X77880476Y-83771428D01*
X77975714Y-83676190D01*
X78166190Y-83580952D01*
X78737619Y-83580952D01*
X78928095Y-83676190D01*
X79023333Y-83771428D01*
X79118571Y-83961904D01*
X79118571Y-84247619D01*
X79023333Y-84438095D01*
X78928095Y-84533333D01*
X78737619Y-84628571D01*
X78166190Y-84628571D01*
X77975714Y-84533333D01*
X77880476Y-84438095D01*
X77785238Y-84247619D01*
X77785238Y-83961904D01*
X77975714Y-85485714D02*
X77880476Y-85580952D01*
X77785238Y-85485714D01*
X77880476Y-85390476D01*
X77975714Y-85485714D01*
X77785238Y-85485714D01*
X77880476Y-87295238D02*
X77785238Y-87104761D01*
X77785238Y-86723809D01*
X77880476Y-86533333D01*
X77975714Y-86438095D01*
X78166190Y-86342857D01*
X78737619Y-86342857D01*
X78928095Y-86438095D01*
X79023333Y-86533333D01*
X79118571Y-86723809D01*
X79118571Y-87104761D01*
X79023333Y-87295238D01*
X77785238Y-88438095D02*
X77880476Y-88247619D01*
X77975714Y-88152380D01*
X78166190Y-88057142D01*
X78737619Y-88057142D01*
X78928095Y-88152380D01*
X79023333Y-88247619D01*
X79118571Y-88438095D01*
X79118571Y-88723809D01*
X79023333Y-88914285D01*
X78928095Y-89009523D01*
X78737619Y-89104761D01*
X78166190Y-89104761D01*
X77975714Y-89009523D01*
X77880476Y-88914285D01*
X77785238Y-88723809D01*
X77785238Y-88438095D01*
X77785238Y-89961904D02*
X79118571Y-89961904D01*
X78928095Y-89961904D02*
X79023333Y-90057142D01*
X79118571Y-90247619D01*
X79118571Y-90533333D01*
X79023333Y-90723809D01*
X78832857Y-90819047D01*
X77785238Y-90819047D01*
X78832857Y-90819047D02*
X79023333Y-90914285D01*
X79118571Y-91104761D01*
X79118571Y-91390476D01*
X79023333Y-91580952D01*
X78832857Y-91676190D01*
X77785238Y-91676190D01*
D10*
X90247619Y-45628571D02*
X90247619Y-45152380D01*
X89771428Y-45104761D01*
X89819047Y-45152380D01*
X89866666Y-45247619D01*
X89866666Y-45485714D01*
X89819047Y-45580952D01*
X89771428Y-45628571D01*
X89676190Y-45676190D01*
X89438095Y-45676190D01*
X89342857Y-45628571D01*
X89295238Y-45580952D01*
X89247619Y-45485714D01*
X89247619Y-45247619D01*
X89295238Y-45152380D01*
X89342857Y-45104761D01*
X90247619Y-45961904D02*
X89247619Y-46295238D01*
X90247619Y-46628571D01*
X89247619Y-47723809D02*
X90247619Y-47723809D01*
X90247619Y-47961904D01*
X90200000Y-48104761D01*
X90104761Y-48200000D01*
X90009523Y-48247619D01*
X89819047Y-48295238D01*
X89676190Y-48295238D01*
X89485714Y-48247619D01*
X89390476Y-48200000D01*
X89295238Y-48104761D01*
X89247619Y-47961904D01*
X89247619Y-47723809D01*
X89342857Y-49295238D02*
X89295238Y-49247619D01*
X89247619Y-49104761D01*
X89247619Y-49009523D01*
X89295238Y-48866666D01*
X89390476Y-48771428D01*
X89485714Y-48723809D01*
X89676190Y-48676190D01*
X89819047Y-48676190D01*
X90009523Y-48723809D01*
X90104761Y-48771428D01*
X90200000Y-48866666D01*
X90247619Y-49009523D01*
X90247619Y-49104761D01*
X90200000Y-49247619D01*
X90152380Y-49295238D01*
X102447619Y-75866666D02*
X102923809Y-75533333D01*
X102447619Y-75295238D02*
X103447619Y-75295238D01*
X103447619Y-75676190D01*
X103400000Y-75771428D01*
X103352380Y-75819047D01*
X103257142Y-75866666D01*
X103114285Y-75866666D01*
X103019047Y-75819047D01*
X102971428Y-75771428D01*
X102923809Y-75676190D01*
X102923809Y-75295238D01*
X103400000Y-76819047D02*
X103447619Y-76723809D01*
X103447619Y-76580952D01*
X103400000Y-76438095D01*
X103304761Y-76342857D01*
X103209523Y-76295238D01*
X103019047Y-76247619D01*
X102876190Y-76247619D01*
X102685714Y-76295238D01*
X102590476Y-76342857D01*
X102495238Y-76438095D01*
X102447619Y-76580952D01*
X102447619Y-76676190D01*
X102495238Y-76819047D01*
X102542857Y-76866666D01*
X102876190Y-76866666D01*
X102876190Y-76676190D01*
X102971428Y-77628571D02*
X102923809Y-77771428D01*
X102876190Y-77819047D01*
X102780952Y-77866666D01*
X102638095Y-77866666D01*
X102542857Y-77819047D01*
X102495238Y-77771428D01*
X102447619Y-77676190D01*
X102447619Y-77295238D01*
X103447619Y-77295238D01*
X103447619Y-77628571D01*
X103400000Y-77723809D01*
X103352380Y-77771428D01*
X103257142Y-77819047D01*
X103161904Y-77819047D01*
X103066666Y-77771428D01*
X103019047Y-77723809D01*
X102971428Y-77628571D01*
X102971428Y-77295238D01*
X102495238Y-78247619D02*
X102447619Y-78390476D01*
X102447619Y-78628571D01*
X102495238Y-78723809D01*
X102542857Y-78771428D01*
X102638095Y-78819047D01*
X102733333Y-78819047D01*
X102828571Y-78771428D01*
X102876190Y-78723809D01*
X102923809Y-78628571D01*
X102971428Y-78438095D01*
X103019047Y-78342857D01*
X103066666Y-78295238D01*
X103161904Y-78247619D01*
X103257142Y-78247619D01*
X103352380Y-78295238D01*
X103400000Y-78342857D01*
X103447619Y-78438095D01*
X103447619Y-78676190D01*
X103400000Y-78819047D01*
X102495238Y-79961904D02*
X102447619Y-80104761D01*
X102447619Y-80342857D01*
X102495238Y-80438095D01*
X102542857Y-80485714D01*
X102638095Y-80533333D01*
X102733333Y-80533333D01*
X102828571Y-80485714D01*
X102876190Y-80438095D01*
X102923809Y-80342857D01*
X102971428Y-80152380D01*
X103019047Y-80057142D01*
X103066666Y-80009523D01*
X103161904Y-79961904D01*
X103257142Y-79961904D01*
X103352380Y-80009523D01*
X103400000Y-80057142D01*
X103447619Y-80152380D01*
X103447619Y-80390476D01*
X103400000Y-80533333D01*
X102542857Y-81533333D02*
X102495238Y-81485714D01*
X102447619Y-81342857D01*
X102447619Y-81247619D01*
X102495238Y-81104761D01*
X102590476Y-81009523D01*
X102685714Y-80961904D01*
X102876190Y-80914285D01*
X103019047Y-80914285D01*
X103209523Y-80961904D01*
X103304761Y-81009523D01*
X103400000Y-81104761D01*
X103447619Y-81247619D01*
X103447619Y-81342857D01*
X103400000Y-81485714D01*
X103352380Y-81533333D01*
X102733333Y-81914285D02*
X102733333Y-82390476D01*
X102447619Y-81819047D02*
X103447619Y-82152380D01*
X102447619Y-82485714D01*
X102447619Y-83390476D02*
X102923809Y-83057142D01*
X102447619Y-82819047D02*
X103447619Y-82819047D01*
X103447619Y-83200000D01*
X103400000Y-83295238D01*
X103352380Y-83342857D01*
X103257142Y-83390476D01*
X103114285Y-83390476D01*
X103019047Y-83342857D01*
X102971428Y-83295238D01*
X102923809Y-83200000D01*
X102923809Y-82819047D01*
X103447619Y-83676190D02*
X103447619Y-84247619D01*
X102447619Y-83961904D02*
X103447619Y-83961904D01*
X77947619Y-95280952D02*
X77233333Y-95280952D01*
X77090476Y-95233333D01*
X76995238Y-95138095D01*
X76947619Y-94995238D01*
X76947619Y-94900000D01*
X76947619Y-96233333D02*
X76947619Y-95757142D01*
X77947619Y-95757142D01*
X77042857Y-97138095D02*
X76995238Y-97090476D01*
X76947619Y-96947619D01*
X76947619Y-96852380D01*
X76995238Y-96709523D01*
X77090476Y-96614285D01*
X77185714Y-96566666D01*
X77376190Y-96519047D01*
X77519047Y-96519047D01*
X77709523Y-96566666D01*
X77804761Y-96614285D01*
X77900000Y-96709523D01*
X77947619Y-96852380D01*
X77947619Y-96947619D01*
X77900000Y-97090476D01*
X77852380Y-97138095D01*
X77947619Y-97852380D02*
X77233333Y-97852380D01*
X77090476Y-97804761D01*
X76995238Y-97709523D01*
X76947619Y-97566666D01*
X76947619Y-97471428D01*
X76947619Y-98804761D02*
X76947619Y-98328571D01*
X77947619Y-98328571D01*
X77042857Y-99709523D02*
X76995238Y-99661904D01*
X76947619Y-99519047D01*
X76947619Y-99423809D01*
X76995238Y-99280952D01*
X77090476Y-99185714D01*
X77185714Y-99138095D01*
X77376190Y-99090476D01*
X77519047Y-99090476D01*
X77709523Y-99138095D01*
X77804761Y-99185714D01*
X77900000Y-99280952D01*
X77947619Y-99423809D01*
X77947619Y-99519047D01*
X77900000Y-99661904D01*
X77852380Y-99709523D01*
X77947619Y-100423809D02*
X77233333Y-100423809D01*
X77090476Y-100376190D01*
X76995238Y-100280952D01*
X76947619Y-100138095D01*
X76947619Y-100042857D01*
X76947619Y-101376190D02*
X76947619Y-100900000D01*
X77947619Y-100900000D01*
X77042857Y-102280952D02*
X76995238Y-102233333D01*
X76947619Y-102090476D01*
X76947619Y-101995238D01*
X76995238Y-101852380D01*
X77090476Y-101757142D01*
X77185714Y-101709523D01*
X77376190Y-101661904D01*
X77519047Y-101661904D01*
X77709523Y-101709523D01*
X77804761Y-101757142D01*
X77900000Y-101852380D01*
X77947619Y-101995238D01*
X77947619Y-102090476D01*
X77900000Y-102233333D01*
X77852380Y-102280952D01*
X77947619Y-102995238D02*
X77233333Y-102995238D01*
X77090476Y-102947619D01*
X76995238Y-102852380D01*
X76947619Y-102709523D01*
X76947619Y-102614285D01*
X76947619Y-103947619D02*
X76947619Y-103471428D01*
X77947619Y-103471428D01*
X77042857Y-104852380D02*
X76995238Y-104804761D01*
X76947619Y-104661904D01*
X76947619Y-104566666D01*
X76995238Y-104423809D01*
X77090476Y-104328571D01*
X77185714Y-104280952D01*
X77376190Y-104233333D01*
X77519047Y-104233333D01*
X77709523Y-104280952D01*
X77804761Y-104328571D01*
X77900000Y-104423809D01*
X77947619Y-104566666D01*
X77947619Y-104661904D01*
X77900000Y-104804761D01*
X77852380Y-104852380D01*
D11*
X80705238Y-132523809D02*
X81657619Y-131857142D01*
X80705238Y-131380952D02*
X82705238Y-131380952D01*
X82705238Y-132142857D01*
X82610000Y-132333333D01*
X82514761Y-132428571D01*
X82324285Y-132523809D01*
X82038571Y-132523809D01*
X81848095Y-132428571D01*
X81752857Y-132333333D01*
X81657619Y-132142857D01*
X81657619Y-131380952D01*
X82610000Y-134428571D02*
X82705238Y-134238095D01*
X82705238Y-133952380D01*
X82610000Y-133666666D01*
X82419523Y-133476190D01*
X82229047Y-133380952D01*
X81848095Y-133285714D01*
X81562380Y-133285714D01*
X81181428Y-133380952D01*
X80990952Y-133476190D01*
X80800476Y-133666666D01*
X80705238Y-133952380D01*
X80705238Y-134142857D01*
X80800476Y-134428571D01*
X80895714Y-134523809D01*
X81562380Y-134523809D01*
X81562380Y-134142857D01*
X81752857Y-136047619D02*
X81657619Y-136333333D01*
X81562380Y-136428571D01*
X81371904Y-136523809D01*
X81086190Y-136523809D01*
X80895714Y-136428571D01*
X80800476Y-136333333D01*
X80705238Y-136142857D01*
X80705238Y-135380952D01*
X82705238Y-135380952D01*
X82705238Y-136047619D01*
X82610000Y-136238095D01*
X82514761Y-136333333D01*
X82324285Y-136428571D01*
X82133809Y-136428571D01*
X81943333Y-136333333D01*
X81848095Y-136238095D01*
X81752857Y-136047619D01*
X81752857Y-135380952D01*
X82038571Y-138619047D02*
X82038571Y-139380952D01*
X82705238Y-138904761D02*
X80990952Y-138904761D01*
X80800476Y-139000000D01*
X80705238Y-139190476D01*
X80705238Y-139380952D01*
X80705238Y-140333333D02*
X80800476Y-140142857D01*
X80895714Y-140047619D01*
X81086190Y-139952380D01*
X81657619Y-139952380D01*
X81848095Y-140047619D01*
X81943333Y-140142857D01*
X82038571Y-140333333D01*
X82038571Y-140619047D01*
X81943333Y-140809523D01*
X81848095Y-140904761D01*
X81657619Y-141000000D01*
X81086190Y-141000000D01*
X80895714Y-140904761D01*
X80800476Y-140809523D01*
X80705238Y-140619047D01*
X80705238Y-140333333D01*
X81657619Y-143761904D02*
X80705238Y-143761904D01*
X82705238Y-143095238D02*
X81657619Y-143761904D01*
X82705238Y-144428571D01*
X80705238Y-145095238D02*
X82705238Y-145095238D01*
X82705238Y-145857142D01*
X82610000Y-146047619D01*
X82514761Y-146142857D01*
X82324285Y-146238095D01*
X82038571Y-146238095D01*
X81848095Y-146142857D01*
X81752857Y-146047619D01*
X81657619Y-145857142D01*
X81657619Y-145095238D01*
X80705238Y-147095238D02*
X82705238Y-147095238D01*
X81943333Y-147095238D02*
X82038571Y-147285714D01*
X82038571Y-147666666D01*
X81943333Y-147857142D01*
X81848095Y-147952380D01*
X81657619Y-148047619D01*
X81086190Y-148047619D01*
X80895714Y-147952380D01*
X80800476Y-147857142D01*
X80705238Y-147666666D01*
X80705238Y-147285714D01*
X80800476Y-147095238D01*
X80705238Y-148904761D02*
X82705238Y-148904761D01*
X82705238Y-149666666D01*
X82610000Y-149857142D01*
X82514761Y-149952380D01*
X82324285Y-150047619D01*
X82038571Y-150047619D01*
X81848095Y-149952380D01*
X81752857Y-149857142D01*
X81657619Y-149666666D01*
X81657619Y-148904761D01*
X80705238Y-150904761D02*
X82038571Y-150904761D01*
X81657619Y-150904761D02*
X81848095Y-151000000D01*
X81943333Y-151095238D01*
X82038571Y-151285714D01*
X82038571Y-151476190D01*
X82038571Y-153380952D02*
X82038571Y-154142857D01*
X82705238Y-153666666D02*
X80990952Y-153666666D01*
X80800476Y-153761904D01*
X80705238Y-153952380D01*
X80705238Y-154142857D01*
X80705238Y-154809523D02*
X82038571Y-154809523D01*
X81657619Y-154809523D02*
X81848095Y-154904761D01*
X81943333Y-155000000D01*
X82038571Y-155190476D01*
X82038571Y-155380952D01*
X80705238Y-156904761D02*
X81752857Y-156904761D01*
X81943333Y-156809523D01*
X82038571Y-156619047D01*
X82038571Y-156238095D01*
X81943333Y-156047619D01*
X80800476Y-156904761D02*
X80705238Y-156714285D01*
X80705238Y-156238095D01*
X80800476Y-156047619D01*
X80990952Y-155952380D01*
X81181428Y-155952380D01*
X81371904Y-156047619D01*
X81467142Y-156238095D01*
X81467142Y-156714285D01*
X81562380Y-156904761D01*
X82038571Y-157857142D02*
X80705238Y-157857142D01*
X81848095Y-157857142D02*
X81943333Y-157952380D01*
X82038571Y-158142857D01*
X82038571Y-158428571D01*
X81943333Y-158619047D01*
X81752857Y-158714285D01*
X80705238Y-158714285D01*
X80800476Y-159571428D02*
X80705238Y-159761904D01*
X80705238Y-160142857D01*
X80800476Y-160333333D01*
X80990952Y-160428571D01*
X81086190Y-160428571D01*
X81276666Y-160333333D01*
X81371904Y-160142857D01*
X81371904Y-159857142D01*
X81467142Y-159666666D01*
X81657619Y-159571428D01*
X81752857Y-159571428D01*
X81943333Y-159666666D01*
X82038571Y-159857142D01*
X82038571Y-160142857D01*
X81943333Y-160333333D01*
X80800476Y-162142857D02*
X80705238Y-161952380D01*
X80705238Y-161571428D01*
X80800476Y-161380952D01*
X80895714Y-161285714D01*
X81086190Y-161190476D01*
X81657619Y-161190476D01*
X81848095Y-161285714D01*
X81943333Y-161380952D01*
X82038571Y-161571428D01*
X82038571Y-161952380D01*
X81943333Y-162142857D01*
X80705238Y-163285714D02*
X80800476Y-163095238D01*
X80895714Y-163000000D01*
X81086190Y-162904761D01*
X81657619Y-162904761D01*
X81848095Y-163000000D01*
X81943333Y-163095238D01*
X82038571Y-163285714D01*
X82038571Y-163571428D01*
X81943333Y-163761904D01*
X81848095Y-163857142D01*
X81657619Y-163952380D01*
X81086190Y-163952380D01*
X80895714Y-163857142D01*
X80800476Y-163761904D01*
X80705238Y-163571428D01*
X80705238Y-163285714D01*
X80705238Y-165666666D02*
X82705238Y-165666666D01*
X80800476Y-165666666D02*
X80705238Y-165476190D01*
X80705238Y-165095238D01*
X80800476Y-164904761D01*
X80895714Y-164809523D01*
X81086190Y-164714285D01*
X81657619Y-164714285D01*
X81848095Y-164809523D01*
X81943333Y-164904761D01*
X82038571Y-165095238D01*
X82038571Y-165476190D01*
X81943333Y-165666666D01*
X80800476Y-167380952D02*
X80705238Y-167190476D01*
X80705238Y-166809523D01*
X80800476Y-166619047D01*
X80990952Y-166523809D01*
X81752857Y-166523809D01*
X81943333Y-166619047D01*
X82038571Y-166809523D01*
X82038571Y-167190476D01*
X81943333Y-167380952D01*
X81752857Y-167476190D01*
X81562380Y-167476190D01*
X81371904Y-166523809D01*
X80705238Y-168333333D02*
X82038571Y-168333333D01*
X81657619Y-168333333D02*
X81848095Y-168428571D01*
X81943333Y-168523809D01*
X82038571Y-168714285D01*
X82038571Y-168904761D01*
X78818571Y-137333333D02*
X77485238Y-137714285D01*
X78437619Y-138095238D01*
X77485238Y-138476190D01*
X78818571Y-138857142D01*
X77485238Y-140476190D02*
X78532857Y-140476190D01*
X78723333Y-140380952D01*
X78818571Y-140190476D01*
X78818571Y-139809523D01*
X78723333Y-139619047D01*
X77580476Y-140476190D02*
X77485238Y-140285714D01*
X77485238Y-139809523D01*
X77580476Y-139619047D01*
X77770952Y-139523809D01*
X77961428Y-139523809D01*
X78151904Y-139619047D01*
X78247142Y-139809523D01*
X78247142Y-140285714D01*
X78342380Y-140476190D01*
X77485238Y-141428571D02*
X79485238Y-141428571D01*
X78247142Y-141619047D02*
X77485238Y-142190476D01*
X78818571Y-142190476D02*
X78056666Y-141428571D01*
X77485238Y-143904761D02*
X78532857Y-143904761D01*
X78723333Y-143809523D01*
X78818571Y-143619047D01*
X78818571Y-143238095D01*
X78723333Y-143047619D01*
X77580476Y-143904761D02*
X77485238Y-143714285D01*
X77485238Y-143238095D01*
X77580476Y-143047619D01*
X77770952Y-142952380D01*
X77961428Y-142952380D01*
X78151904Y-143047619D01*
X78247142Y-143238095D01*
X78247142Y-143714285D01*
X78342380Y-143904761D01*
X77485238Y-144857142D02*
X79485238Y-144857142D01*
X78723333Y-144857142D02*
X78818571Y-145047619D01*
X78818571Y-145428571D01*
X78723333Y-145619047D01*
X78628095Y-145714285D01*
X78437619Y-145809523D01*
X77866190Y-145809523D01*
X77675714Y-145714285D01*
X77580476Y-145619047D01*
X77485238Y-145428571D01*
X77485238Y-145047619D01*
X77580476Y-144857142D01*
X77485238Y-147523809D02*
X78532857Y-147523809D01*
X78723333Y-147428571D01*
X78818571Y-147238095D01*
X78818571Y-146857142D01*
X78723333Y-146666666D01*
X77580476Y-147523809D02*
X77485238Y-147333333D01*
X77485238Y-146857142D01*
X77580476Y-146666666D01*
X77770952Y-146571428D01*
X77961428Y-146571428D01*
X78151904Y-146666666D01*
X78247142Y-146857142D01*
X78247142Y-147333333D01*
X78342380Y-147523809D01*
X78818571Y-148285714D02*
X77485238Y-148761904D01*
X78818571Y-149238095D01*
X77485238Y-150000000D02*
X78818571Y-150000000D01*
X79485238Y-150000000D02*
X79390000Y-149904761D01*
X79294761Y-150000000D01*
X79390000Y-150095238D01*
X79485238Y-150000000D01*
X79294761Y-150000000D01*
X77485238Y-151809523D02*
X79485238Y-151809523D01*
X77580476Y-151809523D02*
X77485238Y-151619047D01*
X77485238Y-151238095D01*
X77580476Y-151047619D01*
X77675714Y-150952380D01*
X77866190Y-150857142D01*
X78437619Y-150857142D01*
X78628095Y-150952380D01*
X78723333Y-151047619D01*
X78818571Y-151238095D01*
X78818571Y-151619047D01*
X78723333Y-151809523D01*
X77580476Y-153523809D02*
X77485238Y-153333333D01*
X77485238Y-152952380D01*
X77580476Y-152761904D01*
X77770952Y-152666666D01*
X78532857Y-152666666D01*
X78723333Y-152761904D01*
X78818571Y-152952380D01*
X78818571Y-153333333D01*
X78723333Y-153523809D01*
X78532857Y-153619047D01*
X78342380Y-153619047D01*
X78151904Y-152666666D01*
X77485238Y-154761904D02*
X77580476Y-154571428D01*
X77675714Y-154476190D01*
X77866190Y-154380952D01*
X78437619Y-154380952D01*
X78628095Y-154476190D01*
X78723333Y-154571428D01*
X78818571Y-154761904D01*
X78818571Y-155047619D01*
X78723333Y-155238095D01*
X78628095Y-155333333D01*
X78437619Y-155428571D01*
X77866190Y-155428571D01*
X77675714Y-155333333D01*
X77580476Y-155238095D01*
X77485238Y-155047619D01*
X77485238Y-154761904D01*
X77675714Y-156285714D02*
X77580476Y-156380952D01*
X77485238Y-156285714D01*
X77580476Y-156190476D01*
X77675714Y-156285714D01*
X77485238Y-156285714D01*
X77580476Y-158095238D02*
X77485238Y-157904761D01*
X77485238Y-157523809D01*
X77580476Y-157333333D01*
X77675714Y-157238095D01*
X77866190Y-157142857D01*
X78437619Y-157142857D01*
X78628095Y-157238095D01*
X78723333Y-157333333D01*
X78818571Y-157523809D01*
X78818571Y-157904761D01*
X78723333Y-158095238D01*
X77485238Y-159238095D02*
X77580476Y-159047619D01*
X77675714Y-158952380D01*
X77866190Y-158857142D01*
X78437619Y-158857142D01*
X78628095Y-158952380D01*
X78723333Y-159047619D01*
X78818571Y-159238095D01*
X78818571Y-159523809D01*
X78723333Y-159714285D01*
X78628095Y-159809523D01*
X78437619Y-159904761D01*
X77866190Y-159904761D01*
X77675714Y-159809523D01*
X77580476Y-159714285D01*
X77485238Y-159523809D01*
X77485238Y-159238095D01*
X77485238Y-160761904D02*
X78818571Y-160761904D01*
X78628095Y-160761904D02*
X78723333Y-160857142D01*
X78818571Y-161047619D01*
X78818571Y-161333333D01*
X78723333Y-161523809D01*
X78532857Y-161619047D01*
X77485238Y-161619047D01*
X78532857Y-161619047D02*
X78723333Y-161714285D01*
X78818571Y-161904761D01*
X78818571Y-162190476D01*
X78723333Y-162380952D01*
X78532857Y-162476190D01*
X77485238Y-162476190D01*
D10*
X99347619Y-143357142D02*
X99823809Y-143023809D01*
X99347619Y-142785714D02*
X100347619Y-142785714D01*
X100347619Y-143166666D01*
X100300000Y-143261904D01*
X100252380Y-143309523D01*
X100157142Y-143357142D01*
X100014285Y-143357142D01*
X99919047Y-143309523D01*
X99871428Y-143261904D01*
X99823809Y-143166666D01*
X99823809Y-142785714D01*
X100300000Y-144309523D02*
X100347619Y-144214285D01*
X100347619Y-144071428D01*
X100300000Y-143928571D01*
X100204761Y-143833333D01*
X100109523Y-143785714D01*
X99919047Y-143738095D01*
X99776190Y-143738095D01*
X99585714Y-143785714D01*
X99490476Y-143833333D01*
X99395238Y-143928571D01*
X99347619Y-144071428D01*
X99347619Y-144166666D01*
X99395238Y-144309523D01*
X99442857Y-144357142D01*
X99776190Y-144357142D01*
X99776190Y-144166666D01*
X99871428Y-145119047D02*
X99823809Y-145261904D01*
X99776190Y-145309523D01*
X99680952Y-145357142D01*
X99538095Y-145357142D01*
X99442857Y-145309523D01*
X99395238Y-145261904D01*
X99347619Y-145166666D01*
X99347619Y-144785714D01*
X100347619Y-144785714D01*
X100347619Y-145119047D01*
X100300000Y-145214285D01*
X100252380Y-145261904D01*
X100157142Y-145309523D01*
X100061904Y-145309523D01*
X99966666Y-145261904D01*
X99919047Y-145214285D01*
X99871428Y-145119047D01*
X99871428Y-144785714D01*
X99347619Y-145785714D02*
X100347619Y-145785714D01*
X99871428Y-145785714D02*
X99871428Y-146357142D01*
X99347619Y-146357142D02*
X100347619Y-146357142D01*
X100347619Y-146690476D02*
X99347619Y-147023809D01*
X100347619Y-147357142D01*
X100395238Y-149166666D02*
X99109523Y-148309523D01*
X99347619Y-150833333D02*
X99823809Y-150500000D01*
X99347619Y-150261904D02*
X100347619Y-150261904D01*
X100347619Y-150642857D01*
X100300000Y-150738095D01*
X100252380Y-150785714D01*
X100157142Y-150833333D01*
X100014285Y-150833333D01*
X99919047Y-150785714D01*
X99871428Y-150738095D01*
X99823809Y-150642857D01*
X99823809Y-150261904D01*
X100300000Y-151785714D02*
X100347619Y-151690476D01*
X100347619Y-151547619D01*
X100300000Y-151404761D01*
X100204761Y-151309523D01*
X100109523Y-151261904D01*
X99919047Y-151214285D01*
X99776190Y-151214285D01*
X99585714Y-151261904D01*
X99490476Y-151309523D01*
X99395238Y-151404761D01*
X99347619Y-151547619D01*
X99347619Y-151642857D01*
X99395238Y-151785714D01*
X99442857Y-151833333D01*
X99776190Y-151833333D01*
X99776190Y-151642857D01*
X99871428Y-152595238D02*
X99823809Y-152738095D01*
X99776190Y-152785714D01*
X99680952Y-152833333D01*
X99538095Y-152833333D01*
X99442857Y-152785714D01*
X99395238Y-152738095D01*
X99347619Y-152642857D01*
X99347619Y-152261904D01*
X100347619Y-152261904D01*
X100347619Y-152595238D01*
X100300000Y-152690476D01*
X100252380Y-152738095D01*
X100157142Y-152785714D01*
X100061904Y-152785714D01*
X99966666Y-152738095D01*
X99919047Y-152690476D01*
X99871428Y-152595238D01*
X99871428Y-152261904D01*
X99395238Y-153214285D02*
X99347619Y-153357142D01*
X99347619Y-153595238D01*
X99395238Y-153690476D01*
X99442857Y-153738095D01*
X99538095Y-153785714D01*
X99633333Y-153785714D01*
X99728571Y-153738095D01*
X99776190Y-153690476D01*
X99823809Y-153595238D01*
X99871428Y-153404761D01*
X99919047Y-153309523D01*
X99966666Y-153261904D01*
X100061904Y-153214285D01*
X100157142Y-153214285D01*
X100252380Y-153261904D01*
X100300000Y-153309523D01*
X100347619Y-153404761D01*
X100347619Y-153642857D01*
X100300000Y-153785714D01*
X100347619Y-154833333D02*
X99347619Y-155166666D01*
X100347619Y-155500000D01*
X100300000Y-156357142D02*
X100347619Y-156261904D01*
X100347619Y-156119047D01*
X100300000Y-155976190D01*
X100204761Y-155880952D01*
X100109523Y-155833333D01*
X99919047Y-155785714D01*
X99776190Y-155785714D01*
X99585714Y-155833333D01*
X99490476Y-155880952D01*
X99395238Y-155976190D01*
X99347619Y-156119047D01*
X99347619Y-156214285D01*
X99395238Y-156357142D01*
X99442857Y-156404761D01*
X99776190Y-156404761D01*
X99776190Y-156214285D01*
X99633333Y-156785714D02*
X99633333Y-157261904D01*
X99347619Y-156690476D02*
X100347619Y-157023809D01*
X99347619Y-157357142D01*
X89947619Y-121728571D02*
X89947619Y-121252380D01*
X89471428Y-121204761D01*
X89519047Y-121252380D01*
X89566666Y-121347619D01*
X89566666Y-121585714D01*
X89519047Y-121680952D01*
X89471428Y-121728571D01*
X89376190Y-121776190D01*
X89138095Y-121776190D01*
X89042857Y-121728571D01*
X88995238Y-121680952D01*
X88947619Y-121585714D01*
X88947619Y-121347619D01*
X88995238Y-121252380D01*
X89042857Y-121204761D01*
X89947619Y-122061904D02*
X88947619Y-122395238D01*
X89947619Y-122728571D01*
X88947619Y-123823809D02*
X89947619Y-123823809D01*
X89947619Y-124061904D01*
X89900000Y-124204761D01*
X89804761Y-124300000D01*
X89709523Y-124347619D01*
X89519047Y-124395238D01*
X89376190Y-124395238D01*
X89185714Y-124347619D01*
X89090476Y-124300000D01*
X88995238Y-124204761D01*
X88947619Y-124061904D01*
X88947619Y-123823809D01*
X89042857Y-125395238D02*
X88995238Y-125347619D01*
X88947619Y-125204761D01*
X88947619Y-125109523D01*
X88995238Y-124966666D01*
X89090476Y-124871428D01*
X89185714Y-124823809D01*
X89376190Y-124776190D01*
X89519047Y-124776190D01*
X89709523Y-124823809D01*
X89804761Y-124871428D01*
X89900000Y-124966666D01*
X89947619Y-125109523D01*
X89947619Y-125204761D01*
X89900000Y-125347619D01*
X89852380Y-125395238D01*
G36*
X94080800Y-47812800D02*
G01*
X93674400Y-47812800D01*
X93674400Y-47406400D01*
X94080800Y-47406400D01*
X94080800Y-47812800D01*
G37*
D12*
X94080800Y-47812800D02*
X93674400Y-47812800D01*
X93674400Y-47406400D01*
X94080800Y-47406400D01*
X94080800Y-47812800D01*
G36*
X94893600Y-47812800D02*
G01*
X94487200Y-47812800D01*
X94487200Y-47406400D01*
X94893600Y-47406400D01*
X94893600Y-47812800D01*
G37*
X94893600Y-47812800D02*
X94487200Y-47812800D01*
X94487200Y-47406400D01*
X94893600Y-47406400D01*
X94893600Y-47812800D01*
G36*
X95706400Y-47812800D02*
G01*
X95300000Y-47812800D01*
X95300000Y-47406400D01*
X95706400Y-47406400D01*
X95706400Y-47812800D01*
G37*
X95706400Y-47812800D02*
X95300000Y-47812800D01*
X95300000Y-47406400D01*
X95706400Y-47406400D01*
X95706400Y-47812800D01*
G36*
X96519200Y-47812800D02*
G01*
X96112800Y-47812800D01*
X96112800Y-47406400D01*
X96519200Y-47406400D01*
X96519200Y-47812800D01*
G37*
X96519200Y-47812800D02*
X96112800Y-47812800D01*
X96112800Y-47406400D01*
X96519200Y-47406400D01*
X96519200Y-47812800D01*
G36*
X94487200Y-48219200D02*
G01*
X94080800Y-48219200D01*
X94080800Y-47812800D01*
X94487200Y-47812800D01*
X94487200Y-48219200D01*
G37*
X94487200Y-48219200D02*
X94080800Y-48219200D01*
X94080800Y-47812800D01*
X94487200Y-47812800D01*
X94487200Y-48219200D01*
G36*
X94487200Y-47406400D02*
G01*
X94080800Y-47406400D01*
X94080800Y-47000000D01*
X94487200Y-47000000D01*
X94487200Y-47406400D01*
G37*
X94487200Y-47406400D02*
X94080800Y-47406400D01*
X94080800Y-47000000D01*
X94487200Y-47000000D01*
X94487200Y-47406400D01*
G36*
X95300000Y-48219200D02*
G01*
X94893600Y-48219200D01*
X94893600Y-47812800D01*
X95300000Y-47812800D01*
X95300000Y-48219200D01*
G37*
X95300000Y-48219200D02*
X94893600Y-48219200D01*
X94893600Y-47812800D01*
X95300000Y-47812800D01*
X95300000Y-48219200D01*
G36*
X95300000Y-47406400D02*
G01*
X94893600Y-47406400D01*
X94893600Y-47000000D01*
X95300000Y-47000000D01*
X95300000Y-47406400D01*
G37*
X95300000Y-47406400D02*
X94893600Y-47406400D01*
X94893600Y-47000000D01*
X95300000Y-47000000D01*
X95300000Y-47406400D01*
G36*
X96112800Y-48219200D02*
G01*
X95706400Y-48219200D01*
X95706400Y-47812800D01*
X96112800Y-47812800D01*
X96112800Y-48219200D01*
G37*
X96112800Y-48219200D02*
X95706400Y-48219200D01*
X95706400Y-47812800D01*
X96112800Y-47812800D01*
X96112800Y-48219200D01*
G36*
X96112800Y-47406400D02*
G01*
X95706400Y-47406400D01*
X95706400Y-47000000D01*
X96112800Y-47000000D01*
X96112800Y-47406400D01*
G37*
X96112800Y-47406400D02*
X95706400Y-47406400D01*
X95706400Y-47000000D01*
X96112800Y-47000000D01*
X96112800Y-47406400D01*
G36*
X96925600Y-48219200D02*
G01*
X96519200Y-48219200D01*
X96519200Y-47812800D01*
X96925600Y-47812800D01*
X96925600Y-48219200D01*
G37*
X96925600Y-48219200D02*
X96519200Y-48219200D01*
X96519200Y-47812800D01*
X96925600Y-47812800D01*
X96925600Y-48219200D01*
G36*
X96925600Y-47406400D02*
G01*
X96519200Y-47406400D01*
X96519200Y-47000000D01*
X96925600Y-47000000D01*
X96925600Y-47406400D01*
G37*
X96925600Y-47406400D02*
X96519200Y-47406400D01*
X96519200Y-47000000D01*
X96925600Y-47000000D01*
X96925600Y-47406400D01*
G36*
X97332000Y-47812800D02*
G01*
X96925600Y-47812800D01*
X96925600Y-47406400D01*
X97332000Y-47406400D01*
X97332000Y-47812800D01*
G37*
X97332000Y-47812800D02*
X96925600Y-47812800D01*
X96925600Y-47406400D01*
X97332000Y-47406400D01*
X97332000Y-47812800D01*
G36*
X97738400Y-48219200D02*
G01*
X97332000Y-48219200D01*
X97332000Y-47812800D01*
X97738400Y-47812800D01*
X97738400Y-48219200D01*
G37*
X97738400Y-48219200D02*
X97332000Y-48219200D01*
X97332000Y-47812800D01*
X97738400Y-47812800D01*
X97738400Y-48219200D01*
G36*
X93674400Y-47406400D02*
G01*
X93268000Y-47406400D01*
X93268000Y-47000000D01*
X93674400Y-47000000D01*
X93674400Y-47406400D01*
G37*
X93674400Y-47406400D02*
X93268000Y-47406400D01*
X93268000Y-47000000D01*
X93674400Y-47000000D01*
X93674400Y-47406400D01*
G36*
X97738400Y-47406400D02*
G01*
X97332000Y-47406400D01*
X97332000Y-46593600D01*
X97738400Y-46593600D01*
X97738400Y-47406400D01*
G37*
X97738400Y-47406400D02*
X97332000Y-47406400D01*
X97332000Y-46593600D01*
X97738400Y-46593600D01*
X97738400Y-47406400D01*
G36*
X98144800Y-47812800D02*
G01*
X97738400Y-47812800D01*
X97738400Y-47406400D01*
X98144800Y-47406400D01*
X98144800Y-47812800D01*
G37*
X98144800Y-47812800D02*
X97738400Y-47812800D01*
X97738400Y-47406400D01*
X98144800Y-47406400D01*
X98144800Y-47812800D01*
G36*
X98144800Y-45374400D02*
G01*
X94080800Y-45374400D01*
X94080800Y-45780800D01*
X93674400Y-45780800D01*
X93674400Y-46187200D01*
X93268000Y-46187200D01*
X93268000Y-46593600D01*
X92861600Y-46593600D01*
X92861600Y-47406400D01*
X93268000Y-47406400D01*
X93268000Y-47812800D01*
X93674400Y-47812800D01*
X93674400Y-48219200D01*
X94080800Y-48219200D01*
X94080800Y-48625600D01*
X94487200Y-48625600D01*
X94487200Y-48219200D01*
X94893600Y-48219200D01*
X94893600Y-48625600D01*
X95300000Y-48625600D01*
X95300000Y-48219200D01*
X95706400Y-48219200D01*
X95706400Y-48625600D01*
X96112800Y-48625600D01*
X96112800Y-48219200D01*
X96519200Y-48219200D01*
X96519200Y-48625600D01*
X96925600Y-48625600D01*
X96925600Y-48219200D01*
X97332000Y-48219200D01*
X97332000Y-48625600D01*
X97738400Y-48625600D01*
X97738400Y-48219200D01*
X98144800Y-48219200D01*
X98144800Y-47812800D01*
X98551200Y-47812800D01*
X98551200Y-48625600D01*
X98144800Y-48625600D01*
X98144800Y-49032000D01*
X93674400Y-49032000D01*
X93674400Y-48625600D01*
X93268000Y-48625600D01*
X93268000Y-48219200D01*
X92861600Y-48219200D01*
X92861600Y-47812800D01*
X92455200Y-47812800D01*
X92455200Y-47406400D01*
X92048800Y-47406400D01*
X92048800Y-46593600D01*
X92455200Y-46593600D01*
X92455200Y-46187200D01*
X92861600Y-46187200D01*
X92861600Y-45780800D01*
X93268000Y-45780800D01*
X93268000Y-45374400D01*
X93674400Y-45374400D01*
X93674400Y-44968000D01*
X98144800Y-44968000D01*
X98144800Y-45374400D01*
G37*
X98144800Y-45374400D02*
X94080800Y-45374400D01*
X94080800Y-45780800D01*
X93674400Y-45780800D01*
X93674400Y-46187200D01*
X93268000Y-46187200D01*
X93268000Y-46593600D01*
X92861600Y-46593600D01*
X92861600Y-47406400D01*
X93268000Y-47406400D01*
X93268000Y-47812800D01*
X93674400Y-47812800D01*
X93674400Y-48219200D01*
X94080800Y-48219200D01*
X94080800Y-48625600D01*
X94487200Y-48625600D01*
X94487200Y-48219200D01*
X94893600Y-48219200D01*
X94893600Y-48625600D01*
X95300000Y-48625600D01*
X95300000Y-48219200D01*
X95706400Y-48219200D01*
X95706400Y-48625600D01*
X96112800Y-48625600D01*
X96112800Y-48219200D01*
X96519200Y-48219200D01*
X96519200Y-48625600D01*
X96925600Y-48625600D01*
X96925600Y-48219200D01*
X97332000Y-48219200D01*
X97332000Y-48625600D01*
X97738400Y-48625600D01*
X97738400Y-48219200D01*
X98144800Y-48219200D01*
X98144800Y-47812800D01*
X98551200Y-47812800D01*
X98551200Y-48625600D01*
X98144800Y-48625600D01*
X98144800Y-49032000D01*
X93674400Y-49032000D01*
X93674400Y-48625600D01*
X93268000Y-48625600D01*
X93268000Y-48219200D01*
X92861600Y-48219200D01*
X92861600Y-47812800D01*
X92455200Y-47812800D01*
X92455200Y-47406400D01*
X92048800Y-47406400D01*
X92048800Y-46593600D01*
X92455200Y-46593600D01*
X92455200Y-46187200D01*
X92861600Y-46187200D01*
X92861600Y-45780800D01*
X93268000Y-45780800D01*
X93268000Y-45374400D01*
X93674400Y-45374400D01*
X93674400Y-44968000D01*
X98144800Y-44968000D01*
X98144800Y-45374400D01*
G36*
X98551200Y-46187200D02*
G01*
X98144800Y-46187200D01*
X98144800Y-45374400D01*
X98551200Y-45374400D01*
X98551200Y-46187200D01*
G37*
X98551200Y-46187200D02*
X98144800Y-46187200D01*
X98144800Y-45374400D01*
X98551200Y-45374400D01*
X98551200Y-46187200D01*
G36*
X98144800Y-46593600D02*
G01*
X97738400Y-46593600D01*
X97738400Y-46187200D01*
X98144800Y-46187200D01*
X98144800Y-46593600D01*
G37*
X98144800Y-46593600D02*
X97738400Y-46593600D01*
X97738400Y-46187200D01*
X98144800Y-46187200D01*
X98144800Y-46593600D01*
G36*
X115013216Y-92618941D02*
G01*
X115064972Y-92628253D01*
X115192484Y-92666973D01*
X115370063Y-92735950D01*
X115573332Y-92825116D01*
X115760798Y-92915674D01*
X116025019Y-93049494D01*
X116226392Y-93150635D01*
X116377498Y-93224874D01*
X116490916Y-93277988D01*
X116579228Y-93315755D01*
X116655014Y-93343951D01*
X116730855Y-93368355D01*
X116776251Y-93381987D01*
X116995880Y-93463072D01*
X117151584Y-93561866D01*
X117264005Y-93691951D01*
X117275799Y-93710688D01*
X117354351Y-93839500D01*
X117353579Y-93691333D01*
X117322972Y-93510901D01*
X117240541Y-93301973D01*
X117117921Y-93092105D01*
X117076425Y-93034898D01*
X117013539Y-92936235D01*
X117013788Y-92890588D01*
X117074207Y-92898069D01*
X117191828Y-92958790D01*
X117297128Y-93026574D01*
X117501067Y-93210131D01*
X117608581Y-93375824D01*
X117714329Y-93585500D01*
X117738717Y-93437333D01*
X117763104Y-93289167D01*
X117858973Y-93500833D01*
X117925950Y-93693921D01*
X117939023Y-93876344D01*
X117936506Y-93909728D01*
X117930514Y-94030799D01*
X117944457Y-94083475D01*
X117975085Y-94085115D01*
X118019977Y-94097152D01*
X118030111Y-94171056D01*
X118005894Y-94291679D01*
X117966586Y-94400944D01*
X117927846Y-94504851D01*
X117926174Y-94561965D01*
X117961572Y-94601614D01*
X117966586Y-94605335D01*
X118018870Y-94666399D01*
X118030450Y-94725238D01*
X117997758Y-94749667D01*
X117939343Y-94772231D01*
X117887921Y-94804943D01*
X117842581Y-94846774D01*
X117835444Y-94897424D01*
X117865394Y-94986803D01*
X117879830Y-95021780D01*
X117925205Y-95165845D01*
X117941989Y-95324312D01*
X117928824Y-95511765D01*
X117884351Y-95742786D01*
X117807212Y-96031961D01*
X117775873Y-96137613D01*
X117703675Y-96382454D01*
X117658801Y-96562161D01*
X117642818Y-96692256D01*
X117657293Y-96788259D01*
X117703793Y-96865689D01*
X117783884Y-96940067D01*
X117862949Y-97000236D01*
X117962144Y-97086417D01*
X117983078Y-97140406D01*
X117925742Y-97162173D01*
X117907662Y-97162667D01*
X117853791Y-97175514D01*
X117839872Y-97229700D01*
X117848828Y-97305451D01*
X117852383Y-97415879D01*
X117825414Y-97477022D01*
X117824999Y-97477283D01*
X117785932Y-97470112D01*
X117777790Y-97429748D01*
X117751980Y-97348207D01*
X117688628Y-97245460D01*
X117673479Y-97226167D01*
X117569379Y-97099167D01*
X117567856Y-97236750D01*
X117555424Y-97330420D01*
X117527187Y-97373945D01*
X117524000Y-97374333D01*
X117490914Y-97338453D01*
X117481553Y-97279083D01*
X117475316Y-97232348D01*
X117448489Y-97233621D01*
X117388654Y-97289363D01*
X117322803Y-97361642D01*
X117060907Y-97594580D01*
X116733324Y-97783300D01*
X116444500Y-97894106D01*
X116304051Y-97933665D01*
X116166406Y-97960295D01*
X116009638Y-97976239D01*
X115811822Y-97983740D01*
X115555500Y-97985055D01*
X115176566Y-97973026D01*
X114862412Y-97937005D01*
X114595530Y-97872932D01*
X114358412Y-97776747D01*
X114158500Y-97661024D01*
X114038894Y-97577281D01*
X113973896Y-97509211D01*
X113945089Y-97429644D01*
X113935238Y-97331673D01*
X113938802Y-97299091D01*
X114014118Y-97299091D01*
X114043439Y-97443389D01*
X114105584Y-97527846D01*
X114261901Y-97637581D01*
X114468985Y-97745723D01*
X114694094Y-97836718D01*
X114857000Y-97884815D01*
X114997572Y-97907805D01*
X115193557Y-97926457D01*
X115415726Y-97938463D01*
X115576667Y-97941698D01*
X115810148Y-97939651D01*
X115989676Y-97928664D01*
X116145834Y-97904502D01*
X116309206Y-97862929D01*
X116442265Y-97821835D01*
X116620706Y-97757848D01*
X116776954Y-97689837D01*
X116886752Y-97628849D01*
X116914288Y-97606894D01*
X117001256Y-97532013D01*
X117070795Y-97489365D01*
X117132656Y-97442327D01*
X117215776Y-97351553D01*
X117253335Y-97303297D01*
X117374340Y-97146154D01*
X117462708Y-97051955D01*
X117530337Y-97011634D01*
X117589128Y-97016130D01*
X117613577Y-97028908D01*
X117707327Y-97075468D01*
X117741406Y-97064910D01*
X117713774Y-97002142D01*
X117655386Y-96928360D01*
X117579046Y-96830311D01*
X117539541Y-96737162D01*
X117525284Y-96613439D01*
X117524000Y-96526193D01*
X117530461Y-96391501D01*
X117547319Y-96300248D01*
X117566334Y-96273667D01*
X117608466Y-96307409D01*
X117612887Y-96326583D01*
X117623010Y-96351326D01*
X117640204Y-96312577D01*
X117659845Y-96230698D01*
X117677307Y-96126053D01*
X117687968Y-96019004D01*
X117689114Y-95990940D01*
X117706971Y-95862372D01*
X117746192Y-95764257D01*
X117758596Y-95748785D01*
X117848686Y-95624452D01*
X117883300Y-95477195D01*
X117864037Y-95290540D01*
X117819018Y-95126575D01*
X117723539Y-94829633D01*
X117819769Y-94762230D01*
X117916000Y-94694828D01*
X117815250Y-94613286D01*
X117752538Y-94547676D01*
X117765140Y-94511269D01*
X117768308Y-94509881D01*
X117818958Y-94461941D01*
X117880752Y-94372878D01*
X117930894Y-94279135D01*
X117947334Y-94223650D01*
X117913714Y-94220130D01*
X117842999Y-94241097D01*
X117749268Y-94260634D01*
X117719025Y-94224866D01*
X117752831Y-94135127D01*
X117780132Y-94090859D01*
X117829236Y-93980977D01*
X117857053Y-93849796D01*
X117860767Y-93727372D01*
X117837566Y-93643758D01*
X117823312Y-93629674D01*
X117785424Y-93648683D01*
X117740966Y-93726346D01*
X117730956Y-93751921D01*
X117681696Y-93852123D01*
X117640908Y-93869685D01*
X117614831Y-93806607D01*
X117608667Y-93712757D01*
X117569227Y-93473334D01*
X117450669Y-93263960D01*
X117407554Y-93215083D01*
X117312905Y-93126230D01*
X117265575Y-93104725D01*
X117268540Y-93149228D01*
X117321958Y-93253638D01*
X117378418Y-93378377D01*
X117407583Y-93528320D01*
X117415780Y-93704608D01*
X117409183Y-93888083D01*
X117386101Y-93989824D01*
X117347025Y-94009382D01*
X117292446Y-93946306D01*
X117247990Y-93858794D01*
X117154797Y-93699040D01*
X117030438Y-93584199D01*
X116853961Y-93498114D01*
X116727252Y-93457215D01*
X116597731Y-93410687D01*
X116417033Y-93333310D01*
X116207966Y-93235394D01*
X115993340Y-93127253D01*
X115968690Y-93114287D01*
X115656459Y-92954356D01*
X115400200Y-92835996D01*
X115185238Y-92754112D01*
X114996901Y-92703609D01*
X114820515Y-92679392D01*
X114704567Y-92675333D01*
X114489300Y-92692204D01*
X114341286Y-92749847D01*
X114248694Y-92858803D01*
X114199691Y-93029616D01*
X114188273Y-93135346D01*
X114182266Y-93293129D01*
X114197351Y-93403293D01*
X114241176Y-93501812D01*
X114279020Y-93562134D01*
X114388656Y-93727804D01*
X114516858Y-93608046D01*
X114674020Y-93513731D01*
X114889822Y-93459522D01*
X115148659Y-93444828D01*
X115434924Y-93469059D01*
X115733013Y-93531625D01*
X116027320Y-93631934D01*
X116110454Y-93668333D01*
X116288752Y-93743842D01*
X116462526Y-93805849D01*
X116600105Y-93843316D01*
X116624417Y-93847457D01*
X116734199Y-93871422D01*
X116797889Y-93902516D01*
X116804334Y-93914651D01*
X116768001Y-93942779D01*
X116669936Y-93941814D01*
X116526536Y-93915281D01*
X116354199Y-93866707D01*
X116169323Y-93799618D01*
X116069363Y-93756618D01*
X115719795Y-93627935D01*
X115367577Y-93555847D01*
X115035657Y-93544265D01*
X114907144Y-93558496D01*
X114677682Y-93637943D01*
X114473922Y-93796998D01*
X114297695Y-94034040D01*
X114232164Y-94156805D01*
X114175174Y-94286448D01*
X114141197Y-94405761D01*
X114124789Y-94544710D01*
X114120503Y-94733265D01*
X114120581Y-94770833D01*
X114127528Y-94987495D01*
X114150758Y-95173252D01*
X114196892Y-95366483D01*
X114256020Y-95556117D01*
X114378904Y-95867714D01*
X114521649Y-96109678D01*
X114694292Y-96296474D01*
X114846826Y-96407460D01*
X114916282Y-96446873D01*
X114985707Y-96473439D01*
X115072452Y-96489176D01*
X115193867Y-96496103D01*
X115367302Y-96496240D01*
X115576347Y-96492356D01*
X115974674Y-96473777D01*
X116301551Y-96435852D01*
X116568433Y-96376429D01*
X116786771Y-96293352D01*
X116869887Y-96249059D01*
X117003141Y-96182904D01*
X117082798Y-96164920D01*
X117101651Y-96188656D01*
X117052490Y-96247665D01*
X116950768Y-96321422D01*
X116695058Y-96448571D01*
X116396293Y-96529414D01*
X116041144Y-96567036D01*
X115874690Y-96570689D01*
X115544709Y-96576795D01*
X115226523Y-96592972D01*
X114934929Y-96617701D01*
X114684724Y-96649463D01*
X114490708Y-96686740D01*
X114374387Y-96724680D01*
X114225720Y-96828920D01*
X114111775Y-96972383D01*
X114039069Y-97135598D01*
X114014118Y-97299091D01*
X113938802Y-97299091D01*
X113961202Y-97094330D01*
X114013233Y-96962618D01*
X114126276Y-96799239D01*
X114287201Y-96678170D01*
X114511167Y-96589037D01*
X114590379Y-96567604D01*
X114810591Y-96512705D01*
X114640673Y-96382602D01*
X114502937Y-96238470D01*
X114368962Y-96028787D01*
X114246154Y-95772590D01*
X114141919Y-95488915D01*
X114063664Y-95196801D01*
X114018794Y-94915285D01*
X114010984Y-94764021D01*
X114028660Y-94564111D01*
X114076647Y-94343832D01*
X114145782Y-94134476D01*
X114226902Y-93967336D01*
X114256985Y-93923893D01*
X114344971Y-93812038D01*
X114219986Y-93639500D01*
X114143478Y-93517317D01*
X114105978Y-93399586D01*
X114095104Y-93244825D01*
X114095000Y-93220751D01*
X114111843Y-93027028D01*
X114157158Y-92853530D01*
X114223130Y-92721893D01*
X114299537Y-92654638D01*
X114437991Y-92622358D01*
X114625858Y-92604864D01*
X114704567Y-92604271D01*
X114828984Y-92603332D01*
X115013216Y-92618941D01*
G37*
X115013216Y-92618941D02*
X115064972Y-92628253D01*
X115192484Y-92666973D01*
X115370063Y-92735950D01*
X115573332Y-92825116D01*
X115760798Y-92915674D01*
X116025019Y-93049494D01*
X116226392Y-93150635D01*
X116377498Y-93224874D01*
X116490916Y-93277988D01*
X116579228Y-93315755D01*
X116655014Y-93343951D01*
X116730855Y-93368355D01*
X116776251Y-93381987D01*
X116995880Y-93463072D01*
X117151584Y-93561866D01*
X117264005Y-93691951D01*
X117275799Y-93710688D01*
X117354351Y-93839500D01*
X117353579Y-93691333D01*
X117322972Y-93510901D01*
X117240541Y-93301973D01*
X117117921Y-93092105D01*
X117076425Y-93034898D01*
X117013539Y-92936235D01*
X117013788Y-92890588D01*
X117074207Y-92898069D01*
X117191828Y-92958790D01*
X117297128Y-93026574D01*
X117501067Y-93210131D01*
X117608581Y-93375824D01*
X117714329Y-93585500D01*
X117738717Y-93437333D01*
X117763104Y-93289167D01*
X117858973Y-93500833D01*
X117925950Y-93693921D01*
X117939023Y-93876344D01*
X117936506Y-93909728D01*
X117930514Y-94030799D01*
X117944457Y-94083475D01*
X117975085Y-94085115D01*
X118019977Y-94097152D01*
X118030111Y-94171056D01*
X118005894Y-94291679D01*
X117966586Y-94400944D01*
X117927846Y-94504851D01*
X117926174Y-94561965D01*
X117961572Y-94601614D01*
X117966586Y-94605335D01*
X118018870Y-94666399D01*
X118030450Y-94725238D01*
X117997758Y-94749667D01*
X117939343Y-94772231D01*
X117887921Y-94804943D01*
X117842581Y-94846774D01*
X117835444Y-94897424D01*
X117865394Y-94986803D01*
X117879830Y-95021780D01*
X117925205Y-95165845D01*
X117941989Y-95324312D01*
X117928824Y-95511765D01*
X117884351Y-95742786D01*
X117807212Y-96031961D01*
X117775873Y-96137613D01*
X117703675Y-96382454D01*
X117658801Y-96562161D01*
X117642818Y-96692256D01*
X117657293Y-96788259D01*
X117703793Y-96865689D01*
X117783884Y-96940067D01*
X117862949Y-97000236D01*
X117962144Y-97086417D01*
X117983078Y-97140406D01*
X117925742Y-97162173D01*
X117907662Y-97162667D01*
X117853791Y-97175514D01*
X117839872Y-97229700D01*
X117848828Y-97305451D01*
X117852383Y-97415879D01*
X117825414Y-97477022D01*
X117824999Y-97477283D01*
X117785932Y-97470112D01*
X117777790Y-97429748D01*
X117751980Y-97348207D01*
X117688628Y-97245460D01*
X117673479Y-97226167D01*
X117569379Y-97099167D01*
X117567856Y-97236750D01*
X117555424Y-97330420D01*
X117527187Y-97373945D01*
X117524000Y-97374333D01*
X117490914Y-97338453D01*
X117481553Y-97279083D01*
X117475316Y-97232348D01*
X117448489Y-97233621D01*
X117388654Y-97289363D01*
X117322803Y-97361642D01*
X117060907Y-97594580D01*
X116733324Y-97783300D01*
X116444500Y-97894106D01*
X116304051Y-97933665D01*
X116166406Y-97960295D01*
X116009638Y-97976239D01*
X115811822Y-97983740D01*
X115555500Y-97985055D01*
X115176566Y-97973026D01*
X114862412Y-97937005D01*
X114595530Y-97872932D01*
X114358412Y-97776747D01*
X114158500Y-97661024D01*
X114038894Y-97577281D01*
X113973896Y-97509211D01*
X113945089Y-97429644D01*
X113935238Y-97331673D01*
X113938802Y-97299091D01*
X114014118Y-97299091D01*
X114043439Y-97443389D01*
X114105584Y-97527846D01*
X114261901Y-97637581D01*
X114468985Y-97745723D01*
X114694094Y-97836718D01*
X114857000Y-97884815D01*
X114997572Y-97907805D01*
X115193557Y-97926457D01*
X115415726Y-97938463D01*
X115576667Y-97941698D01*
X115810148Y-97939651D01*
X115989676Y-97928664D01*
X116145834Y-97904502D01*
X116309206Y-97862929D01*
X116442265Y-97821835D01*
X116620706Y-97757848D01*
X116776954Y-97689837D01*
X116886752Y-97628849D01*
X116914288Y-97606894D01*
X117001256Y-97532013D01*
X117070795Y-97489365D01*
X117132656Y-97442327D01*
X117215776Y-97351553D01*
X117253335Y-97303297D01*
X117374340Y-97146154D01*
X117462708Y-97051955D01*
X117530337Y-97011634D01*
X117589128Y-97016130D01*
X117613577Y-97028908D01*
X117707327Y-97075468D01*
X117741406Y-97064910D01*
X117713774Y-97002142D01*
X117655386Y-96928360D01*
X117579046Y-96830311D01*
X117539541Y-96737162D01*
X117525284Y-96613439D01*
X117524000Y-96526193D01*
X117530461Y-96391501D01*
X117547319Y-96300248D01*
X117566334Y-96273667D01*
X117608466Y-96307409D01*
X117612887Y-96326583D01*
X117623010Y-96351326D01*
X117640204Y-96312577D01*
X117659845Y-96230698D01*
X117677307Y-96126053D01*
X117687968Y-96019004D01*
X117689114Y-95990940D01*
X117706971Y-95862372D01*
X117746192Y-95764257D01*
X117758596Y-95748785D01*
X117848686Y-95624452D01*
X117883300Y-95477195D01*
X117864037Y-95290540D01*
X117819018Y-95126575D01*
X117723539Y-94829633D01*
X117819769Y-94762230D01*
X117916000Y-94694828D01*
X117815250Y-94613286D01*
X117752538Y-94547676D01*
X117765140Y-94511269D01*
X117768308Y-94509881D01*
X117818958Y-94461941D01*
X117880752Y-94372878D01*
X117930894Y-94279135D01*
X117947334Y-94223650D01*
X117913714Y-94220130D01*
X117842999Y-94241097D01*
X117749268Y-94260634D01*
X117719025Y-94224866D01*
X117752831Y-94135127D01*
X117780132Y-94090859D01*
X117829236Y-93980977D01*
X117857053Y-93849796D01*
X117860767Y-93727372D01*
X117837566Y-93643758D01*
X117823312Y-93629674D01*
X117785424Y-93648683D01*
X117740966Y-93726346D01*
X117730956Y-93751921D01*
X117681696Y-93852123D01*
X117640908Y-93869685D01*
X117614831Y-93806607D01*
X117608667Y-93712757D01*
X117569227Y-93473334D01*
X117450669Y-93263960D01*
X117407554Y-93215083D01*
X117312905Y-93126230D01*
X117265575Y-93104725D01*
X117268540Y-93149228D01*
X117321958Y-93253638D01*
X117378418Y-93378377D01*
X117407583Y-93528320D01*
X117415780Y-93704608D01*
X117409183Y-93888083D01*
X117386101Y-93989824D01*
X117347025Y-94009382D01*
X117292446Y-93946306D01*
X117247990Y-93858794D01*
X117154797Y-93699040D01*
X117030438Y-93584199D01*
X116853961Y-93498114D01*
X116727252Y-93457215D01*
X116597731Y-93410687D01*
X116417033Y-93333310D01*
X116207966Y-93235394D01*
X115993340Y-93127253D01*
X115968690Y-93114287D01*
X115656459Y-92954356D01*
X115400200Y-92835996D01*
X115185238Y-92754112D01*
X114996901Y-92703609D01*
X114820515Y-92679392D01*
X114704567Y-92675333D01*
X114489300Y-92692204D01*
X114341286Y-92749847D01*
X114248694Y-92858803D01*
X114199691Y-93029616D01*
X114188273Y-93135346D01*
X114182266Y-93293129D01*
X114197351Y-93403293D01*
X114241176Y-93501812D01*
X114279020Y-93562134D01*
X114388656Y-93727804D01*
X114516858Y-93608046D01*
X114674020Y-93513731D01*
X114889822Y-93459522D01*
X115148659Y-93444828D01*
X115434924Y-93469059D01*
X115733013Y-93531625D01*
X116027320Y-93631934D01*
X116110454Y-93668333D01*
X116288752Y-93743842D01*
X116462526Y-93805849D01*
X116600105Y-93843316D01*
X116624417Y-93847457D01*
X116734199Y-93871422D01*
X116797889Y-93902516D01*
X116804334Y-93914651D01*
X116768001Y-93942779D01*
X116669936Y-93941814D01*
X116526536Y-93915281D01*
X116354199Y-93866707D01*
X116169323Y-93799618D01*
X116069363Y-93756618D01*
X115719795Y-93627935D01*
X115367577Y-93555847D01*
X115035657Y-93544265D01*
X114907144Y-93558496D01*
X114677682Y-93637943D01*
X114473922Y-93796998D01*
X114297695Y-94034040D01*
X114232164Y-94156805D01*
X114175174Y-94286448D01*
X114141197Y-94405761D01*
X114124789Y-94544710D01*
X114120503Y-94733265D01*
X114120581Y-94770833D01*
X114127528Y-94987495D01*
X114150758Y-95173252D01*
X114196892Y-95366483D01*
X114256020Y-95556117D01*
X114378904Y-95867714D01*
X114521649Y-96109678D01*
X114694292Y-96296474D01*
X114846826Y-96407460D01*
X114916282Y-96446873D01*
X114985707Y-96473439D01*
X115072452Y-96489176D01*
X115193867Y-96496103D01*
X115367302Y-96496240D01*
X115576347Y-96492356D01*
X115974674Y-96473777D01*
X116301551Y-96435852D01*
X116568433Y-96376429D01*
X116786771Y-96293352D01*
X116869887Y-96249059D01*
X117003141Y-96182904D01*
X117082798Y-96164920D01*
X117101651Y-96188656D01*
X117052490Y-96247665D01*
X116950768Y-96321422D01*
X116695058Y-96448571D01*
X116396293Y-96529414D01*
X116041144Y-96567036D01*
X115874690Y-96570689D01*
X115544709Y-96576795D01*
X115226523Y-96592972D01*
X114934929Y-96617701D01*
X114684724Y-96649463D01*
X114490708Y-96686740D01*
X114374387Y-96724680D01*
X114225720Y-96828920D01*
X114111775Y-96972383D01*
X114039069Y-97135598D01*
X114014118Y-97299091D01*
X113938802Y-97299091D01*
X113961202Y-97094330D01*
X114013233Y-96962618D01*
X114126276Y-96799239D01*
X114287201Y-96678170D01*
X114511167Y-96589037D01*
X114590379Y-96567604D01*
X114810591Y-96512705D01*
X114640673Y-96382602D01*
X114502937Y-96238470D01*
X114368962Y-96028787D01*
X114246154Y-95772590D01*
X114141919Y-95488915D01*
X114063664Y-95196801D01*
X114018794Y-94915285D01*
X114010984Y-94764021D01*
X114028660Y-94564111D01*
X114076647Y-94343832D01*
X114145782Y-94134476D01*
X114226902Y-93967336D01*
X114256985Y-93923893D01*
X114344971Y-93812038D01*
X114219986Y-93639500D01*
X114143478Y-93517317D01*
X114105978Y-93399586D01*
X114095104Y-93244825D01*
X114095000Y-93220751D01*
X114111843Y-93027028D01*
X114157158Y-92853530D01*
X114223130Y-92721893D01*
X114299537Y-92654638D01*
X114437991Y-92622358D01*
X114625858Y-92604864D01*
X114704567Y-92604271D01*
X114828984Y-92603332D01*
X115013216Y-92618941D01*
G36*
X114704564Y-94410969D02*
G01*
X114714214Y-94430922D01*
X114706391Y-94503977D01*
X114655258Y-94598248D01*
X114648737Y-94606789D01*
X114592080Y-94689156D01*
X114588560Y-94743126D01*
X114623519Y-94791283D01*
X114682536Y-94894915D01*
X114658327Y-94986738D01*
X114613584Y-95030778D01*
X114566913Y-95076299D01*
X114578870Y-95117654D01*
X114634750Y-95169230D01*
X114711557Y-95263834D01*
X114724077Y-95350786D01*
X114669947Y-95410191D01*
X114663710Y-95412762D01*
X114587531Y-95399781D01*
X114479913Y-95323236D01*
X114452044Y-95297295D01*
X114346210Y-95175207D01*
X114310387Y-95073968D01*
X114339029Y-94976222D01*
X114345859Y-94964966D01*
X114366357Y-94882752D01*
X114362176Y-94772124D01*
X114369520Y-94661494D01*
X114416327Y-94552067D01*
X114487916Y-94458072D01*
X114569605Y-94393738D01*
X114646715Y-94373294D01*
X114704564Y-94410969D01*
G37*
X114704564Y-94410969D02*
X114714214Y-94430922D01*
X114706391Y-94503977D01*
X114655258Y-94598248D01*
X114648737Y-94606789D01*
X114592080Y-94689156D01*
X114588560Y-94743126D01*
X114623519Y-94791283D01*
X114682536Y-94894915D01*
X114658327Y-94986738D01*
X114613584Y-95030778D01*
X114566913Y-95076299D01*
X114578870Y-95117654D01*
X114634750Y-95169230D01*
X114711557Y-95263834D01*
X114724077Y-95350786D01*
X114669947Y-95410191D01*
X114663710Y-95412762D01*
X114587531Y-95399781D01*
X114479913Y-95323236D01*
X114452044Y-95297295D01*
X114346210Y-95175207D01*
X114310387Y-95073968D01*
X114339029Y-94976222D01*
X114345859Y-94964966D01*
X114366357Y-94882752D01*
X114362176Y-94772124D01*
X114369520Y-94661494D01*
X114416327Y-94552067D01*
X114487916Y-94458072D01*
X114569605Y-94393738D01*
X114646715Y-94373294D01*
X114704564Y-94410969D01*
G36*
X115187899Y-93952489D02*
G01*
X115222004Y-93965932D01*
X115323303Y-94006718D01*
X115385176Y-94028743D01*
X115391337Y-94030000D01*
X115407092Y-94062403D01*
X115407334Y-94069189D01*
X115373112Y-94078396D01*
X115286719Y-94056078D01*
X115238431Y-94037439D01*
X115135252Y-93987379D01*
X115075243Y-93945261D01*
X115069098Y-93934182D01*
X115102916Y-93928166D01*
X115187899Y-93952489D01*
G37*
X115187899Y-93952489D02*
X115222004Y-93965932D01*
X115323303Y-94006718D01*
X115385176Y-94028743D01*
X115391337Y-94030000D01*
X115407092Y-94062403D01*
X115407334Y-94069189D01*
X115373112Y-94078396D01*
X115286719Y-94056078D01*
X115238431Y-94037439D01*
X115135252Y-93987379D01*
X115075243Y-93945261D01*
X115069098Y-93934182D01*
X115102916Y-93928166D01*
X115187899Y-93952489D01*
G36*
X115204913Y-94077485D02*
G01*
X115245253Y-94097250D01*
X115324719Y-94146663D01*
X115353039Y-94181719D01*
X115351394Y-94184718D01*
X115302252Y-94184194D01*
X115244409Y-94160430D01*
X115155929Y-94120701D01*
X115123592Y-94121510D01*
X115156566Y-94160630D01*
X115176993Y-94176820D01*
X115230474Y-94227215D01*
X115210045Y-94238765D01*
X115135630Y-94215971D01*
X115080544Y-94181545D01*
X115082228Y-94122016D01*
X115096494Y-94083545D01*
X115130540Y-94056282D01*
X115204913Y-94077485D01*
G37*
X115204913Y-94077485D02*
X115245253Y-94097250D01*
X115324719Y-94146663D01*
X115353039Y-94181719D01*
X115351394Y-94184718D01*
X115302252Y-94184194D01*
X115244409Y-94160430D01*
X115155929Y-94120701D01*
X115123592Y-94121510D01*
X115156566Y-94160630D01*
X115176993Y-94176820D01*
X115230474Y-94227215D01*
X115210045Y-94238765D01*
X115135630Y-94215971D01*
X115080544Y-94181545D01*
X115082228Y-94122016D01*
X115096494Y-94083545D01*
X115130540Y-94056282D01*
X115204913Y-94077485D01*
G36*
X115205039Y-93629277D02*
G01*
X115279890Y-93682315D01*
X115351932Y-93743593D01*
X115393862Y-93790922D01*
X115395261Y-93802184D01*
X115340589Y-93806103D01*
X115254293Y-93774920D01*
X115171276Y-93725907D01*
X115126436Y-93676338D01*
X115125112Y-93668485D01*
X115141539Y-93613148D01*
X115154680Y-93606667D01*
X115205039Y-93629277D01*
G37*
X115205039Y-93629277D02*
X115279890Y-93682315D01*
X115351932Y-93743593D01*
X115393862Y-93790922D01*
X115395261Y-93802184D01*
X115340589Y-93806103D01*
X115254293Y-93774920D01*
X115171276Y-93725907D01*
X115126436Y-93676338D01*
X115125112Y-93668485D01*
X115141539Y-93613148D01*
X115154680Y-93606667D01*
X115205039Y-93629277D01*
G36*
X115240146Y-93842919D02*
G01*
X115303993Y-93880487D01*
X115351997Y-93927487D01*
X115335869Y-93940460D01*
X115269073Y-93919238D01*
X115195667Y-93881833D01*
X115135182Y-93837740D01*
X115151717Y-93820004D01*
X115155826Y-93819833D01*
X115240146Y-93842919D01*
G37*
X115240146Y-93842919D02*
X115303993Y-93880487D01*
X115351997Y-93927487D01*
X115335869Y-93940460D01*
X115269073Y-93919238D01*
X115195667Y-93881833D01*
X115135182Y-93837740D01*
X115151717Y-93820004D01*
X115155826Y-93819833D01*
X115240146Y-93842919D01*
G36*
X115199293Y-95513607D02*
G01*
X115260000Y-95556316D01*
X115268852Y-95579593D01*
X115216429Y-95583687D01*
X115148258Y-95552766D01*
X115111217Y-95508791D01*
X115111000Y-95505648D01*
X115141676Y-95492342D01*
X115199293Y-95513607D01*
G37*
X115199293Y-95513607D02*
X115260000Y-95556316D01*
X115268852Y-95579593D01*
X115216429Y-95583687D01*
X115148258Y-95552766D01*
X115111217Y-95508791D01*
X115111000Y-95505648D01*
X115141676Y-95492342D01*
X115199293Y-95513607D01*
G36*
X115267066Y-95699921D02*
G01*
X115365165Y-95755200D01*
X115425389Y-95803587D01*
X115428314Y-95807699D01*
X115438562Y-95847716D01*
X115396403Y-95839089D01*
X115314899Y-95786863D01*
X115259167Y-95742345D01*
X115132167Y-95634778D01*
X115267066Y-95699921D01*
G37*
X115267066Y-95699921D02*
X115365165Y-95755200D01*
X115425389Y-95803587D01*
X115428314Y-95807699D01*
X115438562Y-95847716D01*
X115396403Y-95839089D01*
X115314899Y-95786863D01*
X115259167Y-95742345D01*
X115132167Y-95634778D01*
X115267066Y-95699921D01*
G36*
X115236569Y-95827836D02*
G01*
X115305837Y-95874119D01*
X115368547Y-95927006D01*
X115400174Y-95966659D01*
X115392844Y-95975925D01*
X115337714Y-95953015D01*
X115253382Y-95895661D01*
X115249552Y-95892667D01*
X115188819Y-95836118D01*
X115181091Y-95808531D01*
X115185268Y-95808000D01*
X115236569Y-95827836D01*
G37*
X115236569Y-95827836D02*
X115305837Y-95874119D01*
X115368547Y-95927006D01*
X115400174Y-95966659D01*
X115392844Y-95975925D01*
X115337714Y-95953015D01*
X115253382Y-95895661D01*
X115249552Y-95892667D01*
X115188819Y-95836118D01*
X115181091Y-95808531D01*
X115185268Y-95808000D01*
X115236569Y-95827836D01*
G36*
X115256537Y-96003260D02*
G01*
X115279054Y-96018755D01*
X115386400Y-96103979D01*
X115436562Y-96163564D01*
X115422442Y-96188713D01*
X115416417Y-96189000D01*
X115358981Y-96162779D01*
X115276784Y-96100962D01*
X115199177Y-96028814D01*
X115155509Y-95971603D01*
X115153334Y-95962519D01*
X115182998Y-95962228D01*
X115256537Y-96003260D01*
G37*
X115256537Y-96003260D02*
X115279054Y-96018755D01*
X115386400Y-96103979D01*
X115436562Y-96163564D01*
X115422442Y-96188713D01*
X115416417Y-96189000D01*
X115358981Y-96162779D01*
X115276784Y-96100962D01*
X115199177Y-96028814D01*
X115155509Y-95971603D01*
X115153334Y-95962519D01*
X115182998Y-95962228D01*
X115256537Y-96003260D01*
G36*
X115261474Y-96175492D02*
G01*
X115299799Y-96199194D01*
X115381217Y-96260326D01*
X115413045Y-96301152D01*
X115408214Y-96308084D01*
X115347019Y-96295984D01*
X115261024Y-96248873D01*
X115184913Y-96189429D01*
X115153334Y-96141409D01*
X115184107Y-96138357D01*
X115261474Y-96175492D01*
G37*
X115261474Y-96175492D02*
X115299799Y-96199194D01*
X115381217Y-96260326D01*
X115413045Y-96301152D01*
X115408214Y-96308084D01*
X115347019Y-96295984D01*
X115261024Y-96248873D01*
X115184913Y-96189429D01*
X115153334Y-96141409D01*
X115184107Y-96138357D01*
X115261474Y-96175492D01*
G36*
X115315538Y-94685453D02*
G01*
X115322667Y-94702804D01*
X115288978Y-94749082D01*
X115259167Y-94764975D01*
X115204553Y-94758471D01*
X115195667Y-94727171D01*
X115229583Y-94672206D01*
X115259167Y-94665000D01*
X115315538Y-94685453D01*
G37*
X115315538Y-94685453D02*
X115322667Y-94702804D01*
X115288978Y-94749082D01*
X115259167Y-94764975D01*
X115204553Y-94758471D01*
X115195667Y-94727171D01*
X115229583Y-94672206D01*
X115259167Y-94665000D01*
X115315538Y-94685453D01*
G36*
X115300741Y-95023980D02*
G01*
X115316127Y-95064967D01*
X115306945Y-95120834D01*
X115273793Y-95121451D01*
X115217594Y-95068020D01*
X115202208Y-95027033D01*
X115211390Y-94971166D01*
X115244541Y-94970549D01*
X115300741Y-95023980D01*
G37*
X115300741Y-95023980D02*
X115316127Y-95064967D01*
X115306945Y-95120834D01*
X115273793Y-95121451D01*
X115217594Y-95068020D01*
X115202208Y-95027033D01*
X115211390Y-94971166D01*
X115244541Y-94970549D01*
X115300741Y-95023980D01*
G36*
X116212878Y-94072981D02*
G01*
X116276998Y-94135732D01*
X116278451Y-94184875D01*
X116256797Y-94250812D01*
X116254000Y-94266296D01*
X116217204Y-94278853D01*
X116130024Y-94284000D01*
X116014645Y-94305519D01*
X115930785Y-94358743D01*
X115897613Y-94426674D01*
X115915276Y-94474430D01*
X115984402Y-94527068D01*
X116090229Y-94580287D01*
X116096654Y-94582874D01*
X116236782Y-94647009D01*
X116305439Y-94703755D01*
X116313987Y-94763263D01*
X116310455Y-94773928D01*
X116249613Y-94830829D01*
X116143443Y-94834669D01*
X116008702Y-94789952D01*
X115862149Y-94701184D01*
X115777750Y-94630740D01*
X115682700Y-94503155D01*
X115671781Y-94372323D01*
X115744513Y-94232022D01*
X115746662Y-94229273D01*
X115864494Y-94125730D01*
X116007931Y-94063406D01*
X116146945Y-94052368D01*
X116212878Y-94072981D01*
G37*
X116212878Y-94072981D02*
X116276998Y-94135732D01*
X116278451Y-94184875D01*
X116256797Y-94250812D01*
X116254000Y-94266296D01*
X116217204Y-94278853D01*
X116130024Y-94284000D01*
X116014645Y-94305519D01*
X115930785Y-94358743D01*
X115897613Y-94426674D01*
X115915276Y-94474430D01*
X115984402Y-94527068D01*
X116090229Y-94580287D01*
X116096654Y-94582874D01*
X116236782Y-94647009D01*
X116305439Y-94703755D01*
X116313987Y-94763263D01*
X116310455Y-94773928D01*
X116249613Y-94830829D01*
X116143443Y-94834669D01*
X116008702Y-94789952D01*
X115862149Y-94701184D01*
X115777750Y-94630740D01*
X115682700Y-94503155D01*
X115671781Y-94372323D01*
X115744513Y-94232022D01*
X115746662Y-94229273D01*
X115864494Y-94125730D01*
X116007931Y-94063406D01*
X116146945Y-94052368D01*
X116212878Y-94072981D01*
G36*
X116207253Y-95293990D02*
G01*
X116248974Y-95356349D01*
X116224323Y-95420596D01*
X116147824Y-95463635D01*
X116096579Y-95469981D01*
X115990219Y-95481823D01*
X115926569Y-95503827D01*
X115901959Y-95557469D01*
X115939094Y-95630098D01*
X116023257Y-95704333D01*
X116139736Y-95762796D01*
X116148298Y-95765710D01*
X116261532Y-95823752D01*
X116296334Y-95895950D01*
X116279067Y-95951615D01*
X116212765Y-95974513D01*
X116143187Y-95977333D01*
X116031343Y-95962277D01*
X115929544Y-95906534D01*
X115825687Y-95812980D01*
X115703539Y-95659202D01*
X115663639Y-95523916D01*
X115705817Y-95406219D01*
X115742715Y-95366473D01*
X115844032Y-95310535D01*
X115980148Y-95276137D01*
X116114067Y-95269052D01*
X116207253Y-95293990D01*
G37*
X116207253Y-95293990D02*
X116248974Y-95356349D01*
X116224323Y-95420596D01*
X116147824Y-95463635D01*
X116096579Y-95469981D01*
X115990219Y-95481823D01*
X115926569Y-95503827D01*
X115901959Y-95557469D01*
X115939094Y-95630098D01*
X116023257Y-95704333D01*
X116139736Y-95762796D01*
X116148298Y-95765710D01*
X116261532Y-95823752D01*
X116296334Y-95895950D01*
X116279067Y-95951615D01*
X116212765Y-95974513D01*
X116143187Y-95977333D01*
X116031343Y-95962277D01*
X115929544Y-95906534D01*
X115825687Y-95812980D01*
X115703539Y-95659202D01*
X115663639Y-95523916D01*
X115705817Y-95406219D01*
X115742715Y-95366473D01*
X115844032Y-95310535D01*
X115980148Y-95276137D01*
X116114067Y-95269052D01*
X116207253Y-95293990D01*
G36*
X116881559Y-95344325D02*
G01*
X116872686Y-95450421D01*
X116799942Y-95596091D01*
X116783167Y-95621527D01*
X116697393Y-95803783D01*
X116677334Y-95937445D01*
X116665797Y-96102759D01*
X116627971Y-96196950D01*
X116559033Y-96230795D01*
X116545805Y-96231333D01*
X116501635Y-96221140D01*
X116477353Y-96178057D01*
X116467291Y-96083329D01*
X116465667Y-95966185D01*
X116472170Y-95802885D01*
X116500291Y-95681342D01*
X116562955Y-95559270D01*
X116614017Y-95480750D01*
X116717662Y-95344608D01*
X116794096Y-95285353D01*
X116825683Y-95284761D01*
X116881559Y-95344325D01*
G37*
X116881559Y-95344325D02*
X116872686Y-95450421D01*
X116799942Y-95596091D01*
X116783167Y-95621527D01*
X116697393Y-95803783D01*
X116677334Y-95937445D01*
X116665797Y-96102759D01*
X116627971Y-96196950D01*
X116559033Y-96230795D01*
X116545805Y-96231333D01*
X116501635Y-96221140D01*
X116477353Y-96178057D01*
X116467291Y-96083329D01*
X116465667Y-95966185D01*
X116472170Y-95802885D01*
X116500291Y-95681342D01*
X116562955Y-95559270D01*
X116614017Y-95480750D01*
X116717662Y-95344608D01*
X116794096Y-95285353D01*
X116825683Y-95284761D01*
X116881559Y-95344325D01*
G36*
X116735258Y-94099053D02*
G01*
X116771471Y-94189026D01*
X116783724Y-94252250D01*
X116815586Y-94389341D01*
X116868594Y-94562044D01*
X116918939Y-94700722D01*
X116975817Y-94859570D01*
X116995363Y-94958866D01*
X116980330Y-95013631D01*
X116976996Y-95017271D01*
X116910584Y-95042887D01*
X116856085Y-95019772D01*
X116799289Y-94952409D01*
X116736983Y-94829168D01*
X116675619Y-94671199D01*
X116621646Y-94499651D01*
X116581516Y-94335672D01*
X116561678Y-94200412D01*
X116568582Y-94115021D01*
X116576393Y-94102719D01*
X116641129Y-94076146D01*
X116680668Y-94072333D01*
X116735258Y-94099053D01*
G37*
X116735258Y-94099053D02*
X116771471Y-94189026D01*
X116783724Y-94252250D01*
X116815586Y-94389341D01*
X116868594Y-94562044D01*
X116918939Y-94700722D01*
X116975817Y-94859570D01*
X116995363Y-94958866D01*
X116980330Y-95013631D01*
X116976996Y-95017271D01*
X116910584Y-95042887D01*
X116856085Y-95019772D01*
X116799289Y-94952409D01*
X116736983Y-94829168D01*
X116675619Y-94671199D01*
X116621646Y-94499651D01*
X116581516Y-94335672D01*
X116561678Y-94200412D01*
X116568582Y-94115021D01*
X116576393Y-94102719D01*
X116641129Y-94076146D01*
X116680668Y-94072333D01*
X116735258Y-94099053D01*
G36*
X108618941Y-142686784D02*
G01*
X108628253Y-142635028D01*
X108666973Y-142507516D01*
X108735950Y-142329937D01*
X108825116Y-142126668D01*
X108915674Y-141939202D01*
X109049494Y-141674981D01*
X109150635Y-141473608D01*
X109224874Y-141322502D01*
X109277988Y-141209084D01*
X109315755Y-141120772D01*
X109343951Y-141044986D01*
X109368355Y-140969145D01*
X109381987Y-140923749D01*
X109463072Y-140704120D01*
X109561866Y-140548416D01*
X109691951Y-140435995D01*
X109710688Y-140424201D01*
X109839500Y-140345649D01*
X109691333Y-140346421D01*
X109510901Y-140377028D01*
X109301973Y-140459459D01*
X109092105Y-140582079D01*
X109034898Y-140623575D01*
X108936235Y-140686461D01*
X108890588Y-140686212D01*
X108898069Y-140625793D01*
X108958790Y-140508172D01*
X109026574Y-140402872D01*
X109210131Y-140198933D01*
X109375824Y-140091419D01*
X109585500Y-139985671D01*
X109437333Y-139961283D01*
X109289167Y-139936896D01*
X109500833Y-139841027D01*
X109693921Y-139774050D01*
X109876344Y-139760977D01*
X109909728Y-139763494D01*
X110030799Y-139769486D01*
X110083475Y-139755543D01*
X110085115Y-139724915D01*
X110097152Y-139680023D01*
X110171056Y-139669889D01*
X110291679Y-139694106D01*
X110400944Y-139733414D01*
X110504851Y-139772154D01*
X110561965Y-139773826D01*
X110601614Y-139738428D01*
X110605335Y-139733414D01*
X110666399Y-139681130D01*
X110725238Y-139669550D01*
X110749667Y-139702242D01*
X110772231Y-139760657D01*
X110804943Y-139812079D01*
X110846774Y-139857419D01*
X110897424Y-139864556D01*
X110986803Y-139834606D01*
X111021780Y-139820170D01*
X111165845Y-139774795D01*
X111324312Y-139758011D01*
X111511765Y-139771176D01*
X111742786Y-139815649D01*
X112031961Y-139892788D01*
X112137613Y-139924127D01*
X112382454Y-139996325D01*
X112562161Y-140041199D01*
X112692256Y-140057182D01*
X112788259Y-140042707D01*
X112865689Y-139996207D01*
X112940067Y-139916116D01*
X113000236Y-139837051D01*
X113086417Y-139737856D01*
X113140406Y-139716922D01*
X113162173Y-139774258D01*
X113162667Y-139792338D01*
X113175514Y-139846209D01*
X113229700Y-139860128D01*
X113305451Y-139851172D01*
X113415879Y-139847617D01*
X113477022Y-139874586D01*
X113477283Y-139875001D01*
X113470112Y-139914068D01*
X113429748Y-139922210D01*
X113348207Y-139948020D01*
X113245460Y-140011372D01*
X113226167Y-140026521D01*
X113099167Y-140130621D01*
X113236750Y-140132144D01*
X113330420Y-140144576D01*
X113373945Y-140172813D01*
X113374333Y-140176000D01*
X113338453Y-140209086D01*
X113279083Y-140218447D01*
X113232348Y-140224684D01*
X113233621Y-140251511D01*
X113289363Y-140311346D01*
X113361642Y-140377197D01*
X113594580Y-140639093D01*
X113783300Y-140966676D01*
X113894106Y-141255500D01*
X113933665Y-141395949D01*
X113960295Y-141533594D01*
X113976239Y-141690362D01*
X113983740Y-141888178D01*
X113985055Y-142144500D01*
X113973026Y-142523434D01*
X113937005Y-142837588D01*
X113872932Y-143104470D01*
X113776747Y-143341588D01*
X113661024Y-143541500D01*
X113577281Y-143661106D01*
X113509211Y-143726104D01*
X113429644Y-143754911D01*
X113331673Y-143764762D01*
X113094330Y-143738798D01*
X112962618Y-143686767D01*
X112799239Y-143573724D01*
X112678170Y-143412799D01*
X112589037Y-143188833D01*
X112567604Y-143109621D01*
X112512705Y-142889409D01*
X112382602Y-143059327D01*
X112238470Y-143197063D01*
X112028787Y-143331038D01*
X111772590Y-143453846D01*
X111488915Y-143558081D01*
X111196801Y-143636336D01*
X110915285Y-143681206D01*
X110764021Y-143689016D01*
X110564111Y-143671340D01*
X110343832Y-143623353D01*
X110134476Y-143554218D01*
X109967336Y-143473098D01*
X109923893Y-143443015D01*
X109812038Y-143355029D01*
X109639500Y-143480014D01*
X109517317Y-143556522D01*
X109399586Y-143594022D01*
X109244825Y-143604896D01*
X109220751Y-143605000D01*
X109027028Y-143588157D01*
X108853530Y-143542842D01*
X108721893Y-143476870D01*
X108654638Y-143400463D01*
X108622358Y-143262009D01*
X108604864Y-143074142D01*
X108604271Y-142995433D01*
X108675333Y-142995433D01*
X108692204Y-143210700D01*
X108749847Y-143358714D01*
X108858803Y-143451306D01*
X109029616Y-143500309D01*
X109135346Y-143511727D01*
X109293129Y-143517734D01*
X109403293Y-143502649D01*
X109501812Y-143458824D01*
X109562134Y-143420980D01*
X109727804Y-143311344D01*
X109608046Y-143183142D01*
X109513731Y-143025980D01*
X109459522Y-142810178D01*
X109444828Y-142551341D01*
X109469059Y-142265076D01*
X109531625Y-141966987D01*
X109631934Y-141672680D01*
X109668333Y-141589546D01*
X109743842Y-141411248D01*
X109805849Y-141237474D01*
X109843316Y-141099895D01*
X109847457Y-141075583D01*
X109871422Y-140965801D01*
X109902516Y-140902111D01*
X109914651Y-140895666D01*
X109942779Y-140931999D01*
X109941814Y-141030064D01*
X109915281Y-141173464D01*
X109866707Y-141345801D01*
X109799618Y-141530677D01*
X109756618Y-141630637D01*
X109627935Y-141980205D01*
X109555847Y-142332423D01*
X109544265Y-142664343D01*
X109558496Y-142792856D01*
X109637943Y-143022318D01*
X109796998Y-143226078D01*
X110034040Y-143402305D01*
X110156805Y-143467836D01*
X110286448Y-143524826D01*
X110405761Y-143558803D01*
X110544710Y-143575211D01*
X110733265Y-143579497D01*
X110770833Y-143579419D01*
X110987495Y-143572472D01*
X111173252Y-143549242D01*
X111366483Y-143503108D01*
X111556117Y-143443980D01*
X111867714Y-143321096D01*
X112109678Y-143178351D01*
X112296474Y-143005708D01*
X112407460Y-142853174D01*
X112446873Y-142783718D01*
X112473439Y-142714293D01*
X112489176Y-142627548D01*
X112496103Y-142506133D01*
X112496240Y-142332698D01*
X112492356Y-142123653D01*
X112473777Y-141725326D01*
X112435852Y-141398449D01*
X112376429Y-141131567D01*
X112293352Y-140913229D01*
X112249059Y-140830113D01*
X112182904Y-140696859D01*
X112164920Y-140617202D01*
X112188656Y-140598349D01*
X112247665Y-140647510D01*
X112321422Y-140749232D01*
X112448571Y-141004942D01*
X112529414Y-141303707D01*
X112567036Y-141658856D01*
X112570689Y-141825310D01*
X112576795Y-142155291D01*
X112592972Y-142473477D01*
X112617701Y-142765071D01*
X112649463Y-143015276D01*
X112686740Y-143209292D01*
X112724680Y-143325613D01*
X112828920Y-143474280D01*
X112972383Y-143588225D01*
X113135598Y-143660931D01*
X113299091Y-143685882D01*
X113443389Y-143656561D01*
X113527846Y-143594416D01*
X113637581Y-143438099D01*
X113745723Y-143231015D01*
X113836718Y-143005906D01*
X113884815Y-142843000D01*
X113907805Y-142702428D01*
X113926457Y-142506443D01*
X113938463Y-142284274D01*
X113941698Y-142123333D01*
X113939651Y-141889852D01*
X113928664Y-141710324D01*
X113904502Y-141554166D01*
X113862929Y-141390794D01*
X113821835Y-141257735D01*
X113757848Y-141079294D01*
X113689837Y-140923046D01*
X113628849Y-140813248D01*
X113606894Y-140785712D01*
X113532013Y-140698744D01*
X113489365Y-140629205D01*
X113442327Y-140567344D01*
X113351553Y-140484224D01*
X113303297Y-140446665D01*
X113146154Y-140325660D01*
X113051955Y-140237292D01*
X113011634Y-140169663D01*
X113016130Y-140110872D01*
X113028908Y-140086423D01*
X113075468Y-139992673D01*
X113064910Y-139958594D01*
X113002142Y-139986226D01*
X112928360Y-140044614D01*
X112830311Y-140120954D01*
X112737162Y-140160459D01*
X112613439Y-140174716D01*
X112526193Y-140176000D01*
X112391501Y-140169539D01*
X112300248Y-140152681D01*
X112273667Y-140133666D01*
X112307409Y-140091534D01*
X112326583Y-140087113D01*
X112351326Y-140076990D01*
X112312577Y-140059796D01*
X112230698Y-140040155D01*
X112126053Y-140022693D01*
X112019004Y-140012032D01*
X111990940Y-140010886D01*
X111862372Y-139993029D01*
X111764257Y-139953808D01*
X111748785Y-139941404D01*
X111624452Y-139851314D01*
X111477195Y-139816700D01*
X111290540Y-139835963D01*
X111126575Y-139880982D01*
X110829633Y-139976461D01*
X110762230Y-139880231D01*
X110694828Y-139784000D01*
X110613286Y-139884750D01*
X110547676Y-139947462D01*
X110511269Y-139934860D01*
X110509881Y-139931692D01*
X110461941Y-139881042D01*
X110372878Y-139819248D01*
X110279135Y-139769106D01*
X110223650Y-139752666D01*
X110220130Y-139786286D01*
X110241097Y-139857001D01*
X110260634Y-139950732D01*
X110224866Y-139980975D01*
X110135127Y-139947169D01*
X110090859Y-139919868D01*
X109980977Y-139870764D01*
X109849796Y-139842947D01*
X109727372Y-139839233D01*
X109643758Y-139862434D01*
X109629674Y-139876688D01*
X109648683Y-139914576D01*
X109726346Y-139959034D01*
X109751921Y-139969044D01*
X109852123Y-140018304D01*
X109869685Y-140059092D01*
X109806607Y-140085169D01*
X109712757Y-140091333D01*
X109473334Y-140130773D01*
X109263960Y-140249331D01*
X109215083Y-140292446D01*
X109126230Y-140387095D01*
X109104725Y-140434425D01*
X109149228Y-140431460D01*
X109253638Y-140378042D01*
X109378377Y-140321582D01*
X109528320Y-140292417D01*
X109704608Y-140284220D01*
X109888083Y-140290817D01*
X109989824Y-140313899D01*
X110009382Y-140352975D01*
X109946306Y-140407554D01*
X109858794Y-140452010D01*
X109699040Y-140545203D01*
X109584199Y-140669562D01*
X109498114Y-140846039D01*
X109457215Y-140972748D01*
X109410687Y-141102269D01*
X109333310Y-141282967D01*
X109235394Y-141492034D01*
X109127253Y-141706660D01*
X109114287Y-141731310D01*
X108954356Y-142043541D01*
X108835996Y-142299800D01*
X108754112Y-142514762D01*
X108703609Y-142703099D01*
X108679392Y-142879485D01*
X108675333Y-142995433D01*
X108604271Y-142995433D01*
X108603332Y-142871016D01*
X108618941Y-142686784D01*
G37*
X108618941Y-142686784D02*
X108628253Y-142635028D01*
X108666973Y-142507516D01*
X108735950Y-142329937D01*
X108825116Y-142126668D01*
X108915674Y-141939202D01*
X109049494Y-141674981D01*
X109150635Y-141473608D01*
X109224874Y-141322502D01*
X109277988Y-141209084D01*
X109315755Y-141120772D01*
X109343951Y-141044986D01*
X109368355Y-140969145D01*
X109381987Y-140923749D01*
X109463072Y-140704120D01*
X109561866Y-140548416D01*
X109691951Y-140435995D01*
X109710688Y-140424201D01*
X109839500Y-140345649D01*
X109691333Y-140346421D01*
X109510901Y-140377028D01*
X109301973Y-140459459D01*
X109092105Y-140582079D01*
X109034898Y-140623575D01*
X108936235Y-140686461D01*
X108890588Y-140686212D01*
X108898069Y-140625793D01*
X108958790Y-140508172D01*
X109026574Y-140402872D01*
X109210131Y-140198933D01*
X109375824Y-140091419D01*
X109585500Y-139985671D01*
X109437333Y-139961283D01*
X109289167Y-139936896D01*
X109500833Y-139841027D01*
X109693921Y-139774050D01*
X109876344Y-139760977D01*
X109909728Y-139763494D01*
X110030799Y-139769486D01*
X110083475Y-139755543D01*
X110085115Y-139724915D01*
X110097152Y-139680023D01*
X110171056Y-139669889D01*
X110291679Y-139694106D01*
X110400944Y-139733414D01*
X110504851Y-139772154D01*
X110561965Y-139773826D01*
X110601614Y-139738428D01*
X110605335Y-139733414D01*
X110666399Y-139681130D01*
X110725238Y-139669550D01*
X110749667Y-139702242D01*
X110772231Y-139760657D01*
X110804943Y-139812079D01*
X110846774Y-139857419D01*
X110897424Y-139864556D01*
X110986803Y-139834606D01*
X111021780Y-139820170D01*
X111165845Y-139774795D01*
X111324312Y-139758011D01*
X111511765Y-139771176D01*
X111742786Y-139815649D01*
X112031961Y-139892788D01*
X112137613Y-139924127D01*
X112382454Y-139996325D01*
X112562161Y-140041199D01*
X112692256Y-140057182D01*
X112788259Y-140042707D01*
X112865689Y-139996207D01*
X112940067Y-139916116D01*
X113000236Y-139837051D01*
X113086417Y-139737856D01*
X113140406Y-139716922D01*
X113162173Y-139774258D01*
X113162667Y-139792338D01*
X113175514Y-139846209D01*
X113229700Y-139860128D01*
X113305451Y-139851172D01*
X113415879Y-139847617D01*
X113477022Y-139874586D01*
X113477283Y-139875001D01*
X113470112Y-139914068D01*
X113429748Y-139922210D01*
X113348207Y-139948020D01*
X113245460Y-140011372D01*
X113226167Y-140026521D01*
X113099167Y-140130621D01*
X113236750Y-140132144D01*
X113330420Y-140144576D01*
X113373945Y-140172813D01*
X113374333Y-140176000D01*
X113338453Y-140209086D01*
X113279083Y-140218447D01*
X113232348Y-140224684D01*
X113233621Y-140251511D01*
X113289363Y-140311346D01*
X113361642Y-140377197D01*
X113594580Y-140639093D01*
X113783300Y-140966676D01*
X113894106Y-141255500D01*
X113933665Y-141395949D01*
X113960295Y-141533594D01*
X113976239Y-141690362D01*
X113983740Y-141888178D01*
X113985055Y-142144500D01*
X113973026Y-142523434D01*
X113937005Y-142837588D01*
X113872932Y-143104470D01*
X113776747Y-143341588D01*
X113661024Y-143541500D01*
X113577281Y-143661106D01*
X113509211Y-143726104D01*
X113429644Y-143754911D01*
X113331673Y-143764762D01*
X113094330Y-143738798D01*
X112962618Y-143686767D01*
X112799239Y-143573724D01*
X112678170Y-143412799D01*
X112589037Y-143188833D01*
X112567604Y-143109621D01*
X112512705Y-142889409D01*
X112382602Y-143059327D01*
X112238470Y-143197063D01*
X112028787Y-143331038D01*
X111772590Y-143453846D01*
X111488915Y-143558081D01*
X111196801Y-143636336D01*
X110915285Y-143681206D01*
X110764021Y-143689016D01*
X110564111Y-143671340D01*
X110343832Y-143623353D01*
X110134476Y-143554218D01*
X109967336Y-143473098D01*
X109923893Y-143443015D01*
X109812038Y-143355029D01*
X109639500Y-143480014D01*
X109517317Y-143556522D01*
X109399586Y-143594022D01*
X109244825Y-143604896D01*
X109220751Y-143605000D01*
X109027028Y-143588157D01*
X108853530Y-143542842D01*
X108721893Y-143476870D01*
X108654638Y-143400463D01*
X108622358Y-143262009D01*
X108604864Y-143074142D01*
X108604271Y-142995433D01*
X108675333Y-142995433D01*
X108692204Y-143210700D01*
X108749847Y-143358714D01*
X108858803Y-143451306D01*
X109029616Y-143500309D01*
X109135346Y-143511727D01*
X109293129Y-143517734D01*
X109403293Y-143502649D01*
X109501812Y-143458824D01*
X109562134Y-143420980D01*
X109727804Y-143311344D01*
X109608046Y-143183142D01*
X109513731Y-143025980D01*
X109459522Y-142810178D01*
X109444828Y-142551341D01*
X109469059Y-142265076D01*
X109531625Y-141966987D01*
X109631934Y-141672680D01*
X109668333Y-141589546D01*
X109743842Y-141411248D01*
X109805849Y-141237474D01*
X109843316Y-141099895D01*
X109847457Y-141075583D01*
X109871422Y-140965801D01*
X109902516Y-140902111D01*
X109914651Y-140895666D01*
X109942779Y-140931999D01*
X109941814Y-141030064D01*
X109915281Y-141173464D01*
X109866707Y-141345801D01*
X109799618Y-141530677D01*
X109756618Y-141630637D01*
X109627935Y-141980205D01*
X109555847Y-142332423D01*
X109544265Y-142664343D01*
X109558496Y-142792856D01*
X109637943Y-143022318D01*
X109796998Y-143226078D01*
X110034040Y-143402305D01*
X110156805Y-143467836D01*
X110286448Y-143524826D01*
X110405761Y-143558803D01*
X110544710Y-143575211D01*
X110733265Y-143579497D01*
X110770833Y-143579419D01*
X110987495Y-143572472D01*
X111173252Y-143549242D01*
X111366483Y-143503108D01*
X111556117Y-143443980D01*
X111867714Y-143321096D01*
X112109678Y-143178351D01*
X112296474Y-143005708D01*
X112407460Y-142853174D01*
X112446873Y-142783718D01*
X112473439Y-142714293D01*
X112489176Y-142627548D01*
X112496103Y-142506133D01*
X112496240Y-142332698D01*
X112492356Y-142123653D01*
X112473777Y-141725326D01*
X112435852Y-141398449D01*
X112376429Y-141131567D01*
X112293352Y-140913229D01*
X112249059Y-140830113D01*
X112182904Y-140696859D01*
X112164920Y-140617202D01*
X112188656Y-140598349D01*
X112247665Y-140647510D01*
X112321422Y-140749232D01*
X112448571Y-141004942D01*
X112529414Y-141303707D01*
X112567036Y-141658856D01*
X112570689Y-141825310D01*
X112576795Y-142155291D01*
X112592972Y-142473477D01*
X112617701Y-142765071D01*
X112649463Y-143015276D01*
X112686740Y-143209292D01*
X112724680Y-143325613D01*
X112828920Y-143474280D01*
X112972383Y-143588225D01*
X113135598Y-143660931D01*
X113299091Y-143685882D01*
X113443389Y-143656561D01*
X113527846Y-143594416D01*
X113637581Y-143438099D01*
X113745723Y-143231015D01*
X113836718Y-143005906D01*
X113884815Y-142843000D01*
X113907805Y-142702428D01*
X113926457Y-142506443D01*
X113938463Y-142284274D01*
X113941698Y-142123333D01*
X113939651Y-141889852D01*
X113928664Y-141710324D01*
X113904502Y-141554166D01*
X113862929Y-141390794D01*
X113821835Y-141257735D01*
X113757848Y-141079294D01*
X113689837Y-140923046D01*
X113628849Y-140813248D01*
X113606894Y-140785712D01*
X113532013Y-140698744D01*
X113489365Y-140629205D01*
X113442327Y-140567344D01*
X113351553Y-140484224D01*
X113303297Y-140446665D01*
X113146154Y-140325660D01*
X113051955Y-140237292D01*
X113011634Y-140169663D01*
X113016130Y-140110872D01*
X113028908Y-140086423D01*
X113075468Y-139992673D01*
X113064910Y-139958594D01*
X113002142Y-139986226D01*
X112928360Y-140044614D01*
X112830311Y-140120954D01*
X112737162Y-140160459D01*
X112613439Y-140174716D01*
X112526193Y-140176000D01*
X112391501Y-140169539D01*
X112300248Y-140152681D01*
X112273667Y-140133666D01*
X112307409Y-140091534D01*
X112326583Y-140087113D01*
X112351326Y-140076990D01*
X112312577Y-140059796D01*
X112230698Y-140040155D01*
X112126053Y-140022693D01*
X112019004Y-140012032D01*
X111990940Y-140010886D01*
X111862372Y-139993029D01*
X111764257Y-139953808D01*
X111748785Y-139941404D01*
X111624452Y-139851314D01*
X111477195Y-139816700D01*
X111290540Y-139835963D01*
X111126575Y-139880982D01*
X110829633Y-139976461D01*
X110762230Y-139880231D01*
X110694828Y-139784000D01*
X110613286Y-139884750D01*
X110547676Y-139947462D01*
X110511269Y-139934860D01*
X110509881Y-139931692D01*
X110461941Y-139881042D01*
X110372878Y-139819248D01*
X110279135Y-139769106D01*
X110223650Y-139752666D01*
X110220130Y-139786286D01*
X110241097Y-139857001D01*
X110260634Y-139950732D01*
X110224866Y-139980975D01*
X110135127Y-139947169D01*
X110090859Y-139919868D01*
X109980977Y-139870764D01*
X109849796Y-139842947D01*
X109727372Y-139839233D01*
X109643758Y-139862434D01*
X109629674Y-139876688D01*
X109648683Y-139914576D01*
X109726346Y-139959034D01*
X109751921Y-139969044D01*
X109852123Y-140018304D01*
X109869685Y-140059092D01*
X109806607Y-140085169D01*
X109712757Y-140091333D01*
X109473334Y-140130773D01*
X109263960Y-140249331D01*
X109215083Y-140292446D01*
X109126230Y-140387095D01*
X109104725Y-140434425D01*
X109149228Y-140431460D01*
X109253638Y-140378042D01*
X109378377Y-140321582D01*
X109528320Y-140292417D01*
X109704608Y-140284220D01*
X109888083Y-140290817D01*
X109989824Y-140313899D01*
X110009382Y-140352975D01*
X109946306Y-140407554D01*
X109858794Y-140452010D01*
X109699040Y-140545203D01*
X109584199Y-140669562D01*
X109498114Y-140846039D01*
X109457215Y-140972748D01*
X109410687Y-141102269D01*
X109333310Y-141282967D01*
X109235394Y-141492034D01*
X109127253Y-141706660D01*
X109114287Y-141731310D01*
X108954356Y-142043541D01*
X108835996Y-142299800D01*
X108754112Y-142514762D01*
X108703609Y-142703099D01*
X108679392Y-142879485D01*
X108675333Y-142995433D01*
X108604271Y-142995433D01*
X108603332Y-142871016D01*
X108618941Y-142686784D01*
G36*
X111410191Y-143030053D02*
G01*
X111412762Y-143036290D01*
X111399781Y-143112469D01*
X111323236Y-143220087D01*
X111297295Y-143247956D01*
X111175207Y-143353790D01*
X111073968Y-143389613D01*
X110976222Y-143360971D01*
X110964966Y-143354141D01*
X110882752Y-143333643D01*
X110772124Y-143337824D01*
X110661494Y-143330480D01*
X110552067Y-143283673D01*
X110458072Y-143212084D01*
X110393738Y-143130395D01*
X110373294Y-143053285D01*
X110410969Y-142995436D01*
X110430922Y-142985786D01*
X110503977Y-142993609D01*
X110598248Y-143044742D01*
X110606789Y-143051263D01*
X110689156Y-143107920D01*
X110743126Y-143111440D01*
X110791283Y-143076481D01*
X110894915Y-143017464D01*
X110986738Y-143041673D01*
X111030778Y-143086416D01*
X111076299Y-143133087D01*
X111117654Y-143121130D01*
X111169230Y-143065250D01*
X111263834Y-142988443D01*
X111350786Y-142975923D01*
X111410191Y-143030053D01*
G37*
X111410191Y-143030053D02*
X111412762Y-143036290D01*
X111399781Y-143112469D01*
X111323236Y-143220087D01*
X111297295Y-143247956D01*
X111175207Y-143353790D01*
X111073968Y-143389613D01*
X110976222Y-143360971D01*
X110964966Y-143354141D01*
X110882752Y-143333643D01*
X110772124Y-143337824D01*
X110661494Y-143330480D01*
X110552067Y-143283673D01*
X110458072Y-143212084D01*
X110393738Y-143130395D01*
X110373294Y-143053285D01*
X110410969Y-142995436D01*
X110430922Y-142985786D01*
X110503977Y-142993609D01*
X110598248Y-143044742D01*
X110606789Y-143051263D01*
X110689156Y-143107920D01*
X110743126Y-143111440D01*
X110791283Y-143076481D01*
X110894915Y-143017464D01*
X110986738Y-143041673D01*
X111030778Y-143086416D01*
X111076299Y-143133087D01*
X111117654Y-143121130D01*
X111169230Y-143065250D01*
X111263834Y-142988443D01*
X111350786Y-142975923D01*
X111410191Y-143030053D01*
G36*
X110078396Y-142326888D02*
G01*
X110056078Y-142413281D01*
X110037439Y-142461569D01*
X109987379Y-142564748D01*
X109945261Y-142624757D01*
X109934182Y-142630902D01*
X109928166Y-142597084D01*
X109952489Y-142512101D01*
X109965932Y-142477996D01*
X110006718Y-142376697D01*
X110028743Y-142314824D01*
X110030000Y-142308663D01*
X110062403Y-142292908D01*
X110069189Y-142292666D01*
X110078396Y-142326888D01*
G37*
X110078396Y-142326888D02*
X110056078Y-142413281D01*
X110037439Y-142461569D01*
X109987379Y-142564748D01*
X109945261Y-142624757D01*
X109934182Y-142630902D01*
X109928166Y-142597084D01*
X109952489Y-142512101D01*
X109965932Y-142477996D01*
X110006718Y-142376697D01*
X110028743Y-142314824D01*
X110030000Y-142308663D01*
X110062403Y-142292908D01*
X110069189Y-142292666D01*
X110078396Y-142326888D01*
G36*
X110184718Y-142348606D02*
G01*
X110184194Y-142397748D01*
X110160430Y-142455591D01*
X110120701Y-142544071D01*
X110121510Y-142576408D01*
X110160630Y-142543434D01*
X110176820Y-142523007D01*
X110227215Y-142469526D01*
X110238765Y-142489955D01*
X110215971Y-142564370D01*
X110181545Y-142619456D01*
X110122016Y-142617772D01*
X110083545Y-142603506D01*
X110056282Y-142569460D01*
X110077485Y-142495087D01*
X110097250Y-142454747D01*
X110146663Y-142375281D01*
X110181719Y-142346961D01*
X110184718Y-142348606D01*
G37*
X110184718Y-142348606D02*
X110184194Y-142397748D01*
X110160430Y-142455591D01*
X110120701Y-142544071D01*
X110121510Y-142576408D01*
X110160630Y-142543434D01*
X110176820Y-142523007D01*
X110227215Y-142469526D01*
X110238765Y-142489955D01*
X110215971Y-142564370D01*
X110181545Y-142619456D01*
X110122016Y-142617772D01*
X110083545Y-142603506D01*
X110056282Y-142569460D01*
X110077485Y-142495087D01*
X110097250Y-142454747D01*
X110146663Y-142375281D01*
X110181719Y-142346961D01*
X110184718Y-142348606D01*
G36*
X109806103Y-142359411D02*
G01*
X109774920Y-142445707D01*
X109725907Y-142528724D01*
X109676338Y-142573564D01*
X109668485Y-142574888D01*
X109613148Y-142558461D01*
X109606667Y-142545320D01*
X109629277Y-142494961D01*
X109682315Y-142420110D01*
X109743593Y-142348068D01*
X109790922Y-142306138D01*
X109802184Y-142304739D01*
X109806103Y-142359411D01*
G37*
X109806103Y-142359411D02*
X109774920Y-142445707D01*
X109725907Y-142528724D01*
X109676338Y-142573564D01*
X109668485Y-142574888D01*
X109613148Y-142558461D01*
X109606667Y-142545320D01*
X109629277Y-142494961D01*
X109682315Y-142420110D01*
X109743593Y-142348068D01*
X109790922Y-142306138D01*
X109802184Y-142304739D01*
X109806103Y-142359411D01*
G36*
X109940460Y-142364131D02*
G01*
X109919238Y-142430927D01*
X109881833Y-142504333D01*
X109837740Y-142564818D01*
X109820004Y-142548283D01*
X109819833Y-142544174D01*
X109842919Y-142459854D01*
X109880487Y-142396007D01*
X109927487Y-142348003D01*
X109940460Y-142364131D01*
G37*
X109940460Y-142364131D02*
X109919238Y-142430927D01*
X109881833Y-142504333D01*
X109837740Y-142564818D01*
X109820004Y-142548283D01*
X109819833Y-142544174D01*
X109842919Y-142459854D01*
X109880487Y-142396007D01*
X109927487Y-142348003D01*
X109940460Y-142364131D01*
G36*
X111583687Y-142483571D02*
G01*
X111552766Y-142551742D01*
X111508791Y-142588783D01*
X111505648Y-142589000D01*
X111492342Y-142558324D01*
X111513607Y-142500707D01*
X111556316Y-142440000D01*
X111579593Y-142431148D01*
X111583687Y-142483571D01*
G37*
X111583687Y-142483571D02*
X111552766Y-142551742D01*
X111508791Y-142588783D01*
X111505648Y-142589000D01*
X111492342Y-142558324D01*
X111513607Y-142500707D01*
X111556316Y-142440000D01*
X111579593Y-142431148D01*
X111583687Y-142483571D01*
G36*
X111839089Y-142303597D02*
G01*
X111786863Y-142385101D01*
X111742345Y-142440833D01*
X111634778Y-142567833D01*
X111699921Y-142432934D01*
X111755200Y-142334835D01*
X111803587Y-142274611D01*
X111807699Y-142271686D01*
X111847716Y-142261438D01*
X111839089Y-142303597D01*
G37*
X111839089Y-142303597D02*
X111786863Y-142385101D01*
X111742345Y-142440833D01*
X111634778Y-142567833D01*
X111699921Y-142432934D01*
X111755200Y-142334835D01*
X111803587Y-142274611D01*
X111807699Y-142271686D01*
X111847716Y-142261438D01*
X111839089Y-142303597D01*
G36*
X111975925Y-142307156D02*
G01*
X111953015Y-142362286D01*
X111895661Y-142446618D01*
X111892667Y-142450448D01*
X111836118Y-142511181D01*
X111808531Y-142518909D01*
X111808000Y-142514732D01*
X111827836Y-142463431D01*
X111874119Y-142394163D01*
X111927006Y-142331453D01*
X111966659Y-142299826D01*
X111975925Y-142307156D01*
G37*
X111975925Y-142307156D02*
X111953015Y-142362286D01*
X111895661Y-142446618D01*
X111892667Y-142450448D01*
X111836118Y-142511181D01*
X111808531Y-142518909D01*
X111808000Y-142514732D01*
X111827836Y-142463431D01*
X111874119Y-142394163D01*
X111927006Y-142331453D01*
X111966659Y-142299826D01*
X111975925Y-142307156D01*
G36*
X112188713Y-142277558D02*
G01*
X112189000Y-142283583D01*
X112162779Y-142341019D01*
X112100962Y-142423216D01*
X112028814Y-142500823D01*
X111971603Y-142544491D01*
X111962519Y-142546666D01*
X111962228Y-142517002D01*
X112003260Y-142443463D01*
X112018755Y-142420946D01*
X112103979Y-142313600D01*
X112163564Y-142263438D01*
X112188713Y-142277558D01*
G37*
X112188713Y-142277558D02*
X112189000Y-142283583D01*
X112162779Y-142341019D01*
X112100962Y-142423216D01*
X112028814Y-142500823D01*
X111971603Y-142544491D01*
X111962519Y-142546666D01*
X111962228Y-142517002D01*
X112003260Y-142443463D01*
X112018755Y-142420946D01*
X112103979Y-142313600D01*
X112163564Y-142263438D01*
X112188713Y-142277558D01*
G36*
X112308084Y-142291786D02*
G01*
X112295984Y-142352981D01*
X112248873Y-142438976D01*
X112189429Y-142515087D01*
X112141409Y-142546666D01*
X112138357Y-142515893D01*
X112175492Y-142438526D01*
X112199194Y-142400201D01*
X112260326Y-142318783D01*
X112301152Y-142286955D01*
X112308084Y-142291786D01*
G37*
X112308084Y-142291786D02*
X112295984Y-142352981D01*
X112248873Y-142438976D01*
X112189429Y-142515087D01*
X112141409Y-142546666D01*
X112138357Y-142515893D01*
X112175492Y-142438526D01*
X112199194Y-142400201D01*
X112260326Y-142318783D01*
X112301152Y-142286955D01*
X112308084Y-142291786D01*
G36*
X110749082Y-142411022D02*
G01*
X110764975Y-142440833D01*
X110758471Y-142495447D01*
X110727171Y-142504333D01*
X110672206Y-142470417D01*
X110665000Y-142440833D01*
X110685453Y-142384462D01*
X110702804Y-142377333D01*
X110749082Y-142411022D01*
G37*
X110749082Y-142411022D02*
X110764975Y-142440833D01*
X110758471Y-142495447D01*
X110727171Y-142504333D01*
X110672206Y-142470417D01*
X110665000Y-142440833D01*
X110685453Y-142384462D01*
X110702804Y-142377333D01*
X110749082Y-142411022D01*
G36*
X111120834Y-142393055D02*
G01*
X111121451Y-142426207D01*
X111068020Y-142482406D01*
X111027033Y-142497792D01*
X110971166Y-142488610D01*
X110970549Y-142455459D01*
X111023980Y-142399259D01*
X111064967Y-142383873D01*
X111120834Y-142393055D01*
G37*
X111120834Y-142393055D02*
X111121451Y-142426207D01*
X111068020Y-142482406D01*
X111027033Y-142497792D01*
X110971166Y-142488610D01*
X110970549Y-142455459D01*
X111023980Y-142399259D01*
X111064967Y-142383873D01*
X111120834Y-142393055D01*
G36*
X110773928Y-141389545D02*
G01*
X110830829Y-141450387D01*
X110834669Y-141556557D01*
X110789952Y-141691298D01*
X110701184Y-141837851D01*
X110630740Y-141922250D01*
X110503155Y-142017300D01*
X110372323Y-142028219D01*
X110232022Y-141955487D01*
X110229273Y-141953338D01*
X110125730Y-141835506D01*
X110063406Y-141692069D01*
X110052368Y-141553055D01*
X110072981Y-141487122D01*
X110135732Y-141423002D01*
X110184875Y-141421549D01*
X110250812Y-141443203D01*
X110266296Y-141446000D01*
X110278853Y-141482796D01*
X110284000Y-141569976D01*
X110305519Y-141685355D01*
X110358743Y-141769215D01*
X110426674Y-141802387D01*
X110474430Y-141784724D01*
X110527068Y-141715598D01*
X110580287Y-141609771D01*
X110582874Y-141603346D01*
X110647009Y-141463218D01*
X110703755Y-141394561D01*
X110763263Y-141386013D01*
X110773928Y-141389545D01*
G37*
X110773928Y-141389545D02*
X110830829Y-141450387D01*
X110834669Y-141556557D01*
X110789952Y-141691298D01*
X110701184Y-141837851D01*
X110630740Y-141922250D01*
X110503155Y-142017300D01*
X110372323Y-142028219D01*
X110232022Y-141955487D01*
X110229273Y-141953338D01*
X110125730Y-141835506D01*
X110063406Y-141692069D01*
X110052368Y-141553055D01*
X110072981Y-141487122D01*
X110135732Y-141423002D01*
X110184875Y-141421549D01*
X110250812Y-141443203D01*
X110266296Y-141446000D01*
X110278853Y-141482796D01*
X110284000Y-141569976D01*
X110305519Y-141685355D01*
X110358743Y-141769215D01*
X110426674Y-141802387D01*
X110474430Y-141784724D01*
X110527068Y-141715598D01*
X110580287Y-141609771D01*
X110582874Y-141603346D01*
X110647009Y-141463218D01*
X110703755Y-141394561D01*
X110763263Y-141386013D01*
X110773928Y-141389545D01*
G36*
X111951615Y-141420933D02*
G01*
X111974513Y-141487235D01*
X111977333Y-141556813D01*
X111962277Y-141668657D01*
X111906534Y-141770456D01*
X111812980Y-141874313D01*
X111659202Y-141996461D01*
X111523916Y-142036361D01*
X111406219Y-141994183D01*
X111366473Y-141957285D01*
X111310535Y-141855968D01*
X111276137Y-141719852D01*
X111269052Y-141585933D01*
X111293990Y-141492747D01*
X111356349Y-141451026D01*
X111420596Y-141475677D01*
X111463635Y-141552176D01*
X111469981Y-141603421D01*
X111481823Y-141709781D01*
X111503827Y-141773431D01*
X111557469Y-141798041D01*
X111630098Y-141760906D01*
X111704333Y-141676743D01*
X111762796Y-141560264D01*
X111765710Y-141551702D01*
X111823752Y-141438468D01*
X111895950Y-141403666D01*
X111951615Y-141420933D01*
G37*
X111951615Y-141420933D02*
X111974513Y-141487235D01*
X111977333Y-141556813D01*
X111962277Y-141668657D01*
X111906534Y-141770456D01*
X111812980Y-141874313D01*
X111659202Y-141996461D01*
X111523916Y-142036361D01*
X111406219Y-141994183D01*
X111366473Y-141957285D01*
X111310535Y-141855968D01*
X111276137Y-141719852D01*
X111269052Y-141585933D01*
X111293990Y-141492747D01*
X111356349Y-141451026D01*
X111420596Y-141475677D01*
X111463635Y-141552176D01*
X111469981Y-141603421D01*
X111481823Y-141709781D01*
X111503827Y-141773431D01*
X111557469Y-141798041D01*
X111630098Y-141760906D01*
X111704333Y-141676743D01*
X111762796Y-141560264D01*
X111765710Y-141551702D01*
X111823752Y-141438468D01*
X111895950Y-141403666D01*
X111951615Y-141420933D01*
G36*
X111450421Y-140827314D02*
G01*
X111596091Y-140900058D01*
X111621527Y-140916833D01*
X111803783Y-141002607D01*
X111937445Y-141022666D01*
X112102759Y-141034203D01*
X112196950Y-141072029D01*
X112230795Y-141140967D01*
X112231333Y-141154195D01*
X112221140Y-141198365D01*
X112178057Y-141222647D01*
X112083329Y-141232709D01*
X111966185Y-141234333D01*
X111802885Y-141227830D01*
X111681342Y-141199709D01*
X111559270Y-141137045D01*
X111480750Y-141085983D01*
X111344608Y-140982338D01*
X111285353Y-140905904D01*
X111284761Y-140874317D01*
X111344325Y-140818441D01*
X111450421Y-140827314D01*
G37*
X111450421Y-140827314D02*
X111596091Y-140900058D01*
X111621527Y-140916833D01*
X111803783Y-141002607D01*
X111937445Y-141022666D01*
X112102759Y-141034203D01*
X112196950Y-141072029D01*
X112230795Y-141140967D01*
X112231333Y-141154195D01*
X112221140Y-141198365D01*
X112178057Y-141222647D01*
X112083329Y-141232709D01*
X111966185Y-141234333D01*
X111802885Y-141227830D01*
X111681342Y-141199709D01*
X111559270Y-141137045D01*
X111480750Y-141085983D01*
X111344608Y-140982338D01*
X111285353Y-140905904D01*
X111284761Y-140874317D01*
X111344325Y-140818441D01*
X111450421Y-140827314D01*
G36*
X111013631Y-140719670D02*
G01*
X111017271Y-140723004D01*
X111042887Y-140789416D01*
X111019772Y-140843915D01*
X110952409Y-140900711D01*
X110829168Y-140963017D01*
X110671199Y-141024381D01*
X110499651Y-141078354D01*
X110335672Y-141118484D01*
X110200412Y-141138322D01*
X110115021Y-141131418D01*
X110102719Y-141123607D01*
X110076146Y-141058871D01*
X110072333Y-141019332D01*
X110099053Y-140964742D01*
X110189026Y-140928529D01*
X110252250Y-140916276D01*
X110389341Y-140884414D01*
X110562044Y-140831406D01*
X110700722Y-140781061D01*
X110859570Y-140724183D01*
X110958866Y-140704637D01*
X111013631Y-140719670D01*
G37*
X111013631Y-140719670D02*
X111017271Y-140723004D01*
X111042887Y-140789416D01*
X111019772Y-140843915D01*
X110952409Y-140900711D01*
X110829168Y-140963017D01*
X110671199Y-141024381D01*
X110499651Y-141078354D01*
X110335672Y-141118484D01*
X110200412Y-141138322D01*
X110115021Y-141131418D01*
X110102719Y-141123607D01*
X110076146Y-141058871D01*
X110072333Y-141019332D01*
X110099053Y-140964742D01*
X110189026Y-140928529D01*
X110252250Y-140916276D01*
X110389341Y-140884414D01*
X110562044Y-140831406D01*
X110700722Y-140781061D01*
X110859570Y-140724183D01*
X110958866Y-140704637D01*
X111013631Y-140719670D01*
G36*
X93780800Y-124512800D02*
G01*
X93374400Y-124512800D01*
X93374400Y-124106400D01*
X93780800Y-124106400D01*
X93780800Y-124512800D01*
G37*
X93780800Y-124512800D02*
X93374400Y-124512800D01*
X93374400Y-124106400D01*
X93780800Y-124106400D01*
X93780800Y-124512800D01*
G36*
X94593600Y-124512800D02*
G01*
X94187200Y-124512800D01*
X94187200Y-124106400D01*
X94593600Y-124106400D01*
X94593600Y-124512800D01*
G37*
X94593600Y-124512800D02*
X94187200Y-124512800D01*
X94187200Y-124106400D01*
X94593600Y-124106400D01*
X94593600Y-124512800D01*
G36*
X95406400Y-124512800D02*
G01*
X95000000Y-124512800D01*
X95000000Y-124106400D01*
X95406400Y-124106400D01*
X95406400Y-124512800D01*
G37*
X95406400Y-124512800D02*
X95000000Y-124512800D01*
X95000000Y-124106400D01*
X95406400Y-124106400D01*
X95406400Y-124512800D01*
G36*
X96219200Y-124512800D02*
G01*
X95812800Y-124512800D01*
X95812800Y-124106400D01*
X96219200Y-124106400D01*
X96219200Y-124512800D01*
G37*
X96219200Y-124512800D02*
X95812800Y-124512800D01*
X95812800Y-124106400D01*
X96219200Y-124106400D01*
X96219200Y-124512800D01*
G36*
X94187200Y-124919200D02*
G01*
X93780800Y-124919200D01*
X93780800Y-124512800D01*
X94187200Y-124512800D01*
X94187200Y-124919200D01*
G37*
X94187200Y-124919200D02*
X93780800Y-124919200D01*
X93780800Y-124512800D01*
X94187200Y-124512800D01*
X94187200Y-124919200D01*
G36*
X94187200Y-124106400D02*
G01*
X93780800Y-124106400D01*
X93780800Y-123700000D01*
X94187200Y-123700000D01*
X94187200Y-124106400D01*
G37*
X94187200Y-124106400D02*
X93780800Y-124106400D01*
X93780800Y-123700000D01*
X94187200Y-123700000D01*
X94187200Y-124106400D01*
G36*
X95000000Y-124919200D02*
G01*
X94593600Y-124919200D01*
X94593600Y-124512800D01*
X95000000Y-124512800D01*
X95000000Y-124919200D01*
G37*
X95000000Y-124919200D02*
X94593600Y-124919200D01*
X94593600Y-124512800D01*
X95000000Y-124512800D01*
X95000000Y-124919200D01*
G36*
X95000000Y-124106400D02*
G01*
X94593600Y-124106400D01*
X94593600Y-123700000D01*
X95000000Y-123700000D01*
X95000000Y-124106400D01*
G37*
X95000000Y-124106400D02*
X94593600Y-124106400D01*
X94593600Y-123700000D01*
X95000000Y-123700000D01*
X95000000Y-124106400D01*
G36*
X95812800Y-124919200D02*
G01*
X95406400Y-124919200D01*
X95406400Y-124512800D01*
X95812800Y-124512800D01*
X95812800Y-124919200D01*
G37*
X95812800Y-124919200D02*
X95406400Y-124919200D01*
X95406400Y-124512800D01*
X95812800Y-124512800D01*
X95812800Y-124919200D01*
G36*
X95812800Y-124106400D02*
G01*
X95406400Y-124106400D01*
X95406400Y-123700000D01*
X95812800Y-123700000D01*
X95812800Y-124106400D01*
G37*
X95812800Y-124106400D02*
X95406400Y-124106400D01*
X95406400Y-123700000D01*
X95812800Y-123700000D01*
X95812800Y-124106400D01*
G36*
X96625600Y-124919200D02*
G01*
X96219200Y-124919200D01*
X96219200Y-124512800D01*
X96625600Y-124512800D01*
X96625600Y-124919200D01*
G37*
X96625600Y-124919200D02*
X96219200Y-124919200D01*
X96219200Y-124512800D01*
X96625600Y-124512800D01*
X96625600Y-124919200D01*
G36*
X96625600Y-124106400D02*
G01*
X96219200Y-124106400D01*
X96219200Y-123700000D01*
X96625600Y-123700000D01*
X96625600Y-124106400D01*
G37*
X96625600Y-124106400D02*
X96219200Y-124106400D01*
X96219200Y-123700000D01*
X96625600Y-123700000D01*
X96625600Y-124106400D01*
G36*
X97032000Y-124512800D02*
G01*
X96625600Y-124512800D01*
X96625600Y-124106400D01*
X97032000Y-124106400D01*
X97032000Y-124512800D01*
G37*
X97032000Y-124512800D02*
X96625600Y-124512800D01*
X96625600Y-124106400D01*
X97032000Y-124106400D01*
X97032000Y-124512800D01*
G36*
X97438400Y-124919200D02*
G01*
X97032000Y-124919200D01*
X97032000Y-124512800D01*
X97438400Y-124512800D01*
X97438400Y-124919200D01*
G37*
X97438400Y-124919200D02*
X97032000Y-124919200D01*
X97032000Y-124512800D01*
X97438400Y-124512800D01*
X97438400Y-124919200D01*
G36*
X93374400Y-124106400D02*
G01*
X92968000Y-124106400D01*
X92968000Y-123700000D01*
X93374400Y-123700000D01*
X93374400Y-124106400D01*
G37*
X93374400Y-124106400D02*
X92968000Y-124106400D01*
X92968000Y-123700000D01*
X93374400Y-123700000D01*
X93374400Y-124106400D01*
G36*
X97438400Y-124106400D02*
G01*
X97032000Y-124106400D01*
X97032000Y-123293600D01*
X97438400Y-123293600D01*
X97438400Y-124106400D01*
G37*
X97438400Y-124106400D02*
X97032000Y-124106400D01*
X97032000Y-123293600D01*
X97438400Y-123293600D01*
X97438400Y-124106400D01*
G36*
X97844800Y-124512800D02*
G01*
X97438400Y-124512800D01*
X97438400Y-124106400D01*
X97844800Y-124106400D01*
X97844800Y-124512800D01*
G37*
X97844800Y-124512800D02*
X97438400Y-124512800D01*
X97438400Y-124106400D01*
X97844800Y-124106400D01*
X97844800Y-124512800D01*
G36*
X97844800Y-122074400D02*
G01*
X93780800Y-122074400D01*
X93780800Y-122480800D01*
X93374400Y-122480800D01*
X93374400Y-122887200D01*
X92968000Y-122887200D01*
X92968000Y-123293600D01*
X92561600Y-123293600D01*
X92561600Y-124106400D01*
X92968000Y-124106400D01*
X92968000Y-124512800D01*
X93374400Y-124512800D01*
X93374400Y-124919200D01*
X93780800Y-124919200D01*
X93780800Y-125325600D01*
X94187200Y-125325600D01*
X94187200Y-124919200D01*
X94593600Y-124919200D01*
X94593600Y-125325600D01*
X95000000Y-125325600D01*
X95000000Y-124919200D01*
X95406400Y-124919200D01*
X95406400Y-125325600D01*
X95812800Y-125325600D01*
X95812800Y-124919200D01*
X96219200Y-124919200D01*
X96219200Y-125325600D01*
X96625600Y-125325600D01*
X96625600Y-124919200D01*
X97032000Y-124919200D01*
X97032000Y-125325600D01*
X97438400Y-125325600D01*
X97438400Y-124919200D01*
X97844800Y-124919200D01*
X97844800Y-124512800D01*
X98251200Y-124512800D01*
X98251200Y-125325600D01*
X97844800Y-125325600D01*
X97844800Y-125732000D01*
X93374400Y-125732000D01*
X93374400Y-125325600D01*
X92968000Y-125325600D01*
X92968000Y-124919200D01*
X92561600Y-124919200D01*
X92561600Y-124512800D01*
X92155200Y-124512800D01*
X92155200Y-124106400D01*
X91748800Y-124106400D01*
X91748800Y-123293600D01*
X92155200Y-123293600D01*
X92155200Y-122887200D01*
X92561600Y-122887200D01*
X92561600Y-122480800D01*
X92968000Y-122480800D01*
X92968000Y-122074400D01*
X93374400Y-122074400D01*
X93374400Y-121668000D01*
X97844800Y-121668000D01*
X97844800Y-122074400D01*
G37*
X97844800Y-122074400D02*
X93780800Y-122074400D01*
X93780800Y-122480800D01*
X93374400Y-122480800D01*
X93374400Y-122887200D01*
X92968000Y-122887200D01*
X92968000Y-123293600D01*
X92561600Y-123293600D01*
X92561600Y-124106400D01*
X92968000Y-124106400D01*
X92968000Y-124512800D01*
X93374400Y-124512800D01*
X93374400Y-124919200D01*
X93780800Y-124919200D01*
X93780800Y-125325600D01*
X94187200Y-125325600D01*
X94187200Y-124919200D01*
X94593600Y-124919200D01*
X94593600Y-125325600D01*
X95000000Y-125325600D01*
X95000000Y-124919200D01*
X95406400Y-124919200D01*
X95406400Y-125325600D01*
X95812800Y-125325600D01*
X95812800Y-124919200D01*
X96219200Y-124919200D01*
X96219200Y-125325600D01*
X96625600Y-125325600D01*
X96625600Y-124919200D01*
X97032000Y-124919200D01*
X97032000Y-125325600D01*
X97438400Y-125325600D01*
X97438400Y-124919200D01*
X97844800Y-124919200D01*
X97844800Y-124512800D01*
X98251200Y-124512800D01*
X98251200Y-125325600D01*
X97844800Y-125325600D01*
X97844800Y-125732000D01*
X93374400Y-125732000D01*
X93374400Y-125325600D01*
X92968000Y-125325600D01*
X92968000Y-124919200D01*
X92561600Y-124919200D01*
X92561600Y-124512800D01*
X92155200Y-124512800D01*
X92155200Y-124106400D01*
X91748800Y-124106400D01*
X91748800Y-123293600D01*
X92155200Y-123293600D01*
X92155200Y-122887200D01*
X92561600Y-122887200D01*
X92561600Y-122480800D01*
X92968000Y-122480800D01*
X92968000Y-122074400D01*
X93374400Y-122074400D01*
X93374400Y-121668000D01*
X97844800Y-121668000D01*
X97844800Y-122074400D01*
G36*
X98251200Y-122887200D02*
G01*
X97844800Y-122887200D01*
X97844800Y-122074400D01*
X98251200Y-122074400D01*
X98251200Y-122887200D01*
G37*
X98251200Y-122887200D02*
X97844800Y-122887200D01*
X97844800Y-122074400D01*
X98251200Y-122074400D01*
X98251200Y-122887200D01*
G36*
X97844800Y-123293600D02*
G01*
X97438400Y-123293600D01*
X97438400Y-122887200D01*
X97844800Y-122887200D01*
X97844800Y-123293600D01*
G37*
X97844800Y-123293600D02*
X97438400Y-123293600D01*
X97438400Y-122887200D01*
X97844800Y-122887200D01*
X97844800Y-123293600D01*
D13*
X127873000Y-100173000D02*
X123127000Y-100173000D01*
X123127000Y-91427000D01*
X127873000Y-91427000D01*
X127873000Y-100173000D01*
X127873000Y-100173000D02*
X127873000Y-91427000D01*
G36*
X127873000Y-100173000D02*
G01*
X123127000Y-100173000D01*
X123127000Y-91427000D01*
X127873000Y-91427000D01*
X127873000Y-100173000D01*
G37*
X116173000Y-134573000D02*
X107427000Y-134573000D01*
X107427000Y-129827000D01*
X116173000Y-129827000D01*
X116173000Y-134573000D01*
X116173000Y-134573000D02*
X116173000Y-129827000D01*
G36*
X116173000Y-134573000D02*
G01*
X107427000Y-134573000D01*
X107427000Y-129827000D01*
X116173000Y-129827000D01*
X116173000Y-134573000D01*
G37*
M02*
