G04 #@! TF.GenerationSoftware,KiCad,Pcbnew,(6.0.5)*
G04 #@! TF.CreationDate,2022-11-22T13:16:36+13:00*
G04 #@! TF.ProjectId,RGB-to-component-covers,5247422d-746f-42d6-936f-6d706f6e656e,rev?*
G04 #@! TF.SameCoordinates,Original*
G04 #@! TF.FileFunction,Soldermask,Bot*
G04 #@! TF.FilePolarity,Negative*
%FSLAX46Y46*%
G04 Gerber Fmt 4.6, Leading zero omitted, Abs format (unit mm)*
G04 Created by KiCad (PCBNEW (6.0.5)) date 2022-11-22 13:16:36*
%MOMM*%
%LPD*%
G01*
G04 APERTURE LIST*
%ADD10C,4.802000*%
%ADD11C,0.254000*%
G04 APERTURE END LIST*
D10*
X108800000Y-109000000D03*
X132150000Y-41000000D03*
X132200000Y-109000000D03*
X108800000Y-41000000D03*
X108800000Y-185300000D03*
X132150000Y-117300000D03*
X132200000Y-185300000D03*
X108800000Y-117300000D03*
X78800000Y-41000000D03*
X102200000Y-109000000D03*
X102150000Y-41000000D03*
X78800000Y-109000000D03*
X102200000Y-185300000D03*
X78800000Y-117300000D03*
X78800000Y-185300000D03*
X102150000Y-117300000D03*
D11*
X96073000Y-128623762D02*
X88027000Y-128672232D01*
X88027000Y-119026238D01*
X96073000Y-118977768D01*
X96073000Y-128623762D01*
X96073000Y-128623762D02*
X96073000Y-118977768D01*
G36*
X96073000Y-128623762D02*
G01*
X88027000Y-128672232D01*
X88027000Y-119026238D01*
X96073000Y-118977768D01*
X96073000Y-128623762D01*
G37*
X95573000Y-52373000D02*
X88027000Y-52373000D01*
X88027000Y-42727000D01*
X95573000Y-42727000D01*
X95573000Y-52373000D01*
X95573000Y-52373000D02*
X95573000Y-42727000D01*
G36*
X95573000Y-52373000D02*
G01*
X88027000Y-52373000D01*
X88027000Y-42727000D01*
X95573000Y-42727000D01*
X95573000Y-52373000D01*
G37*
G36*
X96182550Y-118843186D02*
G01*
X96199610Y-118848084D01*
X96200176Y-118848670D01*
X96201000Y-118848670D01*
X96201504Y-118849083D01*
X96204284Y-118852253D01*
X96204733Y-118853141D01*
X96206953Y-118863199D01*
X96207000Y-118863630D01*
X96207000Y-128732027D01*
X96206919Y-128732590D01*
X96201919Y-128749620D01*
X96201325Y-128750187D01*
X96201330Y-128750992D01*
X96200902Y-128751514D01*
X96197417Y-128754533D01*
X96196538Y-128754974D01*
X96187212Y-128757033D01*
X96186793Y-128757080D01*
X87918014Y-128806892D01*
X87917450Y-128806814D01*
X87900390Y-128801916D01*
X87899824Y-128801330D01*
X87899000Y-128801330D01*
X87898496Y-128800917D01*
X87895927Y-128797988D01*
X87902000Y-128797988D01*
X96198000Y-128748012D01*
X96198000Y-118852012D01*
X87902000Y-118901988D01*
X87902000Y-128797988D01*
X87895927Y-128797988D01*
X87895716Y-128797747D01*
X87895267Y-128796859D01*
X87893047Y-128786801D01*
X87893000Y-128786370D01*
X87893000Y-118917973D01*
X87893081Y-118917410D01*
X87898081Y-118900380D01*
X87898675Y-118899813D01*
X87898670Y-118899008D01*
X87899098Y-118898486D01*
X87902583Y-118895467D01*
X87903462Y-118895026D01*
X87912788Y-118892967D01*
X87913207Y-118892920D01*
X96181986Y-118843108D01*
X96182550Y-118843186D01*
G37*
G36*
X95682590Y-42593081D02*
G01*
X95699620Y-42598081D01*
X95700185Y-42598673D01*
X95701000Y-42598673D01*
X95701512Y-42599095D01*
X95704403Y-42602432D01*
X95704845Y-42603317D01*
X95706954Y-42613013D01*
X95707000Y-42613438D01*
X95707000Y-52482027D01*
X95706919Y-52482590D01*
X95701919Y-52499620D01*
X95701327Y-52500185D01*
X95701327Y-52501000D01*
X95700905Y-52501512D01*
X95697568Y-52504403D01*
X95696683Y-52504845D01*
X95686987Y-52506954D01*
X95686562Y-52507000D01*
X87917973Y-52507000D01*
X87917410Y-52506919D01*
X87900380Y-52501919D01*
X87899815Y-52501327D01*
X87899000Y-52501327D01*
X87898488Y-52500905D01*
X87895971Y-52498000D01*
X87902000Y-52498000D01*
X95698000Y-52498000D01*
X95698000Y-42602000D01*
X87902000Y-42602000D01*
X87902000Y-52498000D01*
X87895971Y-52498000D01*
X87895597Y-52497568D01*
X87895155Y-52496683D01*
X87893046Y-52486987D01*
X87893000Y-52486562D01*
X87893000Y-42617973D01*
X87893081Y-42617410D01*
X87898081Y-42600380D01*
X87898673Y-42599815D01*
X87898673Y-42599000D01*
X87899095Y-42598488D01*
X87902432Y-42595597D01*
X87903317Y-42595155D01*
X87913013Y-42593046D01*
X87913438Y-42593000D01*
X95682027Y-42593000D01*
X95682590Y-42593081D01*
G37*
M02*
