%TF.GenerationSoftware,KiCad,Pcbnew,(5.1.5)-2*%
%TF.CreationDate,2020-03-16T23:46:07+13:00*%
%TF.ProjectId,RGB-to-component,5247422d-746f-42d6-936f-6d706f6e656e,rev?*%
%TF.SameCoordinates,Original*%
%TF.FileFunction,Paste,Top*%
%TF.FilePolarity,Positive*%
%FSLAX46Y46*%
G04 Gerber Fmt 4.6, Leading zero omitted, Abs format (unit mm)*
G04 Created by KiCad (PCBNEW (5.1.5)-2) date 2020-03-16 23:46:07*
%MOMM*%
%LPD*%
G04 APERTURE LIST*
%ADD10R,1.400000X0.300000*%
%ADD11C,0.100000*%
%ADD12R,0.450000X1.450000*%
%ADD13R,0.650000X1.060000*%
%ADD14R,0.800000X0.900000*%
%ADD15R,1.220000X0.650000*%
G04 APERTURE END LIST*
D10*
X47100000Y-87000000D03*
X47100000Y-87500000D03*
X47100000Y-88000000D03*
X47100000Y-88500000D03*
X47100000Y-89000000D03*
X42700000Y-89000000D03*
X42700000Y-88500000D03*
X42700000Y-88000000D03*
X42700000Y-87500000D03*
X42700000Y-87000000D03*
D11*
G36*
X58424505Y-54201204D02*
G01*
X58448773Y-54204804D01*
X58472572Y-54210765D01*
X58495671Y-54219030D01*
X58517850Y-54229520D01*
X58538893Y-54242132D01*
X58558599Y-54256747D01*
X58576777Y-54273223D01*
X58593253Y-54291401D01*
X58607868Y-54311107D01*
X58620480Y-54332150D01*
X58630970Y-54354329D01*
X58639235Y-54377428D01*
X58645196Y-54401227D01*
X58648796Y-54425495D01*
X58650000Y-54449999D01*
X58650000Y-55100001D01*
X58648796Y-55124505D01*
X58645196Y-55148773D01*
X58639235Y-55172572D01*
X58630970Y-55195671D01*
X58620480Y-55217850D01*
X58607868Y-55238893D01*
X58593253Y-55258599D01*
X58576777Y-55276777D01*
X58558599Y-55293253D01*
X58538893Y-55307868D01*
X58517850Y-55320480D01*
X58495671Y-55330970D01*
X58472572Y-55339235D01*
X58448773Y-55345196D01*
X58424505Y-55348796D01*
X58400001Y-55350000D01*
X57499999Y-55350000D01*
X57475495Y-55348796D01*
X57451227Y-55345196D01*
X57427428Y-55339235D01*
X57404329Y-55330970D01*
X57382150Y-55320480D01*
X57361107Y-55307868D01*
X57341401Y-55293253D01*
X57323223Y-55276777D01*
X57306747Y-55258599D01*
X57292132Y-55238893D01*
X57279520Y-55217850D01*
X57269030Y-55195671D01*
X57260765Y-55172572D01*
X57254804Y-55148773D01*
X57251204Y-55124505D01*
X57250000Y-55100001D01*
X57250000Y-54449999D01*
X57251204Y-54425495D01*
X57254804Y-54401227D01*
X57260765Y-54377428D01*
X57269030Y-54354329D01*
X57279520Y-54332150D01*
X57292132Y-54311107D01*
X57306747Y-54291401D01*
X57323223Y-54273223D01*
X57341401Y-54256747D01*
X57361107Y-54242132D01*
X57382150Y-54229520D01*
X57404329Y-54219030D01*
X57427428Y-54210765D01*
X57451227Y-54204804D01*
X57475495Y-54201204D01*
X57499999Y-54200000D01*
X58400001Y-54200000D01*
X58424505Y-54201204D01*
G37*
G36*
X58424505Y-52151204D02*
G01*
X58448773Y-52154804D01*
X58472572Y-52160765D01*
X58495671Y-52169030D01*
X58517850Y-52179520D01*
X58538893Y-52192132D01*
X58558599Y-52206747D01*
X58576777Y-52223223D01*
X58593253Y-52241401D01*
X58607868Y-52261107D01*
X58620480Y-52282150D01*
X58630970Y-52304329D01*
X58639235Y-52327428D01*
X58645196Y-52351227D01*
X58648796Y-52375495D01*
X58650000Y-52399999D01*
X58650000Y-53050001D01*
X58648796Y-53074505D01*
X58645196Y-53098773D01*
X58639235Y-53122572D01*
X58630970Y-53145671D01*
X58620480Y-53167850D01*
X58607868Y-53188893D01*
X58593253Y-53208599D01*
X58576777Y-53226777D01*
X58558599Y-53243253D01*
X58538893Y-53257868D01*
X58517850Y-53270480D01*
X58495671Y-53280970D01*
X58472572Y-53289235D01*
X58448773Y-53295196D01*
X58424505Y-53298796D01*
X58400001Y-53300000D01*
X57499999Y-53300000D01*
X57475495Y-53298796D01*
X57451227Y-53295196D01*
X57427428Y-53289235D01*
X57404329Y-53280970D01*
X57382150Y-53270480D01*
X57361107Y-53257868D01*
X57341401Y-53243253D01*
X57323223Y-53226777D01*
X57306747Y-53208599D01*
X57292132Y-53188893D01*
X57279520Y-53167850D01*
X57269030Y-53145671D01*
X57260765Y-53122572D01*
X57254804Y-53098773D01*
X57251204Y-53074505D01*
X57250000Y-53050001D01*
X57250000Y-52399999D01*
X57251204Y-52375495D01*
X57254804Y-52351227D01*
X57260765Y-52327428D01*
X57269030Y-52304329D01*
X57279520Y-52282150D01*
X57292132Y-52261107D01*
X57306747Y-52241401D01*
X57323223Y-52223223D01*
X57341401Y-52206747D01*
X57361107Y-52192132D01*
X57382150Y-52179520D01*
X57404329Y-52169030D01*
X57427428Y-52160765D01*
X57451227Y-52154804D01*
X57475495Y-52151204D01*
X57499999Y-52150000D01*
X58400001Y-52150000D01*
X58424505Y-52151204D01*
G37*
G36*
X58174505Y-67151204D02*
G01*
X58198773Y-67154804D01*
X58222572Y-67160765D01*
X58245671Y-67169030D01*
X58267850Y-67179520D01*
X58288893Y-67192132D01*
X58308599Y-67206747D01*
X58326777Y-67223223D01*
X58343253Y-67241401D01*
X58357868Y-67261107D01*
X58370480Y-67282150D01*
X58380970Y-67304329D01*
X58389235Y-67327428D01*
X58395196Y-67351227D01*
X58398796Y-67375495D01*
X58400000Y-67399999D01*
X58400000Y-68050001D01*
X58398796Y-68074505D01*
X58395196Y-68098773D01*
X58389235Y-68122572D01*
X58380970Y-68145671D01*
X58370480Y-68167850D01*
X58357868Y-68188893D01*
X58343253Y-68208599D01*
X58326777Y-68226777D01*
X58308599Y-68243253D01*
X58288893Y-68257868D01*
X58267850Y-68270480D01*
X58245671Y-68280970D01*
X58222572Y-68289235D01*
X58198773Y-68295196D01*
X58174505Y-68298796D01*
X58150001Y-68300000D01*
X57249999Y-68300000D01*
X57225495Y-68298796D01*
X57201227Y-68295196D01*
X57177428Y-68289235D01*
X57154329Y-68280970D01*
X57132150Y-68270480D01*
X57111107Y-68257868D01*
X57091401Y-68243253D01*
X57073223Y-68226777D01*
X57056747Y-68208599D01*
X57042132Y-68188893D01*
X57029520Y-68167850D01*
X57019030Y-68145671D01*
X57010765Y-68122572D01*
X57004804Y-68098773D01*
X57001204Y-68074505D01*
X57000000Y-68050001D01*
X57000000Y-67399999D01*
X57001204Y-67375495D01*
X57004804Y-67351227D01*
X57010765Y-67327428D01*
X57019030Y-67304329D01*
X57029520Y-67282150D01*
X57042132Y-67261107D01*
X57056747Y-67241401D01*
X57073223Y-67223223D01*
X57091401Y-67206747D01*
X57111107Y-67192132D01*
X57132150Y-67179520D01*
X57154329Y-67169030D01*
X57177428Y-67160765D01*
X57201227Y-67154804D01*
X57225495Y-67151204D01*
X57249999Y-67150000D01*
X58150001Y-67150000D01*
X58174505Y-67151204D01*
G37*
G36*
X58174505Y-65101204D02*
G01*
X58198773Y-65104804D01*
X58222572Y-65110765D01*
X58245671Y-65119030D01*
X58267850Y-65129520D01*
X58288893Y-65142132D01*
X58308599Y-65156747D01*
X58326777Y-65173223D01*
X58343253Y-65191401D01*
X58357868Y-65211107D01*
X58370480Y-65232150D01*
X58380970Y-65254329D01*
X58389235Y-65277428D01*
X58395196Y-65301227D01*
X58398796Y-65325495D01*
X58400000Y-65349999D01*
X58400000Y-66000001D01*
X58398796Y-66024505D01*
X58395196Y-66048773D01*
X58389235Y-66072572D01*
X58380970Y-66095671D01*
X58370480Y-66117850D01*
X58357868Y-66138893D01*
X58343253Y-66158599D01*
X58326777Y-66176777D01*
X58308599Y-66193253D01*
X58288893Y-66207868D01*
X58267850Y-66220480D01*
X58245671Y-66230970D01*
X58222572Y-66239235D01*
X58198773Y-66245196D01*
X58174505Y-66248796D01*
X58150001Y-66250000D01*
X57249999Y-66250000D01*
X57225495Y-66248796D01*
X57201227Y-66245196D01*
X57177428Y-66239235D01*
X57154329Y-66230970D01*
X57132150Y-66220480D01*
X57111107Y-66207868D01*
X57091401Y-66193253D01*
X57073223Y-66176777D01*
X57056747Y-66158599D01*
X57042132Y-66138893D01*
X57029520Y-66117850D01*
X57019030Y-66095671D01*
X57010765Y-66072572D01*
X57004804Y-66048773D01*
X57001204Y-66024505D01*
X57000000Y-66000001D01*
X57000000Y-65349999D01*
X57001204Y-65325495D01*
X57004804Y-65301227D01*
X57010765Y-65277428D01*
X57019030Y-65254329D01*
X57029520Y-65232150D01*
X57042132Y-65211107D01*
X57056747Y-65191401D01*
X57073223Y-65173223D01*
X57091401Y-65156747D01*
X57111107Y-65142132D01*
X57132150Y-65129520D01*
X57154329Y-65119030D01*
X57177428Y-65110765D01*
X57201227Y-65104804D01*
X57225495Y-65101204D01*
X57249999Y-65100000D01*
X58150001Y-65100000D01*
X58174505Y-65101204D01*
G37*
G36*
X58074505Y-74801204D02*
G01*
X58098773Y-74804804D01*
X58122572Y-74810765D01*
X58145671Y-74819030D01*
X58167850Y-74829520D01*
X58188893Y-74842132D01*
X58208599Y-74856747D01*
X58226777Y-74873223D01*
X58243253Y-74891401D01*
X58257868Y-74911107D01*
X58270480Y-74932150D01*
X58280970Y-74954329D01*
X58289235Y-74977428D01*
X58295196Y-75001227D01*
X58298796Y-75025495D01*
X58300000Y-75049999D01*
X58300000Y-75700001D01*
X58298796Y-75724505D01*
X58295196Y-75748773D01*
X58289235Y-75772572D01*
X58280970Y-75795671D01*
X58270480Y-75817850D01*
X58257868Y-75838893D01*
X58243253Y-75858599D01*
X58226777Y-75876777D01*
X58208599Y-75893253D01*
X58188893Y-75907868D01*
X58167850Y-75920480D01*
X58145671Y-75930970D01*
X58122572Y-75939235D01*
X58098773Y-75945196D01*
X58074505Y-75948796D01*
X58050001Y-75950000D01*
X57149999Y-75950000D01*
X57125495Y-75948796D01*
X57101227Y-75945196D01*
X57077428Y-75939235D01*
X57054329Y-75930970D01*
X57032150Y-75920480D01*
X57011107Y-75907868D01*
X56991401Y-75893253D01*
X56973223Y-75876777D01*
X56956747Y-75858599D01*
X56942132Y-75838893D01*
X56929520Y-75817850D01*
X56919030Y-75795671D01*
X56910765Y-75772572D01*
X56904804Y-75748773D01*
X56901204Y-75724505D01*
X56900000Y-75700001D01*
X56900000Y-75049999D01*
X56901204Y-75025495D01*
X56904804Y-75001227D01*
X56910765Y-74977428D01*
X56919030Y-74954329D01*
X56929520Y-74932150D01*
X56942132Y-74911107D01*
X56956747Y-74891401D01*
X56973223Y-74873223D01*
X56991401Y-74856747D01*
X57011107Y-74842132D01*
X57032150Y-74829520D01*
X57054329Y-74819030D01*
X57077428Y-74810765D01*
X57101227Y-74804804D01*
X57125495Y-74801204D01*
X57149999Y-74800000D01*
X58050001Y-74800000D01*
X58074505Y-74801204D01*
G37*
G36*
X58074505Y-76851204D02*
G01*
X58098773Y-76854804D01*
X58122572Y-76860765D01*
X58145671Y-76869030D01*
X58167850Y-76879520D01*
X58188893Y-76892132D01*
X58208599Y-76906747D01*
X58226777Y-76923223D01*
X58243253Y-76941401D01*
X58257868Y-76961107D01*
X58270480Y-76982150D01*
X58280970Y-77004329D01*
X58289235Y-77027428D01*
X58295196Y-77051227D01*
X58298796Y-77075495D01*
X58300000Y-77099999D01*
X58300000Y-77750001D01*
X58298796Y-77774505D01*
X58295196Y-77798773D01*
X58289235Y-77822572D01*
X58280970Y-77845671D01*
X58270480Y-77867850D01*
X58257868Y-77888893D01*
X58243253Y-77908599D01*
X58226777Y-77926777D01*
X58208599Y-77943253D01*
X58188893Y-77957868D01*
X58167850Y-77970480D01*
X58145671Y-77980970D01*
X58122572Y-77989235D01*
X58098773Y-77995196D01*
X58074505Y-77998796D01*
X58050001Y-78000000D01*
X57149999Y-78000000D01*
X57125495Y-77998796D01*
X57101227Y-77995196D01*
X57077428Y-77989235D01*
X57054329Y-77980970D01*
X57032150Y-77970480D01*
X57011107Y-77957868D01*
X56991401Y-77943253D01*
X56973223Y-77926777D01*
X56956747Y-77908599D01*
X56942132Y-77888893D01*
X56929520Y-77867850D01*
X56919030Y-77845671D01*
X56910765Y-77822572D01*
X56904804Y-77798773D01*
X56901204Y-77774505D01*
X56900000Y-77750001D01*
X56900000Y-77099999D01*
X56901204Y-77075495D01*
X56904804Y-77051227D01*
X56910765Y-77027428D01*
X56919030Y-77004329D01*
X56929520Y-76982150D01*
X56942132Y-76961107D01*
X56956747Y-76941401D01*
X56973223Y-76923223D01*
X56991401Y-76906747D01*
X57011107Y-76892132D01*
X57032150Y-76879520D01*
X57054329Y-76869030D01*
X57077428Y-76860765D01*
X57101227Y-76854804D01*
X57125495Y-76851204D01*
X57149999Y-76850000D01*
X58050001Y-76850000D01*
X58074505Y-76851204D01*
G37*
G36*
X56074505Y-67151204D02*
G01*
X56098773Y-67154804D01*
X56122572Y-67160765D01*
X56145671Y-67169030D01*
X56167850Y-67179520D01*
X56188893Y-67192132D01*
X56208599Y-67206747D01*
X56226777Y-67223223D01*
X56243253Y-67241401D01*
X56257868Y-67261107D01*
X56270480Y-67282150D01*
X56280970Y-67304329D01*
X56289235Y-67327428D01*
X56295196Y-67351227D01*
X56298796Y-67375495D01*
X56300000Y-67399999D01*
X56300000Y-68050001D01*
X56298796Y-68074505D01*
X56295196Y-68098773D01*
X56289235Y-68122572D01*
X56280970Y-68145671D01*
X56270480Y-68167850D01*
X56257868Y-68188893D01*
X56243253Y-68208599D01*
X56226777Y-68226777D01*
X56208599Y-68243253D01*
X56188893Y-68257868D01*
X56167850Y-68270480D01*
X56145671Y-68280970D01*
X56122572Y-68289235D01*
X56098773Y-68295196D01*
X56074505Y-68298796D01*
X56050001Y-68300000D01*
X55149999Y-68300000D01*
X55125495Y-68298796D01*
X55101227Y-68295196D01*
X55077428Y-68289235D01*
X55054329Y-68280970D01*
X55032150Y-68270480D01*
X55011107Y-68257868D01*
X54991401Y-68243253D01*
X54973223Y-68226777D01*
X54956747Y-68208599D01*
X54942132Y-68188893D01*
X54929520Y-68167850D01*
X54919030Y-68145671D01*
X54910765Y-68122572D01*
X54904804Y-68098773D01*
X54901204Y-68074505D01*
X54900000Y-68050001D01*
X54900000Y-67399999D01*
X54901204Y-67375495D01*
X54904804Y-67351227D01*
X54910765Y-67327428D01*
X54919030Y-67304329D01*
X54929520Y-67282150D01*
X54942132Y-67261107D01*
X54956747Y-67241401D01*
X54973223Y-67223223D01*
X54991401Y-67206747D01*
X55011107Y-67192132D01*
X55032150Y-67179520D01*
X55054329Y-67169030D01*
X55077428Y-67160765D01*
X55101227Y-67154804D01*
X55125495Y-67151204D01*
X55149999Y-67150000D01*
X56050001Y-67150000D01*
X56074505Y-67151204D01*
G37*
G36*
X56074505Y-65101204D02*
G01*
X56098773Y-65104804D01*
X56122572Y-65110765D01*
X56145671Y-65119030D01*
X56167850Y-65129520D01*
X56188893Y-65142132D01*
X56208599Y-65156747D01*
X56226777Y-65173223D01*
X56243253Y-65191401D01*
X56257868Y-65211107D01*
X56270480Y-65232150D01*
X56280970Y-65254329D01*
X56289235Y-65277428D01*
X56295196Y-65301227D01*
X56298796Y-65325495D01*
X56300000Y-65349999D01*
X56300000Y-66000001D01*
X56298796Y-66024505D01*
X56295196Y-66048773D01*
X56289235Y-66072572D01*
X56280970Y-66095671D01*
X56270480Y-66117850D01*
X56257868Y-66138893D01*
X56243253Y-66158599D01*
X56226777Y-66176777D01*
X56208599Y-66193253D01*
X56188893Y-66207868D01*
X56167850Y-66220480D01*
X56145671Y-66230970D01*
X56122572Y-66239235D01*
X56098773Y-66245196D01*
X56074505Y-66248796D01*
X56050001Y-66250000D01*
X55149999Y-66250000D01*
X55125495Y-66248796D01*
X55101227Y-66245196D01*
X55077428Y-66239235D01*
X55054329Y-66230970D01*
X55032150Y-66220480D01*
X55011107Y-66207868D01*
X54991401Y-66193253D01*
X54973223Y-66176777D01*
X54956747Y-66158599D01*
X54942132Y-66138893D01*
X54929520Y-66117850D01*
X54919030Y-66095671D01*
X54910765Y-66072572D01*
X54904804Y-66048773D01*
X54901204Y-66024505D01*
X54900000Y-66000001D01*
X54900000Y-65349999D01*
X54901204Y-65325495D01*
X54904804Y-65301227D01*
X54910765Y-65277428D01*
X54919030Y-65254329D01*
X54929520Y-65232150D01*
X54942132Y-65211107D01*
X54956747Y-65191401D01*
X54973223Y-65173223D01*
X54991401Y-65156747D01*
X55011107Y-65142132D01*
X55032150Y-65129520D01*
X55054329Y-65119030D01*
X55077428Y-65110765D01*
X55101227Y-65104804D01*
X55125495Y-65101204D01*
X55149999Y-65100000D01*
X56050001Y-65100000D01*
X56074505Y-65101204D01*
G37*
D12*
X51725000Y-74050000D03*
X52375000Y-74050000D03*
X53025000Y-74050000D03*
X53675000Y-74050000D03*
X53675000Y-79950000D03*
X53025000Y-79950000D03*
X52375000Y-79950000D03*
X51725000Y-79950000D03*
D11*
G36*
X40774505Y-74301204D02*
G01*
X40798773Y-74304804D01*
X40822572Y-74310765D01*
X40845671Y-74319030D01*
X40867850Y-74329520D01*
X40888893Y-74342132D01*
X40908599Y-74356747D01*
X40926777Y-74373223D01*
X40943253Y-74391401D01*
X40957868Y-74411107D01*
X40970480Y-74432150D01*
X40980970Y-74454329D01*
X40989235Y-74477428D01*
X40995196Y-74501227D01*
X40998796Y-74525495D01*
X41000000Y-74549999D01*
X41000000Y-75200001D01*
X40998796Y-75224505D01*
X40995196Y-75248773D01*
X40989235Y-75272572D01*
X40980970Y-75295671D01*
X40970480Y-75317850D01*
X40957868Y-75338893D01*
X40943253Y-75358599D01*
X40926777Y-75376777D01*
X40908599Y-75393253D01*
X40888893Y-75407868D01*
X40867850Y-75420480D01*
X40845671Y-75430970D01*
X40822572Y-75439235D01*
X40798773Y-75445196D01*
X40774505Y-75448796D01*
X40750001Y-75450000D01*
X39849999Y-75450000D01*
X39825495Y-75448796D01*
X39801227Y-75445196D01*
X39777428Y-75439235D01*
X39754329Y-75430970D01*
X39732150Y-75420480D01*
X39711107Y-75407868D01*
X39691401Y-75393253D01*
X39673223Y-75376777D01*
X39656747Y-75358599D01*
X39642132Y-75338893D01*
X39629520Y-75317850D01*
X39619030Y-75295671D01*
X39610765Y-75272572D01*
X39604804Y-75248773D01*
X39601204Y-75224505D01*
X39600000Y-75200001D01*
X39600000Y-74549999D01*
X39601204Y-74525495D01*
X39604804Y-74501227D01*
X39610765Y-74477428D01*
X39619030Y-74454329D01*
X39629520Y-74432150D01*
X39642132Y-74411107D01*
X39656747Y-74391401D01*
X39673223Y-74373223D01*
X39691401Y-74356747D01*
X39711107Y-74342132D01*
X39732150Y-74329520D01*
X39754329Y-74319030D01*
X39777428Y-74310765D01*
X39801227Y-74304804D01*
X39825495Y-74301204D01*
X39849999Y-74300000D01*
X40750001Y-74300000D01*
X40774505Y-74301204D01*
G37*
G36*
X40774505Y-76351204D02*
G01*
X40798773Y-76354804D01*
X40822572Y-76360765D01*
X40845671Y-76369030D01*
X40867850Y-76379520D01*
X40888893Y-76392132D01*
X40908599Y-76406747D01*
X40926777Y-76423223D01*
X40943253Y-76441401D01*
X40957868Y-76461107D01*
X40970480Y-76482150D01*
X40980970Y-76504329D01*
X40989235Y-76527428D01*
X40995196Y-76551227D01*
X40998796Y-76575495D01*
X41000000Y-76599999D01*
X41000000Y-77250001D01*
X40998796Y-77274505D01*
X40995196Y-77298773D01*
X40989235Y-77322572D01*
X40980970Y-77345671D01*
X40970480Y-77367850D01*
X40957868Y-77388893D01*
X40943253Y-77408599D01*
X40926777Y-77426777D01*
X40908599Y-77443253D01*
X40888893Y-77457868D01*
X40867850Y-77470480D01*
X40845671Y-77480970D01*
X40822572Y-77489235D01*
X40798773Y-77495196D01*
X40774505Y-77498796D01*
X40750001Y-77500000D01*
X39849999Y-77500000D01*
X39825495Y-77498796D01*
X39801227Y-77495196D01*
X39777428Y-77489235D01*
X39754329Y-77480970D01*
X39732150Y-77470480D01*
X39711107Y-77457868D01*
X39691401Y-77443253D01*
X39673223Y-77426777D01*
X39656747Y-77408599D01*
X39642132Y-77388893D01*
X39629520Y-77367850D01*
X39619030Y-77345671D01*
X39610765Y-77322572D01*
X39604804Y-77298773D01*
X39601204Y-77274505D01*
X39600000Y-77250001D01*
X39600000Y-76599999D01*
X39601204Y-76575495D01*
X39604804Y-76551227D01*
X39610765Y-76527428D01*
X39619030Y-76504329D01*
X39629520Y-76482150D01*
X39642132Y-76461107D01*
X39656747Y-76441401D01*
X39673223Y-76423223D01*
X39691401Y-76406747D01*
X39711107Y-76392132D01*
X39732150Y-76379520D01*
X39754329Y-76369030D01*
X39777428Y-76360765D01*
X39801227Y-76354804D01*
X39825495Y-76351204D01*
X39849999Y-76350000D01*
X40750001Y-76350000D01*
X40774505Y-76351204D01*
G37*
D13*
X43300000Y-78600000D03*
X44250000Y-78600000D03*
X42350000Y-78600000D03*
X42350000Y-76400000D03*
X43300000Y-76400000D03*
X44250000Y-76400000D03*
D11*
G36*
X56474505Y-71551204D02*
G01*
X56498773Y-71554804D01*
X56522572Y-71560765D01*
X56545671Y-71569030D01*
X56567850Y-71579520D01*
X56588893Y-71592132D01*
X56608599Y-71606747D01*
X56626777Y-71623223D01*
X56643253Y-71641401D01*
X56657868Y-71661107D01*
X56670480Y-71682150D01*
X56680970Y-71704329D01*
X56689235Y-71727428D01*
X56695196Y-71751227D01*
X56698796Y-71775495D01*
X56700000Y-71799999D01*
X56700000Y-72450001D01*
X56698796Y-72474505D01*
X56695196Y-72498773D01*
X56689235Y-72522572D01*
X56680970Y-72545671D01*
X56670480Y-72567850D01*
X56657868Y-72588893D01*
X56643253Y-72608599D01*
X56626777Y-72626777D01*
X56608599Y-72643253D01*
X56588893Y-72657868D01*
X56567850Y-72670480D01*
X56545671Y-72680970D01*
X56522572Y-72689235D01*
X56498773Y-72695196D01*
X56474505Y-72698796D01*
X56450001Y-72700000D01*
X55549999Y-72700000D01*
X55525495Y-72698796D01*
X55501227Y-72695196D01*
X55477428Y-72689235D01*
X55454329Y-72680970D01*
X55432150Y-72670480D01*
X55411107Y-72657868D01*
X55391401Y-72643253D01*
X55373223Y-72626777D01*
X55356747Y-72608599D01*
X55342132Y-72588893D01*
X55329520Y-72567850D01*
X55319030Y-72545671D01*
X55310765Y-72522572D01*
X55304804Y-72498773D01*
X55301204Y-72474505D01*
X55300000Y-72450001D01*
X55300000Y-71799999D01*
X55301204Y-71775495D01*
X55304804Y-71751227D01*
X55310765Y-71727428D01*
X55319030Y-71704329D01*
X55329520Y-71682150D01*
X55342132Y-71661107D01*
X55356747Y-71641401D01*
X55373223Y-71623223D01*
X55391401Y-71606747D01*
X55411107Y-71592132D01*
X55432150Y-71579520D01*
X55454329Y-71569030D01*
X55477428Y-71560765D01*
X55501227Y-71554804D01*
X55525495Y-71551204D01*
X55549999Y-71550000D01*
X56450001Y-71550000D01*
X56474505Y-71551204D01*
G37*
G36*
X56474505Y-69501204D02*
G01*
X56498773Y-69504804D01*
X56522572Y-69510765D01*
X56545671Y-69519030D01*
X56567850Y-69529520D01*
X56588893Y-69542132D01*
X56608599Y-69556747D01*
X56626777Y-69573223D01*
X56643253Y-69591401D01*
X56657868Y-69611107D01*
X56670480Y-69632150D01*
X56680970Y-69654329D01*
X56689235Y-69677428D01*
X56695196Y-69701227D01*
X56698796Y-69725495D01*
X56700000Y-69749999D01*
X56700000Y-70400001D01*
X56698796Y-70424505D01*
X56695196Y-70448773D01*
X56689235Y-70472572D01*
X56680970Y-70495671D01*
X56670480Y-70517850D01*
X56657868Y-70538893D01*
X56643253Y-70558599D01*
X56626777Y-70576777D01*
X56608599Y-70593253D01*
X56588893Y-70607868D01*
X56567850Y-70620480D01*
X56545671Y-70630970D01*
X56522572Y-70639235D01*
X56498773Y-70645196D01*
X56474505Y-70648796D01*
X56450001Y-70650000D01*
X55549999Y-70650000D01*
X55525495Y-70648796D01*
X55501227Y-70645196D01*
X55477428Y-70639235D01*
X55454329Y-70630970D01*
X55432150Y-70620480D01*
X55411107Y-70607868D01*
X55391401Y-70593253D01*
X55373223Y-70576777D01*
X55356747Y-70558599D01*
X55342132Y-70538893D01*
X55329520Y-70517850D01*
X55319030Y-70495671D01*
X55310765Y-70472572D01*
X55304804Y-70448773D01*
X55301204Y-70424505D01*
X55300000Y-70400001D01*
X55300000Y-69749999D01*
X55301204Y-69725495D01*
X55304804Y-69701227D01*
X55310765Y-69677428D01*
X55319030Y-69654329D01*
X55329520Y-69632150D01*
X55342132Y-69611107D01*
X55356747Y-69591401D01*
X55373223Y-69573223D01*
X55391401Y-69556747D01*
X55411107Y-69542132D01*
X55432150Y-69529520D01*
X55454329Y-69519030D01*
X55477428Y-69510765D01*
X55501227Y-69504804D01*
X55525495Y-69501204D01*
X55549999Y-69500000D01*
X56450001Y-69500000D01*
X56474505Y-69501204D01*
G37*
G36*
X58474505Y-71551204D02*
G01*
X58498773Y-71554804D01*
X58522572Y-71560765D01*
X58545671Y-71569030D01*
X58567850Y-71579520D01*
X58588893Y-71592132D01*
X58608599Y-71606747D01*
X58626777Y-71623223D01*
X58643253Y-71641401D01*
X58657868Y-71661107D01*
X58670480Y-71682150D01*
X58680970Y-71704329D01*
X58689235Y-71727428D01*
X58695196Y-71751227D01*
X58698796Y-71775495D01*
X58700000Y-71799999D01*
X58700000Y-72450001D01*
X58698796Y-72474505D01*
X58695196Y-72498773D01*
X58689235Y-72522572D01*
X58680970Y-72545671D01*
X58670480Y-72567850D01*
X58657868Y-72588893D01*
X58643253Y-72608599D01*
X58626777Y-72626777D01*
X58608599Y-72643253D01*
X58588893Y-72657868D01*
X58567850Y-72670480D01*
X58545671Y-72680970D01*
X58522572Y-72689235D01*
X58498773Y-72695196D01*
X58474505Y-72698796D01*
X58450001Y-72700000D01*
X57549999Y-72700000D01*
X57525495Y-72698796D01*
X57501227Y-72695196D01*
X57477428Y-72689235D01*
X57454329Y-72680970D01*
X57432150Y-72670480D01*
X57411107Y-72657868D01*
X57391401Y-72643253D01*
X57373223Y-72626777D01*
X57356747Y-72608599D01*
X57342132Y-72588893D01*
X57329520Y-72567850D01*
X57319030Y-72545671D01*
X57310765Y-72522572D01*
X57304804Y-72498773D01*
X57301204Y-72474505D01*
X57300000Y-72450001D01*
X57300000Y-71799999D01*
X57301204Y-71775495D01*
X57304804Y-71751227D01*
X57310765Y-71727428D01*
X57319030Y-71704329D01*
X57329520Y-71682150D01*
X57342132Y-71661107D01*
X57356747Y-71641401D01*
X57373223Y-71623223D01*
X57391401Y-71606747D01*
X57411107Y-71592132D01*
X57432150Y-71579520D01*
X57454329Y-71569030D01*
X57477428Y-71560765D01*
X57501227Y-71554804D01*
X57525495Y-71551204D01*
X57549999Y-71550000D01*
X58450001Y-71550000D01*
X58474505Y-71551204D01*
G37*
G36*
X58474505Y-69501204D02*
G01*
X58498773Y-69504804D01*
X58522572Y-69510765D01*
X58545671Y-69519030D01*
X58567850Y-69529520D01*
X58588893Y-69542132D01*
X58608599Y-69556747D01*
X58626777Y-69573223D01*
X58643253Y-69591401D01*
X58657868Y-69611107D01*
X58670480Y-69632150D01*
X58680970Y-69654329D01*
X58689235Y-69677428D01*
X58695196Y-69701227D01*
X58698796Y-69725495D01*
X58700000Y-69749999D01*
X58700000Y-70400001D01*
X58698796Y-70424505D01*
X58695196Y-70448773D01*
X58689235Y-70472572D01*
X58680970Y-70495671D01*
X58670480Y-70517850D01*
X58657868Y-70538893D01*
X58643253Y-70558599D01*
X58626777Y-70576777D01*
X58608599Y-70593253D01*
X58588893Y-70607868D01*
X58567850Y-70620480D01*
X58545671Y-70630970D01*
X58522572Y-70639235D01*
X58498773Y-70645196D01*
X58474505Y-70648796D01*
X58450001Y-70650000D01*
X57549999Y-70650000D01*
X57525495Y-70648796D01*
X57501227Y-70645196D01*
X57477428Y-70639235D01*
X57454329Y-70630970D01*
X57432150Y-70620480D01*
X57411107Y-70607868D01*
X57391401Y-70593253D01*
X57373223Y-70576777D01*
X57356747Y-70558599D01*
X57342132Y-70538893D01*
X57329520Y-70517850D01*
X57319030Y-70495671D01*
X57310765Y-70472572D01*
X57304804Y-70448773D01*
X57301204Y-70424505D01*
X57300000Y-70400001D01*
X57300000Y-69749999D01*
X57301204Y-69725495D01*
X57304804Y-69701227D01*
X57310765Y-69677428D01*
X57319030Y-69654329D01*
X57329520Y-69632150D01*
X57342132Y-69611107D01*
X57356747Y-69591401D01*
X57373223Y-69573223D01*
X57391401Y-69556747D01*
X57411107Y-69542132D01*
X57432150Y-69529520D01*
X57454329Y-69519030D01*
X57477428Y-69510765D01*
X57501227Y-69504804D01*
X57525495Y-69501204D01*
X57549999Y-69500000D01*
X58450001Y-69500000D01*
X58474505Y-69501204D01*
G37*
G36*
X54474505Y-71551204D02*
G01*
X54498773Y-71554804D01*
X54522572Y-71560765D01*
X54545671Y-71569030D01*
X54567850Y-71579520D01*
X54588893Y-71592132D01*
X54608599Y-71606747D01*
X54626777Y-71623223D01*
X54643253Y-71641401D01*
X54657868Y-71661107D01*
X54670480Y-71682150D01*
X54680970Y-71704329D01*
X54689235Y-71727428D01*
X54695196Y-71751227D01*
X54698796Y-71775495D01*
X54700000Y-71799999D01*
X54700000Y-72450001D01*
X54698796Y-72474505D01*
X54695196Y-72498773D01*
X54689235Y-72522572D01*
X54680970Y-72545671D01*
X54670480Y-72567850D01*
X54657868Y-72588893D01*
X54643253Y-72608599D01*
X54626777Y-72626777D01*
X54608599Y-72643253D01*
X54588893Y-72657868D01*
X54567850Y-72670480D01*
X54545671Y-72680970D01*
X54522572Y-72689235D01*
X54498773Y-72695196D01*
X54474505Y-72698796D01*
X54450001Y-72700000D01*
X53549999Y-72700000D01*
X53525495Y-72698796D01*
X53501227Y-72695196D01*
X53477428Y-72689235D01*
X53454329Y-72680970D01*
X53432150Y-72670480D01*
X53411107Y-72657868D01*
X53391401Y-72643253D01*
X53373223Y-72626777D01*
X53356747Y-72608599D01*
X53342132Y-72588893D01*
X53329520Y-72567850D01*
X53319030Y-72545671D01*
X53310765Y-72522572D01*
X53304804Y-72498773D01*
X53301204Y-72474505D01*
X53300000Y-72450001D01*
X53300000Y-71799999D01*
X53301204Y-71775495D01*
X53304804Y-71751227D01*
X53310765Y-71727428D01*
X53319030Y-71704329D01*
X53329520Y-71682150D01*
X53342132Y-71661107D01*
X53356747Y-71641401D01*
X53373223Y-71623223D01*
X53391401Y-71606747D01*
X53411107Y-71592132D01*
X53432150Y-71579520D01*
X53454329Y-71569030D01*
X53477428Y-71560765D01*
X53501227Y-71554804D01*
X53525495Y-71551204D01*
X53549999Y-71550000D01*
X54450001Y-71550000D01*
X54474505Y-71551204D01*
G37*
G36*
X54474505Y-69501204D02*
G01*
X54498773Y-69504804D01*
X54522572Y-69510765D01*
X54545671Y-69519030D01*
X54567850Y-69529520D01*
X54588893Y-69542132D01*
X54608599Y-69556747D01*
X54626777Y-69573223D01*
X54643253Y-69591401D01*
X54657868Y-69611107D01*
X54670480Y-69632150D01*
X54680970Y-69654329D01*
X54689235Y-69677428D01*
X54695196Y-69701227D01*
X54698796Y-69725495D01*
X54700000Y-69749999D01*
X54700000Y-70400001D01*
X54698796Y-70424505D01*
X54695196Y-70448773D01*
X54689235Y-70472572D01*
X54680970Y-70495671D01*
X54670480Y-70517850D01*
X54657868Y-70538893D01*
X54643253Y-70558599D01*
X54626777Y-70576777D01*
X54608599Y-70593253D01*
X54588893Y-70607868D01*
X54567850Y-70620480D01*
X54545671Y-70630970D01*
X54522572Y-70639235D01*
X54498773Y-70645196D01*
X54474505Y-70648796D01*
X54450001Y-70650000D01*
X53549999Y-70650000D01*
X53525495Y-70648796D01*
X53501227Y-70645196D01*
X53477428Y-70639235D01*
X53454329Y-70630970D01*
X53432150Y-70620480D01*
X53411107Y-70607868D01*
X53391401Y-70593253D01*
X53373223Y-70576777D01*
X53356747Y-70558599D01*
X53342132Y-70538893D01*
X53329520Y-70517850D01*
X53319030Y-70495671D01*
X53310765Y-70472572D01*
X53304804Y-70448773D01*
X53301204Y-70424505D01*
X53300000Y-70400001D01*
X53300000Y-69749999D01*
X53301204Y-69725495D01*
X53304804Y-69701227D01*
X53310765Y-69677428D01*
X53319030Y-69654329D01*
X53329520Y-69632150D01*
X53342132Y-69611107D01*
X53356747Y-69591401D01*
X53373223Y-69573223D01*
X53391401Y-69556747D01*
X53411107Y-69542132D01*
X53432150Y-69529520D01*
X53454329Y-69519030D01*
X53477428Y-69510765D01*
X53501227Y-69504804D01*
X53525495Y-69501204D01*
X53549999Y-69500000D01*
X54450001Y-69500000D01*
X54474505Y-69501204D01*
G37*
G36*
X52174505Y-71551204D02*
G01*
X52198773Y-71554804D01*
X52222572Y-71560765D01*
X52245671Y-71569030D01*
X52267850Y-71579520D01*
X52288893Y-71592132D01*
X52308599Y-71606747D01*
X52326777Y-71623223D01*
X52343253Y-71641401D01*
X52357868Y-71661107D01*
X52370480Y-71682150D01*
X52380970Y-71704329D01*
X52389235Y-71727428D01*
X52395196Y-71751227D01*
X52398796Y-71775495D01*
X52400000Y-71799999D01*
X52400000Y-72450001D01*
X52398796Y-72474505D01*
X52395196Y-72498773D01*
X52389235Y-72522572D01*
X52380970Y-72545671D01*
X52370480Y-72567850D01*
X52357868Y-72588893D01*
X52343253Y-72608599D01*
X52326777Y-72626777D01*
X52308599Y-72643253D01*
X52288893Y-72657868D01*
X52267850Y-72670480D01*
X52245671Y-72680970D01*
X52222572Y-72689235D01*
X52198773Y-72695196D01*
X52174505Y-72698796D01*
X52150001Y-72700000D01*
X51249999Y-72700000D01*
X51225495Y-72698796D01*
X51201227Y-72695196D01*
X51177428Y-72689235D01*
X51154329Y-72680970D01*
X51132150Y-72670480D01*
X51111107Y-72657868D01*
X51091401Y-72643253D01*
X51073223Y-72626777D01*
X51056747Y-72608599D01*
X51042132Y-72588893D01*
X51029520Y-72567850D01*
X51019030Y-72545671D01*
X51010765Y-72522572D01*
X51004804Y-72498773D01*
X51001204Y-72474505D01*
X51000000Y-72450001D01*
X51000000Y-71799999D01*
X51001204Y-71775495D01*
X51004804Y-71751227D01*
X51010765Y-71727428D01*
X51019030Y-71704329D01*
X51029520Y-71682150D01*
X51042132Y-71661107D01*
X51056747Y-71641401D01*
X51073223Y-71623223D01*
X51091401Y-71606747D01*
X51111107Y-71592132D01*
X51132150Y-71579520D01*
X51154329Y-71569030D01*
X51177428Y-71560765D01*
X51201227Y-71554804D01*
X51225495Y-71551204D01*
X51249999Y-71550000D01*
X52150001Y-71550000D01*
X52174505Y-71551204D01*
G37*
G36*
X52174505Y-69501204D02*
G01*
X52198773Y-69504804D01*
X52222572Y-69510765D01*
X52245671Y-69519030D01*
X52267850Y-69529520D01*
X52288893Y-69542132D01*
X52308599Y-69556747D01*
X52326777Y-69573223D01*
X52343253Y-69591401D01*
X52357868Y-69611107D01*
X52370480Y-69632150D01*
X52380970Y-69654329D01*
X52389235Y-69677428D01*
X52395196Y-69701227D01*
X52398796Y-69725495D01*
X52400000Y-69749999D01*
X52400000Y-70400001D01*
X52398796Y-70424505D01*
X52395196Y-70448773D01*
X52389235Y-70472572D01*
X52380970Y-70495671D01*
X52370480Y-70517850D01*
X52357868Y-70538893D01*
X52343253Y-70558599D01*
X52326777Y-70576777D01*
X52308599Y-70593253D01*
X52288893Y-70607868D01*
X52267850Y-70620480D01*
X52245671Y-70630970D01*
X52222572Y-70639235D01*
X52198773Y-70645196D01*
X52174505Y-70648796D01*
X52150001Y-70650000D01*
X51249999Y-70650000D01*
X51225495Y-70648796D01*
X51201227Y-70645196D01*
X51177428Y-70639235D01*
X51154329Y-70630970D01*
X51132150Y-70620480D01*
X51111107Y-70607868D01*
X51091401Y-70593253D01*
X51073223Y-70576777D01*
X51056747Y-70558599D01*
X51042132Y-70538893D01*
X51029520Y-70517850D01*
X51019030Y-70495671D01*
X51010765Y-70472572D01*
X51004804Y-70448773D01*
X51001204Y-70424505D01*
X51000000Y-70400001D01*
X51000000Y-69749999D01*
X51001204Y-69725495D01*
X51004804Y-69701227D01*
X51010765Y-69677428D01*
X51019030Y-69654329D01*
X51029520Y-69632150D01*
X51042132Y-69611107D01*
X51056747Y-69591401D01*
X51073223Y-69573223D01*
X51091401Y-69556747D01*
X51111107Y-69542132D01*
X51132150Y-69529520D01*
X51154329Y-69519030D01*
X51177428Y-69510765D01*
X51201227Y-69504804D01*
X51225495Y-69501204D01*
X51249999Y-69500000D01*
X52150001Y-69500000D01*
X52174505Y-69501204D01*
G37*
G36*
X50174505Y-71551204D02*
G01*
X50198773Y-71554804D01*
X50222572Y-71560765D01*
X50245671Y-71569030D01*
X50267850Y-71579520D01*
X50288893Y-71592132D01*
X50308599Y-71606747D01*
X50326777Y-71623223D01*
X50343253Y-71641401D01*
X50357868Y-71661107D01*
X50370480Y-71682150D01*
X50380970Y-71704329D01*
X50389235Y-71727428D01*
X50395196Y-71751227D01*
X50398796Y-71775495D01*
X50400000Y-71799999D01*
X50400000Y-72450001D01*
X50398796Y-72474505D01*
X50395196Y-72498773D01*
X50389235Y-72522572D01*
X50380970Y-72545671D01*
X50370480Y-72567850D01*
X50357868Y-72588893D01*
X50343253Y-72608599D01*
X50326777Y-72626777D01*
X50308599Y-72643253D01*
X50288893Y-72657868D01*
X50267850Y-72670480D01*
X50245671Y-72680970D01*
X50222572Y-72689235D01*
X50198773Y-72695196D01*
X50174505Y-72698796D01*
X50150001Y-72700000D01*
X49249999Y-72700000D01*
X49225495Y-72698796D01*
X49201227Y-72695196D01*
X49177428Y-72689235D01*
X49154329Y-72680970D01*
X49132150Y-72670480D01*
X49111107Y-72657868D01*
X49091401Y-72643253D01*
X49073223Y-72626777D01*
X49056747Y-72608599D01*
X49042132Y-72588893D01*
X49029520Y-72567850D01*
X49019030Y-72545671D01*
X49010765Y-72522572D01*
X49004804Y-72498773D01*
X49001204Y-72474505D01*
X49000000Y-72450001D01*
X49000000Y-71799999D01*
X49001204Y-71775495D01*
X49004804Y-71751227D01*
X49010765Y-71727428D01*
X49019030Y-71704329D01*
X49029520Y-71682150D01*
X49042132Y-71661107D01*
X49056747Y-71641401D01*
X49073223Y-71623223D01*
X49091401Y-71606747D01*
X49111107Y-71592132D01*
X49132150Y-71579520D01*
X49154329Y-71569030D01*
X49177428Y-71560765D01*
X49201227Y-71554804D01*
X49225495Y-71551204D01*
X49249999Y-71550000D01*
X50150001Y-71550000D01*
X50174505Y-71551204D01*
G37*
G36*
X50174505Y-69501204D02*
G01*
X50198773Y-69504804D01*
X50222572Y-69510765D01*
X50245671Y-69519030D01*
X50267850Y-69529520D01*
X50288893Y-69542132D01*
X50308599Y-69556747D01*
X50326777Y-69573223D01*
X50343253Y-69591401D01*
X50357868Y-69611107D01*
X50370480Y-69632150D01*
X50380970Y-69654329D01*
X50389235Y-69677428D01*
X50395196Y-69701227D01*
X50398796Y-69725495D01*
X50400000Y-69749999D01*
X50400000Y-70400001D01*
X50398796Y-70424505D01*
X50395196Y-70448773D01*
X50389235Y-70472572D01*
X50380970Y-70495671D01*
X50370480Y-70517850D01*
X50357868Y-70538893D01*
X50343253Y-70558599D01*
X50326777Y-70576777D01*
X50308599Y-70593253D01*
X50288893Y-70607868D01*
X50267850Y-70620480D01*
X50245671Y-70630970D01*
X50222572Y-70639235D01*
X50198773Y-70645196D01*
X50174505Y-70648796D01*
X50150001Y-70650000D01*
X49249999Y-70650000D01*
X49225495Y-70648796D01*
X49201227Y-70645196D01*
X49177428Y-70639235D01*
X49154329Y-70630970D01*
X49132150Y-70620480D01*
X49111107Y-70607868D01*
X49091401Y-70593253D01*
X49073223Y-70576777D01*
X49056747Y-70558599D01*
X49042132Y-70538893D01*
X49029520Y-70517850D01*
X49019030Y-70495671D01*
X49010765Y-70472572D01*
X49004804Y-70448773D01*
X49001204Y-70424505D01*
X49000000Y-70400001D01*
X49000000Y-69749999D01*
X49001204Y-69725495D01*
X49004804Y-69701227D01*
X49010765Y-69677428D01*
X49019030Y-69654329D01*
X49029520Y-69632150D01*
X49042132Y-69611107D01*
X49056747Y-69591401D01*
X49073223Y-69573223D01*
X49091401Y-69556747D01*
X49111107Y-69542132D01*
X49132150Y-69529520D01*
X49154329Y-69519030D01*
X49177428Y-69510765D01*
X49201227Y-69504804D01*
X49225495Y-69501204D01*
X49249999Y-69500000D01*
X50150001Y-69500000D01*
X50174505Y-69501204D01*
G37*
G36*
X50174505Y-77301204D02*
G01*
X50198773Y-77304804D01*
X50222572Y-77310765D01*
X50245671Y-77319030D01*
X50267850Y-77329520D01*
X50288893Y-77342132D01*
X50308599Y-77356747D01*
X50326777Y-77373223D01*
X50343253Y-77391401D01*
X50357868Y-77411107D01*
X50370480Y-77432150D01*
X50380970Y-77454329D01*
X50389235Y-77477428D01*
X50395196Y-77501227D01*
X50398796Y-77525495D01*
X50400000Y-77549999D01*
X50400000Y-78200001D01*
X50398796Y-78224505D01*
X50395196Y-78248773D01*
X50389235Y-78272572D01*
X50380970Y-78295671D01*
X50370480Y-78317850D01*
X50357868Y-78338893D01*
X50343253Y-78358599D01*
X50326777Y-78376777D01*
X50308599Y-78393253D01*
X50288893Y-78407868D01*
X50267850Y-78420480D01*
X50245671Y-78430970D01*
X50222572Y-78439235D01*
X50198773Y-78445196D01*
X50174505Y-78448796D01*
X50150001Y-78450000D01*
X49249999Y-78450000D01*
X49225495Y-78448796D01*
X49201227Y-78445196D01*
X49177428Y-78439235D01*
X49154329Y-78430970D01*
X49132150Y-78420480D01*
X49111107Y-78407868D01*
X49091401Y-78393253D01*
X49073223Y-78376777D01*
X49056747Y-78358599D01*
X49042132Y-78338893D01*
X49029520Y-78317850D01*
X49019030Y-78295671D01*
X49010765Y-78272572D01*
X49004804Y-78248773D01*
X49001204Y-78224505D01*
X49000000Y-78200001D01*
X49000000Y-77549999D01*
X49001204Y-77525495D01*
X49004804Y-77501227D01*
X49010765Y-77477428D01*
X49019030Y-77454329D01*
X49029520Y-77432150D01*
X49042132Y-77411107D01*
X49056747Y-77391401D01*
X49073223Y-77373223D01*
X49091401Y-77356747D01*
X49111107Y-77342132D01*
X49132150Y-77329520D01*
X49154329Y-77319030D01*
X49177428Y-77310765D01*
X49201227Y-77304804D01*
X49225495Y-77301204D01*
X49249999Y-77300000D01*
X50150001Y-77300000D01*
X50174505Y-77301204D01*
G37*
G36*
X50174505Y-79351204D02*
G01*
X50198773Y-79354804D01*
X50222572Y-79360765D01*
X50245671Y-79369030D01*
X50267850Y-79379520D01*
X50288893Y-79392132D01*
X50308599Y-79406747D01*
X50326777Y-79423223D01*
X50343253Y-79441401D01*
X50357868Y-79461107D01*
X50370480Y-79482150D01*
X50380970Y-79504329D01*
X50389235Y-79527428D01*
X50395196Y-79551227D01*
X50398796Y-79575495D01*
X50400000Y-79599999D01*
X50400000Y-80250001D01*
X50398796Y-80274505D01*
X50395196Y-80298773D01*
X50389235Y-80322572D01*
X50380970Y-80345671D01*
X50370480Y-80367850D01*
X50357868Y-80388893D01*
X50343253Y-80408599D01*
X50326777Y-80426777D01*
X50308599Y-80443253D01*
X50288893Y-80457868D01*
X50267850Y-80470480D01*
X50245671Y-80480970D01*
X50222572Y-80489235D01*
X50198773Y-80495196D01*
X50174505Y-80498796D01*
X50150001Y-80500000D01*
X49249999Y-80500000D01*
X49225495Y-80498796D01*
X49201227Y-80495196D01*
X49177428Y-80489235D01*
X49154329Y-80480970D01*
X49132150Y-80470480D01*
X49111107Y-80457868D01*
X49091401Y-80443253D01*
X49073223Y-80426777D01*
X49056747Y-80408599D01*
X49042132Y-80388893D01*
X49029520Y-80367850D01*
X49019030Y-80345671D01*
X49010765Y-80322572D01*
X49004804Y-80298773D01*
X49001204Y-80274505D01*
X49000000Y-80250001D01*
X49000000Y-79599999D01*
X49001204Y-79575495D01*
X49004804Y-79551227D01*
X49010765Y-79527428D01*
X49019030Y-79504329D01*
X49029520Y-79482150D01*
X49042132Y-79461107D01*
X49056747Y-79441401D01*
X49073223Y-79423223D01*
X49091401Y-79406747D01*
X49111107Y-79392132D01*
X49132150Y-79379520D01*
X49154329Y-79369030D01*
X49177428Y-79360765D01*
X49201227Y-79354804D01*
X49225495Y-79351204D01*
X49249999Y-79350000D01*
X50150001Y-79350000D01*
X50174505Y-79351204D01*
G37*
G36*
X56674505Y-81401204D02*
G01*
X56698773Y-81404804D01*
X56722572Y-81410765D01*
X56745671Y-81419030D01*
X56767850Y-81429520D01*
X56788893Y-81442132D01*
X56808599Y-81456747D01*
X56826777Y-81473223D01*
X56843253Y-81491401D01*
X56857868Y-81511107D01*
X56870480Y-81532150D01*
X56880970Y-81554329D01*
X56889235Y-81577428D01*
X56895196Y-81601227D01*
X56898796Y-81625495D01*
X56900000Y-81649999D01*
X56900000Y-82300001D01*
X56898796Y-82324505D01*
X56895196Y-82348773D01*
X56889235Y-82372572D01*
X56880970Y-82395671D01*
X56870480Y-82417850D01*
X56857868Y-82438893D01*
X56843253Y-82458599D01*
X56826777Y-82476777D01*
X56808599Y-82493253D01*
X56788893Y-82507868D01*
X56767850Y-82520480D01*
X56745671Y-82530970D01*
X56722572Y-82539235D01*
X56698773Y-82545196D01*
X56674505Y-82548796D01*
X56650001Y-82550000D01*
X55749999Y-82550000D01*
X55725495Y-82548796D01*
X55701227Y-82545196D01*
X55677428Y-82539235D01*
X55654329Y-82530970D01*
X55632150Y-82520480D01*
X55611107Y-82507868D01*
X55591401Y-82493253D01*
X55573223Y-82476777D01*
X55556747Y-82458599D01*
X55542132Y-82438893D01*
X55529520Y-82417850D01*
X55519030Y-82395671D01*
X55510765Y-82372572D01*
X55504804Y-82348773D01*
X55501204Y-82324505D01*
X55500000Y-82300001D01*
X55500000Y-81649999D01*
X55501204Y-81625495D01*
X55504804Y-81601227D01*
X55510765Y-81577428D01*
X55519030Y-81554329D01*
X55529520Y-81532150D01*
X55542132Y-81511107D01*
X55556747Y-81491401D01*
X55573223Y-81473223D01*
X55591401Y-81456747D01*
X55611107Y-81442132D01*
X55632150Y-81429520D01*
X55654329Y-81419030D01*
X55677428Y-81410765D01*
X55701227Y-81404804D01*
X55725495Y-81401204D01*
X55749999Y-81400000D01*
X56650001Y-81400000D01*
X56674505Y-81401204D01*
G37*
G36*
X56674505Y-83451204D02*
G01*
X56698773Y-83454804D01*
X56722572Y-83460765D01*
X56745671Y-83469030D01*
X56767850Y-83479520D01*
X56788893Y-83492132D01*
X56808599Y-83506747D01*
X56826777Y-83523223D01*
X56843253Y-83541401D01*
X56857868Y-83561107D01*
X56870480Y-83582150D01*
X56880970Y-83604329D01*
X56889235Y-83627428D01*
X56895196Y-83651227D01*
X56898796Y-83675495D01*
X56900000Y-83699999D01*
X56900000Y-84350001D01*
X56898796Y-84374505D01*
X56895196Y-84398773D01*
X56889235Y-84422572D01*
X56880970Y-84445671D01*
X56870480Y-84467850D01*
X56857868Y-84488893D01*
X56843253Y-84508599D01*
X56826777Y-84526777D01*
X56808599Y-84543253D01*
X56788893Y-84557868D01*
X56767850Y-84570480D01*
X56745671Y-84580970D01*
X56722572Y-84589235D01*
X56698773Y-84595196D01*
X56674505Y-84598796D01*
X56650001Y-84600000D01*
X55749999Y-84600000D01*
X55725495Y-84598796D01*
X55701227Y-84595196D01*
X55677428Y-84589235D01*
X55654329Y-84580970D01*
X55632150Y-84570480D01*
X55611107Y-84557868D01*
X55591401Y-84543253D01*
X55573223Y-84526777D01*
X55556747Y-84508599D01*
X55542132Y-84488893D01*
X55529520Y-84467850D01*
X55519030Y-84445671D01*
X55510765Y-84422572D01*
X55504804Y-84398773D01*
X55501204Y-84374505D01*
X55500000Y-84350001D01*
X55500000Y-83699999D01*
X55501204Y-83675495D01*
X55504804Y-83651227D01*
X55510765Y-83627428D01*
X55519030Y-83604329D01*
X55529520Y-83582150D01*
X55542132Y-83561107D01*
X55556747Y-83541401D01*
X55573223Y-83523223D01*
X55591401Y-83506747D01*
X55611107Y-83492132D01*
X55632150Y-83479520D01*
X55654329Y-83469030D01*
X55677428Y-83460765D01*
X55701227Y-83454804D01*
X55725495Y-83451204D01*
X55749999Y-83450000D01*
X56650001Y-83450000D01*
X56674505Y-83451204D01*
G37*
G36*
X54674505Y-81401204D02*
G01*
X54698773Y-81404804D01*
X54722572Y-81410765D01*
X54745671Y-81419030D01*
X54767850Y-81429520D01*
X54788893Y-81442132D01*
X54808599Y-81456747D01*
X54826777Y-81473223D01*
X54843253Y-81491401D01*
X54857868Y-81511107D01*
X54870480Y-81532150D01*
X54880970Y-81554329D01*
X54889235Y-81577428D01*
X54895196Y-81601227D01*
X54898796Y-81625495D01*
X54900000Y-81649999D01*
X54900000Y-82300001D01*
X54898796Y-82324505D01*
X54895196Y-82348773D01*
X54889235Y-82372572D01*
X54880970Y-82395671D01*
X54870480Y-82417850D01*
X54857868Y-82438893D01*
X54843253Y-82458599D01*
X54826777Y-82476777D01*
X54808599Y-82493253D01*
X54788893Y-82507868D01*
X54767850Y-82520480D01*
X54745671Y-82530970D01*
X54722572Y-82539235D01*
X54698773Y-82545196D01*
X54674505Y-82548796D01*
X54650001Y-82550000D01*
X53749999Y-82550000D01*
X53725495Y-82548796D01*
X53701227Y-82545196D01*
X53677428Y-82539235D01*
X53654329Y-82530970D01*
X53632150Y-82520480D01*
X53611107Y-82507868D01*
X53591401Y-82493253D01*
X53573223Y-82476777D01*
X53556747Y-82458599D01*
X53542132Y-82438893D01*
X53529520Y-82417850D01*
X53519030Y-82395671D01*
X53510765Y-82372572D01*
X53504804Y-82348773D01*
X53501204Y-82324505D01*
X53500000Y-82300001D01*
X53500000Y-81649999D01*
X53501204Y-81625495D01*
X53504804Y-81601227D01*
X53510765Y-81577428D01*
X53519030Y-81554329D01*
X53529520Y-81532150D01*
X53542132Y-81511107D01*
X53556747Y-81491401D01*
X53573223Y-81473223D01*
X53591401Y-81456747D01*
X53611107Y-81442132D01*
X53632150Y-81429520D01*
X53654329Y-81419030D01*
X53677428Y-81410765D01*
X53701227Y-81404804D01*
X53725495Y-81401204D01*
X53749999Y-81400000D01*
X54650001Y-81400000D01*
X54674505Y-81401204D01*
G37*
G36*
X54674505Y-83451204D02*
G01*
X54698773Y-83454804D01*
X54722572Y-83460765D01*
X54745671Y-83469030D01*
X54767850Y-83479520D01*
X54788893Y-83492132D01*
X54808599Y-83506747D01*
X54826777Y-83523223D01*
X54843253Y-83541401D01*
X54857868Y-83561107D01*
X54870480Y-83582150D01*
X54880970Y-83604329D01*
X54889235Y-83627428D01*
X54895196Y-83651227D01*
X54898796Y-83675495D01*
X54900000Y-83699999D01*
X54900000Y-84350001D01*
X54898796Y-84374505D01*
X54895196Y-84398773D01*
X54889235Y-84422572D01*
X54880970Y-84445671D01*
X54870480Y-84467850D01*
X54857868Y-84488893D01*
X54843253Y-84508599D01*
X54826777Y-84526777D01*
X54808599Y-84543253D01*
X54788893Y-84557868D01*
X54767850Y-84570480D01*
X54745671Y-84580970D01*
X54722572Y-84589235D01*
X54698773Y-84595196D01*
X54674505Y-84598796D01*
X54650001Y-84600000D01*
X53749999Y-84600000D01*
X53725495Y-84598796D01*
X53701227Y-84595196D01*
X53677428Y-84589235D01*
X53654329Y-84580970D01*
X53632150Y-84570480D01*
X53611107Y-84557868D01*
X53591401Y-84543253D01*
X53573223Y-84526777D01*
X53556747Y-84508599D01*
X53542132Y-84488893D01*
X53529520Y-84467850D01*
X53519030Y-84445671D01*
X53510765Y-84422572D01*
X53504804Y-84398773D01*
X53501204Y-84374505D01*
X53500000Y-84350001D01*
X53500000Y-83699999D01*
X53501204Y-83675495D01*
X53504804Y-83651227D01*
X53510765Y-83627428D01*
X53519030Y-83604329D01*
X53529520Y-83582150D01*
X53542132Y-83561107D01*
X53556747Y-83541401D01*
X53573223Y-83523223D01*
X53591401Y-83506747D01*
X53611107Y-83492132D01*
X53632150Y-83479520D01*
X53654329Y-83469030D01*
X53677428Y-83460765D01*
X53701227Y-83454804D01*
X53725495Y-83451204D01*
X53749999Y-83450000D01*
X54650001Y-83450000D01*
X54674505Y-83451204D01*
G37*
G36*
X52674505Y-81401204D02*
G01*
X52698773Y-81404804D01*
X52722572Y-81410765D01*
X52745671Y-81419030D01*
X52767850Y-81429520D01*
X52788893Y-81442132D01*
X52808599Y-81456747D01*
X52826777Y-81473223D01*
X52843253Y-81491401D01*
X52857868Y-81511107D01*
X52870480Y-81532150D01*
X52880970Y-81554329D01*
X52889235Y-81577428D01*
X52895196Y-81601227D01*
X52898796Y-81625495D01*
X52900000Y-81649999D01*
X52900000Y-82300001D01*
X52898796Y-82324505D01*
X52895196Y-82348773D01*
X52889235Y-82372572D01*
X52880970Y-82395671D01*
X52870480Y-82417850D01*
X52857868Y-82438893D01*
X52843253Y-82458599D01*
X52826777Y-82476777D01*
X52808599Y-82493253D01*
X52788893Y-82507868D01*
X52767850Y-82520480D01*
X52745671Y-82530970D01*
X52722572Y-82539235D01*
X52698773Y-82545196D01*
X52674505Y-82548796D01*
X52650001Y-82550000D01*
X51749999Y-82550000D01*
X51725495Y-82548796D01*
X51701227Y-82545196D01*
X51677428Y-82539235D01*
X51654329Y-82530970D01*
X51632150Y-82520480D01*
X51611107Y-82507868D01*
X51591401Y-82493253D01*
X51573223Y-82476777D01*
X51556747Y-82458599D01*
X51542132Y-82438893D01*
X51529520Y-82417850D01*
X51519030Y-82395671D01*
X51510765Y-82372572D01*
X51504804Y-82348773D01*
X51501204Y-82324505D01*
X51500000Y-82300001D01*
X51500000Y-81649999D01*
X51501204Y-81625495D01*
X51504804Y-81601227D01*
X51510765Y-81577428D01*
X51519030Y-81554329D01*
X51529520Y-81532150D01*
X51542132Y-81511107D01*
X51556747Y-81491401D01*
X51573223Y-81473223D01*
X51591401Y-81456747D01*
X51611107Y-81442132D01*
X51632150Y-81429520D01*
X51654329Y-81419030D01*
X51677428Y-81410765D01*
X51701227Y-81404804D01*
X51725495Y-81401204D01*
X51749999Y-81400000D01*
X52650001Y-81400000D01*
X52674505Y-81401204D01*
G37*
G36*
X52674505Y-83451204D02*
G01*
X52698773Y-83454804D01*
X52722572Y-83460765D01*
X52745671Y-83469030D01*
X52767850Y-83479520D01*
X52788893Y-83492132D01*
X52808599Y-83506747D01*
X52826777Y-83523223D01*
X52843253Y-83541401D01*
X52857868Y-83561107D01*
X52870480Y-83582150D01*
X52880970Y-83604329D01*
X52889235Y-83627428D01*
X52895196Y-83651227D01*
X52898796Y-83675495D01*
X52900000Y-83699999D01*
X52900000Y-84350001D01*
X52898796Y-84374505D01*
X52895196Y-84398773D01*
X52889235Y-84422572D01*
X52880970Y-84445671D01*
X52870480Y-84467850D01*
X52857868Y-84488893D01*
X52843253Y-84508599D01*
X52826777Y-84526777D01*
X52808599Y-84543253D01*
X52788893Y-84557868D01*
X52767850Y-84570480D01*
X52745671Y-84580970D01*
X52722572Y-84589235D01*
X52698773Y-84595196D01*
X52674505Y-84598796D01*
X52650001Y-84600000D01*
X51749999Y-84600000D01*
X51725495Y-84598796D01*
X51701227Y-84595196D01*
X51677428Y-84589235D01*
X51654329Y-84580970D01*
X51632150Y-84570480D01*
X51611107Y-84557868D01*
X51591401Y-84543253D01*
X51573223Y-84526777D01*
X51556747Y-84508599D01*
X51542132Y-84488893D01*
X51529520Y-84467850D01*
X51519030Y-84445671D01*
X51510765Y-84422572D01*
X51504804Y-84398773D01*
X51501204Y-84374505D01*
X51500000Y-84350001D01*
X51500000Y-83699999D01*
X51501204Y-83675495D01*
X51504804Y-83651227D01*
X51510765Y-83627428D01*
X51519030Y-83604329D01*
X51529520Y-83582150D01*
X51542132Y-83561107D01*
X51556747Y-83541401D01*
X51573223Y-83523223D01*
X51591401Y-83506747D01*
X51611107Y-83492132D01*
X51632150Y-83479520D01*
X51654329Y-83469030D01*
X51677428Y-83460765D01*
X51701227Y-83454804D01*
X51725495Y-83451204D01*
X51749999Y-83450000D01*
X52650001Y-83450000D01*
X52674505Y-83451204D01*
G37*
G36*
X50674505Y-81401204D02*
G01*
X50698773Y-81404804D01*
X50722572Y-81410765D01*
X50745671Y-81419030D01*
X50767850Y-81429520D01*
X50788893Y-81442132D01*
X50808599Y-81456747D01*
X50826777Y-81473223D01*
X50843253Y-81491401D01*
X50857868Y-81511107D01*
X50870480Y-81532150D01*
X50880970Y-81554329D01*
X50889235Y-81577428D01*
X50895196Y-81601227D01*
X50898796Y-81625495D01*
X50900000Y-81649999D01*
X50900000Y-82300001D01*
X50898796Y-82324505D01*
X50895196Y-82348773D01*
X50889235Y-82372572D01*
X50880970Y-82395671D01*
X50870480Y-82417850D01*
X50857868Y-82438893D01*
X50843253Y-82458599D01*
X50826777Y-82476777D01*
X50808599Y-82493253D01*
X50788893Y-82507868D01*
X50767850Y-82520480D01*
X50745671Y-82530970D01*
X50722572Y-82539235D01*
X50698773Y-82545196D01*
X50674505Y-82548796D01*
X50650001Y-82550000D01*
X49749999Y-82550000D01*
X49725495Y-82548796D01*
X49701227Y-82545196D01*
X49677428Y-82539235D01*
X49654329Y-82530970D01*
X49632150Y-82520480D01*
X49611107Y-82507868D01*
X49591401Y-82493253D01*
X49573223Y-82476777D01*
X49556747Y-82458599D01*
X49542132Y-82438893D01*
X49529520Y-82417850D01*
X49519030Y-82395671D01*
X49510765Y-82372572D01*
X49504804Y-82348773D01*
X49501204Y-82324505D01*
X49500000Y-82300001D01*
X49500000Y-81649999D01*
X49501204Y-81625495D01*
X49504804Y-81601227D01*
X49510765Y-81577428D01*
X49519030Y-81554329D01*
X49529520Y-81532150D01*
X49542132Y-81511107D01*
X49556747Y-81491401D01*
X49573223Y-81473223D01*
X49591401Y-81456747D01*
X49611107Y-81442132D01*
X49632150Y-81429520D01*
X49654329Y-81419030D01*
X49677428Y-81410765D01*
X49701227Y-81404804D01*
X49725495Y-81401204D01*
X49749999Y-81400000D01*
X50650001Y-81400000D01*
X50674505Y-81401204D01*
G37*
G36*
X50674505Y-83451204D02*
G01*
X50698773Y-83454804D01*
X50722572Y-83460765D01*
X50745671Y-83469030D01*
X50767850Y-83479520D01*
X50788893Y-83492132D01*
X50808599Y-83506747D01*
X50826777Y-83523223D01*
X50843253Y-83541401D01*
X50857868Y-83561107D01*
X50870480Y-83582150D01*
X50880970Y-83604329D01*
X50889235Y-83627428D01*
X50895196Y-83651227D01*
X50898796Y-83675495D01*
X50900000Y-83699999D01*
X50900000Y-84350001D01*
X50898796Y-84374505D01*
X50895196Y-84398773D01*
X50889235Y-84422572D01*
X50880970Y-84445671D01*
X50870480Y-84467850D01*
X50857868Y-84488893D01*
X50843253Y-84508599D01*
X50826777Y-84526777D01*
X50808599Y-84543253D01*
X50788893Y-84557868D01*
X50767850Y-84570480D01*
X50745671Y-84580970D01*
X50722572Y-84589235D01*
X50698773Y-84595196D01*
X50674505Y-84598796D01*
X50650001Y-84600000D01*
X49749999Y-84600000D01*
X49725495Y-84598796D01*
X49701227Y-84595196D01*
X49677428Y-84589235D01*
X49654329Y-84580970D01*
X49632150Y-84570480D01*
X49611107Y-84557868D01*
X49591401Y-84543253D01*
X49573223Y-84526777D01*
X49556747Y-84508599D01*
X49542132Y-84488893D01*
X49529520Y-84467850D01*
X49519030Y-84445671D01*
X49510765Y-84422572D01*
X49504804Y-84398773D01*
X49501204Y-84374505D01*
X49500000Y-84350001D01*
X49500000Y-83699999D01*
X49501204Y-83675495D01*
X49504804Y-83651227D01*
X49510765Y-83627428D01*
X49519030Y-83604329D01*
X49529520Y-83582150D01*
X49542132Y-83561107D01*
X49556747Y-83541401D01*
X49573223Y-83523223D01*
X49591401Y-83506747D01*
X49611107Y-83492132D01*
X49632150Y-83479520D01*
X49654329Y-83469030D01*
X49677428Y-83460765D01*
X49701227Y-83454804D01*
X49725495Y-83451204D01*
X49749999Y-83450000D01*
X50650001Y-83450000D01*
X50674505Y-83451204D01*
G37*
G36*
X42974505Y-82001204D02*
G01*
X42998773Y-82004804D01*
X43022572Y-82010765D01*
X43045671Y-82019030D01*
X43067850Y-82029520D01*
X43088893Y-82042132D01*
X43108599Y-82056747D01*
X43126777Y-82073223D01*
X43143253Y-82091401D01*
X43157868Y-82111107D01*
X43170480Y-82132150D01*
X43180970Y-82154329D01*
X43189235Y-82177428D01*
X43195196Y-82201227D01*
X43198796Y-82225495D01*
X43200000Y-82249999D01*
X43200000Y-82900001D01*
X43198796Y-82924505D01*
X43195196Y-82948773D01*
X43189235Y-82972572D01*
X43180970Y-82995671D01*
X43170480Y-83017850D01*
X43157868Y-83038893D01*
X43143253Y-83058599D01*
X43126777Y-83076777D01*
X43108599Y-83093253D01*
X43088893Y-83107868D01*
X43067850Y-83120480D01*
X43045671Y-83130970D01*
X43022572Y-83139235D01*
X42998773Y-83145196D01*
X42974505Y-83148796D01*
X42950001Y-83150000D01*
X42049999Y-83150000D01*
X42025495Y-83148796D01*
X42001227Y-83145196D01*
X41977428Y-83139235D01*
X41954329Y-83130970D01*
X41932150Y-83120480D01*
X41911107Y-83107868D01*
X41891401Y-83093253D01*
X41873223Y-83076777D01*
X41856747Y-83058599D01*
X41842132Y-83038893D01*
X41829520Y-83017850D01*
X41819030Y-82995671D01*
X41810765Y-82972572D01*
X41804804Y-82948773D01*
X41801204Y-82924505D01*
X41800000Y-82900001D01*
X41800000Y-82249999D01*
X41801204Y-82225495D01*
X41804804Y-82201227D01*
X41810765Y-82177428D01*
X41819030Y-82154329D01*
X41829520Y-82132150D01*
X41842132Y-82111107D01*
X41856747Y-82091401D01*
X41873223Y-82073223D01*
X41891401Y-82056747D01*
X41911107Y-82042132D01*
X41932150Y-82029520D01*
X41954329Y-82019030D01*
X41977428Y-82010765D01*
X42001227Y-82004804D01*
X42025495Y-82001204D01*
X42049999Y-82000000D01*
X42950001Y-82000000D01*
X42974505Y-82001204D01*
G37*
G36*
X42974505Y-84051204D02*
G01*
X42998773Y-84054804D01*
X43022572Y-84060765D01*
X43045671Y-84069030D01*
X43067850Y-84079520D01*
X43088893Y-84092132D01*
X43108599Y-84106747D01*
X43126777Y-84123223D01*
X43143253Y-84141401D01*
X43157868Y-84161107D01*
X43170480Y-84182150D01*
X43180970Y-84204329D01*
X43189235Y-84227428D01*
X43195196Y-84251227D01*
X43198796Y-84275495D01*
X43200000Y-84299999D01*
X43200000Y-84950001D01*
X43198796Y-84974505D01*
X43195196Y-84998773D01*
X43189235Y-85022572D01*
X43180970Y-85045671D01*
X43170480Y-85067850D01*
X43157868Y-85088893D01*
X43143253Y-85108599D01*
X43126777Y-85126777D01*
X43108599Y-85143253D01*
X43088893Y-85157868D01*
X43067850Y-85170480D01*
X43045671Y-85180970D01*
X43022572Y-85189235D01*
X42998773Y-85195196D01*
X42974505Y-85198796D01*
X42950001Y-85200000D01*
X42049999Y-85200000D01*
X42025495Y-85198796D01*
X42001227Y-85195196D01*
X41977428Y-85189235D01*
X41954329Y-85180970D01*
X41932150Y-85170480D01*
X41911107Y-85157868D01*
X41891401Y-85143253D01*
X41873223Y-85126777D01*
X41856747Y-85108599D01*
X41842132Y-85088893D01*
X41829520Y-85067850D01*
X41819030Y-85045671D01*
X41810765Y-85022572D01*
X41804804Y-84998773D01*
X41801204Y-84974505D01*
X41800000Y-84950001D01*
X41800000Y-84299999D01*
X41801204Y-84275495D01*
X41804804Y-84251227D01*
X41810765Y-84227428D01*
X41819030Y-84204329D01*
X41829520Y-84182150D01*
X41842132Y-84161107D01*
X41856747Y-84141401D01*
X41873223Y-84123223D01*
X41891401Y-84106747D01*
X41911107Y-84092132D01*
X41932150Y-84079520D01*
X41954329Y-84069030D01*
X41977428Y-84060765D01*
X42001227Y-84054804D01*
X42025495Y-84051204D01*
X42049999Y-84050000D01*
X42950001Y-84050000D01*
X42974505Y-84051204D01*
G37*
G36*
X46974505Y-84001204D02*
G01*
X46998773Y-84004804D01*
X47022572Y-84010765D01*
X47045671Y-84019030D01*
X47067850Y-84029520D01*
X47088893Y-84042132D01*
X47108599Y-84056747D01*
X47126777Y-84073223D01*
X47143253Y-84091401D01*
X47157868Y-84111107D01*
X47170480Y-84132150D01*
X47180970Y-84154329D01*
X47189235Y-84177428D01*
X47195196Y-84201227D01*
X47198796Y-84225495D01*
X47200000Y-84249999D01*
X47200000Y-85150001D01*
X47198796Y-85174505D01*
X47195196Y-85198773D01*
X47189235Y-85222572D01*
X47180970Y-85245671D01*
X47170480Y-85267850D01*
X47157868Y-85288893D01*
X47143253Y-85308599D01*
X47126777Y-85326777D01*
X47108599Y-85343253D01*
X47088893Y-85357868D01*
X47067850Y-85370480D01*
X47045671Y-85380970D01*
X47022572Y-85389235D01*
X46998773Y-85395196D01*
X46974505Y-85398796D01*
X46950001Y-85400000D01*
X46299999Y-85400000D01*
X46275495Y-85398796D01*
X46251227Y-85395196D01*
X46227428Y-85389235D01*
X46204329Y-85380970D01*
X46182150Y-85370480D01*
X46161107Y-85357868D01*
X46141401Y-85343253D01*
X46123223Y-85326777D01*
X46106747Y-85308599D01*
X46092132Y-85288893D01*
X46079520Y-85267850D01*
X46069030Y-85245671D01*
X46060765Y-85222572D01*
X46054804Y-85198773D01*
X46051204Y-85174505D01*
X46050000Y-85150001D01*
X46050000Y-84249999D01*
X46051204Y-84225495D01*
X46054804Y-84201227D01*
X46060765Y-84177428D01*
X46069030Y-84154329D01*
X46079520Y-84132150D01*
X46092132Y-84111107D01*
X46106747Y-84091401D01*
X46123223Y-84073223D01*
X46141401Y-84056747D01*
X46161107Y-84042132D01*
X46182150Y-84029520D01*
X46204329Y-84019030D01*
X46227428Y-84010765D01*
X46251227Y-84004804D01*
X46275495Y-84001204D01*
X46299999Y-84000000D01*
X46950001Y-84000000D01*
X46974505Y-84001204D01*
G37*
G36*
X44924505Y-84001204D02*
G01*
X44948773Y-84004804D01*
X44972572Y-84010765D01*
X44995671Y-84019030D01*
X45017850Y-84029520D01*
X45038893Y-84042132D01*
X45058599Y-84056747D01*
X45076777Y-84073223D01*
X45093253Y-84091401D01*
X45107868Y-84111107D01*
X45120480Y-84132150D01*
X45130970Y-84154329D01*
X45139235Y-84177428D01*
X45145196Y-84201227D01*
X45148796Y-84225495D01*
X45150000Y-84249999D01*
X45150000Y-85150001D01*
X45148796Y-85174505D01*
X45145196Y-85198773D01*
X45139235Y-85222572D01*
X45130970Y-85245671D01*
X45120480Y-85267850D01*
X45107868Y-85288893D01*
X45093253Y-85308599D01*
X45076777Y-85326777D01*
X45058599Y-85343253D01*
X45038893Y-85357868D01*
X45017850Y-85370480D01*
X44995671Y-85380970D01*
X44972572Y-85389235D01*
X44948773Y-85395196D01*
X44924505Y-85398796D01*
X44900001Y-85400000D01*
X44249999Y-85400000D01*
X44225495Y-85398796D01*
X44201227Y-85395196D01*
X44177428Y-85389235D01*
X44154329Y-85380970D01*
X44132150Y-85370480D01*
X44111107Y-85357868D01*
X44091401Y-85343253D01*
X44073223Y-85326777D01*
X44056747Y-85308599D01*
X44042132Y-85288893D01*
X44029520Y-85267850D01*
X44019030Y-85245671D01*
X44010765Y-85222572D01*
X44004804Y-85198773D01*
X44001204Y-85174505D01*
X44000000Y-85150001D01*
X44000000Y-84249999D01*
X44001204Y-84225495D01*
X44004804Y-84201227D01*
X44010765Y-84177428D01*
X44019030Y-84154329D01*
X44029520Y-84132150D01*
X44042132Y-84111107D01*
X44056747Y-84091401D01*
X44073223Y-84073223D01*
X44091401Y-84056747D01*
X44111107Y-84042132D01*
X44132150Y-84029520D01*
X44154329Y-84019030D01*
X44177428Y-84010765D01*
X44201227Y-84004804D01*
X44225495Y-84001204D01*
X44249999Y-84000000D01*
X44900001Y-84000000D01*
X44924505Y-84001204D01*
G37*
G36*
X46974505Y-82001204D02*
G01*
X46998773Y-82004804D01*
X47022572Y-82010765D01*
X47045671Y-82019030D01*
X47067850Y-82029520D01*
X47088893Y-82042132D01*
X47108599Y-82056747D01*
X47126777Y-82073223D01*
X47143253Y-82091401D01*
X47157868Y-82111107D01*
X47170480Y-82132150D01*
X47180970Y-82154329D01*
X47189235Y-82177428D01*
X47195196Y-82201227D01*
X47198796Y-82225495D01*
X47200000Y-82249999D01*
X47200000Y-83150001D01*
X47198796Y-83174505D01*
X47195196Y-83198773D01*
X47189235Y-83222572D01*
X47180970Y-83245671D01*
X47170480Y-83267850D01*
X47157868Y-83288893D01*
X47143253Y-83308599D01*
X47126777Y-83326777D01*
X47108599Y-83343253D01*
X47088893Y-83357868D01*
X47067850Y-83370480D01*
X47045671Y-83380970D01*
X47022572Y-83389235D01*
X46998773Y-83395196D01*
X46974505Y-83398796D01*
X46950001Y-83400000D01*
X46299999Y-83400000D01*
X46275495Y-83398796D01*
X46251227Y-83395196D01*
X46227428Y-83389235D01*
X46204329Y-83380970D01*
X46182150Y-83370480D01*
X46161107Y-83357868D01*
X46141401Y-83343253D01*
X46123223Y-83326777D01*
X46106747Y-83308599D01*
X46092132Y-83288893D01*
X46079520Y-83267850D01*
X46069030Y-83245671D01*
X46060765Y-83222572D01*
X46054804Y-83198773D01*
X46051204Y-83174505D01*
X46050000Y-83150001D01*
X46050000Y-82249999D01*
X46051204Y-82225495D01*
X46054804Y-82201227D01*
X46060765Y-82177428D01*
X46069030Y-82154329D01*
X46079520Y-82132150D01*
X46092132Y-82111107D01*
X46106747Y-82091401D01*
X46123223Y-82073223D01*
X46141401Y-82056747D01*
X46161107Y-82042132D01*
X46182150Y-82029520D01*
X46204329Y-82019030D01*
X46227428Y-82010765D01*
X46251227Y-82004804D01*
X46275495Y-82001204D01*
X46299999Y-82000000D01*
X46950001Y-82000000D01*
X46974505Y-82001204D01*
G37*
G36*
X44924505Y-82001204D02*
G01*
X44948773Y-82004804D01*
X44972572Y-82010765D01*
X44995671Y-82019030D01*
X45017850Y-82029520D01*
X45038893Y-82042132D01*
X45058599Y-82056747D01*
X45076777Y-82073223D01*
X45093253Y-82091401D01*
X45107868Y-82111107D01*
X45120480Y-82132150D01*
X45130970Y-82154329D01*
X45139235Y-82177428D01*
X45145196Y-82201227D01*
X45148796Y-82225495D01*
X45150000Y-82249999D01*
X45150000Y-83150001D01*
X45148796Y-83174505D01*
X45145196Y-83198773D01*
X45139235Y-83222572D01*
X45130970Y-83245671D01*
X45120480Y-83267850D01*
X45107868Y-83288893D01*
X45093253Y-83308599D01*
X45076777Y-83326777D01*
X45058599Y-83343253D01*
X45038893Y-83357868D01*
X45017850Y-83370480D01*
X44995671Y-83380970D01*
X44972572Y-83389235D01*
X44948773Y-83395196D01*
X44924505Y-83398796D01*
X44900001Y-83400000D01*
X44249999Y-83400000D01*
X44225495Y-83398796D01*
X44201227Y-83395196D01*
X44177428Y-83389235D01*
X44154329Y-83380970D01*
X44132150Y-83370480D01*
X44111107Y-83357868D01*
X44091401Y-83343253D01*
X44073223Y-83326777D01*
X44056747Y-83308599D01*
X44042132Y-83288893D01*
X44029520Y-83267850D01*
X44019030Y-83245671D01*
X44010765Y-83222572D01*
X44004804Y-83198773D01*
X44001204Y-83174505D01*
X44000000Y-83150001D01*
X44000000Y-82249999D01*
X44001204Y-82225495D01*
X44004804Y-82201227D01*
X44010765Y-82177428D01*
X44019030Y-82154329D01*
X44029520Y-82132150D01*
X44042132Y-82111107D01*
X44056747Y-82091401D01*
X44073223Y-82073223D01*
X44091401Y-82056747D01*
X44111107Y-82042132D01*
X44132150Y-82029520D01*
X44154329Y-82019030D01*
X44177428Y-82010765D01*
X44201227Y-82004804D01*
X44225495Y-82001204D01*
X44249999Y-82000000D01*
X44900001Y-82000000D01*
X44924505Y-82001204D01*
G37*
G36*
X46974505Y-80001204D02*
G01*
X46998773Y-80004804D01*
X47022572Y-80010765D01*
X47045671Y-80019030D01*
X47067850Y-80029520D01*
X47088893Y-80042132D01*
X47108599Y-80056747D01*
X47126777Y-80073223D01*
X47143253Y-80091401D01*
X47157868Y-80111107D01*
X47170480Y-80132150D01*
X47180970Y-80154329D01*
X47189235Y-80177428D01*
X47195196Y-80201227D01*
X47198796Y-80225495D01*
X47200000Y-80249999D01*
X47200000Y-81150001D01*
X47198796Y-81174505D01*
X47195196Y-81198773D01*
X47189235Y-81222572D01*
X47180970Y-81245671D01*
X47170480Y-81267850D01*
X47157868Y-81288893D01*
X47143253Y-81308599D01*
X47126777Y-81326777D01*
X47108599Y-81343253D01*
X47088893Y-81357868D01*
X47067850Y-81370480D01*
X47045671Y-81380970D01*
X47022572Y-81389235D01*
X46998773Y-81395196D01*
X46974505Y-81398796D01*
X46950001Y-81400000D01*
X46299999Y-81400000D01*
X46275495Y-81398796D01*
X46251227Y-81395196D01*
X46227428Y-81389235D01*
X46204329Y-81380970D01*
X46182150Y-81370480D01*
X46161107Y-81357868D01*
X46141401Y-81343253D01*
X46123223Y-81326777D01*
X46106747Y-81308599D01*
X46092132Y-81288893D01*
X46079520Y-81267850D01*
X46069030Y-81245671D01*
X46060765Y-81222572D01*
X46054804Y-81198773D01*
X46051204Y-81174505D01*
X46050000Y-81150001D01*
X46050000Y-80249999D01*
X46051204Y-80225495D01*
X46054804Y-80201227D01*
X46060765Y-80177428D01*
X46069030Y-80154329D01*
X46079520Y-80132150D01*
X46092132Y-80111107D01*
X46106747Y-80091401D01*
X46123223Y-80073223D01*
X46141401Y-80056747D01*
X46161107Y-80042132D01*
X46182150Y-80029520D01*
X46204329Y-80019030D01*
X46227428Y-80010765D01*
X46251227Y-80004804D01*
X46275495Y-80001204D01*
X46299999Y-80000000D01*
X46950001Y-80000000D01*
X46974505Y-80001204D01*
G37*
G36*
X44924505Y-80001204D02*
G01*
X44948773Y-80004804D01*
X44972572Y-80010765D01*
X44995671Y-80019030D01*
X45017850Y-80029520D01*
X45038893Y-80042132D01*
X45058599Y-80056747D01*
X45076777Y-80073223D01*
X45093253Y-80091401D01*
X45107868Y-80111107D01*
X45120480Y-80132150D01*
X45130970Y-80154329D01*
X45139235Y-80177428D01*
X45145196Y-80201227D01*
X45148796Y-80225495D01*
X45150000Y-80249999D01*
X45150000Y-81150001D01*
X45148796Y-81174505D01*
X45145196Y-81198773D01*
X45139235Y-81222572D01*
X45130970Y-81245671D01*
X45120480Y-81267850D01*
X45107868Y-81288893D01*
X45093253Y-81308599D01*
X45076777Y-81326777D01*
X45058599Y-81343253D01*
X45038893Y-81357868D01*
X45017850Y-81370480D01*
X44995671Y-81380970D01*
X44972572Y-81389235D01*
X44948773Y-81395196D01*
X44924505Y-81398796D01*
X44900001Y-81400000D01*
X44249999Y-81400000D01*
X44225495Y-81398796D01*
X44201227Y-81395196D01*
X44177428Y-81389235D01*
X44154329Y-81380970D01*
X44132150Y-81370480D01*
X44111107Y-81357868D01*
X44091401Y-81343253D01*
X44073223Y-81326777D01*
X44056747Y-81308599D01*
X44042132Y-81288893D01*
X44029520Y-81267850D01*
X44019030Y-81245671D01*
X44010765Y-81222572D01*
X44004804Y-81198773D01*
X44001204Y-81174505D01*
X44000000Y-81150001D01*
X44000000Y-80249999D01*
X44001204Y-80225495D01*
X44004804Y-80201227D01*
X44010765Y-80177428D01*
X44019030Y-80154329D01*
X44029520Y-80132150D01*
X44042132Y-80111107D01*
X44056747Y-80091401D01*
X44073223Y-80073223D01*
X44091401Y-80056747D01*
X44111107Y-80042132D01*
X44132150Y-80029520D01*
X44154329Y-80019030D01*
X44177428Y-80010765D01*
X44201227Y-80004804D01*
X44225495Y-80001204D01*
X44249999Y-80000000D01*
X44900001Y-80000000D01*
X44924505Y-80001204D01*
G37*
D14*
X42746000Y-43142000D03*
X43696000Y-45142000D03*
X41796000Y-45142000D03*
D11*
G36*
X51574504Y-42251204D02*
G01*
X51598773Y-42254804D01*
X51622571Y-42260765D01*
X51645671Y-42269030D01*
X51667849Y-42279520D01*
X51688893Y-42292133D01*
X51708598Y-42306747D01*
X51726777Y-42323223D01*
X51743253Y-42341402D01*
X51757867Y-42361107D01*
X51770480Y-42382151D01*
X51780970Y-42404329D01*
X51789235Y-42427429D01*
X51795196Y-42451227D01*
X51798796Y-42475496D01*
X51800000Y-42500000D01*
X51800000Y-45500000D01*
X51798796Y-45524504D01*
X51795196Y-45548773D01*
X51789235Y-45572571D01*
X51780970Y-45595671D01*
X51770480Y-45617849D01*
X51757867Y-45638893D01*
X51743253Y-45658598D01*
X51726777Y-45676777D01*
X51708598Y-45693253D01*
X51688893Y-45707867D01*
X51667849Y-45720480D01*
X51645671Y-45730970D01*
X51622571Y-45739235D01*
X51598773Y-45745196D01*
X51574504Y-45748796D01*
X51550000Y-45750000D01*
X50450000Y-45750000D01*
X50425496Y-45748796D01*
X50401227Y-45745196D01*
X50377429Y-45739235D01*
X50354329Y-45730970D01*
X50332151Y-45720480D01*
X50311107Y-45707867D01*
X50291402Y-45693253D01*
X50273223Y-45676777D01*
X50256747Y-45658598D01*
X50242133Y-45638893D01*
X50229520Y-45617849D01*
X50219030Y-45595671D01*
X50210765Y-45572571D01*
X50204804Y-45548773D01*
X50201204Y-45524504D01*
X50200000Y-45500000D01*
X50200000Y-42500000D01*
X50201204Y-42475496D01*
X50204804Y-42451227D01*
X50210765Y-42427429D01*
X50219030Y-42404329D01*
X50229520Y-42382151D01*
X50242133Y-42361107D01*
X50256747Y-42341402D01*
X50273223Y-42323223D01*
X50291402Y-42306747D01*
X50311107Y-42292133D01*
X50332151Y-42279520D01*
X50354329Y-42269030D01*
X50377429Y-42260765D01*
X50401227Y-42254804D01*
X50425496Y-42251204D01*
X50450000Y-42250000D01*
X51550000Y-42250000D01*
X51574504Y-42251204D01*
G37*
G36*
X51574504Y-47651204D02*
G01*
X51598773Y-47654804D01*
X51622571Y-47660765D01*
X51645671Y-47669030D01*
X51667849Y-47679520D01*
X51688893Y-47692133D01*
X51708598Y-47706747D01*
X51726777Y-47723223D01*
X51743253Y-47741402D01*
X51757867Y-47761107D01*
X51770480Y-47782151D01*
X51780970Y-47804329D01*
X51789235Y-47827429D01*
X51795196Y-47851227D01*
X51798796Y-47875496D01*
X51800000Y-47900000D01*
X51800000Y-50900000D01*
X51798796Y-50924504D01*
X51795196Y-50948773D01*
X51789235Y-50972571D01*
X51780970Y-50995671D01*
X51770480Y-51017849D01*
X51757867Y-51038893D01*
X51743253Y-51058598D01*
X51726777Y-51076777D01*
X51708598Y-51093253D01*
X51688893Y-51107867D01*
X51667849Y-51120480D01*
X51645671Y-51130970D01*
X51622571Y-51139235D01*
X51598773Y-51145196D01*
X51574504Y-51148796D01*
X51550000Y-51150000D01*
X50450000Y-51150000D01*
X50425496Y-51148796D01*
X50401227Y-51145196D01*
X50377429Y-51139235D01*
X50354329Y-51130970D01*
X50332151Y-51120480D01*
X50311107Y-51107867D01*
X50291402Y-51093253D01*
X50273223Y-51076777D01*
X50256747Y-51058598D01*
X50242133Y-51038893D01*
X50229520Y-51017849D01*
X50219030Y-50995671D01*
X50210765Y-50972571D01*
X50204804Y-50948773D01*
X50201204Y-50924504D01*
X50200000Y-50900000D01*
X50200000Y-47900000D01*
X50201204Y-47875496D01*
X50204804Y-47851227D01*
X50210765Y-47827429D01*
X50219030Y-47804329D01*
X50229520Y-47782151D01*
X50242133Y-47761107D01*
X50256747Y-47741402D01*
X50273223Y-47723223D01*
X50291402Y-47706747D01*
X50311107Y-47692133D01*
X50332151Y-47679520D01*
X50354329Y-47669030D01*
X50377429Y-47660765D01*
X50401227Y-47654804D01*
X50425496Y-47651204D01*
X50450000Y-47650000D01*
X51550000Y-47650000D01*
X51574504Y-47651204D01*
G37*
G36*
X43924505Y-46901204D02*
G01*
X43948773Y-46904804D01*
X43972572Y-46910765D01*
X43995671Y-46919030D01*
X44017850Y-46929520D01*
X44038893Y-46942132D01*
X44058599Y-46956747D01*
X44076777Y-46973223D01*
X44093253Y-46991401D01*
X44107868Y-47011107D01*
X44120480Y-47032150D01*
X44130970Y-47054329D01*
X44139235Y-47077428D01*
X44145196Y-47101227D01*
X44148796Y-47125495D01*
X44150000Y-47149999D01*
X44150000Y-48050001D01*
X44148796Y-48074505D01*
X44145196Y-48098773D01*
X44139235Y-48122572D01*
X44130970Y-48145671D01*
X44120480Y-48167850D01*
X44107868Y-48188893D01*
X44093253Y-48208599D01*
X44076777Y-48226777D01*
X44058599Y-48243253D01*
X44038893Y-48257868D01*
X44017850Y-48270480D01*
X43995671Y-48280970D01*
X43972572Y-48289235D01*
X43948773Y-48295196D01*
X43924505Y-48298796D01*
X43900001Y-48300000D01*
X43249999Y-48300000D01*
X43225495Y-48298796D01*
X43201227Y-48295196D01*
X43177428Y-48289235D01*
X43154329Y-48280970D01*
X43132150Y-48270480D01*
X43111107Y-48257868D01*
X43091401Y-48243253D01*
X43073223Y-48226777D01*
X43056747Y-48208599D01*
X43042132Y-48188893D01*
X43029520Y-48167850D01*
X43019030Y-48145671D01*
X43010765Y-48122572D01*
X43004804Y-48098773D01*
X43001204Y-48074505D01*
X43000000Y-48050001D01*
X43000000Y-47149999D01*
X43001204Y-47125495D01*
X43004804Y-47101227D01*
X43010765Y-47077428D01*
X43019030Y-47054329D01*
X43029520Y-47032150D01*
X43042132Y-47011107D01*
X43056747Y-46991401D01*
X43073223Y-46973223D01*
X43091401Y-46956747D01*
X43111107Y-46942132D01*
X43132150Y-46929520D01*
X43154329Y-46919030D01*
X43177428Y-46910765D01*
X43201227Y-46904804D01*
X43225495Y-46901204D01*
X43249999Y-46900000D01*
X43900001Y-46900000D01*
X43924505Y-46901204D01*
G37*
G36*
X45974505Y-46901204D02*
G01*
X45998773Y-46904804D01*
X46022572Y-46910765D01*
X46045671Y-46919030D01*
X46067850Y-46929520D01*
X46088893Y-46942132D01*
X46108599Y-46956747D01*
X46126777Y-46973223D01*
X46143253Y-46991401D01*
X46157868Y-47011107D01*
X46170480Y-47032150D01*
X46180970Y-47054329D01*
X46189235Y-47077428D01*
X46195196Y-47101227D01*
X46198796Y-47125495D01*
X46200000Y-47149999D01*
X46200000Y-48050001D01*
X46198796Y-48074505D01*
X46195196Y-48098773D01*
X46189235Y-48122572D01*
X46180970Y-48145671D01*
X46170480Y-48167850D01*
X46157868Y-48188893D01*
X46143253Y-48208599D01*
X46126777Y-48226777D01*
X46108599Y-48243253D01*
X46088893Y-48257868D01*
X46067850Y-48270480D01*
X46045671Y-48280970D01*
X46022572Y-48289235D01*
X45998773Y-48295196D01*
X45974505Y-48298796D01*
X45950001Y-48300000D01*
X45299999Y-48300000D01*
X45275495Y-48298796D01*
X45251227Y-48295196D01*
X45227428Y-48289235D01*
X45204329Y-48280970D01*
X45182150Y-48270480D01*
X45161107Y-48257868D01*
X45141401Y-48243253D01*
X45123223Y-48226777D01*
X45106747Y-48208599D01*
X45092132Y-48188893D01*
X45079520Y-48167850D01*
X45069030Y-48145671D01*
X45060765Y-48122572D01*
X45054804Y-48098773D01*
X45051204Y-48074505D01*
X45050000Y-48050001D01*
X45050000Y-47149999D01*
X45051204Y-47125495D01*
X45054804Y-47101227D01*
X45060765Y-47077428D01*
X45069030Y-47054329D01*
X45079520Y-47032150D01*
X45092132Y-47011107D01*
X45106747Y-46991401D01*
X45123223Y-46973223D01*
X45141401Y-46956747D01*
X45161107Y-46942132D01*
X45182150Y-46929520D01*
X45204329Y-46919030D01*
X45227428Y-46910765D01*
X45251227Y-46904804D01*
X45275495Y-46901204D01*
X45299999Y-46900000D01*
X45950001Y-46900000D01*
X45974505Y-46901204D01*
G37*
G36*
X40124505Y-46901204D02*
G01*
X40148773Y-46904804D01*
X40172572Y-46910765D01*
X40195671Y-46919030D01*
X40217850Y-46929520D01*
X40238893Y-46942132D01*
X40258599Y-46956747D01*
X40276777Y-46973223D01*
X40293253Y-46991401D01*
X40307868Y-47011107D01*
X40320480Y-47032150D01*
X40330970Y-47054329D01*
X40339235Y-47077428D01*
X40345196Y-47101227D01*
X40348796Y-47125495D01*
X40350000Y-47149999D01*
X40350000Y-48050001D01*
X40348796Y-48074505D01*
X40345196Y-48098773D01*
X40339235Y-48122572D01*
X40330970Y-48145671D01*
X40320480Y-48167850D01*
X40307868Y-48188893D01*
X40293253Y-48208599D01*
X40276777Y-48226777D01*
X40258599Y-48243253D01*
X40238893Y-48257868D01*
X40217850Y-48270480D01*
X40195671Y-48280970D01*
X40172572Y-48289235D01*
X40148773Y-48295196D01*
X40124505Y-48298796D01*
X40100001Y-48300000D01*
X39449999Y-48300000D01*
X39425495Y-48298796D01*
X39401227Y-48295196D01*
X39377428Y-48289235D01*
X39354329Y-48280970D01*
X39332150Y-48270480D01*
X39311107Y-48257868D01*
X39291401Y-48243253D01*
X39273223Y-48226777D01*
X39256747Y-48208599D01*
X39242132Y-48188893D01*
X39229520Y-48167850D01*
X39219030Y-48145671D01*
X39210765Y-48122572D01*
X39204804Y-48098773D01*
X39201204Y-48074505D01*
X39200000Y-48050001D01*
X39200000Y-47149999D01*
X39201204Y-47125495D01*
X39204804Y-47101227D01*
X39210765Y-47077428D01*
X39219030Y-47054329D01*
X39229520Y-47032150D01*
X39242132Y-47011107D01*
X39256747Y-46991401D01*
X39273223Y-46973223D01*
X39291401Y-46956747D01*
X39311107Y-46942132D01*
X39332150Y-46929520D01*
X39354329Y-46919030D01*
X39377428Y-46910765D01*
X39401227Y-46904804D01*
X39425495Y-46901204D01*
X39449999Y-46900000D01*
X40100001Y-46900000D01*
X40124505Y-46901204D01*
G37*
G36*
X42174505Y-46901204D02*
G01*
X42198773Y-46904804D01*
X42222572Y-46910765D01*
X42245671Y-46919030D01*
X42267850Y-46929520D01*
X42288893Y-46942132D01*
X42308599Y-46956747D01*
X42326777Y-46973223D01*
X42343253Y-46991401D01*
X42357868Y-47011107D01*
X42370480Y-47032150D01*
X42380970Y-47054329D01*
X42389235Y-47077428D01*
X42395196Y-47101227D01*
X42398796Y-47125495D01*
X42400000Y-47149999D01*
X42400000Y-48050001D01*
X42398796Y-48074505D01*
X42395196Y-48098773D01*
X42389235Y-48122572D01*
X42380970Y-48145671D01*
X42370480Y-48167850D01*
X42357868Y-48188893D01*
X42343253Y-48208599D01*
X42326777Y-48226777D01*
X42308599Y-48243253D01*
X42288893Y-48257868D01*
X42267850Y-48270480D01*
X42245671Y-48280970D01*
X42222572Y-48289235D01*
X42198773Y-48295196D01*
X42174505Y-48298796D01*
X42150001Y-48300000D01*
X41499999Y-48300000D01*
X41475495Y-48298796D01*
X41451227Y-48295196D01*
X41427428Y-48289235D01*
X41404329Y-48280970D01*
X41382150Y-48270480D01*
X41361107Y-48257868D01*
X41341401Y-48243253D01*
X41323223Y-48226777D01*
X41306747Y-48208599D01*
X41292132Y-48188893D01*
X41279520Y-48167850D01*
X41269030Y-48145671D01*
X41260765Y-48122572D01*
X41254804Y-48098773D01*
X41251204Y-48074505D01*
X41250000Y-48050001D01*
X41250000Y-47149999D01*
X41251204Y-47125495D01*
X41254804Y-47101227D01*
X41260765Y-47077428D01*
X41269030Y-47054329D01*
X41279520Y-47032150D01*
X41292132Y-47011107D01*
X41306747Y-46991401D01*
X41323223Y-46973223D01*
X41341401Y-46956747D01*
X41361107Y-46942132D01*
X41382150Y-46929520D01*
X41404329Y-46919030D01*
X41427428Y-46910765D01*
X41451227Y-46904804D01*
X41475495Y-46901204D01*
X41499999Y-46900000D01*
X42150001Y-46900000D01*
X42174505Y-46901204D01*
G37*
G36*
X38274505Y-72101204D02*
G01*
X38298773Y-72104804D01*
X38322572Y-72110765D01*
X38345671Y-72119030D01*
X38367850Y-72129520D01*
X38388893Y-72142132D01*
X38408599Y-72156747D01*
X38426777Y-72173223D01*
X38443253Y-72191401D01*
X38457868Y-72211107D01*
X38470480Y-72232150D01*
X38480970Y-72254329D01*
X38489235Y-72277428D01*
X38495196Y-72301227D01*
X38498796Y-72325495D01*
X38500000Y-72349999D01*
X38500000Y-73000001D01*
X38498796Y-73024505D01*
X38495196Y-73048773D01*
X38489235Y-73072572D01*
X38480970Y-73095671D01*
X38470480Y-73117850D01*
X38457868Y-73138893D01*
X38443253Y-73158599D01*
X38426777Y-73176777D01*
X38408599Y-73193253D01*
X38388893Y-73207868D01*
X38367850Y-73220480D01*
X38345671Y-73230970D01*
X38322572Y-73239235D01*
X38298773Y-73245196D01*
X38274505Y-73248796D01*
X38250001Y-73250000D01*
X37349999Y-73250000D01*
X37325495Y-73248796D01*
X37301227Y-73245196D01*
X37277428Y-73239235D01*
X37254329Y-73230970D01*
X37232150Y-73220480D01*
X37211107Y-73207868D01*
X37191401Y-73193253D01*
X37173223Y-73176777D01*
X37156747Y-73158599D01*
X37142132Y-73138893D01*
X37129520Y-73117850D01*
X37119030Y-73095671D01*
X37110765Y-73072572D01*
X37104804Y-73048773D01*
X37101204Y-73024505D01*
X37100000Y-73000001D01*
X37100000Y-72349999D01*
X37101204Y-72325495D01*
X37104804Y-72301227D01*
X37110765Y-72277428D01*
X37119030Y-72254329D01*
X37129520Y-72232150D01*
X37142132Y-72211107D01*
X37156747Y-72191401D01*
X37173223Y-72173223D01*
X37191401Y-72156747D01*
X37211107Y-72142132D01*
X37232150Y-72129520D01*
X37254329Y-72119030D01*
X37277428Y-72110765D01*
X37301227Y-72104804D01*
X37325495Y-72101204D01*
X37349999Y-72100000D01*
X38250001Y-72100000D01*
X38274505Y-72101204D01*
G37*
G36*
X38274505Y-74151204D02*
G01*
X38298773Y-74154804D01*
X38322572Y-74160765D01*
X38345671Y-74169030D01*
X38367850Y-74179520D01*
X38388893Y-74192132D01*
X38408599Y-74206747D01*
X38426777Y-74223223D01*
X38443253Y-74241401D01*
X38457868Y-74261107D01*
X38470480Y-74282150D01*
X38480970Y-74304329D01*
X38489235Y-74327428D01*
X38495196Y-74351227D01*
X38498796Y-74375495D01*
X38500000Y-74399999D01*
X38500000Y-75050001D01*
X38498796Y-75074505D01*
X38495196Y-75098773D01*
X38489235Y-75122572D01*
X38480970Y-75145671D01*
X38470480Y-75167850D01*
X38457868Y-75188893D01*
X38443253Y-75208599D01*
X38426777Y-75226777D01*
X38408599Y-75243253D01*
X38388893Y-75257868D01*
X38367850Y-75270480D01*
X38345671Y-75280970D01*
X38322572Y-75289235D01*
X38298773Y-75295196D01*
X38274505Y-75298796D01*
X38250001Y-75300000D01*
X37349999Y-75300000D01*
X37325495Y-75298796D01*
X37301227Y-75295196D01*
X37277428Y-75289235D01*
X37254329Y-75280970D01*
X37232150Y-75270480D01*
X37211107Y-75257868D01*
X37191401Y-75243253D01*
X37173223Y-75226777D01*
X37156747Y-75208599D01*
X37142132Y-75188893D01*
X37129520Y-75167850D01*
X37119030Y-75145671D01*
X37110765Y-75122572D01*
X37104804Y-75098773D01*
X37101204Y-75074505D01*
X37100000Y-75050001D01*
X37100000Y-74399999D01*
X37101204Y-74375495D01*
X37104804Y-74351227D01*
X37110765Y-74327428D01*
X37119030Y-74304329D01*
X37129520Y-74282150D01*
X37142132Y-74261107D01*
X37156747Y-74241401D01*
X37173223Y-74223223D01*
X37191401Y-74206747D01*
X37211107Y-74192132D01*
X37232150Y-74179520D01*
X37254329Y-74169030D01*
X37277428Y-74160765D01*
X37301227Y-74154804D01*
X37325495Y-74151204D01*
X37349999Y-74150000D01*
X38250001Y-74150000D01*
X38274505Y-74151204D01*
G37*
G36*
X38274505Y-85551204D02*
G01*
X38298773Y-85554804D01*
X38322572Y-85560765D01*
X38345671Y-85569030D01*
X38367850Y-85579520D01*
X38388893Y-85592132D01*
X38408599Y-85606747D01*
X38426777Y-85623223D01*
X38443253Y-85641401D01*
X38457868Y-85661107D01*
X38470480Y-85682150D01*
X38480970Y-85704329D01*
X38489235Y-85727428D01*
X38495196Y-85751227D01*
X38498796Y-85775495D01*
X38500000Y-85799999D01*
X38500000Y-86450001D01*
X38498796Y-86474505D01*
X38495196Y-86498773D01*
X38489235Y-86522572D01*
X38480970Y-86545671D01*
X38470480Y-86567850D01*
X38457868Y-86588893D01*
X38443253Y-86608599D01*
X38426777Y-86626777D01*
X38408599Y-86643253D01*
X38388893Y-86657868D01*
X38367850Y-86670480D01*
X38345671Y-86680970D01*
X38322572Y-86689235D01*
X38298773Y-86695196D01*
X38274505Y-86698796D01*
X38250001Y-86700000D01*
X37349999Y-86700000D01*
X37325495Y-86698796D01*
X37301227Y-86695196D01*
X37277428Y-86689235D01*
X37254329Y-86680970D01*
X37232150Y-86670480D01*
X37211107Y-86657868D01*
X37191401Y-86643253D01*
X37173223Y-86626777D01*
X37156747Y-86608599D01*
X37142132Y-86588893D01*
X37129520Y-86567850D01*
X37119030Y-86545671D01*
X37110765Y-86522572D01*
X37104804Y-86498773D01*
X37101204Y-86474505D01*
X37100000Y-86450001D01*
X37100000Y-85799999D01*
X37101204Y-85775495D01*
X37104804Y-85751227D01*
X37110765Y-85727428D01*
X37119030Y-85704329D01*
X37129520Y-85682150D01*
X37142132Y-85661107D01*
X37156747Y-85641401D01*
X37173223Y-85623223D01*
X37191401Y-85606747D01*
X37211107Y-85592132D01*
X37232150Y-85579520D01*
X37254329Y-85569030D01*
X37277428Y-85560765D01*
X37301227Y-85554804D01*
X37325495Y-85551204D01*
X37349999Y-85550000D01*
X38250001Y-85550000D01*
X38274505Y-85551204D01*
G37*
G36*
X38274505Y-83501204D02*
G01*
X38298773Y-83504804D01*
X38322572Y-83510765D01*
X38345671Y-83519030D01*
X38367850Y-83529520D01*
X38388893Y-83542132D01*
X38408599Y-83556747D01*
X38426777Y-83573223D01*
X38443253Y-83591401D01*
X38457868Y-83611107D01*
X38470480Y-83632150D01*
X38480970Y-83654329D01*
X38489235Y-83677428D01*
X38495196Y-83701227D01*
X38498796Y-83725495D01*
X38500000Y-83749999D01*
X38500000Y-84400001D01*
X38498796Y-84424505D01*
X38495196Y-84448773D01*
X38489235Y-84472572D01*
X38480970Y-84495671D01*
X38470480Y-84517850D01*
X38457868Y-84538893D01*
X38443253Y-84558599D01*
X38426777Y-84576777D01*
X38408599Y-84593253D01*
X38388893Y-84607868D01*
X38367850Y-84620480D01*
X38345671Y-84630970D01*
X38322572Y-84639235D01*
X38298773Y-84645196D01*
X38274505Y-84648796D01*
X38250001Y-84650000D01*
X37349999Y-84650000D01*
X37325495Y-84648796D01*
X37301227Y-84645196D01*
X37277428Y-84639235D01*
X37254329Y-84630970D01*
X37232150Y-84620480D01*
X37211107Y-84607868D01*
X37191401Y-84593253D01*
X37173223Y-84576777D01*
X37156747Y-84558599D01*
X37142132Y-84538893D01*
X37129520Y-84517850D01*
X37119030Y-84495671D01*
X37110765Y-84472572D01*
X37104804Y-84448773D01*
X37101204Y-84424505D01*
X37100000Y-84400001D01*
X37100000Y-83749999D01*
X37101204Y-83725495D01*
X37104804Y-83701227D01*
X37110765Y-83677428D01*
X37119030Y-83654329D01*
X37129520Y-83632150D01*
X37142132Y-83611107D01*
X37156747Y-83591401D01*
X37173223Y-83573223D01*
X37191401Y-83556747D01*
X37211107Y-83542132D01*
X37232150Y-83529520D01*
X37254329Y-83519030D01*
X37277428Y-83510765D01*
X37301227Y-83504804D01*
X37325495Y-83501204D01*
X37349999Y-83500000D01*
X38250001Y-83500000D01*
X38274505Y-83501204D01*
G37*
G36*
X38274505Y-93151204D02*
G01*
X38298773Y-93154804D01*
X38322572Y-93160765D01*
X38345671Y-93169030D01*
X38367850Y-93179520D01*
X38388893Y-93192132D01*
X38408599Y-93206747D01*
X38426777Y-93223223D01*
X38443253Y-93241401D01*
X38457868Y-93261107D01*
X38470480Y-93282150D01*
X38480970Y-93304329D01*
X38489235Y-93327428D01*
X38495196Y-93351227D01*
X38498796Y-93375495D01*
X38500000Y-93399999D01*
X38500000Y-94050001D01*
X38498796Y-94074505D01*
X38495196Y-94098773D01*
X38489235Y-94122572D01*
X38480970Y-94145671D01*
X38470480Y-94167850D01*
X38457868Y-94188893D01*
X38443253Y-94208599D01*
X38426777Y-94226777D01*
X38408599Y-94243253D01*
X38388893Y-94257868D01*
X38367850Y-94270480D01*
X38345671Y-94280970D01*
X38322572Y-94289235D01*
X38298773Y-94295196D01*
X38274505Y-94298796D01*
X38250001Y-94300000D01*
X37349999Y-94300000D01*
X37325495Y-94298796D01*
X37301227Y-94295196D01*
X37277428Y-94289235D01*
X37254329Y-94280970D01*
X37232150Y-94270480D01*
X37211107Y-94257868D01*
X37191401Y-94243253D01*
X37173223Y-94226777D01*
X37156747Y-94208599D01*
X37142132Y-94188893D01*
X37129520Y-94167850D01*
X37119030Y-94145671D01*
X37110765Y-94122572D01*
X37104804Y-94098773D01*
X37101204Y-94074505D01*
X37100000Y-94050001D01*
X37100000Y-93399999D01*
X37101204Y-93375495D01*
X37104804Y-93351227D01*
X37110765Y-93327428D01*
X37119030Y-93304329D01*
X37129520Y-93282150D01*
X37142132Y-93261107D01*
X37156747Y-93241401D01*
X37173223Y-93223223D01*
X37191401Y-93206747D01*
X37211107Y-93192132D01*
X37232150Y-93179520D01*
X37254329Y-93169030D01*
X37277428Y-93160765D01*
X37301227Y-93154804D01*
X37325495Y-93151204D01*
X37349999Y-93150000D01*
X38250001Y-93150000D01*
X38274505Y-93151204D01*
G37*
G36*
X38274505Y-91101204D02*
G01*
X38298773Y-91104804D01*
X38322572Y-91110765D01*
X38345671Y-91119030D01*
X38367850Y-91129520D01*
X38388893Y-91142132D01*
X38408599Y-91156747D01*
X38426777Y-91173223D01*
X38443253Y-91191401D01*
X38457868Y-91211107D01*
X38470480Y-91232150D01*
X38480970Y-91254329D01*
X38489235Y-91277428D01*
X38495196Y-91301227D01*
X38498796Y-91325495D01*
X38500000Y-91349999D01*
X38500000Y-92000001D01*
X38498796Y-92024505D01*
X38495196Y-92048773D01*
X38489235Y-92072572D01*
X38480970Y-92095671D01*
X38470480Y-92117850D01*
X38457868Y-92138893D01*
X38443253Y-92158599D01*
X38426777Y-92176777D01*
X38408599Y-92193253D01*
X38388893Y-92207868D01*
X38367850Y-92220480D01*
X38345671Y-92230970D01*
X38322572Y-92239235D01*
X38298773Y-92245196D01*
X38274505Y-92248796D01*
X38250001Y-92250000D01*
X37349999Y-92250000D01*
X37325495Y-92248796D01*
X37301227Y-92245196D01*
X37277428Y-92239235D01*
X37254329Y-92230970D01*
X37232150Y-92220480D01*
X37211107Y-92207868D01*
X37191401Y-92193253D01*
X37173223Y-92176777D01*
X37156747Y-92158599D01*
X37142132Y-92138893D01*
X37129520Y-92117850D01*
X37119030Y-92095671D01*
X37110765Y-92072572D01*
X37104804Y-92048773D01*
X37101204Y-92024505D01*
X37100000Y-92000001D01*
X37100000Y-91349999D01*
X37101204Y-91325495D01*
X37104804Y-91301227D01*
X37110765Y-91277428D01*
X37119030Y-91254329D01*
X37129520Y-91232150D01*
X37142132Y-91211107D01*
X37156747Y-91191401D01*
X37173223Y-91173223D01*
X37191401Y-91156747D01*
X37211107Y-91142132D01*
X37232150Y-91129520D01*
X37254329Y-91119030D01*
X37277428Y-91110765D01*
X37301227Y-91104804D01*
X37325495Y-91101204D01*
X37349999Y-91100000D01*
X38250001Y-91100000D01*
X38274505Y-91101204D01*
G37*
G36*
X38274505Y-75901204D02*
G01*
X38298773Y-75904804D01*
X38322572Y-75910765D01*
X38345671Y-75919030D01*
X38367850Y-75929520D01*
X38388893Y-75942132D01*
X38408599Y-75956747D01*
X38426777Y-75973223D01*
X38443253Y-75991401D01*
X38457868Y-76011107D01*
X38470480Y-76032150D01*
X38480970Y-76054329D01*
X38489235Y-76077428D01*
X38495196Y-76101227D01*
X38498796Y-76125495D01*
X38500000Y-76149999D01*
X38500000Y-76800001D01*
X38498796Y-76824505D01*
X38495196Y-76848773D01*
X38489235Y-76872572D01*
X38480970Y-76895671D01*
X38470480Y-76917850D01*
X38457868Y-76938893D01*
X38443253Y-76958599D01*
X38426777Y-76976777D01*
X38408599Y-76993253D01*
X38388893Y-77007868D01*
X38367850Y-77020480D01*
X38345671Y-77030970D01*
X38322572Y-77039235D01*
X38298773Y-77045196D01*
X38274505Y-77048796D01*
X38250001Y-77050000D01*
X37349999Y-77050000D01*
X37325495Y-77048796D01*
X37301227Y-77045196D01*
X37277428Y-77039235D01*
X37254329Y-77030970D01*
X37232150Y-77020480D01*
X37211107Y-77007868D01*
X37191401Y-76993253D01*
X37173223Y-76976777D01*
X37156747Y-76958599D01*
X37142132Y-76938893D01*
X37129520Y-76917850D01*
X37119030Y-76895671D01*
X37110765Y-76872572D01*
X37104804Y-76848773D01*
X37101204Y-76824505D01*
X37100000Y-76800001D01*
X37100000Y-76149999D01*
X37101204Y-76125495D01*
X37104804Y-76101227D01*
X37110765Y-76077428D01*
X37119030Y-76054329D01*
X37129520Y-76032150D01*
X37142132Y-76011107D01*
X37156747Y-75991401D01*
X37173223Y-75973223D01*
X37191401Y-75956747D01*
X37211107Y-75942132D01*
X37232150Y-75929520D01*
X37254329Y-75919030D01*
X37277428Y-75910765D01*
X37301227Y-75904804D01*
X37325495Y-75901204D01*
X37349999Y-75900000D01*
X38250001Y-75900000D01*
X38274505Y-75901204D01*
G37*
G36*
X38274505Y-77951204D02*
G01*
X38298773Y-77954804D01*
X38322572Y-77960765D01*
X38345671Y-77969030D01*
X38367850Y-77979520D01*
X38388893Y-77992132D01*
X38408599Y-78006747D01*
X38426777Y-78023223D01*
X38443253Y-78041401D01*
X38457868Y-78061107D01*
X38470480Y-78082150D01*
X38480970Y-78104329D01*
X38489235Y-78127428D01*
X38495196Y-78151227D01*
X38498796Y-78175495D01*
X38500000Y-78199999D01*
X38500000Y-78850001D01*
X38498796Y-78874505D01*
X38495196Y-78898773D01*
X38489235Y-78922572D01*
X38480970Y-78945671D01*
X38470480Y-78967850D01*
X38457868Y-78988893D01*
X38443253Y-79008599D01*
X38426777Y-79026777D01*
X38408599Y-79043253D01*
X38388893Y-79057868D01*
X38367850Y-79070480D01*
X38345671Y-79080970D01*
X38322572Y-79089235D01*
X38298773Y-79095196D01*
X38274505Y-79098796D01*
X38250001Y-79100000D01*
X37349999Y-79100000D01*
X37325495Y-79098796D01*
X37301227Y-79095196D01*
X37277428Y-79089235D01*
X37254329Y-79080970D01*
X37232150Y-79070480D01*
X37211107Y-79057868D01*
X37191401Y-79043253D01*
X37173223Y-79026777D01*
X37156747Y-79008599D01*
X37142132Y-78988893D01*
X37129520Y-78967850D01*
X37119030Y-78945671D01*
X37110765Y-78922572D01*
X37104804Y-78898773D01*
X37101204Y-78874505D01*
X37100000Y-78850001D01*
X37100000Y-78199999D01*
X37101204Y-78175495D01*
X37104804Y-78151227D01*
X37110765Y-78127428D01*
X37119030Y-78104329D01*
X37129520Y-78082150D01*
X37142132Y-78061107D01*
X37156747Y-78041401D01*
X37173223Y-78023223D01*
X37191401Y-78006747D01*
X37211107Y-77992132D01*
X37232150Y-77979520D01*
X37254329Y-77969030D01*
X37277428Y-77960765D01*
X37301227Y-77954804D01*
X37325495Y-77951204D01*
X37349999Y-77950000D01*
X38250001Y-77950000D01*
X38274505Y-77951204D01*
G37*
G36*
X38274505Y-81751204D02*
G01*
X38298773Y-81754804D01*
X38322572Y-81760765D01*
X38345671Y-81769030D01*
X38367850Y-81779520D01*
X38388893Y-81792132D01*
X38408599Y-81806747D01*
X38426777Y-81823223D01*
X38443253Y-81841401D01*
X38457868Y-81861107D01*
X38470480Y-81882150D01*
X38480970Y-81904329D01*
X38489235Y-81927428D01*
X38495196Y-81951227D01*
X38498796Y-81975495D01*
X38500000Y-81999999D01*
X38500000Y-82650001D01*
X38498796Y-82674505D01*
X38495196Y-82698773D01*
X38489235Y-82722572D01*
X38480970Y-82745671D01*
X38470480Y-82767850D01*
X38457868Y-82788893D01*
X38443253Y-82808599D01*
X38426777Y-82826777D01*
X38408599Y-82843253D01*
X38388893Y-82857868D01*
X38367850Y-82870480D01*
X38345671Y-82880970D01*
X38322572Y-82889235D01*
X38298773Y-82895196D01*
X38274505Y-82898796D01*
X38250001Y-82900000D01*
X37349999Y-82900000D01*
X37325495Y-82898796D01*
X37301227Y-82895196D01*
X37277428Y-82889235D01*
X37254329Y-82880970D01*
X37232150Y-82870480D01*
X37211107Y-82857868D01*
X37191401Y-82843253D01*
X37173223Y-82826777D01*
X37156747Y-82808599D01*
X37142132Y-82788893D01*
X37129520Y-82767850D01*
X37119030Y-82745671D01*
X37110765Y-82722572D01*
X37104804Y-82698773D01*
X37101204Y-82674505D01*
X37100000Y-82650001D01*
X37100000Y-81999999D01*
X37101204Y-81975495D01*
X37104804Y-81951227D01*
X37110765Y-81927428D01*
X37119030Y-81904329D01*
X37129520Y-81882150D01*
X37142132Y-81861107D01*
X37156747Y-81841401D01*
X37173223Y-81823223D01*
X37191401Y-81806747D01*
X37211107Y-81792132D01*
X37232150Y-81779520D01*
X37254329Y-81769030D01*
X37277428Y-81760765D01*
X37301227Y-81754804D01*
X37325495Y-81751204D01*
X37349999Y-81750000D01*
X38250001Y-81750000D01*
X38274505Y-81751204D01*
G37*
G36*
X38274505Y-79701204D02*
G01*
X38298773Y-79704804D01*
X38322572Y-79710765D01*
X38345671Y-79719030D01*
X38367850Y-79729520D01*
X38388893Y-79742132D01*
X38408599Y-79756747D01*
X38426777Y-79773223D01*
X38443253Y-79791401D01*
X38457868Y-79811107D01*
X38470480Y-79832150D01*
X38480970Y-79854329D01*
X38489235Y-79877428D01*
X38495196Y-79901227D01*
X38498796Y-79925495D01*
X38500000Y-79949999D01*
X38500000Y-80600001D01*
X38498796Y-80624505D01*
X38495196Y-80648773D01*
X38489235Y-80672572D01*
X38480970Y-80695671D01*
X38470480Y-80717850D01*
X38457868Y-80738893D01*
X38443253Y-80758599D01*
X38426777Y-80776777D01*
X38408599Y-80793253D01*
X38388893Y-80807868D01*
X38367850Y-80820480D01*
X38345671Y-80830970D01*
X38322572Y-80839235D01*
X38298773Y-80845196D01*
X38274505Y-80848796D01*
X38250001Y-80850000D01*
X37349999Y-80850000D01*
X37325495Y-80848796D01*
X37301227Y-80845196D01*
X37277428Y-80839235D01*
X37254329Y-80830970D01*
X37232150Y-80820480D01*
X37211107Y-80807868D01*
X37191401Y-80793253D01*
X37173223Y-80776777D01*
X37156747Y-80758599D01*
X37142132Y-80738893D01*
X37129520Y-80717850D01*
X37119030Y-80695671D01*
X37110765Y-80672572D01*
X37104804Y-80648773D01*
X37101204Y-80624505D01*
X37100000Y-80600001D01*
X37100000Y-79949999D01*
X37101204Y-79925495D01*
X37104804Y-79901227D01*
X37110765Y-79877428D01*
X37119030Y-79854329D01*
X37129520Y-79832150D01*
X37142132Y-79811107D01*
X37156747Y-79791401D01*
X37173223Y-79773223D01*
X37191401Y-79756747D01*
X37211107Y-79742132D01*
X37232150Y-79729520D01*
X37254329Y-79719030D01*
X37277428Y-79710765D01*
X37301227Y-79704804D01*
X37325495Y-79701204D01*
X37349999Y-79700000D01*
X38250001Y-79700000D01*
X38274505Y-79701204D01*
G37*
G36*
X38274505Y-89351204D02*
G01*
X38298773Y-89354804D01*
X38322572Y-89360765D01*
X38345671Y-89369030D01*
X38367850Y-89379520D01*
X38388893Y-89392132D01*
X38408599Y-89406747D01*
X38426777Y-89423223D01*
X38443253Y-89441401D01*
X38457868Y-89461107D01*
X38470480Y-89482150D01*
X38480970Y-89504329D01*
X38489235Y-89527428D01*
X38495196Y-89551227D01*
X38498796Y-89575495D01*
X38500000Y-89599999D01*
X38500000Y-90250001D01*
X38498796Y-90274505D01*
X38495196Y-90298773D01*
X38489235Y-90322572D01*
X38480970Y-90345671D01*
X38470480Y-90367850D01*
X38457868Y-90388893D01*
X38443253Y-90408599D01*
X38426777Y-90426777D01*
X38408599Y-90443253D01*
X38388893Y-90457868D01*
X38367850Y-90470480D01*
X38345671Y-90480970D01*
X38322572Y-90489235D01*
X38298773Y-90495196D01*
X38274505Y-90498796D01*
X38250001Y-90500000D01*
X37349999Y-90500000D01*
X37325495Y-90498796D01*
X37301227Y-90495196D01*
X37277428Y-90489235D01*
X37254329Y-90480970D01*
X37232150Y-90470480D01*
X37211107Y-90457868D01*
X37191401Y-90443253D01*
X37173223Y-90426777D01*
X37156747Y-90408599D01*
X37142132Y-90388893D01*
X37129520Y-90367850D01*
X37119030Y-90345671D01*
X37110765Y-90322572D01*
X37104804Y-90298773D01*
X37101204Y-90274505D01*
X37100000Y-90250001D01*
X37100000Y-89599999D01*
X37101204Y-89575495D01*
X37104804Y-89551227D01*
X37110765Y-89527428D01*
X37119030Y-89504329D01*
X37129520Y-89482150D01*
X37142132Y-89461107D01*
X37156747Y-89441401D01*
X37173223Y-89423223D01*
X37191401Y-89406747D01*
X37211107Y-89392132D01*
X37232150Y-89379520D01*
X37254329Y-89369030D01*
X37277428Y-89360765D01*
X37301227Y-89354804D01*
X37325495Y-89351204D01*
X37349999Y-89350000D01*
X38250001Y-89350000D01*
X38274505Y-89351204D01*
G37*
G36*
X38274505Y-87301204D02*
G01*
X38298773Y-87304804D01*
X38322572Y-87310765D01*
X38345671Y-87319030D01*
X38367850Y-87329520D01*
X38388893Y-87342132D01*
X38408599Y-87356747D01*
X38426777Y-87373223D01*
X38443253Y-87391401D01*
X38457868Y-87411107D01*
X38470480Y-87432150D01*
X38480970Y-87454329D01*
X38489235Y-87477428D01*
X38495196Y-87501227D01*
X38498796Y-87525495D01*
X38500000Y-87549999D01*
X38500000Y-88200001D01*
X38498796Y-88224505D01*
X38495196Y-88248773D01*
X38489235Y-88272572D01*
X38480970Y-88295671D01*
X38470480Y-88317850D01*
X38457868Y-88338893D01*
X38443253Y-88358599D01*
X38426777Y-88376777D01*
X38408599Y-88393253D01*
X38388893Y-88407868D01*
X38367850Y-88420480D01*
X38345671Y-88430970D01*
X38322572Y-88439235D01*
X38298773Y-88445196D01*
X38274505Y-88448796D01*
X38250001Y-88450000D01*
X37349999Y-88450000D01*
X37325495Y-88448796D01*
X37301227Y-88445196D01*
X37277428Y-88439235D01*
X37254329Y-88430970D01*
X37232150Y-88420480D01*
X37211107Y-88407868D01*
X37191401Y-88393253D01*
X37173223Y-88376777D01*
X37156747Y-88358599D01*
X37142132Y-88338893D01*
X37129520Y-88317850D01*
X37119030Y-88295671D01*
X37110765Y-88272572D01*
X37104804Y-88248773D01*
X37101204Y-88224505D01*
X37100000Y-88200001D01*
X37100000Y-87549999D01*
X37101204Y-87525495D01*
X37104804Y-87501227D01*
X37110765Y-87477428D01*
X37119030Y-87454329D01*
X37129520Y-87432150D01*
X37142132Y-87411107D01*
X37156747Y-87391401D01*
X37173223Y-87373223D01*
X37191401Y-87356747D01*
X37211107Y-87342132D01*
X37232150Y-87329520D01*
X37254329Y-87319030D01*
X37277428Y-87310765D01*
X37301227Y-87304804D01*
X37325495Y-87301204D01*
X37349999Y-87300000D01*
X38250001Y-87300000D01*
X38274505Y-87301204D01*
G37*
G36*
X39974505Y-44551204D02*
G01*
X39998773Y-44554804D01*
X40022572Y-44560765D01*
X40045671Y-44569030D01*
X40067850Y-44579520D01*
X40088893Y-44592132D01*
X40108599Y-44606747D01*
X40126777Y-44623223D01*
X40143253Y-44641401D01*
X40157868Y-44661107D01*
X40170480Y-44682150D01*
X40180970Y-44704329D01*
X40189235Y-44727428D01*
X40195196Y-44751227D01*
X40198796Y-44775495D01*
X40200000Y-44799999D01*
X40200000Y-45450001D01*
X40198796Y-45474505D01*
X40195196Y-45498773D01*
X40189235Y-45522572D01*
X40180970Y-45545671D01*
X40170480Y-45567850D01*
X40157868Y-45588893D01*
X40143253Y-45608599D01*
X40126777Y-45626777D01*
X40108599Y-45643253D01*
X40088893Y-45657868D01*
X40067850Y-45670480D01*
X40045671Y-45680970D01*
X40022572Y-45689235D01*
X39998773Y-45695196D01*
X39974505Y-45698796D01*
X39950001Y-45700000D01*
X39049999Y-45700000D01*
X39025495Y-45698796D01*
X39001227Y-45695196D01*
X38977428Y-45689235D01*
X38954329Y-45680970D01*
X38932150Y-45670480D01*
X38911107Y-45657868D01*
X38891401Y-45643253D01*
X38873223Y-45626777D01*
X38856747Y-45608599D01*
X38842132Y-45588893D01*
X38829520Y-45567850D01*
X38819030Y-45545671D01*
X38810765Y-45522572D01*
X38804804Y-45498773D01*
X38801204Y-45474505D01*
X38800000Y-45450001D01*
X38800000Y-44799999D01*
X38801204Y-44775495D01*
X38804804Y-44751227D01*
X38810765Y-44727428D01*
X38819030Y-44704329D01*
X38829520Y-44682150D01*
X38842132Y-44661107D01*
X38856747Y-44641401D01*
X38873223Y-44623223D01*
X38891401Y-44606747D01*
X38911107Y-44592132D01*
X38932150Y-44579520D01*
X38954329Y-44569030D01*
X38977428Y-44560765D01*
X39001227Y-44554804D01*
X39025495Y-44551204D01*
X39049999Y-44550000D01*
X39950001Y-44550000D01*
X39974505Y-44551204D01*
G37*
G36*
X39974505Y-42501204D02*
G01*
X39998773Y-42504804D01*
X40022572Y-42510765D01*
X40045671Y-42519030D01*
X40067850Y-42529520D01*
X40088893Y-42542132D01*
X40108599Y-42556747D01*
X40126777Y-42573223D01*
X40143253Y-42591401D01*
X40157868Y-42611107D01*
X40170480Y-42632150D01*
X40180970Y-42654329D01*
X40189235Y-42677428D01*
X40195196Y-42701227D01*
X40198796Y-42725495D01*
X40200000Y-42749999D01*
X40200000Y-43400001D01*
X40198796Y-43424505D01*
X40195196Y-43448773D01*
X40189235Y-43472572D01*
X40180970Y-43495671D01*
X40170480Y-43517850D01*
X40157868Y-43538893D01*
X40143253Y-43558599D01*
X40126777Y-43576777D01*
X40108599Y-43593253D01*
X40088893Y-43607868D01*
X40067850Y-43620480D01*
X40045671Y-43630970D01*
X40022572Y-43639235D01*
X39998773Y-43645196D01*
X39974505Y-43648796D01*
X39950001Y-43650000D01*
X39049999Y-43650000D01*
X39025495Y-43648796D01*
X39001227Y-43645196D01*
X38977428Y-43639235D01*
X38954329Y-43630970D01*
X38932150Y-43620480D01*
X38911107Y-43607868D01*
X38891401Y-43593253D01*
X38873223Y-43576777D01*
X38856747Y-43558599D01*
X38842132Y-43538893D01*
X38829520Y-43517850D01*
X38819030Y-43495671D01*
X38810765Y-43472572D01*
X38804804Y-43448773D01*
X38801204Y-43424505D01*
X38800000Y-43400001D01*
X38800000Y-42749999D01*
X38801204Y-42725495D01*
X38804804Y-42701227D01*
X38810765Y-42677428D01*
X38819030Y-42654329D01*
X38829520Y-42632150D01*
X38842132Y-42611107D01*
X38856747Y-42591401D01*
X38873223Y-42573223D01*
X38891401Y-42556747D01*
X38911107Y-42542132D01*
X38932150Y-42529520D01*
X38954329Y-42519030D01*
X38977428Y-42510765D01*
X39001227Y-42504804D01*
X39025495Y-42501204D01*
X39049999Y-42500000D01*
X39950001Y-42500000D01*
X39974505Y-42501204D01*
G37*
G36*
X43924505Y-48901204D02*
G01*
X43948773Y-48904804D01*
X43972572Y-48910765D01*
X43995671Y-48919030D01*
X44017850Y-48929520D01*
X44038893Y-48942132D01*
X44058599Y-48956747D01*
X44076777Y-48973223D01*
X44093253Y-48991401D01*
X44107868Y-49011107D01*
X44120480Y-49032150D01*
X44130970Y-49054329D01*
X44139235Y-49077428D01*
X44145196Y-49101227D01*
X44148796Y-49125495D01*
X44150000Y-49149999D01*
X44150000Y-50050001D01*
X44148796Y-50074505D01*
X44145196Y-50098773D01*
X44139235Y-50122572D01*
X44130970Y-50145671D01*
X44120480Y-50167850D01*
X44107868Y-50188893D01*
X44093253Y-50208599D01*
X44076777Y-50226777D01*
X44058599Y-50243253D01*
X44038893Y-50257868D01*
X44017850Y-50270480D01*
X43995671Y-50280970D01*
X43972572Y-50289235D01*
X43948773Y-50295196D01*
X43924505Y-50298796D01*
X43900001Y-50300000D01*
X43249999Y-50300000D01*
X43225495Y-50298796D01*
X43201227Y-50295196D01*
X43177428Y-50289235D01*
X43154329Y-50280970D01*
X43132150Y-50270480D01*
X43111107Y-50257868D01*
X43091401Y-50243253D01*
X43073223Y-50226777D01*
X43056747Y-50208599D01*
X43042132Y-50188893D01*
X43029520Y-50167850D01*
X43019030Y-50145671D01*
X43010765Y-50122572D01*
X43004804Y-50098773D01*
X43001204Y-50074505D01*
X43000000Y-50050001D01*
X43000000Y-49149999D01*
X43001204Y-49125495D01*
X43004804Y-49101227D01*
X43010765Y-49077428D01*
X43019030Y-49054329D01*
X43029520Y-49032150D01*
X43042132Y-49011107D01*
X43056747Y-48991401D01*
X43073223Y-48973223D01*
X43091401Y-48956747D01*
X43111107Y-48942132D01*
X43132150Y-48929520D01*
X43154329Y-48919030D01*
X43177428Y-48910765D01*
X43201227Y-48904804D01*
X43225495Y-48901204D01*
X43249999Y-48900000D01*
X43900001Y-48900000D01*
X43924505Y-48901204D01*
G37*
G36*
X45974505Y-48901204D02*
G01*
X45998773Y-48904804D01*
X46022572Y-48910765D01*
X46045671Y-48919030D01*
X46067850Y-48929520D01*
X46088893Y-48942132D01*
X46108599Y-48956747D01*
X46126777Y-48973223D01*
X46143253Y-48991401D01*
X46157868Y-49011107D01*
X46170480Y-49032150D01*
X46180970Y-49054329D01*
X46189235Y-49077428D01*
X46195196Y-49101227D01*
X46198796Y-49125495D01*
X46200000Y-49149999D01*
X46200000Y-50050001D01*
X46198796Y-50074505D01*
X46195196Y-50098773D01*
X46189235Y-50122572D01*
X46180970Y-50145671D01*
X46170480Y-50167850D01*
X46157868Y-50188893D01*
X46143253Y-50208599D01*
X46126777Y-50226777D01*
X46108599Y-50243253D01*
X46088893Y-50257868D01*
X46067850Y-50270480D01*
X46045671Y-50280970D01*
X46022572Y-50289235D01*
X45998773Y-50295196D01*
X45974505Y-50298796D01*
X45950001Y-50300000D01*
X45299999Y-50300000D01*
X45275495Y-50298796D01*
X45251227Y-50295196D01*
X45227428Y-50289235D01*
X45204329Y-50280970D01*
X45182150Y-50270480D01*
X45161107Y-50257868D01*
X45141401Y-50243253D01*
X45123223Y-50226777D01*
X45106747Y-50208599D01*
X45092132Y-50188893D01*
X45079520Y-50167850D01*
X45069030Y-50145671D01*
X45060765Y-50122572D01*
X45054804Y-50098773D01*
X45051204Y-50074505D01*
X45050000Y-50050001D01*
X45050000Y-49149999D01*
X45051204Y-49125495D01*
X45054804Y-49101227D01*
X45060765Y-49077428D01*
X45069030Y-49054329D01*
X45079520Y-49032150D01*
X45092132Y-49011107D01*
X45106747Y-48991401D01*
X45123223Y-48973223D01*
X45141401Y-48956747D01*
X45161107Y-48942132D01*
X45182150Y-48929520D01*
X45204329Y-48919030D01*
X45227428Y-48910765D01*
X45251227Y-48904804D01*
X45275495Y-48901204D01*
X45299999Y-48900000D01*
X45950001Y-48900000D01*
X45974505Y-48901204D01*
G37*
G36*
X38224505Y-52001204D02*
G01*
X38248773Y-52004804D01*
X38272572Y-52010765D01*
X38295671Y-52019030D01*
X38317850Y-52029520D01*
X38338893Y-52042132D01*
X38358599Y-52056747D01*
X38376777Y-52073223D01*
X38393253Y-52091401D01*
X38407868Y-52111107D01*
X38420480Y-52132150D01*
X38430970Y-52154329D01*
X38439235Y-52177428D01*
X38445196Y-52201227D01*
X38448796Y-52225495D01*
X38450000Y-52249999D01*
X38450000Y-53150001D01*
X38448796Y-53174505D01*
X38445196Y-53198773D01*
X38439235Y-53222572D01*
X38430970Y-53245671D01*
X38420480Y-53267850D01*
X38407868Y-53288893D01*
X38393253Y-53308599D01*
X38376777Y-53326777D01*
X38358599Y-53343253D01*
X38338893Y-53357868D01*
X38317850Y-53370480D01*
X38295671Y-53380970D01*
X38272572Y-53389235D01*
X38248773Y-53395196D01*
X38224505Y-53398796D01*
X38200001Y-53400000D01*
X37549999Y-53400000D01*
X37525495Y-53398796D01*
X37501227Y-53395196D01*
X37477428Y-53389235D01*
X37454329Y-53380970D01*
X37432150Y-53370480D01*
X37411107Y-53357868D01*
X37391401Y-53343253D01*
X37373223Y-53326777D01*
X37356747Y-53308599D01*
X37342132Y-53288893D01*
X37329520Y-53267850D01*
X37319030Y-53245671D01*
X37310765Y-53222572D01*
X37304804Y-53198773D01*
X37301204Y-53174505D01*
X37300000Y-53150001D01*
X37300000Y-52249999D01*
X37301204Y-52225495D01*
X37304804Y-52201227D01*
X37310765Y-52177428D01*
X37319030Y-52154329D01*
X37329520Y-52132150D01*
X37342132Y-52111107D01*
X37356747Y-52091401D01*
X37373223Y-52073223D01*
X37391401Y-52056747D01*
X37411107Y-52042132D01*
X37432150Y-52029520D01*
X37454329Y-52019030D01*
X37477428Y-52010765D01*
X37501227Y-52004804D01*
X37525495Y-52001204D01*
X37549999Y-52000000D01*
X38200001Y-52000000D01*
X38224505Y-52001204D01*
G37*
G36*
X40274505Y-52001204D02*
G01*
X40298773Y-52004804D01*
X40322572Y-52010765D01*
X40345671Y-52019030D01*
X40367850Y-52029520D01*
X40388893Y-52042132D01*
X40408599Y-52056747D01*
X40426777Y-52073223D01*
X40443253Y-52091401D01*
X40457868Y-52111107D01*
X40470480Y-52132150D01*
X40480970Y-52154329D01*
X40489235Y-52177428D01*
X40495196Y-52201227D01*
X40498796Y-52225495D01*
X40500000Y-52249999D01*
X40500000Y-53150001D01*
X40498796Y-53174505D01*
X40495196Y-53198773D01*
X40489235Y-53222572D01*
X40480970Y-53245671D01*
X40470480Y-53267850D01*
X40457868Y-53288893D01*
X40443253Y-53308599D01*
X40426777Y-53326777D01*
X40408599Y-53343253D01*
X40388893Y-53357868D01*
X40367850Y-53370480D01*
X40345671Y-53380970D01*
X40322572Y-53389235D01*
X40298773Y-53395196D01*
X40274505Y-53398796D01*
X40250001Y-53400000D01*
X39599999Y-53400000D01*
X39575495Y-53398796D01*
X39551227Y-53395196D01*
X39527428Y-53389235D01*
X39504329Y-53380970D01*
X39482150Y-53370480D01*
X39461107Y-53357868D01*
X39441401Y-53343253D01*
X39423223Y-53326777D01*
X39406747Y-53308599D01*
X39392132Y-53288893D01*
X39379520Y-53267850D01*
X39369030Y-53245671D01*
X39360765Y-53222572D01*
X39354804Y-53198773D01*
X39351204Y-53174505D01*
X39350000Y-53150001D01*
X39350000Y-52249999D01*
X39351204Y-52225495D01*
X39354804Y-52201227D01*
X39360765Y-52177428D01*
X39369030Y-52154329D01*
X39379520Y-52132150D01*
X39392132Y-52111107D01*
X39406747Y-52091401D01*
X39423223Y-52073223D01*
X39441401Y-52056747D01*
X39461107Y-52042132D01*
X39482150Y-52029520D01*
X39504329Y-52019030D01*
X39527428Y-52010765D01*
X39551227Y-52004804D01*
X39575495Y-52001204D01*
X39599999Y-52000000D01*
X40250001Y-52000000D01*
X40274505Y-52001204D01*
G37*
G36*
X50174505Y-75451204D02*
G01*
X50198773Y-75454804D01*
X50222572Y-75460765D01*
X50245671Y-75469030D01*
X50267850Y-75479520D01*
X50288893Y-75492132D01*
X50308599Y-75506747D01*
X50326777Y-75523223D01*
X50343253Y-75541401D01*
X50357868Y-75561107D01*
X50370480Y-75582150D01*
X50380970Y-75604329D01*
X50389235Y-75627428D01*
X50395196Y-75651227D01*
X50398796Y-75675495D01*
X50400000Y-75699999D01*
X50400000Y-76350001D01*
X50398796Y-76374505D01*
X50395196Y-76398773D01*
X50389235Y-76422572D01*
X50380970Y-76445671D01*
X50370480Y-76467850D01*
X50357868Y-76488893D01*
X50343253Y-76508599D01*
X50326777Y-76526777D01*
X50308599Y-76543253D01*
X50288893Y-76557868D01*
X50267850Y-76570480D01*
X50245671Y-76580970D01*
X50222572Y-76589235D01*
X50198773Y-76595196D01*
X50174505Y-76598796D01*
X50150001Y-76600000D01*
X49249999Y-76600000D01*
X49225495Y-76598796D01*
X49201227Y-76595196D01*
X49177428Y-76589235D01*
X49154329Y-76580970D01*
X49132150Y-76570480D01*
X49111107Y-76557868D01*
X49091401Y-76543253D01*
X49073223Y-76526777D01*
X49056747Y-76508599D01*
X49042132Y-76488893D01*
X49029520Y-76467850D01*
X49019030Y-76445671D01*
X49010765Y-76422572D01*
X49004804Y-76398773D01*
X49001204Y-76374505D01*
X49000000Y-76350001D01*
X49000000Y-75699999D01*
X49001204Y-75675495D01*
X49004804Y-75651227D01*
X49010765Y-75627428D01*
X49019030Y-75604329D01*
X49029520Y-75582150D01*
X49042132Y-75561107D01*
X49056747Y-75541401D01*
X49073223Y-75523223D01*
X49091401Y-75506747D01*
X49111107Y-75492132D01*
X49132150Y-75479520D01*
X49154329Y-75469030D01*
X49177428Y-75460765D01*
X49201227Y-75454804D01*
X49225495Y-75451204D01*
X49249999Y-75450000D01*
X50150001Y-75450000D01*
X50174505Y-75451204D01*
G37*
G36*
X50174505Y-73401204D02*
G01*
X50198773Y-73404804D01*
X50222572Y-73410765D01*
X50245671Y-73419030D01*
X50267850Y-73429520D01*
X50288893Y-73442132D01*
X50308599Y-73456747D01*
X50326777Y-73473223D01*
X50343253Y-73491401D01*
X50357868Y-73511107D01*
X50370480Y-73532150D01*
X50380970Y-73554329D01*
X50389235Y-73577428D01*
X50395196Y-73601227D01*
X50398796Y-73625495D01*
X50400000Y-73649999D01*
X50400000Y-74300001D01*
X50398796Y-74324505D01*
X50395196Y-74348773D01*
X50389235Y-74372572D01*
X50380970Y-74395671D01*
X50370480Y-74417850D01*
X50357868Y-74438893D01*
X50343253Y-74458599D01*
X50326777Y-74476777D01*
X50308599Y-74493253D01*
X50288893Y-74507868D01*
X50267850Y-74520480D01*
X50245671Y-74530970D01*
X50222572Y-74539235D01*
X50198773Y-74545196D01*
X50174505Y-74548796D01*
X50150001Y-74550000D01*
X49249999Y-74550000D01*
X49225495Y-74548796D01*
X49201227Y-74545196D01*
X49177428Y-74539235D01*
X49154329Y-74530970D01*
X49132150Y-74520480D01*
X49111107Y-74507868D01*
X49091401Y-74493253D01*
X49073223Y-74476777D01*
X49056747Y-74458599D01*
X49042132Y-74438893D01*
X49029520Y-74417850D01*
X49019030Y-74395671D01*
X49010765Y-74372572D01*
X49004804Y-74348773D01*
X49001204Y-74324505D01*
X49000000Y-74300001D01*
X49000000Y-73649999D01*
X49001204Y-73625495D01*
X49004804Y-73601227D01*
X49010765Y-73577428D01*
X49019030Y-73554329D01*
X49029520Y-73532150D01*
X49042132Y-73511107D01*
X49056747Y-73491401D01*
X49073223Y-73473223D01*
X49091401Y-73456747D01*
X49111107Y-73442132D01*
X49132150Y-73429520D01*
X49154329Y-73419030D01*
X49177428Y-73410765D01*
X49201227Y-73404804D01*
X49225495Y-73401204D01*
X49249999Y-73400000D01*
X50150001Y-73400000D01*
X50174505Y-73401204D01*
G37*
G36*
X46274505Y-90001204D02*
G01*
X46298773Y-90004804D01*
X46322572Y-90010765D01*
X46345671Y-90019030D01*
X46367850Y-90029520D01*
X46388893Y-90042132D01*
X46408599Y-90056747D01*
X46426777Y-90073223D01*
X46443253Y-90091401D01*
X46457868Y-90111107D01*
X46470480Y-90132150D01*
X46480970Y-90154329D01*
X46489235Y-90177428D01*
X46495196Y-90201227D01*
X46498796Y-90225495D01*
X46500000Y-90249999D01*
X46500000Y-91150001D01*
X46498796Y-91174505D01*
X46495196Y-91198773D01*
X46489235Y-91222572D01*
X46480970Y-91245671D01*
X46470480Y-91267850D01*
X46457868Y-91288893D01*
X46443253Y-91308599D01*
X46426777Y-91326777D01*
X46408599Y-91343253D01*
X46388893Y-91357868D01*
X46367850Y-91370480D01*
X46345671Y-91380970D01*
X46322572Y-91389235D01*
X46298773Y-91395196D01*
X46274505Y-91398796D01*
X46250001Y-91400000D01*
X45599999Y-91400000D01*
X45575495Y-91398796D01*
X45551227Y-91395196D01*
X45527428Y-91389235D01*
X45504329Y-91380970D01*
X45482150Y-91370480D01*
X45461107Y-91357868D01*
X45441401Y-91343253D01*
X45423223Y-91326777D01*
X45406747Y-91308599D01*
X45392132Y-91288893D01*
X45379520Y-91267850D01*
X45369030Y-91245671D01*
X45360765Y-91222572D01*
X45354804Y-91198773D01*
X45351204Y-91174505D01*
X45350000Y-91150001D01*
X45350000Y-90249999D01*
X45351204Y-90225495D01*
X45354804Y-90201227D01*
X45360765Y-90177428D01*
X45369030Y-90154329D01*
X45379520Y-90132150D01*
X45392132Y-90111107D01*
X45406747Y-90091401D01*
X45423223Y-90073223D01*
X45441401Y-90056747D01*
X45461107Y-90042132D01*
X45482150Y-90029520D01*
X45504329Y-90019030D01*
X45527428Y-90010765D01*
X45551227Y-90004804D01*
X45575495Y-90001204D01*
X45599999Y-90000000D01*
X46250001Y-90000000D01*
X46274505Y-90001204D01*
G37*
G36*
X44224505Y-90001204D02*
G01*
X44248773Y-90004804D01*
X44272572Y-90010765D01*
X44295671Y-90019030D01*
X44317850Y-90029520D01*
X44338893Y-90042132D01*
X44358599Y-90056747D01*
X44376777Y-90073223D01*
X44393253Y-90091401D01*
X44407868Y-90111107D01*
X44420480Y-90132150D01*
X44430970Y-90154329D01*
X44439235Y-90177428D01*
X44445196Y-90201227D01*
X44448796Y-90225495D01*
X44450000Y-90249999D01*
X44450000Y-91150001D01*
X44448796Y-91174505D01*
X44445196Y-91198773D01*
X44439235Y-91222572D01*
X44430970Y-91245671D01*
X44420480Y-91267850D01*
X44407868Y-91288893D01*
X44393253Y-91308599D01*
X44376777Y-91326777D01*
X44358599Y-91343253D01*
X44338893Y-91357868D01*
X44317850Y-91370480D01*
X44295671Y-91380970D01*
X44272572Y-91389235D01*
X44248773Y-91395196D01*
X44224505Y-91398796D01*
X44200001Y-91400000D01*
X43549999Y-91400000D01*
X43525495Y-91398796D01*
X43501227Y-91395196D01*
X43477428Y-91389235D01*
X43454329Y-91380970D01*
X43432150Y-91370480D01*
X43411107Y-91357868D01*
X43391401Y-91343253D01*
X43373223Y-91326777D01*
X43356747Y-91308599D01*
X43342132Y-91288893D01*
X43329520Y-91267850D01*
X43319030Y-91245671D01*
X43310765Y-91222572D01*
X43304804Y-91198773D01*
X43301204Y-91174505D01*
X43300000Y-91150001D01*
X43300000Y-90249999D01*
X43301204Y-90225495D01*
X43304804Y-90201227D01*
X43310765Y-90177428D01*
X43319030Y-90154329D01*
X43329520Y-90132150D01*
X43342132Y-90111107D01*
X43356747Y-90091401D01*
X43373223Y-90073223D01*
X43391401Y-90056747D01*
X43411107Y-90042132D01*
X43432150Y-90029520D01*
X43454329Y-90019030D01*
X43477428Y-90010765D01*
X43501227Y-90004804D01*
X43525495Y-90001204D01*
X43549999Y-90000000D01*
X44200001Y-90000000D01*
X44224505Y-90001204D01*
G37*
G36*
X39974505Y-63751204D02*
G01*
X39998773Y-63754804D01*
X40022572Y-63760765D01*
X40045671Y-63769030D01*
X40067850Y-63779520D01*
X40088893Y-63792132D01*
X40108599Y-63806747D01*
X40126777Y-63823223D01*
X40143253Y-63841401D01*
X40157868Y-63861107D01*
X40170480Y-63882150D01*
X40180970Y-63904329D01*
X40189235Y-63927428D01*
X40195196Y-63951227D01*
X40198796Y-63975495D01*
X40200000Y-63999999D01*
X40200000Y-64650001D01*
X40198796Y-64674505D01*
X40195196Y-64698773D01*
X40189235Y-64722572D01*
X40180970Y-64745671D01*
X40170480Y-64767850D01*
X40157868Y-64788893D01*
X40143253Y-64808599D01*
X40126777Y-64826777D01*
X40108599Y-64843253D01*
X40088893Y-64857868D01*
X40067850Y-64870480D01*
X40045671Y-64880970D01*
X40022572Y-64889235D01*
X39998773Y-64895196D01*
X39974505Y-64898796D01*
X39950001Y-64900000D01*
X39049999Y-64900000D01*
X39025495Y-64898796D01*
X39001227Y-64895196D01*
X38977428Y-64889235D01*
X38954329Y-64880970D01*
X38932150Y-64870480D01*
X38911107Y-64857868D01*
X38891401Y-64843253D01*
X38873223Y-64826777D01*
X38856747Y-64808599D01*
X38842132Y-64788893D01*
X38829520Y-64767850D01*
X38819030Y-64745671D01*
X38810765Y-64722572D01*
X38804804Y-64698773D01*
X38801204Y-64674505D01*
X38800000Y-64650001D01*
X38800000Y-63999999D01*
X38801204Y-63975495D01*
X38804804Y-63951227D01*
X38810765Y-63927428D01*
X38819030Y-63904329D01*
X38829520Y-63882150D01*
X38842132Y-63861107D01*
X38856747Y-63841401D01*
X38873223Y-63823223D01*
X38891401Y-63806747D01*
X38911107Y-63792132D01*
X38932150Y-63779520D01*
X38954329Y-63769030D01*
X38977428Y-63760765D01*
X39001227Y-63754804D01*
X39025495Y-63751204D01*
X39049999Y-63750000D01*
X39950001Y-63750000D01*
X39974505Y-63751204D01*
G37*
G36*
X39974505Y-61701204D02*
G01*
X39998773Y-61704804D01*
X40022572Y-61710765D01*
X40045671Y-61719030D01*
X40067850Y-61729520D01*
X40088893Y-61742132D01*
X40108599Y-61756747D01*
X40126777Y-61773223D01*
X40143253Y-61791401D01*
X40157868Y-61811107D01*
X40170480Y-61832150D01*
X40180970Y-61854329D01*
X40189235Y-61877428D01*
X40195196Y-61901227D01*
X40198796Y-61925495D01*
X40200000Y-61949999D01*
X40200000Y-62600001D01*
X40198796Y-62624505D01*
X40195196Y-62648773D01*
X40189235Y-62672572D01*
X40180970Y-62695671D01*
X40170480Y-62717850D01*
X40157868Y-62738893D01*
X40143253Y-62758599D01*
X40126777Y-62776777D01*
X40108599Y-62793253D01*
X40088893Y-62807868D01*
X40067850Y-62820480D01*
X40045671Y-62830970D01*
X40022572Y-62839235D01*
X39998773Y-62845196D01*
X39974505Y-62848796D01*
X39950001Y-62850000D01*
X39049999Y-62850000D01*
X39025495Y-62848796D01*
X39001227Y-62845196D01*
X38977428Y-62839235D01*
X38954329Y-62830970D01*
X38932150Y-62820480D01*
X38911107Y-62807868D01*
X38891401Y-62793253D01*
X38873223Y-62776777D01*
X38856747Y-62758599D01*
X38842132Y-62738893D01*
X38829520Y-62717850D01*
X38819030Y-62695671D01*
X38810765Y-62672572D01*
X38804804Y-62648773D01*
X38801204Y-62624505D01*
X38800000Y-62600001D01*
X38800000Y-61949999D01*
X38801204Y-61925495D01*
X38804804Y-61901227D01*
X38810765Y-61877428D01*
X38819030Y-61854329D01*
X38829520Y-61832150D01*
X38842132Y-61811107D01*
X38856747Y-61791401D01*
X38873223Y-61773223D01*
X38891401Y-61756747D01*
X38911107Y-61742132D01*
X38932150Y-61729520D01*
X38954329Y-61719030D01*
X38977428Y-61710765D01*
X39001227Y-61704804D01*
X39025495Y-61701204D01*
X39049999Y-61700000D01*
X39950001Y-61700000D01*
X39974505Y-61701204D01*
G37*
G36*
X39974505Y-57801204D02*
G01*
X39998773Y-57804804D01*
X40022572Y-57810765D01*
X40045671Y-57819030D01*
X40067850Y-57829520D01*
X40088893Y-57842132D01*
X40108599Y-57856747D01*
X40126777Y-57873223D01*
X40143253Y-57891401D01*
X40157868Y-57911107D01*
X40170480Y-57932150D01*
X40180970Y-57954329D01*
X40189235Y-57977428D01*
X40195196Y-58001227D01*
X40198796Y-58025495D01*
X40200000Y-58049999D01*
X40200000Y-58700001D01*
X40198796Y-58724505D01*
X40195196Y-58748773D01*
X40189235Y-58772572D01*
X40180970Y-58795671D01*
X40170480Y-58817850D01*
X40157868Y-58838893D01*
X40143253Y-58858599D01*
X40126777Y-58876777D01*
X40108599Y-58893253D01*
X40088893Y-58907868D01*
X40067850Y-58920480D01*
X40045671Y-58930970D01*
X40022572Y-58939235D01*
X39998773Y-58945196D01*
X39974505Y-58948796D01*
X39950001Y-58950000D01*
X39049999Y-58950000D01*
X39025495Y-58948796D01*
X39001227Y-58945196D01*
X38977428Y-58939235D01*
X38954329Y-58930970D01*
X38932150Y-58920480D01*
X38911107Y-58907868D01*
X38891401Y-58893253D01*
X38873223Y-58876777D01*
X38856747Y-58858599D01*
X38842132Y-58838893D01*
X38829520Y-58817850D01*
X38819030Y-58795671D01*
X38810765Y-58772572D01*
X38804804Y-58748773D01*
X38801204Y-58724505D01*
X38800000Y-58700001D01*
X38800000Y-58049999D01*
X38801204Y-58025495D01*
X38804804Y-58001227D01*
X38810765Y-57977428D01*
X38819030Y-57954329D01*
X38829520Y-57932150D01*
X38842132Y-57911107D01*
X38856747Y-57891401D01*
X38873223Y-57873223D01*
X38891401Y-57856747D01*
X38911107Y-57842132D01*
X38932150Y-57829520D01*
X38954329Y-57819030D01*
X38977428Y-57810765D01*
X39001227Y-57804804D01*
X39025495Y-57801204D01*
X39049999Y-57800000D01*
X39950001Y-57800000D01*
X39974505Y-57801204D01*
G37*
G36*
X39974505Y-59851204D02*
G01*
X39998773Y-59854804D01*
X40022572Y-59860765D01*
X40045671Y-59869030D01*
X40067850Y-59879520D01*
X40088893Y-59892132D01*
X40108599Y-59906747D01*
X40126777Y-59923223D01*
X40143253Y-59941401D01*
X40157868Y-59961107D01*
X40170480Y-59982150D01*
X40180970Y-60004329D01*
X40189235Y-60027428D01*
X40195196Y-60051227D01*
X40198796Y-60075495D01*
X40200000Y-60099999D01*
X40200000Y-60750001D01*
X40198796Y-60774505D01*
X40195196Y-60798773D01*
X40189235Y-60822572D01*
X40180970Y-60845671D01*
X40170480Y-60867850D01*
X40157868Y-60888893D01*
X40143253Y-60908599D01*
X40126777Y-60926777D01*
X40108599Y-60943253D01*
X40088893Y-60957868D01*
X40067850Y-60970480D01*
X40045671Y-60980970D01*
X40022572Y-60989235D01*
X39998773Y-60995196D01*
X39974505Y-60998796D01*
X39950001Y-61000000D01*
X39049999Y-61000000D01*
X39025495Y-60998796D01*
X39001227Y-60995196D01*
X38977428Y-60989235D01*
X38954329Y-60980970D01*
X38932150Y-60970480D01*
X38911107Y-60957868D01*
X38891401Y-60943253D01*
X38873223Y-60926777D01*
X38856747Y-60908599D01*
X38842132Y-60888893D01*
X38829520Y-60867850D01*
X38819030Y-60845671D01*
X38810765Y-60822572D01*
X38804804Y-60798773D01*
X38801204Y-60774505D01*
X38800000Y-60750001D01*
X38800000Y-60099999D01*
X38801204Y-60075495D01*
X38804804Y-60051227D01*
X38810765Y-60027428D01*
X38819030Y-60004329D01*
X38829520Y-59982150D01*
X38842132Y-59961107D01*
X38856747Y-59941401D01*
X38873223Y-59923223D01*
X38891401Y-59906747D01*
X38911107Y-59892132D01*
X38932150Y-59879520D01*
X38954329Y-59869030D01*
X38977428Y-59860765D01*
X39001227Y-59854804D01*
X39025495Y-59851204D01*
X39049999Y-59850000D01*
X39950001Y-59850000D01*
X39974505Y-59851204D01*
G37*
G36*
X28924505Y-45501204D02*
G01*
X28948773Y-45504804D01*
X28972572Y-45510765D01*
X28995671Y-45519030D01*
X29017850Y-45529520D01*
X29038893Y-45542132D01*
X29058599Y-45556747D01*
X29076777Y-45573223D01*
X29093253Y-45591401D01*
X29107868Y-45611107D01*
X29120480Y-45632150D01*
X29130970Y-45654329D01*
X29139235Y-45677428D01*
X29145196Y-45701227D01*
X29148796Y-45725495D01*
X29150000Y-45749999D01*
X29150000Y-46650001D01*
X29148796Y-46674505D01*
X29145196Y-46698773D01*
X29139235Y-46722572D01*
X29130970Y-46745671D01*
X29120480Y-46767850D01*
X29107868Y-46788893D01*
X29093253Y-46808599D01*
X29076777Y-46826777D01*
X29058599Y-46843253D01*
X29038893Y-46857868D01*
X29017850Y-46870480D01*
X28995671Y-46880970D01*
X28972572Y-46889235D01*
X28948773Y-46895196D01*
X28924505Y-46898796D01*
X28900001Y-46900000D01*
X28249999Y-46900000D01*
X28225495Y-46898796D01*
X28201227Y-46895196D01*
X28177428Y-46889235D01*
X28154329Y-46880970D01*
X28132150Y-46870480D01*
X28111107Y-46857868D01*
X28091401Y-46843253D01*
X28073223Y-46826777D01*
X28056747Y-46808599D01*
X28042132Y-46788893D01*
X28029520Y-46767850D01*
X28019030Y-46745671D01*
X28010765Y-46722572D01*
X28004804Y-46698773D01*
X28001204Y-46674505D01*
X28000000Y-46650001D01*
X28000000Y-45749999D01*
X28001204Y-45725495D01*
X28004804Y-45701227D01*
X28010765Y-45677428D01*
X28019030Y-45654329D01*
X28029520Y-45632150D01*
X28042132Y-45611107D01*
X28056747Y-45591401D01*
X28073223Y-45573223D01*
X28091401Y-45556747D01*
X28111107Y-45542132D01*
X28132150Y-45529520D01*
X28154329Y-45519030D01*
X28177428Y-45510765D01*
X28201227Y-45504804D01*
X28225495Y-45501204D01*
X28249999Y-45500000D01*
X28900001Y-45500000D01*
X28924505Y-45501204D01*
G37*
G36*
X30974505Y-45501204D02*
G01*
X30998773Y-45504804D01*
X31022572Y-45510765D01*
X31045671Y-45519030D01*
X31067850Y-45529520D01*
X31088893Y-45542132D01*
X31108599Y-45556747D01*
X31126777Y-45573223D01*
X31143253Y-45591401D01*
X31157868Y-45611107D01*
X31170480Y-45632150D01*
X31180970Y-45654329D01*
X31189235Y-45677428D01*
X31195196Y-45701227D01*
X31198796Y-45725495D01*
X31200000Y-45749999D01*
X31200000Y-46650001D01*
X31198796Y-46674505D01*
X31195196Y-46698773D01*
X31189235Y-46722572D01*
X31180970Y-46745671D01*
X31170480Y-46767850D01*
X31157868Y-46788893D01*
X31143253Y-46808599D01*
X31126777Y-46826777D01*
X31108599Y-46843253D01*
X31088893Y-46857868D01*
X31067850Y-46870480D01*
X31045671Y-46880970D01*
X31022572Y-46889235D01*
X30998773Y-46895196D01*
X30974505Y-46898796D01*
X30950001Y-46900000D01*
X30299999Y-46900000D01*
X30275495Y-46898796D01*
X30251227Y-46895196D01*
X30227428Y-46889235D01*
X30204329Y-46880970D01*
X30182150Y-46870480D01*
X30161107Y-46857868D01*
X30141401Y-46843253D01*
X30123223Y-46826777D01*
X30106747Y-46808599D01*
X30092132Y-46788893D01*
X30079520Y-46767850D01*
X30069030Y-46745671D01*
X30060765Y-46722572D01*
X30054804Y-46698773D01*
X30051204Y-46674505D01*
X30050000Y-46650001D01*
X30050000Y-45749999D01*
X30051204Y-45725495D01*
X30054804Y-45701227D01*
X30060765Y-45677428D01*
X30069030Y-45654329D01*
X30079520Y-45632150D01*
X30092132Y-45611107D01*
X30106747Y-45591401D01*
X30123223Y-45573223D01*
X30141401Y-45556747D01*
X30161107Y-45542132D01*
X30182150Y-45529520D01*
X30204329Y-45519030D01*
X30227428Y-45510765D01*
X30251227Y-45504804D01*
X30275495Y-45501204D01*
X30299999Y-45500000D01*
X30950001Y-45500000D01*
X30974505Y-45501204D01*
G37*
G36*
X28924505Y-47501204D02*
G01*
X28948773Y-47504804D01*
X28972572Y-47510765D01*
X28995671Y-47519030D01*
X29017850Y-47529520D01*
X29038893Y-47542132D01*
X29058599Y-47556747D01*
X29076777Y-47573223D01*
X29093253Y-47591401D01*
X29107868Y-47611107D01*
X29120480Y-47632150D01*
X29130970Y-47654329D01*
X29139235Y-47677428D01*
X29145196Y-47701227D01*
X29148796Y-47725495D01*
X29150000Y-47749999D01*
X29150000Y-48650001D01*
X29148796Y-48674505D01*
X29145196Y-48698773D01*
X29139235Y-48722572D01*
X29130970Y-48745671D01*
X29120480Y-48767850D01*
X29107868Y-48788893D01*
X29093253Y-48808599D01*
X29076777Y-48826777D01*
X29058599Y-48843253D01*
X29038893Y-48857868D01*
X29017850Y-48870480D01*
X28995671Y-48880970D01*
X28972572Y-48889235D01*
X28948773Y-48895196D01*
X28924505Y-48898796D01*
X28900001Y-48900000D01*
X28249999Y-48900000D01*
X28225495Y-48898796D01*
X28201227Y-48895196D01*
X28177428Y-48889235D01*
X28154329Y-48880970D01*
X28132150Y-48870480D01*
X28111107Y-48857868D01*
X28091401Y-48843253D01*
X28073223Y-48826777D01*
X28056747Y-48808599D01*
X28042132Y-48788893D01*
X28029520Y-48767850D01*
X28019030Y-48745671D01*
X28010765Y-48722572D01*
X28004804Y-48698773D01*
X28001204Y-48674505D01*
X28000000Y-48650001D01*
X28000000Y-47749999D01*
X28001204Y-47725495D01*
X28004804Y-47701227D01*
X28010765Y-47677428D01*
X28019030Y-47654329D01*
X28029520Y-47632150D01*
X28042132Y-47611107D01*
X28056747Y-47591401D01*
X28073223Y-47573223D01*
X28091401Y-47556747D01*
X28111107Y-47542132D01*
X28132150Y-47529520D01*
X28154329Y-47519030D01*
X28177428Y-47510765D01*
X28201227Y-47504804D01*
X28225495Y-47501204D01*
X28249999Y-47500000D01*
X28900001Y-47500000D01*
X28924505Y-47501204D01*
G37*
G36*
X30974505Y-47501204D02*
G01*
X30998773Y-47504804D01*
X31022572Y-47510765D01*
X31045671Y-47519030D01*
X31067850Y-47529520D01*
X31088893Y-47542132D01*
X31108599Y-47556747D01*
X31126777Y-47573223D01*
X31143253Y-47591401D01*
X31157868Y-47611107D01*
X31170480Y-47632150D01*
X31180970Y-47654329D01*
X31189235Y-47677428D01*
X31195196Y-47701227D01*
X31198796Y-47725495D01*
X31200000Y-47749999D01*
X31200000Y-48650001D01*
X31198796Y-48674505D01*
X31195196Y-48698773D01*
X31189235Y-48722572D01*
X31180970Y-48745671D01*
X31170480Y-48767850D01*
X31157868Y-48788893D01*
X31143253Y-48808599D01*
X31126777Y-48826777D01*
X31108599Y-48843253D01*
X31088893Y-48857868D01*
X31067850Y-48870480D01*
X31045671Y-48880970D01*
X31022572Y-48889235D01*
X30998773Y-48895196D01*
X30974505Y-48898796D01*
X30950001Y-48900000D01*
X30299999Y-48900000D01*
X30275495Y-48898796D01*
X30251227Y-48895196D01*
X30227428Y-48889235D01*
X30204329Y-48880970D01*
X30182150Y-48870480D01*
X30161107Y-48857868D01*
X30141401Y-48843253D01*
X30123223Y-48826777D01*
X30106747Y-48808599D01*
X30092132Y-48788893D01*
X30079520Y-48767850D01*
X30069030Y-48745671D01*
X30060765Y-48722572D01*
X30054804Y-48698773D01*
X30051204Y-48674505D01*
X30050000Y-48650001D01*
X30050000Y-47749999D01*
X30051204Y-47725495D01*
X30054804Y-47701227D01*
X30060765Y-47677428D01*
X30069030Y-47654329D01*
X30079520Y-47632150D01*
X30092132Y-47611107D01*
X30106747Y-47591401D01*
X30123223Y-47573223D01*
X30141401Y-47556747D01*
X30161107Y-47542132D01*
X30182150Y-47529520D01*
X30204329Y-47519030D01*
X30227428Y-47510765D01*
X30251227Y-47504804D01*
X30275495Y-47501204D01*
X30299999Y-47500000D01*
X30950001Y-47500000D01*
X30974505Y-47501204D01*
G37*
D15*
X35110000Y-54650000D03*
X35110000Y-56550000D03*
X32490000Y-56550000D03*
X32490000Y-55600000D03*
X32490000Y-54650000D03*
X40110000Y-54650000D03*
X40110000Y-56550000D03*
X37490000Y-56550000D03*
X37490000Y-55600000D03*
X37490000Y-54650000D03*
D11*
G36*
X48314703Y-62695722D02*
G01*
X48329264Y-62697882D01*
X48343543Y-62701459D01*
X48357403Y-62706418D01*
X48370710Y-62712712D01*
X48383336Y-62720280D01*
X48395159Y-62729048D01*
X48406066Y-62738934D01*
X48415952Y-62749841D01*
X48424720Y-62761664D01*
X48432288Y-62774290D01*
X48438582Y-62787597D01*
X48443541Y-62801457D01*
X48447118Y-62815736D01*
X48449278Y-62830297D01*
X48450000Y-62845000D01*
X48450000Y-63145000D01*
X48449278Y-63159703D01*
X48447118Y-63174264D01*
X48443541Y-63188543D01*
X48438582Y-63202403D01*
X48432288Y-63215710D01*
X48424720Y-63228336D01*
X48415952Y-63240159D01*
X48406066Y-63251066D01*
X48395159Y-63260952D01*
X48383336Y-63269720D01*
X48370710Y-63277288D01*
X48357403Y-63283582D01*
X48343543Y-63288541D01*
X48329264Y-63292118D01*
X48314703Y-63294278D01*
X48300000Y-63295000D01*
X46650000Y-63295000D01*
X46635297Y-63294278D01*
X46620736Y-63292118D01*
X46606457Y-63288541D01*
X46592597Y-63283582D01*
X46579290Y-63277288D01*
X46566664Y-63269720D01*
X46554841Y-63260952D01*
X46543934Y-63251066D01*
X46534048Y-63240159D01*
X46525280Y-63228336D01*
X46517712Y-63215710D01*
X46511418Y-63202403D01*
X46506459Y-63188543D01*
X46502882Y-63174264D01*
X46500722Y-63159703D01*
X46500000Y-63145000D01*
X46500000Y-62845000D01*
X46500722Y-62830297D01*
X46502882Y-62815736D01*
X46506459Y-62801457D01*
X46511418Y-62787597D01*
X46517712Y-62774290D01*
X46525280Y-62761664D01*
X46534048Y-62749841D01*
X46543934Y-62738934D01*
X46554841Y-62729048D01*
X46566664Y-62720280D01*
X46579290Y-62712712D01*
X46592597Y-62706418D01*
X46606457Y-62701459D01*
X46620736Y-62697882D01*
X46635297Y-62695722D01*
X46650000Y-62695000D01*
X48300000Y-62695000D01*
X48314703Y-62695722D01*
G37*
G36*
X48314703Y-63965722D02*
G01*
X48329264Y-63967882D01*
X48343543Y-63971459D01*
X48357403Y-63976418D01*
X48370710Y-63982712D01*
X48383336Y-63990280D01*
X48395159Y-63999048D01*
X48406066Y-64008934D01*
X48415952Y-64019841D01*
X48424720Y-64031664D01*
X48432288Y-64044290D01*
X48438582Y-64057597D01*
X48443541Y-64071457D01*
X48447118Y-64085736D01*
X48449278Y-64100297D01*
X48450000Y-64115000D01*
X48450000Y-64415000D01*
X48449278Y-64429703D01*
X48447118Y-64444264D01*
X48443541Y-64458543D01*
X48438582Y-64472403D01*
X48432288Y-64485710D01*
X48424720Y-64498336D01*
X48415952Y-64510159D01*
X48406066Y-64521066D01*
X48395159Y-64530952D01*
X48383336Y-64539720D01*
X48370710Y-64547288D01*
X48357403Y-64553582D01*
X48343543Y-64558541D01*
X48329264Y-64562118D01*
X48314703Y-64564278D01*
X48300000Y-64565000D01*
X46650000Y-64565000D01*
X46635297Y-64564278D01*
X46620736Y-64562118D01*
X46606457Y-64558541D01*
X46592597Y-64553582D01*
X46579290Y-64547288D01*
X46566664Y-64539720D01*
X46554841Y-64530952D01*
X46543934Y-64521066D01*
X46534048Y-64510159D01*
X46525280Y-64498336D01*
X46517712Y-64485710D01*
X46511418Y-64472403D01*
X46506459Y-64458543D01*
X46502882Y-64444264D01*
X46500722Y-64429703D01*
X46500000Y-64415000D01*
X46500000Y-64115000D01*
X46500722Y-64100297D01*
X46502882Y-64085736D01*
X46506459Y-64071457D01*
X46511418Y-64057597D01*
X46517712Y-64044290D01*
X46525280Y-64031664D01*
X46534048Y-64019841D01*
X46543934Y-64008934D01*
X46554841Y-63999048D01*
X46566664Y-63990280D01*
X46579290Y-63982712D01*
X46592597Y-63976418D01*
X46606457Y-63971459D01*
X46620736Y-63967882D01*
X46635297Y-63965722D01*
X46650000Y-63965000D01*
X48300000Y-63965000D01*
X48314703Y-63965722D01*
G37*
G36*
X48314703Y-65235722D02*
G01*
X48329264Y-65237882D01*
X48343543Y-65241459D01*
X48357403Y-65246418D01*
X48370710Y-65252712D01*
X48383336Y-65260280D01*
X48395159Y-65269048D01*
X48406066Y-65278934D01*
X48415952Y-65289841D01*
X48424720Y-65301664D01*
X48432288Y-65314290D01*
X48438582Y-65327597D01*
X48443541Y-65341457D01*
X48447118Y-65355736D01*
X48449278Y-65370297D01*
X48450000Y-65385000D01*
X48450000Y-65685000D01*
X48449278Y-65699703D01*
X48447118Y-65714264D01*
X48443541Y-65728543D01*
X48438582Y-65742403D01*
X48432288Y-65755710D01*
X48424720Y-65768336D01*
X48415952Y-65780159D01*
X48406066Y-65791066D01*
X48395159Y-65800952D01*
X48383336Y-65809720D01*
X48370710Y-65817288D01*
X48357403Y-65823582D01*
X48343543Y-65828541D01*
X48329264Y-65832118D01*
X48314703Y-65834278D01*
X48300000Y-65835000D01*
X46650000Y-65835000D01*
X46635297Y-65834278D01*
X46620736Y-65832118D01*
X46606457Y-65828541D01*
X46592597Y-65823582D01*
X46579290Y-65817288D01*
X46566664Y-65809720D01*
X46554841Y-65800952D01*
X46543934Y-65791066D01*
X46534048Y-65780159D01*
X46525280Y-65768336D01*
X46517712Y-65755710D01*
X46511418Y-65742403D01*
X46506459Y-65728543D01*
X46502882Y-65714264D01*
X46500722Y-65699703D01*
X46500000Y-65685000D01*
X46500000Y-65385000D01*
X46500722Y-65370297D01*
X46502882Y-65355736D01*
X46506459Y-65341457D01*
X46511418Y-65327597D01*
X46517712Y-65314290D01*
X46525280Y-65301664D01*
X46534048Y-65289841D01*
X46543934Y-65278934D01*
X46554841Y-65269048D01*
X46566664Y-65260280D01*
X46579290Y-65252712D01*
X46592597Y-65246418D01*
X46606457Y-65241459D01*
X46620736Y-65237882D01*
X46635297Y-65235722D01*
X46650000Y-65235000D01*
X48300000Y-65235000D01*
X48314703Y-65235722D01*
G37*
G36*
X48314703Y-66505722D02*
G01*
X48329264Y-66507882D01*
X48343543Y-66511459D01*
X48357403Y-66516418D01*
X48370710Y-66522712D01*
X48383336Y-66530280D01*
X48395159Y-66539048D01*
X48406066Y-66548934D01*
X48415952Y-66559841D01*
X48424720Y-66571664D01*
X48432288Y-66584290D01*
X48438582Y-66597597D01*
X48443541Y-66611457D01*
X48447118Y-66625736D01*
X48449278Y-66640297D01*
X48450000Y-66655000D01*
X48450000Y-66955000D01*
X48449278Y-66969703D01*
X48447118Y-66984264D01*
X48443541Y-66998543D01*
X48438582Y-67012403D01*
X48432288Y-67025710D01*
X48424720Y-67038336D01*
X48415952Y-67050159D01*
X48406066Y-67061066D01*
X48395159Y-67070952D01*
X48383336Y-67079720D01*
X48370710Y-67087288D01*
X48357403Y-67093582D01*
X48343543Y-67098541D01*
X48329264Y-67102118D01*
X48314703Y-67104278D01*
X48300000Y-67105000D01*
X46650000Y-67105000D01*
X46635297Y-67104278D01*
X46620736Y-67102118D01*
X46606457Y-67098541D01*
X46592597Y-67093582D01*
X46579290Y-67087288D01*
X46566664Y-67079720D01*
X46554841Y-67070952D01*
X46543934Y-67061066D01*
X46534048Y-67050159D01*
X46525280Y-67038336D01*
X46517712Y-67025710D01*
X46511418Y-67012403D01*
X46506459Y-66998543D01*
X46502882Y-66984264D01*
X46500722Y-66969703D01*
X46500000Y-66955000D01*
X46500000Y-66655000D01*
X46500722Y-66640297D01*
X46502882Y-66625736D01*
X46506459Y-66611457D01*
X46511418Y-66597597D01*
X46517712Y-66584290D01*
X46525280Y-66571664D01*
X46534048Y-66559841D01*
X46543934Y-66548934D01*
X46554841Y-66539048D01*
X46566664Y-66530280D01*
X46579290Y-66522712D01*
X46592597Y-66516418D01*
X46606457Y-66511459D01*
X46620736Y-66507882D01*
X46635297Y-66505722D01*
X46650000Y-66505000D01*
X48300000Y-66505000D01*
X48314703Y-66505722D01*
G37*
G36*
X43364703Y-66505722D02*
G01*
X43379264Y-66507882D01*
X43393543Y-66511459D01*
X43407403Y-66516418D01*
X43420710Y-66522712D01*
X43433336Y-66530280D01*
X43445159Y-66539048D01*
X43456066Y-66548934D01*
X43465952Y-66559841D01*
X43474720Y-66571664D01*
X43482288Y-66584290D01*
X43488582Y-66597597D01*
X43493541Y-66611457D01*
X43497118Y-66625736D01*
X43499278Y-66640297D01*
X43500000Y-66655000D01*
X43500000Y-66955000D01*
X43499278Y-66969703D01*
X43497118Y-66984264D01*
X43493541Y-66998543D01*
X43488582Y-67012403D01*
X43482288Y-67025710D01*
X43474720Y-67038336D01*
X43465952Y-67050159D01*
X43456066Y-67061066D01*
X43445159Y-67070952D01*
X43433336Y-67079720D01*
X43420710Y-67087288D01*
X43407403Y-67093582D01*
X43393543Y-67098541D01*
X43379264Y-67102118D01*
X43364703Y-67104278D01*
X43350000Y-67105000D01*
X41700000Y-67105000D01*
X41685297Y-67104278D01*
X41670736Y-67102118D01*
X41656457Y-67098541D01*
X41642597Y-67093582D01*
X41629290Y-67087288D01*
X41616664Y-67079720D01*
X41604841Y-67070952D01*
X41593934Y-67061066D01*
X41584048Y-67050159D01*
X41575280Y-67038336D01*
X41567712Y-67025710D01*
X41561418Y-67012403D01*
X41556459Y-66998543D01*
X41552882Y-66984264D01*
X41550722Y-66969703D01*
X41550000Y-66955000D01*
X41550000Y-66655000D01*
X41550722Y-66640297D01*
X41552882Y-66625736D01*
X41556459Y-66611457D01*
X41561418Y-66597597D01*
X41567712Y-66584290D01*
X41575280Y-66571664D01*
X41584048Y-66559841D01*
X41593934Y-66548934D01*
X41604841Y-66539048D01*
X41616664Y-66530280D01*
X41629290Y-66522712D01*
X41642597Y-66516418D01*
X41656457Y-66511459D01*
X41670736Y-66507882D01*
X41685297Y-66505722D01*
X41700000Y-66505000D01*
X43350000Y-66505000D01*
X43364703Y-66505722D01*
G37*
G36*
X43364703Y-65235722D02*
G01*
X43379264Y-65237882D01*
X43393543Y-65241459D01*
X43407403Y-65246418D01*
X43420710Y-65252712D01*
X43433336Y-65260280D01*
X43445159Y-65269048D01*
X43456066Y-65278934D01*
X43465952Y-65289841D01*
X43474720Y-65301664D01*
X43482288Y-65314290D01*
X43488582Y-65327597D01*
X43493541Y-65341457D01*
X43497118Y-65355736D01*
X43499278Y-65370297D01*
X43500000Y-65385000D01*
X43500000Y-65685000D01*
X43499278Y-65699703D01*
X43497118Y-65714264D01*
X43493541Y-65728543D01*
X43488582Y-65742403D01*
X43482288Y-65755710D01*
X43474720Y-65768336D01*
X43465952Y-65780159D01*
X43456066Y-65791066D01*
X43445159Y-65800952D01*
X43433336Y-65809720D01*
X43420710Y-65817288D01*
X43407403Y-65823582D01*
X43393543Y-65828541D01*
X43379264Y-65832118D01*
X43364703Y-65834278D01*
X43350000Y-65835000D01*
X41700000Y-65835000D01*
X41685297Y-65834278D01*
X41670736Y-65832118D01*
X41656457Y-65828541D01*
X41642597Y-65823582D01*
X41629290Y-65817288D01*
X41616664Y-65809720D01*
X41604841Y-65800952D01*
X41593934Y-65791066D01*
X41584048Y-65780159D01*
X41575280Y-65768336D01*
X41567712Y-65755710D01*
X41561418Y-65742403D01*
X41556459Y-65728543D01*
X41552882Y-65714264D01*
X41550722Y-65699703D01*
X41550000Y-65685000D01*
X41550000Y-65385000D01*
X41550722Y-65370297D01*
X41552882Y-65355736D01*
X41556459Y-65341457D01*
X41561418Y-65327597D01*
X41567712Y-65314290D01*
X41575280Y-65301664D01*
X41584048Y-65289841D01*
X41593934Y-65278934D01*
X41604841Y-65269048D01*
X41616664Y-65260280D01*
X41629290Y-65252712D01*
X41642597Y-65246418D01*
X41656457Y-65241459D01*
X41670736Y-65237882D01*
X41685297Y-65235722D01*
X41700000Y-65235000D01*
X43350000Y-65235000D01*
X43364703Y-65235722D01*
G37*
G36*
X43364703Y-63965722D02*
G01*
X43379264Y-63967882D01*
X43393543Y-63971459D01*
X43407403Y-63976418D01*
X43420710Y-63982712D01*
X43433336Y-63990280D01*
X43445159Y-63999048D01*
X43456066Y-64008934D01*
X43465952Y-64019841D01*
X43474720Y-64031664D01*
X43482288Y-64044290D01*
X43488582Y-64057597D01*
X43493541Y-64071457D01*
X43497118Y-64085736D01*
X43499278Y-64100297D01*
X43500000Y-64115000D01*
X43500000Y-64415000D01*
X43499278Y-64429703D01*
X43497118Y-64444264D01*
X43493541Y-64458543D01*
X43488582Y-64472403D01*
X43482288Y-64485710D01*
X43474720Y-64498336D01*
X43465952Y-64510159D01*
X43456066Y-64521066D01*
X43445159Y-64530952D01*
X43433336Y-64539720D01*
X43420710Y-64547288D01*
X43407403Y-64553582D01*
X43393543Y-64558541D01*
X43379264Y-64562118D01*
X43364703Y-64564278D01*
X43350000Y-64565000D01*
X41700000Y-64565000D01*
X41685297Y-64564278D01*
X41670736Y-64562118D01*
X41656457Y-64558541D01*
X41642597Y-64553582D01*
X41629290Y-64547288D01*
X41616664Y-64539720D01*
X41604841Y-64530952D01*
X41593934Y-64521066D01*
X41584048Y-64510159D01*
X41575280Y-64498336D01*
X41567712Y-64485710D01*
X41561418Y-64472403D01*
X41556459Y-64458543D01*
X41552882Y-64444264D01*
X41550722Y-64429703D01*
X41550000Y-64415000D01*
X41550000Y-64115000D01*
X41550722Y-64100297D01*
X41552882Y-64085736D01*
X41556459Y-64071457D01*
X41561418Y-64057597D01*
X41567712Y-64044290D01*
X41575280Y-64031664D01*
X41584048Y-64019841D01*
X41593934Y-64008934D01*
X41604841Y-63999048D01*
X41616664Y-63990280D01*
X41629290Y-63982712D01*
X41642597Y-63976418D01*
X41656457Y-63971459D01*
X41670736Y-63967882D01*
X41685297Y-63965722D01*
X41700000Y-63965000D01*
X43350000Y-63965000D01*
X43364703Y-63965722D01*
G37*
G36*
X43364703Y-62695722D02*
G01*
X43379264Y-62697882D01*
X43393543Y-62701459D01*
X43407403Y-62706418D01*
X43420710Y-62712712D01*
X43433336Y-62720280D01*
X43445159Y-62729048D01*
X43456066Y-62738934D01*
X43465952Y-62749841D01*
X43474720Y-62761664D01*
X43482288Y-62774290D01*
X43488582Y-62787597D01*
X43493541Y-62801457D01*
X43497118Y-62815736D01*
X43499278Y-62830297D01*
X43500000Y-62845000D01*
X43500000Y-63145000D01*
X43499278Y-63159703D01*
X43497118Y-63174264D01*
X43493541Y-63188543D01*
X43488582Y-63202403D01*
X43482288Y-63215710D01*
X43474720Y-63228336D01*
X43465952Y-63240159D01*
X43456066Y-63251066D01*
X43445159Y-63260952D01*
X43433336Y-63269720D01*
X43420710Y-63277288D01*
X43407403Y-63283582D01*
X43393543Y-63288541D01*
X43379264Y-63292118D01*
X43364703Y-63294278D01*
X43350000Y-63295000D01*
X41700000Y-63295000D01*
X41685297Y-63294278D01*
X41670736Y-63292118D01*
X41656457Y-63288541D01*
X41642597Y-63283582D01*
X41629290Y-63277288D01*
X41616664Y-63269720D01*
X41604841Y-63260952D01*
X41593934Y-63251066D01*
X41584048Y-63240159D01*
X41575280Y-63228336D01*
X41567712Y-63215710D01*
X41561418Y-63202403D01*
X41556459Y-63188543D01*
X41552882Y-63174264D01*
X41550722Y-63159703D01*
X41550000Y-63145000D01*
X41550000Y-62845000D01*
X41550722Y-62830297D01*
X41552882Y-62815736D01*
X41556459Y-62801457D01*
X41561418Y-62787597D01*
X41567712Y-62774290D01*
X41575280Y-62761664D01*
X41584048Y-62749841D01*
X41593934Y-62738934D01*
X41604841Y-62729048D01*
X41616664Y-62720280D01*
X41629290Y-62712712D01*
X41642597Y-62706418D01*
X41656457Y-62701459D01*
X41670736Y-62697882D01*
X41685297Y-62695722D01*
X41700000Y-62695000D01*
X43350000Y-62695000D01*
X43364703Y-62695722D01*
G37*
G36*
X44324505Y-67951204D02*
G01*
X44348773Y-67954804D01*
X44372572Y-67960765D01*
X44395671Y-67969030D01*
X44417850Y-67979520D01*
X44438893Y-67992132D01*
X44458599Y-68006747D01*
X44476777Y-68023223D01*
X44493253Y-68041401D01*
X44507868Y-68061107D01*
X44520480Y-68082150D01*
X44530970Y-68104329D01*
X44539235Y-68127428D01*
X44545196Y-68151227D01*
X44548796Y-68175495D01*
X44550000Y-68199999D01*
X44550000Y-69100001D01*
X44548796Y-69124505D01*
X44545196Y-69148773D01*
X44539235Y-69172572D01*
X44530970Y-69195671D01*
X44520480Y-69217850D01*
X44507868Y-69238893D01*
X44493253Y-69258599D01*
X44476777Y-69276777D01*
X44458599Y-69293253D01*
X44438893Y-69307868D01*
X44417850Y-69320480D01*
X44395671Y-69330970D01*
X44372572Y-69339235D01*
X44348773Y-69345196D01*
X44324505Y-69348796D01*
X44300001Y-69350000D01*
X43649999Y-69350000D01*
X43625495Y-69348796D01*
X43601227Y-69345196D01*
X43577428Y-69339235D01*
X43554329Y-69330970D01*
X43532150Y-69320480D01*
X43511107Y-69307868D01*
X43491401Y-69293253D01*
X43473223Y-69276777D01*
X43456747Y-69258599D01*
X43442132Y-69238893D01*
X43429520Y-69217850D01*
X43419030Y-69195671D01*
X43410765Y-69172572D01*
X43404804Y-69148773D01*
X43401204Y-69124505D01*
X43400000Y-69100001D01*
X43400000Y-68199999D01*
X43401204Y-68175495D01*
X43404804Y-68151227D01*
X43410765Y-68127428D01*
X43419030Y-68104329D01*
X43429520Y-68082150D01*
X43442132Y-68061107D01*
X43456747Y-68041401D01*
X43473223Y-68023223D01*
X43491401Y-68006747D01*
X43511107Y-67992132D01*
X43532150Y-67979520D01*
X43554329Y-67969030D01*
X43577428Y-67960765D01*
X43601227Y-67954804D01*
X43625495Y-67951204D01*
X43649999Y-67950000D01*
X44300001Y-67950000D01*
X44324505Y-67951204D01*
G37*
G36*
X46374505Y-67951204D02*
G01*
X46398773Y-67954804D01*
X46422572Y-67960765D01*
X46445671Y-67969030D01*
X46467850Y-67979520D01*
X46488893Y-67992132D01*
X46508599Y-68006747D01*
X46526777Y-68023223D01*
X46543253Y-68041401D01*
X46557868Y-68061107D01*
X46570480Y-68082150D01*
X46580970Y-68104329D01*
X46589235Y-68127428D01*
X46595196Y-68151227D01*
X46598796Y-68175495D01*
X46600000Y-68199999D01*
X46600000Y-69100001D01*
X46598796Y-69124505D01*
X46595196Y-69148773D01*
X46589235Y-69172572D01*
X46580970Y-69195671D01*
X46570480Y-69217850D01*
X46557868Y-69238893D01*
X46543253Y-69258599D01*
X46526777Y-69276777D01*
X46508599Y-69293253D01*
X46488893Y-69307868D01*
X46467850Y-69320480D01*
X46445671Y-69330970D01*
X46422572Y-69339235D01*
X46398773Y-69345196D01*
X46374505Y-69348796D01*
X46350001Y-69350000D01*
X45699999Y-69350000D01*
X45675495Y-69348796D01*
X45651227Y-69345196D01*
X45627428Y-69339235D01*
X45604329Y-69330970D01*
X45582150Y-69320480D01*
X45561107Y-69307868D01*
X45541401Y-69293253D01*
X45523223Y-69276777D01*
X45506747Y-69258599D01*
X45492132Y-69238893D01*
X45479520Y-69217850D01*
X45469030Y-69195671D01*
X45460765Y-69172572D01*
X45454804Y-69148773D01*
X45451204Y-69124505D01*
X45450000Y-69100001D01*
X45450000Y-68199999D01*
X45451204Y-68175495D01*
X45454804Y-68151227D01*
X45460765Y-68127428D01*
X45469030Y-68104329D01*
X45479520Y-68082150D01*
X45492132Y-68061107D01*
X45506747Y-68041401D01*
X45523223Y-68023223D01*
X45541401Y-68006747D01*
X45561107Y-67992132D01*
X45582150Y-67979520D01*
X45604329Y-67969030D01*
X45627428Y-67960765D01*
X45651227Y-67954804D01*
X45675495Y-67951204D01*
X45699999Y-67950000D01*
X46350001Y-67950000D01*
X46374505Y-67951204D01*
G37*
G36*
X44324505Y-70001204D02*
G01*
X44348773Y-70004804D01*
X44372572Y-70010765D01*
X44395671Y-70019030D01*
X44417850Y-70029520D01*
X44438893Y-70042132D01*
X44458599Y-70056747D01*
X44476777Y-70073223D01*
X44493253Y-70091401D01*
X44507868Y-70111107D01*
X44520480Y-70132150D01*
X44530970Y-70154329D01*
X44539235Y-70177428D01*
X44545196Y-70201227D01*
X44548796Y-70225495D01*
X44550000Y-70249999D01*
X44550000Y-71150001D01*
X44548796Y-71174505D01*
X44545196Y-71198773D01*
X44539235Y-71222572D01*
X44530970Y-71245671D01*
X44520480Y-71267850D01*
X44507868Y-71288893D01*
X44493253Y-71308599D01*
X44476777Y-71326777D01*
X44458599Y-71343253D01*
X44438893Y-71357868D01*
X44417850Y-71370480D01*
X44395671Y-71380970D01*
X44372572Y-71389235D01*
X44348773Y-71395196D01*
X44324505Y-71398796D01*
X44300001Y-71400000D01*
X43649999Y-71400000D01*
X43625495Y-71398796D01*
X43601227Y-71395196D01*
X43577428Y-71389235D01*
X43554329Y-71380970D01*
X43532150Y-71370480D01*
X43511107Y-71357868D01*
X43491401Y-71343253D01*
X43473223Y-71326777D01*
X43456747Y-71308599D01*
X43442132Y-71288893D01*
X43429520Y-71267850D01*
X43419030Y-71245671D01*
X43410765Y-71222572D01*
X43404804Y-71198773D01*
X43401204Y-71174505D01*
X43400000Y-71150001D01*
X43400000Y-70249999D01*
X43401204Y-70225495D01*
X43404804Y-70201227D01*
X43410765Y-70177428D01*
X43419030Y-70154329D01*
X43429520Y-70132150D01*
X43442132Y-70111107D01*
X43456747Y-70091401D01*
X43473223Y-70073223D01*
X43491401Y-70056747D01*
X43511107Y-70042132D01*
X43532150Y-70029520D01*
X43554329Y-70019030D01*
X43577428Y-70010765D01*
X43601227Y-70004804D01*
X43625495Y-70001204D01*
X43649999Y-70000000D01*
X44300001Y-70000000D01*
X44324505Y-70001204D01*
G37*
G36*
X46374505Y-70001204D02*
G01*
X46398773Y-70004804D01*
X46422572Y-70010765D01*
X46445671Y-70019030D01*
X46467850Y-70029520D01*
X46488893Y-70042132D01*
X46508599Y-70056747D01*
X46526777Y-70073223D01*
X46543253Y-70091401D01*
X46557868Y-70111107D01*
X46570480Y-70132150D01*
X46580970Y-70154329D01*
X46589235Y-70177428D01*
X46595196Y-70201227D01*
X46598796Y-70225495D01*
X46600000Y-70249999D01*
X46600000Y-71150001D01*
X46598796Y-71174505D01*
X46595196Y-71198773D01*
X46589235Y-71222572D01*
X46580970Y-71245671D01*
X46570480Y-71267850D01*
X46557868Y-71288893D01*
X46543253Y-71308599D01*
X46526777Y-71326777D01*
X46508599Y-71343253D01*
X46488893Y-71357868D01*
X46467850Y-71370480D01*
X46445671Y-71380970D01*
X46422572Y-71389235D01*
X46398773Y-71395196D01*
X46374505Y-71398796D01*
X46350001Y-71400000D01*
X45699999Y-71400000D01*
X45675495Y-71398796D01*
X45651227Y-71395196D01*
X45627428Y-71389235D01*
X45604329Y-71380970D01*
X45582150Y-71370480D01*
X45561107Y-71357868D01*
X45541401Y-71343253D01*
X45523223Y-71326777D01*
X45506747Y-71308599D01*
X45492132Y-71288893D01*
X45479520Y-71267850D01*
X45469030Y-71245671D01*
X45460765Y-71222572D01*
X45454804Y-71198773D01*
X45451204Y-71174505D01*
X45450000Y-71150001D01*
X45450000Y-70249999D01*
X45451204Y-70225495D01*
X45454804Y-70201227D01*
X45460765Y-70177428D01*
X45469030Y-70154329D01*
X45479520Y-70132150D01*
X45492132Y-70111107D01*
X45506747Y-70091401D01*
X45523223Y-70073223D01*
X45541401Y-70056747D01*
X45561107Y-70042132D01*
X45582150Y-70029520D01*
X45604329Y-70019030D01*
X45627428Y-70010765D01*
X45651227Y-70004804D01*
X45675495Y-70001204D01*
X45699999Y-70000000D01*
X46350001Y-70000000D01*
X46374505Y-70001204D01*
G37*
G36*
X33124505Y-52001204D02*
G01*
X33148773Y-52004804D01*
X33172572Y-52010765D01*
X33195671Y-52019030D01*
X33217850Y-52029520D01*
X33238893Y-52042132D01*
X33258599Y-52056747D01*
X33276777Y-52073223D01*
X33293253Y-52091401D01*
X33307868Y-52111107D01*
X33320480Y-52132150D01*
X33330970Y-52154329D01*
X33339235Y-52177428D01*
X33345196Y-52201227D01*
X33348796Y-52225495D01*
X33350000Y-52249999D01*
X33350000Y-53150001D01*
X33348796Y-53174505D01*
X33345196Y-53198773D01*
X33339235Y-53222572D01*
X33330970Y-53245671D01*
X33320480Y-53267850D01*
X33307868Y-53288893D01*
X33293253Y-53308599D01*
X33276777Y-53326777D01*
X33258599Y-53343253D01*
X33238893Y-53357868D01*
X33217850Y-53370480D01*
X33195671Y-53380970D01*
X33172572Y-53389235D01*
X33148773Y-53395196D01*
X33124505Y-53398796D01*
X33100001Y-53400000D01*
X32449999Y-53400000D01*
X32425495Y-53398796D01*
X32401227Y-53395196D01*
X32377428Y-53389235D01*
X32354329Y-53380970D01*
X32332150Y-53370480D01*
X32311107Y-53357868D01*
X32291401Y-53343253D01*
X32273223Y-53326777D01*
X32256747Y-53308599D01*
X32242132Y-53288893D01*
X32229520Y-53267850D01*
X32219030Y-53245671D01*
X32210765Y-53222572D01*
X32204804Y-53198773D01*
X32201204Y-53174505D01*
X32200000Y-53150001D01*
X32200000Y-52249999D01*
X32201204Y-52225495D01*
X32204804Y-52201227D01*
X32210765Y-52177428D01*
X32219030Y-52154329D01*
X32229520Y-52132150D01*
X32242132Y-52111107D01*
X32256747Y-52091401D01*
X32273223Y-52073223D01*
X32291401Y-52056747D01*
X32311107Y-52042132D01*
X32332150Y-52029520D01*
X32354329Y-52019030D01*
X32377428Y-52010765D01*
X32401227Y-52004804D01*
X32425495Y-52001204D01*
X32449999Y-52000000D01*
X33100001Y-52000000D01*
X33124505Y-52001204D01*
G37*
G36*
X35174505Y-52001204D02*
G01*
X35198773Y-52004804D01*
X35222572Y-52010765D01*
X35245671Y-52019030D01*
X35267850Y-52029520D01*
X35288893Y-52042132D01*
X35308599Y-52056747D01*
X35326777Y-52073223D01*
X35343253Y-52091401D01*
X35357868Y-52111107D01*
X35370480Y-52132150D01*
X35380970Y-52154329D01*
X35389235Y-52177428D01*
X35395196Y-52201227D01*
X35398796Y-52225495D01*
X35400000Y-52249999D01*
X35400000Y-53150001D01*
X35398796Y-53174505D01*
X35395196Y-53198773D01*
X35389235Y-53222572D01*
X35380970Y-53245671D01*
X35370480Y-53267850D01*
X35357868Y-53288893D01*
X35343253Y-53308599D01*
X35326777Y-53326777D01*
X35308599Y-53343253D01*
X35288893Y-53357868D01*
X35267850Y-53370480D01*
X35245671Y-53380970D01*
X35222572Y-53389235D01*
X35198773Y-53395196D01*
X35174505Y-53398796D01*
X35150001Y-53400000D01*
X34499999Y-53400000D01*
X34475495Y-53398796D01*
X34451227Y-53395196D01*
X34427428Y-53389235D01*
X34404329Y-53380970D01*
X34382150Y-53370480D01*
X34361107Y-53357868D01*
X34341401Y-53343253D01*
X34323223Y-53326777D01*
X34306747Y-53308599D01*
X34292132Y-53288893D01*
X34279520Y-53267850D01*
X34269030Y-53245671D01*
X34260765Y-53222572D01*
X34254804Y-53198773D01*
X34251204Y-53174505D01*
X34250000Y-53150001D01*
X34250000Y-52249999D01*
X34251204Y-52225495D01*
X34254804Y-52201227D01*
X34260765Y-52177428D01*
X34269030Y-52154329D01*
X34279520Y-52132150D01*
X34292132Y-52111107D01*
X34306747Y-52091401D01*
X34323223Y-52073223D01*
X34341401Y-52056747D01*
X34361107Y-52042132D01*
X34382150Y-52029520D01*
X34404329Y-52019030D01*
X34427428Y-52010765D01*
X34451227Y-52004804D01*
X34475495Y-52001204D01*
X34499999Y-52000000D01*
X35150001Y-52000000D01*
X35174505Y-52001204D01*
G37*
M02*
