%TF.GenerationSoftware,KiCad,Pcbnew,(5.1.5)-2*%
%TF.CreationDate,2020-06-12T06:49:41+12:00*%
%TF.ProjectId,RGB-to-component,5247422d-746f-42d6-936f-6d706f6e656e,rev?*%
%TF.SameCoordinates,Original*%
%TF.FileFunction,Soldermask,Top*%
%TF.FilePolarity,Negative*%
%FSLAX46Y46*%
G04 Gerber Fmt 4.6, Leading zero omitted, Abs format (unit mm)*
G04 Created by KiCad (PCBNEW (5.1.5)-2) date 2020-06-12 06:49:41*
%MOMM*%
%LPD*%
G04 APERTURE LIST*
%ADD10C,0.100000*%
G04 APERTURE END LIST*
D10*
G36*
X27798254Y-105297818D02*
G01*
X28171511Y-105452426D01*
X28171513Y-105452427D01*
X28507436Y-105676884D01*
X28793116Y-105962564D01*
X29017574Y-106298489D01*
X29172182Y-106671746D01*
X29251000Y-107067993D01*
X29251000Y-107472007D01*
X29172182Y-107868254D01*
X29124501Y-107983365D01*
X29017573Y-108241513D01*
X28793116Y-108577436D01*
X28507436Y-108863116D01*
X28171513Y-109087573D01*
X28171512Y-109087574D01*
X28171511Y-109087574D01*
X27798254Y-109242182D01*
X27402007Y-109321000D01*
X26997993Y-109321000D01*
X26601746Y-109242182D01*
X26228489Y-109087574D01*
X26228488Y-109087574D01*
X26228487Y-109087573D01*
X25892564Y-108863116D01*
X25606884Y-108577436D01*
X25382427Y-108241513D01*
X25275499Y-107983365D01*
X25227818Y-107868254D01*
X25149000Y-107472007D01*
X25149000Y-107067993D01*
X25227818Y-106671746D01*
X25382426Y-106298489D01*
X25606884Y-105962564D01*
X25892564Y-105676884D01*
X26228487Y-105452427D01*
X26228489Y-105452426D01*
X26601746Y-105297818D01*
X26997993Y-105219000D01*
X27402007Y-105219000D01*
X27798254Y-105297818D01*
G37*
G36*
X69074549Y-106741116D02*
G01*
X69185734Y-106763232D01*
X69395203Y-106849997D01*
X69583720Y-106975960D01*
X69744040Y-107136280D01*
X69870003Y-107324797D01*
X69956768Y-107534266D01*
X70001000Y-107756636D01*
X70001000Y-107983364D01*
X69956768Y-108205734D01*
X69870003Y-108415203D01*
X69744040Y-108603720D01*
X69583720Y-108764040D01*
X69395203Y-108890003D01*
X69185734Y-108976768D01*
X69074549Y-108998884D01*
X68963365Y-109021000D01*
X68736635Y-109021000D01*
X68625451Y-108998884D01*
X68514266Y-108976768D01*
X68304797Y-108890003D01*
X68116280Y-108764040D01*
X67955960Y-108603720D01*
X67829997Y-108415203D01*
X67743232Y-108205734D01*
X67699000Y-107983364D01*
X67699000Y-107756636D01*
X67743232Y-107534266D01*
X67829997Y-107324797D01*
X67955960Y-107136280D01*
X68116280Y-106975960D01*
X68304797Y-106849997D01*
X68514266Y-106763232D01*
X68625451Y-106741116D01*
X68736635Y-106719000D01*
X68963365Y-106719000D01*
X69074549Y-106741116D01*
G37*
G36*
X66002585Y-102098802D02*
G01*
X66152410Y-102128604D01*
X66434674Y-102245521D01*
X66688705Y-102415259D01*
X66904741Y-102631295D01*
X67074479Y-102885326D01*
X67191396Y-103167590D01*
X67251000Y-103467240D01*
X67251000Y-103772760D01*
X67191396Y-104072410D01*
X67074479Y-104354674D01*
X66904741Y-104608705D01*
X66688705Y-104824741D01*
X66434674Y-104994479D01*
X66152410Y-105111396D01*
X66002585Y-105141198D01*
X65852761Y-105171000D01*
X65547239Y-105171000D01*
X65397415Y-105141198D01*
X65247590Y-105111396D01*
X64965326Y-104994479D01*
X64711295Y-104824741D01*
X64495259Y-104608705D01*
X64325521Y-104354674D01*
X64208604Y-104072410D01*
X64149000Y-103772760D01*
X64149000Y-103467240D01*
X64208604Y-103167590D01*
X64325521Y-102885326D01*
X64495259Y-102631295D01*
X64711295Y-102415259D01*
X64965326Y-102245521D01*
X65247590Y-102128604D01*
X65397415Y-102098802D01*
X65547239Y-102069000D01*
X65852761Y-102069000D01*
X66002585Y-102098802D01*
G37*
G36*
X61502585Y-102098802D02*
G01*
X61652410Y-102128604D01*
X61934674Y-102245521D01*
X62188705Y-102415259D01*
X62404741Y-102631295D01*
X62574479Y-102885326D01*
X62691396Y-103167590D01*
X62751000Y-103467240D01*
X62751000Y-103772760D01*
X62691396Y-104072410D01*
X62574479Y-104354674D01*
X62404741Y-104608705D01*
X62188705Y-104824741D01*
X61934674Y-104994479D01*
X61652410Y-105111396D01*
X61502585Y-105141198D01*
X61352761Y-105171000D01*
X61047239Y-105171000D01*
X60897415Y-105141198D01*
X60747590Y-105111396D01*
X60465326Y-104994479D01*
X60211295Y-104824741D01*
X59995259Y-104608705D01*
X59825521Y-104354674D01*
X59708604Y-104072410D01*
X59649000Y-103772760D01*
X59649000Y-103467240D01*
X59708604Y-103167590D01*
X59825521Y-102885326D01*
X59995259Y-102631295D01*
X60211295Y-102415259D01*
X60465326Y-102245521D01*
X60747590Y-102128604D01*
X60897415Y-102098802D01*
X61047239Y-102069000D01*
X61352761Y-102069000D01*
X61502585Y-102098802D01*
G37*
G36*
X34704549Y-98776116D02*
G01*
X34815734Y-98798232D01*
X35025203Y-98884997D01*
X35213720Y-99010960D01*
X35374040Y-99171280D01*
X35500003Y-99359797D01*
X35586768Y-99569266D01*
X35631000Y-99791636D01*
X35631000Y-100018364D01*
X35586768Y-100240734D01*
X35500003Y-100450203D01*
X35374040Y-100638720D01*
X35213720Y-100799040D01*
X35025203Y-100925003D01*
X34815734Y-101011768D01*
X34704549Y-101033884D01*
X34593365Y-101056000D01*
X34366635Y-101056000D01*
X34255451Y-101033884D01*
X34144266Y-101011768D01*
X33934797Y-100925003D01*
X33746280Y-100799040D01*
X33585960Y-100638720D01*
X33459997Y-100450203D01*
X33373232Y-100240734D01*
X33329000Y-100018364D01*
X33329000Y-99791636D01*
X33373232Y-99569266D01*
X33459997Y-99359797D01*
X33585960Y-99171280D01*
X33746280Y-99010960D01*
X33934797Y-98884997D01*
X34144266Y-98798232D01*
X34255451Y-98776116D01*
X34366635Y-98754000D01*
X34593365Y-98754000D01*
X34704549Y-98776116D01*
G37*
G36*
X69074549Y-98241116D02*
G01*
X69185734Y-98263232D01*
X69395203Y-98349997D01*
X69583720Y-98475960D01*
X69744040Y-98636280D01*
X69870003Y-98824797D01*
X69956768Y-99034266D01*
X70001000Y-99256636D01*
X70001000Y-99483364D01*
X69956768Y-99705734D01*
X69870003Y-99915203D01*
X69744040Y-100103720D01*
X69583720Y-100264040D01*
X69395203Y-100390003D01*
X69185734Y-100476768D01*
X69074549Y-100498884D01*
X68963365Y-100521000D01*
X68736635Y-100521000D01*
X68625451Y-100498884D01*
X68514266Y-100476768D01*
X68304797Y-100390003D01*
X68116280Y-100264040D01*
X67955960Y-100103720D01*
X67829997Y-99915203D01*
X67743232Y-99705734D01*
X67699000Y-99483364D01*
X67699000Y-99256636D01*
X67743232Y-99034266D01*
X67829997Y-98824797D01*
X67955960Y-98636280D01*
X68116280Y-98475960D01*
X68304797Y-98349997D01*
X68514266Y-98263232D01*
X68625451Y-98241116D01*
X68736635Y-98219000D01*
X68963365Y-98219000D01*
X69074549Y-98241116D01*
G37*
G36*
X29624549Y-96871116D02*
G01*
X29735734Y-96893232D01*
X29945203Y-96979997D01*
X30133720Y-97105960D01*
X30294040Y-97266280D01*
X30420003Y-97454797D01*
X30506768Y-97664266D01*
X30551000Y-97886636D01*
X30551000Y-98113364D01*
X30506768Y-98335734D01*
X30420003Y-98545203D01*
X30294040Y-98733720D01*
X30133720Y-98894040D01*
X29945203Y-99020003D01*
X29735734Y-99106768D01*
X29624549Y-99128884D01*
X29513365Y-99151000D01*
X29286635Y-99151000D01*
X29175451Y-99128884D01*
X29064266Y-99106768D01*
X28854797Y-99020003D01*
X28666280Y-98894040D01*
X28505960Y-98733720D01*
X28379997Y-98545203D01*
X28293232Y-98335734D01*
X28249000Y-98113364D01*
X28249000Y-97886636D01*
X28293232Y-97664266D01*
X28379997Y-97454797D01*
X28505960Y-97266280D01*
X28666280Y-97105960D01*
X28854797Y-96979997D01*
X29064266Y-96893232D01*
X29175451Y-96871116D01*
X29286635Y-96849000D01*
X29513365Y-96849000D01*
X29624549Y-96871116D01*
G37*
G36*
X34690714Y-94963364D02*
G01*
X34815734Y-94988232D01*
X35025203Y-95074997D01*
X35213720Y-95200960D01*
X35374040Y-95361280D01*
X35500003Y-95549797D01*
X35500004Y-95549799D01*
X35586768Y-95759267D01*
X35626054Y-95956768D01*
X35631000Y-95981636D01*
X35631000Y-96208364D01*
X35586768Y-96430734D01*
X35500003Y-96640203D01*
X35374040Y-96828720D01*
X35213720Y-96989040D01*
X35025203Y-97115003D01*
X34815734Y-97201768D01*
X34704549Y-97223884D01*
X34593365Y-97246000D01*
X34366635Y-97246000D01*
X34255451Y-97223884D01*
X34144266Y-97201768D01*
X33934797Y-97115003D01*
X33746280Y-96989040D01*
X33585960Y-96828720D01*
X33459997Y-96640203D01*
X33373232Y-96430734D01*
X33329000Y-96208364D01*
X33329000Y-95981636D01*
X33333947Y-95956768D01*
X33373232Y-95759267D01*
X33459996Y-95549799D01*
X33459997Y-95549797D01*
X33585960Y-95361280D01*
X33746280Y-95200960D01*
X33934797Y-95074997D01*
X34144266Y-94988232D01*
X34269286Y-94963364D01*
X34366635Y-94944000D01*
X34593365Y-94944000D01*
X34690714Y-94963364D01*
G37*
G36*
X69074549Y-93721116D02*
G01*
X69185734Y-93743232D01*
X69395203Y-93829997D01*
X69583720Y-93955960D01*
X69744040Y-94116280D01*
X69869046Y-94303365D01*
X69870004Y-94304799D01*
X69956768Y-94514267D01*
X70001000Y-94736635D01*
X70001000Y-94963365D01*
X69978884Y-95074549D01*
X69956768Y-95185734D01*
X69870003Y-95395203D01*
X69744040Y-95583720D01*
X69583720Y-95744040D01*
X69395203Y-95870003D01*
X69185734Y-95956768D01*
X69074549Y-95978884D01*
X68963365Y-96001000D01*
X68736635Y-96001000D01*
X68625451Y-95978884D01*
X68514266Y-95956768D01*
X68304797Y-95870003D01*
X68116280Y-95744040D01*
X67955960Y-95583720D01*
X67829997Y-95395203D01*
X67743232Y-95185734D01*
X67721116Y-95074549D01*
X67699000Y-94963365D01*
X67699000Y-94736635D01*
X67743232Y-94514267D01*
X67829996Y-94304799D01*
X67830954Y-94303365D01*
X67955960Y-94116280D01*
X68116280Y-93955960D01*
X68304797Y-93829997D01*
X68514266Y-93743232D01*
X68625451Y-93721116D01*
X68736635Y-93699000D01*
X68963365Y-93699000D01*
X69074549Y-93721116D01*
G37*
G36*
X29624549Y-93061116D02*
G01*
X29735734Y-93083232D01*
X29945203Y-93169997D01*
X30133720Y-93295960D01*
X30294040Y-93456280D01*
X30420003Y-93644797D01*
X30420004Y-93644799D01*
X30506768Y-93854267D01*
X30551000Y-94076635D01*
X30551000Y-94303365D01*
X30545646Y-94330282D01*
X30506768Y-94525734D01*
X30420003Y-94735203D01*
X30294040Y-94923720D01*
X30133720Y-95084040D01*
X29945203Y-95210003D01*
X29735734Y-95296768D01*
X29624549Y-95318884D01*
X29513365Y-95341000D01*
X29286635Y-95341000D01*
X29175451Y-95318884D01*
X29064266Y-95296768D01*
X28854797Y-95210003D01*
X28666280Y-95084040D01*
X28505960Y-94923720D01*
X28379997Y-94735203D01*
X28293232Y-94525734D01*
X28254354Y-94330282D01*
X28249000Y-94303365D01*
X28249000Y-94076635D01*
X28293232Y-93854267D01*
X28379996Y-93644799D01*
X28379997Y-93644797D01*
X28505960Y-93456280D01*
X28666280Y-93295960D01*
X28854797Y-93169997D01*
X29064266Y-93083232D01*
X29175451Y-93061116D01*
X29286635Y-93039000D01*
X29513365Y-93039000D01*
X29624549Y-93061116D01*
G37*
G36*
X38388674Y-93103465D02*
G01*
X38426367Y-93114899D01*
X38461103Y-93133466D01*
X38491548Y-93158452D01*
X38516534Y-93188897D01*
X38535101Y-93223633D01*
X38546535Y-93261326D01*
X38551000Y-93306661D01*
X38551000Y-94143339D01*
X38546535Y-94188674D01*
X38535101Y-94226367D01*
X38516534Y-94261103D01*
X38491548Y-94291548D01*
X38461103Y-94316534D01*
X38426367Y-94335101D01*
X38388674Y-94346535D01*
X38343339Y-94351000D01*
X37256661Y-94351000D01*
X37211326Y-94346535D01*
X37173633Y-94335101D01*
X37138897Y-94316534D01*
X37108452Y-94291548D01*
X37083466Y-94261103D01*
X37064899Y-94226367D01*
X37053465Y-94188674D01*
X37049000Y-94143339D01*
X37049000Y-93306661D01*
X37053465Y-93261326D01*
X37064899Y-93223633D01*
X37083466Y-93188897D01*
X37108452Y-93158452D01*
X37138897Y-93133466D01*
X37173633Y-93114899D01*
X37211326Y-93103465D01*
X37256661Y-93099000D01*
X38343339Y-93099000D01*
X38388674Y-93103465D01*
G37*
G36*
X34704549Y-91156116D02*
G01*
X34815734Y-91178232D01*
X35025203Y-91264997D01*
X35213720Y-91390960D01*
X35374040Y-91551280D01*
X35500003Y-91739797D01*
X35500004Y-91739799D01*
X35586768Y-91949267D01*
X35624444Y-92138674D01*
X35631000Y-92171636D01*
X35631000Y-92398364D01*
X35586768Y-92620734D01*
X35500003Y-92830203D01*
X35374040Y-93018720D01*
X35213720Y-93179040D01*
X35025203Y-93305003D01*
X35025202Y-93305004D01*
X35025201Y-93305004D01*
X34963850Y-93330416D01*
X34815734Y-93391768D01*
X34704549Y-93413884D01*
X34593365Y-93436000D01*
X34366635Y-93436000D01*
X34255451Y-93413884D01*
X34144266Y-93391768D01*
X33996150Y-93330416D01*
X33934799Y-93305004D01*
X33934798Y-93305004D01*
X33934797Y-93305003D01*
X33746280Y-93179040D01*
X33585960Y-93018720D01*
X33459997Y-92830203D01*
X33373232Y-92620734D01*
X33329000Y-92398364D01*
X33329000Y-92171636D01*
X33335557Y-92138674D01*
X33373232Y-91949267D01*
X33459996Y-91739799D01*
X33459997Y-91739797D01*
X33585960Y-91551280D01*
X33746280Y-91390960D01*
X33934797Y-91264997D01*
X34144266Y-91178232D01*
X34255451Y-91156116D01*
X34366635Y-91134000D01*
X34593365Y-91134000D01*
X34704549Y-91156116D01*
G37*
G36*
X38388674Y-91053465D02*
G01*
X38426367Y-91064899D01*
X38461103Y-91083466D01*
X38491548Y-91108452D01*
X38516534Y-91138897D01*
X38535101Y-91173633D01*
X38546535Y-91211326D01*
X38551000Y-91256661D01*
X38551000Y-92093339D01*
X38546535Y-92138674D01*
X38535101Y-92176367D01*
X38516534Y-92211103D01*
X38491548Y-92241548D01*
X38461103Y-92266534D01*
X38426367Y-92285101D01*
X38388674Y-92296535D01*
X38343339Y-92301000D01*
X37256661Y-92301000D01*
X37211326Y-92296535D01*
X37173633Y-92285101D01*
X37138897Y-92266534D01*
X37108452Y-92241548D01*
X37083466Y-92211103D01*
X37064899Y-92176367D01*
X37053465Y-92138674D01*
X37049000Y-92093339D01*
X37049000Y-91256661D01*
X37053465Y-91211326D01*
X37064899Y-91173633D01*
X37083466Y-91138897D01*
X37108452Y-91108452D01*
X37138897Y-91083466D01*
X37173633Y-91064899D01*
X37211326Y-91053465D01*
X37256661Y-91049000D01*
X38343339Y-91049000D01*
X38388674Y-91053465D01*
G37*
G36*
X61502585Y-89078802D02*
G01*
X61652410Y-89108604D01*
X61934674Y-89225521D01*
X62188705Y-89395259D01*
X62404741Y-89611295D01*
X62574479Y-89865326D01*
X62691396Y-90147590D01*
X62715075Y-90266635D01*
X62728063Y-90331925D01*
X62751000Y-90447240D01*
X62751000Y-90752760D01*
X62691396Y-91052410D01*
X62574479Y-91334674D01*
X62404741Y-91588705D01*
X62188705Y-91804741D01*
X61934674Y-91974479D01*
X61652410Y-92091396D01*
X61502585Y-92121198D01*
X61352761Y-92151000D01*
X61047239Y-92151000D01*
X60897415Y-92121198D01*
X60747590Y-92091396D01*
X60465326Y-91974479D01*
X60211295Y-91804741D01*
X59995259Y-91588705D01*
X59825521Y-91334674D01*
X59708604Y-91052410D01*
X59649000Y-90752760D01*
X59649000Y-90447240D01*
X59671938Y-90331925D01*
X59684925Y-90266635D01*
X59708604Y-90147590D01*
X59825521Y-89865326D01*
X59995259Y-89611295D01*
X60211295Y-89395259D01*
X60465326Y-89225521D01*
X60747590Y-89108604D01*
X60897415Y-89078802D01*
X61047239Y-89049000D01*
X61352761Y-89049000D01*
X61502585Y-89078802D01*
G37*
G36*
X66002585Y-89078802D02*
G01*
X66152410Y-89108604D01*
X66434674Y-89225521D01*
X66688705Y-89395259D01*
X66904741Y-89611295D01*
X67074479Y-89865326D01*
X67191396Y-90147590D01*
X67215075Y-90266635D01*
X67228063Y-90331925D01*
X67251000Y-90447240D01*
X67251000Y-90752760D01*
X67191396Y-91052410D01*
X67074479Y-91334674D01*
X66904741Y-91588705D01*
X66688705Y-91804741D01*
X66434674Y-91974479D01*
X66152410Y-92091396D01*
X66002585Y-92121198D01*
X65852761Y-92151000D01*
X65547239Y-92151000D01*
X65397415Y-92121198D01*
X65247590Y-92091396D01*
X64965326Y-91974479D01*
X64711295Y-91804741D01*
X64495259Y-91588705D01*
X64325521Y-91334674D01*
X64208604Y-91052410D01*
X64149000Y-90752760D01*
X64149000Y-90447240D01*
X64171938Y-90331925D01*
X64184925Y-90266635D01*
X64208604Y-90147590D01*
X64325521Y-89865326D01*
X64495259Y-89611295D01*
X64711295Y-89395259D01*
X64965326Y-89225521D01*
X65247590Y-89108604D01*
X65397415Y-89078802D01*
X65547239Y-89049000D01*
X65852761Y-89049000D01*
X66002585Y-89078802D01*
G37*
G36*
X29624549Y-89251116D02*
G01*
X29735734Y-89273232D01*
X29945203Y-89359997D01*
X30133720Y-89485960D01*
X30294040Y-89646280D01*
X30420003Y-89834797D01*
X30500328Y-90028718D01*
X30506768Y-90044267D01*
X30551000Y-90266635D01*
X30551000Y-90493365D01*
X30546391Y-90516534D01*
X30506768Y-90715734D01*
X30420003Y-90925203D01*
X30294040Y-91113720D01*
X30133720Y-91274040D01*
X29945203Y-91400003D01*
X29735734Y-91486768D01*
X29624549Y-91508884D01*
X29513365Y-91531000D01*
X29286635Y-91531000D01*
X29175451Y-91508884D01*
X29064266Y-91486768D01*
X28854797Y-91400003D01*
X28666280Y-91274040D01*
X28505960Y-91113720D01*
X28379997Y-90925203D01*
X28293232Y-90715734D01*
X28253609Y-90516534D01*
X28249000Y-90493365D01*
X28249000Y-90266635D01*
X28293232Y-90044267D01*
X28299673Y-90028718D01*
X28379997Y-89834797D01*
X28505960Y-89646280D01*
X28666280Y-89485960D01*
X28854797Y-89359997D01*
X29064266Y-89273232D01*
X29175451Y-89251116D01*
X29286635Y-89229000D01*
X29513365Y-89229000D01*
X29624549Y-89251116D01*
G37*
G36*
X46388674Y-89953465D02*
G01*
X46426367Y-89964899D01*
X46461103Y-89983466D01*
X46491548Y-90008452D01*
X46516534Y-90038897D01*
X46535101Y-90073633D01*
X46546535Y-90111326D01*
X46551000Y-90156661D01*
X46551000Y-91243339D01*
X46546535Y-91288674D01*
X46535101Y-91326367D01*
X46516534Y-91361103D01*
X46491548Y-91391548D01*
X46461103Y-91416534D01*
X46426367Y-91435101D01*
X46388674Y-91446535D01*
X46343339Y-91451000D01*
X45506661Y-91451000D01*
X45461326Y-91446535D01*
X45423633Y-91435101D01*
X45388897Y-91416534D01*
X45358452Y-91391548D01*
X45333466Y-91361103D01*
X45314899Y-91326367D01*
X45303465Y-91288674D01*
X45299000Y-91243339D01*
X45299000Y-90156661D01*
X45303465Y-90111326D01*
X45314899Y-90073633D01*
X45333466Y-90038897D01*
X45358452Y-90008452D01*
X45388897Y-89983466D01*
X45423633Y-89964899D01*
X45461326Y-89953465D01*
X45506661Y-89949000D01*
X46343339Y-89949000D01*
X46388674Y-89953465D01*
G37*
G36*
X44338674Y-89953465D02*
G01*
X44376367Y-89964899D01*
X44411103Y-89983466D01*
X44441548Y-90008452D01*
X44466534Y-90038897D01*
X44485101Y-90073633D01*
X44496535Y-90111326D01*
X44501000Y-90156661D01*
X44501000Y-91243339D01*
X44496535Y-91288674D01*
X44485101Y-91326367D01*
X44466534Y-91361103D01*
X44441548Y-91391548D01*
X44411103Y-91416534D01*
X44376367Y-91435101D01*
X44338674Y-91446535D01*
X44293339Y-91451000D01*
X43456661Y-91451000D01*
X43411326Y-91446535D01*
X43373633Y-91435101D01*
X43338897Y-91416534D01*
X43308452Y-91391548D01*
X43283466Y-91361103D01*
X43264899Y-91326367D01*
X43253465Y-91288674D01*
X43249000Y-91243339D01*
X43249000Y-90156661D01*
X43253465Y-90111326D01*
X43264899Y-90073633D01*
X43283466Y-90038897D01*
X43308452Y-90008452D01*
X43338897Y-89983466D01*
X43373633Y-89964899D01*
X43411326Y-89953465D01*
X43456661Y-89949000D01*
X44293339Y-89949000D01*
X44338674Y-89953465D01*
G37*
G36*
X38388674Y-89303465D02*
G01*
X38426367Y-89314899D01*
X38461103Y-89333466D01*
X38491548Y-89358452D01*
X38516534Y-89388897D01*
X38535101Y-89423633D01*
X38546535Y-89461326D01*
X38551000Y-89506661D01*
X38551000Y-90343339D01*
X38546535Y-90388674D01*
X38535101Y-90426367D01*
X38516534Y-90461103D01*
X38491548Y-90491548D01*
X38461103Y-90516534D01*
X38426367Y-90535101D01*
X38388674Y-90546535D01*
X38343339Y-90551000D01*
X37256661Y-90551000D01*
X37211326Y-90546535D01*
X37173633Y-90535101D01*
X37138897Y-90516534D01*
X37108452Y-90491548D01*
X37083466Y-90461103D01*
X37064899Y-90426367D01*
X37053465Y-90388674D01*
X37049000Y-90343339D01*
X37049000Y-89506661D01*
X37053465Y-89461326D01*
X37064899Y-89423633D01*
X37083466Y-89388897D01*
X37108452Y-89358452D01*
X37138897Y-89333466D01*
X37173633Y-89314899D01*
X37211326Y-89303465D01*
X37256661Y-89299000D01*
X38343339Y-89299000D01*
X38388674Y-89303465D01*
G37*
G36*
X34668257Y-87338897D02*
G01*
X34815734Y-87368232D01*
X35025203Y-87454997D01*
X35213720Y-87580960D01*
X35374040Y-87741280D01*
X35500003Y-87929797D01*
X35586768Y-88139266D01*
X35631000Y-88361636D01*
X35631000Y-88588364D01*
X35586768Y-88810734D01*
X35500003Y-89020203D01*
X35374040Y-89208720D01*
X35213720Y-89369040D01*
X35025203Y-89495003D01*
X34815734Y-89581768D01*
X34704549Y-89603884D01*
X34593365Y-89626000D01*
X34366635Y-89626000D01*
X34255451Y-89603884D01*
X34144266Y-89581768D01*
X33934797Y-89495003D01*
X33746280Y-89369040D01*
X33585960Y-89208720D01*
X33459997Y-89020203D01*
X33373232Y-88810734D01*
X33329000Y-88588364D01*
X33329000Y-88361636D01*
X33373232Y-88139266D01*
X33459997Y-87929797D01*
X33585960Y-87741280D01*
X33746280Y-87580960D01*
X33934797Y-87454997D01*
X34144266Y-87368232D01*
X34291743Y-87338897D01*
X34366635Y-87324000D01*
X34593365Y-87324000D01*
X34668257Y-87338897D01*
G37*
G36*
X43451000Y-89201000D02*
G01*
X41949000Y-89201000D01*
X41949000Y-86799000D01*
X43451000Y-86799000D01*
X43451000Y-89201000D01*
G37*
G36*
X47851000Y-89201000D02*
G01*
X46349000Y-89201000D01*
X46349000Y-86799000D01*
X47851000Y-86799000D01*
X47851000Y-89201000D01*
G37*
G36*
X25048903Y-84363213D02*
G01*
X25271177Y-84407426D01*
X25689932Y-84580880D01*
X26066802Y-84832696D01*
X26387304Y-85153198D01*
X26639120Y-85530068D01*
X26812574Y-85948823D01*
X26856787Y-86171097D01*
X26901000Y-86393370D01*
X26901000Y-86846630D01*
X26889243Y-86905734D01*
X26812574Y-87291177D01*
X26639120Y-87709932D01*
X26387304Y-88086802D01*
X26066802Y-88407304D01*
X25689932Y-88659120D01*
X25271177Y-88832574D01*
X25048903Y-88876787D01*
X24826630Y-88921000D01*
X24373370Y-88921000D01*
X24151097Y-88876787D01*
X23928823Y-88832574D01*
X23510068Y-88659120D01*
X23133198Y-88407304D01*
X22812696Y-88086802D01*
X22560880Y-87709932D01*
X22387426Y-87291177D01*
X22310757Y-86905734D01*
X22299000Y-86846630D01*
X22299000Y-86393370D01*
X22343213Y-86171097D01*
X22387426Y-85948823D01*
X22560880Y-85530068D01*
X22812696Y-85153198D01*
X23133198Y-84832696D01*
X23510068Y-84580880D01*
X23928823Y-84407426D01*
X24151097Y-84363213D01*
X24373370Y-84319000D01*
X24826630Y-84319000D01*
X25048903Y-84363213D01*
G37*
G36*
X38388674Y-87253465D02*
G01*
X38426367Y-87264899D01*
X38461103Y-87283466D01*
X38491548Y-87308452D01*
X38516534Y-87338897D01*
X38535101Y-87373633D01*
X38546535Y-87411326D01*
X38551000Y-87456661D01*
X38551000Y-88293339D01*
X38546535Y-88338674D01*
X38535101Y-88376367D01*
X38516534Y-88411103D01*
X38491548Y-88441548D01*
X38461103Y-88466534D01*
X38426367Y-88485101D01*
X38388674Y-88496535D01*
X38343339Y-88501000D01*
X37256661Y-88501000D01*
X37211326Y-88496535D01*
X37173633Y-88485101D01*
X37138897Y-88466534D01*
X37108452Y-88441548D01*
X37083466Y-88411103D01*
X37064899Y-88376367D01*
X37053465Y-88338674D01*
X37049000Y-88293339D01*
X37049000Y-87456661D01*
X37053465Y-87411326D01*
X37064899Y-87373633D01*
X37083466Y-87338897D01*
X37108452Y-87308452D01*
X37138897Y-87283466D01*
X37173633Y-87264899D01*
X37211326Y-87253465D01*
X37256661Y-87249000D01*
X38343339Y-87249000D01*
X38388674Y-87253465D01*
G37*
G36*
X29624549Y-85441116D02*
G01*
X29735734Y-85463232D01*
X29945203Y-85549997D01*
X30133720Y-85675960D01*
X30294040Y-85836280D01*
X30369239Y-85948824D01*
X30420004Y-86024799D01*
X30506768Y-86234267D01*
X30551000Y-86456635D01*
X30551000Y-86683365D01*
X30540709Y-86735101D01*
X30506768Y-86905734D01*
X30420003Y-87115203D01*
X30294040Y-87303720D01*
X30133720Y-87464040D01*
X29945203Y-87590003D01*
X29735734Y-87676768D01*
X29624549Y-87698884D01*
X29513365Y-87721000D01*
X29286635Y-87721000D01*
X29175451Y-87698884D01*
X29064266Y-87676768D01*
X28854797Y-87590003D01*
X28666280Y-87464040D01*
X28505960Y-87303720D01*
X28379997Y-87115203D01*
X28293232Y-86905734D01*
X28259291Y-86735101D01*
X28249000Y-86683365D01*
X28249000Y-86456635D01*
X28293232Y-86234267D01*
X28379996Y-86024799D01*
X28430761Y-85948824D01*
X28505960Y-85836280D01*
X28666280Y-85675960D01*
X28854797Y-85549997D01*
X29064266Y-85463232D01*
X29175451Y-85441116D01*
X29286635Y-85419000D01*
X29513365Y-85419000D01*
X29624549Y-85441116D01*
G37*
G36*
X69051514Y-85216534D02*
G01*
X69185734Y-85243232D01*
X69333850Y-85304584D01*
X69386440Y-85326367D01*
X69395203Y-85329997D01*
X69583720Y-85455960D01*
X69744040Y-85616280D01*
X69870003Y-85804797D01*
X69870004Y-85804799D01*
X69883044Y-85836280D01*
X69956768Y-86014266D01*
X70001000Y-86236636D01*
X70001000Y-86463364D01*
X69956768Y-86685734D01*
X69870003Y-86895203D01*
X69744040Y-87083720D01*
X69583720Y-87244040D01*
X69395203Y-87370003D01*
X69395202Y-87370004D01*
X69395201Y-87370004D01*
X69333850Y-87395416D01*
X69185734Y-87456768D01*
X69074549Y-87478884D01*
X68963365Y-87501000D01*
X68736635Y-87501000D01*
X68625451Y-87478884D01*
X68514266Y-87456768D01*
X68366150Y-87395416D01*
X68304799Y-87370004D01*
X68304798Y-87370004D01*
X68304797Y-87370003D01*
X68116280Y-87244040D01*
X67955960Y-87083720D01*
X67829997Y-86895203D01*
X67743232Y-86685734D01*
X67699000Y-86463364D01*
X67699000Y-86236636D01*
X67743232Y-86014266D01*
X67816956Y-85836280D01*
X67829996Y-85804799D01*
X67829997Y-85804797D01*
X67955960Y-85616280D01*
X68116280Y-85455960D01*
X68304797Y-85329997D01*
X68313561Y-85326367D01*
X68366150Y-85304584D01*
X68514266Y-85243232D01*
X68648486Y-85216534D01*
X68736635Y-85199000D01*
X68963365Y-85199000D01*
X69051514Y-85216534D01*
G37*
G36*
X38388674Y-85503465D02*
G01*
X38426367Y-85514899D01*
X38461103Y-85533466D01*
X38491548Y-85558452D01*
X38516534Y-85588897D01*
X38535101Y-85623633D01*
X38546535Y-85661326D01*
X38551000Y-85706661D01*
X38551000Y-86543339D01*
X38546535Y-86588674D01*
X38535101Y-86626367D01*
X38516534Y-86661103D01*
X38491548Y-86691548D01*
X38461103Y-86716534D01*
X38426367Y-86735101D01*
X38388674Y-86746535D01*
X38343339Y-86751000D01*
X37256661Y-86751000D01*
X37211326Y-86746535D01*
X37173633Y-86735101D01*
X37138897Y-86716534D01*
X37108452Y-86691548D01*
X37083466Y-86661103D01*
X37064899Y-86626367D01*
X37053465Y-86588674D01*
X37049000Y-86543339D01*
X37049000Y-85706661D01*
X37053465Y-85661326D01*
X37064899Y-85623633D01*
X37083466Y-85588897D01*
X37108452Y-85558452D01*
X37138897Y-85533466D01*
X37173633Y-85514899D01*
X37211326Y-85503465D01*
X37256661Y-85499000D01*
X38343339Y-85499000D01*
X38388674Y-85503465D01*
G37*
G36*
X34667357Y-83528718D02*
G01*
X34815734Y-83558232D01*
X35025203Y-83644997D01*
X35213720Y-83770960D01*
X35374040Y-83931280D01*
X35479356Y-84088897D01*
X35500004Y-84119799D01*
X35501592Y-84123633D01*
X35586768Y-84329266D01*
X35631000Y-84551636D01*
X35631000Y-84778364D01*
X35591126Y-84978827D01*
X35586768Y-85000733D01*
X35504644Y-85199000D01*
X35500003Y-85210203D01*
X35374040Y-85398720D01*
X35213720Y-85559040D01*
X35025203Y-85685003D01*
X34815734Y-85771768D01*
X34704549Y-85793884D01*
X34593365Y-85816000D01*
X34366635Y-85816000D01*
X34255451Y-85793884D01*
X34144266Y-85771768D01*
X33934797Y-85685003D01*
X33746280Y-85559040D01*
X33585960Y-85398720D01*
X33459997Y-85210203D01*
X33455357Y-85199000D01*
X33373232Y-85000733D01*
X33368875Y-84978827D01*
X33329000Y-84778364D01*
X33329000Y-84551636D01*
X33373232Y-84329266D01*
X33458408Y-84123633D01*
X33459996Y-84119799D01*
X33480644Y-84088897D01*
X33585960Y-83931280D01*
X33746280Y-83770960D01*
X33934797Y-83644997D01*
X34144266Y-83558232D01*
X34292643Y-83528718D01*
X34366635Y-83514000D01*
X34593365Y-83514000D01*
X34667357Y-83528718D01*
G37*
G36*
X47088674Y-83953465D02*
G01*
X47126367Y-83964899D01*
X47161103Y-83983466D01*
X47191548Y-84008452D01*
X47216534Y-84038897D01*
X47235101Y-84073633D01*
X47246535Y-84111326D01*
X47251000Y-84156661D01*
X47251000Y-85243339D01*
X47246535Y-85288674D01*
X47235101Y-85326367D01*
X47216534Y-85361103D01*
X47191548Y-85391548D01*
X47161103Y-85416534D01*
X47126367Y-85435101D01*
X47088674Y-85446535D01*
X47043339Y-85451000D01*
X46206661Y-85451000D01*
X46161326Y-85446535D01*
X46123633Y-85435101D01*
X46088897Y-85416534D01*
X46058452Y-85391548D01*
X46033466Y-85361103D01*
X46014899Y-85326367D01*
X46003465Y-85288674D01*
X45999000Y-85243339D01*
X45999000Y-84156661D01*
X46003465Y-84111326D01*
X46014899Y-84073633D01*
X46033466Y-84038897D01*
X46058452Y-84008452D01*
X46088897Y-83983466D01*
X46123633Y-83964899D01*
X46161326Y-83953465D01*
X46206661Y-83949000D01*
X47043339Y-83949000D01*
X47088674Y-83953465D01*
G37*
G36*
X45038674Y-83953465D02*
G01*
X45076367Y-83964899D01*
X45111103Y-83983466D01*
X45141548Y-84008452D01*
X45166534Y-84038897D01*
X45185101Y-84073633D01*
X45196535Y-84111326D01*
X45201000Y-84156661D01*
X45201000Y-85243339D01*
X45196535Y-85288674D01*
X45185101Y-85326367D01*
X45166534Y-85361103D01*
X45141548Y-85391548D01*
X45111103Y-85416534D01*
X45076367Y-85435101D01*
X45038674Y-85446535D01*
X44993339Y-85451000D01*
X44156661Y-85451000D01*
X44111326Y-85446535D01*
X44073633Y-85435101D01*
X44038897Y-85416534D01*
X44008452Y-85391548D01*
X43983466Y-85361103D01*
X43964899Y-85326367D01*
X43953465Y-85288674D01*
X43949000Y-85243339D01*
X43949000Y-84156661D01*
X43953465Y-84111326D01*
X43964899Y-84073633D01*
X43983466Y-84038897D01*
X44008452Y-84008452D01*
X44038897Y-83983466D01*
X44073633Y-83964899D01*
X44111326Y-83953465D01*
X44156661Y-83949000D01*
X44993339Y-83949000D01*
X45038674Y-83953465D01*
G37*
G36*
X43088674Y-84003465D02*
G01*
X43126367Y-84014899D01*
X43161103Y-84033466D01*
X43191548Y-84058452D01*
X43216534Y-84088897D01*
X43235101Y-84123633D01*
X43246535Y-84161326D01*
X43251000Y-84206661D01*
X43251000Y-85043339D01*
X43246535Y-85088674D01*
X43235101Y-85126367D01*
X43216534Y-85161103D01*
X43191548Y-85191548D01*
X43161103Y-85216534D01*
X43126367Y-85235101D01*
X43088674Y-85246535D01*
X43043339Y-85251000D01*
X41956661Y-85251000D01*
X41911326Y-85246535D01*
X41873633Y-85235101D01*
X41838897Y-85216534D01*
X41808452Y-85191548D01*
X41783466Y-85161103D01*
X41764899Y-85126367D01*
X41753465Y-85088674D01*
X41749000Y-85043339D01*
X41749000Y-84206661D01*
X41753465Y-84161326D01*
X41764899Y-84123633D01*
X41783466Y-84088897D01*
X41808452Y-84058452D01*
X41838897Y-84033466D01*
X41873633Y-84014899D01*
X41911326Y-84003465D01*
X41956661Y-83999000D01*
X43043339Y-83999000D01*
X43088674Y-84003465D01*
G37*
G36*
X38388674Y-83453465D02*
G01*
X38426367Y-83464899D01*
X38461103Y-83483466D01*
X38491548Y-83508452D01*
X38516534Y-83538897D01*
X38535101Y-83573633D01*
X38546535Y-83611326D01*
X38551000Y-83656661D01*
X38551000Y-84493339D01*
X38546535Y-84538674D01*
X38535101Y-84576367D01*
X38516534Y-84611103D01*
X38491548Y-84641548D01*
X38461103Y-84666534D01*
X38426367Y-84685101D01*
X38388674Y-84696535D01*
X38343339Y-84701000D01*
X37256661Y-84701000D01*
X37211326Y-84696535D01*
X37173633Y-84685101D01*
X37138897Y-84666534D01*
X37108452Y-84641548D01*
X37083466Y-84611103D01*
X37064899Y-84576367D01*
X37053465Y-84538674D01*
X37049000Y-84493339D01*
X37049000Y-83656661D01*
X37053465Y-83611326D01*
X37064899Y-83573633D01*
X37083466Y-83538897D01*
X37108452Y-83508452D01*
X37138897Y-83483466D01*
X37173633Y-83464899D01*
X37211326Y-83453465D01*
X37256661Y-83449000D01*
X38343339Y-83449000D01*
X38388674Y-83453465D01*
G37*
G36*
X29624549Y-81631116D02*
G01*
X29735734Y-81653232D01*
X29945203Y-81739997D01*
X30133720Y-81865960D01*
X30294040Y-82026280D01*
X30420003Y-82214797D01*
X30505329Y-82420791D01*
X30506768Y-82424267D01*
X30547560Y-82629339D01*
X30551000Y-82646636D01*
X30551000Y-82873364D01*
X30506768Y-83095734D01*
X30420003Y-83305203D01*
X30294040Y-83493720D01*
X30133720Y-83654040D01*
X29945203Y-83780003D01*
X29735734Y-83866768D01*
X29624549Y-83888884D01*
X29513365Y-83911000D01*
X29286635Y-83911000D01*
X29175451Y-83888884D01*
X29064266Y-83866768D01*
X28854797Y-83780003D01*
X28666280Y-83654040D01*
X28505960Y-83493720D01*
X28379997Y-83305203D01*
X28293232Y-83095734D01*
X28249000Y-82873364D01*
X28249000Y-82646636D01*
X28252441Y-82629339D01*
X28293232Y-82424267D01*
X28294672Y-82420791D01*
X28379997Y-82214797D01*
X28505960Y-82026280D01*
X28666280Y-81865960D01*
X28854797Y-81739997D01*
X29064266Y-81653232D01*
X29175451Y-81631116D01*
X29286635Y-81609000D01*
X29513365Y-81609000D01*
X29624549Y-81631116D01*
G37*
G36*
X45038674Y-81953465D02*
G01*
X45076367Y-81964899D01*
X45111103Y-81983466D01*
X45141548Y-82008452D01*
X45166534Y-82038897D01*
X45185101Y-82073633D01*
X45196535Y-82111326D01*
X45201000Y-82156661D01*
X45201000Y-83243339D01*
X45196535Y-83288674D01*
X45185101Y-83326367D01*
X45166534Y-83361103D01*
X45141548Y-83391548D01*
X45111103Y-83416534D01*
X45076367Y-83435101D01*
X45038674Y-83446535D01*
X44993339Y-83451000D01*
X44156661Y-83451000D01*
X44111326Y-83446535D01*
X44073633Y-83435101D01*
X44038897Y-83416534D01*
X44008452Y-83391548D01*
X43983466Y-83361103D01*
X43964899Y-83326367D01*
X43953465Y-83288674D01*
X43949000Y-83243339D01*
X43949000Y-82156661D01*
X43953465Y-82111326D01*
X43964899Y-82073633D01*
X43983466Y-82038897D01*
X44008452Y-82008452D01*
X44038897Y-81983466D01*
X44073633Y-81964899D01*
X44111326Y-81953465D01*
X44156661Y-81949000D01*
X44993339Y-81949000D01*
X45038674Y-81953465D01*
G37*
G36*
X47088674Y-81953465D02*
G01*
X47126367Y-81964899D01*
X47161103Y-81983466D01*
X47191548Y-82008452D01*
X47216534Y-82038897D01*
X47235101Y-82073633D01*
X47246535Y-82111326D01*
X47251000Y-82156661D01*
X47251000Y-83243339D01*
X47246535Y-83288674D01*
X47235101Y-83326367D01*
X47216534Y-83361103D01*
X47191548Y-83391548D01*
X47161103Y-83416534D01*
X47126367Y-83435101D01*
X47088674Y-83446535D01*
X47043339Y-83451000D01*
X46206661Y-83451000D01*
X46161326Y-83446535D01*
X46123633Y-83435101D01*
X46088897Y-83416534D01*
X46058452Y-83391548D01*
X46033466Y-83361103D01*
X46014899Y-83326367D01*
X46003465Y-83288674D01*
X45999000Y-83243339D01*
X45999000Y-82156661D01*
X46003465Y-82111326D01*
X46014899Y-82073633D01*
X46033466Y-82038897D01*
X46058452Y-82008452D01*
X46088897Y-81983466D01*
X46123633Y-81964899D01*
X46161326Y-81953465D01*
X46206661Y-81949000D01*
X47043339Y-81949000D01*
X47088674Y-81953465D01*
G37*
G36*
X43088674Y-81953465D02*
G01*
X43126367Y-81964899D01*
X43161103Y-81983466D01*
X43191548Y-82008452D01*
X43216534Y-82038897D01*
X43235101Y-82073633D01*
X43246535Y-82111326D01*
X43251000Y-82156661D01*
X43251000Y-82993339D01*
X43246535Y-83038674D01*
X43235101Y-83076367D01*
X43216534Y-83111103D01*
X43191548Y-83141548D01*
X43161103Y-83166534D01*
X43126367Y-83185101D01*
X43088674Y-83196535D01*
X43043339Y-83201000D01*
X41956661Y-83201000D01*
X41911326Y-83196535D01*
X41873633Y-83185101D01*
X41838897Y-83166534D01*
X41808452Y-83141548D01*
X41783466Y-83111103D01*
X41764899Y-83076367D01*
X41753465Y-83038674D01*
X41749000Y-82993339D01*
X41749000Y-82156661D01*
X41753465Y-82111326D01*
X41764899Y-82073633D01*
X41783466Y-82038897D01*
X41808452Y-82008452D01*
X41838897Y-81983466D01*
X41873633Y-81964899D01*
X41911326Y-81953465D01*
X41956661Y-81949000D01*
X43043339Y-81949000D01*
X43088674Y-81953465D01*
G37*
G36*
X66379487Y-80548996D02*
G01*
X66572215Y-80628827D01*
X66616255Y-80647069D01*
X66753352Y-80738674D01*
X66829339Y-80789447D01*
X67010553Y-80970661D01*
X67152932Y-81183747D01*
X67251004Y-81420513D01*
X67301000Y-81671861D01*
X67301000Y-81928139D01*
X67251004Y-82179487D01*
X67236378Y-82214797D01*
X67152931Y-82416255D01*
X67010553Y-82629339D01*
X66829339Y-82810553D01*
X66616255Y-82952931D01*
X66616254Y-82952932D01*
X66616253Y-82952932D01*
X66379487Y-83051004D01*
X66128139Y-83101000D01*
X65871861Y-83101000D01*
X65620513Y-83051004D01*
X65383747Y-82952932D01*
X65383746Y-82952932D01*
X65383745Y-82952931D01*
X65170661Y-82810553D01*
X64989447Y-82629339D01*
X64847069Y-82416255D01*
X64763622Y-82214797D01*
X64748996Y-82179487D01*
X64699000Y-81928139D01*
X64699000Y-81671861D01*
X64748996Y-81420513D01*
X64847068Y-81183747D01*
X64989447Y-80970661D01*
X65170661Y-80789447D01*
X65246648Y-80738674D01*
X65383745Y-80647069D01*
X65427785Y-80628827D01*
X65620513Y-80548996D01*
X65871861Y-80499000D01*
X66128139Y-80499000D01*
X66379487Y-80548996D01*
G37*
G36*
X38388674Y-81703465D02*
G01*
X38426367Y-81714899D01*
X38461103Y-81733466D01*
X38491548Y-81758452D01*
X38516534Y-81788897D01*
X38535101Y-81823633D01*
X38546535Y-81861326D01*
X38551000Y-81906661D01*
X38551000Y-82743339D01*
X38546535Y-82788674D01*
X38535101Y-82826367D01*
X38516534Y-82861103D01*
X38491548Y-82891548D01*
X38461103Y-82916534D01*
X38426367Y-82935101D01*
X38388674Y-82946535D01*
X38343339Y-82951000D01*
X37256661Y-82951000D01*
X37211326Y-82946535D01*
X37173633Y-82935101D01*
X37138897Y-82916534D01*
X37108452Y-82891548D01*
X37083466Y-82861103D01*
X37064899Y-82826367D01*
X37053465Y-82788674D01*
X37049000Y-82743339D01*
X37049000Y-81906661D01*
X37053465Y-81861326D01*
X37064899Y-81823633D01*
X37083466Y-81788897D01*
X37108452Y-81758452D01*
X37138897Y-81733466D01*
X37173633Y-81714899D01*
X37211326Y-81703465D01*
X37256661Y-81699000D01*
X38343339Y-81699000D01*
X38388674Y-81703465D01*
G37*
G36*
X62127423Y-78681661D02*
G01*
X62517172Y-78843100D01*
X62518881Y-78843808D01*
X62871183Y-79079209D01*
X63170791Y-79378817D01*
X63406192Y-79731119D01*
X63406193Y-79731121D01*
X63568339Y-80122577D01*
X63651000Y-80538144D01*
X63651000Y-80961856D01*
X63568339Y-81377423D01*
X63410512Y-81758452D01*
X63406192Y-81768881D01*
X63170791Y-82121183D01*
X62871183Y-82420791D01*
X62518881Y-82656192D01*
X62518880Y-82656193D01*
X62518879Y-82656193D01*
X62127423Y-82818339D01*
X61711856Y-82901000D01*
X61288144Y-82901000D01*
X60872577Y-82818339D01*
X60481121Y-82656193D01*
X60481120Y-82656193D01*
X60481119Y-82656192D01*
X60128817Y-82420791D01*
X59829209Y-82121183D01*
X59593808Y-81768881D01*
X59589488Y-81758452D01*
X59431661Y-81377423D01*
X59349000Y-80961856D01*
X59349000Y-80538144D01*
X59431661Y-80122577D01*
X59593807Y-79731121D01*
X59593808Y-79731119D01*
X59829209Y-79378817D01*
X60128817Y-79079209D01*
X60481119Y-78843808D01*
X60482828Y-78843100D01*
X60872577Y-78681661D01*
X61288144Y-78599000D01*
X61711856Y-78599000D01*
X62127423Y-78681661D01*
G37*
G36*
X34704549Y-79726116D02*
G01*
X34815734Y-79748232D01*
X34877057Y-79773633D01*
X35008862Y-79828228D01*
X35025203Y-79834997D01*
X35213720Y-79960960D01*
X35374040Y-80121280D01*
X35500003Y-80309797D01*
X35586768Y-80519266D01*
X35601146Y-80591548D01*
X35631000Y-80741635D01*
X35631000Y-80968365D01*
X35586768Y-81190733D01*
X35511983Y-81371282D01*
X35500003Y-81400203D01*
X35374040Y-81588720D01*
X35213720Y-81749040D01*
X35025203Y-81875003D01*
X34815734Y-81961768D01*
X34706650Y-81983466D01*
X34593365Y-82006000D01*
X34366635Y-82006000D01*
X34253350Y-81983466D01*
X34144266Y-81961768D01*
X33934797Y-81875003D01*
X33746280Y-81749040D01*
X33585960Y-81588720D01*
X33459997Y-81400203D01*
X33448018Y-81371282D01*
X33373232Y-81190733D01*
X33329000Y-80968365D01*
X33329000Y-80741635D01*
X33358854Y-80591548D01*
X33373232Y-80519266D01*
X33459997Y-80309797D01*
X33585960Y-80121280D01*
X33746280Y-79960960D01*
X33934797Y-79834997D01*
X33951139Y-79828228D01*
X34082943Y-79773633D01*
X34144266Y-79748232D01*
X34255451Y-79726116D01*
X34366635Y-79704000D01*
X34593365Y-79704000D01*
X34704549Y-79726116D01*
G37*
G36*
X45038674Y-79953465D02*
G01*
X45076367Y-79964899D01*
X45111103Y-79983466D01*
X45141548Y-80008452D01*
X45166534Y-80038897D01*
X45185101Y-80073633D01*
X45196535Y-80111326D01*
X45201000Y-80156661D01*
X45201000Y-81243339D01*
X45196535Y-81288674D01*
X45185101Y-81326367D01*
X45166534Y-81361103D01*
X45141548Y-81391548D01*
X45111103Y-81416534D01*
X45076367Y-81435101D01*
X45038674Y-81446535D01*
X44993339Y-81451000D01*
X44156661Y-81451000D01*
X44111326Y-81446535D01*
X44073633Y-81435101D01*
X44038897Y-81416534D01*
X44008452Y-81391548D01*
X43983466Y-81361103D01*
X43964899Y-81326367D01*
X43953465Y-81288674D01*
X43949000Y-81243339D01*
X43949000Y-80156661D01*
X43953465Y-80111326D01*
X43964899Y-80073633D01*
X43983466Y-80038897D01*
X44008452Y-80008452D01*
X44038897Y-79983466D01*
X44073633Y-79964899D01*
X44111326Y-79953465D01*
X44156661Y-79949000D01*
X44993339Y-79949000D01*
X45038674Y-79953465D01*
G37*
G36*
X47088674Y-79953465D02*
G01*
X47126367Y-79964899D01*
X47161103Y-79983466D01*
X47191548Y-80008452D01*
X47216534Y-80038897D01*
X47235101Y-80073633D01*
X47246535Y-80111326D01*
X47251000Y-80156661D01*
X47251000Y-81243339D01*
X47246535Y-81288674D01*
X47235101Y-81326367D01*
X47216534Y-81361103D01*
X47191548Y-81391548D01*
X47161103Y-81416534D01*
X47126367Y-81435101D01*
X47088674Y-81446535D01*
X47043339Y-81451000D01*
X46206661Y-81451000D01*
X46161326Y-81446535D01*
X46123633Y-81435101D01*
X46088897Y-81416534D01*
X46058452Y-81391548D01*
X46033466Y-81361103D01*
X46014899Y-81326367D01*
X46003465Y-81288674D01*
X45999000Y-81243339D01*
X45999000Y-80156661D01*
X46003465Y-80111326D01*
X46014899Y-80073633D01*
X46033466Y-80038897D01*
X46058452Y-80008452D01*
X46088897Y-79983466D01*
X46123633Y-79964899D01*
X46161326Y-79953465D01*
X46206661Y-79949000D01*
X47043339Y-79949000D01*
X47088674Y-79953465D01*
G37*
G36*
X38388674Y-79653465D02*
G01*
X38426367Y-79664899D01*
X38461103Y-79683466D01*
X38491548Y-79708452D01*
X38516534Y-79738897D01*
X38535101Y-79773633D01*
X38546535Y-79811326D01*
X38551000Y-79856661D01*
X38551000Y-80693339D01*
X38546535Y-80738674D01*
X38535101Y-80776367D01*
X38516534Y-80811103D01*
X38491548Y-80841548D01*
X38461103Y-80866534D01*
X38426367Y-80885101D01*
X38388674Y-80896535D01*
X38343339Y-80901000D01*
X37256661Y-80901000D01*
X37211326Y-80896535D01*
X37173633Y-80885101D01*
X37138897Y-80866534D01*
X37108452Y-80841548D01*
X37083466Y-80811103D01*
X37064899Y-80776367D01*
X37053465Y-80738674D01*
X37049000Y-80693339D01*
X37049000Y-79856661D01*
X37053465Y-79811326D01*
X37064899Y-79773633D01*
X37083466Y-79738897D01*
X37108452Y-79708452D01*
X37138897Y-79683466D01*
X37173633Y-79664899D01*
X37211326Y-79653465D01*
X37256661Y-79649000D01*
X38343339Y-79649000D01*
X38388674Y-79653465D01*
G37*
G36*
X55488674Y-79403465D02*
G01*
X55526367Y-79414899D01*
X55561103Y-79433466D01*
X55591548Y-79458452D01*
X55616534Y-79488897D01*
X55635101Y-79523633D01*
X55646535Y-79561326D01*
X55651000Y-79606661D01*
X55651000Y-80443339D01*
X55646535Y-80488674D01*
X55635101Y-80526367D01*
X55616534Y-80561103D01*
X55591548Y-80591548D01*
X55561103Y-80616534D01*
X55526367Y-80635101D01*
X55488674Y-80646535D01*
X55443339Y-80651000D01*
X54356661Y-80651000D01*
X54311326Y-80646535D01*
X54273633Y-80635101D01*
X54238897Y-80616534D01*
X54208452Y-80591548D01*
X54183466Y-80561103D01*
X54164899Y-80526367D01*
X54153465Y-80488674D01*
X54149000Y-80443339D01*
X54149000Y-79606661D01*
X54153465Y-79561326D01*
X54164899Y-79523633D01*
X54183466Y-79488897D01*
X54208452Y-79458452D01*
X54238897Y-79433466D01*
X54273633Y-79414899D01*
X54311326Y-79403465D01*
X54356661Y-79399000D01*
X55443339Y-79399000D01*
X55488674Y-79403465D01*
G37*
G36*
X57488674Y-79403465D02*
G01*
X57526367Y-79414899D01*
X57561103Y-79433466D01*
X57591548Y-79458452D01*
X57616534Y-79488897D01*
X57635101Y-79523633D01*
X57646535Y-79561326D01*
X57651000Y-79606661D01*
X57651000Y-80443339D01*
X57646535Y-80488674D01*
X57635101Y-80526367D01*
X57616534Y-80561103D01*
X57591548Y-80591548D01*
X57561103Y-80616534D01*
X57526367Y-80635101D01*
X57488674Y-80646535D01*
X57443339Y-80651000D01*
X56356661Y-80651000D01*
X56311326Y-80646535D01*
X56273633Y-80635101D01*
X56238897Y-80616534D01*
X56208452Y-80591548D01*
X56183466Y-80561103D01*
X56164899Y-80526367D01*
X56153465Y-80488674D01*
X56149000Y-80443339D01*
X56149000Y-79606661D01*
X56153465Y-79561326D01*
X56164899Y-79523633D01*
X56183466Y-79488897D01*
X56208452Y-79458452D01*
X56238897Y-79433466D01*
X56273633Y-79414899D01*
X56311326Y-79403465D01*
X56356661Y-79399000D01*
X57443339Y-79399000D01*
X57488674Y-79403465D01*
G37*
G36*
X24848228Y-78761703D02*
G01*
X25003100Y-78825853D01*
X25142481Y-78918985D01*
X25261015Y-79037519D01*
X25354147Y-79176900D01*
X25418297Y-79331772D01*
X25451000Y-79496184D01*
X25451000Y-79663816D01*
X25418297Y-79828228D01*
X25354147Y-79983100D01*
X25261015Y-80122481D01*
X25142481Y-80241015D01*
X25003100Y-80334147D01*
X24848228Y-80398297D01*
X24683816Y-80431000D01*
X24516184Y-80431000D01*
X24351772Y-80398297D01*
X24196900Y-80334147D01*
X24057519Y-80241015D01*
X23938985Y-80122481D01*
X23845853Y-79983100D01*
X23781703Y-79828228D01*
X23749000Y-79663816D01*
X23749000Y-79496184D01*
X23781703Y-79331772D01*
X23845853Y-79176900D01*
X23938985Y-79037519D01*
X24057519Y-78918985D01*
X24196900Y-78825853D01*
X24351772Y-78761703D01*
X24516184Y-78729000D01*
X24683816Y-78729000D01*
X24848228Y-78761703D01*
G37*
G36*
X29624549Y-77821116D02*
G01*
X29735734Y-77843232D01*
X29866794Y-77897519D01*
X29920388Y-77919718D01*
X29945203Y-77929997D01*
X30133720Y-78055960D01*
X30294040Y-78216280D01*
X30420003Y-78404797D01*
X30500445Y-78599000D01*
X30506768Y-78614267D01*
X30551000Y-78836635D01*
X30551000Y-79063365D01*
X30534456Y-79146535D01*
X30506768Y-79285734D01*
X30420003Y-79495203D01*
X30294040Y-79683720D01*
X30133720Y-79844040D01*
X29945203Y-79970003D01*
X29945202Y-79970004D01*
X29945201Y-79970004D01*
X29885171Y-79994869D01*
X29735734Y-80056768D01*
X29624549Y-80078884D01*
X29513365Y-80101000D01*
X29286635Y-80101000D01*
X29175451Y-80078884D01*
X29064266Y-80056768D01*
X28914829Y-79994869D01*
X28854799Y-79970004D01*
X28854798Y-79970004D01*
X28854797Y-79970003D01*
X28666280Y-79844040D01*
X28505960Y-79683720D01*
X28379997Y-79495203D01*
X28293232Y-79285734D01*
X28265544Y-79146535D01*
X28249000Y-79063365D01*
X28249000Y-78836635D01*
X28293232Y-78614267D01*
X28299556Y-78599000D01*
X28379997Y-78404797D01*
X28505960Y-78216280D01*
X28666280Y-78055960D01*
X28854797Y-77929997D01*
X28879613Y-77919718D01*
X28933206Y-77897519D01*
X29064266Y-77843232D01*
X29175451Y-77821116D01*
X29286635Y-77799000D01*
X29513365Y-77799000D01*
X29624549Y-77821116D01*
G37*
G36*
X44801000Y-79551000D02*
G01*
X42399000Y-79551000D01*
X42399000Y-78049000D01*
X44801000Y-78049000D01*
X44801000Y-79551000D01*
G37*
G36*
X27388228Y-77621703D02*
G01*
X27543100Y-77685853D01*
X27682481Y-77778985D01*
X27801015Y-77897519D01*
X27894147Y-78036900D01*
X27958297Y-78191772D01*
X27991000Y-78356184D01*
X27991000Y-78523816D01*
X27958297Y-78688228D01*
X27894147Y-78843100D01*
X27801015Y-78982481D01*
X27682481Y-79101015D01*
X27543100Y-79194147D01*
X27388228Y-79258297D01*
X27223816Y-79291000D01*
X27056184Y-79291000D01*
X26891772Y-79258297D01*
X26736900Y-79194147D01*
X26597519Y-79101015D01*
X26478985Y-78982481D01*
X26385853Y-78843100D01*
X26321703Y-78688228D01*
X26289000Y-78523816D01*
X26289000Y-78356184D01*
X26321703Y-78191772D01*
X26385853Y-78036900D01*
X26478985Y-77897519D01*
X26597519Y-77778985D01*
X26736900Y-77685853D01*
X26891772Y-77621703D01*
X27056184Y-77589000D01*
X27223816Y-77589000D01*
X27388228Y-77621703D01*
G37*
G36*
X22308228Y-77621703D02*
G01*
X22463100Y-77685853D01*
X22602481Y-77778985D01*
X22721015Y-77897519D01*
X22814147Y-78036900D01*
X22878297Y-78191772D01*
X22911000Y-78356184D01*
X22911000Y-78523816D01*
X22878297Y-78688228D01*
X22814147Y-78843100D01*
X22721015Y-78982481D01*
X22602481Y-79101015D01*
X22463100Y-79194147D01*
X22308228Y-79258297D01*
X22143816Y-79291000D01*
X21976184Y-79291000D01*
X21811772Y-79258297D01*
X21656900Y-79194147D01*
X21517519Y-79101015D01*
X21398985Y-78982481D01*
X21305853Y-78843100D01*
X21241703Y-78688228D01*
X21209000Y-78523816D01*
X21209000Y-78356184D01*
X21241703Y-78191772D01*
X21305853Y-78036900D01*
X21398985Y-77897519D01*
X21517519Y-77778985D01*
X21656900Y-77685853D01*
X21811772Y-77621703D01*
X21976184Y-77589000D01*
X22143816Y-77589000D01*
X22308228Y-77621703D01*
G37*
G36*
X38388674Y-77903465D02*
G01*
X38426367Y-77914899D01*
X38461103Y-77933466D01*
X38491548Y-77958452D01*
X38516534Y-77988897D01*
X38535101Y-78023633D01*
X38546535Y-78061326D01*
X38551000Y-78106661D01*
X38551000Y-78943339D01*
X38546535Y-78988674D01*
X38535101Y-79026367D01*
X38516534Y-79061103D01*
X38491548Y-79091548D01*
X38461103Y-79116534D01*
X38426367Y-79135101D01*
X38388674Y-79146535D01*
X38343339Y-79151000D01*
X37256661Y-79151000D01*
X37211326Y-79146535D01*
X37173633Y-79135101D01*
X37138897Y-79116534D01*
X37108452Y-79091548D01*
X37083466Y-79061103D01*
X37064899Y-79026367D01*
X37053465Y-78988674D01*
X37049000Y-78943339D01*
X37049000Y-78106661D01*
X37053465Y-78061326D01*
X37064899Y-78023633D01*
X37083466Y-77988897D01*
X37108452Y-77958452D01*
X37138897Y-77933466D01*
X37173633Y-77914899D01*
X37211326Y-77903465D01*
X37256661Y-77899000D01*
X38343339Y-77899000D01*
X38388674Y-77903465D01*
G37*
G36*
X66598254Y-75027818D02*
G01*
X66971511Y-75182426D01*
X66971513Y-75182427D01*
X67307436Y-75406884D01*
X67593116Y-75692564D01*
X67780921Y-75973633D01*
X67817574Y-76028489D01*
X67972182Y-76401746D01*
X68051000Y-76797993D01*
X68051000Y-77202007D01*
X67972182Y-77598254D01*
X67833333Y-77933466D01*
X67817573Y-77971513D01*
X67593116Y-78307436D01*
X67307436Y-78593116D01*
X66971513Y-78817573D01*
X66971512Y-78817574D01*
X66971511Y-78817574D01*
X66598254Y-78972182D01*
X66202007Y-79051000D01*
X65797993Y-79051000D01*
X65401746Y-78972182D01*
X65028489Y-78817574D01*
X65028488Y-78817574D01*
X65028487Y-78817573D01*
X64692564Y-78593116D01*
X64406884Y-78307436D01*
X64182427Y-77971513D01*
X64166667Y-77933466D01*
X64027818Y-77598254D01*
X63949000Y-77202007D01*
X63949000Y-76797993D01*
X64027818Y-76401746D01*
X64182426Y-76028489D01*
X64219080Y-75973633D01*
X64406884Y-75692564D01*
X64692564Y-75406884D01*
X65028487Y-75182427D01*
X65028489Y-75182426D01*
X65401746Y-75027818D01*
X65797993Y-74949000D01*
X66202007Y-74949000D01*
X66598254Y-75027818D01*
G37*
G36*
X57488674Y-77353465D02*
G01*
X57526367Y-77364899D01*
X57561103Y-77383466D01*
X57591548Y-77408452D01*
X57616534Y-77438897D01*
X57635101Y-77473633D01*
X57646535Y-77511326D01*
X57651000Y-77556661D01*
X57651000Y-78393339D01*
X57646535Y-78438674D01*
X57635101Y-78476367D01*
X57616534Y-78511103D01*
X57591548Y-78541548D01*
X57561103Y-78566534D01*
X57526367Y-78585101D01*
X57488674Y-78596535D01*
X57443339Y-78601000D01*
X56356661Y-78601000D01*
X56311326Y-78596535D01*
X56273633Y-78585101D01*
X56238897Y-78566534D01*
X56208452Y-78541548D01*
X56183466Y-78511103D01*
X56164899Y-78476367D01*
X56153465Y-78438674D01*
X56149000Y-78393339D01*
X56149000Y-77556661D01*
X56153465Y-77511326D01*
X56164899Y-77473633D01*
X56183466Y-77438897D01*
X56208452Y-77408452D01*
X56238897Y-77383466D01*
X56273633Y-77364899D01*
X56311326Y-77353465D01*
X56356661Y-77349000D01*
X57443339Y-77349000D01*
X57488674Y-77353465D01*
G37*
G36*
X55488674Y-77353465D02*
G01*
X55526367Y-77364899D01*
X55561103Y-77383466D01*
X55591548Y-77408452D01*
X55616534Y-77438897D01*
X55635101Y-77473633D01*
X55646535Y-77511326D01*
X55651000Y-77556661D01*
X55651000Y-78393339D01*
X55646535Y-78438674D01*
X55635101Y-78476367D01*
X55616534Y-78511103D01*
X55591548Y-78541548D01*
X55561103Y-78566534D01*
X55526367Y-78585101D01*
X55488674Y-78596535D01*
X55443339Y-78601000D01*
X54356661Y-78601000D01*
X54311326Y-78596535D01*
X54273633Y-78585101D01*
X54238897Y-78566534D01*
X54208452Y-78541548D01*
X54183466Y-78511103D01*
X54164899Y-78476367D01*
X54153465Y-78438674D01*
X54149000Y-78393339D01*
X54149000Y-77556661D01*
X54153465Y-77511326D01*
X54164899Y-77473633D01*
X54183466Y-77438897D01*
X54208452Y-77408452D01*
X54238897Y-77383466D01*
X54273633Y-77364899D01*
X54311326Y-77353465D01*
X54356661Y-77349000D01*
X55443339Y-77349000D01*
X55488674Y-77353465D01*
G37*
G36*
X34704549Y-75916116D02*
G01*
X34815734Y-75938232D01*
X34901199Y-75973633D01*
X34992199Y-76011326D01*
X35025203Y-76024997D01*
X35213720Y-76150960D01*
X35374040Y-76311280D01*
X35500003Y-76499797D01*
X35500004Y-76499799D01*
X35586768Y-76709267D01*
X35622102Y-76886900D01*
X35631000Y-76931636D01*
X35631000Y-77158364D01*
X35586768Y-77380734D01*
X35500003Y-77590203D01*
X35374040Y-77778720D01*
X35213720Y-77939040D01*
X35025203Y-78065003D01*
X34815734Y-78151768D01*
X34718178Y-78171173D01*
X34593365Y-78196000D01*
X34366635Y-78196000D01*
X34241822Y-78171173D01*
X34144266Y-78151768D01*
X33934797Y-78065003D01*
X33746280Y-77939040D01*
X33585960Y-77778720D01*
X33459997Y-77590203D01*
X33373232Y-77380734D01*
X33329000Y-77158364D01*
X33329000Y-76931636D01*
X33337899Y-76886900D01*
X33373232Y-76709267D01*
X33459996Y-76499799D01*
X33459997Y-76499797D01*
X33585960Y-76311280D01*
X33746280Y-76150960D01*
X33934797Y-76024997D01*
X33967802Y-76011326D01*
X34058801Y-75973633D01*
X34144266Y-75938232D01*
X34255451Y-75916116D01*
X34366635Y-75894000D01*
X34593365Y-75894000D01*
X34704549Y-75916116D01*
G37*
G36*
X24848228Y-76471703D02*
G01*
X25003100Y-76535853D01*
X25142481Y-76628985D01*
X25261015Y-76747519D01*
X25354147Y-76886900D01*
X25418297Y-77041772D01*
X25451000Y-77206184D01*
X25451000Y-77373816D01*
X25418297Y-77538228D01*
X25354147Y-77693100D01*
X25261015Y-77832481D01*
X25142481Y-77951015D01*
X25003100Y-78044147D01*
X24848228Y-78108297D01*
X24683816Y-78141000D01*
X24516184Y-78141000D01*
X24351772Y-78108297D01*
X24196900Y-78044147D01*
X24057519Y-77951015D01*
X23938985Y-77832481D01*
X23845853Y-77693100D01*
X23781703Y-77538228D01*
X23749000Y-77373816D01*
X23749000Y-77206184D01*
X23781703Y-77041772D01*
X23845853Y-76886900D01*
X23938985Y-76747519D01*
X24057519Y-76628985D01*
X24196900Y-76535853D01*
X24351772Y-76471703D01*
X24516184Y-76439000D01*
X24683816Y-76439000D01*
X24848228Y-76471703D01*
G37*
G36*
X40888674Y-76303465D02*
G01*
X40926367Y-76314899D01*
X40961103Y-76333466D01*
X40991548Y-76358452D01*
X41016534Y-76388897D01*
X41035101Y-76423633D01*
X41046535Y-76461326D01*
X41051000Y-76506661D01*
X41051000Y-77343339D01*
X41046535Y-77388674D01*
X41035101Y-77426367D01*
X41016534Y-77461103D01*
X40991548Y-77491548D01*
X40961103Y-77516534D01*
X40926367Y-77535101D01*
X40888674Y-77546535D01*
X40843339Y-77551000D01*
X39756661Y-77551000D01*
X39711326Y-77546535D01*
X39673633Y-77535101D01*
X39638897Y-77516534D01*
X39608452Y-77491548D01*
X39583466Y-77461103D01*
X39564899Y-77426367D01*
X39553465Y-77388674D01*
X39549000Y-77343339D01*
X39549000Y-76506661D01*
X39553465Y-76461326D01*
X39564899Y-76423633D01*
X39583466Y-76388897D01*
X39608452Y-76358452D01*
X39638897Y-76333466D01*
X39673633Y-76314899D01*
X39711326Y-76303465D01*
X39756661Y-76299000D01*
X40843339Y-76299000D01*
X40888674Y-76303465D01*
G37*
G36*
X38388674Y-75853465D02*
G01*
X38426367Y-75864899D01*
X38461103Y-75883466D01*
X38491548Y-75908452D01*
X38516534Y-75938897D01*
X38535101Y-75973633D01*
X38546535Y-76011326D01*
X38551000Y-76056661D01*
X38551000Y-76893339D01*
X38546535Y-76938674D01*
X38535101Y-76976367D01*
X38516534Y-77011103D01*
X38491548Y-77041548D01*
X38461103Y-77066534D01*
X38426367Y-77085101D01*
X38388674Y-77096535D01*
X38343339Y-77101000D01*
X37256661Y-77101000D01*
X37211326Y-77096535D01*
X37173633Y-77085101D01*
X37138897Y-77066534D01*
X37108452Y-77041548D01*
X37083466Y-77011103D01*
X37064899Y-76976367D01*
X37053465Y-76938674D01*
X37049000Y-76893339D01*
X37049000Y-76056661D01*
X37053465Y-76011326D01*
X37064899Y-75973633D01*
X37083466Y-75938897D01*
X37108452Y-75908452D01*
X37138897Y-75883466D01*
X37173633Y-75864899D01*
X37211326Y-75853465D01*
X37256661Y-75849000D01*
X38343339Y-75849000D01*
X38388674Y-75853465D01*
G37*
G36*
X27388228Y-75331703D02*
G01*
X27543100Y-75395853D01*
X27682481Y-75488985D01*
X27801015Y-75607519D01*
X27894147Y-75746900D01*
X27958297Y-75901772D01*
X27991000Y-76066184D01*
X27991000Y-76233816D01*
X27958297Y-76398228D01*
X27894147Y-76553100D01*
X27801015Y-76692481D01*
X27682481Y-76811015D01*
X27543100Y-76904147D01*
X27388228Y-76968297D01*
X27223816Y-77001000D01*
X27056184Y-77001000D01*
X26891772Y-76968297D01*
X26736900Y-76904147D01*
X26597519Y-76811015D01*
X26478985Y-76692481D01*
X26385853Y-76553100D01*
X26321703Y-76398228D01*
X26289000Y-76233816D01*
X26289000Y-76066184D01*
X26321703Y-75901772D01*
X26385853Y-75746900D01*
X26478985Y-75607519D01*
X26597519Y-75488985D01*
X26736900Y-75395853D01*
X26891772Y-75331703D01*
X27056184Y-75299000D01*
X27223816Y-75299000D01*
X27388228Y-75331703D01*
G37*
G36*
X22308228Y-75331703D02*
G01*
X22463100Y-75395853D01*
X22602481Y-75488985D01*
X22721015Y-75607519D01*
X22814147Y-75746900D01*
X22878297Y-75901772D01*
X22911000Y-76066184D01*
X22911000Y-76233816D01*
X22878297Y-76398228D01*
X22814147Y-76553100D01*
X22721015Y-76692481D01*
X22602481Y-76811015D01*
X22463100Y-76904147D01*
X22308228Y-76968297D01*
X22143816Y-77001000D01*
X21976184Y-77001000D01*
X21811772Y-76968297D01*
X21656900Y-76904147D01*
X21517519Y-76811015D01*
X21398985Y-76692481D01*
X21305853Y-76553100D01*
X21241703Y-76398228D01*
X21209000Y-76233816D01*
X21209000Y-76066184D01*
X21241703Y-75901772D01*
X21305853Y-75746900D01*
X21398985Y-75607519D01*
X21517519Y-75488985D01*
X21656900Y-75395853D01*
X21811772Y-75331703D01*
X21976184Y-75299000D01*
X22143816Y-75299000D01*
X22308228Y-75331703D01*
G37*
G36*
X29624549Y-74011116D02*
G01*
X29735734Y-74033232D01*
X29883850Y-74094584D01*
X29944530Y-74119718D01*
X29945203Y-74119997D01*
X30133720Y-74245960D01*
X30294040Y-74406280D01*
X30328277Y-74457520D01*
X30420004Y-74594799D01*
X30506768Y-74804267D01*
X30551000Y-75026635D01*
X30551000Y-75253365D01*
X30535417Y-75331705D01*
X30506768Y-75475734D01*
X30420003Y-75685203D01*
X30294040Y-75873720D01*
X30133720Y-76034040D01*
X29945203Y-76160003D01*
X29735734Y-76246768D01*
X29624549Y-76268884D01*
X29513365Y-76291000D01*
X29286635Y-76291000D01*
X29175451Y-76268884D01*
X29064266Y-76246768D01*
X28854797Y-76160003D01*
X28666280Y-76034040D01*
X28505960Y-75873720D01*
X28379997Y-75685203D01*
X28293232Y-75475734D01*
X28264583Y-75331705D01*
X28249000Y-75253365D01*
X28249000Y-75026635D01*
X28293232Y-74804267D01*
X28379996Y-74594799D01*
X28471723Y-74457520D01*
X28505960Y-74406280D01*
X28666280Y-74245960D01*
X28854797Y-74119997D01*
X28855471Y-74119718D01*
X28916150Y-74094584D01*
X29064266Y-74033232D01*
X29175451Y-74011116D01*
X29286635Y-73989000D01*
X29513365Y-73989000D01*
X29624549Y-74011116D01*
G37*
G36*
X24848228Y-74181703D02*
G01*
X25003100Y-74245853D01*
X25142481Y-74338985D01*
X25261015Y-74457519D01*
X25354147Y-74596900D01*
X25418297Y-74751772D01*
X25451000Y-74916184D01*
X25451000Y-75083816D01*
X25418297Y-75248228D01*
X25354147Y-75403100D01*
X25261015Y-75542481D01*
X25142481Y-75661015D01*
X25003100Y-75754147D01*
X24848228Y-75818297D01*
X24683816Y-75851000D01*
X24516184Y-75851000D01*
X24351772Y-75818297D01*
X24196900Y-75754147D01*
X24057519Y-75661015D01*
X23938985Y-75542481D01*
X23845853Y-75403100D01*
X23781703Y-75248228D01*
X23749000Y-75083816D01*
X23749000Y-74916184D01*
X23781703Y-74751772D01*
X23845853Y-74596900D01*
X23938985Y-74457519D01*
X24057519Y-74338985D01*
X24196900Y-74245853D01*
X24351772Y-74181703D01*
X24516184Y-74149000D01*
X24683816Y-74149000D01*
X24848228Y-74181703D01*
G37*
G36*
X40888674Y-74253465D02*
G01*
X40926367Y-74264899D01*
X40961103Y-74283466D01*
X40991548Y-74308452D01*
X41016534Y-74338897D01*
X41035101Y-74373633D01*
X41046535Y-74411326D01*
X41051000Y-74456661D01*
X41051000Y-75293339D01*
X41046535Y-75338674D01*
X41035101Y-75376367D01*
X41016534Y-75411103D01*
X40991548Y-75441548D01*
X40961103Y-75466534D01*
X40926367Y-75485101D01*
X40888674Y-75496535D01*
X40843339Y-75501000D01*
X39756661Y-75501000D01*
X39711326Y-75496535D01*
X39673633Y-75485101D01*
X39638897Y-75466534D01*
X39608452Y-75441548D01*
X39583466Y-75411103D01*
X39564899Y-75376367D01*
X39553465Y-75338674D01*
X39549000Y-75293339D01*
X39549000Y-74456661D01*
X39553465Y-74411326D01*
X39564899Y-74373633D01*
X39583466Y-74338897D01*
X39608452Y-74308452D01*
X39638897Y-74283466D01*
X39673633Y-74264899D01*
X39711326Y-74253465D01*
X39756661Y-74249000D01*
X40843339Y-74249000D01*
X40888674Y-74253465D01*
G37*
G36*
X62127423Y-71181661D02*
G01*
X62518879Y-71343807D01*
X62518881Y-71343808D01*
X62871183Y-71579209D01*
X63170791Y-71878817D01*
X63406192Y-72231119D01*
X63406193Y-72231121D01*
X63568339Y-72622577D01*
X63651000Y-73038144D01*
X63651000Y-73461856D01*
X63568339Y-73877423D01*
X63406964Y-74267017D01*
X63406192Y-74268881D01*
X63170791Y-74621183D01*
X62871183Y-74920791D01*
X62518881Y-75156192D01*
X62518880Y-75156193D01*
X62518879Y-75156193D01*
X62127423Y-75318339D01*
X61711856Y-75401000D01*
X61288144Y-75401000D01*
X60872577Y-75318339D01*
X60481121Y-75156193D01*
X60481120Y-75156193D01*
X60481119Y-75156192D01*
X60128817Y-74920791D01*
X59829209Y-74621183D01*
X59593808Y-74268881D01*
X59593036Y-74267017D01*
X59431661Y-73877423D01*
X59349000Y-73461856D01*
X59349000Y-73038144D01*
X59431661Y-72622577D01*
X59593807Y-72231121D01*
X59593808Y-72231119D01*
X59829209Y-71878817D01*
X60128817Y-71579209D01*
X60481119Y-71343808D01*
X60481121Y-71343807D01*
X60872577Y-71181661D01*
X61288144Y-71099000D01*
X61711856Y-71099000D01*
X62127423Y-71181661D01*
G37*
G36*
X38388674Y-74103465D02*
G01*
X38426367Y-74114899D01*
X38461103Y-74133466D01*
X38491548Y-74158452D01*
X38516534Y-74188897D01*
X38535101Y-74223633D01*
X38546535Y-74261326D01*
X38551000Y-74306661D01*
X38551000Y-75143339D01*
X38546535Y-75188674D01*
X38535101Y-75226367D01*
X38516534Y-75261103D01*
X38491548Y-75291548D01*
X38461103Y-75316534D01*
X38426367Y-75335101D01*
X38388674Y-75346535D01*
X38343339Y-75351000D01*
X37256661Y-75351000D01*
X37211326Y-75346535D01*
X37173633Y-75335101D01*
X37138897Y-75316534D01*
X37108452Y-75291548D01*
X37083466Y-75261103D01*
X37064899Y-75226367D01*
X37053465Y-75188674D01*
X37049000Y-75143339D01*
X37049000Y-74306661D01*
X37053465Y-74261326D01*
X37064899Y-74223633D01*
X37083466Y-74188897D01*
X37108452Y-74158452D01*
X37138897Y-74133466D01*
X37173633Y-74114899D01*
X37211326Y-74103465D01*
X37256661Y-74099000D01*
X38343339Y-74099000D01*
X38388674Y-74103465D01*
G37*
G36*
X44801000Y-75151000D02*
G01*
X42399000Y-75151000D01*
X42399000Y-73649000D01*
X44801000Y-73649000D01*
X44801000Y-75151000D01*
G37*
G36*
X27388228Y-73041703D02*
G01*
X27543100Y-73105853D01*
X27682481Y-73198985D01*
X27801015Y-73317519D01*
X27894147Y-73456900D01*
X27958297Y-73611772D01*
X27991000Y-73776184D01*
X27991000Y-73943816D01*
X27958297Y-74108228D01*
X27894147Y-74263100D01*
X27801015Y-74402481D01*
X27682481Y-74521015D01*
X27543100Y-74614147D01*
X27388228Y-74678297D01*
X27223816Y-74711000D01*
X27056184Y-74711000D01*
X26891772Y-74678297D01*
X26736900Y-74614147D01*
X26597519Y-74521015D01*
X26478985Y-74402481D01*
X26385853Y-74263100D01*
X26321703Y-74108228D01*
X26289000Y-73943816D01*
X26289000Y-73776184D01*
X26321703Y-73611772D01*
X26385853Y-73456900D01*
X26478985Y-73317519D01*
X26597519Y-73198985D01*
X26736900Y-73105853D01*
X26891772Y-73041703D01*
X27056184Y-73009000D01*
X27223816Y-73009000D01*
X27388228Y-73041703D01*
G37*
G36*
X22308228Y-73041703D02*
G01*
X22463100Y-73105853D01*
X22602481Y-73198985D01*
X22721015Y-73317519D01*
X22814147Y-73456900D01*
X22878297Y-73611772D01*
X22911000Y-73776184D01*
X22911000Y-73943816D01*
X22878297Y-74108228D01*
X22814147Y-74263100D01*
X22721015Y-74402481D01*
X22602481Y-74521015D01*
X22463100Y-74614147D01*
X22308228Y-74678297D01*
X22143816Y-74711000D01*
X21976184Y-74711000D01*
X21811772Y-74678297D01*
X21656900Y-74614147D01*
X21517519Y-74521015D01*
X21398985Y-74402481D01*
X21305853Y-74263100D01*
X21241703Y-74108228D01*
X21209000Y-73943816D01*
X21209000Y-73776184D01*
X21241703Y-73611772D01*
X21305853Y-73456900D01*
X21398985Y-73317519D01*
X21517519Y-73198985D01*
X21656900Y-73105853D01*
X21811772Y-73041703D01*
X21976184Y-73009000D01*
X22143816Y-73009000D01*
X22308228Y-73041703D01*
G37*
G36*
X34704549Y-72106116D02*
G01*
X34815734Y-72128232D01*
X34948103Y-72183061D01*
X35016341Y-72211326D01*
X35025203Y-72214997D01*
X35213720Y-72340960D01*
X35374040Y-72501280D01*
X35500003Y-72689797D01*
X35580320Y-72883698D01*
X35586768Y-72899267D01*
X35631000Y-73121635D01*
X35631000Y-73348365D01*
X35624114Y-73382983D01*
X35586768Y-73570734D01*
X35500003Y-73780203D01*
X35374040Y-73968720D01*
X35213720Y-74129040D01*
X35025203Y-74255003D01*
X35025202Y-74255004D01*
X35025201Y-74255004D01*
X34991699Y-74268881D01*
X34815734Y-74341768D01*
X34704549Y-74363884D01*
X34593365Y-74386000D01*
X34366635Y-74386000D01*
X34255451Y-74363884D01*
X34144266Y-74341768D01*
X33968301Y-74268881D01*
X33934799Y-74255004D01*
X33934798Y-74255004D01*
X33934797Y-74255003D01*
X33746280Y-74129040D01*
X33585960Y-73968720D01*
X33459997Y-73780203D01*
X33373232Y-73570734D01*
X33335886Y-73382983D01*
X33329000Y-73348365D01*
X33329000Y-73121635D01*
X33373232Y-72899267D01*
X33379681Y-72883698D01*
X33459997Y-72689797D01*
X33585960Y-72501280D01*
X33746280Y-72340960D01*
X33934797Y-72214997D01*
X33943660Y-72211326D01*
X34011897Y-72183061D01*
X34144266Y-72128232D01*
X34255451Y-72106116D01*
X34366635Y-72084000D01*
X34593365Y-72084000D01*
X34704549Y-72106116D01*
G37*
G36*
X69494838Y-71378533D02*
G01*
X69713405Y-71469067D01*
X69713407Y-71469068D01*
X69910113Y-71600502D01*
X70077398Y-71767787D01*
X70203058Y-71955852D01*
X70208833Y-71964495D01*
X70299367Y-72183062D01*
X70345520Y-72415090D01*
X70345520Y-72651670D01*
X70299367Y-72883698D01*
X70233918Y-73041705D01*
X70208832Y-73102267D01*
X70077398Y-73298973D01*
X69910113Y-73466258D01*
X69713407Y-73597692D01*
X69713406Y-73597693D01*
X69713405Y-73597693D01*
X69494838Y-73688227D01*
X69262810Y-73734380D01*
X69026230Y-73734380D01*
X68794202Y-73688227D01*
X68575635Y-73597693D01*
X68575634Y-73597693D01*
X68575633Y-73597692D01*
X68378927Y-73466258D01*
X68211642Y-73298973D01*
X68080208Y-73102267D01*
X68055122Y-73041705D01*
X67989673Y-72883698D01*
X67943520Y-72651670D01*
X67943520Y-72415090D01*
X67989673Y-72183062D01*
X68080207Y-71964495D01*
X68085982Y-71955852D01*
X68211642Y-71767787D01*
X68378927Y-71600502D01*
X68575633Y-71469068D01*
X68575635Y-71469067D01*
X68794202Y-71378533D01*
X69026230Y-71332380D01*
X69262810Y-71332380D01*
X69494838Y-71378533D01*
G37*
G36*
X24848228Y-71891703D02*
G01*
X25003100Y-71955853D01*
X25142481Y-72048985D01*
X25261015Y-72167519D01*
X25354147Y-72306900D01*
X25418297Y-72461772D01*
X25451000Y-72626184D01*
X25451000Y-72793816D01*
X25418297Y-72958228D01*
X25354147Y-73113100D01*
X25261015Y-73252481D01*
X25142481Y-73371015D01*
X25003100Y-73464147D01*
X24848228Y-73528297D01*
X24683816Y-73561000D01*
X24516184Y-73561000D01*
X24351772Y-73528297D01*
X24196900Y-73464147D01*
X24057519Y-73371015D01*
X23938985Y-73252481D01*
X23845853Y-73113100D01*
X23781703Y-72958228D01*
X23749000Y-72793816D01*
X23749000Y-72626184D01*
X23781703Y-72461772D01*
X23845853Y-72306900D01*
X23938985Y-72167519D01*
X24057519Y-72048985D01*
X24196900Y-71955853D01*
X24351772Y-71891703D01*
X24516184Y-71859000D01*
X24683816Y-71859000D01*
X24848228Y-71891703D01*
G37*
G36*
X51388674Y-72303465D02*
G01*
X51426367Y-72314899D01*
X51461103Y-72333466D01*
X51491548Y-72358452D01*
X51516534Y-72388897D01*
X51535101Y-72423633D01*
X51546535Y-72461326D01*
X51551000Y-72506661D01*
X51551000Y-73343339D01*
X51546535Y-73388674D01*
X51535101Y-73426367D01*
X51516534Y-73461103D01*
X51491548Y-73491548D01*
X51461103Y-73516534D01*
X51426367Y-73535101D01*
X51388674Y-73546535D01*
X51343339Y-73551000D01*
X50256661Y-73551000D01*
X50211326Y-73546535D01*
X50173633Y-73535101D01*
X50138897Y-73516534D01*
X50108452Y-73491548D01*
X50083466Y-73461103D01*
X50064899Y-73426367D01*
X50053465Y-73388674D01*
X50049000Y-73343339D01*
X50049000Y-72506661D01*
X50053465Y-72461326D01*
X50064899Y-72423633D01*
X50083466Y-72388897D01*
X50108452Y-72358452D01*
X50138897Y-72333466D01*
X50173633Y-72314899D01*
X50211326Y-72303465D01*
X50256661Y-72299000D01*
X51343339Y-72299000D01*
X51388674Y-72303465D01*
G37*
G36*
X53388674Y-72303465D02*
G01*
X53426367Y-72314899D01*
X53461103Y-72333466D01*
X53491548Y-72358452D01*
X53516534Y-72388897D01*
X53535101Y-72423633D01*
X53546535Y-72461326D01*
X53551000Y-72506661D01*
X53551000Y-73343339D01*
X53546535Y-73388674D01*
X53535101Y-73426367D01*
X53516534Y-73461103D01*
X53491548Y-73491548D01*
X53461103Y-73516534D01*
X53426367Y-73535101D01*
X53388674Y-73546535D01*
X53343339Y-73551000D01*
X52256661Y-73551000D01*
X52211326Y-73546535D01*
X52173633Y-73535101D01*
X52138897Y-73516534D01*
X52108452Y-73491548D01*
X52083466Y-73461103D01*
X52064899Y-73426367D01*
X52053465Y-73388674D01*
X52049000Y-73343339D01*
X52049000Y-72506661D01*
X52053465Y-72461326D01*
X52064899Y-72423633D01*
X52083466Y-72388897D01*
X52108452Y-72358452D01*
X52138897Y-72333466D01*
X52173633Y-72314899D01*
X52211326Y-72303465D01*
X52256661Y-72299000D01*
X53343339Y-72299000D01*
X53388674Y-72303465D01*
G37*
G36*
X55688674Y-72303465D02*
G01*
X55726367Y-72314899D01*
X55761103Y-72333466D01*
X55791548Y-72358452D01*
X55816534Y-72388897D01*
X55835101Y-72423633D01*
X55846535Y-72461326D01*
X55851000Y-72506661D01*
X55851000Y-73343339D01*
X55846535Y-73388674D01*
X55835101Y-73426367D01*
X55816534Y-73461103D01*
X55791548Y-73491548D01*
X55761103Y-73516534D01*
X55726367Y-73535101D01*
X55688674Y-73546535D01*
X55643339Y-73551000D01*
X54556661Y-73551000D01*
X54511326Y-73546535D01*
X54473633Y-73535101D01*
X54438897Y-73516534D01*
X54408452Y-73491548D01*
X54383466Y-73461103D01*
X54364899Y-73426367D01*
X54353465Y-73388674D01*
X54349000Y-73343339D01*
X54349000Y-72506661D01*
X54353465Y-72461326D01*
X54364899Y-72423633D01*
X54383466Y-72388897D01*
X54408452Y-72358452D01*
X54438897Y-72333466D01*
X54473633Y-72314899D01*
X54511326Y-72303465D01*
X54556661Y-72299000D01*
X55643339Y-72299000D01*
X55688674Y-72303465D01*
G37*
G36*
X57688674Y-72303465D02*
G01*
X57726367Y-72314899D01*
X57761103Y-72333466D01*
X57791548Y-72358452D01*
X57816534Y-72388897D01*
X57835101Y-72423633D01*
X57846535Y-72461326D01*
X57851000Y-72506661D01*
X57851000Y-73343339D01*
X57846535Y-73388674D01*
X57835101Y-73426367D01*
X57816534Y-73461103D01*
X57791548Y-73491548D01*
X57761103Y-73516534D01*
X57726367Y-73535101D01*
X57688674Y-73546535D01*
X57643339Y-73551000D01*
X56556661Y-73551000D01*
X56511326Y-73546535D01*
X56473633Y-73535101D01*
X56438897Y-73516534D01*
X56408452Y-73491548D01*
X56383466Y-73461103D01*
X56364899Y-73426367D01*
X56353465Y-73388674D01*
X56349000Y-73343339D01*
X56349000Y-72506661D01*
X56353465Y-72461326D01*
X56364899Y-72423633D01*
X56383466Y-72388897D01*
X56408452Y-72358452D01*
X56438897Y-72333466D01*
X56473633Y-72314899D01*
X56511326Y-72303465D01*
X56556661Y-72299000D01*
X57643339Y-72299000D01*
X57688674Y-72303465D01*
G37*
G36*
X49388674Y-72303465D02*
G01*
X49426367Y-72314899D01*
X49461103Y-72333466D01*
X49491548Y-72358452D01*
X49516534Y-72388897D01*
X49535101Y-72423633D01*
X49546535Y-72461326D01*
X49551000Y-72506661D01*
X49551000Y-73343339D01*
X49546535Y-73388674D01*
X49535101Y-73426367D01*
X49516534Y-73461103D01*
X49491548Y-73491548D01*
X49461103Y-73516534D01*
X49426367Y-73535101D01*
X49388674Y-73546535D01*
X49343339Y-73551000D01*
X48256661Y-73551000D01*
X48211326Y-73546535D01*
X48173633Y-73535101D01*
X48138897Y-73516534D01*
X48108452Y-73491548D01*
X48083466Y-73461103D01*
X48064899Y-73426367D01*
X48053465Y-73388674D01*
X48049000Y-73343339D01*
X48049000Y-72506661D01*
X48053465Y-72461326D01*
X48064899Y-72423633D01*
X48083466Y-72388897D01*
X48108452Y-72358452D01*
X48138897Y-72333466D01*
X48173633Y-72314899D01*
X48211326Y-72303465D01*
X48256661Y-72299000D01*
X49343339Y-72299000D01*
X49388674Y-72303465D01*
G37*
G36*
X38388674Y-72053465D02*
G01*
X38426367Y-72064899D01*
X38461103Y-72083466D01*
X38491548Y-72108452D01*
X38516534Y-72138897D01*
X38535101Y-72173633D01*
X38546535Y-72211326D01*
X38551000Y-72256661D01*
X38551000Y-73093339D01*
X38546535Y-73138674D01*
X38535101Y-73176367D01*
X38516534Y-73211103D01*
X38491548Y-73241548D01*
X38461103Y-73266534D01*
X38426367Y-73285101D01*
X38388674Y-73296535D01*
X38343339Y-73301000D01*
X37256661Y-73301000D01*
X37211326Y-73296535D01*
X37173633Y-73285101D01*
X37138897Y-73266534D01*
X37108452Y-73241548D01*
X37083466Y-73211103D01*
X37064899Y-73176367D01*
X37053465Y-73138674D01*
X37049000Y-73093339D01*
X37049000Y-72256661D01*
X37053465Y-72211326D01*
X37064899Y-72173633D01*
X37083466Y-72138897D01*
X37108452Y-72108452D01*
X37138897Y-72083466D01*
X37173633Y-72064899D01*
X37211326Y-72053465D01*
X37256661Y-72049000D01*
X38343339Y-72049000D01*
X38388674Y-72053465D01*
G37*
G36*
X29624549Y-70201116D02*
G01*
X29735734Y-70223232D01*
X29945203Y-70309997D01*
X30133720Y-70435960D01*
X30294040Y-70596280D01*
X30420003Y-70784797D01*
X30420004Y-70784799D01*
X30432867Y-70815853D01*
X30506768Y-70994266D01*
X30514259Y-71031925D01*
X30551000Y-71216635D01*
X30551000Y-71443365D01*
X30540576Y-71495770D01*
X30506768Y-71665734D01*
X30420003Y-71875203D01*
X30294040Y-72063720D01*
X30133720Y-72224040D01*
X29945203Y-72350003D01*
X29945202Y-72350004D01*
X29945201Y-72350004D01*
X29883850Y-72375416D01*
X29735734Y-72436768D01*
X29624549Y-72458884D01*
X29513365Y-72481000D01*
X29286635Y-72481000D01*
X29175451Y-72458884D01*
X29064266Y-72436768D01*
X28916150Y-72375416D01*
X28854799Y-72350004D01*
X28854798Y-72350004D01*
X28854797Y-72350003D01*
X28666280Y-72224040D01*
X28505960Y-72063720D01*
X28379997Y-71875203D01*
X28293232Y-71665734D01*
X28259424Y-71495770D01*
X28249000Y-71443365D01*
X28249000Y-71216635D01*
X28285741Y-71031925D01*
X28293232Y-70994266D01*
X28367133Y-70815853D01*
X28379996Y-70784799D01*
X28379997Y-70784797D01*
X28505960Y-70596280D01*
X28666280Y-70435960D01*
X28854797Y-70309997D01*
X29064266Y-70223232D01*
X29175451Y-70201116D01*
X29286635Y-70179000D01*
X29513365Y-70179000D01*
X29624549Y-70201116D01*
G37*
G36*
X27388228Y-70751703D02*
G01*
X27543100Y-70815853D01*
X27682481Y-70908985D01*
X27801015Y-71027519D01*
X27894147Y-71166900D01*
X27958297Y-71321772D01*
X27991000Y-71486184D01*
X27991000Y-71653816D01*
X27958297Y-71818228D01*
X27894147Y-71973100D01*
X27801015Y-72112481D01*
X27682481Y-72231015D01*
X27543100Y-72324147D01*
X27388228Y-72388297D01*
X27223816Y-72421000D01*
X27056184Y-72421000D01*
X26891772Y-72388297D01*
X26736900Y-72324147D01*
X26597519Y-72231015D01*
X26478985Y-72112481D01*
X26385853Y-71973100D01*
X26321703Y-71818228D01*
X26289000Y-71653816D01*
X26289000Y-71486184D01*
X26321703Y-71321772D01*
X26385853Y-71166900D01*
X26478985Y-71027519D01*
X26597519Y-70908985D01*
X26736900Y-70815853D01*
X26891772Y-70751703D01*
X27056184Y-70719000D01*
X27223816Y-70719000D01*
X27388228Y-70751703D01*
G37*
G36*
X22308228Y-70751703D02*
G01*
X22463100Y-70815853D01*
X22602481Y-70908985D01*
X22721015Y-71027519D01*
X22814147Y-71166900D01*
X22878297Y-71321772D01*
X22911000Y-71486184D01*
X22911000Y-71653816D01*
X22878297Y-71818228D01*
X22814147Y-71973100D01*
X22721015Y-72112481D01*
X22602481Y-72231015D01*
X22463100Y-72324147D01*
X22308228Y-72388297D01*
X22143816Y-72421000D01*
X21976184Y-72421000D01*
X21811772Y-72388297D01*
X21656900Y-72324147D01*
X21517519Y-72231015D01*
X21398985Y-72112481D01*
X21305853Y-71973100D01*
X21241703Y-71818228D01*
X21209000Y-71653816D01*
X21209000Y-71486184D01*
X21241703Y-71321772D01*
X21305853Y-71166900D01*
X21398985Y-71027519D01*
X21517519Y-70908985D01*
X21656900Y-70815853D01*
X21811772Y-70751703D01*
X21976184Y-70719000D01*
X22143816Y-70719000D01*
X22308228Y-70751703D01*
G37*
G36*
X49388674Y-70253465D02*
G01*
X49426367Y-70264899D01*
X49461103Y-70283466D01*
X49491548Y-70308452D01*
X49516534Y-70338897D01*
X49535101Y-70373633D01*
X49546535Y-70411326D01*
X49551000Y-70456661D01*
X49551000Y-71293339D01*
X49546535Y-71338674D01*
X49535101Y-71376367D01*
X49516534Y-71411103D01*
X49491548Y-71441548D01*
X49461103Y-71466534D01*
X49426367Y-71485101D01*
X49388674Y-71496535D01*
X49343339Y-71501000D01*
X48256661Y-71501000D01*
X48211326Y-71496535D01*
X48173633Y-71485101D01*
X48138897Y-71466534D01*
X48108452Y-71441548D01*
X48083466Y-71411103D01*
X48064899Y-71376367D01*
X48053465Y-71338674D01*
X48049000Y-71293339D01*
X48049000Y-70456661D01*
X48053465Y-70411326D01*
X48064899Y-70373633D01*
X48083466Y-70338897D01*
X48108452Y-70308452D01*
X48138897Y-70283466D01*
X48173633Y-70264899D01*
X48211326Y-70253465D01*
X48256661Y-70249000D01*
X49343339Y-70249000D01*
X49388674Y-70253465D01*
G37*
G36*
X55688674Y-70253465D02*
G01*
X55726367Y-70264899D01*
X55761103Y-70283466D01*
X55791548Y-70308452D01*
X55816534Y-70338897D01*
X55835101Y-70373633D01*
X55846535Y-70411326D01*
X55851000Y-70456661D01*
X55851000Y-71293339D01*
X55846535Y-71338674D01*
X55835101Y-71376367D01*
X55816534Y-71411103D01*
X55791548Y-71441548D01*
X55761103Y-71466534D01*
X55726367Y-71485101D01*
X55688674Y-71496535D01*
X55643339Y-71501000D01*
X54556661Y-71501000D01*
X54511326Y-71496535D01*
X54473633Y-71485101D01*
X54438897Y-71466534D01*
X54408452Y-71441548D01*
X54383466Y-71411103D01*
X54364899Y-71376367D01*
X54353465Y-71338674D01*
X54349000Y-71293339D01*
X54349000Y-70456661D01*
X54353465Y-70411326D01*
X54364899Y-70373633D01*
X54383466Y-70338897D01*
X54408452Y-70308452D01*
X54438897Y-70283466D01*
X54473633Y-70264899D01*
X54511326Y-70253465D01*
X54556661Y-70249000D01*
X55643339Y-70249000D01*
X55688674Y-70253465D01*
G37*
G36*
X53388674Y-70253465D02*
G01*
X53426367Y-70264899D01*
X53461103Y-70283466D01*
X53491548Y-70308452D01*
X53516534Y-70338897D01*
X53535101Y-70373633D01*
X53546535Y-70411326D01*
X53551000Y-70456661D01*
X53551000Y-71293339D01*
X53546535Y-71338674D01*
X53535101Y-71376367D01*
X53516534Y-71411103D01*
X53491548Y-71441548D01*
X53461103Y-71466534D01*
X53426367Y-71485101D01*
X53388674Y-71496535D01*
X53343339Y-71501000D01*
X52256661Y-71501000D01*
X52211326Y-71496535D01*
X52173633Y-71485101D01*
X52138897Y-71466534D01*
X52108452Y-71441548D01*
X52083466Y-71411103D01*
X52064899Y-71376367D01*
X52053465Y-71338674D01*
X52049000Y-71293339D01*
X52049000Y-70456661D01*
X52053465Y-70411326D01*
X52064899Y-70373633D01*
X52083466Y-70338897D01*
X52108452Y-70308452D01*
X52138897Y-70283466D01*
X52173633Y-70264899D01*
X52211326Y-70253465D01*
X52256661Y-70249000D01*
X53343339Y-70249000D01*
X53388674Y-70253465D01*
G37*
G36*
X51388674Y-70253465D02*
G01*
X51426367Y-70264899D01*
X51461103Y-70283466D01*
X51491548Y-70308452D01*
X51516534Y-70338897D01*
X51535101Y-70373633D01*
X51546535Y-70411326D01*
X51551000Y-70456661D01*
X51551000Y-71293339D01*
X51546535Y-71338674D01*
X51535101Y-71376367D01*
X51516534Y-71411103D01*
X51491548Y-71441548D01*
X51461103Y-71466534D01*
X51426367Y-71485101D01*
X51388674Y-71496535D01*
X51343339Y-71501000D01*
X50256661Y-71501000D01*
X50211326Y-71496535D01*
X50173633Y-71485101D01*
X50138897Y-71466534D01*
X50108452Y-71441548D01*
X50083466Y-71411103D01*
X50064899Y-71376367D01*
X50053465Y-71338674D01*
X50049000Y-71293339D01*
X50049000Y-70456661D01*
X50053465Y-70411326D01*
X50064899Y-70373633D01*
X50083466Y-70338897D01*
X50108452Y-70308452D01*
X50138897Y-70283466D01*
X50173633Y-70264899D01*
X50211326Y-70253465D01*
X50256661Y-70249000D01*
X51343339Y-70249000D01*
X51388674Y-70253465D01*
G37*
G36*
X57688674Y-70253465D02*
G01*
X57726367Y-70264899D01*
X57761103Y-70283466D01*
X57791548Y-70308452D01*
X57816534Y-70338897D01*
X57835101Y-70373633D01*
X57846535Y-70411326D01*
X57851000Y-70456661D01*
X57851000Y-71293339D01*
X57846535Y-71338674D01*
X57835101Y-71376367D01*
X57816534Y-71411103D01*
X57791548Y-71441548D01*
X57761103Y-71466534D01*
X57726367Y-71485101D01*
X57688674Y-71496535D01*
X57643339Y-71501000D01*
X56556661Y-71501000D01*
X56511326Y-71496535D01*
X56473633Y-71485101D01*
X56438897Y-71466534D01*
X56408452Y-71441548D01*
X56383466Y-71411103D01*
X56364899Y-71376367D01*
X56353465Y-71338674D01*
X56349000Y-71293339D01*
X56349000Y-70456661D01*
X56353465Y-70411326D01*
X56364899Y-70373633D01*
X56383466Y-70338897D01*
X56408452Y-70308452D01*
X56438897Y-70283466D01*
X56473633Y-70264899D01*
X56511326Y-70253465D01*
X56556661Y-70249000D01*
X57643339Y-70249000D01*
X57688674Y-70253465D01*
G37*
G36*
X44438674Y-69953465D02*
G01*
X44476367Y-69964899D01*
X44511103Y-69983466D01*
X44541548Y-70008452D01*
X44566534Y-70038897D01*
X44585101Y-70073633D01*
X44596535Y-70111326D01*
X44601000Y-70156661D01*
X44601000Y-71243339D01*
X44596535Y-71288674D01*
X44585101Y-71326367D01*
X44566534Y-71361103D01*
X44541548Y-71391548D01*
X44511103Y-71416534D01*
X44476367Y-71435101D01*
X44438674Y-71446535D01*
X44393339Y-71451000D01*
X43556661Y-71451000D01*
X43511326Y-71446535D01*
X43473633Y-71435101D01*
X43438897Y-71416534D01*
X43408452Y-71391548D01*
X43383466Y-71361103D01*
X43364899Y-71326367D01*
X43353465Y-71288674D01*
X43349000Y-71243339D01*
X43349000Y-70156661D01*
X43353465Y-70111326D01*
X43364899Y-70073633D01*
X43383466Y-70038897D01*
X43408452Y-70008452D01*
X43438897Y-69983466D01*
X43473633Y-69964899D01*
X43511326Y-69953465D01*
X43556661Y-69949000D01*
X44393339Y-69949000D01*
X44438674Y-69953465D01*
G37*
G36*
X46488674Y-69953465D02*
G01*
X46526367Y-69964899D01*
X46561103Y-69983466D01*
X46591548Y-70008452D01*
X46616534Y-70038897D01*
X46635101Y-70073633D01*
X46646535Y-70111326D01*
X46651000Y-70156661D01*
X46651000Y-71243339D01*
X46646535Y-71288674D01*
X46635101Y-71326367D01*
X46616534Y-71361103D01*
X46591548Y-71391548D01*
X46561103Y-71416534D01*
X46526367Y-71435101D01*
X46488674Y-71446535D01*
X46443339Y-71451000D01*
X45606661Y-71451000D01*
X45561326Y-71446535D01*
X45523633Y-71435101D01*
X45488897Y-71416534D01*
X45458452Y-71391548D01*
X45433466Y-71361103D01*
X45414899Y-71326367D01*
X45403465Y-71288674D01*
X45399000Y-71243339D01*
X45399000Y-70156661D01*
X45403465Y-70111326D01*
X45414899Y-70073633D01*
X45433466Y-70038897D01*
X45458452Y-70008452D01*
X45488897Y-69983466D01*
X45523633Y-69964899D01*
X45561326Y-69953465D01*
X45606661Y-69949000D01*
X46443339Y-69949000D01*
X46488674Y-69953465D01*
G37*
G36*
X24848228Y-69601703D02*
G01*
X25003100Y-69665853D01*
X25142481Y-69758985D01*
X25261015Y-69877519D01*
X25354147Y-70016900D01*
X25418297Y-70171772D01*
X25451000Y-70336184D01*
X25451000Y-70503816D01*
X25418297Y-70668228D01*
X25354147Y-70823100D01*
X25261015Y-70962481D01*
X25142481Y-71081015D01*
X25003100Y-71174147D01*
X24848228Y-71238297D01*
X24683816Y-71271000D01*
X24516184Y-71271000D01*
X24351772Y-71238297D01*
X24196900Y-71174147D01*
X24057519Y-71081015D01*
X23938985Y-70962481D01*
X23845853Y-70823100D01*
X23781703Y-70668228D01*
X23749000Y-70503816D01*
X23749000Y-70336184D01*
X23781703Y-70171772D01*
X23845853Y-70016900D01*
X23938985Y-69877519D01*
X24057519Y-69758985D01*
X24196900Y-69665853D01*
X24351772Y-69601703D01*
X24516184Y-69569000D01*
X24683816Y-69569000D01*
X24848228Y-69601703D01*
G37*
G36*
X59588674Y-70003465D02*
G01*
X59626367Y-70014899D01*
X59661103Y-70033466D01*
X59691548Y-70058452D01*
X59716534Y-70088897D01*
X59735101Y-70123633D01*
X59746535Y-70161326D01*
X59751000Y-70206661D01*
X59751000Y-71043339D01*
X59746535Y-71088674D01*
X59735101Y-71126367D01*
X59716534Y-71161103D01*
X59691548Y-71191548D01*
X59661103Y-71216534D01*
X59626367Y-71235101D01*
X59588674Y-71246535D01*
X59543339Y-71251000D01*
X58456661Y-71251000D01*
X58411326Y-71246535D01*
X58373633Y-71235101D01*
X58338897Y-71216534D01*
X58308452Y-71191548D01*
X58283466Y-71161103D01*
X58264899Y-71126367D01*
X58253465Y-71088674D01*
X58249000Y-71043339D01*
X58249000Y-70206661D01*
X58253465Y-70161326D01*
X58264899Y-70123633D01*
X58283466Y-70088897D01*
X58308452Y-70058452D01*
X58338897Y-70033466D01*
X58373633Y-70014899D01*
X58411326Y-70003465D01*
X58456661Y-69999000D01*
X59543339Y-69999000D01*
X59588674Y-70003465D01*
G37*
G36*
X34704549Y-68296116D02*
G01*
X34815734Y-68318232D01*
X34963850Y-68379584D01*
X35023352Y-68404230D01*
X35025203Y-68404997D01*
X35213720Y-68530960D01*
X35374040Y-68691280D01*
X35500003Y-68879797D01*
X35586768Y-69089266D01*
X35631000Y-69311636D01*
X35631000Y-69538364D01*
X35586768Y-69760734D01*
X35500003Y-69970203D01*
X35374040Y-70158720D01*
X35213720Y-70319040D01*
X35025203Y-70445003D01*
X34815734Y-70531768D01*
X34719048Y-70551000D01*
X34593365Y-70576000D01*
X34366635Y-70576000D01*
X34240952Y-70551000D01*
X34144266Y-70531768D01*
X33934797Y-70445003D01*
X33746280Y-70319040D01*
X33585960Y-70158720D01*
X33459997Y-69970203D01*
X33373232Y-69760734D01*
X33329000Y-69538364D01*
X33329000Y-69311636D01*
X33373232Y-69089266D01*
X33459997Y-68879797D01*
X33585960Y-68691280D01*
X33746280Y-68530960D01*
X33934797Y-68404997D01*
X33936649Y-68404230D01*
X33996150Y-68379584D01*
X34144266Y-68318232D01*
X34255451Y-68296116D01*
X34366635Y-68274000D01*
X34593365Y-68274000D01*
X34704549Y-68296116D01*
G37*
G36*
X62106564Y-68489389D02*
G01*
X62293975Y-68567017D01*
X62297835Y-68568616D01*
X62469973Y-68683635D01*
X62616365Y-68830027D01*
X62725487Y-68993339D01*
X62731385Y-69002167D01*
X62810611Y-69193436D01*
X62851000Y-69396484D01*
X62851000Y-69603516D01*
X62810611Y-69806564D01*
X62737336Y-69983466D01*
X62731384Y-69997835D01*
X62616365Y-70169973D01*
X62469973Y-70316365D01*
X62297835Y-70431384D01*
X62297834Y-70431385D01*
X62297833Y-70431385D01*
X62106564Y-70510611D01*
X61903516Y-70551000D01*
X61696484Y-70551000D01*
X61493436Y-70510611D01*
X61302167Y-70431385D01*
X61302166Y-70431385D01*
X61302165Y-70431384D01*
X61130027Y-70316365D01*
X60983635Y-70169973D01*
X60868616Y-69997835D01*
X60862664Y-69983466D01*
X60789389Y-69806564D01*
X60749000Y-69603516D01*
X60749000Y-69396484D01*
X60789389Y-69193436D01*
X60868615Y-69002167D01*
X60874514Y-68993339D01*
X60983635Y-68830027D01*
X61130027Y-68683635D01*
X61302165Y-68568616D01*
X61306025Y-68567017D01*
X61493436Y-68489389D01*
X61696484Y-68449000D01*
X61903516Y-68449000D01*
X62106564Y-68489389D01*
G37*
G36*
X22308228Y-68461703D02*
G01*
X22463100Y-68525853D01*
X22602481Y-68618985D01*
X22721015Y-68737519D01*
X22814147Y-68876900D01*
X22878297Y-69031772D01*
X22911000Y-69196184D01*
X22911000Y-69363816D01*
X22878297Y-69528228D01*
X22814147Y-69683100D01*
X22721015Y-69822481D01*
X22602481Y-69941015D01*
X22463100Y-70034147D01*
X22308228Y-70098297D01*
X22143816Y-70131000D01*
X21976184Y-70131000D01*
X21811772Y-70098297D01*
X21656900Y-70034147D01*
X21517519Y-69941015D01*
X21398985Y-69822481D01*
X21305853Y-69683100D01*
X21241703Y-69528228D01*
X21209000Y-69363816D01*
X21209000Y-69196184D01*
X21241703Y-69031772D01*
X21305853Y-68876900D01*
X21398985Y-68737519D01*
X21517519Y-68618985D01*
X21656900Y-68525853D01*
X21811772Y-68461703D01*
X21976184Y-68429000D01*
X22143816Y-68429000D01*
X22308228Y-68461703D01*
G37*
G36*
X27388228Y-68461703D02*
G01*
X27543100Y-68525853D01*
X27682481Y-68618985D01*
X27801015Y-68737519D01*
X27894147Y-68876900D01*
X27958297Y-69031772D01*
X27991000Y-69196184D01*
X27991000Y-69363816D01*
X27958297Y-69528228D01*
X27894147Y-69683100D01*
X27801015Y-69822481D01*
X27682481Y-69941015D01*
X27543100Y-70034147D01*
X27388228Y-70098297D01*
X27223816Y-70131000D01*
X27056184Y-70131000D01*
X26891772Y-70098297D01*
X26736900Y-70034147D01*
X26597519Y-69941015D01*
X26478985Y-69822481D01*
X26385853Y-69683100D01*
X26321703Y-69528228D01*
X26289000Y-69363816D01*
X26289000Y-69196184D01*
X26321703Y-69031772D01*
X26385853Y-68876900D01*
X26478985Y-68737519D01*
X26597519Y-68618985D01*
X26736900Y-68525853D01*
X26891772Y-68461703D01*
X27056184Y-68429000D01*
X27223816Y-68429000D01*
X27388228Y-68461703D01*
G37*
G36*
X55351000Y-69726000D02*
G01*
X52849000Y-69726000D01*
X52849000Y-68174000D01*
X55351000Y-68174000D01*
X55351000Y-69726000D01*
G37*
G36*
X57688674Y-68403465D02*
G01*
X57726367Y-68414899D01*
X57761103Y-68433466D01*
X57791548Y-68458452D01*
X57816534Y-68488897D01*
X57835101Y-68523633D01*
X57846535Y-68561326D01*
X57851000Y-68606661D01*
X57851000Y-69443339D01*
X57846535Y-69488674D01*
X57835101Y-69526367D01*
X57816534Y-69561103D01*
X57791548Y-69591548D01*
X57761103Y-69616534D01*
X57726367Y-69635101D01*
X57688674Y-69646535D01*
X57643339Y-69651000D01*
X56556661Y-69651000D01*
X56511326Y-69646535D01*
X56473633Y-69635101D01*
X56438897Y-69616534D01*
X56408452Y-69591548D01*
X56383466Y-69561103D01*
X56364899Y-69526367D01*
X56353465Y-69488674D01*
X56349000Y-69443339D01*
X56349000Y-68606661D01*
X56353465Y-68561326D01*
X56364899Y-68523633D01*
X56383466Y-68488897D01*
X56408452Y-68458452D01*
X56438897Y-68433466D01*
X56473633Y-68414899D01*
X56511326Y-68403465D01*
X56556661Y-68399000D01*
X57643339Y-68399000D01*
X57688674Y-68403465D01*
G37*
G36*
X46488674Y-67903465D02*
G01*
X46526367Y-67914899D01*
X46561103Y-67933466D01*
X46591548Y-67958452D01*
X46616534Y-67988897D01*
X46635101Y-68023633D01*
X46646535Y-68061326D01*
X46651000Y-68106661D01*
X46651000Y-69193339D01*
X46646535Y-69238674D01*
X46635101Y-69276367D01*
X46616534Y-69311103D01*
X46591548Y-69341548D01*
X46561103Y-69366534D01*
X46526367Y-69385101D01*
X46488674Y-69396535D01*
X46443339Y-69401000D01*
X45606661Y-69401000D01*
X45561326Y-69396535D01*
X45523633Y-69385101D01*
X45488897Y-69366534D01*
X45458452Y-69341548D01*
X45433466Y-69311103D01*
X45414899Y-69276367D01*
X45403465Y-69238674D01*
X45399000Y-69193339D01*
X45399000Y-68106661D01*
X45403465Y-68061326D01*
X45414899Y-68023633D01*
X45433466Y-67988897D01*
X45458452Y-67958452D01*
X45488897Y-67933466D01*
X45523633Y-67914899D01*
X45561326Y-67903465D01*
X45606661Y-67899000D01*
X46443339Y-67899000D01*
X46488674Y-67903465D01*
G37*
G36*
X44438674Y-67903465D02*
G01*
X44476367Y-67914899D01*
X44511103Y-67933466D01*
X44541548Y-67958452D01*
X44566534Y-67988897D01*
X44585101Y-68023633D01*
X44596535Y-68061326D01*
X44601000Y-68106661D01*
X44601000Y-69193339D01*
X44596535Y-69238674D01*
X44585101Y-69276367D01*
X44566534Y-69311103D01*
X44541548Y-69341548D01*
X44511103Y-69366534D01*
X44476367Y-69385101D01*
X44438674Y-69396535D01*
X44393339Y-69401000D01*
X43556661Y-69401000D01*
X43511326Y-69396535D01*
X43473633Y-69385101D01*
X43438897Y-69366534D01*
X43408452Y-69341548D01*
X43383466Y-69311103D01*
X43364899Y-69276367D01*
X43353465Y-69238674D01*
X43349000Y-69193339D01*
X43349000Y-68106661D01*
X43353465Y-68061326D01*
X43364899Y-68023633D01*
X43383466Y-67988897D01*
X43408452Y-67958452D01*
X43438897Y-67933466D01*
X43473633Y-67914899D01*
X43511326Y-67903465D01*
X43556661Y-67899000D01*
X44393339Y-67899000D01*
X44438674Y-67903465D01*
G37*
G36*
X59588674Y-67953465D02*
G01*
X59626367Y-67964899D01*
X59661103Y-67983466D01*
X59691548Y-68008452D01*
X59716534Y-68038897D01*
X59735101Y-68073633D01*
X59746535Y-68111326D01*
X59751000Y-68156661D01*
X59751000Y-68993339D01*
X59746535Y-69038674D01*
X59735101Y-69076367D01*
X59716534Y-69111103D01*
X59691548Y-69141548D01*
X59661103Y-69166534D01*
X59626367Y-69185101D01*
X59588674Y-69196535D01*
X59543339Y-69201000D01*
X58456661Y-69201000D01*
X58411326Y-69196535D01*
X58373633Y-69185101D01*
X58338897Y-69166534D01*
X58308452Y-69141548D01*
X58283466Y-69111103D01*
X58264899Y-69076367D01*
X58253465Y-69038674D01*
X58249000Y-68993339D01*
X58249000Y-68156661D01*
X58253465Y-68111326D01*
X58264899Y-68073633D01*
X58283466Y-68038897D01*
X58308452Y-68008452D01*
X58338897Y-67983466D01*
X58373633Y-67964899D01*
X58411326Y-67953465D01*
X58456661Y-67949000D01*
X59543339Y-67949000D01*
X59588674Y-67953465D01*
G37*
G36*
X29586090Y-66383466D02*
G01*
X29735734Y-66413232D01*
X29945203Y-66499997D01*
X30133720Y-66625960D01*
X30294040Y-66786280D01*
X30420003Y-66974797D01*
X30506768Y-67184266D01*
X30551000Y-67406636D01*
X30551000Y-67633364D01*
X30506768Y-67855734D01*
X30464221Y-67958452D01*
X30438743Y-68019962D01*
X30420003Y-68065203D01*
X30294040Y-68253720D01*
X30133720Y-68414040D01*
X29945203Y-68540003D01*
X29735734Y-68626768D01*
X29624549Y-68648884D01*
X29513365Y-68671000D01*
X29286635Y-68671000D01*
X29175451Y-68648884D01*
X29064266Y-68626768D01*
X28854797Y-68540003D01*
X28666280Y-68414040D01*
X28505960Y-68253720D01*
X28379997Y-68065203D01*
X28361258Y-68019962D01*
X28335779Y-67958452D01*
X28293232Y-67855734D01*
X28249000Y-67633364D01*
X28249000Y-67406636D01*
X28293232Y-67184266D01*
X28379997Y-66974797D01*
X28505960Y-66786280D01*
X28666280Y-66625960D01*
X28854797Y-66499997D01*
X29064266Y-66413232D01*
X29213910Y-66383466D01*
X29286635Y-66369000D01*
X29513365Y-66369000D01*
X29586090Y-66383466D01*
G37*
G36*
X62127423Y-63681661D02*
G01*
X62491760Y-63832574D01*
X62518881Y-63843808D01*
X62871183Y-64079209D01*
X63170791Y-64378817D01*
X63377980Y-64688897D01*
X63406193Y-64731121D01*
X63568339Y-65122577D01*
X63651000Y-65538144D01*
X63651000Y-65961856D01*
X63568339Y-66377423D01*
X63406193Y-66768879D01*
X63406192Y-66768881D01*
X63170791Y-67121183D01*
X62871183Y-67420791D01*
X62518881Y-67656192D01*
X62518880Y-67656193D01*
X62518879Y-67656193D01*
X62127423Y-67818339D01*
X61711856Y-67901000D01*
X61288144Y-67901000D01*
X60872577Y-67818339D01*
X60481121Y-67656193D01*
X60481120Y-67656193D01*
X60481119Y-67656192D01*
X60128817Y-67420791D01*
X59829209Y-67121183D01*
X59593808Y-66768881D01*
X59593807Y-66768879D01*
X59431661Y-66377423D01*
X59349000Y-65961856D01*
X59349000Y-65538144D01*
X59431661Y-65122577D01*
X59593807Y-64731121D01*
X59622020Y-64688897D01*
X59829209Y-64378817D01*
X60128817Y-64079209D01*
X60481119Y-63843808D01*
X60508240Y-63832574D01*
X60872577Y-63681661D01*
X61288144Y-63599000D01*
X61711856Y-63599000D01*
X62127423Y-63681661D01*
G37*
G36*
X57688674Y-66353465D02*
G01*
X57726367Y-66364899D01*
X57761103Y-66383466D01*
X57791548Y-66408452D01*
X57816534Y-66438897D01*
X57835101Y-66473633D01*
X57846535Y-66511326D01*
X57851000Y-66556661D01*
X57851000Y-67393339D01*
X57846535Y-67438674D01*
X57835101Y-67476367D01*
X57816534Y-67511103D01*
X57791548Y-67541548D01*
X57761103Y-67566534D01*
X57726367Y-67585101D01*
X57688674Y-67596535D01*
X57643339Y-67601000D01*
X56556661Y-67601000D01*
X56511326Y-67596535D01*
X56473633Y-67585101D01*
X56438897Y-67566534D01*
X56408452Y-67541548D01*
X56383466Y-67511103D01*
X56364899Y-67476367D01*
X56353465Y-67438674D01*
X56349000Y-67393339D01*
X56349000Y-66556661D01*
X56353465Y-66511326D01*
X56364899Y-66473633D01*
X56383466Y-66438897D01*
X56408452Y-66408452D01*
X56438897Y-66383466D01*
X56473633Y-66364899D01*
X56511326Y-66353465D01*
X56556661Y-66349000D01*
X57643339Y-66349000D01*
X57688674Y-66353465D01*
G37*
G36*
X48409928Y-66456764D02*
G01*
X48431009Y-66463160D01*
X48450445Y-66473548D01*
X48467476Y-66487524D01*
X48481452Y-66504555D01*
X48491840Y-66523991D01*
X48498236Y-66545072D01*
X48501000Y-66573140D01*
X48501000Y-67036860D01*
X48498236Y-67064928D01*
X48491840Y-67086009D01*
X48481452Y-67105445D01*
X48467476Y-67122476D01*
X48450445Y-67136452D01*
X48431009Y-67146840D01*
X48409928Y-67153236D01*
X48381860Y-67156000D01*
X46568140Y-67156000D01*
X46540072Y-67153236D01*
X46518991Y-67146840D01*
X46499555Y-67136452D01*
X46482524Y-67122476D01*
X46468548Y-67105445D01*
X46458160Y-67086009D01*
X46451764Y-67064928D01*
X46449000Y-67036860D01*
X46449000Y-66573140D01*
X46451764Y-66545072D01*
X46458160Y-66523991D01*
X46468548Y-66504555D01*
X46482524Y-66487524D01*
X46499555Y-66473548D01*
X46518991Y-66463160D01*
X46540072Y-66456764D01*
X46568140Y-66454000D01*
X48381860Y-66454000D01*
X48409928Y-66456764D01*
G37*
G36*
X43459928Y-66456764D02*
G01*
X43481009Y-66463160D01*
X43500445Y-66473548D01*
X43517476Y-66487524D01*
X43531452Y-66504555D01*
X43541840Y-66523991D01*
X43548236Y-66545072D01*
X43551000Y-66573140D01*
X43551000Y-67036860D01*
X43548236Y-67064928D01*
X43541840Y-67086009D01*
X43531452Y-67105445D01*
X43517476Y-67122476D01*
X43500445Y-67136452D01*
X43481009Y-67146840D01*
X43459928Y-67153236D01*
X43431860Y-67156000D01*
X41618140Y-67156000D01*
X41590072Y-67153236D01*
X41568991Y-67146840D01*
X41549555Y-67136452D01*
X41532524Y-67122476D01*
X41518548Y-67105445D01*
X41508160Y-67086009D01*
X41501764Y-67064928D01*
X41499000Y-67036860D01*
X41499000Y-66573140D01*
X41501764Y-66545072D01*
X41508160Y-66523991D01*
X41518548Y-66504555D01*
X41532524Y-66487524D01*
X41549555Y-66473548D01*
X41568991Y-66463160D01*
X41590072Y-66456764D01*
X41618140Y-66454000D01*
X43431860Y-66454000D01*
X43459928Y-66456764D01*
G37*
G36*
X34647348Y-64474738D02*
G01*
X34815734Y-64508232D01*
X35025203Y-64594997D01*
X35213720Y-64720960D01*
X35374040Y-64881280D01*
X35500003Y-65069797D01*
X35586768Y-65279266D01*
X35631000Y-65501636D01*
X35631000Y-65728364D01*
X35586768Y-65950734D01*
X35500003Y-66160203D01*
X35374040Y-66348720D01*
X35213720Y-66509040D01*
X35025203Y-66635003D01*
X34815734Y-66721768D01*
X34704549Y-66743884D01*
X34593365Y-66766000D01*
X34366635Y-66766000D01*
X34255451Y-66743884D01*
X34144266Y-66721768D01*
X33934797Y-66635003D01*
X33746280Y-66509040D01*
X33585960Y-66348720D01*
X33459997Y-66160203D01*
X33373232Y-65950734D01*
X33329000Y-65728364D01*
X33329000Y-65501636D01*
X33373232Y-65279266D01*
X33459997Y-65069797D01*
X33585960Y-64881280D01*
X33746280Y-64720960D01*
X33934797Y-64594997D01*
X34144266Y-64508232D01*
X34312652Y-64474738D01*
X34366635Y-64464000D01*
X34593365Y-64464000D01*
X34647348Y-64474738D01*
G37*
G36*
X48409928Y-65186764D02*
G01*
X48431009Y-65193160D01*
X48450445Y-65203548D01*
X48467476Y-65217524D01*
X48481452Y-65234555D01*
X48491840Y-65253991D01*
X48498236Y-65275072D01*
X48501000Y-65303140D01*
X48501000Y-65766860D01*
X48498236Y-65794928D01*
X48491840Y-65816009D01*
X48481452Y-65835445D01*
X48467476Y-65852476D01*
X48450445Y-65866452D01*
X48431009Y-65876840D01*
X48409928Y-65883236D01*
X48381860Y-65886000D01*
X46568140Y-65886000D01*
X46540072Y-65883236D01*
X46518991Y-65876840D01*
X46499555Y-65866452D01*
X46482524Y-65852476D01*
X46468548Y-65835445D01*
X46458160Y-65816009D01*
X46451764Y-65794928D01*
X46449000Y-65766860D01*
X46449000Y-65303140D01*
X46451764Y-65275072D01*
X46458160Y-65253991D01*
X46468548Y-65234555D01*
X46482524Y-65217524D01*
X46499555Y-65203548D01*
X46518991Y-65193160D01*
X46540072Y-65186764D01*
X46568140Y-65184000D01*
X48381860Y-65184000D01*
X48409928Y-65186764D01*
G37*
G36*
X43459928Y-65186764D02*
G01*
X43481009Y-65193160D01*
X43500445Y-65203548D01*
X43517476Y-65217524D01*
X43531452Y-65234555D01*
X43541840Y-65253991D01*
X43548236Y-65275072D01*
X43551000Y-65303140D01*
X43551000Y-65766860D01*
X43548236Y-65794928D01*
X43541840Y-65816009D01*
X43531452Y-65835445D01*
X43517476Y-65852476D01*
X43500445Y-65866452D01*
X43481009Y-65876840D01*
X43459928Y-65883236D01*
X43431860Y-65886000D01*
X41618140Y-65886000D01*
X41590072Y-65883236D01*
X41568991Y-65876840D01*
X41549555Y-65866452D01*
X41532524Y-65852476D01*
X41518548Y-65835445D01*
X41508160Y-65816009D01*
X41501764Y-65794928D01*
X41499000Y-65766860D01*
X41499000Y-65303140D01*
X41501764Y-65275072D01*
X41508160Y-65253991D01*
X41518548Y-65234555D01*
X41532524Y-65217524D01*
X41549555Y-65203548D01*
X41568991Y-65193160D01*
X41590072Y-65186764D01*
X41618140Y-65184000D01*
X43431860Y-65184000D01*
X43459928Y-65186764D01*
G37*
G36*
X57688674Y-64603465D02*
G01*
X57726367Y-64614899D01*
X57761103Y-64633466D01*
X57791548Y-64658452D01*
X57816534Y-64688897D01*
X57835101Y-64723633D01*
X57846535Y-64761326D01*
X57851000Y-64806661D01*
X57851000Y-65643339D01*
X57846535Y-65688674D01*
X57835101Y-65726367D01*
X57816534Y-65761103D01*
X57791548Y-65791548D01*
X57761103Y-65816534D01*
X57726367Y-65835101D01*
X57688674Y-65846535D01*
X57643339Y-65851000D01*
X56556661Y-65851000D01*
X56511326Y-65846535D01*
X56473633Y-65835101D01*
X56438897Y-65816534D01*
X56408452Y-65791548D01*
X56383466Y-65761103D01*
X56364899Y-65726367D01*
X56353465Y-65688674D01*
X56349000Y-65643339D01*
X56349000Y-64806661D01*
X56353465Y-64761326D01*
X56364899Y-64723633D01*
X56383466Y-64688897D01*
X56408452Y-64658452D01*
X56438897Y-64633466D01*
X56473633Y-64614899D01*
X56511326Y-64603465D01*
X56556661Y-64599000D01*
X57643339Y-64599000D01*
X57688674Y-64603465D01*
G37*
G36*
X40088674Y-63703465D02*
G01*
X40126367Y-63714899D01*
X40161103Y-63733466D01*
X40191548Y-63758452D01*
X40216534Y-63788897D01*
X40235101Y-63823633D01*
X40246535Y-63861326D01*
X40251000Y-63906661D01*
X40251000Y-64743339D01*
X40246535Y-64788674D01*
X40235101Y-64826367D01*
X40216534Y-64861103D01*
X40191548Y-64891548D01*
X40161103Y-64916534D01*
X40126367Y-64935101D01*
X40088674Y-64946535D01*
X40043339Y-64951000D01*
X38956661Y-64951000D01*
X38911326Y-64946535D01*
X38873633Y-64935101D01*
X38838897Y-64916534D01*
X38808452Y-64891548D01*
X38783466Y-64861103D01*
X38764899Y-64826367D01*
X38753465Y-64788674D01*
X38749000Y-64743339D01*
X38749000Y-63906661D01*
X38753465Y-63861326D01*
X38764899Y-63823633D01*
X38783466Y-63788897D01*
X38808452Y-63758452D01*
X38838897Y-63733466D01*
X38873633Y-63714899D01*
X38911326Y-63703465D01*
X38956661Y-63699000D01*
X40043339Y-63699000D01*
X40088674Y-63703465D01*
G37*
G36*
X29624549Y-62581116D02*
G01*
X29735734Y-62603232D01*
X29840829Y-62646764D01*
X29925716Y-62681925D01*
X29945203Y-62689997D01*
X30133720Y-62815960D01*
X30294040Y-62976280D01*
X30420003Y-63164797D01*
X30495060Y-63346000D01*
X30506768Y-63374267D01*
X30551000Y-63596635D01*
X30551000Y-63823365D01*
X30543449Y-63861326D01*
X30506768Y-64045734D01*
X30420003Y-64255203D01*
X30294040Y-64443720D01*
X30133720Y-64604040D01*
X29945203Y-64730003D01*
X29735734Y-64816768D01*
X29687476Y-64826367D01*
X29513365Y-64861000D01*
X29286635Y-64861000D01*
X29112524Y-64826367D01*
X29064266Y-64816768D01*
X28854797Y-64730003D01*
X28666280Y-64604040D01*
X28505960Y-64443720D01*
X28379997Y-64255203D01*
X28293232Y-64045734D01*
X28256551Y-63861326D01*
X28249000Y-63823365D01*
X28249000Y-63596635D01*
X28293232Y-63374267D01*
X28304941Y-63346000D01*
X28379997Y-63164797D01*
X28505960Y-62976280D01*
X28666280Y-62815960D01*
X28854797Y-62689997D01*
X28874285Y-62681925D01*
X28959171Y-62646764D01*
X29064266Y-62603232D01*
X29175451Y-62581116D01*
X29286635Y-62559000D01*
X29513365Y-62559000D01*
X29624549Y-62581116D01*
G37*
G36*
X43459928Y-63916764D02*
G01*
X43481009Y-63923160D01*
X43500445Y-63933548D01*
X43517476Y-63947524D01*
X43531452Y-63964555D01*
X43541840Y-63983991D01*
X43548236Y-64005072D01*
X43551000Y-64033140D01*
X43551000Y-64496860D01*
X43548236Y-64524928D01*
X43541840Y-64546009D01*
X43531452Y-64565445D01*
X43517476Y-64582476D01*
X43500445Y-64596452D01*
X43481009Y-64606840D01*
X43459928Y-64613236D01*
X43431860Y-64616000D01*
X41618140Y-64616000D01*
X41590072Y-64613236D01*
X41568991Y-64606840D01*
X41549555Y-64596452D01*
X41532524Y-64582476D01*
X41518548Y-64565445D01*
X41508160Y-64546009D01*
X41501764Y-64524928D01*
X41499000Y-64496860D01*
X41499000Y-64033140D01*
X41501764Y-64005072D01*
X41508160Y-63983991D01*
X41518548Y-63964555D01*
X41532524Y-63947524D01*
X41549555Y-63933548D01*
X41568991Y-63923160D01*
X41590072Y-63916764D01*
X41618140Y-63914000D01*
X43431860Y-63914000D01*
X43459928Y-63916764D01*
G37*
G36*
X48409928Y-63916764D02*
G01*
X48431009Y-63923160D01*
X48450445Y-63933548D01*
X48467476Y-63947524D01*
X48481452Y-63964555D01*
X48491840Y-63983991D01*
X48498236Y-64005072D01*
X48501000Y-64033140D01*
X48501000Y-64496860D01*
X48498236Y-64524928D01*
X48491840Y-64546009D01*
X48481452Y-64565445D01*
X48467476Y-64582476D01*
X48450445Y-64596452D01*
X48431009Y-64606840D01*
X48409928Y-64613236D01*
X48381860Y-64616000D01*
X46568140Y-64616000D01*
X46540072Y-64613236D01*
X46518991Y-64606840D01*
X46499555Y-64596452D01*
X46482524Y-64582476D01*
X46468548Y-64565445D01*
X46458160Y-64546009D01*
X46451764Y-64524928D01*
X46449000Y-64496860D01*
X46449000Y-64033140D01*
X46451764Y-64005072D01*
X46458160Y-63983991D01*
X46468548Y-63964555D01*
X46482524Y-63947524D01*
X46499555Y-63933548D01*
X46518991Y-63923160D01*
X46540072Y-63916764D01*
X46568140Y-63914000D01*
X48381860Y-63914000D01*
X48409928Y-63916764D01*
G37*
G36*
X66598254Y-60027818D02*
G01*
X66971511Y-60182426D01*
X66971513Y-60182427D01*
X67307436Y-60406884D01*
X67593116Y-60692564D01*
X67779350Y-60971282D01*
X67817574Y-61028489D01*
X67972182Y-61401746D01*
X68051000Y-61797993D01*
X68051000Y-62202007D01*
X67972182Y-62598254D01*
X67842320Y-62911768D01*
X67817573Y-62971513D01*
X67593116Y-63307436D01*
X67307436Y-63593116D01*
X66971513Y-63817573D01*
X66971512Y-63817574D01*
X66971511Y-63817574D01*
X66598254Y-63972182D01*
X66202007Y-64051000D01*
X65797993Y-64051000D01*
X65401746Y-63972182D01*
X65028489Y-63817574D01*
X65028488Y-63817574D01*
X65028487Y-63817573D01*
X64692564Y-63593116D01*
X64406884Y-63307436D01*
X64182427Y-62971513D01*
X64157680Y-62911768D01*
X64027818Y-62598254D01*
X63949000Y-62202007D01*
X63949000Y-61797993D01*
X64027818Y-61401746D01*
X64182426Y-61028489D01*
X64220651Y-60971282D01*
X64406884Y-60692564D01*
X64692564Y-60406884D01*
X65028487Y-60182427D01*
X65028489Y-60182426D01*
X65401746Y-60027818D01*
X65797993Y-59949000D01*
X66202007Y-59949000D01*
X66598254Y-60027818D01*
G37*
G36*
X24876033Y-59328827D02*
G01*
X25271177Y-59407426D01*
X25689932Y-59580880D01*
X26066802Y-59832696D01*
X26387304Y-60153198D01*
X26639120Y-60530068D01*
X26812574Y-60948823D01*
X26901000Y-61393371D01*
X26901000Y-61846629D01*
X26812574Y-62291177D01*
X26639120Y-62709932D01*
X26387304Y-63086802D01*
X26066802Y-63407304D01*
X25689932Y-63659120D01*
X25271177Y-63832574D01*
X25098020Y-63867017D01*
X24826630Y-63921000D01*
X24373370Y-63921000D01*
X24101980Y-63867017D01*
X23928823Y-63832574D01*
X23510068Y-63659120D01*
X23133198Y-63407304D01*
X22812696Y-63086802D01*
X22560880Y-62709932D01*
X22387426Y-62291177D01*
X22299000Y-61846629D01*
X22299000Y-61393371D01*
X22387426Y-60948823D01*
X22560880Y-60530068D01*
X22812696Y-60153198D01*
X23133198Y-59832696D01*
X23510068Y-59580880D01*
X23928823Y-59407426D01*
X24323967Y-59328827D01*
X24373370Y-59319000D01*
X24826630Y-59319000D01*
X24876033Y-59328827D01*
G37*
G36*
X55351000Y-63826000D02*
G01*
X52849000Y-63826000D01*
X52849000Y-62274000D01*
X55351000Y-62274000D01*
X55351000Y-63826000D01*
G37*
G36*
X57688674Y-62553465D02*
G01*
X57726367Y-62564899D01*
X57761103Y-62583466D01*
X57791548Y-62608452D01*
X57816534Y-62638897D01*
X57835101Y-62673633D01*
X57846535Y-62711326D01*
X57851000Y-62756661D01*
X57851000Y-63593339D01*
X57846535Y-63638674D01*
X57835101Y-63676367D01*
X57816534Y-63711103D01*
X57791548Y-63741548D01*
X57761103Y-63766534D01*
X57726367Y-63785101D01*
X57688674Y-63796535D01*
X57643339Y-63801000D01*
X56556661Y-63801000D01*
X56511326Y-63796535D01*
X56473633Y-63785101D01*
X56438897Y-63766534D01*
X56408452Y-63741548D01*
X56383466Y-63711103D01*
X56364899Y-63676367D01*
X56353465Y-63638674D01*
X56349000Y-63593339D01*
X56349000Y-62756661D01*
X56353465Y-62711326D01*
X56364899Y-62673633D01*
X56383466Y-62638897D01*
X56408452Y-62608452D01*
X56438897Y-62583466D01*
X56473633Y-62564899D01*
X56511326Y-62553465D01*
X56556661Y-62549000D01*
X57643339Y-62549000D01*
X57688674Y-62553465D01*
G37*
G36*
X43459928Y-62646764D02*
G01*
X43481009Y-62653160D01*
X43500445Y-62663548D01*
X43517476Y-62677524D01*
X43531452Y-62694555D01*
X43541840Y-62713991D01*
X43548236Y-62735072D01*
X43551000Y-62763140D01*
X43551000Y-63226860D01*
X43548236Y-63254928D01*
X43541840Y-63276009D01*
X43531452Y-63295445D01*
X43517476Y-63312476D01*
X43500445Y-63326452D01*
X43481009Y-63336840D01*
X43459928Y-63343236D01*
X43431860Y-63346000D01*
X41618140Y-63346000D01*
X41590072Y-63343236D01*
X41568991Y-63336840D01*
X41549555Y-63326452D01*
X41532524Y-63312476D01*
X41518548Y-63295445D01*
X41508160Y-63276009D01*
X41501764Y-63254928D01*
X41499000Y-63226860D01*
X41499000Y-62763140D01*
X41501764Y-62735072D01*
X41508160Y-62713991D01*
X41518548Y-62694555D01*
X41532524Y-62677524D01*
X41549555Y-62663548D01*
X41568991Y-62653160D01*
X41590072Y-62646764D01*
X41618140Y-62644000D01*
X43431860Y-62644000D01*
X43459928Y-62646764D01*
G37*
G36*
X48409928Y-62646764D02*
G01*
X48431009Y-62653160D01*
X48450445Y-62663548D01*
X48467476Y-62677524D01*
X48481452Y-62694555D01*
X48491840Y-62713991D01*
X48498236Y-62735072D01*
X48501000Y-62763140D01*
X48501000Y-63226860D01*
X48498236Y-63254928D01*
X48491840Y-63276009D01*
X48481452Y-63295445D01*
X48467476Y-63312476D01*
X48450445Y-63326452D01*
X48431009Y-63336840D01*
X48409928Y-63343236D01*
X48381860Y-63346000D01*
X46568140Y-63346000D01*
X46540072Y-63343236D01*
X46518991Y-63336840D01*
X46499555Y-63326452D01*
X46482524Y-63312476D01*
X46468548Y-63295445D01*
X46458160Y-63276009D01*
X46451764Y-63254928D01*
X46449000Y-63226860D01*
X46449000Y-62763140D01*
X46451764Y-62735072D01*
X46458160Y-62713991D01*
X46468548Y-62694555D01*
X46482524Y-62677524D01*
X46499555Y-62663548D01*
X46518991Y-62653160D01*
X46540072Y-62646764D01*
X46568140Y-62644000D01*
X48381860Y-62644000D01*
X48409928Y-62646764D01*
G37*
G36*
X34679699Y-60671173D02*
G01*
X34815734Y-60698232D01*
X34963850Y-60759584D01*
X35010308Y-60778827D01*
X35025203Y-60784997D01*
X35213720Y-60910960D01*
X35374040Y-61071280D01*
X35500003Y-61259797D01*
X35586768Y-61469266D01*
X35631000Y-61691636D01*
X35631000Y-61918364D01*
X35586768Y-62140734D01*
X35500003Y-62350203D01*
X35374040Y-62538720D01*
X35213720Y-62699040D01*
X35025203Y-62825003D01*
X34815734Y-62911768D01*
X34704549Y-62933884D01*
X34593365Y-62956000D01*
X34366635Y-62956000D01*
X34255451Y-62933884D01*
X34144266Y-62911768D01*
X33934797Y-62825003D01*
X33746280Y-62699040D01*
X33585960Y-62538720D01*
X33459997Y-62350203D01*
X33373232Y-62140734D01*
X33329000Y-61918364D01*
X33329000Y-61691636D01*
X33373232Y-61469266D01*
X33459997Y-61259797D01*
X33585960Y-61071280D01*
X33746280Y-60910960D01*
X33934797Y-60784997D01*
X33949693Y-60778827D01*
X33996150Y-60759584D01*
X34144266Y-60698232D01*
X34280301Y-60671173D01*
X34366635Y-60654000D01*
X34593365Y-60654000D01*
X34679699Y-60671173D01*
G37*
G36*
X40088674Y-61653465D02*
G01*
X40126367Y-61664899D01*
X40161103Y-61683466D01*
X40191548Y-61708452D01*
X40216534Y-61738897D01*
X40235101Y-61773633D01*
X40246535Y-61811326D01*
X40251000Y-61856661D01*
X40251000Y-62693339D01*
X40246535Y-62738674D01*
X40235101Y-62776367D01*
X40216534Y-62811103D01*
X40191548Y-62841548D01*
X40161103Y-62866534D01*
X40126367Y-62885101D01*
X40088674Y-62896535D01*
X40043339Y-62901000D01*
X38956661Y-62901000D01*
X38911326Y-62896535D01*
X38873633Y-62885101D01*
X38838897Y-62866534D01*
X38808452Y-62841548D01*
X38783466Y-62811103D01*
X38764899Y-62776367D01*
X38753465Y-62738674D01*
X38749000Y-62693339D01*
X38749000Y-61856661D01*
X38753465Y-61811326D01*
X38764899Y-61773633D01*
X38783466Y-61738897D01*
X38808452Y-61708452D01*
X38838897Y-61683466D01*
X38873633Y-61664899D01*
X38911326Y-61653465D01*
X38956661Y-61649000D01*
X40043339Y-61649000D01*
X40088674Y-61653465D01*
G37*
G36*
X53188674Y-60403465D02*
G01*
X53226367Y-60414899D01*
X53261103Y-60433466D01*
X53291548Y-60458452D01*
X53316534Y-60488897D01*
X53335101Y-60523633D01*
X53346535Y-60561326D01*
X53351000Y-60606661D01*
X53351000Y-61443339D01*
X53346535Y-61488674D01*
X53335101Y-61526367D01*
X53316534Y-61561103D01*
X53291548Y-61591548D01*
X53261103Y-61616534D01*
X53226367Y-61635101D01*
X53188674Y-61646535D01*
X53143339Y-61651000D01*
X52056661Y-61651000D01*
X52011326Y-61646535D01*
X51973633Y-61635101D01*
X51938897Y-61616534D01*
X51908452Y-61591548D01*
X51883466Y-61561103D01*
X51864899Y-61526367D01*
X51853465Y-61488674D01*
X51849000Y-61443339D01*
X51849000Y-60606661D01*
X51853465Y-60561326D01*
X51864899Y-60523633D01*
X51883466Y-60488897D01*
X51908452Y-60458452D01*
X51938897Y-60433466D01*
X51973633Y-60414899D01*
X52011326Y-60403465D01*
X52056661Y-60399000D01*
X53143339Y-60399000D01*
X53188674Y-60403465D01*
G37*
G36*
X57188674Y-60403465D02*
G01*
X57226367Y-60414899D01*
X57261103Y-60433466D01*
X57291548Y-60458452D01*
X57316534Y-60488897D01*
X57335101Y-60523633D01*
X57346535Y-60561326D01*
X57351000Y-60606661D01*
X57351000Y-61443339D01*
X57346535Y-61488674D01*
X57335101Y-61526367D01*
X57316534Y-61561103D01*
X57291548Y-61591548D01*
X57261103Y-61616534D01*
X57226367Y-61635101D01*
X57188674Y-61646535D01*
X57143339Y-61651000D01*
X56056661Y-61651000D01*
X56011326Y-61646535D01*
X55973633Y-61635101D01*
X55938897Y-61616534D01*
X55908452Y-61591548D01*
X55883466Y-61561103D01*
X55864899Y-61526367D01*
X55853465Y-61488674D01*
X55849000Y-61443339D01*
X55849000Y-60606661D01*
X55853465Y-60561326D01*
X55864899Y-60523633D01*
X55883466Y-60488897D01*
X55908452Y-60458452D01*
X55938897Y-60433466D01*
X55973633Y-60414899D01*
X56011326Y-60403465D01*
X56056661Y-60399000D01*
X57143339Y-60399000D01*
X57188674Y-60403465D01*
G37*
G36*
X55188674Y-60403465D02*
G01*
X55226367Y-60414899D01*
X55261103Y-60433466D01*
X55291548Y-60458452D01*
X55316534Y-60488897D01*
X55335101Y-60523633D01*
X55346535Y-60561326D01*
X55351000Y-60606661D01*
X55351000Y-61443339D01*
X55346535Y-61488674D01*
X55335101Y-61526367D01*
X55316534Y-61561103D01*
X55291548Y-61591548D01*
X55261103Y-61616534D01*
X55226367Y-61635101D01*
X55188674Y-61646535D01*
X55143339Y-61651000D01*
X54056661Y-61651000D01*
X54011326Y-61646535D01*
X53973633Y-61635101D01*
X53938897Y-61616534D01*
X53908452Y-61591548D01*
X53883466Y-61561103D01*
X53864899Y-61526367D01*
X53853465Y-61488674D01*
X53849000Y-61443339D01*
X53849000Y-60606661D01*
X53853465Y-60561326D01*
X53864899Y-60523633D01*
X53883466Y-60488897D01*
X53908452Y-60458452D01*
X53938897Y-60433466D01*
X53973633Y-60414899D01*
X54011326Y-60403465D01*
X54056661Y-60399000D01*
X55143339Y-60399000D01*
X55188674Y-60403465D01*
G37*
G36*
X51188674Y-60403465D02*
G01*
X51226367Y-60414899D01*
X51261103Y-60433466D01*
X51291548Y-60458452D01*
X51316534Y-60488897D01*
X51335101Y-60523633D01*
X51346535Y-60561326D01*
X51351000Y-60606661D01*
X51351000Y-61443339D01*
X51346535Y-61488674D01*
X51335101Y-61526367D01*
X51316534Y-61561103D01*
X51291548Y-61591548D01*
X51261103Y-61616534D01*
X51226367Y-61635101D01*
X51188674Y-61646535D01*
X51143339Y-61651000D01*
X50056661Y-61651000D01*
X50011326Y-61646535D01*
X49973633Y-61635101D01*
X49938897Y-61616534D01*
X49908452Y-61591548D01*
X49883466Y-61561103D01*
X49864899Y-61526367D01*
X49853465Y-61488674D01*
X49849000Y-61443339D01*
X49849000Y-60606661D01*
X49853465Y-60561326D01*
X49864899Y-60523633D01*
X49883466Y-60488897D01*
X49908452Y-60458452D01*
X49938897Y-60433466D01*
X49973633Y-60414899D01*
X50011326Y-60403465D01*
X50056661Y-60399000D01*
X51143339Y-60399000D01*
X51188674Y-60403465D01*
G37*
G36*
X40088674Y-59803465D02*
G01*
X40126367Y-59814899D01*
X40161103Y-59833466D01*
X40191548Y-59858452D01*
X40216534Y-59888897D01*
X40235101Y-59923633D01*
X40246535Y-59961326D01*
X40251000Y-60006661D01*
X40251000Y-60843339D01*
X40246535Y-60888674D01*
X40235101Y-60926367D01*
X40216534Y-60961103D01*
X40191548Y-60991548D01*
X40161103Y-61016534D01*
X40126367Y-61035101D01*
X40088674Y-61046535D01*
X40043339Y-61051000D01*
X38956661Y-61051000D01*
X38911326Y-61046535D01*
X38873633Y-61035101D01*
X38838897Y-61016534D01*
X38808452Y-60991548D01*
X38783466Y-60961103D01*
X38764899Y-60926367D01*
X38753465Y-60888674D01*
X38749000Y-60843339D01*
X38749000Y-60006661D01*
X38753465Y-59961326D01*
X38764899Y-59923633D01*
X38783466Y-59888897D01*
X38808452Y-59858452D01*
X38838897Y-59833466D01*
X38873633Y-59814899D01*
X38911326Y-59803465D01*
X38956661Y-59799000D01*
X40043339Y-59799000D01*
X40088674Y-59803465D01*
G37*
G36*
X62127423Y-56181661D02*
G01*
X62431071Y-56307436D01*
X62518881Y-56343808D01*
X62871183Y-56579209D01*
X63170791Y-56878817D01*
X63285840Y-57051000D01*
X63406193Y-57231121D01*
X63568339Y-57622577D01*
X63651000Y-58038144D01*
X63651000Y-58461856D01*
X63568339Y-58877423D01*
X63406193Y-59268879D01*
X63406192Y-59268881D01*
X63170791Y-59621183D01*
X62871183Y-59920791D01*
X62518881Y-60156192D01*
X62518880Y-60156193D01*
X62518879Y-60156193D01*
X62127423Y-60318339D01*
X61711856Y-60401000D01*
X61288144Y-60401000D01*
X60872577Y-60318339D01*
X60481121Y-60156193D01*
X60481120Y-60156193D01*
X60481119Y-60156192D01*
X60128817Y-59920791D01*
X59829209Y-59621183D01*
X59593808Y-59268881D01*
X59593807Y-59268879D01*
X59431661Y-58877423D01*
X59349000Y-58461856D01*
X59349000Y-58038144D01*
X59431661Y-57622577D01*
X59593807Y-57231121D01*
X59714160Y-57051000D01*
X59829209Y-56878817D01*
X60128817Y-56579209D01*
X60481119Y-56343808D01*
X60568929Y-56307436D01*
X60872577Y-56181661D01*
X61288144Y-56099000D01*
X61711856Y-56099000D01*
X62127423Y-56181661D01*
G37*
G36*
X55188674Y-58353465D02*
G01*
X55226367Y-58364899D01*
X55261103Y-58383466D01*
X55291548Y-58408452D01*
X55316534Y-58438897D01*
X55335101Y-58473633D01*
X55346535Y-58511326D01*
X55351000Y-58556661D01*
X55351000Y-59393339D01*
X55346535Y-59438674D01*
X55335101Y-59476367D01*
X55316534Y-59511103D01*
X55291548Y-59541548D01*
X55261103Y-59566534D01*
X55226367Y-59585101D01*
X55188674Y-59596535D01*
X55143339Y-59601000D01*
X54056661Y-59601000D01*
X54011326Y-59596535D01*
X53973633Y-59585101D01*
X53938897Y-59566534D01*
X53908452Y-59541548D01*
X53883466Y-59511103D01*
X53864899Y-59476367D01*
X53853465Y-59438674D01*
X53849000Y-59393339D01*
X53849000Y-58556661D01*
X53853465Y-58511326D01*
X53864899Y-58473633D01*
X53883466Y-58438897D01*
X53908452Y-58408452D01*
X53938897Y-58383466D01*
X53973633Y-58364899D01*
X54011326Y-58353465D01*
X54056661Y-58349000D01*
X55143339Y-58349000D01*
X55188674Y-58353465D01*
G37*
G36*
X51188674Y-58353465D02*
G01*
X51226367Y-58364899D01*
X51261103Y-58383466D01*
X51291548Y-58408452D01*
X51316534Y-58438897D01*
X51335101Y-58473633D01*
X51346535Y-58511326D01*
X51351000Y-58556661D01*
X51351000Y-59393339D01*
X51346535Y-59438674D01*
X51335101Y-59476367D01*
X51316534Y-59511103D01*
X51291548Y-59541548D01*
X51261103Y-59566534D01*
X51226367Y-59585101D01*
X51188674Y-59596535D01*
X51143339Y-59601000D01*
X50056661Y-59601000D01*
X50011326Y-59596535D01*
X49973633Y-59585101D01*
X49938897Y-59566534D01*
X49908452Y-59541548D01*
X49883466Y-59511103D01*
X49864899Y-59476367D01*
X49853465Y-59438674D01*
X49849000Y-59393339D01*
X49849000Y-58556661D01*
X49853465Y-58511326D01*
X49864899Y-58473633D01*
X49883466Y-58438897D01*
X49908452Y-58408452D01*
X49938897Y-58383466D01*
X49973633Y-58364899D01*
X50011326Y-58353465D01*
X50056661Y-58349000D01*
X51143339Y-58349000D01*
X51188674Y-58353465D01*
G37*
G36*
X57188674Y-58353465D02*
G01*
X57226367Y-58364899D01*
X57261103Y-58383466D01*
X57291548Y-58408452D01*
X57316534Y-58438897D01*
X57335101Y-58473633D01*
X57346535Y-58511326D01*
X57351000Y-58556661D01*
X57351000Y-59393339D01*
X57346535Y-59438674D01*
X57335101Y-59476367D01*
X57316534Y-59511103D01*
X57291548Y-59541548D01*
X57261103Y-59566534D01*
X57226367Y-59585101D01*
X57188674Y-59596535D01*
X57143339Y-59601000D01*
X56056661Y-59601000D01*
X56011326Y-59596535D01*
X55973633Y-59585101D01*
X55938897Y-59566534D01*
X55908452Y-59541548D01*
X55883466Y-59511103D01*
X55864899Y-59476367D01*
X55853465Y-59438674D01*
X55849000Y-59393339D01*
X55849000Y-58556661D01*
X55853465Y-58511326D01*
X55864899Y-58473633D01*
X55883466Y-58438897D01*
X55908452Y-58408452D01*
X55938897Y-58383466D01*
X55973633Y-58364899D01*
X56011326Y-58353465D01*
X56056661Y-58349000D01*
X57143339Y-58349000D01*
X57188674Y-58353465D01*
G37*
G36*
X53188674Y-58353465D02*
G01*
X53226367Y-58364899D01*
X53261103Y-58383466D01*
X53291548Y-58408452D01*
X53316534Y-58438897D01*
X53335101Y-58473633D01*
X53346535Y-58511326D01*
X53351000Y-58556661D01*
X53351000Y-59393339D01*
X53346535Y-59438674D01*
X53335101Y-59476367D01*
X53316534Y-59511103D01*
X53291548Y-59541548D01*
X53261103Y-59566534D01*
X53226367Y-59585101D01*
X53188674Y-59596535D01*
X53143339Y-59601000D01*
X52056661Y-59601000D01*
X52011326Y-59596535D01*
X51973633Y-59585101D01*
X51938897Y-59566534D01*
X51908452Y-59541548D01*
X51883466Y-59511103D01*
X51864899Y-59476367D01*
X51853465Y-59438674D01*
X51849000Y-59393339D01*
X51849000Y-58556661D01*
X51853465Y-58511326D01*
X51864899Y-58473633D01*
X51883466Y-58438897D01*
X51908452Y-58408452D01*
X51938897Y-58383466D01*
X51973633Y-58364899D01*
X52011326Y-58353465D01*
X52056661Y-58349000D01*
X53143339Y-58349000D01*
X53188674Y-58353465D01*
G37*
G36*
X40088674Y-57753465D02*
G01*
X40126367Y-57764899D01*
X40161103Y-57783466D01*
X40191548Y-57808452D01*
X40216534Y-57838897D01*
X40235101Y-57873633D01*
X40246535Y-57911326D01*
X40251000Y-57956661D01*
X40251000Y-58793339D01*
X40246535Y-58838674D01*
X40235101Y-58876367D01*
X40216534Y-58911103D01*
X40191548Y-58941548D01*
X40161103Y-58966534D01*
X40126367Y-58985101D01*
X40088674Y-58996535D01*
X40043339Y-59001000D01*
X38956661Y-59001000D01*
X38911326Y-58996535D01*
X38873633Y-58985101D01*
X38838897Y-58966534D01*
X38808452Y-58941548D01*
X38783466Y-58911103D01*
X38764899Y-58876367D01*
X38753465Y-58838674D01*
X38749000Y-58793339D01*
X38749000Y-57956661D01*
X38753465Y-57911326D01*
X38764899Y-57873633D01*
X38783466Y-57838897D01*
X38808452Y-57808452D01*
X38838897Y-57783466D01*
X38873633Y-57764899D01*
X38911326Y-57753465D01*
X38956661Y-57749000D01*
X40043339Y-57749000D01*
X40088674Y-57753465D01*
G37*
G36*
X46301000Y-58851000D02*
G01*
X44699000Y-58851000D01*
X44699000Y-55149000D01*
X46301000Y-55149000D01*
X46301000Y-58851000D01*
G37*
G36*
X27798254Y-53027818D02*
G01*
X28162822Y-53178827D01*
X28171513Y-53182427D01*
X28507436Y-53406884D01*
X28793116Y-53692564D01*
X28999987Y-54002167D01*
X29017574Y-54028489D01*
X29172182Y-54401746D01*
X29251000Y-54797993D01*
X29251000Y-55202007D01*
X29172182Y-55598254D01*
X29017574Y-55971511D01*
X29017573Y-55971513D01*
X28793116Y-56307436D01*
X28507436Y-56593116D01*
X28171513Y-56817573D01*
X28171512Y-56817574D01*
X28171511Y-56817574D01*
X27798254Y-56972182D01*
X27402007Y-57051000D01*
X26997993Y-57051000D01*
X26601746Y-56972182D01*
X26228489Y-56817574D01*
X26228488Y-56817574D01*
X26228487Y-56817573D01*
X25892564Y-56593116D01*
X25606884Y-56307436D01*
X25382427Y-55971513D01*
X25382426Y-55971511D01*
X25227818Y-55598254D01*
X25149000Y-55202007D01*
X25149000Y-54797993D01*
X25227818Y-54401746D01*
X25382426Y-54028489D01*
X25400014Y-54002167D01*
X25606884Y-53692564D01*
X25892564Y-53406884D01*
X26228487Y-53182427D01*
X26237178Y-53178827D01*
X26601746Y-53027818D01*
X26997993Y-52949000D01*
X27402007Y-52949000D01*
X27798254Y-53027818D01*
G37*
G36*
X35481000Y-56926000D02*
G01*
X34319000Y-56926000D01*
X34319000Y-56174000D01*
X35481000Y-56174000D01*
X35481000Y-56926000D01*
G37*
G36*
X33281000Y-56926000D02*
G01*
X32119000Y-56926000D01*
X32119000Y-54274000D01*
X33281000Y-54274000D01*
X33281000Y-56926000D01*
G37*
G36*
X38281000Y-56926000D02*
G01*
X37119000Y-56926000D01*
X37119000Y-54274000D01*
X38281000Y-54274000D01*
X38281000Y-56926000D01*
G37*
G36*
X40481000Y-56926000D02*
G01*
X39319000Y-56926000D01*
X39319000Y-56174000D01*
X40481000Y-56174000D01*
X40481000Y-56926000D01*
G37*
G36*
X58488674Y-54403465D02*
G01*
X58526367Y-54414899D01*
X58561103Y-54433466D01*
X58591548Y-54458452D01*
X58616534Y-54488897D01*
X58635101Y-54523633D01*
X58646535Y-54561326D01*
X58651000Y-54606661D01*
X58651000Y-55443339D01*
X58646535Y-55488674D01*
X58635101Y-55526367D01*
X58616534Y-55561103D01*
X58591548Y-55591548D01*
X58561103Y-55616534D01*
X58526367Y-55635101D01*
X58488674Y-55646535D01*
X58443339Y-55651000D01*
X57356661Y-55651000D01*
X57311326Y-55646535D01*
X57273633Y-55635101D01*
X57238897Y-55616534D01*
X57208452Y-55591548D01*
X57183466Y-55561103D01*
X57164899Y-55526367D01*
X57153465Y-55488674D01*
X57149000Y-55443339D01*
X57149000Y-54606661D01*
X57153465Y-54561326D01*
X57164899Y-54523633D01*
X57183466Y-54488897D01*
X57208452Y-54458452D01*
X57238897Y-54433466D01*
X57273633Y-54414899D01*
X57311326Y-54403465D01*
X57356661Y-54399000D01*
X58443339Y-54399000D01*
X58488674Y-54403465D01*
G37*
G36*
X62106564Y-53489389D02*
G01*
X62292809Y-53566534D01*
X62297835Y-53568616D01*
X62346301Y-53601000D01*
X62469973Y-53683635D01*
X62616365Y-53830027D01*
X62731385Y-54002167D01*
X62810611Y-54193436D01*
X62851000Y-54396484D01*
X62851000Y-54603516D01*
X62810611Y-54806564D01*
X62731385Y-54997833D01*
X62731384Y-54997835D01*
X62616365Y-55169973D01*
X62469973Y-55316365D01*
X62297835Y-55431384D01*
X62297834Y-55431385D01*
X62297833Y-55431385D01*
X62106564Y-55510611D01*
X61903516Y-55551000D01*
X61696484Y-55551000D01*
X61493436Y-55510611D01*
X61302167Y-55431385D01*
X61302166Y-55431385D01*
X61302165Y-55431384D01*
X61130027Y-55316365D01*
X60983635Y-55169973D01*
X60868616Y-54997835D01*
X60868615Y-54997833D01*
X60789389Y-54806564D01*
X60749000Y-54603516D01*
X60749000Y-54396484D01*
X60789389Y-54193436D01*
X60868615Y-54002167D01*
X60983635Y-53830027D01*
X61130027Y-53683635D01*
X61253699Y-53601000D01*
X61302165Y-53568616D01*
X61307191Y-53566534D01*
X61493436Y-53489389D01*
X61696484Y-53449000D01*
X61903516Y-53449000D01*
X62106564Y-53489389D01*
G37*
G36*
X40481000Y-55026000D02*
G01*
X39319000Y-55026000D01*
X39319000Y-54274000D01*
X40481000Y-54274000D01*
X40481000Y-55026000D01*
G37*
G36*
X35481000Y-55026000D02*
G01*
X34319000Y-55026000D01*
X34319000Y-54274000D01*
X35481000Y-54274000D01*
X35481000Y-55026000D01*
G37*
G36*
X58488674Y-52353465D02*
G01*
X58526367Y-52364899D01*
X58561103Y-52383466D01*
X58591548Y-52408452D01*
X58616534Y-52438897D01*
X58635101Y-52473633D01*
X58646535Y-52511326D01*
X58651000Y-52556661D01*
X58651000Y-53393339D01*
X58646535Y-53438674D01*
X58635101Y-53476367D01*
X58616534Y-53511103D01*
X58591548Y-53541548D01*
X58561103Y-53566534D01*
X58526367Y-53585101D01*
X58488674Y-53596535D01*
X58443339Y-53601000D01*
X57356661Y-53601000D01*
X57311326Y-53596535D01*
X57273633Y-53585101D01*
X57238897Y-53566534D01*
X57208452Y-53541548D01*
X57183466Y-53511103D01*
X57164899Y-53476367D01*
X57153465Y-53438674D01*
X57149000Y-53393339D01*
X57149000Y-52556661D01*
X57153465Y-52511326D01*
X57164899Y-52473633D01*
X57183466Y-52438897D01*
X57208452Y-52408452D01*
X57238897Y-52383466D01*
X57273633Y-52364899D01*
X57311326Y-52353465D01*
X57356661Y-52349000D01*
X58443339Y-52349000D01*
X58488674Y-52353465D01*
G37*
G36*
X33238674Y-51953465D02*
G01*
X33276367Y-51964899D01*
X33311103Y-51983466D01*
X33341548Y-52008452D01*
X33366534Y-52038897D01*
X33385101Y-52073633D01*
X33396535Y-52111326D01*
X33401000Y-52156661D01*
X33401000Y-53243339D01*
X33396535Y-53288674D01*
X33385101Y-53326367D01*
X33366534Y-53361103D01*
X33341548Y-53391548D01*
X33311103Y-53416534D01*
X33276367Y-53435101D01*
X33238674Y-53446535D01*
X33193339Y-53451000D01*
X32356661Y-53451000D01*
X32311326Y-53446535D01*
X32273633Y-53435101D01*
X32238897Y-53416534D01*
X32208452Y-53391548D01*
X32183466Y-53361103D01*
X32164899Y-53326367D01*
X32153465Y-53288674D01*
X32149000Y-53243339D01*
X32149000Y-52156661D01*
X32153465Y-52111326D01*
X32164899Y-52073633D01*
X32183466Y-52038897D01*
X32208452Y-52008452D01*
X32238897Y-51983466D01*
X32273633Y-51964899D01*
X32311326Y-51953465D01*
X32356661Y-51949000D01*
X33193339Y-51949000D01*
X33238674Y-51953465D01*
G37*
G36*
X35288674Y-51953465D02*
G01*
X35326367Y-51964899D01*
X35361103Y-51983466D01*
X35391548Y-52008452D01*
X35416534Y-52038897D01*
X35435101Y-52073633D01*
X35446535Y-52111326D01*
X35451000Y-52156661D01*
X35451000Y-53243339D01*
X35446535Y-53288674D01*
X35435101Y-53326367D01*
X35416534Y-53361103D01*
X35391548Y-53391548D01*
X35361103Y-53416534D01*
X35326367Y-53435101D01*
X35288674Y-53446535D01*
X35243339Y-53451000D01*
X34406661Y-53451000D01*
X34361326Y-53446535D01*
X34323633Y-53435101D01*
X34288897Y-53416534D01*
X34258452Y-53391548D01*
X34233466Y-53361103D01*
X34214899Y-53326367D01*
X34203465Y-53288674D01*
X34199000Y-53243339D01*
X34199000Y-52156661D01*
X34203465Y-52111326D01*
X34214899Y-52073633D01*
X34233466Y-52038897D01*
X34258452Y-52008452D01*
X34288897Y-51983466D01*
X34323633Y-51964899D01*
X34361326Y-51953465D01*
X34406661Y-51949000D01*
X35243339Y-51949000D01*
X35288674Y-51953465D01*
G37*
G36*
X38338674Y-51953465D02*
G01*
X38376367Y-51964899D01*
X38411103Y-51983466D01*
X38441548Y-52008452D01*
X38466534Y-52038897D01*
X38485101Y-52073633D01*
X38496535Y-52111326D01*
X38501000Y-52156661D01*
X38501000Y-53243339D01*
X38496535Y-53288674D01*
X38485101Y-53326367D01*
X38466534Y-53361103D01*
X38441548Y-53391548D01*
X38411103Y-53416534D01*
X38376367Y-53435101D01*
X38338674Y-53446535D01*
X38293339Y-53451000D01*
X37456661Y-53451000D01*
X37411326Y-53446535D01*
X37373633Y-53435101D01*
X37338897Y-53416534D01*
X37308452Y-53391548D01*
X37283466Y-53361103D01*
X37264899Y-53326367D01*
X37253465Y-53288674D01*
X37249000Y-53243339D01*
X37249000Y-52156661D01*
X37253465Y-52111326D01*
X37264899Y-52073633D01*
X37283466Y-52038897D01*
X37308452Y-52008452D01*
X37338897Y-51983466D01*
X37373633Y-51964899D01*
X37411326Y-51953465D01*
X37456661Y-51949000D01*
X38293339Y-51949000D01*
X38338674Y-51953465D01*
G37*
G36*
X40388674Y-51953465D02*
G01*
X40426367Y-51964899D01*
X40461103Y-51983466D01*
X40491548Y-52008452D01*
X40516534Y-52038897D01*
X40535101Y-52073633D01*
X40546535Y-52111326D01*
X40551000Y-52156661D01*
X40551000Y-53243339D01*
X40546535Y-53288674D01*
X40535101Y-53326367D01*
X40516534Y-53361103D01*
X40491548Y-53391548D01*
X40461103Y-53416534D01*
X40426367Y-53435101D01*
X40388674Y-53446535D01*
X40343339Y-53451000D01*
X39506661Y-53451000D01*
X39461326Y-53446535D01*
X39423633Y-53435101D01*
X39388897Y-53416534D01*
X39358452Y-53391548D01*
X39333466Y-53361103D01*
X39314899Y-53326367D01*
X39303465Y-53288674D01*
X39299000Y-53243339D01*
X39299000Y-52156661D01*
X39303465Y-52111326D01*
X39314899Y-52073633D01*
X39333466Y-52038897D01*
X39358452Y-52008452D01*
X39388897Y-51983466D01*
X39423633Y-51964899D01*
X39461326Y-51953465D01*
X39506661Y-51949000D01*
X40343339Y-51949000D01*
X40388674Y-51953465D01*
G37*
G36*
X62127423Y-48681661D02*
G01*
X62518879Y-48843807D01*
X62518881Y-48843808D01*
X62871183Y-49079209D01*
X63170791Y-49378817D01*
X63285840Y-49551000D01*
X63406193Y-49731121D01*
X63568339Y-50122577D01*
X63651000Y-50538144D01*
X63651000Y-50961856D01*
X63568339Y-51377423D01*
X63482570Y-51584487D01*
X63406192Y-51768881D01*
X63170791Y-52121183D01*
X62871183Y-52420791D01*
X62518881Y-52656192D01*
X62518880Y-52656193D01*
X62518879Y-52656193D01*
X62127423Y-52818339D01*
X61711856Y-52901000D01*
X61288144Y-52901000D01*
X60872577Y-52818339D01*
X60481121Y-52656193D01*
X60481120Y-52656193D01*
X60481119Y-52656192D01*
X60128817Y-52420791D01*
X59829209Y-52121183D01*
X59593808Y-51768881D01*
X59517430Y-51584487D01*
X59431661Y-51377423D01*
X59349000Y-50961856D01*
X59349000Y-50538144D01*
X59431661Y-50122577D01*
X59593807Y-49731121D01*
X59714160Y-49551000D01*
X59829209Y-49378817D01*
X60128817Y-49079209D01*
X60481119Y-48843808D01*
X60481121Y-48843807D01*
X60872577Y-48681661D01*
X61288144Y-48599000D01*
X61711856Y-48599000D01*
X62127423Y-48681661D01*
G37*
G36*
X69494838Y-50311773D02*
G01*
X69713405Y-50402307D01*
X69713407Y-50402308D01*
X69910113Y-50533742D01*
X70077398Y-50701027D01*
X70144197Y-50801000D01*
X70208833Y-50897735D01*
X70299367Y-51116302D01*
X70345520Y-51348330D01*
X70345520Y-51584910D01*
X70299367Y-51816938D01*
X70242815Y-51953465D01*
X70208832Y-52035507D01*
X70077398Y-52232213D01*
X69910113Y-52399498D01*
X69713407Y-52530932D01*
X69713406Y-52530933D01*
X69713405Y-52530933D01*
X69494838Y-52621467D01*
X69262810Y-52667620D01*
X69026230Y-52667620D01*
X68794202Y-52621467D01*
X68575635Y-52530933D01*
X68575634Y-52530933D01*
X68575633Y-52530932D01*
X68378927Y-52399498D01*
X68211642Y-52232213D01*
X68080208Y-52035507D01*
X68046225Y-51953465D01*
X67989673Y-51816938D01*
X67943520Y-51584910D01*
X67943520Y-51348330D01*
X67989673Y-51116302D01*
X68080207Y-50897735D01*
X68144843Y-50801000D01*
X68211642Y-50701027D01*
X68378927Y-50533742D01*
X68575633Y-50402308D01*
X68575635Y-50402307D01*
X68794202Y-50311773D01*
X69026230Y-50265620D01*
X69262810Y-50265620D01*
X69494838Y-50311773D01*
G37*
G36*
X21417818Y-51327696D02*
G01*
X21531105Y-51362062D01*
X21635512Y-51417869D01*
X21727027Y-51492973D01*
X21802131Y-51584488D01*
X21857938Y-51688895D01*
X21892304Y-51802182D01*
X21903907Y-51920000D01*
X21892304Y-52037818D01*
X21857938Y-52151105D01*
X21802131Y-52255512D01*
X21727027Y-52347027D01*
X21635512Y-52422131D01*
X21531105Y-52477938D01*
X21417818Y-52512304D01*
X21329519Y-52521000D01*
X20670481Y-52521000D01*
X20582182Y-52512304D01*
X20468895Y-52477938D01*
X20364488Y-52422131D01*
X20272973Y-52347027D01*
X20197869Y-52255512D01*
X20142062Y-52151105D01*
X20107696Y-52037818D01*
X20096093Y-51920000D01*
X20107696Y-51802182D01*
X20142062Y-51688895D01*
X20197869Y-51584488D01*
X20272973Y-51492973D01*
X20364488Y-51417869D01*
X20468895Y-51362062D01*
X20582182Y-51327696D01*
X20670481Y-51319000D01*
X21329519Y-51319000D01*
X21417818Y-51327696D01*
G37*
G36*
X25217818Y-51327696D02*
G01*
X25331105Y-51362062D01*
X25435512Y-51417869D01*
X25527027Y-51492973D01*
X25602131Y-51584488D01*
X25657938Y-51688895D01*
X25692304Y-51802182D01*
X25703907Y-51920000D01*
X25692304Y-52037818D01*
X25657938Y-52151105D01*
X25602131Y-52255512D01*
X25527027Y-52347027D01*
X25435512Y-52422131D01*
X25331105Y-52477938D01*
X25217818Y-52512304D01*
X25129519Y-52521000D01*
X24470481Y-52521000D01*
X24382182Y-52512304D01*
X24268895Y-52477938D01*
X24164488Y-52422131D01*
X24072973Y-52347027D01*
X23997869Y-52255512D01*
X23942062Y-52151105D01*
X23907696Y-52037818D01*
X23896093Y-51920000D01*
X23907696Y-51802182D01*
X23942062Y-51688895D01*
X23997869Y-51584488D01*
X24072973Y-51492973D01*
X24164488Y-51417869D01*
X24268895Y-51362062D01*
X24382182Y-51327696D01*
X24470481Y-51319000D01*
X25129519Y-51319000D01*
X25217818Y-51327696D01*
G37*
G36*
X25601000Y-50801000D02*
G01*
X24299000Y-50801000D01*
X24299000Y-49899000D01*
X25601000Y-49899000D01*
X25601000Y-50801000D01*
G37*
G36*
X52078048Y-48828122D02*
G01*
X52112387Y-48838539D01*
X52144036Y-48855456D01*
X52171778Y-48878222D01*
X52194544Y-48905964D01*
X52211461Y-48937613D01*
X52221878Y-48971952D01*
X52226000Y-49013807D01*
X52226000Y-50236193D01*
X52221878Y-50278048D01*
X52211461Y-50312387D01*
X52194544Y-50344036D01*
X52171778Y-50371778D01*
X52144036Y-50394544D01*
X52112387Y-50411461D01*
X52078048Y-50421878D01*
X52036193Y-50426000D01*
X49963807Y-50426000D01*
X49921952Y-50421878D01*
X49887613Y-50411461D01*
X49855964Y-50394544D01*
X49828222Y-50371778D01*
X49805456Y-50344036D01*
X49788539Y-50312387D01*
X49778122Y-50278048D01*
X49774000Y-50236193D01*
X49774000Y-49013807D01*
X49778122Y-48971952D01*
X49788539Y-48937613D01*
X49805456Y-48905964D01*
X49828222Y-48878222D01*
X49855964Y-48855456D01*
X49887613Y-48838539D01*
X49921952Y-48828122D01*
X49963807Y-48824000D01*
X52036193Y-48824000D01*
X52078048Y-48828122D01*
G37*
G36*
X46088674Y-48853465D02*
G01*
X46126367Y-48864899D01*
X46161103Y-48883466D01*
X46191548Y-48908452D01*
X46216534Y-48938897D01*
X46235101Y-48973633D01*
X46246535Y-49011326D01*
X46251000Y-49056661D01*
X46251000Y-50143339D01*
X46246535Y-50188674D01*
X46235101Y-50226367D01*
X46216534Y-50261103D01*
X46191548Y-50291548D01*
X46161103Y-50316534D01*
X46126367Y-50335101D01*
X46088674Y-50346535D01*
X46043339Y-50351000D01*
X45206661Y-50351000D01*
X45161326Y-50346535D01*
X45123633Y-50335101D01*
X45088897Y-50316534D01*
X45058452Y-50291548D01*
X45033466Y-50261103D01*
X45014899Y-50226367D01*
X45003465Y-50188674D01*
X44999000Y-50143339D01*
X44999000Y-49056661D01*
X45003465Y-49011326D01*
X45014899Y-48973633D01*
X45033466Y-48938897D01*
X45058452Y-48908452D01*
X45088897Y-48883466D01*
X45123633Y-48864899D01*
X45161326Y-48853465D01*
X45206661Y-48849000D01*
X46043339Y-48849000D01*
X46088674Y-48853465D01*
G37*
G36*
X54238674Y-48853465D02*
G01*
X54276367Y-48864899D01*
X54311103Y-48883466D01*
X54341548Y-48908452D01*
X54366534Y-48938897D01*
X54385101Y-48973633D01*
X54396535Y-49011326D01*
X54401000Y-49056661D01*
X54401000Y-50143339D01*
X54396535Y-50188674D01*
X54385101Y-50226367D01*
X54366534Y-50261103D01*
X54341548Y-50291548D01*
X54311103Y-50316534D01*
X54276367Y-50335101D01*
X54238674Y-50346535D01*
X54193339Y-50351000D01*
X53356661Y-50351000D01*
X53311326Y-50346535D01*
X53273633Y-50335101D01*
X53238897Y-50316534D01*
X53208452Y-50291548D01*
X53183466Y-50261103D01*
X53164899Y-50226367D01*
X53153465Y-50188674D01*
X53149000Y-50143339D01*
X53149000Y-49056661D01*
X53153465Y-49011326D01*
X53164899Y-48973633D01*
X53183466Y-48938897D01*
X53208452Y-48908452D01*
X53238897Y-48883466D01*
X53273633Y-48864899D01*
X53311326Y-48853465D01*
X53356661Y-48849000D01*
X54193339Y-48849000D01*
X54238674Y-48853465D01*
G37*
G36*
X56288674Y-48853465D02*
G01*
X56326367Y-48864899D01*
X56361103Y-48883466D01*
X56391548Y-48908452D01*
X56416534Y-48938897D01*
X56435101Y-48973633D01*
X56446535Y-49011326D01*
X56451000Y-49056661D01*
X56451000Y-50143339D01*
X56446535Y-50188674D01*
X56435101Y-50226367D01*
X56416534Y-50261103D01*
X56391548Y-50291548D01*
X56361103Y-50316534D01*
X56326367Y-50335101D01*
X56288674Y-50346535D01*
X56243339Y-50351000D01*
X55406661Y-50351000D01*
X55361326Y-50346535D01*
X55323633Y-50335101D01*
X55288897Y-50316534D01*
X55258452Y-50291548D01*
X55233466Y-50261103D01*
X55214899Y-50226367D01*
X55203465Y-50188674D01*
X55199000Y-50143339D01*
X55199000Y-49056661D01*
X55203465Y-49011326D01*
X55214899Y-48973633D01*
X55233466Y-48938897D01*
X55258452Y-48908452D01*
X55288897Y-48883466D01*
X55323633Y-48864899D01*
X55361326Y-48853465D01*
X55406661Y-48849000D01*
X56243339Y-48849000D01*
X56288674Y-48853465D01*
G37*
G36*
X44038674Y-48853465D02*
G01*
X44076367Y-48864899D01*
X44111103Y-48883466D01*
X44141548Y-48908452D01*
X44166534Y-48938897D01*
X44185101Y-48973633D01*
X44196535Y-49011326D01*
X44201000Y-49056661D01*
X44201000Y-50143339D01*
X44196535Y-50188674D01*
X44185101Y-50226367D01*
X44166534Y-50261103D01*
X44141548Y-50291548D01*
X44111103Y-50316534D01*
X44076367Y-50335101D01*
X44038674Y-50346535D01*
X43993339Y-50351000D01*
X43156661Y-50351000D01*
X43111326Y-50346535D01*
X43073633Y-50335101D01*
X43038897Y-50316534D01*
X43008452Y-50291548D01*
X42983466Y-50261103D01*
X42964899Y-50226367D01*
X42953465Y-50188674D01*
X42949000Y-50143339D01*
X42949000Y-49056661D01*
X42953465Y-49011326D01*
X42964899Y-48973633D01*
X42983466Y-48938897D01*
X43008452Y-48908452D01*
X43038897Y-48883466D01*
X43073633Y-48864899D01*
X43111326Y-48853465D01*
X43156661Y-48849000D01*
X43993339Y-48849000D01*
X44038674Y-48853465D01*
G37*
G36*
X25601000Y-49551000D02*
G01*
X24299000Y-49551000D01*
X24299000Y-45649000D01*
X25601000Y-45649000D01*
X25601000Y-49551000D01*
G37*
G36*
X66598254Y-45027818D02*
G01*
X66960234Y-45177755D01*
X66971513Y-45182427D01*
X67170567Y-45315431D01*
X67307436Y-45406884D01*
X67593116Y-45692564D01*
X67817574Y-46028489D01*
X67972182Y-46401746D01*
X68051000Y-46797993D01*
X68051000Y-47202007D01*
X67972182Y-47598254D01*
X67921267Y-47721173D01*
X67817573Y-47971513D01*
X67593116Y-48307436D01*
X67307436Y-48593116D01*
X66971513Y-48817573D01*
X66971512Y-48817574D01*
X66971511Y-48817574D01*
X66598254Y-48972182D01*
X66202007Y-49051000D01*
X65797993Y-49051000D01*
X65401746Y-48972182D01*
X65028489Y-48817574D01*
X65028488Y-48817574D01*
X65028487Y-48817573D01*
X64692564Y-48593116D01*
X64406884Y-48307436D01*
X64182427Y-47971513D01*
X64078733Y-47721173D01*
X64027818Y-47598254D01*
X63949000Y-47202007D01*
X63949000Y-46797993D01*
X64027818Y-46401746D01*
X64182426Y-46028489D01*
X64406884Y-45692564D01*
X64692564Y-45406884D01*
X64829433Y-45315431D01*
X65028487Y-45182427D01*
X65039766Y-45177755D01*
X65401746Y-45027818D01*
X65797993Y-44949000D01*
X66202007Y-44949000D01*
X66598254Y-45027818D01*
G37*
G36*
X31088674Y-47453465D02*
G01*
X31126367Y-47464899D01*
X31161103Y-47483466D01*
X31191548Y-47508452D01*
X31216534Y-47538897D01*
X31235101Y-47573633D01*
X31246535Y-47611326D01*
X31251000Y-47656661D01*
X31251000Y-48743339D01*
X31246535Y-48788674D01*
X31235101Y-48826367D01*
X31216534Y-48861103D01*
X31191548Y-48891548D01*
X31161103Y-48916534D01*
X31126367Y-48935101D01*
X31088674Y-48946535D01*
X31043339Y-48951000D01*
X30206661Y-48951000D01*
X30161326Y-48946535D01*
X30123633Y-48935101D01*
X30088897Y-48916534D01*
X30058452Y-48891548D01*
X30033466Y-48861103D01*
X30014899Y-48826367D01*
X30003465Y-48788674D01*
X29999000Y-48743339D01*
X29999000Y-47656661D01*
X30003465Y-47611326D01*
X30014899Y-47573633D01*
X30033466Y-47538897D01*
X30058452Y-47508452D01*
X30088897Y-47483466D01*
X30123633Y-47464899D01*
X30161326Y-47453465D01*
X30206661Y-47449000D01*
X31043339Y-47449000D01*
X31088674Y-47453465D01*
G37*
G36*
X29038674Y-47453465D02*
G01*
X29076367Y-47464899D01*
X29111103Y-47483466D01*
X29141548Y-47508452D01*
X29166534Y-47538897D01*
X29185101Y-47573633D01*
X29196535Y-47611326D01*
X29201000Y-47656661D01*
X29201000Y-48743339D01*
X29196535Y-48788674D01*
X29185101Y-48826367D01*
X29166534Y-48861103D01*
X29141548Y-48891548D01*
X29111103Y-48916534D01*
X29076367Y-48935101D01*
X29038674Y-48946535D01*
X28993339Y-48951000D01*
X28156661Y-48951000D01*
X28111326Y-48946535D01*
X28073633Y-48935101D01*
X28038897Y-48916534D01*
X28008452Y-48891548D01*
X27983466Y-48861103D01*
X27964899Y-48826367D01*
X27953465Y-48788674D01*
X27949000Y-48743339D01*
X27949000Y-47656661D01*
X27953465Y-47611326D01*
X27964899Y-47573633D01*
X27983466Y-47538897D01*
X28008452Y-47508452D01*
X28038897Y-47483466D01*
X28073633Y-47464899D01*
X28111326Y-47453465D01*
X28156661Y-47449000D01*
X28993339Y-47449000D01*
X29038674Y-47453465D01*
G37*
G36*
X58584468Y-47303565D02*
G01*
X58623138Y-47315296D01*
X58658777Y-47334346D01*
X58690017Y-47359983D01*
X58715654Y-47391223D01*
X58734704Y-47426862D01*
X58746435Y-47465532D01*
X58751000Y-47511888D01*
X58751000Y-48163112D01*
X58746435Y-48209468D01*
X58734704Y-48248138D01*
X58715654Y-48283777D01*
X58690017Y-48315017D01*
X58658777Y-48340654D01*
X58623138Y-48359704D01*
X58584468Y-48371435D01*
X58538112Y-48376000D01*
X57461888Y-48376000D01*
X57415532Y-48371435D01*
X57376862Y-48359704D01*
X57341223Y-48340654D01*
X57309983Y-48315017D01*
X57284346Y-48283777D01*
X57265296Y-48248138D01*
X57253565Y-48209468D01*
X57249000Y-48163112D01*
X57249000Y-47511888D01*
X57253565Y-47465532D01*
X57265296Y-47426862D01*
X57284346Y-47391223D01*
X57309983Y-47359983D01*
X57341223Y-47334346D01*
X57376862Y-47315296D01*
X57415532Y-47303565D01*
X57461888Y-47299000D01*
X58538112Y-47299000D01*
X58584468Y-47303565D01*
G37*
G36*
X40238674Y-46853465D02*
G01*
X40276367Y-46864899D01*
X40311103Y-46883466D01*
X40341548Y-46908452D01*
X40366534Y-46938897D01*
X40385101Y-46973633D01*
X40396535Y-47011326D01*
X40401000Y-47056661D01*
X40401000Y-48143339D01*
X40396535Y-48188674D01*
X40385101Y-48226367D01*
X40366534Y-48261103D01*
X40341548Y-48291548D01*
X40311103Y-48316534D01*
X40276367Y-48335101D01*
X40238674Y-48346535D01*
X40193339Y-48351000D01*
X39356661Y-48351000D01*
X39311326Y-48346535D01*
X39273633Y-48335101D01*
X39238897Y-48316534D01*
X39208452Y-48291548D01*
X39183466Y-48261103D01*
X39164899Y-48226367D01*
X39153465Y-48188674D01*
X39149000Y-48143339D01*
X39149000Y-47056661D01*
X39153465Y-47011326D01*
X39164899Y-46973633D01*
X39183466Y-46938897D01*
X39208452Y-46908452D01*
X39238897Y-46883466D01*
X39273633Y-46864899D01*
X39311326Y-46853465D01*
X39356661Y-46849000D01*
X40193339Y-46849000D01*
X40238674Y-46853465D01*
G37*
G36*
X44038674Y-46853465D02*
G01*
X44076367Y-46864899D01*
X44111103Y-46883466D01*
X44141548Y-46908452D01*
X44166534Y-46938897D01*
X44185101Y-46973633D01*
X44196535Y-47011326D01*
X44201000Y-47056661D01*
X44201000Y-48143339D01*
X44196535Y-48188674D01*
X44185101Y-48226367D01*
X44166534Y-48261103D01*
X44141548Y-48291548D01*
X44111103Y-48316534D01*
X44076367Y-48335101D01*
X44038674Y-48346535D01*
X43993339Y-48351000D01*
X43156661Y-48351000D01*
X43111326Y-48346535D01*
X43073633Y-48335101D01*
X43038897Y-48316534D01*
X43008452Y-48291548D01*
X42983466Y-48261103D01*
X42964899Y-48226367D01*
X42953465Y-48188674D01*
X42949000Y-48143339D01*
X42949000Y-47056661D01*
X42953465Y-47011326D01*
X42964899Y-46973633D01*
X42983466Y-46938897D01*
X43008452Y-46908452D01*
X43038897Y-46883466D01*
X43073633Y-46864899D01*
X43111326Y-46853465D01*
X43156661Y-46849000D01*
X43993339Y-46849000D01*
X44038674Y-46853465D01*
G37*
G36*
X42288674Y-46853465D02*
G01*
X42326367Y-46864899D01*
X42361103Y-46883466D01*
X42391548Y-46908452D01*
X42416534Y-46938897D01*
X42435101Y-46973633D01*
X42446535Y-47011326D01*
X42451000Y-47056661D01*
X42451000Y-48143339D01*
X42446535Y-48188674D01*
X42435101Y-48226367D01*
X42416534Y-48261103D01*
X42391548Y-48291548D01*
X42361103Y-48316534D01*
X42326367Y-48335101D01*
X42288674Y-48346535D01*
X42243339Y-48351000D01*
X41406661Y-48351000D01*
X41361326Y-48346535D01*
X41323633Y-48335101D01*
X41288897Y-48316534D01*
X41258452Y-48291548D01*
X41233466Y-48261103D01*
X41214899Y-48226367D01*
X41203465Y-48188674D01*
X41199000Y-48143339D01*
X41199000Y-47056661D01*
X41203465Y-47011326D01*
X41214899Y-46973633D01*
X41233466Y-46938897D01*
X41258452Y-46908452D01*
X41288897Y-46883466D01*
X41323633Y-46864899D01*
X41361326Y-46853465D01*
X41406661Y-46849000D01*
X42243339Y-46849000D01*
X42288674Y-46853465D01*
G37*
G36*
X46088674Y-46853465D02*
G01*
X46126367Y-46864899D01*
X46161103Y-46883466D01*
X46191548Y-46908452D01*
X46216534Y-46938897D01*
X46235101Y-46973633D01*
X46246535Y-47011326D01*
X46251000Y-47056661D01*
X46251000Y-48143339D01*
X46246535Y-48188674D01*
X46235101Y-48226367D01*
X46216534Y-48261103D01*
X46191548Y-48291548D01*
X46161103Y-48316534D01*
X46126367Y-48335101D01*
X46088674Y-48346535D01*
X46043339Y-48351000D01*
X45206661Y-48351000D01*
X45161326Y-48346535D01*
X45123633Y-48335101D01*
X45088897Y-48316534D01*
X45058452Y-48291548D01*
X45033466Y-48261103D01*
X45014899Y-48226367D01*
X45003465Y-48188674D01*
X44999000Y-48143339D01*
X44999000Y-47056661D01*
X45003465Y-47011326D01*
X45014899Y-46973633D01*
X45033466Y-46938897D01*
X45058452Y-46908452D01*
X45088897Y-46883466D01*
X45123633Y-46864899D01*
X45161326Y-46853465D01*
X45206661Y-46849000D01*
X46043339Y-46849000D01*
X46088674Y-46853465D01*
G37*
G36*
X52078048Y-45578122D02*
G01*
X52112387Y-45588539D01*
X52144036Y-45605456D01*
X52171778Y-45628222D01*
X52194544Y-45655964D01*
X52211461Y-45687613D01*
X52221878Y-45721952D01*
X52226000Y-45763807D01*
X52226000Y-46986193D01*
X52221878Y-47028048D01*
X52211461Y-47062387D01*
X52194544Y-47094036D01*
X52171778Y-47121778D01*
X52144036Y-47144544D01*
X52112387Y-47161461D01*
X52078048Y-47171878D01*
X52036193Y-47176000D01*
X49963807Y-47176000D01*
X49921952Y-47171878D01*
X49887613Y-47161461D01*
X49855964Y-47144544D01*
X49828222Y-47121778D01*
X49805456Y-47094036D01*
X49788539Y-47062387D01*
X49778122Y-47028048D01*
X49774000Y-46986193D01*
X49774000Y-45763807D01*
X49778122Y-45721952D01*
X49788539Y-45687613D01*
X49805456Y-45655964D01*
X49828222Y-45628222D01*
X49855964Y-45605456D01*
X49887613Y-45588539D01*
X49921952Y-45578122D01*
X49963807Y-45574000D01*
X52036193Y-45574000D01*
X52078048Y-45578122D01*
G37*
G36*
X29038674Y-45453465D02*
G01*
X29076367Y-45464899D01*
X29111103Y-45483466D01*
X29141548Y-45508452D01*
X29166534Y-45538897D01*
X29185101Y-45573633D01*
X29196535Y-45611326D01*
X29201000Y-45656661D01*
X29201000Y-46743339D01*
X29196535Y-46788674D01*
X29185101Y-46826367D01*
X29166534Y-46861103D01*
X29141548Y-46891548D01*
X29111103Y-46916534D01*
X29076367Y-46935101D01*
X29038674Y-46946535D01*
X28993339Y-46951000D01*
X28156661Y-46951000D01*
X28111326Y-46946535D01*
X28073633Y-46935101D01*
X28038897Y-46916534D01*
X28008452Y-46891548D01*
X27983466Y-46861103D01*
X27964899Y-46826367D01*
X27953465Y-46788674D01*
X27949000Y-46743339D01*
X27949000Y-45656661D01*
X27953465Y-45611326D01*
X27964899Y-45573633D01*
X27983466Y-45538897D01*
X28008452Y-45508452D01*
X28038897Y-45483466D01*
X28073633Y-45464899D01*
X28111326Y-45453465D01*
X28156661Y-45449000D01*
X28993339Y-45449000D01*
X29038674Y-45453465D01*
G37*
G36*
X31088674Y-45453465D02*
G01*
X31126367Y-45464899D01*
X31161103Y-45483466D01*
X31191548Y-45508452D01*
X31216534Y-45538897D01*
X31235101Y-45573633D01*
X31246535Y-45611326D01*
X31251000Y-45656661D01*
X31251000Y-46743339D01*
X31246535Y-46788674D01*
X31235101Y-46826367D01*
X31216534Y-46861103D01*
X31191548Y-46891548D01*
X31161103Y-46916534D01*
X31126367Y-46935101D01*
X31088674Y-46946535D01*
X31043339Y-46951000D01*
X30206661Y-46951000D01*
X30161326Y-46946535D01*
X30123633Y-46935101D01*
X30088897Y-46916534D01*
X30058452Y-46891548D01*
X30033466Y-46861103D01*
X30014899Y-46826367D01*
X30003465Y-46788674D01*
X29999000Y-46743339D01*
X29999000Y-45656661D01*
X30003465Y-45611326D01*
X30014899Y-45573633D01*
X30033466Y-45538897D01*
X30058452Y-45508452D01*
X30088897Y-45483466D01*
X30123633Y-45464899D01*
X30161326Y-45453465D01*
X30206661Y-45449000D01*
X31043339Y-45449000D01*
X31088674Y-45453465D01*
G37*
G36*
X34272798Y-45103247D02*
G01*
X34308367Y-45114037D01*
X34341139Y-45131554D01*
X34369869Y-45155131D01*
X34393446Y-45183861D01*
X34410963Y-45216633D01*
X34421753Y-45252202D01*
X34426000Y-45295325D01*
X34426000Y-46579675D01*
X34421753Y-46622798D01*
X34410963Y-46658367D01*
X34393446Y-46691139D01*
X34369869Y-46719869D01*
X34341139Y-46743446D01*
X34308367Y-46760963D01*
X34272798Y-46771753D01*
X34229675Y-46776000D01*
X33170325Y-46776000D01*
X33127202Y-46771753D01*
X33091633Y-46760963D01*
X33058861Y-46743446D01*
X33030131Y-46719869D01*
X33006554Y-46691139D01*
X32989037Y-46658367D01*
X32978247Y-46622798D01*
X32974000Y-46579675D01*
X32974000Y-45295325D01*
X32978247Y-45252202D01*
X32989037Y-45216633D01*
X33006554Y-45183861D01*
X33030131Y-45155131D01*
X33058861Y-45131554D01*
X33091633Y-45114037D01*
X33127202Y-45103247D01*
X33170325Y-45099000D01*
X34229675Y-45099000D01*
X34272798Y-45103247D01*
G37*
G36*
X58584468Y-45428565D02*
G01*
X58623138Y-45440296D01*
X58658777Y-45459346D01*
X58690017Y-45484983D01*
X58715654Y-45516223D01*
X58734704Y-45551862D01*
X58746435Y-45590532D01*
X58751000Y-45636888D01*
X58751000Y-46288112D01*
X58746435Y-46334468D01*
X58734704Y-46373138D01*
X58715654Y-46408777D01*
X58690017Y-46440017D01*
X58658777Y-46465654D01*
X58623138Y-46484704D01*
X58584468Y-46496435D01*
X58538112Y-46501000D01*
X57461888Y-46501000D01*
X57415532Y-46496435D01*
X57376862Y-46484704D01*
X57341223Y-46465654D01*
X57309983Y-46440017D01*
X57284346Y-46408777D01*
X57265296Y-46373138D01*
X57253565Y-46334468D01*
X57249000Y-46288112D01*
X57249000Y-45636888D01*
X57253565Y-45590532D01*
X57265296Y-45551862D01*
X57284346Y-45516223D01*
X57309983Y-45484983D01*
X57341223Y-45459346D01*
X57376862Y-45440296D01*
X57415532Y-45428565D01*
X57461888Y-45424000D01*
X58538112Y-45424000D01*
X58584468Y-45428565D01*
G37*
G36*
X40088674Y-44503465D02*
G01*
X40126367Y-44514899D01*
X40161103Y-44533466D01*
X40191548Y-44558452D01*
X40216534Y-44588897D01*
X40235101Y-44623633D01*
X40246535Y-44661326D01*
X40251000Y-44706661D01*
X40251000Y-45543339D01*
X40246535Y-45588674D01*
X40235101Y-45626367D01*
X40216534Y-45661103D01*
X40191548Y-45691548D01*
X40161103Y-45716534D01*
X40126367Y-45735101D01*
X40088674Y-45746535D01*
X40043339Y-45751000D01*
X38956661Y-45751000D01*
X38911326Y-45746535D01*
X38873633Y-45735101D01*
X38838897Y-45716534D01*
X38808452Y-45691548D01*
X38783466Y-45661103D01*
X38764899Y-45626367D01*
X38753465Y-45588674D01*
X38749000Y-45543339D01*
X38749000Y-44706661D01*
X38753465Y-44661326D01*
X38764899Y-44623633D01*
X38783466Y-44588897D01*
X38808452Y-44558452D01*
X38838897Y-44533466D01*
X38873633Y-44514899D01*
X38911326Y-44503465D01*
X38956661Y-44499000D01*
X40043339Y-44499000D01*
X40088674Y-44503465D01*
G37*
G36*
X44147000Y-45643000D02*
G01*
X43245000Y-45643000D01*
X43245000Y-44641000D01*
X44147000Y-44641000D01*
X44147000Y-45643000D01*
G37*
G36*
X42247000Y-45643000D02*
G01*
X41345000Y-45643000D01*
X41345000Y-44641000D01*
X42247000Y-44641000D01*
X42247000Y-45643000D01*
G37*
G36*
X62127423Y-41181661D02*
G01*
X62518879Y-41343807D01*
X62518881Y-41343808D01*
X62871183Y-41579209D01*
X63170791Y-41878817D01*
X63406192Y-42231119D01*
X63406193Y-42231121D01*
X63568339Y-42622577D01*
X63651000Y-43038144D01*
X63651000Y-43461856D01*
X63568339Y-43877423D01*
X63560713Y-43895833D01*
X63406192Y-44268881D01*
X63170791Y-44621183D01*
X62871183Y-44920791D01*
X62518881Y-45156192D01*
X62518880Y-45156193D01*
X62518879Y-45156193D01*
X62127423Y-45318339D01*
X61711856Y-45401000D01*
X61288144Y-45401000D01*
X60872577Y-45318339D01*
X60481121Y-45156193D01*
X60481120Y-45156193D01*
X60481119Y-45156192D01*
X60128817Y-44920791D01*
X59829209Y-44621183D01*
X59593808Y-44268881D01*
X59439287Y-43895833D01*
X59431661Y-43877423D01*
X59349000Y-43461856D01*
X59349000Y-43038144D01*
X59431661Y-42622577D01*
X59593807Y-42231121D01*
X59593808Y-42231119D01*
X59829209Y-41878817D01*
X60128817Y-41579209D01*
X60481119Y-41343808D01*
X60481121Y-41343807D01*
X60872577Y-41181661D01*
X61288144Y-41099000D01*
X61711856Y-41099000D01*
X62127423Y-41181661D01*
G37*
G36*
X25601000Y-45301000D02*
G01*
X24299000Y-45301000D01*
X24299000Y-44399000D01*
X25601000Y-44399000D01*
X25601000Y-45301000D01*
G37*
G36*
X34272798Y-42228247D02*
G01*
X34308367Y-42239037D01*
X34341139Y-42256554D01*
X34369869Y-42280131D01*
X34393446Y-42308861D01*
X34410963Y-42341633D01*
X34421753Y-42377202D01*
X34426000Y-42420325D01*
X34426000Y-43704675D01*
X34421753Y-43747798D01*
X34410963Y-43783367D01*
X34393446Y-43816139D01*
X34369869Y-43844869D01*
X34341139Y-43868446D01*
X34308367Y-43885963D01*
X34272798Y-43896753D01*
X34229675Y-43901000D01*
X33170325Y-43901000D01*
X33127202Y-43896753D01*
X33091633Y-43885963D01*
X33058861Y-43868446D01*
X33030131Y-43844869D01*
X33006554Y-43816139D01*
X32989037Y-43783367D01*
X32978247Y-43747798D01*
X32974000Y-43704675D01*
X32974000Y-42420325D01*
X32978247Y-42377202D01*
X32989037Y-42341633D01*
X33006554Y-42308861D01*
X33030131Y-42280131D01*
X33058861Y-42256554D01*
X33091633Y-42239037D01*
X33127202Y-42228247D01*
X33170325Y-42224000D01*
X34229675Y-42224000D01*
X34272798Y-42228247D01*
G37*
G36*
X21417818Y-42687696D02*
G01*
X21531105Y-42722062D01*
X21635512Y-42777869D01*
X21727027Y-42852973D01*
X21802131Y-42944488D01*
X21857938Y-43048895D01*
X21892304Y-43162182D01*
X21903907Y-43280000D01*
X21892304Y-43397818D01*
X21857938Y-43511105D01*
X21802131Y-43615512D01*
X21727027Y-43707027D01*
X21635512Y-43782131D01*
X21531105Y-43837938D01*
X21417818Y-43872304D01*
X21329519Y-43881000D01*
X20670481Y-43881000D01*
X20582182Y-43872304D01*
X20468895Y-43837938D01*
X20364488Y-43782131D01*
X20272973Y-43707027D01*
X20197869Y-43615512D01*
X20142062Y-43511105D01*
X20107696Y-43397818D01*
X20096093Y-43280000D01*
X20107696Y-43162182D01*
X20142062Y-43048895D01*
X20197869Y-42944488D01*
X20272973Y-42852973D01*
X20364488Y-42777869D01*
X20468895Y-42722062D01*
X20582182Y-42687696D01*
X20670481Y-42679000D01*
X21329519Y-42679000D01*
X21417818Y-42687696D01*
G37*
G36*
X25217818Y-42687696D02*
G01*
X25331105Y-42722062D01*
X25435512Y-42777869D01*
X25527027Y-42852973D01*
X25602131Y-42944488D01*
X25657938Y-43048895D01*
X25692304Y-43162182D01*
X25703907Y-43280000D01*
X25692304Y-43397818D01*
X25657938Y-43511105D01*
X25602131Y-43615512D01*
X25527027Y-43707027D01*
X25435512Y-43782131D01*
X25331105Y-43837938D01*
X25217818Y-43872304D01*
X25129519Y-43881000D01*
X24470481Y-43881000D01*
X24382182Y-43872304D01*
X24268895Y-43837938D01*
X24164488Y-43782131D01*
X24072973Y-43707027D01*
X23997869Y-43615512D01*
X23942062Y-43511105D01*
X23907696Y-43397818D01*
X23896093Y-43280000D01*
X23907696Y-43162182D01*
X23942062Y-43048895D01*
X23997869Y-42944488D01*
X24072973Y-42852973D01*
X24164488Y-42777869D01*
X24268895Y-42722062D01*
X24382182Y-42687696D01*
X24470481Y-42679000D01*
X25129519Y-42679000D01*
X25217818Y-42687696D01*
G37*
G36*
X30038674Y-42353465D02*
G01*
X30076367Y-42364899D01*
X30111103Y-42383466D01*
X30141548Y-42408452D01*
X30166534Y-42438897D01*
X30185101Y-42473633D01*
X30196535Y-42511326D01*
X30201000Y-42556661D01*
X30201000Y-43643339D01*
X30196535Y-43688674D01*
X30185101Y-43726367D01*
X30166534Y-43761103D01*
X30141548Y-43791548D01*
X30111103Y-43816534D01*
X30076367Y-43835101D01*
X30038674Y-43846535D01*
X29993339Y-43851000D01*
X29156661Y-43851000D01*
X29111326Y-43846535D01*
X29073633Y-43835101D01*
X29038897Y-43816534D01*
X29008452Y-43791548D01*
X28983466Y-43761103D01*
X28964899Y-43726367D01*
X28953465Y-43688674D01*
X28949000Y-43643339D01*
X28949000Y-42556661D01*
X28953465Y-42511326D01*
X28964899Y-42473633D01*
X28983466Y-42438897D01*
X29008452Y-42408452D01*
X29038897Y-42383466D01*
X29073633Y-42364899D01*
X29111326Y-42353465D01*
X29156661Y-42349000D01*
X29993339Y-42349000D01*
X30038674Y-42353465D01*
G37*
G36*
X32088674Y-42353465D02*
G01*
X32126367Y-42364899D01*
X32161103Y-42383466D01*
X32191548Y-42408452D01*
X32216534Y-42438897D01*
X32235101Y-42473633D01*
X32246535Y-42511326D01*
X32251000Y-42556661D01*
X32251000Y-43643339D01*
X32246535Y-43688674D01*
X32235101Y-43726367D01*
X32216534Y-43761103D01*
X32191548Y-43791548D01*
X32161103Y-43816534D01*
X32126367Y-43835101D01*
X32088674Y-43846535D01*
X32043339Y-43851000D01*
X31206661Y-43851000D01*
X31161326Y-43846535D01*
X31123633Y-43835101D01*
X31088897Y-43816534D01*
X31058452Y-43791548D01*
X31033466Y-43761103D01*
X31014899Y-43726367D01*
X31003465Y-43688674D01*
X30999000Y-43643339D01*
X30999000Y-42556661D01*
X31003465Y-42511326D01*
X31014899Y-42473633D01*
X31033466Y-42438897D01*
X31058452Y-42408452D01*
X31088897Y-42383466D01*
X31123633Y-42364899D01*
X31161326Y-42353465D01*
X31206661Y-42349000D01*
X32043339Y-42349000D01*
X32088674Y-42353465D01*
G37*
G36*
X40088674Y-42453465D02*
G01*
X40126367Y-42464899D01*
X40161103Y-42483466D01*
X40191548Y-42508452D01*
X40216534Y-42538897D01*
X40235101Y-42573633D01*
X40246535Y-42611326D01*
X40251000Y-42656661D01*
X40251000Y-43493339D01*
X40246535Y-43538674D01*
X40235101Y-43576367D01*
X40216534Y-43611103D01*
X40191548Y-43641548D01*
X40161103Y-43666534D01*
X40126367Y-43685101D01*
X40088674Y-43696535D01*
X40043339Y-43701000D01*
X38956661Y-43701000D01*
X38911326Y-43696535D01*
X38873633Y-43685101D01*
X38838897Y-43666534D01*
X38808452Y-43641548D01*
X38783466Y-43611103D01*
X38764899Y-43576367D01*
X38753465Y-43538674D01*
X38749000Y-43493339D01*
X38749000Y-42656661D01*
X38753465Y-42611326D01*
X38764899Y-42573633D01*
X38783466Y-42538897D01*
X38808452Y-42508452D01*
X38838897Y-42483466D01*
X38873633Y-42464899D01*
X38911326Y-42453465D01*
X38956661Y-42449000D01*
X40043339Y-42449000D01*
X40088674Y-42453465D01*
G37*
G36*
X43197000Y-43643000D02*
G01*
X42295000Y-43643000D01*
X42295000Y-42641000D01*
X43197000Y-42641000D01*
X43197000Y-43643000D01*
G37*
G36*
X66379487Y-40948996D02*
G01*
X66616253Y-41047068D01*
X66616255Y-41047069D01*
X66693975Y-41099000D01*
X66829339Y-41189447D01*
X67010553Y-41370661D01*
X67152932Y-41583747D01*
X67251004Y-41820513D01*
X67301000Y-42071861D01*
X67301000Y-42328139D01*
X67251004Y-42579487D01*
X67191947Y-42722062D01*
X67152931Y-42816255D01*
X67010553Y-43029339D01*
X66829339Y-43210553D01*
X66616255Y-43352931D01*
X66616254Y-43352932D01*
X66616253Y-43352932D01*
X66379487Y-43451004D01*
X66128139Y-43501000D01*
X65871861Y-43501000D01*
X65620513Y-43451004D01*
X65383747Y-43352932D01*
X65383746Y-43352932D01*
X65383745Y-43352931D01*
X65170661Y-43210553D01*
X64989447Y-43029339D01*
X64847069Y-42816255D01*
X64808053Y-42722062D01*
X64748996Y-42579487D01*
X64699000Y-42328139D01*
X64699000Y-42071861D01*
X64748996Y-41820513D01*
X64847068Y-41583747D01*
X64989447Y-41370661D01*
X65170661Y-41189447D01*
X65306025Y-41099000D01*
X65383745Y-41047069D01*
X65383747Y-41047068D01*
X65620513Y-40948996D01*
X65871861Y-40899000D01*
X66128139Y-40899000D01*
X66379487Y-40948996D01*
G37*
M02*
