M48
; DRILL file {KiCad (5.1.5)-2} date 12/06/2020 06:49:47
; FORMAT={-:-/ absolute / inch / decimal}
; #@! TF.CreationDate,2020-06-12T06:49:47+12:00
; #@! TF.GenerationSoftware,Kicad,Pcbnew,(5.1.5)-2
; #@! TF.FileFunction,Plated,1,2,PTH
FMAT,2
INCH
T1C0.0157
T2C0.0236
T3C0.0394
T4C0.0472
T5C0.0512
T6C0.0787
T7C0.0906
T8C0.0984
T9C0.1260
T10C0.1417
%
G90
G05
T1
X0.8976Y-2.1496
X0.9567Y-2.2638
X1.0039Y-3.6929
X1.0118Y-3.9843
X1.0433Y-2.0039
X1.0945Y-3.1457
X1.0945Y-3.3346
X1.1063Y-1.6614
X1.1124Y-3.4864
X1.1299Y-2.878
X1.1299Y-3.9528
X1.1535Y-2.0433
X1.1732Y-1.752
X1.1772Y-4.1693
X1.2165Y-3.3307
X1.2441Y-4.0551
X1.2598Y-3.1772
X1.2677Y-2.2756
X1.2677Y-3.874
X1.2756Y-1.9094
X1.2795Y-3.5394
X1.2835Y-3.0354
X1.3031Y-3.4291
X1.3071Y-3.2598
X1.4252Y-1.7402
X1.4291Y-4.0197
X1.4331Y-1.6575
X1.4331Y-3.126
X1.4331Y-3.4094
X1.4331Y-4.1299
X1.437Y-2.063
X1.4449Y-4.2402
X1.4882Y-1.7874
X1.4882Y-2.2835
X1.4921Y-2.4606
X1.4961Y-1.8701
X1.5433Y-3.1417
X1.5906Y-2.8898
X1.6063Y-2.5906
X1.6063Y-3.0866
X1.6102Y-2.4488
X1.6142Y-3.5433
X1.6242Y-2.0963
X1.6299Y-3.374
X1.6457Y-2.1496
X1.6614Y-1.9567
X1.6654Y-2.9882
X1.6732Y-2.8071
X1.6772Y-2.689
X1.689Y-2.4055
X1.7126Y-4.1181
X1.7165Y-4.0118
X1.7205Y-2.2795
X1.7244Y-3.0394
X1.7402Y-2.5197
X1.7441Y-2.6339
X1.7485Y-2.0005
X1.7559Y-2.3425
X1.7559Y-4.2717
X1.7756Y-2.8661
X1.7913Y-2.4213
X1.7953Y-3.1063
X1.8031Y-2.5118
X1.8031Y-2.9488
X1.8228Y-2.1339
X1.8268Y-2.3465
X1.8583Y-3.0315
X1.8622Y-3.5709
X1.8661Y-2.6772
X1.8661Y-2.8346
X1.8819Y-2.0
X1.8858Y-3.1772
X1.8976Y-1.9094
X1.8976Y-2.1339
X1.9016Y-2.3937
X1.9055Y-2.3189
X1.9055Y-2.7402
X1.9291Y-1.7323
X1.937Y-2.2283
X1.937Y-3.0236
X1.9685Y-2.5276
X1.9685Y-2.6063
X1.9685Y-2.7402
X2.0Y-2.185
X2.0Y-2.9291
X2.0Y-3.0591
X2.0Y-3.1339
X2.0433Y-2.7323
X2.0472Y-2.4724
X2.0472Y-3.1693
X2.0709Y-4.0276
X2.0787Y-2.9685
X2.0787Y-3.0276
X2.0827Y-2.6496
X2.0984Y-1.7283
X2.1142Y-2.5512
X2.1142Y-3.0709
X2.122Y-2.9213
X2.122Y-3.2087
X2.1496Y-4.2205
X2.1575Y-2.2362
X2.1772Y-4.1339
X2.189Y-2.626
X2.2165Y-3.9449
X2.2205Y-2.937
X2.2638Y-2.2598
X2.2717Y-3.0118
X2.2992Y-3.1063
X2.311Y-2.6575
X2.3386Y-2.9567
X2.3465Y-4.2244
X2.3622Y-3.7402
X2.374Y-3.9724
X2.5039Y-3.7323
T3
X0.8685Y-2.7276
X0.8685Y-2.8177
X0.8685Y-2.9079
X0.8685Y-2.998
X0.8685Y-3.0882
X0.9685Y-2.7724
X0.9685Y-2.8626
X0.9685Y-2.9528
X0.9685Y-3.0429
X0.9685Y-3.1331
X1.0685Y-2.7276
X1.0685Y-2.8177
X1.0685Y-2.9079
X1.0685Y-2.998
X1.0685Y-3.0882
T5
X1.1575Y-2.5083
X1.1575Y-2.6583
X1.1575Y-2.8083
X1.1575Y-2.9583
X1.1575Y-3.1083
X1.1575Y-3.2583
X1.1575Y-3.4083
X1.1575Y-3.5583
X1.1575Y-3.7083
X1.1575Y-3.8583
X1.3575Y-2.4333
X1.3575Y-2.5833
X1.3575Y-2.7333
X1.3575Y-2.8833
X1.3575Y-3.0333
X1.3575Y-3.1833
X1.3575Y-3.3333
X1.3575Y-3.4833
X1.3575Y-3.6333
X1.3575Y-3.7833
X1.3575Y-3.9333
T6
X2.4331Y-2.1457
X2.4331Y-2.7362
T7
X2.7222Y-2.0262
X2.7222Y-2.8556
T8
X2.5984Y-1.6614
X2.5984Y-3.2205
T9
X0.9685Y-2.426
X0.9685Y-3.4102
T10
X1.0709Y-2.1654
X1.0709Y-4.2232
T2
G00X0.815Y-1.7039
M15
G01X0.8386Y-1.7039
M16
G05
G00X0.815Y-2.0441
M15
G01X0.8386Y-2.0441
M16
G05
G00X0.9646Y-1.7039
M15
G01X0.9882Y-1.7039
M16
G05
G00X0.9646Y-2.0441
M15
G01X0.9882Y-2.0441
M16
G05
T3
G00X2.439Y-4.0795
M15
G01X2.3799Y-4.0795
M16
G05
G00X2.439Y-3.5669
M15
G01X2.3799Y-3.5669
M16
G05
T4
G00X2.3858Y-1.7028
M15
G01X2.4567Y-1.7028
M16
G05
G00X2.3858Y-1.998
M15
G01X2.4567Y-1.998
M16
G05
G00X2.3858Y-2.2933
M15
G01X2.4567Y-2.2933
M16
G05
G00X2.3858Y-2.5886
M15
G01X2.4567Y-2.5886
M16
G05
G00X2.3858Y-2.8839
M15
G01X2.4567Y-2.8839
M16
G05
G00X2.3858Y-3.1791
M15
G01X2.4567Y-3.1791
M16
G05
G00X2.5984Y-1.8823
M15
G01X2.5984Y-1.8185
M16
G05
G00X2.5984Y-2.4728
M15
G01X2.5984Y-2.4091
M16
G05
G00X2.5984Y-3.0634
M15
G01X2.5984Y-2.9996
M16
G05
T5
G00X2.5866Y-3.5433
M15
G01X2.5866Y-3.5906
M16
G05
G00X2.5866Y-4.0559
M15
G01X2.5866Y-4.1031
M16
G05
T0
M30
