%TF.GenerationSoftware,KiCad,Pcbnew,(5.1.5)-2*%
%TF.CreationDate,2020-03-16T23:46:07+13:00*%
%TF.ProjectId,RGB-to-component,5247422d-746f-42d6-936f-6d706f6e656e,rev?*%
%TF.SameCoordinates,Original*%
%TF.FileFunction,Legend,Top*%
%TF.FilePolarity,Positive*%
%FSLAX46Y46*%
G04 Gerber Fmt 4.6, Leading zero omitted, Abs format (unit mm)*
G04 Created by KiCad (PCBNEW (5.1.5)-2) date 2020-03-16 23:46:07*
%MOMM*%
%LPD*%
G04 APERTURE LIST*
%ADD10C,0.200000*%
%ADD11C,0.150000*%
%ADD12C,0.120000*%
%ADD13C,0.010000*%
G04 APERTURE END LIST*
D10*
X46427142Y-103128571D02*
X45993809Y-102414285D01*
X45684285Y-103128571D02*
X45684285Y-101628571D01*
X46179523Y-101628571D01*
X46303333Y-101700000D01*
X46365238Y-101771428D01*
X46427142Y-101914285D01*
X46427142Y-102128571D01*
X46365238Y-102271428D01*
X46303333Y-102342857D01*
X46179523Y-102414285D01*
X45684285Y-102414285D01*
X47665238Y-101700000D02*
X47541428Y-101628571D01*
X47355714Y-101628571D01*
X47170000Y-101700000D01*
X47046190Y-101842857D01*
X46984285Y-101985714D01*
X46922380Y-102271428D01*
X46922380Y-102485714D01*
X46984285Y-102771428D01*
X47046190Y-102914285D01*
X47170000Y-103057142D01*
X47355714Y-103128571D01*
X47479523Y-103128571D01*
X47665238Y-103057142D01*
X47727142Y-102985714D01*
X47727142Y-102485714D01*
X47479523Y-102485714D01*
X48717619Y-102342857D02*
X48903333Y-102414285D01*
X48965238Y-102485714D01*
X49027142Y-102628571D01*
X49027142Y-102842857D01*
X48965238Y-102985714D01*
X48903333Y-103057142D01*
X48779523Y-103128571D01*
X48284285Y-103128571D01*
X48284285Y-101628571D01*
X48717619Y-101628571D01*
X48841428Y-101700000D01*
X48903333Y-101771428D01*
X48965238Y-101914285D01*
X48965238Y-102057142D01*
X48903333Y-102200000D01*
X48841428Y-102271428D01*
X48717619Y-102342857D01*
X48284285Y-102342857D01*
X50389047Y-102128571D02*
X50884285Y-102128571D01*
X50574761Y-101628571D02*
X50574761Y-102914285D01*
X50636666Y-103057142D01*
X50760476Y-103128571D01*
X50884285Y-103128571D01*
X51503333Y-103128571D02*
X51379523Y-103057142D01*
X51317619Y-102985714D01*
X51255714Y-102842857D01*
X51255714Y-102414285D01*
X51317619Y-102271428D01*
X51379523Y-102200000D01*
X51503333Y-102128571D01*
X51689047Y-102128571D01*
X51812857Y-102200000D01*
X51874761Y-102271428D01*
X51936666Y-102414285D01*
X51936666Y-102842857D01*
X51874761Y-102985714D01*
X51812857Y-103057142D01*
X51689047Y-103128571D01*
X51503333Y-103128571D01*
X53731904Y-102414285D02*
X53731904Y-103128571D01*
X53298571Y-101628571D02*
X53731904Y-102414285D01*
X54165238Y-101628571D01*
X54598571Y-103128571D02*
X54598571Y-101628571D01*
X55093809Y-101628571D01*
X55217619Y-101700000D01*
X55279523Y-101771428D01*
X55341428Y-101914285D01*
X55341428Y-102128571D01*
X55279523Y-102271428D01*
X55217619Y-102342857D01*
X55093809Y-102414285D01*
X54598571Y-102414285D01*
X55898571Y-103128571D02*
X55898571Y-101628571D01*
X55898571Y-102200000D02*
X56022380Y-102128571D01*
X56270000Y-102128571D01*
X56393809Y-102200000D01*
X56455714Y-102271428D01*
X56517619Y-102414285D01*
X56517619Y-102842857D01*
X56455714Y-102985714D01*
X56393809Y-103057142D01*
X56270000Y-103128571D01*
X56022380Y-103128571D01*
X55898571Y-103057142D01*
X57074761Y-103128571D02*
X57074761Y-101628571D01*
X57570000Y-101628571D01*
X57693809Y-101700000D01*
X57755714Y-101771428D01*
X57817619Y-101914285D01*
X57817619Y-102128571D01*
X57755714Y-102271428D01*
X57693809Y-102342857D01*
X57570000Y-102414285D01*
X57074761Y-102414285D01*
X58374761Y-103128571D02*
X58374761Y-102128571D01*
X58374761Y-102414285D02*
X58436666Y-102271428D01*
X58498571Y-102200000D01*
X58622380Y-102128571D01*
X58746190Y-102128571D01*
X38008095Y-104221428D02*
X38070000Y-104150000D01*
X38193809Y-104078571D01*
X38503333Y-104078571D01*
X38627142Y-104150000D01*
X38689047Y-104221428D01*
X38750952Y-104364285D01*
X38750952Y-104507142D01*
X38689047Y-104721428D01*
X37946190Y-105578571D01*
X38750952Y-105578571D01*
X39555714Y-104078571D02*
X39679523Y-104078571D01*
X39803333Y-104150000D01*
X39865238Y-104221428D01*
X39927142Y-104364285D01*
X39989047Y-104650000D01*
X39989047Y-105007142D01*
X39927142Y-105292857D01*
X39865238Y-105435714D01*
X39803333Y-105507142D01*
X39679523Y-105578571D01*
X39555714Y-105578571D01*
X39431904Y-105507142D01*
X39370000Y-105435714D01*
X39308095Y-105292857D01*
X39246190Y-105007142D01*
X39246190Y-104650000D01*
X39308095Y-104364285D01*
X39370000Y-104221428D01*
X39431904Y-104150000D01*
X39555714Y-104078571D01*
X40484285Y-104221428D02*
X40546190Y-104150000D01*
X40670000Y-104078571D01*
X40979523Y-104078571D01*
X41103333Y-104150000D01*
X41165238Y-104221428D01*
X41227142Y-104364285D01*
X41227142Y-104507142D01*
X41165238Y-104721428D01*
X40422380Y-105578571D01*
X41227142Y-105578571D01*
X42031904Y-104078571D02*
X42155714Y-104078571D01*
X42279523Y-104150000D01*
X42341428Y-104221428D01*
X42403333Y-104364285D01*
X42465238Y-104650000D01*
X42465238Y-105007142D01*
X42403333Y-105292857D01*
X42341428Y-105435714D01*
X42279523Y-105507142D01*
X42155714Y-105578571D01*
X42031904Y-105578571D01*
X41908095Y-105507142D01*
X41846190Y-105435714D01*
X41784285Y-105292857D01*
X41722380Y-105007142D01*
X41722380Y-104650000D01*
X41784285Y-104364285D01*
X41846190Y-104221428D01*
X41908095Y-104150000D01*
X42031904Y-104078571D01*
X43022380Y-105007142D02*
X44012857Y-105007142D01*
X44879523Y-104078571D02*
X45003333Y-104078571D01*
X45127142Y-104150000D01*
X45189047Y-104221428D01*
X45250952Y-104364285D01*
X45312857Y-104650000D01*
X45312857Y-105007142D01*
X45250952Y-105292857D01*
X45189047Y-105435714D01*
X45127142Y-105507142D01*
X45003333Y-105578571D01*
X44879523Y-105578571D01*
X44755714Y-105507142D01*
X44693809Y-105435714D01*
X44631904Y-105292857D01*
X44570000Y-105007142D01*
X44570000Y-104650000D01*
X44631904Y-104364285D01*
X44693809Y-104221428D01*
X44755714Y-104150000D01*
X44879523Y-104078571D01*
X45746190Y-104078571D02*
X46550952Y-104078571D01*
X46117619Y-104650000D01*
X46303333Y-104650000D01*
X46427142Y-104721428D01*
X46489047Y-104792857D01*
X46550952Y-104935714D01*
X46550952Y-105292857D01*
X46489047Y-105435714D01*
X46427142Y-105507142D01*
X46303333Y-105578571D01*
X45931904Y-105578571D01*
X45808095Y-105507142D01*
X45746190Y-105435714D01*
X47108095Y-105007142D02*
X48098571Y-105007142D01*
X49398571Y-105578571D02*
X48655714Y-105578571D01*
X49027142Y-105578571D02*
X49027142Y-104078571D01*
X48903333Y-104292857D01*
X48779523Y-104435714D01*
X48655714Y-104507142D01*
X50512857Y-104078571D02*
X50265238Y-104078571D01*
X50141428Y-104150000D01*
X50079523Y-104221428D01*
X49955714Y-104435714D01*
X49893809Y-104721428D01*
X49893809Y-105292857D01*
X49955714Y-105435714D01*
X50017619Y-105507142D01*
X50141428Y-105578571D01*
X50389047Y-105578571D01*
X50512857Y-105507142D01*
X50574761Y-105435714D01*
X50636666Y-105292857D01*
X50636666Y-104935714D01*
X50574761Y-104792857D01*
X50512857Y-104721428D01*
X50389047Y-104650000D01*
X50141428Y-104650000D01*
X50017619Y-104721428D01*
X49955714Y-104792857D01*
X49893809Y-104935714D01*
X52184285Y-105578571D02*
X52184285Y-104578571D01*
X52184285Y-104864285D02*
X52246190Y-104721428D01*
X52308095Y-104650000D01*
X52431904Y-104578571D01*
X52555714Y-104578571D01*
X53484285Y-105507142D02*
X53360476Y-105578571D01*
X53112857Y-105578571D01*
X52989047Y-105507142D01*
X52927142Y-105364285D01*
X52927142Y-104792857D01*
X52989047Y-104650000D01*
X53112857Y-104578571D01*
X53360476Y-104578571D01*
X53484285Y-104650000D01*
X53546190Y-104792857D01*
X53546190Y-104935714D01*
X52927142Y-105078571D01*
X53979523Y-104578571D02*
X54289047Y-105578571D01*
X54598571Y-104578571D01*
X56022380Y-104221428D02*
X56084285Y-104150000D01*
X56208095Y-104078571D01*
X56517619Y-104078571D01*
X56641428Y-104150000D01*
X56703333Y-104221428D01*
X56765238Y-104364285D01*
X56765238Y-104507142D01*
X56703333Y-104721428D01*
X55960476Y-105578571D01*
X56765238Y-105578571D01*
X57322380Y-105435714D02*
X57384285Y-105507142D01*
X57322380Y-105578571D01*
X57260476Y-105507142D01*
X57322380Y-105435714D01*
X57322380Y-105578571D01*
X57879523Y-104221428D02*
X57941428Y-104150000D01*
X58065238Y-104078571D01*
X58374761Y-104078571D01*
X58498571Y-104150000D01*
X58560476Y-104221428D01*
X58622380Y-104364285D01*
X58622380Y-104507142D01*
X58560476Y-104721428D01*
X57817619Y-105578571D01*
X58622380Y-105578571D01*
X42217619Y-107028571D02*
X42465238Y-108028571D01*
X42712857Y-107314285D01*
X42960476Y-108028571D01*
X43208095Y-107028571D01*
X44260476Y-108028571D02*
X44260476Y-107242857D01*
X44198571Y-107100000D01*
X44074761Y-107028571D01*
X43827142Y-107028571D01*
X43703333Y-107100000D01*
X44260476Y-107957142D02*
X44136666Y-108028571D01*
X43827142Y-108028571D01*
X43703333Y-107957142D01*
X43641428Y-107814285D01*
X43641428Y-107671428D01*
X43703333Y-107528571D01*
X43827142Y-107457142D01*
X44136666Y-107457142D01*
X44260476Y-107385714D01*
X44879523Y-108028571D02*
X44879523Y-106528571D01*
X45003333Y-107457142D02*
X45374761Y-108028571D01*
X45374761Y-107028571D02*
X44879523Y-107600000D01*
X46489047Y-108028571D02*
X46489047Y-107242857D01*
X46427142Y-107100000D01*
X46303333Y-107028571D01*
X46055714Y-107028571D01*
X45931904Y-107100000D01*
X46489047Y-107957142D02*
X46365238Y-108028571D01*
X46055714Y-108028571D01*
X45931904Y-107957142D01*
X45870000Y-107814285D01*
X45870000Y-107671428D01*
X45931904Y-107528571D01*
X46055714Y-107457142D01*
X46365238Y-107457142D01*
X46489047Y-107385714D01*
X47108095Y-108028571D02*
X47108095Y-106528571D01*
X47108095Y-107100000D02*
X47231904Y-107028571D01*
X47479523Y-107028571D01*
X47603333Y-107100000D01*
X47665238Y-107171428D01*
X47727142Y-107314285D01*
X47727142Y-107742857D01*
X47665238Y-107885714D01*
X47603333Y-107957142D01*
X47479523Y-108028571D01*
X47231904Y-108028571D01*
X47108095Y-107957142D01*
X48841428Y-108028571D02*
X48841428Y-107242857D01*
X48779523Y-107100000D01*
X48655714Y-107028571D01*
X48408095Y-107028571D01*
X48284285Y-107100000D01*
X48841428Y-107957142D02*
X48717619Y-108028571D01*
X48408095Y-108028571D01*
X48284285Y-107957142D01*
X48222380Y-107814285D01*
X48222380Y-107671428D01*
X48284285Y-107528571D01*
X48408095Y-107457142D01*
X48717619Y-107457142D01*
X48841428Y-107385714D01*
X49336666Y-107028571D02*
X49646190Y-108028571D01*
X49955714Y-107028571D01*
X50450952Y-108028571D02*
X50450952Y-107028571D01*
X50450952Y-106528571D02*
X50389047Y-106600000D01*
X50450952Y-106671428D01*
X50512857Y-106600000D01*
X50450952Y-106528571D01*
X50450952Y-106671428D01*
X51627142Y-108028571D02*
X51627142Y-106528571D01*
X51627142Y-107957142D02*
X51503333Y-108028571D01*
X51255714Y-108028571D01*
X51131904Y-107957142D01*
X51070000Y-107885714D01*
X51008095Y-107742857D01*
X51008095Y-107314285D01*
X51070000Y-107171428D01*
X51131904Y-107100000D01*
X51255714Y-107028571D01*
X51503333Y-107028571D01*
X51627142Y-107100000D01*
X52741428Y-107957142D02*
X52617619Y-108028571D01*
X52370000Y-108028571D01*
X52246190Y-107957142D01*
X52184285Y-107814285D01*
X52184285Y-107242857D01*
X52246190Y-107100000D01*
X52370000Y-107028571D01*
X52617619Y-107028571D01*
X52741428Y-107100000D01*
X52803333Y-107242857D01*
X52803333Y-107385714D01*
X52184285Y-107528571D01*
X53546190Y-108028571D02*
X53422380Y-107957142D01*
X53360476Y-107885714D01*
X53298571Y-107742857D01*
X53298571Y-107314285D01*
X53360476Y-107171428D01*
X53422380Y-107100000D01*
X53546190Y-107028571D01*
X53731904Y-107028571D01*
X53855714Y-107100000D01*
X53917619Y-107171428D01*
X53979523Y-107314285D01*
X53979523Y-107742857D01*
X53917619Y-107885714D01*
X53855714Y-107957142D01*
X53731904Y-108028571D01*
X53546190Y-108028571D01*
X54536666Y-107885714D02*
X54598571Y-107957142D01*
X54536666Y-108028571D01*
X54474761Y-107957142D01*
X54536666Y-107885714D01*
X54536666Y-108028571D01*
X55712857Y-107957142D02*
X55589047Y-108028571D01*
X55341428Y-108028571D01*
X55217619Y-107957142D01*
X55155714Y-107885714D01*
X55093809Y-107742857D01*
X55093809Y-107314285D01*
X55155714Y-107171428D01*
X55217619Y-107100000D01*
X55341428Y-107028571D01*
X55589047Y-107028571D01*
X55712857Y-107100000D01*
X56455714Y-108028571D02*
X56331904Y-107957142D01*
X56270000Y-107885714D01*
X56208095Y-107742857D01*
X56208095Y-107314285D01*
X56270000Y-107171428D01*
X56331904Y-107100000D01*
X56455714Y-107028571D01*
X56641428Y-107028571D01*
X56765238Y-107100000D01*
X56827142Y-107171428D01*
X56889047Y-107314285D01*
X56889047Y-107742857D01*
X56827142Y-107885714D01*
X56765238Y-107957142D01*
X56641428Y-108028571D01*
X56455714Y-108028571D01*
X57446190Y-108028571D02*
X57446190Y-107028571D01*
X57446190Y-107171428D02*
X57508095Y-107100000D01*
X57631904Y-107028571D01*
X57817619Y-107028571D01*
X57941428Y-107100000D01*
X58003333Y-107242857D01*
X58003333Y-108028571D01*
X58003333Y-107242857D02*
X58065238Y-107100000D01*
X58189047Y-107028571D01*
X58374761Y-107028571D01*
X58498571Y-107100000D01*
X58560476Y-107242857D01*
X58560476Y-108028571D01*
D11*
X43225000Y-86550000D02*
X42000000Y-86550000D01*
X43225000Y-89675000D02*
X46575000Y-89675000D01*
X43225000Y-86325000D02*
X46575000Y-86325000D01*
X43225000Y-89675000D02*
X43225000Y-89375000D01*
X46575000Y-89675000D02*
X46575000Y-89375000D01*
X46575000Y-86325000D02*
X46575000Y-86625000D01*
X43225000Y-86325000D02*
X43225000Y-86550000D01*
D12*
X57240000Y-53488748D02*
X57240000Y-54011252D01*
X58660000Y-53488748D02*
X58660000Y-54011252D01*
X56990000Y-66438748D02*
X56990000Y-66961252D01*
X58410000Y-66438748D02*
X58410000Y-66961252D01*
X58310000Y-76661252D02*
X58310000Y-76138748D01*
X56890000Y-76661252D02*
X56890000Y-76138748D01*
X54890000Y-66438748D02*
X54890000Y-66961252D01*
X56310000Y-66438748D02*
X56310000Y-66961252D01*
D13*
G36*
X52899334Y-92604484D02*
G01*
X52944447Y-92721512D01*
X53008691Y-92822524D01*
X53088475Y-92910076D01*
X53185612Y-92927480D01*
X53356537Y-92875772D01*
X53470645Y-92830999D01*
X53839344Y-92737396D01*
X54282480Y-92728687D01*
X54820845Y-92806805D01*
X55475228Y-92973685D01*
X55682855Y-93036825D01*
X56143707Y-93180918D01*
X56473757Y-93276618D01*
X56704691Y-93323190D01*
X56868197Y-93319898D01*
X56995960Y-93266009D01*
X57119666Y-93160787D01*
X57271003Y-93003498D01*
X57274427Y-92999922D01*
X57499966Y-92770356D01*
X57634873Y-92655627D01*
X57701952Y-92644848D01*
X57724009Y-92727135D01*
X57725334Y-92784676D01*
X57751028Y-92892418D01*
X57859400Y-92920257D01*
X58010903Y-92902345D01*
X58231758Y-92895234D01*
X58354044Y-92949172D01*
X58354566Y-92950002D01*
X58340225Y-93028136D01*
X58259497Y-93044420D01*
X58096414Y-93096041D01*
X57890920Y-93222744D01*
X57852334Y-93253042D01*
X57598334Y-93461243D01*
X57920830Y-93464288D01*
X58124185Y-93485228D01*
X58196286Y-93536652D01*
X58191000Y-93552000D01*
X58072986Y-93620282D01*
X57953170Y-93636895D01*
X57863349Y-93650574D01*
X57870404Y-93707697D01*
X57987209Y-93832892D01*
X58119169Y-93954395D01*
X58596816Y-94481520D01*
X58962079Y-95107455D01*
X59177116Y-95672906D01*
X59260163Y-95963925D01*
X59316230Y-96238356D01*
X59350093Y-96541141D01*
X59366527Y-96917217D01*
X59370307Y-97411524D01*
X59370111Y-97489000D01*
X59346052Y-98246868D01*
X59274011Y-98875177D01*
X59145865Y-99408941D01*
X58953495Y-99883177D01*
X58722049Y-100283000D01*
X58554563Y-100522212D01*
X58418423Y-100652208D01*
X58259288Y-100709823D01*
X58063346Y-100729524D01*
X57588660Y-100677596D01*
X57325237Y-100573534D01*
X56974076Y-100323867D01*
X56718422Y-99964554D01*
X56542739Y-99472973D01*
X56528386Y-99413140D01*
X56428632Y-98980982D01*
X56185023Y-99287524D01*
X55856819Y-99628483D01*
X55454593Y-99900193D01*
X54931611Y-100133962D01*
X54908971Y-100142427D01*
X54012197Y-100416885D01*
X53189818Y-100546786D01*
X52445390Y-100532206D01*
X51782469Y-100373222D01*
X51204613Y-100069911D01*
X51194357Y-100062664D01*
X51031763Y-99962182D01*
X50934238Y-99965124D01*
X50861857Y-100035598D01*
X50601643Y-100232570D01*
X50235698Y-100360951D01*
X49815983Y-100413853D01*
X49394460Y-100384387D01*
X49045178Y-100276460D01*
X48867328Y-100177041D01*
X48751967Y-100056079D01*
X48680066Y-99872818D01*
X48632597Y-99586503D01*
X48608366Y-99351593D01*
X48753669Y-99351593D01*
X48761480Y-99582727D01*
X48799792Y-99738855D01*
X48877000Y-99866863D01*
X48936376Y-99939123D01*
X49116068Y-100099565D01*
X49344416Y-100186074D01*
X49576557Y-100219537D01*
X49990560Y-100234300D01*
X50302930Y-100177276D01*
X50570652Y-100035962D01*
X50635867Y-99987115D01*
X50855247Y-99814550D01*
X50614815Y-99551312D01*
X50424711Y-99229213D01*
X50316881Y-98790861D01*
X50290129Y-98267333D01*
X50343264Y-97689708D01*
X50475090Y-97089067D01*
X50684415Y-96496487D01*
X50736666Y-96379093D01*
X50887684Y-96022497D01*
X51011698Y-95674949D01*
X51086632Y-95399790D01*
X51094915Y-95351166D01*
X51142844Y-95131603D01*
X51205032Y-95004223D01*
X51229302Y-94991333D01*
X51285579Y-95063881D01*
X51283665Y-95259321D01*
X51230752Y-95544341D01*
X51134036Y-95885632D01*
X51000709Y-96249885D01*
X50915035Y-96446532D01*
X50656037Y-97145577D01*
X50511598Y-97858557D01*
X50489856Y-98537071D01*
X50519263Y-98800081D01*
X50577426Y-99073375D01*
X50670207Y-99278348D01*
X50834306Y-99477832D01*
X51018202Y-99654237D01*
X51571259Y-100062661D01*
X52169665Y-100308960D01*
X52822958Y-100396511D01*
X53091685Y-100388571D01*
X53583564Y-100321176D01*
X54135137Y-100193750D01*
X54686927Y-100024217D01*
X55179457Y-99830506D01*
X55506027Y-99660887D01*
X55764889Y-99454572D01*
X56022674Y-99177286D01*
X56138715Y-99018537D01*
X56408377Y-98600741D01*
X56385431Y-97367537D01*
X56360042Y-96673557D01*
X56308201Y-96113854D01*
X56223275Y-95654537D01*
X56098633Y-95261713D01*
X55927642Y-94901491D01*
X55889832Y-94834740D01*
X55765573Y-94577913D01*
X55740632Y-94415691D01*
X55756097Y-94386703D01*
X55833119Y-94415499D01*
X55962030Y-94588743D01*
X56133185Y-94893124D01*
X56157882Y-94941330D01*
X56479890Y-95575735D01*
X56548711Y-97209701D01*
X56579802Y-97903612D01*
X56609652Y-98451631D01*
X56641007Y-98877151D01*
X56676615Y-99203568D01*
X56719222Y-99454274D01*
X56771575Y-99652663D01*
X56836421Y-99822131D01*
X56861987Y-99877707D01*
X57069696Y-100167650D01*
X57359879Y-100387765D01*
X57691657Y-100525036D01*
X58024153Y-100566445D01*
X58316488Y-100498979D01*
X58467248Y-100388833D01*
X58753750Y-99981418D01*
X58986618Y-99445907D01*
X59160407Y-98816534D01*
X59269675Y-98127533D01*
X59308981Y-97413138D01*
X59272881Y-96707583D01*
X59157084Y-96049666D01*
X59045749Y-95671743D01*
X58909694Y-95303921D01*
X58767712Y-94989885D01*
X58638598Y-94773319D01*
X58582150Y-94713251D01*
X58445012Y-94564770D01*
X58319797Y-94368040D01*
X58175290Y-94173772D01*
X58013528Y-94056905D01*
X57830353Y-93953341D01*
X57619445Y-93790057D01*
X57592132Y-93765334D01*
X57440912Y-93605190D01*
X57406369Y-93487925D01*
X57453901Y-93379117D01*
X57549527Y-93188148D01*
X57530836Y-93117189D01*
X57407055Y-93170447D01*
X57256721Y-93289229D01*
X57060623Y-93441909D01*
X56874324Y-93520918D01*
X56626878Y-93549432D01*
X56452387Y-93552000D01*
X56183002Y-93539079D01*
X56000497Y-93505363D01*
X55947334Y-93467333D01*
X56014819Y-93383068D01*
X56053167Y-93374227D01*
X56102653Y-93353981D01*
X56025154Y-93319592D01*
X55861397Y-93280311D01*
X55652107Y-93245386D01*
X55438009Y-93224065D01*
X55381881Y-93221772D01*
X55124745Y-93186058D01*
X54928515Y-93107616D01*
X54897571Y-93082808D01*
X54608568Y-92894060D01*
X54241246Y-92834855D01*
X53784355Y-92904978D01*
X53349528Y-93052942D01*
X53156259Y-93115115D01*
X53034183Y-93084183D01*
X52916619Y-92959654D01*
X52753181Y-92757817D01*
X52655741Y-92939887D01*
X52558300Y-93121957D01*
X52251335Y-92913645D01*
X52005763Y-92760303D01*
X51874787Y-92717532D01*
X51844741Y-92785347D01*
X51882194Y-92914002D01*
X51921269Y-93101465D01*
X51849733Y-93161950D01*
X51670254Y-93094338D01*
X51581718Y-93039737D01*
X51318771Y-92926964D01*
X51012516Y-92878585D01*
X50738351Y-92902024D01*
X50631739Y-92946166D01*
X50617942Y-93012092D01*
X50766747Y-93093081D01*
X50861766Y-93126829D01*
X51085758Y-93223889D01*
X51143904Y-93305312D01*
X51039584Y-93361452D01*
X50776178Y-93382663D01*
X50772104Y-93382666D01*
X50422607Y-93421155D01*
X50121888Y-93555537D01*
X49830167Y-93789852D01*
X49651675Y-93974373D01*
X49613014Y-94063540D01*
X49713481Y-94056469D01*
X49952377Y-93952276D01*
X49957167Y-93949891D01*
X50202878Y-93861972D01*
X50509862Y-93799413D01*
X50832338Y-93765139D01*
X51124525Y-93762078D01*
X51340641Y-93793153D01*
X51433336Y-93855555D01*
X51382846Y-93941727D01*
X51218846Y-94053598D01*
X51117589Y-94104021D01*
X50735831Y-94344289D01*
X50482970Y-94675940D01*
X50357053Y-95023553D01*
X50291635Y-95209191D01*
X50162617Y-95514647D01*
X49983913Y-95909190D01*
X49769435Y-96362086D01*
X49537168Y-96834484D01*
X49283345Y-97343603D01*
X49095465Y-97731584D01*
X48962902Y-98028324D01*
X48875031Y-98263717D01*
X48821224Y-98467661D01*
X48790855Y-98670049D01*
X48773299Y-98900778D01*
X48767962Y-98998568D01*
X48753669Y-99351593D01*
X48608366Y-99351593D01*
X48606952Y-99337893D01*
X48591936Y-98967543D01*
X48626484Y-98613255D01*
X48720611Y-98238910D01*
X48884333Y-97808389D01*
X49127667Y-97285571D01*
X49236209Y-97068746D01*
X49503007Y-96541987D01*
X49704482Y-96140786D01*
X49852244Y-95839854D01*
X49957900Y-95613898D01*
X50033060Y-95437629D01*
X50089331Y-95285755D01*
X50138323Y-95132987D01*
X50163974Y-95047498D01*
X50326144Y-94608241D01*
X50523732Y-94296832D01*
X50783902Y-94071990D01*
X50821377Y-94048403D01*
X51079000Y-93891299D01*
X50782667Y-93892842D01*
X50421803Y-93954056D01*
X50003947Y-94118918D01*
X49584210Y-94364159D01*
X49469796Y-94447150D01*
X49272471Y-94572923D01*
X49181177Y-94572425D01*
X49196139Y-94451587D01*
X49317581Y-94216344D01*
X49453148Y-94005744D01*
X49820263Y-93597866D01*
X50151648Y-93382838D01*
X50571000Y-93171343D01*
X50274667Y-93122567D01*
X49978334Y-93073792D01*
X50401667Y-92882055D01*
X50787842Y-92748101D01*
X51152688Y-92721955D01*
X51219456Y-92726989D01*
X51461599Y-92738972D01*
X51566951Y-92711086D01*
X51570231Y-92649830D01*
X51594304Y-92560046D01*
X51742113Y-92539778D01*
X51983359Y-92588212D01*
X52201889Y-92666828D01*
X52409703Y-92744309D01*
X52523931Y-92747652D01*
X52603228Y-92676856D01*
X52610670Y-92666828D01*
X52732798Y-92562261D01*
X52850477Y-92539101D01*
X52899334Y-92604484D01*
G37*
X52899334Y-92604484D02*
X52944447Y-92721512D01*
X53008691Y-92822524D01*
X53088475Y-92910076D01*
X53185612Y-92927480D01*
X53356537Y-92875772D01*
X53470645Y-92830999D01*
X53839344Y-92737396D01*
X54282480Y-92728687D01*
X54820845Y-92806805D01*
X55475228Y-92973685D01*
X55682855Y-93036825D01*
X56143707Y-93180918D01*
X56473757Y-93276618D01*
X56704691Y-93323190D01*
X56868197Y-93319898D01*
X56995960Y-93266009D01*
X57119666Y-93160787D01*
X57271003Y-93003498D01*
X57274427Y-92999922D01*
X57499966Y-92770356D01*
X57634873Y-92655627D01*
X57701952Y-92644848D01*
X57724009Y-92727135D01*
X57725334Y-92784676D01*
X57751028Y-92892418D01*
X57859400Y-92920257D01*
X58010903Y-92902345D01*
X58231758Y-92895234D01*
X58354044Y-92949172D01*
X58354566Y-92950002D01*
X58340225Y-93028136D01*
X58259497Y-93044420D01*
X58096414Y-93096041D01*
X57890920Y-93222744D01*
X57852334Y-93253042D01*
X57598334Y-93461243D01*
X57920830Y-93464288D01*
X58124185Y-93485228D01*
X58196286Y-93536652D01*
X58191000Y-93552000D01*
X58072986Y-93620282D01*
X57953170Y-93636895D01*
X57863349Y-93650574D01*
X57870404Y-93707697D01*
X57987209Y-93832892D01*
X58119169Y-93954395D01*
X58596816Y-94481520D01*
X58962079Y-95107455D01*
X59177116Y-95672906D01*
X59260163Y-95963925D01*
X59316230Y-96238356D01*
X59350093Y-96541141D01*
X59366527Y-96917217D01*
X59370307Y-97411524D01*
X59370111Y-97489000D01*
X59346052Y-98246868D01*
X59274011Y-98875177D01*
X59145865Y-99408941D01*
X58953495Y-99883177D01*
X58722049Y-100283000D01*
X58554563Y-100522212D01*
X58418423Y-100652208D01*
X58259288Y-100709823D01*
X58063346Y-100729524D01*
X57588660Y-100677596D01*
X57325237Y-100573534D01*
X56974076Y-100323867D01*
X56718422Y-99964554D01*
X56542739Y-99472973D01*
X56528386Y-99413140D01*
X56428632Y-98980982D01*
X56185023Y-99287524D01*
X55856819Y-99628483D01*
X55454593Y-99900193D01*
X54931611Y-100133962D01*
X54908971Y-100142427D01*
X54012197Y-100416885D01*
X53189818Y-100546786D01*
X52445390Y-100532206D01*
X51782469Y-100373222D01*
X51204613Y-100069911D01*
X51194357Y-100062664D01*
X51031763Y-99962182D01*
X50934238Y-99965124D01*
X50861857Y-100035598D01*
X50601643Y-100232570D01*
X50235698Y-100360951D01*
X49815983Y-100413853D01*
X49394460Y-100384387D01*
X49045178Y-100276460D01*
X48867328Y-100177041D01*
X48751967Y-100056079D01*
X48680066Y-99872818D01*
X48632597Y-99586503D01*
X48608366Y-99351593D01*
X48753669Y-99351593D01*
X48761480Y-99582727D01*
X48799792Y-99738855D01*
X48877000Y-99866863D01*
X48936376Y-99939123D01*
X49116068Y-100099565D01*
X49344416Y-100186074D01*
X49576557Y-100219537D01*
X49990560Y-100234300D01*
X50302930Y-100177276D01*
X50570652Y-100035962D01*
X50635867Y-99987115D01*
X50855247Y-99814550D01*
X50614815Y-99551312D01*
X50424711Y-99229213D01*
X50316881Y-98790861D01*
X50290129Y-98267333D01*
X50343264Y-97689708D01*
X50475090Y-97089067D01*
X50684415Y-96496487D01*
X50736666Y-96379093D01*
X50887684Y-96022497D01*
X51011698Y-95674949D01*
X51086632Y-95399790D01*
X51094915Y-95351166D01*
X51142844Y-95131603D01*
X51205032Y-95004223D01*
X51229302Y-94991333D01*
X51285579Y-95063881D01*
X51283665Y-95259321D01*
X51230752Y-95544341D01*
X51134036Y-95885632D01*
X51000709Y-96249885D01*
X50915035Y-96446532D01*
X50656037Y-97145577D01*
X50511598Y-97858557D01*
X50489856Y-98537071D01*
X50519263Y-98800081D01*
X50577426Y-99073375D01*
X50670207Y-99278348D01*
X50834306Y-99477832D01*
X51018202Y-99654237D01*
X51571259Y-100062661D01*
X52169665Y-100308960D01*
X52822958Y-100396511D01*
X53091685Y-100388571D01*
X53583564Y-100321176D01*
X54135137Y-100193750D01*
X54686927Y-100024217D01*
X55179457Y-99830506D01*
X55506027Y-99660887D01*
X55764889Y-99454572D01*
X56022674Y-99177286D01*
X56138715Y-99018537D01*
X56408377Y-98600741D01*
X56385431Y-97367537D01*
X56360042Y-96673557D01*
X56308201Y-96113854D01*
X56223275Y-95654537D01*
X56098633Y-95261713D01*
X55927642Y-94901491D01*
X55889832Y-94834740D01*
X55765573Y-94577913D01*
X55740632Y-94415691D01*
X55756097Y-94386703D01*
X55833119Y-94415499D01*
X55962030Y-94588743D01*
X56133185Y-94893124D01*
X56157882Y-94941330D01*
X56479890Y-95575735D01*
X56548711Y-97209701D01*
X56579802Y-97903612D01*
X56609652Y-98451631D01*
X56641007Y-98877151D01*
X56676615Y-99203568D01*
X56719222Y-99454274D01*
X56771575Y-99652663D01*
X56836421Y-99822131D01*
X56861987Y-99877707D01*
X57069696Y-100167650D01*
X57359879Y-100387765D01*
X57691657Y-100525036D01*
X58024153Y-100566445D01*
X58316488Y-100498979D01*
X58467248Y-100388833D01*
X58753750Y-99981418D01*
X58986618Y-99445907D01*
X59160407Y-98816534D01*
X59269675Y-98127533D01*
X59308981Y-97413138D01*
X59272881Y-96707583D01*
X59157084Y-96049666D01*
X59045749Y-95671743D01*
X58909694Y-95303921D01*
X58767712Y-94989885D01*
X58638598Y-94773319D01*
X58582150Y-94713251D01*
X58445012Y-94564770D01*
X58319797Y-94368040D01*
X58175290Y-94173772D01*
X58013528Y-94056905D01*
X57830353Y-93953341D01*
X57619445Y-93790057D01*
X57592132Y-93765334D01*
X57440912Y-93605190D01*
X57406369Y-93487925D01*
X57453901Y-93379117D01*
X57549527Y-93188148D01*
X57530836Y-93117189D01*
X57407055Y-93170447D01*
X57256721Y-93289229D01*
X57060623Y-93441909D01*
X56874324Y-93520918D01*
X56626878Y-93549432D01*
X56452387Y-93552000D01*
X56183002Y-93539079D01*
X56000497Y-93505363D01*
X55947334Y-93467333D01*
X56014819Y-93383068D01*
X56053167Y-93374227D01*
X56102653Y-93353981D01*
X56025154Y-93319592D01*
X55861397Y-93280311D01*
X55652107Y-93245386D01*
X55438009Y-93224065D01*
X55381881Y-93221772D01*
X55124745Y-93186058D01*
X54928515Y-93107616D01*
X54897571Y-93082808D01*
X54608568Y-92894060D01*
X54241246Y-92834855D01*
X53784355Y-92904978D01*
X53349528Y-93052942D01*
X53156259Y-93115115D01*
X53034183Y-93084183D01*
X52916619Y-92959654D01*
X52753181Y-92757817D01*
X52655741Y-92939887D01*
X52558300Y-93121957D01*
X52251335Y-92913645D01*
X52005763Y-92760303D01*
X51874787Y-92717532D01*
X51844741Y-92785347D01*
X51882194Y-92914002D01*
X51921269Y-93101465D01*
X51849733Y-93161950D01*
X51670254Y-93094338D01*
X51581718Y-93039737D01*
X51318771Y-92926964D01*
X51012516Y-92878585D01*
X50738351Y-92902024D01*
X50631739Y-92946166D01*
X50617942Y-93012092D01*
X50766747Y-93093081D01*
X50861766Y-93126829D01*
X51085758Y-93223889D01*
X51143904Y-93305312D01*
X51039584Y-93361452D01*
X50776178Y-93382663D01*
X50772104Y-93382666D01*
X50422607Y-93421155D01*
X50121888Y-93555537D01*
X49830167Y-93789852D01*
X49651675Y-93974373D01*
X49613014Y-94063540D01*
X49713481Y-94056469D01*
X49952377Y-93952276D01*
X49957167Y-93949891D01*
X50202878Y-93861972D01*
X50509862Y-93799413D01*
X50832338Y-93765139D01*
X51124525Y-93762078D01*
X51340641Y-93793153D01*
X51433336Y-93855555D01*
X51382846Y-93941727D01*
X51218846Y-94053598D01*
X51117589Y-94104021D01*
X50735831Y-94344289D01*
X50482970Y-94675940D01*
X50357053Y-95023553D01*
X50291635Y-95209191D01*
X50162617Y-95514647D01*
X49983913Y-95909190D01*
X49769435Y-96362086D01*
X49537168Y-96834484D01*
X49283345Y-97343603D01*
X49095465Y-97731584D01*
X48962902Y-98028324D01*
X48875031Y-98263717D01*
X48821224Y-98467661D01*
X48790855Y-98670049D01*
X48773299Y-98900778D01*
X48767962Y-98998568D01*
X48753669Y-99351593D01*
X48608366Y-99351593D01*
X48606952Y-99337893D01*
X48591936Y-98967543D01*
X48626484Y-98613255D01*
X48720611Y-98238910D01*
X48884333Y-97808389D01*
X49127667Y-97285571D01*
X49236209Y-97068746D01*
X49503007Y-96541987D01*
X49704482Y-96140786D01*
X49852244Y-95839854D01*
X49957900Y-95613898D01*
X50033060Y-95437629D01*
X50089331Y-95285755D01*
X50138323Y-95132987D01*
X50163974Y-95047498D01*
X50326144Y-94608241D01*
X50523732Y-94296832D01*
X50783902Y-94071990D01*
X50821377Y-94048403D01*
X51079000Y-93891299D01*
X50782667Y-93892842D01*
X50421803Y-93954056D01*
X50003947Y-94118918D01*
X49584210Y-94364159D01*
X49469796Y-94447150D01*
X49272471Y-94572923D01*
X49181177Y-94572425D01*
X49196139Y-94451587D01*
X49317581Y-94216344D01*
X49453148Y-94005744D01*
X49820263Y-93597866D01*
X50151648Y-93382838D01*
X50571000Y-93171343D01*
X50274667Y-93122567D01*
X49978334Y-93073792D01*
X50401667Y-92882055D01*
X50787842Y-92748101D01*
X51152688Y-92721955D01*
X51219456Y-92726989D01*
X51461599Y-92738972D01*
X51566951Y-92711086D01*
X51570231Y-92649830D01*
X51594304Y-92560046D01*
X51742113Y-92539778D01*
X51983359Y-92588212D01*
X52201889Y-92666828D01*
X52409703Y-92744309D01*
X52523931Y-92747652D01*
X52603228Y-92676856D01*
X52610670Y-92666828D01*
X52732798Y-92562261D01*
X52850477Y-92539101D01*
X52899334Y-92604484D01*
G36*
X52407955Y-99187219D02*
G01*
X52596496Y-99289485D01*
X52613578Y-99302527D01*
X52778312Y-99415840D01*
X52886252Y-99422880D01*
X52982567Y-99352963D01*
X53189879Y-99234858D01*
X53370553Y-99283261D01*
X53454676Y-99372833D01*
X53538117Y-99462355D01*
X53624932Y-99449487D01*
X53771741Y-99324915D01*
X53777202Y-99319788D01*
X53964489Y-99198648D01*
X54135774Y-99172085D01*
X54241260Y-99241776D01*
X54254000Y-99303730D01*
X54194660Y-99438184D01*
X54048787Y-99622751D01*
X53864602Y-99807998D01*
X53690326Y-99944492D01*
X53589063Y-99985370D01*
X53392821Y-99939696D01*
X53326654Y-99906256D01*
X53156375Y-99864127D01*
X52967376Y-99875691D01*
X52754421Y-99866197D01*
X52537331Y-99776628D01*
X52345239Y-99636059D01*
X52207280Y-99473564D01*
X52152586Y-99318220D01*
X52210290Y-99199101D01*
X52261844Y-99171572D01*
X52407955Y-99187219D01*
G37*
X52407955Y-99187219D02*
X52596496Y-99289485D01*
X52613578Y-99302527D01*
X52778312Y-99415840D01*
X52886252Y-99422880D01*
X52982567Y-99352963D01*
X53189879Y-99234858D01*
X53370553Y-99283261D01*
X53454676Y-99372833D01*
X53538117Y-99462355D01*
X53624932Y-99449487D01*
X53771741Y-99324915D01*
X53777202Y-99319788D01*
X53964489Y-99198648D01*
X54135774Y-99172085D01*
X54241260Y-99241776D01*
X54254000Y-99303730D01*
X54194660Y-99438184D01*
X54048787Y-99622751D01*
X53864602Y-99807998D01*
X53690326Y-99944492D01*
X53589063Y-99985370D01*
X53392821Y-99939696D01*
X53326654Y-99906256D01*
X53156375Y-99864127D01*
X52967376Y-99875691D01*
X52754421Y-99866197D01*
X52537331Y-99776628D01*
X52345239Y-99636059D01*
X52207280Y-99473564D01*
X52152586Y-99318220D01*
X52210290Y-99199101D01*
X52261844Y-99171572D01*
X52407955Y-99187219D01*
G36*
X51572368Y-97852017D02*
G01*
X51510002Y-98019796D01*
X51460000Y-98124000D01*
X51329906Y-98361260D01*
X51261391Y-98450773D01*
X51260947Y-98392480D01*
X51335068Y-98186326D01*
X51360454Y-98124861D01*
X51460703Y-97918491D01*
X51545250Y-97798477D01*
X51567554Y-97786194D01*
X51572368Y-97852017D01*
G37*
X51572368Y-97852017D02*
X51510002Y-98019796D01*
X51460000Y-98124000D01*
X51329906Y-98361260D01*
X51261391Y-98450773D01*
X51260947Y-98392480D01*
X51335068Y-98186326D01*
X51360454Y-98124861D01*
X51460703Y-97918491D01*
X51545250Y-97798477D01*
X51567554Y-97786194D01*
X51572368Y-97852017D01*
G36*
X51880741Y-98166333D02*
G01*
X51838584Y-98305472D01*
X51798667Y-98378000D01*
X51731579Y-98445769D01*
X51716593Y-98420333D01*
X51758749Y-98281194D01*
X51798667Y-98208666D01*
X51865754Y-98140897D01*
X51880741Y-98166333D01*
G37*
X51880741Y-98166333D02*
X51838584Y-98305472D01*
X51798667Y-98378000D01*
X51731579Y-98445769D01*
X51716593Y-98420333D01*
X51758749Y-98281194D01*
X51798667Y-98208666D01*
X51865754Y-98140897D01*
X51880741Y-98166333D01*
G36*
X50990289Y-97951684D02*
G01*
X50929818Y-98093112D01*
X50827928Y-98257179D01*
X50714766Y-98356414D01*
X50631660Y-98363057D01*
X50613334Y-98305696D01*
X50666021Y-98201240D01*
X50795731Y-98037276D01*
X50825000Y-98005001D01*
X50974619Y-97851882D01*
X51026815Y-97831671D01*
X50990289Y-97951684D01*
G37*
X50990289Y-97951684D02*
X50929818Y-98093112D01*
X50827928Y-98257179D01*
X50714766Y-98356414D01*
X50631660Y-98363057D01*
X50613334Y-98305696D01*
X50666021Y-98201240D01*
X50795731Y-98037276D01*
X50825000Y-98005001D01*
X50974619Y-97851882D01*
X51026815Y-97831671D01*
X50990289Y-97951684D01*
G36*
X51284666Y-97912333D02*
G01*
X51245791Y-98042378D01*
X51163667Y-98208666D01*
X51079424Y-98332000D01*
X51042722Y-98338121D01*
X51042667Y-98335666D01*
X51081542Y-98205621D01*
X51163667Y-98039333D01*
X51247909Y-97915999D01*
X51284612Y-97909878D01*
X51284666Y-97912333D01*
G37*
X51284666Y-97912333D02*
X51245791Y-98042378D01*
X51163667Y-98208666D01*
X51079424Y-98332000D01*
X51042722Y-98338121D01*
X51042667Y-98335666D01*
X51081542Y-98205621D01*
X51163667Y-98039333D01*
X51247909Y-97915999D01*
X51284612Y-97909878D01*
X51284666Y-97912333D01*
G36*
X51798667Y-97924373D02*
G01*
X51750266Y-98048646D01*
X51666996Y-98171317D01*
X51579462Y-98275402D01*
X51579310Y-98246943D01*
X51636131Y-98124000D01*
X51737169Y-97926263D01*
X51787268Y-97871210D01*
X51798667Y-97924373D01*
G37*
X51798667Y-97924373D02*
X51750266Y-98048646D01*
X51666996Y-98171317D01*
X51579462Y-98275402D01*
X51579310Y-98246943D01*
X51636131Y-98124000D01*
X51737169Y-97926263D01*
X51787268Y-97871210D01*
X51798667Y-97924373D01*
G36*
X54566104Y-98178690D02*
G01*
X54550334Y-98208666D01*
X54470559Y-98289523D01*
X54455673Y-98293333D01*
X54449897Y-98238643D01*
X54465667Y-98208666D01*
X54545441Y-98127809D01*
X54560327Y-98124000D01*
X54566104Y-98178690D01*
G37*
X54566104Y-98178690D02*
X54550334Y-98208666D01*
X54470559Y-98289523D01*
X54455673Y-98293333D01*
X54449897Y-98238643D01*
X54465667Y-98208666D01*
X54545441Y-98127809D01*
X54560327Y-98124000D01*
X54566104Y-98178690D01*
G36*
X55097554Y-97743000D02*
G01*
X55048409Y-97856914D01*
X54923645Y-98033626D01*
X54884104Y-98081666D01*
X54771165Y-98200141D01*
X54736631Y-98204182D01*
X54751321Y-98166333D01*
X54860036Y-97975813D01*
X54975406Y-97816999D01*
X55065217Y-97729278D01*
X55097554Y-97743000D01*
G37*
X55097554Y-97743000D02*
X55048409Y-97856914D01*
X54923645Y-98033626D01*
X54884104Y-98081666D01*
X54771165Y-98200141D01*
X54736631Y-98204182D01*
X54751321Y-98166333D01*
X54860036Y-97975813D01*
X54975406Y-97816999D01*
X55065217Y-97729278D01*
X55097554Y-97743000D01*
G36*
X55310575Y-97842415D02*
G01*
X55277616Y-97912333D01*
X55147752Y-98143107D01*
X55055820Y-98260815D01*
X55017558Y-98245695D01*
X55017297Y-98239213D01*
X55067781Y-98111943D01*
X55190114Y-97942879D01*
X55297284Y-97827889D01*
X55310575Y-97842415D01*
G37*
X55310575Y-97842415D02*
X55277616Y-97912333D01*
X55147752Y-98143107D01*
X55055820Y-98260815D01*
X55017558Y-98245695D01*
X55017297Y-98239213D01*
X55067781Y-98111943D01*
X55190114Y-97942879D01*
X55297284Y-97827889D01*
X55310575Y-97842415D01*
G36*
X55721902Y-97808226D02*
G01*
X55711539Y-97828613D01*
X55581510Y-98010107D01*
X55426009Y-98166674D01*
X55306032Y-98265643D01*
X55290828Y-98263712D01*
X55382131Y-98148571D01*
X55438065Y-98081060D01*
X55630134Y-97851855D01*
X55731035Y-97739607D01*
X55756410Y-97729877D01*
X55721902Y-97808226D01*
G37*
X55721902Y-97808226D02*
X55711539Y-97828613D01*
X55581510Y-98010107D01*
X55426009Y-98166674D01*
X55306032Y-98265643D01*
X55290828Y-98263712D01*
X55382131Y-98148571D01*
X55438065Y-98081060D01*
X55630134Y-97851855D01*
X55731035Y-97739607D01*
X55756410Y-97729877D01*
X55721902Y-97808226D01*
G36*
X55993024Y-97850774D02*
G01*
X55919405Y-98011137D01*
X55905000Y-98039333D01*
X55793126Y-98211731D01*
X55695960Y-98292497D01*
X55688625Y-98293333D01*
X55677652Y-98235112D01*
X55755468Y-98090254D01*
X55791388Y-98039333D01*
X55919890Y-97874792D01*
X56000340Y-97788909D01*
X56007763Y-97785333D01*
X55993024Y-97850774D01*
G37*
X55993024Y-97850774D02*
X55919405Y-98011137D01*
X55905000Y-98039333D01*
X55793126Y-98211731D01*
X55695960Y-98292497D01*
X55688625Y-98293333D01*
X55677652Y-98235112D01*
X55755468Y-98090254D01*
X55791388Y-98039333D01*
X55919890Y-97874792D01*
X56000340Y-97788909D01*
X56007763Y-97785333D01*
X55993024Y-97850774D01*
G36*
X52898165Y-98022045D02*
G01*
X52929951Y-98081666D01*
X52916942Y-98190894D01*
X52854343Y-98208666D01*
X52744412Y-98140834D01*
X52730000Y-98081666D01*
X52770906Y-97968925D01*
X52805608Y-97954666D01*
X52898165Y-98022045D01*
G37*
X52898165Y-98022045D02*
X52929951Y-98081666D01*
X52916942Y-98190894D01*
X52854343Y-98208666D01*
X52744412Y-98140834D01*
X52730000Y-98081666D01*
X52770906Y-97968925D01*
X52805608Y-97954666D01*
X52898165Y-98022045D01*
G36*
X53581139Y-98081666D02*
G01*
X53515553Y-98168880D01*
X53444388Y-98195585D01*
X53340547Y-98174652D01*
X53341138Y-98110919D01*
X53425421Y-98014779D01*
X53532610Y-98006727D01*
X53581139Y-98081666D01*
G37*
X53581139Y-98081666D02*
X53515553Y-98168880D01*
X53444388Y-98195585D01*
X53340547Y-98174652D01*
X53341138Y-98110919D01*
X53425421Y-98014779D01*
X53532610Y-98006727D01*
X53581139Y-98081666D01*
G36*
X52951984Y-95980674D02*
G01*
X53053207Y-96095174D01*
X53054877Y-96293578D01*
X52976794Y-96539670D01*
X52838759Y-96797234D01*
X52660573Y-97030055D01*
X52462034Y-97201916D01*
X52262944Y-97276602D01*
X52243062Y-97277333D01*
X52054380Y-97219260D01*
X51840875Y-97075134D01*
X51792154Y-97029846D01*
X51611271Y-96794635D01*
X51547104Y-96531741D01*
X51544667Y-96446237D01*
X51573902Y-96195399D01*
X51653838Y-96068701D01*
X51661350Y-96065341D01*
X51819791Y-96077397D01*
X51930888Y-96224055D01*
X51968000Y-96444621D01*
X52032639Y-96674332D01*
X52136906Y-96769104D01*
X52261331Y-96807520D01*
X52364645Y-96742701D01*
X52475256Y-96581583D01*
X52585583Y-96379225D01*
X52642798Y-96232499D01*
X52645017Y-96214766D01*
X52711197Y-96062218D01*
X52856389Y-95975322D01*
X52951984Y-95980674D01*
G37*
X52951984Y-95980674D02*
X53053207Y-96095174D01*
X53054877Y-96293578D01*
X52976794Y-96539670D01*
X52838759Y-96797234D01*
X52660573Y-97030055D01*
X52462034Y-97201916D01*
X52262944Y-97276602D01*
X52243062Y-97277333D01*
X52054380Y-97219260D01*
X51840875Y-97075134D01*
X51792154Y-97029846D01*
X51611271Y-96794635D01*
X51547104Y-96531741D01*
X51544667Y-96446237D01*
X51573902Y-96195399D01*
X51653838Y-96068701D01*
X51661350Y-96065341D01*
X51819791Y-96077397D01*
X51930888Y-96224055D01*
X51968000Y-96444621D01*
X52032639Y-96674332D01*
X52136906Y-96769104D01*
X52261331Y-96807520D01*
X52364645Y-96742701D01*
X52475256Y-96581583D01*
X52585583Y-96379225D01*
X52642798Y-96232499D01*
X52645017Y-96214766D01*
X52711197Y-96062218D01*
X52856389Y-95975322D01*
X52951984Y-95980674D01*
G36*
X55283356Y-96112182D02*
G01*
X55339184Y-96329804D01*
X55332518Y-96521495D01*
X55251410Y-96695007D01*
X55067631Y-96906617D01*
X55031644Y-96942944D01*
X54723242Y-97189683D01*
X54453330Y-97272899D01*
X54218743Y-97193194D01*
X54132947Y-97114571D01*
X54021070Y-96911936D01*
X53952274Y-96639704D01*
X53938104Y-96371867D01*
X53987981Y-96185495D01*
X54112699Y-96102053D01*
X54241193Y-96151355D01*
X54327271Y-96304352D01*
X54339963Y-96406842D01*
X54363647Y-96619562D01*
X54407654Y-96746862D01*
X54514961Y-96796319D01*
X54660055Y-96721843D01*
X54808613Y-96552716D01*
X54926310Y-96318216D01*
X54932954Y-96298755D01*
X55047778Y-96080507D01*
X55175018Y-96019114D01*
X55283356Y-96112182D01*
G37*
X55283356Y-96112182D02*
X55339184Y-96329804D01*
X55332518Y-96521495D01*
X55251410Y-96695007D01*
X55067631Y-96906617D01*
X55031644Y-96942944D01*
X54723242Y-97189683D01*
X54453330Y-97272899D01*
X54218743Y-97193194D01*
X54132947Y-97114571D01*
X54021070Y-96911936D01*
X53952274Y-96639704D01*
X53938104Y-96371867D01*
X53987981Y-96185495D01*
X54112699Y-96102053D01*
X54241193Y-96151355D01*
X54327271Y-96304352D01*
X54339963Y-96406842D01*
X54363647Y-96619562D01*
X54407654Y-96746862D01*
X54514961Y-96796319D01*
X54660055Y-96721843D01*
X54808613Y-96552716D01*
X54926310Y-96318216D01*
X54932954Y-96298755D01*
X55047778Y-96080507D01*
X55175018Y-96019114D01*
X55283356Y-96112182D01*
G36*
X54300843Y-94854628D02*
G01*
X54592182Y-95000116D01*
X54643055Y-95033666D01*
X55049231Y-95216174D01*
X55302982Y-95246629D01*
X55633539Y-95278552D01*
X55814826Y-95369313D01*
X55841262Y-95515908D01*
X55835328Y-95533121D01*
X55756969Y-95615309D01*
X55579022Y-95657533D01*
X55292694Y-95668666D01*
X54981686Y-95653221D01*
X54738903Y-95589424D01*
X54482140Y-95451082D01*
X54361501Y-95371967D01*
X54089216Y-95164676D01*
X53970707Y-95011809D01*
X53969523Y-94948634D01*
X54088650Y-94836882D01*
X54300843Y-94854628D01*
G37*
X54300843Y-94854628D02*
X54592182Y-95000116D01*
X54643055Y-95033666D01*
X55049231Y-95216174D01*
X55302982Y-95246629D01*
X55633539Y-95278552D01*
X55814826Y-95369313D01*
X55841262Y-95515908D01*
X55835328Y-95533121D01*
X55756969Y-95615309D01*
X55579022Y-95657533D01*
X55292694Y-95668666D01*
X54981686Y-95653221D01*
X54738903Y-95589424D01*
X54482140Y-95451082D01*
X54361501Y-95371967D01*
X54089216Y-95164676D01*
X53970707Y-95011809D01*
X53969523Y-94948634D01*
X54088650Y-94836882D01*
X54300843Y-94854628D01*
G36*
X53427382Y-94639441D02*
G01*
X53434542Y-94646008D01*
X53486112Y-94788968D01*
X53377089Y-94944131D01*
X53115075Y-95104128D01*
X52848780Y-95213594D01*
X52345658Y-95375822D01*
X51959840Y-95459534D01*
X51701436Y-95463374D01*
X51580555Y-95385988D01*
X51579684Y-95383798D01*
X51565645Y-95214749D01*
X51688430Y-95100089D01*
X51949804Y-95027144D01*
X52197195Y-94965940D01*
X52522773Y-94862792D01*
X52801445Y-94760876D01*
X53119276Y-94647797D01*
X53317891Y-94609139D01*
X53427382Y-94639441D01*
G37*
X53427382Y-94639441D02*
X53434542Y-94646008D01*
X53486112Y-94788968D01*
X53377089Y-94944131D01*
X53115075Y-95104128D01*
X52848780Y-95213594D01*
X52345658Y-95375822D01*
X51959840Y-95459534D01*
X51701436Y-95463374D01*
X51580555Y-95385988D01*
X51579684Y-95383798D01*
X51565645Y-95214749D01*
X51688430Y-95100089D01*
X51949804Y-95027144D01*
X52197195Y-94965940D01*
X52522773Y-94862792D01*
X52801445Y-94760876D01*
X53119276Y-94647797D01*
X53317891Y-94609139D01*
X53427382Y-94639441D01*
D12*
X46500000Y-54950000D02*
X46500000Y-59050000D01*
X46500000Y-59050000D02*
X44500000Y-59050000D01*
X44500000Y-59050000D02*
X44500000Y-54950000D01*
X44500000Y-54950000D02*
X46500000Y-54950000D01*
X44300000Y-55700000D02*
X44000000Y-55400000D01*
X44000000Y-55400000D02*
X44000000Y-56000000D01*
X44300000Y-55700000D02*
X44000000Y-56000000D01*
D11*
X51175000Y-79325000D02*
X51175000Y-80675000D01*
X54325000Y-79325000D02*
X54325000Y-74675000D01*
X51075000Y-79325000D02*
X51075000Y-74675000D01*
X54325000Y-79325000D02*
X54125000Y-79325000D01*
X54325000Y-74675000D02*
X54125000Y-74675000D01*
X51075000Y-74675000D02*
X51275000Y-74675000D01*
X51075000Y-79325000D02*
X51175000Y-79325000D01*
D12*
X41010000Y-76161252D02*
X41010000Y-75638748D01*
X39590000Y-76161252D02*
X39590000Y-75638748D01*
X44910000Y-78400000D02*
X44910000Y-75950000D01*
X41690000Y-76600000D02*
X41690000Y-78400000D01*
X55290000Y-70838748D02*
X55290000Y-71361252D01*
X56710000Y-70838748D02*
X56710000Y-71361252D01*
X57290000Y-70838748D02*
X57290000Y-71361252D01*
X58710000Y-70838748D02*
X58710000Y-71361252D01*
X53290000Y-70838748D02*
X53290000Y-71361252D01*
X54710000Y-70838748D02*
X54710000Y-71361252D01*
X50990000Y-70838748D02*
X50990000Y-71361252D01*
X52410000Y-70838748D02*
X52410000Y-71361252D01*
X48990000Y-70838748D02*
X48990000Y-71361252D01*
X50410000Y-70838748D02*
X50410000Y-71361252D01*
X50410000Y-79161252D02*
X50410000Y-78638748D01*
X48990000Y-79161252D02*
X48990000Y-78638748D01*
X56910000Y-83261252D02*
X56910000Y-82738748D01*
X55490000Y-83261252D02*
X55490000Y-82738748D01*
X54910000Y-83261252D02*
X54910000Y-82738748D01*
X53490000Y-83261252D02*
X53490000Y-82738748D01*
X52910000Y-83261252D02*
X52910000Y-82738748D01*
X51490000Y-83261252D02*
X51490000Y-82738748D01*
X50910000Y-83261252D02*
X50910000Y-82738748D01*
X49490000Y-83261252D02*
X49490000Y-82738748D01*
X43210000Y-83861252D02*
X43210000Y-83338748D01*
X41790000Y-83861252D02*
X41790000Y-83338748D01*
X45338748Y-85410000D02*
X45861252Y-85410000D01*
X45338748Y-83990000D02*
X45861252Y-83990000D01*
X45338748Y-83410000D02*
X45861252Y-83410000D01*
X45338748Y-81990000D02*
X45861252Y-81990000D01*
X45338748Y-81410000D02*
X45861252Y-81410000D01*
X45338748Y-79990000D02*
X45861252Y-79990000D01*
X59700000Y-85400000D02*
X69700000Y-85400000D01*
X59700000Y-95800000D02*
X59700000Y-85400000D01*
X69700000Y-95800000D02*
X59700000Y-95800000D01*
X69700000Y-85400000D02*
X69700000Y-95800000D01*
X59700000Y-98420000D02*
X69700000Y-98420000D01*
X59700000Y-108820000D02*
X59700000Y-98420000D01*
X69700000Y-108820000D02*
X59700000Y-108820000D01*
X69700000Y-98420000D02*
X69700000Y-108820000D01*
X44326000Y-43382000D02*
X44326000Y-44842000D01*
X41166000Y-43382000D02*
X41166000Y-45542000D01*
X41166000Y-43382000D02*
X42096000Y-43382000D01*
X44326000Y-43382000D02*
X43396000Y-43382000D01*
X48758750Y-50743750D02*
X49546250Y-50743750D01*
X49152500Y-51137500D02*
X49152500Y-50350000D01*
X53345563Y-50110000D02*
X54410000Y-49045563D01*
X48654437Y-50110000D02*
X47590000Y-49045563D01*
X48654437Y-50110000D02*
X49940000Y-50110000D01*
X53345563Y-50110000D02*
X52060000Y-50110000D01*
X54410000Y-49045563D02*
X54410000Y-43290000D01*
X47590000Y-49045563D02*
X47590000Y-43290000D01*
X47590000Y-43290000D02*
X49940000Y-43290000D01*
X54410000Y-43290000D02*
X52060000Y-43290000D01*
X44861252Y-46890000D02*
X44338748Y-46890000D01*
X44861252Y-48310000D02*
X44338748Y-48310000D01*
X41061252Y-46890000D02*
X40538748Y-46890000D01*
X41061252Y-48310000D02*
X40538748Y-48310000D01*
X38510000Y-73961252D02*
X38510000Y-73438748D01*
X37090000Y-73961252D02*
X37090000Y-73438748D01*
X37090000Y-84838748D02*
X37090000Y-85361252D01*
X38510000Y-84838748D02*
X38510000Y-85361252D01*
X37090000Y-92438748D02*
X37090000Y-92961252D01*
X38510000Y-92438748D02*
X38510000Y-92961252D01*
X38510000Y-77761252D02*
X38510000Y-77238748D01*
X37090000Y-77761252D02*
X37090000Y-77238748D01*
X37090000Y-81038748D02*
X37090000Y-81561252D01*
X38510000Y-81038748D02*
X38510000Y-81561252D01*
X37090000Y-88638748D02*
X37090000Y-89161252D01*
X38510000Y-88638748D02*
X38510000Y-89161252D01*
D11*
X70000000Y-82000000D02*
X70000000Y-42000000D01*
X60000000Y-42000000D02*
X70000000Y-42000000D01*
X60000000Y-82000000D02*
X60000000Y-42000000D01*
X70000000Y-82000000D02*
X60000000Y-82000000D01*
X68171700Y-71800000D02*
X69977640Y-71800000D01*
X68171700Y-73250000D02*
X68171700Y-71800000D01*
X69992880Y-73250000D02*
X68171700Y-73250000D01*
X69992880Y-52200000D02*
X68171700Y-52200000D01*
X68171700Y-52200000D02*
X68171700Y-50750000D01*
X68171700Y-50750000D02*
X69977640Y-50750000D01*
X69947160Y-71827260D02*
X69959860Y-71822180D01*
X68176780Y-73249660D02*
X69947160Y-71827260D01*
X69970020Y-73254740D02*
X68202180Y-71834880D01*
X68199640Y-52175280D02*
X69937000Y-50785900D01*
X69982720Y-52198140D02*
X68222500Y-50785900D01*
X14890000Y-58600000D02*
X29470000Y-58600000D01*
X14890000Y-89400000D02*
X14890000Y-58600000D01*
X29470000Y-89400000D02*
X14890000Y-89400000D01*
X29470000Y-89400000D02*
X29470000Y-58600000D01*
D12*
X38790000Y-43838748D02*
X38790000Y-44361252D01*
X40210000Y-43838748D02*
X40210000Y-44361252D01*
X44861252Y-48890000D02*
X44338748Y-48890000D01*
X44861252Y-50310000D02*
X44338748Y-50310000D01*
X39161252Y-51990000D02*
X38638748Y-51990000D01*
X39161252Y-53410000D02*
X38638748Y-53410000D01*
X48990000Y-74738748D02*
X48990000Y-75261252D01*
X50410000Y-74738748D02*
X50410000Y-75261252D01*
X44638748Y-91410000D02*
X45161252Y-91410000D01*
X44638748Y-89990000D02*
X45161252Y-89990000D01*
X38790000Y-63038748D02*
X38790000Y-63561252D01*
X40210000Y-63038748D02*
X40210000Y-63561252D01*
X40210000Y-59661252D02*
X40210000Y-59138748D01*
X38790000Y-59661252D02*
X38790000Y-59138748D01*
X29861252Y-45490000D02*
X29338748Y-45490000D01*
X29861252Y-46910000D02*
X29338748Y-46910000D01*
X29861252Y-47490000D02*
X29338748Y-47490000D01*
X29861252Y-48910000D02*
X29338748Y-48910000D01*
X34680000Y-54090000D02*
X32250000Y-54090000D01*
X32920000Y-57160000D02*
X34680000Y-57160000D01*
X39680000Y-54090000D02*
X37250000Y-54090000D01*
X37920000Y-57160000D02*
X39680000Y-57160000D01*
X45000000Y-62340000D02*
X41550000Y-62340000D01*
X45000000Y-62340000D02*
X46950000Y-62340000D01*
X45000000Y-67460000D02*
X43050000Y-67460000D01*
X45000000Y-67460000D02*
X46950000Y-67460000D01*
D11*
X28950000Y-105760000D02*
X25450000Y-105760000D01*
X28950000Y-102605000D02*
X28950000Y-108760000D01*
X36400000Y-102605000D02*
X28950000Y-102605000D01*
X36400000Y-59105000D02*
X36400000Y-102605000D01*
X28950000Y-59105000D02*
X36400000Y-59105000D01*
X28950000Y-59105000D02*
X28950000Y-53490000D01*
X25450000Y-56490000D02*
X28950000Y-56490000D01*
X25450000Y-108760000D02*
X25450000Y-53490000D01*
X28950000Y-108760000D02*
X25450000Y-108760000D01*
X25450000Y-53490000D02*
X28950000Y-53490000D01*
X28947880Y-105759700D02*
X25455380Y-108746740D01*
X25442680Y-105767320D02*
X28945340Y-108756900D01*
X28940260Y-53500720D02*
X25460460Y-56472520D01*
X25457920Y-53508340D02*
X28925020Y-56475060D01*
D12*
X45261252Y-67940000D02*
X44738748Y-67940000D01*
X45261252Y-69360000D02*
X44738748Y-69360000D01*
X45261252Y-69990000D02*
X44738748Y-69990000D01*
X45261252Y-71410000D02*
X44738748Y-71410000D01*
X34061252Y-51990000D02*
X33538748Y-51990000D01*
X34061252Y-53410000D02*
X33538748Y-53410000D01*
D11*
X44138095Y-84852380D02*
X44138095Y-85661904D01*
X44185714Y-85757142D01*
X44233333Y-85804761D01*
X44328571Y-85852380D01*
X44519047Y-85852380D01*
X44614285Y-85804761D01*
X44661904Y-85757142D01*
X44709523Y-85661904D01*
X44709523Y-84852380D01*
X45138095Y-84947619D02*
X45185714Y-84900000D01*
X45280952Y-84852380D01*
X45519047Y-84852380D01*
X45614285Y-84900000D01*
X45661904Y-84947619D01*
X45709523Y-85042857D01*
X45709523Y-85138095D01*
X45661904Y-85280952D01*
X45090476Y-85852380D01*
X45709523Y-85852380D01*
X60052380Y-54392857D02*
X59576190Y-54726190D01*
X60052380Y-54964285D02*
X59052380Y-54964285D01*
X59052380Y-54583333D01*
X59100000Y-54488095D01*
X59147619Y-54440476D01*
X59242857Y-54392857D01*
X59385714Y-54392857D01*
X59480952Y-54440476D01*
X59528571Y-54488095D01*
X59576190Y-54583333D01*
X59576190Y-54964285D01*
X60052380Y-53440476D02*
X60052380Y-54011904D01*
X60052380Y-53726190D02*
X59052380Y-53726190D01*
X59195238Y-53821428D01*
X59290476Y-53916666D01*
X59338095Y-54011904D01*
X60052380Y-52488095D02*
X60052380Y-53059523D01*
X60052380Y-52773809D02*
X59052380Y-52773809D01*
X59195238Y-52869047D01*
X59290476Y-52964285D01*
X59338095Y-53059523D01*
X59802380Y-67342857D02*
X59326190Y-67676190D01*
X59802380Y-67914285D02*
X58802380Y-67914285D01*
X58802380Y-67533333D01*
X58850000Y-67438095D01*
X58897619Y-67390476D01*
X58992857Y-67342857D01*
X59135714Y-67342857D01*
X59230952Y-67390476D01*
X59278571Y-67438095D01*
X59326190Y-67533333D01*
X59326190Y-67914285D01*
X59802380Y-66390476D02*
X59802380Y-66961904D01*
X59802380Y-66676190D02*
X58802380Y-66676190D01*
X58945238Y-66771428D01*
X59040476Y-66866666D01*
X59088095Y-66961904D01*
X58802380Y-65771428D02*
X58802380Y-65676190D01*
X58850000Y-65580952D01*
X58897619Y-65533333D01*
X58992857Y-65485714D01*
X59183333Y-65438095D01*
X59421428Y-65438095D01*
X59611904Y-65485714D01*
X59707142Y-65533333D01*
X59754761Y-65580952D01*
X59802380Y-65676190D01*
X59802380Y-65771428D01*
X59754761Y-65866666D01*
X59707142Y-65914285D01*
X59611904Y-65961904D01*
X59421428Y-66009523D01*
X59183333Y-66009523D01*
X58992857Y-65961904D01*
X58897619Y-65914285D01*
X58850000Y-65866666D01*
X58802380Y-65771428D01*
X56402380Y-76566666D02*
X55926190Y-76900000D01*
X56402380Y-77138095D02*
X55402380Y-77138095D01*
X55402380Y-76757142D01*
X55450000Y-76661904D01*
X55497619Y-76614285D01*
X55592857Y-76566666D01*
X55735714Y-76566666D01*
X55830952Y-76614285D01*
X55878571Y-76661904D01*
X55926190Y-76757142D01*
X55926190Y-77138095D01*
X56402380Y-76090476D02*
X56402380Y-75900000D01*
X56354761Y-75804761D01*
X56307142Y-75757142D01*
X56164285Y-75661904D01*
X55973809Y-75614285D01*
X55592857Y-75614285D01*
X55497619Y-75661904D01*
X55450000Y-75709523D01*
X55402380Y-75804761D01*
X55402380Y-75995238D01*
X55450000Y-76090476D01*
X55497619Y-76138095D01*
X55592857Y-76185714D01*
X55830952Y-76185714D01*
X55926190Y-76138095D01*
X55973809Y-76090476D01*
X56021428Y-75995238D01*
X56021428Y-75804761D01*
X55973809Y-75709523D01*
X55926190Y-75661904D01*
X55830952Y-75614285D01*
X57702380Y-66866666D02*
X57226190Y-67200000D01*
X57702380Y-67438095D02*
X56702380Y-67438095D01*
X56702380Y-67057142D01*
X56750000Y-66961904D01*
X56797619Y-66914285D01*
X56892857Y-66866666D01*
X57035714Y-66866666D01*
X57130952Y-66914285D01*
X57178571Y-66961904D01*
X57226190Y-67057142D01*
X57226190Y-67438095D01*
X57130952Y-66295238D02*
X57083333Y-66390476D01*
X57035714Y-66438095D01*
X56940476Y-66485714D01*
X56892857Y-66485714D01*
X56797619Y-66438095D01*
X56750000Y-66390476D01*
X56702380Y-66295238D01*
X56702380Y-66104761D01*
X56750000Y-66009523D01*
X56797619Y-65961904D01*
X56892857Y-65914285D01*
X56940476Y-65914285D01*
X57035714Y-65961904D01*
X57083333Y-66009523D01*
X57130952Y-66104761D01*
X57130952Y-66295238D01*
X57178571Y-66390476D01*
X57226190Y-66438095D01*
X57321428Y-66485714D01*
X57511904Y-66485714D01*
X57607142Y-66438095D01*
X57654761Y-66390476D01*
X57702380Y-66295238D01*
X57702380Y-66104761D01*
X57654761Y-66009523D01*
X57607142Y-65961904D01*
X57511904Y-65914285D01*
X57321428Y-65914285D01*
X57226190Y-65961904D01*
X57178571Y-66009523D01*
X57130952Y-66104761D01*
X46752380Y-57833333D02*
X47466666Y-57833333D01*
X47609523Y-57880952D01*
X47704761Y-57976190D01*
X47752380Y-58119047D01*
X47752380Y-58214285D01*
X47752380Y-57357142D02*
X46752380Y-57357142D01*
X46752380Y-56976190D01*
X46800000Y-56880952D01*
X46847619Y-56833333D01*
X46942857Y-56785714D01*
X47085714Y-56785714D01*
X47180952Y-56833333D01*
X47228571Y-56880952D01*
X47276190Y-56976190D01*
X47276190Y-57357142D01*
X47752380Y-55833333D02*
X47752380Y-56404761D01*
X47752380Y-56119047D02*
X46752380Y-56119047D01*
X46895238Y-56214285D01*
X46990476Y-56309523D01*
X47038095Y-56404761D01*
X54552380Y-78961904D02*
X55361904Y-78961904D01*
X55457142Y-78914285D01*
X55504761Y-78866666D01*
X55552380Y-78771428D01*
X55552380Y-78580952D01*
X55504761Y-78485714D01*
X55457142Y-78438095D01*
X55361904Y-78390476D01*
X54552380Y-78390476D01*
X54552380Y-78009523D02*
X54552380Y-77390476D01*
X54933333Y-77723809D01*
X54933333Y-77580952D01*
X54980952Y-77485714D01*
X55028571Y-77438095D01*
X55123809Y-77390476D01*
X55361904Y-77390476D01*
X55457142Y-77438095D01*
X55504761Y-77485714D01*
X55552380Y-77580952D01*
X55552380Y-77866666D01*
X55504761Y-77961904D01*
X55457142Y-78009523D01*
X41357142Y-73166666D02*
X41404761Y-73214285D01*
X41452380Y-73357142D01*
X41452380Y-73452380D01*
X41404761Y-73595238D01*
X41309523Y-73690476D01*
X41214285Y-73738095D01*
X41023809Y-73785714D01*
X40880952Y-73785714D01*
X40690476Y-73738095D01*
X40595238Y-73690476D01*
X40500000Y-73595238D01*
X40452380Y-73452380D01*
X40452380Y-73357142D01*
X40500000Y-73214285D01*
X40547619Y-73166666D01*
X40785714Y-72309523D02*
X41452380Y-72309523D01*
X40404761Y-72547619D02*
X41119047Y-72785714D01*
X41119047Y-72166666D01*
X43238095Y-74552380D02*
X43238095Y-75361904D01*
X43285714Y-75457142D01*
X43333333Y-75504761D01*
X43428571Y-75552380D01*
X43619047Y-75552380D01*
X43714285Y-75504761D01*
X43761904Y-75457142D01*
X43809523Y-75361904D01*
X43809523Y-74552380D01*
X44714285Y-74885714D02*
X44714285Y-75552380D01*
X44476190Y-74504761D02*
X44238095Y-75219047D01*
X44857142Y-75219047D01*
X53652380Y-68442857D02*
X53176190Y-68776190D01*
X53652380Y-69014285D02*
X52652380Y-69014285D01*
X52652380Y-68633333D01*
X52700000Y-68538095D01*
X52747619Y-68490476D01*
X52842857Y-68442857D01*
X52985714Y-68442857D01*
X53080952Y-68490476D01*
X53128571Y-68538095D01*
X53176190Y-68633333D01*
X53176190Y-69014285D01*
X52747619Y-68061904D02*
X52700000Y-68014285D01*
X52652380Y-67919047D01*
X52652380Y-67680952D01*
X52700000Y-67585714D01*
X52747619Y-67538095D01*
X52842857Y-67490476D01*
X52938095Y-67490476D01*
X53080952Y-67538095D01*
X53652380Y-68109523D01*
X53652380Y-67490476D01*
X53080952Y-66919047D02*
X53033333Y-67014285D01*
X52985714Y-67061904D01*
X52890476Y-67109523D01*
X52842857Y-67109523D01*
X52747619Y-67061904D01*
X52700000Y-67014285D01*
X52652380Y-66919047D01*
X52652380Y-66728571D01*
X52700000Y-66633333D01*
X52747619Y-66585714D01*
X52842857Y-66538095D01*
X52890476Y-66538095D01*
X52985714Y-66585714D01*
X53033333Y-66633333D01*
X53080952Y-66728571D01*
X53080952Y-66919047D01*
X53128571Y-67014285D01*
X53176190Y-67061904D01*
X53271428Y-67109523D01*
X53461904Y-67109523D01*
X53557142Y-67061904D01*
X53604761Y-67014285D01*
X53652380Y-66919047D01*
X53652380Y-66728571D01*
X53604761Y-66633333D01*
X53557142Y-66585714D01*
X53461904Y-66538095D01*
X53271428Y-66538095D01*
X53176190Y-66585714D01*
X53128571Y-66633333D01*
X53080952Y-66728571D01*
X54852380Y-68442857D02*
X54376190Y-68776190D01*
X54852380Y-69014285D02*
X53852380Y-69014285D01*
X53852380Y-68633333D01*
X53900000Y-68538095D01*
X53947619Y-68490476D01*
X54042857Y-68442857D01*
X54185714Y-68442857D01*
X54280952Y-68490476D01*
X54328571Y-68538095D01*
X54376190Y-68633333D01*
X54376190Y-69014285D01*
X53947619Y-68061904D02*
X53900000Y-68014285D01*
X53852380Y-67919047D01*
X53852380Y-67680952D01*
X53900000Y-67585714D01*
X53947619Y-67538095D01*
X54042857Y-67490476D01*
X54138095Y-67490476D01*
X54280952Y-67538095D01*
X54852380Y-68109523D01*
X54852380Y-67490476D01*
X53852380Y-67157142D02*
X53852380Y-66490476D01*
X54852380Y-66919047D01*
X52452380Y-68442857D02*
X51976190Y-68776190D01*
X52452380Y-69014285D02*
X51452380Y-69014285D01*
X51452380Y-68633333D01*
X51500000Y-68538095D01*
X51547619Y-68490476D01*
X51642857Y-68442857D01*
X51785714Y-68442857D01*
X51880952Y-68490476D01*
X51928571Y-68538095D01*
X51976190Y-68633333D01*
X51976190Y-69014285D01*
X51547619Y-68061904D02*
X51500000Y-68014285D01*
X51452380Y-67919047D01*
X51452380Y-67680952D01*
X51500000Y-67585714D01*
X51547619Y-67538095D01*
X51642857Y-67490476D01*
X51738095Y-67490476D01*
X51880952Y-67538095D01*
X52452380Y-68109523D01*
X52452380Y-67490476D01*
X51452380Y-66633333D02*
X51452380Y-66823809D01*
X51500000Y-66919047D01*
X51547619Y-66966666D01*
X51690476Y-67061904D01*
X51880952Y-67109523D01*
X52261904Y-67109523D01*
X52357142Y-67061904D01*
X52404761Y-67014285D01*
X52452380Y-66919047D01*
X52452380Y-66728571D01*
X52404761Y-66633333D01*
X52357142Y-66585714D01*
X52261904Y-66538095D01*
X52023809Y-66538095D01*
X51928571Y-66585714D01*
X51880952Y-66633333D01*
X51833333Y-66728571D01*
X51833333Y-66919047D01*
X51880952Y-67014285D01*
X51928571Y-67061904D01*
X52023809Y-67109523D01*
X50952380Y-68442857D02*
X50476190Y-68776190D01*
X50952380Y-69014285D02*
X49952380Y-69014285D01*
X49952380Y-68633333D01*
X50000000Y-68538095D01*
X50047619Y-68490476D01*
X50142857Y-68442857D01*
X50285714Y-68442857D01*
X50380952Y-68490476D01*
X50428571Y-68538095D01*
X50476190Y-68633333D01*
X50476190Y-69014285D01*
X50047619Y-68061904D02*
X50000000Y-68014285D01*
X49952380Y-67919047D01*
X49952380Y-67680952D01*
X50000000Y-67585714D01*
X50047619Y-67538095D01*
X50142857Y-67490476D01*
X50238095Y-67490476D01*
X50380952Y-67538095D01*
X50952380Y-68109523D01*
X50952380Y-67490476D01*
X49952380Y-66585714D02*
X49952380Y-67061904D01*
X50428571Y-67109523D01*
X50380952Y-67061904D01*
X50333333Y-66966666D01*
X50333333Y-66728571D01*
X50380952Y-66633333D01*
X50428571Y-66585714D01*
X50523809Y-66538095D01*
X50761904Y-66538095D01*
X50857142Y-66585714D01*
X50904761Y-66633333D01*
X50952380Y-66728571D01*
X50952380Y-66966666D01*
X50904761Y-67061904D01*
X50857142Y-67109523D01*
X49752380Y-68442857D02*
X49276190Y-68776190D01*
X49752380Y-69014285D02*
X48752380Y-69014285D01*
X48752380Y-68633333D01*
X48800000Y-68538095D01*
X48847619Y-68490476D01*
X48942857Y-68442857D01*
X49085714Y-68442857D01*
X49180952Y-68490476D01*
X49228571Y-68538095D01*
X49276190Y-68633333D01*
X49276190Y-69014285D01*
X48847619Y-68061904D02*
X48800000Y-68014285D01*
X48752380Y-67919047D01*
X48752380Y-67680952D01*
X48800000Y-67585714D01*
X48847619Y-67538095D01*
X48942857Y-67490476D01*
X49038095Y-67490476D01*
X49180952Y-67538095D01*
X49752380Y-68109523D01*
X49752380Y-67490476D01*
X49085714Y-66633333D02*
X49752380Y-66633333D01*
X48704761Y-66871428D02*
X49419047Y-67109523D01*
X49419047Y-66490476D01*
X48652380Y-79542857D02*
X48176190Y-79876190D01*
X48652380Y-80114285D02*
X47652380Y-80114285D01*
X47652380Y-79733333D01*
X47700000Y-79638095D01*
X47747619Y-79590476D01*
X47842857Y-79542857D01*
X47985714Y-79542857D01*
X48080952Y-79590476D01*
X48128571Y-79638095D01*
X48176190Y-79733333D01*
X48176190Y-80114285D01*
X48652380Y-78590476D02*
X48652380Y-79161904D01*
X48652380Y-78876190D02*
X47652380Y-78876190D01*
X47795238Y-78971428D01*
X47890476Y-79066666D01*
X47938095Y-79161904D01*
X47985714Y-77733333D02*
X48652380Y-77733333D01*
X47604761Y-77971428D02*
X48319047Y-78209523D01*
X48319047Y-77590476D01*
X56652380Y-87142857D02*
X56176190Y-87476190D01*
X56652380Y-87714285D02*
X55652380Y-87714285D01*
X55652380Y-87333333D01*
X55700000Y-87238095D01*
X55747619Y-87190476D01*
X55842857Y-87142857D01*
X55985714Y-87142857D01*
X56080952Y-87190476D01*
X56128571Y-87238095D01*
X56176190Y-87333333D01*
X56176190Y-87714285D01*
X56652380Y-86190476D02*
X56652380Y-86761904D01*
X56652380Y-86476190D02*
X55652380Y-86476190D01*
X55795238Y-86571428D01*
X55890476Y-86666666D01*
X55938095Y-86761904D01*
X55652380Y-85857142D02*
X55652380Y-85238095D01*
X56033333Y-85571428D01*
X56033333Y-85428571D01*
X56080952Y-85333333D01*
X56128571Y-85285714D01*
X56223809Y-85238095D01*
X56461904Y-85238095D01*
X56557142Y-85285714D01*
X56604761Y-85333333D01*
X56652380Y-85428571D01*
X56652380Y-85714285D01*
X56604761Y-85809523D01*
X56557142Y-85857142D01*
X54652380Y-87142857D02*
X54176190Y-87476190D01*
X54652380Y-87714285D02*
X53652380Y-87714285D01*
X53652380Y-87333333D01*
X53700000Y-87238095D01*
X53747619Y-87190476D01*
X53842857Y-87142857D01*
X53985714Y-87142857D01*
X54080952Y-87190476D01*
X54128571Y-87238095D01*
X54176190Y-87333333D01*
X54176190Y-87714285D01*
X54652380Y-86190476D02*
X54652380Y-86761904D01*
X54652380Y-86476190D02*
X53652380Y-86476190D01*
X53795238Y-86571428D01*
X53890476Y-86666666D01*
X53938095Y-86761904D01*
X53747619Y-85809523D02*
X53700000Y-85761904D01*
X53652380Y-85666666D01*
X53652380Y-85428571D01*
X53700000Y-85333333D01*
X53747619Y-85285714D01*
X53842857Y-85238095D01*
X53938095Y-85238095D01*
X54080952Y-85285714D01*
X54652380Y-85857142D01*
X54652380Y-85238095D01*
X52652380Y-86266666D02*
X52176190Y-86600000D01*
X52652380Y-86838095D02*
X51652380Y-86838095D01*
X51652380Y-86457142D01*
X51700000Y-86361904D01*
X51747619Y-86314285D01*
X51842857Y-86266666D01*
X51985714Y-86266666D01*
X52080952Y-86314285D01*
X52128571Y-86361904D01*
X52176190Y-86457142D01*
X52176190Y-86838095D01*
X51652380Y-85933333D02*
X51652380Y-85266666D01*
X52652380Y-85695238D01*
X50752380Y-86266666D02*
X50276190Y-86600000D01*
X50752380Y-86838095D02*
X49752380Y-86838095D01*
X49752380Y-86457142D01*
X49800000Y-86361904D01*
X49847619Y-86314285D01*
X49942857Y-86266666D01*
X50085714Y-86266666D01*
X50180952Y-86314285D01*
X50228571Y-86361904D01*
X50276190Y-86457142D01*
X50276190Y-86838095D01*
X49752380Y-85409523D02*
X49752380Y-85600000D01*
X49800000Y-85695238D01*
X49847619Y-85742857D01*
X49990476Y-85838095D01*
X50180952Y-85885714D01*
X50561904Y-85885714D01*
X50657142Y-85838095D01*
X50704761Y-85790476D01*
X50752380Y-85695238D01*
X50752380Y-85504761D01*
X50704761Y-85409523D01*
X50657142Y-85361904D01*
X50561904Y-85314285D01*
X50323809Y-85314285D01*
X50228571Y-85361904D01*
X50180952Y-85409523D01*
X50133333Y-85504761D01*
X50133333Y-85695238D01*
X50180952Y-85790476D01*
X50228571Y-85838095D01*
X50323809Y-85885714D01*
X41352380Y-84842857D02*
X40876190Y-85176190D01*
X41352380Y-85414285D02*
X40352380Y-85414285D01*
X40352380Y-85033333D01*
X40400000Y-84938095D01*
X40447619Y-84890476D01*
X40542857Y-84842857D01*
X40685714Y-84842857D01*
X40780952Y-84890476D01*
X40828571Y-84938095D01*
X40876190Y-85033333D01*
X40876190Y-85414285D01*
X40447619Y-84461904D02*
X40400000Y-84414285D01*
X40352380Y-84319047D01*
X40352380Y-84080952D01*
X40400000Y-83985714D01*
X40447619Y-83938095D01*
X40542857Y-83890476D01*
X40638095Y-83890476D01*
X40780952Y-83938095D01*
X41352380Y-84509523D01*
X41352380Y-83890476D01*
X40352380Y-83557142D02*
X40352380Y-82938095D01*
X40733333Y-83271428D01*
X40733333Y-83128571D01*
X40780952Y-83033333D01*
X40828571Y-82985714D01*
X40923809Y-82938095D01*
X41161904Y-82938095D01*
X41257142Y-82985714D01*
X41304761Y-83033333D01*
X41352380Y-83128571D01*
X41352380Y-83414285D01*
X41304761Y-83509523D01*
X41257142Y-83557142D01*
X45657142Y-79752380D02*
X45323809Y-79276190D01*
X45085714Y-79752380D02*
X45085714Y-78752380D01*
X45466666Y-78752380D01*
X45561904Y-78800000D01*
X45609523Y-78847619D01*
X45657142Y-78942857D01*
X45657142Y-79085714D01*
X45609523Y-79180952D01*
X45561904Y-79228571D01*
X45466666Y-79276190D01*
X45085714Y-79276190D01*
X46038095Y-78847619D02*
X46085714Y-78800000D01*
X46180952Y-78752380D01*
X46419047Y-78752380D01*
X46514285Y-78800000D01*
X46561904Y-78847619D01*
X46609523Y-78942857D01*
X46609523Y-79038095D01*
X46561904Y-79180952D01*
X45990476Y-79752380D01*
X46609523Y-79752380D01*
X46990476Y-78847619D02*
X47038095Y-78800000D01*
X47133333Y-78752380D01*
X47371428Y-78752380D01*
X47466666Y-78800000D01*
X47514285Y-78847619D01*
X47561904Y-78942857D01*
X47561904Y-79038095D01*
X47514285Y-79180952D01*
X46942857Y-79752380D01*
X47561904Y-79752380D01*
X45657142Y-78552380D02*
X45323809Y-78076190D01*
X45085714Y-78552380D02*
X45085714Y-77552380D01*
X45466666Y-77552380D01*
X45561904Y-77600000D01*
X45609523Y-77647619D01*
X45657142Y-77742857D01*
X45657142Y-77885714D01*
X45609523Y-77980952D01*
X45561904Y-78028571D01*
X45466666Y-78076190D01*
X45085714Y-78076190D01*
X46038095Y-77647619D02*
X46085714Y-77600000D01*
X46180952Y-77552380D01*
X46419047Y-77552380D01*
X46514285Y-77600000D01*
X46561904Y-77647619D01*
X46609523Y-77742857D01*
X46609523Y-77838095D01*
X46561904Y-77980952D01*
X45990476Y-78552380D01*
X46609523Y-78552380D01*
X47561904Y-78552380D02*
X46990476Y-78552380D01*
X47276190Y-78552380D02*
X47276190Y-77552380D01*
X47180952Y-77695238D01*
X47085714Y-77790476D01*
X46990476Y-77838095D01*
X45657142Y-77352380D02*
X45323809Y-76876190D01*
X45085714Y-77352380D02*
X45085714Y-76352380D01*
X45466666Y-76352380D01*
X45561904Y-76400000D01*
X45609523Y-76447619D01*
X45657142Y-76542857D01*
X45657142Y-76685714D01*
X45609523Y-76780952D01*
X45561904Y-76828571D01*
X45466666Y-76876190D01*
X45085714Y-76876190D01*
X46038095Y-76447619D02*
X46085714Y-76400000D01*
X46180952Y-76352380D01*
X46419047Y-76352380D01*
X46514285Y-76400000D01*
X46561904Y-76447619D01*
X46609523Y-76542857D01*
X46609523Y-76638095D01*
X46561904Y-76780952D01*
X45990476Y-77352380D01*
X46609523Y-77352380D01*
X47228571Y-76352380D02*
X47323809Y-76352380D01*
X47419047Y-76400000D01*
X47466666Y-76447619D01*
X47514285Y-76542857D01*
X47561904Y-76733333D01*
X47561904Y-76971428D01*
X47514285Y-77161904D01*
X47466666Y-77257142D01*
X47419047Y-77304761D01*
X47323809Y-77352380D01*
X47228571Y-77352380D01*
X47133333Y-77304761D01*
X47085714Y-77257142D01*
X47038095Y-77161904D01*
X46990476Y-76971428D01*
X46990476Y-76733333D01*
X47038095Y-76542857D01*
X47085714Y-76447619D01*
X47133333Y-76400000D01*
X47228571Y-76352380D01*
X71692380Y-88893333D02*
X72406666Y-88893333D01*
X72549523Y-88940952D01*
X72644761Y-89036190D01*
X72692380Y-89179047D01*
X72692380Y-89274285D01*
X72692380Y-87845714D02*
X72216190Y-88179047D01*
X72692380Y-88417142D02*
X71692380Y-88417142D01*
X71692380Y-88036190D01*
X71740000Y-87940952D01*
X71787619Y-87893333D01*
X71882857Y-87845714D01*
X72025714Y-87845714D01*
X72120952Y-87893333D01*
X72168571Y-87940952D01*
X72216190Y-88036190D01*
X72216190Y-88417142D01*
X72692380Y-86893333D02*
X72692380Y-87464761D01*
X72692380Y-87179047D02*
X71692380Y-87179047D01*
X71835238Y-87274285D01*
X71930476Y-87369523D01*
X71978095Y-87464761D01*
X71692380Y-101937142D02*
X72406666Y-101937142D01*
X72549523Y-101984761D01*
X72644761Y-102080000D01*
X72692380Y-102222857D01*
X72692380Y-102318095D01*
X71692380Y-101460952D02*
X72501904Y-101460952D01*
X72597142Y-101413333D01*
X72644761Y-101365714D01*
X72692380Y-101270476D01*
X72692380Y-101080000D01*
X72644761Y-100984761D01*
X72597142Y-100937142D01*
X72501904Y-100889523D01*
X71692380Y-100889523D01*
X72692380Y-99889523D02*
X72692380Y-100460952D01*
X72692380Y-100175238D02*
X71692380Y-100175238D01*
X71835238Y-100270476D01*
X71930476Y-100365714D01*
X71978095Y-100460952D01*
X40538095Y-41502380D02*
X40538095Y-42311904D01*
X40585714Y-42407142D01*
X40633333Y-42454761D01*
X40728571Y-42502380D01*
X40919047Y-42502380D01*
X41014285Y-42454761D01*
X41061904Y-42407142D01*
X41109523Y-42311904D01*
X41109523Y-41502380D01*
X42109523Y-42502380D02*
X41538095Y-42502380D01*
X41823809Y-42502380D02*
X41823809Y-41502380D01*
X41728571Y-41645238D01*
X41633333Y-41740476D01*
X41538095Y-41788095D01*
X48133333Y-42957142D02*
X48085714Y-43004761D01*
X47942857Y-43052380D01*
X47847619Y-43052380D01*
X47704761Y-43004761D01*
X47609523Y-42909523D01*
X47561904Y-42814285D01*
X47514285Y-42623809D01*
X47514285Y-42480952D01*
X47561904Y-42290476D01*
X47609523Y-42195238D01*
X47704761Y-42100000D01*
X47847619Y-42052380D01*
X47942857Y-42052380D01*
X48085714Y-42100000D01*
X48133333Y-42147619D01*
X48466666Y-42052380D02*
X49133333Y-42052380D01*
X48704761Y-43052380D01*
X45033333Y-46552380D02*
X44700000Y-46076190D01*
X44461904Y-46552380D02*
X44461904Y-45552380D01*
X44842857Y-45552380D01*
X44938095Y-45600000D01*
X44985714Y-45647619D01*
X45033333Y-45742857D01*
X45033333Y-45885714D01*
X44985714Y-45980952D01*
X44938095Y-46028571D01*
X44842857Y-46076190D01*
X44461904Y-46076190D01*
X45985714Y-46552380D02*
X45414285Y-46552380D01*
X45700000Y-46552380D02*
X45700000Y-45552380D01*
X45604761Y-45695238D01*
X45509523Y-45790476D01*
X45414285Y-45838095D01*
X40633333Y-46702380D02*
X40300000Y-46226190D01*
X40061904Y-46702380D02*
X40061904Y-45702380D01*
X40442857Y-45702380D01*
X40538095Y-45750000D01*
X40585714Y-45797619D01*
X40633333Y-45892857D01*
X40633333Y-46035714D01*
X40585714Y-46130952D01*
X40538095Y-46178571D01*
X40442857Y-46226190D01*
X40061904Y-46226190D01*
X41014285Y-45797619D02*
X41061904Y-45750000D01*
X41157142Y-45702380D01*
X41395238Y-45702380D01*
X41490476Y-45750000D01*
X41538095Y-45797619D01*
X41585714Y-45892857D01*
X41585714Y-45988095D01*
X41538095Y-46130952D01*
X40966666Y-46702380D01*
X41585714Y-46702380D01*
X39852380Y-73166666D02*
X39376190Y-73500000D01*
X39852380Y-73738095D02*
X38852380Y-73738095D01*
X38852380Y-73357142D01*
X38900000Y-73261904D01*
X38947619Y-73214285D01*
X39042857Y-73166666D01*
X39185714Y-73166666D01*
X39280952Y-73214285D01*
X39328571Y-73261904D01*
X39376190Y-73357142D01*
X39376190Y-73738095D01*
X38852380Y-72833333D02*
X38852380Y-72214285D01*
X39233333Y-72547619D01*
X39233333Y-72404761D01*
X39280952Y-72309523D01*
X39328571Y-72261904D01*
X39423809Y-72214285D01*
X39661904Y-72214285D01*
X39757142Y-72261904D01*
X39804761Y-72309523D01*
X39852380Y-72404761D01*
X39852380Y-72690476D01*
X39804761Y-72785714D01*
X39757142Y-72833333D01*
X39902380Y-85266666D02*
X39426190Y-85600000D01*
X39902380Y-85838095D02*
X38902380Y-85838095D01*
X38902380Y-85457142D01*
X38950000Y-85361904D01*
X38997619Y-85314285D01*
X39092857Y-85266666D01*
X39235714Y-85266666D01*
X39330952Y-85314285D01*
X39378571Y-85361904D01*
X39426190Y-85457142D01*
X39426190Y-85838095D01*
X39235714Y-84409523D02*
X39902380Y-84409523D01*
X38854761Y-84647619D02*
X39569047Y-84885714D01*
X39569047Y-84266666D01*
X39902380Y-92866666D02*
X39426190Y-93200000D01*
X39902380Y-93438095D02*
X38902380Y-93438095D01*
X38902380Y-93057142D01*
X38950000Y-92961904D01*
X38997619Y-92914285D01*
X39092857Y-92866666D01*
X39235714Y-92866666D01*
X39330952Y-92914285D01*
X39378571Y-92961904D01*
X39426190Y-93057142D01*
X39426190Y-93438095D01*
X38902380Y-91961904D02*
X38902380Y-92438095D01*
X39378571Y-92485714D01*
X39330952Y-92438095D01*
X39283333Y-92342857D01*
X39283333Y-92104761D01*
X39330952Y-92009523D01*
X39378571Y-91961904D01*
X39473809Y-91914285D01*
X39711904Y-91914285D01*
X39807142Y-91961904D01*
X39854761Y-92009523D01*
X39902380Y-92104761D01*
X39902380Y-92342857D01*
X39854761Y-92438095D01*
X39807142Y-92485714D01*
X39757142Y-78866666D02*
X39804761Y-78914285D01*
X39852380Y-79057142D01*
X39852380Y-79152380D01*
X39804761Y-79295238D01*
X39709523Y-79390476D01*
X39614285Y-79438095D01*
X39423809Y-79485714D01*
X39280952Y-79485714D01*
X39090476Y-79438095D01*
X38995238Y-79390476D01*
X38900000Y-79295238D01*
X38852380Y-79152380D01*
X38852380Y-79057142D01*
X38900000Y-78914285D01*
X38947619Y-78866666D01*
X39852380Y-77914285D02*
X39852380Y-78485714D01*
X39852380Y-78200000D02*
X38852380Y-78200000D01*
X38995238Y-78295238D01*
X39090476Y-78390476D01*
X39138095Y-78485714D01*
X39657142Y-81466666D02*
X39704761Y-81514285D01*
X39752380Y-81657142D01*
X39752380Y-81752380D01*
X39704761Y-81895238D01*
X39609523Y-81990476D01*
X39514285Y-82038095D01*
X39323809Y-82085714D01*
X39180952Y-82085714D01*
X38990476Y-82038095D01*
X38895238Y-81990476D01*
X38800000Y-81895238D01*
X38752380Y-81752380D01*
X38752380Y-81657142D01*
X38800000Y-81514285D01*
X38847619Y-81466666D01*
X38847619Y-81085714D02*
X38800000Y-81038095D01*
X38752380Y-80942857D01*
X38752380Y-80704761D01*
X38800000Y-80609523D01*
X38847619Y-80561904D01*
X38942857Y-80514285D01*
X39038095Y-80514285D01*
X39180952Y-80561904D01*
X39752380Y-81133333D01*
X39752380Y-80514285D01*
X39657142Y-89066666D02*
X39704761Y-89114285D01*
X39752380Y-89257142D01*
X39752380Y-89352380D01*
X39704761Y-89495238D01*
X39609523Y-89590476D01*
X39514285Y-89638095D01*
X39323809Y-89685714D01*
X39180952Y-89685714D01*
X38990476Y-89638095D01*
X38895238Y-89590476D01*
X38800000Y-89495238D01*
X38752380Y-89352380D01*
X38752380Y-89257142D01*
X38800000Y-89114285D01*
X38847619Y-89066666D01*
X38752380Y-88733333D02*
X38752380Y-88114285D01*
X39133333Y-88447619D01*
X39133333Y-88304761D01*
X39180952Y-88209523D01*
X39228571Y-88161904D01*
X39323809Y-88114285D01*
X39561904Y-88114285D01*
X39657142Y-88161904D01*
X39704761Y-88209523D01*
X39752380Y-88304761D01*
X39752380Y-88590476D01*
X39704761Y-88685714D01*
X39657142Y-88733333D01*
X62085266Y-38737160D02*
X62085266Y-39451446D01*
X62037647Y-39594303D01*
X61942409Y-39689541D01*
X61799552Y-39737160D01*
X61704314Y-39737160D01*
X63037647Y-38737160D02*
X62561457Y-38737160D01*
X62513838Y-39213351D01*
X62561457Y-39165732D01*
X62656695Y-39118113D01*
X62894790Y-39118113D01*
X62990028Y-39165732D01*
X63037647Y-39213351D01*
X63085266Y-39308589D01*
X63085266Y-39546684D01*
X63037647Y-39641922D01*
X62990028Y-39689541D01*
X62894790Y-39737160D01*
X62656695Y-39737160D01*
X62561457Y-39689541D01*
X62513838Y-39641922D01*
X24271746Y-90154660D02*
X24271746Y-90868946D01*
X24224127Y-91011803D01*
X24128889Y-91107041D01*
X23986032Y-91154660D01*
X23890794Y-91154660D01*
X25271746Y-91154660D02*
X24700318Y-91154660D01*
X24986032Y-91154660D02*
X24986032Y-90154660D01*
X24890794Y-90297518D01*
X24795556Y-90392756D01*
X24700318Y-90440375D01*
X38307142Y-44216666D02*
X38354761Y-44264285D01*
X38402380Y-44407142D01*
X38402380Y-44502380D01*
X38354761Y-44645238D01*
X38259523Y-44740476D01*
X38164285Y-44788095D01*
X37973809Y-44835714D01*
X37830952Y-44835714D01*
X37640476Y-44788095D01*
X37545238Y-44740476D01*
X37450000Y-44645238D01*
X37402380Y-44502380D01*
X37402380Y-44407142D01*
X37450000Y-44264285D01*
X37497619Y-44216666D01*
X37830952Y-43645238D02*
X37783333Y-43740476D01*
X37735714Y-43788095D01*
X37640476Y-43835714D01*
X37592857Y-43835714D01*
X37497619Y-43788095D01*
X37450000Y-43740476D01*
X37402380Y-43645238D01*
X37402380Y-43454761D01*
X37450000Y-43359523D01*
X37497619Y-43311904D01*
X37592857Y-43264285D01*
X37640476Y-43264285D01*
X37735714Y-43311904D01*
X37783333Y-43359523D01*
X37830952Y-43454761D01*
X37830952Y-43645238D01*
X37878571Y-43740476D01*
X37926190Y-43788095D01*
X38021428Y-43835714D01*
X38211904Y-43835714D01*
X38307142Y-43788095D01*
X38354761Y-43740476D01*
X38402380Y-43645238D01*
X38402380Y-43454761D01*
X38354761Y-43359523D01*
X38307142Y-43311904D01*
X38211904Y-43264285D01*
X38021428Y-43264285D01*
X37926190Y-43311904D01*
X37878571Y-43359523D01*
X37830952Y-43454761D01*
X44433333Y-51607142D02*
X44385714Y-51654761D01*
X44242857Y-51702380D01*
X44147619Y-51702380D01*
X44004761Y-51654761D01*
X43909523Y-51559523D01*
X43861904Y-51464285D01*
X43814285Y-51273809D01*
X43814285Y-51130952D01*
X43861904Y-50940476D01*
X43909523Y-50845238D01*
X44004761Y-50750000D01*
X44147619Y-50702380D01*
X44242857Y-50702380D01*
X44385714Y-50750000D01*
X44433333Y-50797619D01*
X44909523Y-51702380D02*
X45100000Y-51702380D01*
X45195238Y-51654761D01*
X45242857Y-51607142D01*
X45338095Y-51464285D01*
X45385714Y-51273809D01*
X45385714Y-50892857D01*
X45338095Y-50797619D01*
X45290476Y-50750000D01*
X45195238Y-50702380D01*
X45004761Y-50702380D01*
X44909523Y-50750000D01*
X44861904Y-50797619D01*
X44814285Y-50892857D01*
X44814285Y-51130952D01*
X44861904Y-51226190D01*
X44909523Y-51273809D01*
X45004761Y-51321428D01*
X45195238Y-51321428D01*
X45290476Y-51273809D01*
X45338095Y-51226190D01*
X45385714Y-51130952D01*
X38257142Y-50507142D02*
X38209523Y-50554761D01*
X38066666Y-50602380D01*
X37971428Y-50602380D01*
X37828571Y-50554761D01*
X37733333Y-50459523D01*
X37685714Y-50364285D01*
X37638095Y-50173809D01*
X37638095Y-50030952D01*
X37685714Y-49840476D01*
X37733333Y-49745238D01*
X37828571Y-49650000D01*
X37971428Y-49602380D01*
X38066666Y-49602380D01*
X38209523Y-49650000D01*
X38257142Y-49697619D01*
X39209523Y-50602380D02*
X38638095Y-50602380D01*
X38923809Y-50602380D02*
X38923809Y-49602380D01*
X38828571Y-49745238D01*
X38733333Y-49840476D01*
X38638095Y-49888095D01*
X39828571Y-49602380D02*
X39923809Y-49602380D01*
X40019047Y-49650000D01*
X40066666Y-49697619D01*
X40114285Y-49792857D01*
X40161904Y-49983333D01*
X40161904Y-50221428D01*
X40114285Y-50411904D01*
X40066666Y-50507142D01*
X40019047Y-50554761D01*
X39923809Y-50602380D01*
X39828571Y-50602380D01*
X39733333Y-50554761D01*
X39685714Y-50507142D01*
X39638095Y-50411904D01*
X39590476Y-50221428D01*
X39590476Y-49983333D01*
X39638095Y-49792857D01*
X39685714Y-49697619D01*
X39733333Y-49650000D01*
X39828571Y-49602380D01*
X48557142Y-75542857D02*
X48604761Y-75590476D01*
X48652380Y-75733333D01*
X48652380Y-75828571D01*
X48604761Y-75971428D01*
X48509523Y-76066666D01*
X48414285Y-76114285D01*
X48223809Y-76161904D01*
X48080952Y-76161904D01*
X47890476Y-76114285D01*
X47795238Y-76066666D01*
X47700000Y-75971428D01*
X47652380Y-75828571D01*
X47652380Y-75733333D01*
X47700000Y-75590476D01*
X47747619Y-75542857D01*
X48652380Y-74590476D02*
X48652380Y-75161904D01*
X48652380Y-74876190D02*
X47652380Y-74876190D01*
X47795238Y-74971428D01*
X47890476Y-75066666D01*
X47938095Y-75161904D01*
X48652380Y-73638095D02*
X48652380Y-74209523D01*
X48652380Y-73923809D02*
X47652380Y-73923809D01*
X47795238Y-74019047D01*
X47890476Y-74114285D01*
X47938095Y-74209523D01*
X44157142Y-92757142D02*
X44109523Y-92804761D01*
X43966666Y-92852380D01*
X43871428Y-92852380D01*
X43728571Y-92804761D01*
X43633333Y-92709523D01*
X43585714Y-92614285D01*
X43538095Y-92423809D01*
X43538095Y-92280952D01*
X43585714Y-92090476D01*
X43633333Y-91995238D01*
X43728571Y-91900000D01*
X43871428Y-91852380D01*
X43966666Y-91852380D01*
X44109523Y-91900000D01*
X44157142Y-91947619D01*
X45109523Y-92852380D02*
X44538095Y-92852380D01*
X44823809Y-92852380D02*
X44823809Y-91852380D01*
X44728571Y-91995238D01*
X44633333Y-92090476D01*
X44538095Y-92138095D01*
X45490476Y-91947619D02*
X45538095Y-91900000D01*
X45633333Y-91852380D01*
X45871428Y-91852380D01*
X45966666Y-91900000D01*
X46014285Y-91947619D01*
X46061904Y-92042857D01*
X46061904Y-92138095D01*
X46014285Y-92280952D01*
X45442857Y-92852380D01*
X46061904Y-92852380D01*
X41307142Y-63942857D02*
X41354761Y-63990476D01*
X41402380Y-64133333D01*
X41402380Y-64228571D01*
X41354761Y-64371428D01*
X41259523Y-64466666D01*
X41164285Y-64514285D01*
X40973809Y-64561904D01*
X40830952Y-64561904D01*
X40640476Y-64514285D01*
X40545238Y-64466666D01*
X40450000Y-64371428D01*
X40402380Y-64228571D01*
X40402380Y-64133333D01*
X40450000Y-63990476D01*
X40497619Y-63942857D01*
X41402380Y-62990476D02*
X41402380Y-63561904D01*
X41402380Y-63276190D02*
X40402380Y-63276190D01*
X40545238Y-63371428D01*
X40640476Y-63466666D01*
X40688095Y-63561904D01*
X40402380Y-62657142D02*
X40402380Y-62038095D01*
X40783333Y-62371428D01*
X40783333Y-62228571D01*
X40830952Y-62133333D01*
X40878571Y-62085714D01*
X40973809Y-62038095D01*
X41211904Y-62038095D01*
X41307142Y-62085714D01*
X41354761Y-62133333D01*
X41402380Y-62228571D01*
X41402380Y-62514285D01*
X41354761Y-62609523D01*
X41307142Y-62657142D01*
X41502380Y-59992857D02*
X41026190Y-60326190D01*
X41502380Y-60564285D02*
X40502380Y-60564285D01*
X40502380Y-60183333D01*
X40550000Y-60088095D01*
X40597619Y-60040476D01*
X40692857Y-59992857D01*
X40835714Y-59992857D01*
X40930952Y-60040476D01*
X40978571Y-60088095D01*
X41026190Y-60183333D01*
X41026190Y-60564285D01*
X41502380Y-59040476D02*
X41502380Y-59611904D01*
X41502380Y-59326190D02*
X40502380Y-59326190D01*
X40645238Y-59421428D01*
X40740476Y-59516666D01*
X40788095Y-59611904D01*
X40502380Y-58135714D02*
X40502380Y-58611904D01*
X40978571Y-58659523D01*
X40930952Y-58611904D01*
X40883333Y-58516666D01*
X40883333Y-58278571D01*
X40930952Y-58183333D01*
X40978571Y-58135714D01*
X41073809Y-58088095D01*
X41311904Y-58088095D01*
X41407142Y-58135714D01*
X41454761Y-58183333D01*
X41502380Y-58278571D01*
X41502380Y-58516666D01*
X41454761Y-58611904D01*
X41407142Y-58659523D01*
X28957142Y-45102380D02*
X28623809Y-44626190D01*
X28385714Y-45102380D02*
X28385714Y-44102380D01*
X28766666Y-44102380D01*
X28861904Y-44150000D01*
X28909523Y-44197619D01*
X28957142Y-44292857D01*
X28957142Y-44435714D01*
X28909523Y-44530952D01*
X28861904Y-44578571D01*
X28766666Y-44626190D01*
X28385714Y-44626190D01*
X29909523Y-45102380D02*
X29338095Y-45102380D01*
X29623809Y-45102380D02*
X29623809Y-44102380D01*
X29528571Y-44245238D01*
X29433333Y-44340476D01*
X29338095Y-44388095D01*
X30766666Y-44102380D02*
X30576190Y-44102380D01*
X30480952Y-44150000D01*
X30433333Y-44197619D01*
X30338095Y-44340476D01*
X30290476Y-44530952D01*
X30290476Y-44911904D01*
X30338095Y-45007142D01*
X30385714Y-45054761D01*
X30480952Y-45102380D01*
X30671428Y-45102380D01*
X30766666Y-45054761D01*
X30814285Y-45007142D01*
X30861904Y-44911904D01*
X30861904Y-44673809D01*
X30814285Y-44578571D01*
X30766666Y-44530952D01*
X30671428Y-44483333D01*
X30480952Y-44483333D01*
X30385714Y-44530952D01*
X30338095Y-44578571D01*
X30290476Y-44673809D01*
X28957142Y-50302380D02*
X28623809Y-49826190D01*
X28385714Y-50302380D02*
X28385714Y-49302380D01*
X28766666Y-49302380D01*
X28861904Y-49350000D01*
X28909523Y-49397619D01*
X28957142Y-49492857D01*
X28957142Y-49635714D01*
X28909523Y-49730952D01*
X28861904Y-49778571D01*
X28766666Y-49826190D01*
X28385714Y-49826190D01*
X29909523Y-50302380D02*
X29338095Y-50302380D01*
X29623809Y-50302380D02*
X29623809Y-49302380D01*
X29528571Y-49445238D01*
X29433333Y-49540476D01*
X29338095Y-49588095D01*
X30242857Y-49302380D02*
X30909523Y-49302380D01*
X30480952Y-50302380D01*
X32988095Y-50652380D02*
X32988095Y-51461904D01*
X33035714Y-51557142D01*
X33083333Y-51604761D01*
X33178571Y-51652380D01*
X33369047Y-51652380D01*
X33464285Y-51604761D01*
X33511904Y-51557142D01*
X33559523Y-51461904D01*
X33559523Y-50652380D01*
X34464285Y-50652380D02*
X34273809Y-50652380D01*
X34178571Y-50700000D01*
X34130952Y-50747619D01*
X34035714Y-50890476D01*
X33988095Y-51080952D01*
X33988095Y-51461904D01*
X34035714Y-51557142D01*
X34083333Y-51604761D01*
X34178571Y-51652380D01*
X34369047Y-51652380D01*
X34464285Y-51604761D01*
X34511904Y-51557142D01*
X34559523Y-51461904D01*
X34559523Y-51223809D01*
X34511904Y-51128571D01*
X34464285Y-51080952D01*
X34369047Y-51033333D01*
X34178571Y-51033333D01*
X34083333Y-51080952D01*
X34035714Y-51128571D01*
X33988095Y-51223809D01*
X38088095Y-50652380D02*
X38088095Y-51461904D01*
X38135714Y-51557142D01*
X38183333Y-51604761D01*
X38278571Y-51652380D01*
X38469047Y-51652380D01*
X38564285Y-51604761D01*
X38611904Y-51557142D01*
X38659523Y-51461904D01*
X38659523Y-50652380D01*
X39040476Y-50652380D02*
X39707142Y-50652380D01*
X39278571Y-51652380D01*
X44238095Y-60852380D02*
X44238095Y-61661904D01*
X44285714Y-61757142D01*
X44333333Y-61804761D01*
X44428571Y-61852380D01*
X44619047Y-61852380D01*
X44714285Y-61804761D01*
X44761904Y-61757142D01*
X44809523Y-61661904D01*
X44809523Y-60852380D01*
X45428571Y-61280952D02*
X45333333Y-61233333D01*
X45285714Y-61185714D01*
X45238095Y-61090476D01*
X45238095Y-61042857D01*
X45285714Y-60947619D01*
X45333333Y-60900000D01*
X45428571Y-60852380D01*
X45619047Y-60852380D01*
X45714285Y-60900000D01*
X45761904Y-60947619D01*
X45809523Y-61042857D01*
X45809523Y-61090476D01*
X45761904Y-61185714D01*
X45714285Y-61233333D01*
X45619047Y-61280952D01*
X45428571Y-61280952D01*
X45333333Y-61328571D01*
X45285714Y-61376190D01*
X45238095Y-61471428D01*
X45238095Y-61661904D01*
X45285714Y-61757142D01*
X45333333Y-61804761D01*
X45428571Y-61852380D01*
X45619047Y-61852380D01*
X45714285Y-61804761D01*
X45761904Y-61757142D01*
X45809523Y-61661904D01*
X45809523Y-61471428D01*
X45761904Y-61376190D01*
X45714285Y-61328571D01*
X45619047Y-61280952D01*
X24252380Y-98383333D02*
X24966666Y-98383333D01*
X25109523Y-98430952D01*
X25204761Y-98526190D01*
X25252380Y-98669047D01*
X25252380Y-98764285D01*
X24585714Y-97478571D02*
X25252380Y-97478571D01*
X24204761Y-97716666D02*
X24919047Y-97954761D01*
X24919047Y-97335714D01*
X26234380Y-47933333D02*
X26948666Y-47933333D01*
X27091523Y-47980952D01*
X27186761Y-48076190D01*
X27234380Y-48219047D01*
X27234380Y-48314285D01*
X26234380Y-47552380D02*
X26234380Y-46933333D01*
X26615333Y-47266666D01*
X26615333Y-47123809D01*
X26662952Y-47028571D01*
X26710571Y-46980952D01*
X26805809Y-46933333D01*
X27043904Y-46933333D01*
X27139142Y-46980952D01*
X27186761Y-47028571D01*
X27234380Y-47123809D01*
X27234380Y-47409523D01*
X27186761Y-47504761D01*
X27139142Y-47552380D01*
X41007142Y-69007142D02*
X40959523Y-69054761D01*
X40816666Y-69102380D01*
X40721428Y-69102380D01*
X40578571Y-69054761D01*
X40483333Y-68959523D01*
X40435714Y-68864285D01*
X40388095Y-68673809D01*
X40388095Y-68530952D01*
X40435714Y-68340476D01*
X40483333Y-68245238D01*
X40578571Y-68150000D01*
X40721428Y-68102380D01*
X40816666Y-68102380D01*
X40959523Y-68150000D01*
X41007142Y-68197619D01*
X41959523Y-69102380D02*
X41388095Y-69102380D01*
X41673809Y-69102380D02*
X41673809Y-68102380D01*
X41578571Y-68245238D01*
X41483333Y-68340476D01*
X41388095Y-68388095D01*
X42816666Y-68435714D02*
X42816666Y-69102380D01*
X42578571Y-68054761D02*
X42340476Y-68769047D01*
X42959523Y-68769047D01*
X41107142Y-71152380D02*
X40773809Y-70676190D01*
X40535714Y-71152380D02*
X40535714Y-70152380D01*
X40916666Y-70152380D01*
X41011904Y-70200000D01*
X41059523Y-70247619D01*
X41107142Y-70342857D01*
X41107142Y-70485714D01*
X41059523Y-70580952D01*
X41011904Y-70628571D01*
X40916666Y-70676190D01*
X40535714Y-70676190D01*
X42059523Y-71152380D02*
X41488095Y-71152380D01*
X41773809Y-71152380D02*
X41773809Y-70152380D01*
X41678571Y-70295238D01*
X41583333Y-70390476D01*
X41488095Y-70438095D01*
X42630952Y-70580952D02*
X42535714Y-70533333D01*
X42488095Y-70485714D01*
X42440476Y-70390476D01*
X42440476Y-70342857D01*
X42488095Y-70247619D01*
X42535714Y-70200000D01*
X42630952Y-70152380D01*
X42821428Y-70152380D01*
X42916666Y-70200000D01*
X42964285Y-70247619D01*
X43011904Y-70342857D01*
X43011904Y-70390476D01*
X42964285Y-70485714D01*
X42916666Y-70533333D01*
X42821428Y-70580952D01*
X42630952Y-70580952D01*
X42535714Y-70628571D01*
X42488095Y-70676190D01*
X42440476Y-70771428D01*
X42440476Y-70961904D01*
X42488095Y-71057142D01*
X42535714Y-71104761D01*
X42630952Y-71152380D01*
X42821428Y-71152380D01*
X42916666Y-71104761D01*
X42964285Y-71057142D01*
X43011904Y-70961904D01*
X43011904Y-70771428D01*
X42964285Y-70676190D01*
X42916666Y-70628571D01*
X42821428Y-70580952D01*
X33107142Y-50602380D02*
X32773809Y-50126190D01*
X32535714Y-50602380D02*
X32535714Y-49602380D01*
X32916666Y-49602380D01*
X33011904Y-49650000D01*
X33059523Y-49697619D01*
X33107142Y-49792857D01*
X33107142Y-49935714D01*
X33059523Y-50030952D01*
X33011904Y-50078571D01*
X32916666Y-50126190D01*
X32535714Y-50126190D01*
X34059523Y-50602380D02*
X33488095Y-50602380D01*
X33773809Y-50602380D02*
X33773809Y-49602380D01*
X33678571Y-49745238D01*
X33583333Y-49840476D01*
X33488095Y-49888095D01*
X34535714Y-50602380D02*
X34726190Y-50602380D01*
X34821428Y-50554761D01*
X34869047Y-50507142D01*
X34964285Y-50364285D01*
X35011904Y-50173809D01*
X35011904Y-49792857D01*
X34964285Y-49697619D01*
X34916666Y-49650000D01*
X34821428Y-49602380D01*
X34630952Y-49602380D01*
X34535714Y-49650000D01*
X34488095Y-49697619D01*
X34440476Y-49792857D01*
X34440476Y-50030952D01*
X34488095Y-50126190D01*
X34535714Y-50173809D01*
X34630952Y-50221428D01*
X34821428Y-50221428D01*
X34916666Y-50173809D01*
X34964285Y-50126190D01*
X35011904Y-50030952D01*
M02*
