%TF.GenerationSoftware,KiCad,Pcbnew,(5.1.5)-2*%
%TF.CreationDate,2020-03-16T23:46:07+13:00*%
%TF.ProjectId,RGB-to-component,5247422d-746f-42d6-936f-6d706f6e656e,rev?*%
%TF.SameCoordinates,Original*%
%TF.FileFunction,Soldermask,Bot*%
%TF.FilePolarity,Negative*%
%FSLAX46Y46*%
G04 Gerber Fmt 4.6, Leading zero omitted, Abs format (unit mm)*
G04 Created by KiCad (PCBNEW (5.1.5)-2) date 2020-03-16 23:46:07*
%MOMM*%
%LPD*%
G04 APERTURE LIST*
%ADD10C,0.100000*%
G04 APERTURE END LIST*
D10*
G36*
X27798254Y-105297818D02*
G01*
X28171511Y-105452426D01*
X28171513Y-105452427D01*
X28507436Y-105676884D01*
X28793116Y-105962564D01*
X29017574Y-106298489D01*
X29172182Y-106671746D01*
X29251000Y-107067993D01*
X29251000Y-107472007D01*
X29172182Y-107868254D01*
X29124501Y-107983365D01*
X29017573Y-108241513D01*
X28793116Y-108577436D01*
X28507436Y-108863116D01*
X28171513Y-109087573D01*
X28171512Y-109087574D01*
X28171511Y-109087574D01*
X27798254Y-109242182D01*
X27402007Y-109321000D01*
X26997993Y-109321000D01*
X26601746Y-109242182D01*
X26228489Y-109087574D01*
X26228488Y-109087574D01*
X26228487Y-109087573D01*
X25892564Y-108863116D01*
X25606884Y-108577436D01*
X25382427Y-108241513D01*
X25275499Y-107983365D01*
X25227818Y-107868254D01*
X25149000Y-107472007D01*
X25149000Y-107067993D01*
X25227818Y-106671746D01*
X25382426Y-106298489D01*
X25606884Y-105962564D01*
X25892564Y-105676884D01*
X26228487Y-105452427D01*
X26228489Y-105452426D01*
X26601746Y-105297818D01*
X26997993Y-105219000D01*
X27402007Y-105219000D01*
X27798254Y-105297818D01*
G37*
G36*
X69074549Y-106741116D02*
G01*
X69185734Y-106763232D01*
X69395203Y-106849997D01*
X69583720Y-106975960D01*
X69744040Y-107136280D01*
X69870003Y-107324797D01*
X69956768Y-107534266D01*
X70001000Y-107756636D01*
X70001000Y-107983364D01*
X69956768Y-108205734D01*
X69870003Y-108415203D01*
X69744040Y-108603720D01*
X69583720Y-108764040D01*
X69395203Y-108890003D01*
X69185734Y-108976768D01*
X69074549Y-108998884D01*
X68963365Y-109021000D01*
X68736635Y-109021000D01*
X68625451Y-108998884D01*
X68514266Y-108976768D01*
X68304797Y-108890003D01*
X68116280Y-108764040D01*
X67955960Y-108603720D01*
X67829997Y-108415203D01*
X67743232Y-108205734D01*
X67699000Y-107983364D01*
X67699000Y-107756636D01*
X67743232Y-107534266D01*
X67829997Y-107324797D01*
X67955960Y-107136280D01*
X68116280Y-106975960D01*
X68304797Y-106849997D01*
X68514266Y-106763232D01*
X68625451Y-106741116D01*
X68736635Y-106719000D01*
X68963365Y-106719000D01*
X69074549Y-106741116D01*
G37*
G36*
X66002585Y-102098802D02*
G01*
X66152410Y-102128604D01*
X66434674Y-102245521D01*
X66688705Y-102415259D01*
X66904741Y-102631295D01*
X67074479Y-102885326D01*
X67191396Y-103167590D01*
X67251000Y-103467240D01*
X67251000Y-103772760D01*
X67191396Y-104072410D01*
X67074479Y-104354674D01*
X66904741Y-104608705D01*
X66688705Y-104824741D01*
X66434674Y-104994479D01*
X66152410Y-105111396D01*
X66002585Y-105141198D01*
X65852761Y-105171000D01*
X65547239Y-105171000D01*
X65397415Y-105141198D01*
X65247590Y-105111396D01*
X64965326Y-104994479D01*
X64711295Y-104824741D01*
X64495259Y-104608705D01*
X64325521Y-104354674D01*
X64208604Y-104072410D01*
X64149000Y-103772760D01*
X64149000Y-103467240D01*
X64208604Y-103167590D01*
X64325521Y-102885326D01*
X64495259Y-102631295D01*
X64711295Y-102415259D01*
X64965326Y-102245521D01*
X65247590Y-102128604D01*
X65397415Y-102098802D01*
X65547239Y-102069000D01*
X65852761Y-102069000D01*
X66002585Y-102098802D01*
G37*
G36*
X61502585Y-102098802D02*
G01*
X61652410Y-102128604D01*
X61934674Y-102245521D01*
X62188705Y-102415259D01*
X62404741Y-102631295D01*
X62574479Y-102885326D01*
X62691396Y-103167590D01*
X62751000Y-103467240D01*
X62751000Y-103772760D01*
X62691396Y-104072410D01*
X62574479Y-104354674D01*
X62404741Y-104608705D01*
X62188705Y-104824741D01*
X61934674Y-104994479D01*
X61652410Y-105111396D01*
X61502585Y-105141198D01*
X61352761Y-105171000D01*
X61047239Y-105171000D01*
X60897415Y-105141198D01*
X60747590Y-105111396D01*
X60465326Y-104994479D01*
X60211295Y-104824741D01*
X59995259Y-104608705D01*
X59825521Y-104354674D01*
X59708604Y-104072410D01*
X59649000Y-103772760D01*
X59649000Y-103467240D01*
X59708604Y-103167590D01*
X59825521Y-102885326D01*
X59995259Y-102631295D01*
X60211295Y-102415259D01*
X60465326Y-102245521D01*
X60747590Y-102128604D01*
X60897415Y-102098802D01*
X61047239Y-102069000D01*
X61352761Y-102069000D01*
X61502585Y-102098802D01*
G37*
G36*
X34704549Y-98776116D02*
G01*
X34815734Y-98798232D01*
X35025203Y-98884997D01*
X35213720Y-99010960D01*
X35374040Y-99171280D01*
X35500003Y-99359797D01*
X35586768Y-99569266D01*
X35631000Y-99791636D01*
X35631000Y-100018364D01*
X35586768Y-100240734D01*
X35500003Y-100450203D01*
X35374040Y-100638720D01*
X35213720Y-100799040D01*
X35025203Y-100925003D01*
X34815734Y-101011768D01*
X34704549Y-101033884D01*
X34593365Y-101056000D01*
X34366635Y-101056000D01*
X34255451Y-101033884D01*
X34144266Y-101011768D01*
X33934797Y-100925003D01*
X33746280Y-100799040D01*
X33585960Y-100638720D01*
X33459997Y-100450203D01*
X33373232Y-100240734D01*
X33329000Y-100018364D01*
X33329000Y-99791636D01*
X33373232Y-99569266D01*
X33459997Y-99359797D01*
X33585960Y-99171280D01*
X33746280Y-99010960D01*
X33934797Y-98884997D01*
X34144266Y-98798232D01*
X34255451Y-98776116D01*
X34366635Y-98754000D01*
X34593365Y-98754000D01*
X34704549Y-98776116D01*
G37*
G36*
X69074549Y-98241116D02*
G01*
X69185734Y-98263232D01*
X69395203Y-98349997D01*
X69583720Y-98475960D01*
X69744040Y-98636280D01*
X69870003Y-98824797D01*
X69956768Y-99034266D01*
X70001000Y-99256636D01*
X70001000Y-99483364D01*
X69956768Y-99705734D01*
X69870003Y-99915203D01*
X69744040Y-100103720D01*
X69583720Y-100264040D01*
X69395203Y-100390003D01*
X69185734Y-100476768D01*
X69074549Y-100498884D01*
X68963365Y-100521000D01*
X68736635Y-100521000D01*
X68625451Y-100498884D01*
X68514266Y-100476768D01*
X68304797Y-100390003D01*
X68116280Y-100264040D01*
X67955960Y-100103720D01*
X67829997Y-99915203D01*
X67743232Y-99705734D01*
X67699000Y-99483364D01*
X67699000Y-99256636D01*
X67743232Y-99034266D01*
X67829997Y-98824797D01*
X67955960Y-98636280D01*
X68116280Y-98475960D01*
X68304797Y-98349997D01*
X68514266Y-98263232D01*
X68625451Y-98241116D01*
X68736635Y-98219000D01*
X68963365Y-98219000D01*
X69074549Y-98241116D01*
G37*
G36*
X29624549Y-96871116D02*
G01*
X29735734Y-96893232D01*
X29945203Y-96979997D01*
X30133720Y-97105960D01*
X30294040Y-97266280D01*
X30420003Y-97454797D01*
X30506768Y-97664266D01*
X30551000Y-97886636D01*
X30551000Y-98113364D01*
X30506768Y-98335734D01*
X30420003Y-98545203D01*
X30294040Y-98733720D01*
X30133720Y-98894040D01*
X29945203Y-99020003D01*
X29735734Y-99106768D01*
X29624549Y-99128884D01*
X29513365Y-99151000D01*
X29286635Y-99151000D01*
X29175451Y-99128884D01*
X29064266Y-99106768D01*
X28854797Y-99020003D01*
X28666280Y-98894040D01*
X28505960Y-98733720D01*
X28379997Y-98545203D01*
X28293232Y-98335734D01*
X28249000Y-98113364D01*
X28249000Y-97886636D01*
X28293232Y-97664266D01*
X28379997Y-97454797D01*
X28505960Y-97266280D01*
X28666280Y-97105960D01*
X28854797Y-96979997D01*
X29064266Y-96893232D01*
X29175451Y-96871116D01*
X29286635Y-96849000D01*
X29513365Y-96849000D01*
X29624549Y-96871116D01*
G37*
G36*
X34690714Y-94963364D02*
G01*
X34815734Y-94988232D01*
X35025203Y-95074997D01*
X35213720Y-95200960D01*
X35374040Y-95361280D01*
X35500003Y-95549797D01*
X35500004Y-95549799D01*
X35586768Y-95759267D01*
X35626054Y-95956768D01*
X35631000Y-95981636D01*
X35631000Y-96208364D01*
X35586768Y-96430734D01*
X35500003Y-96640203D01*
X35374040Y-96828720D01*
X35213720Y-96989040D01*
X35025203Y-97115003D01*
X34815734Y-97201768D01*
X34704549Y-97223884D01*
X34593365Y-97246000D01*
X34366635Y-97246000D01*
X34255451Y-97223884D01*
X34144266Y-97201768D01*
X33934797Y-97115003D01*
X33746280Y-96989040D01*
X33585960Y-96828720D01*
X33459997Y-96640203D01*
X33373232Y-96430734D01*
X33329000Y-96208364D01*
X33329000Y-95981636D01*
X33333947Y-95956768D01*
X33373232Y-95759267D01*
X33459996Y-95549799D01*
X33459997Y-95549797D01*
X33585960Y-95361280D01*
X33746280Y-95200960D01*
X33934797Y-95074997D01*
X34144266Y-94988232D01*
X34269286Y-94963364D01*
X34366635Y-94944000D01*
X34593365Y-94944000D01*
X34690714Y-94963364D01*
G37*
G36*
X69074549Y-93721116D02*
G01*
X69185734Y-93743232D01*
X69395203Y-93829997D01*
X69583720Y-93955960D01*
X69744040Y-94116280D01*
X69869046Y-94303365D01*
X69870004Y-94304799D01*
X69956768Y-94514267D01*
X70001000Y-94736635D01*
X70001000Y-94963365D01*
X69978884Y-95074549D01*
X69956768Y-95185734D01*
X69870003Y-95395203D01*
X69744040Y-95583720D01*
X69583720Y-95744040D01*
X69395203Y-95870003D01*
X69185734Y-95956768D01*
X69074549Y-95978884D01*
X68963365Y-96001000D01*
X68736635Y-96001000D01*
X68625451Y-95978884D01*
X68514266Y-95956768D01*
X68304797Y-95870003D01*
X68116280Y-95744040D01*
X67955960Y-95583720D01*
X67829997Y-95395203D01*
X67743232Y-95185734D01*
X67721116Y-95074549D01*
X67699000Y-94963365D01*
X67699000Y-94736635D01*
X67743232Y-94514267D01*
X67829996Y-94304799D01*
X67830954Y-94303365D01*
X67955960Y-94116280D01*
X68116280Y-93955960D01*
X68304797Y-93829997D01*
X68514266Y-93743232D01*
X68625451Y-93721116D01*
X68736635Y-93699000D01*
X68963365Y-93699000D01*
X69074549Y-93721116D01*
G37*
G36*
X29624549Y-93061116D02*
G01*
X29735734Y-93083232D01*
X29945203Y-93169997D01*
X30133720Y-93295960D01*
X30294040Y-93456280D01*
X30420003Y-93644797D01*
X30506768Y-93854266D01*
X30551000Y-94076636D01*
X30551000Y-94303364D01*
X30506768Y-94525734D01*
X30420003Y-94735203D01*
X30294040Y-94923720D01*
X30133720Y-95084040D01*
X29945203Y-95210003D01*
X29735734Y-95296768D01*
X29624549Y-95318884D01*
X29513365Y-95341000D01*
X29286635Y-95341000D01*
X29175451Y-95318884D01*
X29064266Y-95296768D01*
X28854797Y-95210003D01*
X28666280Y-95084040D01*
X28505960Y-94923720D01*
X28379997Y-94735203D01*
X28293232Y-94525734D01*
X28249000Y-94303364D01*
X28249000Y-94076636D01*
X28293232Y-93854266D01*
X28379997Y-93644797D01*
X28505960Y-93456280D01*
X28666280Y-93295960D01*
X28854797Y-93169997D01*
X29064266Y-93083232D01*
X29175451Y-93061116D01*
X29286635Y-93039000D01*
X29513365Y-93039000D01*
X29624549Y-93061116D01*
G37*
G36*
X34704549Y-91156116D02*
G01*
X34815734Y-91178232D01*
X35025203Y-91264997D01*
X35213720Y-91390960D01*
X35374040Y-91551280D01*
X35500003Y-91739797D01*
X35586768Y-91949266D01*
X35631000Y-92171636D01*
X35631000Y-92398364D01*
X35586768Y-92620734D01*
X35500003Y-92830203D01*
X35374040Y-93018720D01*
X35213720Y-93179040D01*
X35025203Y-93305003D01*
X34815734Y-93391768D01*
X34704549Y-93413884D01*
X34593365Y-93436000D01*
X34366635Y-93436000D01*
X34255451Y-93413884D01*
X34144266Y-93391768D01*
X33934797Y-93305003D01*
X33746280Y-93179040D01*
X33585960Y-93018720D01*
X33459997Y-92830203D01*
X33373232Y-92620734D01*
X33329000Y-92398364D01*
X33329000Y-92171636D01*
X33373232Y-91949266D01*
X33459997Y-91739797D01*
X33585960Y-91551280D01*
X33746280Y-91390960D01*
X33934797Y-91264997D01*
X34144266Y-91178232D01*
X34255451Y-91156116D01*
X34366635Y-91134000D01*
X34593365Y-91134000D01*
X34704549Y-91156116D01*
G37*
G36*
X66002585Y-89078802D02*
G01*
X66152410Y-89108604D01*
X66434674Y-89225521D01*
X66688705Y-89395259D01*
X66904741Y-89611295D01*
X67074479Y-89865326D01*
X67191396Y-90147590D01*
X67251000Y-90447240D01*
X67251000Y-90752760D01*
X67191396Y-91052410D01*
X67074479Y-91334674D01*
X66904741Y-91588705D01*
X66688705Y-91804741D01*
X66434674Y-91974479D01*
X66152410Y-92091396D01*
X66002585Y-92121198D01*
X65852761Y-92151000D01*
X65547239Y-92151000D01*
X65397415Y-92121198D01*
X65247590Y-92091396D01*
X64965326Y-91974479D01*
X64711295Y-91804741D01*
X64495259Y-91588705D01*
X64325521Y-91334674D01*
X64208604Y-91052410D01*
X64149000Y-90752760D01*
X64149000Y-90447240D01*
X64208604Y-90147590D01*
X64325521Y-89865326D01*
X64495259Y-89611295D01*
X64711295Y-89395259D01*
X64965326Y-89225521D01*
X65247590Y-89108604D01*
X65397415Y-89078802D01*
X65547239Y-89049000D01*
X65852761Y-89049000D01*
X66002585Y-89078802D01*
G37*
G36*
X61502585Y-89078802D02*
G01*
X61652410Y-89108604D01*
X61934674Y-89225521D01*
X62188705Y-89395259D01*
X62404741Y-89611295D01*
X62574479Y-89865326D01*
X62691396Y-90147590D01*
X62751000Y-90447240D01*
X62751000Y-90752760D01*
X62691396Y-91052410D01*
X62574479Y-91334674D01*
X62404741Y-91588705D01*
X62188705Y-91804741D01*
X61934674Y-91974479D01*
X61652410Y-92091396D01*
X61502585Y-92121198D01*
X61352761Y-92151000D01*
X61047239Y-92151000D01*
X60897415Y-92121198D01*
X60747590Y-92091396D01*
X60465326Y-91974479D01*
X60211295Y-91804741D01*
X59995259Y-91588705D01*
X59825521Y-91334674D01*
X59708604Y-91052410D01*
X59649000Y-90752760D01*
X59649000Y-90447240D01*
X59708604Y-90147590D01*
X59825521Y-89865326D01*
X59995259Y-89611295D01*
X60211295Y-89395259D01*
X60465326Y-89225521D01*
X60747590Y-89108604D01*
X60897415Y-89078802D01*
X61047239Y-89049000D01*
X61352761Y-89049000D01*
X61502585Y-89078802D01*
G37*
G36*
X29624549Y-89251116D02*
G01*
X29735734Y-89273232D01*
X29945203Y-89359997D01*
X30133720Y-89485960D01*
X30294040Y-89646280D01*
X30420003Y-89834797D01*
X30506768Y-90044266D01*
X30551000Y-90266636D01*
X30551000Y-90493364D01*
X30506768Y-90715734D01*
X30420003Y-90925203D01*
X30294040Y-91113720D01*
X30133720Y-91274040D01*
X29945203Y-91400003D01*
X29735734Y-91486768D01*
X29624549Y-91508884D01*
X29513365Y-91531000D01*
X29286635Y-91531000D01*
X29175451Y-91508884D01*
X29064266Y-91486768D01*
X28854797Y-91400003D01*
X28666280Y-91274040D01*
X28505960Y-91113720D01*
X28379997Y-90925203D01*
X28293232Y-90715734D01*
X28249000Y-90493364D01*
X28249000Y-90266636D01*
X28293232Y-90044266D01*
X28379997Y-89834797D01*
X28505960Y-89646280D01*
X28666280Y-89485960D01*
X28854797Y-89359997D01*
X29064266Y-89273232D01*
X29175451Y-89251116D01*
X29286635Y-89229000D01*
X29513365Y-89229000D01*
X29624549Y-89251116D01*
G37*
G36*
X34704549Y-87346116D02*
G01*
X34815734Y-87368232D01*
X35025203Y-87454997D01*
X35213720Y-87580960D01*
X35374040Y-87741280D01*
X35500003Y-87929797D01*
X35586768Y-88139266D01*
X35631000Y-88361636D01*
X35631000Y-88588364D01*
X35586768Y-88810734D01*
X35500003Y-89020203D01*
X35374040Y-89208720D01*
X35213720Y-89369040D01*
X35025203Y-89495003D01*
X34815734Y-89581768D01*
X34704549Y-89603884D01*
X34593365Y-89626000D01*
X34366635Y-89626000D01*
X34255451Y-89603884D01*
X34144266Y-89581768D01*
X33934797Y-89495003D01*
X33746280Y-89369040D01*
X33585960Y-89208720D01*
X33459997Y-89020203D01*
X33373232Y-88810734D01*
X33329000Y-88588364D01*
X33329000Y-88361636D01*
X33373232Y-88139266D01*
X33459997Y-87929797D01*
X33585960Y-87741280D01*
X33746280Y-87580960D01*
X33934797Y-87454997D01*
X34144266Y-87368232D01*
X34255451Y-87346116D01*
X34366635Y-87324000D01*
X34593365Y-87324000D01*
X34704549Y-87346116D01*
G37*
G36*
X25048903Y-84363213D02*
G01*
X25271177Y-84407426D01*
X25689932Y-84580880D01*
X26066802Y-84832696D01*
X26387304Y-85153198D01*
X26639120Y-85530068D01*
X26812574Y-85948823D01*
X26856787Y-86171097D01*
X26901000Y-86393370D01*
X26901000Y-86846630D01*
X26889243Y-86905734D01*
X26812574Y-87291177D01*
X26639120Y-87709932D01*
X26387304Y-88086802D01*
X26066802Y-88407304D01*
X25689932Y-88659120D01*
X25271177Y-88832574D01*
X25048903Y-88876787D01*
X24826630Y-88921000D01*
X24373370Y-88921000D01*
X24151097Y-88876787D01*
X23928823Y-88832574D01*
X23510068Y-88659120D01*
X23133198Y-88407304D01*
X22812696Y-88086802D01*
X22560880Y-87709932D01*
X22387426Y-87291177D01*
X22310757Y-86905734D01*
X22299000Y-86846630D01*
X22299000Y-86393370D01*
X22343213Y-86171097D01*
X22387426Y-85948823D01*
X22560880Y-85530068D01*
X22812696Y-85153198D01*
X23133198Y-84832696D01*
X23510068Y-84580880D01*
X23928823Y-84407426D01*
X24151097Y-84363213D01*
X24373370Y-84319000D01*
X24826630Y-84319000D01*
X25048903Y-84363213D01*
G37*
G36*
X29624549Y-85441116D02*
G01*
X29735734Y-85463232D01*
X29945203Y-85549997D01*
X30133720Y-85675960D01*
X30294040Y-85836280D01*
X30420003Y-86024797D01*
X30506768Y-86234266D01*
X30551000Y-86456636D01*
X30551000Y-86683364D01*
X30506768Y-86905734D01*
X30420003Y-87115203D01*
X30294040Y-87303720D01*
X30133720Y-87464040D01*
X29945203Y-87590003D01*
X29735734Y-87676768D01*
X29624549Y-87698884D01*
X29513365Y-87721000D01*
X29286635Y-87721000D01*
X29175451Y-87698884D01*
X29064266Y-87676768D01*
X28854797Y-87590003D01*
X28666280Y-87464040D01*
X28505960Y-87303720D01*
X28379997Y-87115203D01*
X28293232Y-86905734D01*
X28249000Y-86683364D01*
X28249000Y-86456636D01*
X28293232Y-86234266D01*
X28379997Y-86024797D01*
X28505960Y-85836280D01*
X28666280Y-85675960D01*
X28854797Y-85549997D01*
X29064266Y-85463232D01*
X29175451Y-85441116D01*
X29286635Y-85419000D01*
X29513365Y-85419000D01*
X29624549Y-85441116D01*
G37*
G36*
X69074549Y-85221116D02*
G01*
X69185734Y-85243232D01*
X69395203Y-85329997D01*
X69583720Y-85455960D01*
X69744040Y-85616280D01*
X69870003Y-85804797D01*
X69870004Y-85804799D01*
X69883044Y-85836280D01*
X69956768Y-86014266D01*
X70001000Y-86236636D01*
X70001000Y-86463364D01*
X69956768Y-86685734D01*
X69870003Y-86895203D01*
X69744040Y-87083720D01*
X69583720Y-87244040D01*
X69395203Y-87370003D01*
X69185734Y-87456768D01*
X69074549Y-87478884D01*
X68963365Y-87501000D01*
X68736635Y-87501000D01*
X68625451Y-87478884D01*
X68514266Y-87456768D01*
X68304797Y-87370003D01*
X68116280Y-87244040D01*
X67955960Y-87083720D01*
X67829997Y-86895203D01*
X67743232Y-86685734D01*
X67699000Y-86463364D01*
X67699000Y-86236636D01*
X67743232Y-86014266D01*
X67816956Y-85836280D01*
X67829996Y-85804799D01*
X67829997Y-85804797D01*
X67955960Y-85616280D01*
X68116280Y-85455960D01*
X68304797Y-85329997D01*
X68514266Y-85243232D01*
X68625451Y-85221116D01*
X68736635Y-85199000D01*
X68963365Y-85199000D01*
X69074549Y-85221116D01*
G37*
G36*
X34704549Y-83536116D02*
G01*
X34815734Y-83558232D01*
X35025203Y-83644997D01*
X35213720Y-83770960D01*
X35374040Y-83931280D01*
X35500003Y-84119797D01*
X35582516Y-84319000D01*
X35586768Y-84329267D01*
X35631000Y-84551635D01*
X35631000Y-84778365D01*
X35586768Y-85000733D01*
X35504644Y-85199000D01*
X35500003Y-85210203D01*
X35374040Y-85398720D01*
X35213720Y-85559040D01*
X35025203Y-85685003D01*
X34815734Y-85771768D01*
X34704549Y-85793884D01*
X34593365Y-85816000D01*
X34366635Y-85816000D01*
X34255451Y-85793884D01*
X34144266Y-85771768D01*
X33934797Y-85685003D01*
X33746280Y-85559040D01*
X33585960Y-85398720D01*
X33459997Y-85210203D01*
X33455357Y-85199000D01*
X33373232Y-85000733D01*
X33329000Y-84778365D01*
X33329000Y-84551635D01*
X33373232Y-84329267D01*
X33377485Y-84319000D01*
X33459997Y-84119797D01*
X33585960Y-83931280D01*
X33746280Y-83770960D01*
X33934797Y-83644997D01*
X34144266Y-83558232D01*
X34255451Y-83536116D01*
X34366635Y-83514000D01*
X34593365Y-83514000D01*
X34704549Y-83536116D01*
G37*
G36*
X29624549Y-81631116D02*
G01*
X29735734Y-81653232D01*
X29945203Y-81739997D01*
X30133720Y-81865960D01*
X30294040Y-82026280D01*
X30420003Y-82214797D01*
X30505329Y-82420791D01*
X30506768Y-82424267D01*
X30547560Y-82629339D01*
X30551000Y-82646636D01*
X30551000Y-82873364D01*
X30506768Y-83095734D01*
X30420003Y-83305203D01*
X30294040Y-83493720D01*
X30133720Y-83654040D01*
X29945203Y-83780003D01*
X29735734Y-83866768D01*
X29624549Y-83888884D01*
X29513365Y-83911000D01*
X29286635Y-83911000D01*
X29175451Y-83888884D01*
X29064266Y-83866768D01*
X28854797Y-83780003D01*
X28666280Y-83654040D01*
X28505960Y-83493720D01*
X28379997Y-83305203D01*
X28293232Y-83095734D01*
X28249000Y-82873364D01*
X28249000Y-82646636D01*
X28252441Y-82629339D01*
X28293232Y-82424267D01*
X28294672Y-82420791D01*
X28379997Y-82214797D01*
X28505960Y-82026280D01*
X28666280Y-81865960D01*
X28854797Y-81739997D01*
X29064266Y-81653232D01*
X29175451Y-81631116D01*
X29286635Y-81609000D01*
X29513365Y-81609000D01*
X29624549Y-81631116D01*
G37*
G36*
X66379487Y-80548996D02*
G01*
X66616253Y-80647068D01*
X66616255Y-80647069D01*
X66757783Y-80741635D01*
X66829339Y-80789447D01*
X67010553Y-80970661D01*
X67152932Y-81183747D01*
X67251004Y-81420513D01*
X67301000Y-81671861D01*
X67301000Y-81928139D01*
X67251004Y-82179487D01*
X67236378Y-82214797D01*
X67152931Y-82416255D01*
X67010553Y-82629339D01*
X66829339Y-82810553D01*
X66616255Y-82952931D01*
X66616254Y-82952932D01*
X66616253Y-82952932D01*
X66379487Y-83051004D01*
X66128139Y-83101000D01*
X65871861Y-83101000D01*
X65620513Y-83051004D01*
X65383747Y-82952932D01*
X65383746Y-82952932D01*
X65383745Y-82952931D01*
X65170661Y-82810553D01*
X64989447Y-82629339D01*
X64847069Y-82416255D01*
X64763622Y-82214797D01*
X64748996Y-82179487D01*
X64699000Y-81928139D01*
X64699000Y-81671861D01*
X64748996Y-81420513D01*
X64847068Y-81183747D01*
X64989447Y-80970661D01*
X65170661Y-80789447D01*
X65242217Y-80741635D01*
X65383745Y-80647069D01*
X65383747Y-80647068D01*
X65620513Y-80548996D01*
X65871861Y-80499000D01*
X66128139Y-80499000D01*
X66379487Y-80548996D01*
G37*
G36*
X62127423Y-78681661D02*
G01*
X62517172Y-78843100D01*
X62518881Y-78843808D01*
X62871183Y-79079209D01*
X63170791Y-79378817D01*
X63406192Y-79731119D01*
X63406193Y-79731121D01*
X63568339Y-80122577D01*
X63651000Y-80538144D01*
X63651000Y-80961856D01*
X63568339Y-81377423D01*
X63406193Y-81768879D01*
X63406192Y-81768881D01*
X63170791Y-82121183D01*
X62871183Y-82420791D01*
X62518881Y-82656192D01*
X62518880Y-82656193D01*
X62518879Y-82656193D01*
X62127423Y-82818339D01*
X61711856Y-82901000D01*
X61288144Y-82901000D01*
X60872577Y-82818339D01*
X60481121Y-82656193D01*
X60481120Y-82656193D01*
X60481119Y-82656192D01*
X60128817Y-82420791D01*
X59829209Y-82121183D01*
X59593808Y-81768881D01*
X59593807Y-81768879D01*
X59431661Y-81377423D01*
X59349000Y-80961856D01*
X59349000Y-80538144D01*
X59431661Y-80122577D01*
X59593807Y-79731121D01*
X59593808Y-79731119D01*
X59829209Y-79378817D01*
X60128817Y-79079209D01*
X60481119Y-78843808D01*
X60482828Y-78843100D01*
X60872577Y-78681661D01*
X61288144Y-78599000D01*
X61711856Y-78599000D01*
X62127423Y-78681661D01*
G37*
G36*
X34704549Y-79726116D02*
G01*
X34815734Y-79748232D01*
X34963850Y-79809584D01*
X35008862Y-79828228D01*
X35025203Y-79834997D01*
X35213720Y-79960960D01*
X35374040Y-80121280D01*
X35500003Y-80309797D01*
X35586768Y-80519266D01*
X35631000Y-80741636D01*
X35631000Y-80968364D01*
X35586768Y-81190734D01*
X35500003Y-81400203D01*
X35374040Y-81588720D01*
X35213720Y-81749040D01*
X35025203Y-81875003D01*
X34815734Y-81961768D01*
X34704549Y-81983884D01*
X34593365Y-82006000D01*
X34366635Y-82006000D01*
X34255451Y-81983884D01*
X34144266Y-81961768D01*
X33934797Y-81875003D01*
X33746280Y-81749040D01*
X33585960Y-81588720D01*
X33459997Y-81400203D01*
X33373232Y-81190734D01*
X33329000Y-80968364D01*
X33329000Y-80741636D01*
X33373232Y-80519266D01*
X33459997Y-80309797D01*
X33585960Y-80121280D01*
X33746280Y-79960960D01*
X33934797Y-79834997D01*
X33951139Y-79828228D01*
X33996150Y-79809584D01*
X34144266Y-79748232D01*
X34255451Y-79726116D01*
X34366635Y-79704000D01*
X34593365Y-79704000D01*
X34704549Y-79726116D01*
G37*
G36*
X24848228Y-78761703D02*
G01*
X25003100Y-78825853D01*
X25142481Y-78918985D01*
X25261015Y-79037519D01*
X25354147Y-79176900D01*
X25418297Y-79331772D01*
X25451000Y-79496184D01*
X25451000Y-79663816D01*
X25418297Y-79828228D01*
X25354147Y-79983100D01*
X25261015Y-80122481D01*
X25142481Y-80241015D01*
X25003100Y-80334147D01*
X24848228Y-80398297D01*
X24683816Y-80431000D01*
X24516184Y-80431000D01*
X24351772Y-80398297D01*
X24196900Y-80334147D01*
X24057519Y-80241015D01*
X23938985Y-80122481D01*
X23845853Y-79983100D01*
X23781703Y-79828228D01*
X23749000Y-79663816D01*
X23749000Y-79496184D01*
X23781703Y-79331772D01*
X23845853Y-79176900D01*
X23938985Y-79037519D01*
X24057519Y-78918985D01*
X24196900Y-78825853D01*
X24351772Y-78761703D01*
X24516184Y-78729000D01*
X24683816Y-78729000D01*
X24848228Y-78761703D01*
G37*
G36*
X29624549Y-77821116D02*
G01*
X29735734Y-77843232D01*
X29945203Y-77929997D01*
X30133720Y-78055960D01*
X30294040Y-78216280D01*
X30420003Y-78404797D01*
X30500445Y-78599000D01*
X30506768Y-78614267D01*
X30547209Y-78817574D01*
X30551000Y-78836636D01*
X30551000Y-79063364D01*
X30506768Y-79285734D01*
X30420003Y-79495203D01*
X30294040Y-79683720D01*
X30133720Y-79844040D01*
X29945203Y-79970003D01*
X29945202Y-79970004D01*
X29945201Y-79970004D01*
X29913584Y-79983100D01*
X29735734Y-80056768D01*
X29624549Y-80078884D01*
X29513365Y-80101000D01*
X29286635Y-80101000D01*
X29175451Y-80078884D01*
X29064266Y-80056768D01*
X28886416Y-79983100D01*
X28854799Y-79970004D01*
X28854798Y-79970004D01*
X28854797Y-79970003D01*
X28666280Y-79844040D01*
X28505960Y-79683720D01*
X28379997Y-79495203D01*
X28293232Y-79285734D01*
X28249000Y-79063364D01*
X28249000Y-78836636D01*
X28252792Y-78817574D01*
X28293232Y-78614267D01*
X28299556Y-78599000D01*
X28379997Y-78404797D01*
X28505960Y-78216280D01*
X28666280Y-78055960D01*
X28854797Y-77929997D01*
X29064266Y-77843232D01*
X29175451Y-77821116D01*
X29286635Y-77799000D01*
X29513365Y-77799000D01*
X29624549Y-77821116D01*
G37*
G36*
X27388228Y-77621703D02*
G01*
X27543100Y-77685853D01*
X27682481Y-77778985D01*
X27801015Y-77897519D01*
X27894147Y-78036900D01*
X27958297Y-78191772D01*
X27991000Y-78356184D01*
X27991000Y-78523816D01*
X27958297Y-78688228D01*
X27894147Y-78843100D01*
X27801015Y-78982481D01*
X27682481Y-79101015D01*
X27543100Y-79194147D01*
X27388228Y-79258297D01*
X27223816Y-79291000D01*
X27056184Y-79291000D01*
X26891772Y-79258297D01*
X26736900Y-79194147D01*
X26597519Y-79101015D01*
X26478985Y-78982481D01*
X26385853Y-78843100D01*
X26321703Y-78688228D01*
X26289000Y-78523816D01*
X26289000Y-78356184D01*
X26321703Y-78191772D01*
X26385853Y-78036900D01*
X26478985Y-77897519D01*
X26597519Y-77778985D01*
X26736900Y-77685853D01*
X26891772Y-77621703D01*
X27056184Y-77589000D01*
X27223816Y-77589000D01*
X27388228Y-77621703D01*
G37*
G36*
X22308228Y-77621703D02*
G01*
X22463100Y-77685853D01*
X22602481Y-77778985D01*
X22721015Y-77897519D01*
X22814147Y-78036900D01*
X22878297Y-78191772D01*
X22911000Y-78356184D01*
X22911000Y-78523816D01*
X22878297Y-78688228D01*
X22814147Y-78843100D01*
X22721015Y-78982481D01*
X22602481Y-79101015D01*
X22463100Y-79194147D01*
X22308228Y-79258297D01*
X22143816Y-79291000D01*
X21976184Y-79291000D01*
X21811772Y-79258297D01*
X21656900Y-79194147D01*
X21517519Y-79101015D01*
X21398985Y-78982481D01*
X21305853Y-78843100D01*
X21241703Y-78688228D01*
X21209000Y-78523816D01*
X21209000Y-78356184D01*
X21241703Y-78191772D01*
X21305853Y-78036900D01*
X21398985Y-77897519D01*
X21517519Y-77778985D01*
X21656900Y-77685853D01*
X21811772Y-77621703D01*
X21976184Y-77589000D01*
X22143816Y-77589000D01*
X22308228Y-77621703D01*
G37*
G36*
X66598254Y-75027818D02*
G01*
X66971511Y-75182426D01*
X66971513Y-75182427D01*
X67307436Y-75406884D01*
X67593116Y-75692564D01*
X67732905Y-75901772D01*
X67817574Y-76028489D01*
X67972182Y-76401746D01*
X68051000Y-76797993D01*
X68051000Y-77202007D01*
X67972182Y-77598254D01*
X67831024Y-77939040D01*
X67817573Y-77971513D01*
X67593116Y-78307436D01*
X67307436Y-78593116D01*
X66971513Y-78817573D01*
X66971512Y-78817574D01*
X66971511Y-78817574D01*
X66598254Y-78972182D01*
X66202007Y-79051000D01*
X65797993Y-79051000D01*
X65401746Y-78972182D01*
X65028489Y-78817574D01*
X65028488Y-78817574D01*
X65028487Y-78817573D01*
X64692564Y-78593116D01*
X64406884Y-78307436D01*
X64182427Y-77971513D01*
X64168976Y-77939040D01*
X64027818Y-77598254D01*
X63949000Y-77202007D01*
X63949000Y-76797993D01*
X64027818Y-76401746D01*
X64182426Y-76028489D01*
X64267096Y-75901772D01*
X64406884Y-75692564D01*
X64692564Y-75406884D01*
X65028487Y-75182427D01*
X65028489Y-75182426D01*
X65401746Y-75027818D01*
X65797993Y-74949000D01*
X66202007Y-74949000D01*
X66598254Y-75027818D01*
G37*
G36*
X34632432Y-75901771D02*
G01*
X34815734Y-75938232D01*
X35025203Y-76024997D01*
X35213720Y-76150960D01*
X35374040Y-76311280D01*
X35500003Y-76499797D01*
X35500004Y-76499799D01*
X35586768Y-76709267D01*
X35622102Y-76886900D01*
X35631000Y-76931636D01*
X35631000Y-77158364D01*
X35586768Y-77380734D01*
X35500003Y-77590203D01*
X35374040Y-77778720D01*
X35213720Y-77939040D01*
X35025203Y-78065003D01*
X34815734Y-78151768D01*
X34704549Y-78173884D01*
X34593365Y-78196000D01*
X34366635Y-78196000D01*
X34255451Y-78173884D01*
X34144266Y-78151768D01*
X33934797Y-78065003D01*
X33746280Y-77939040D01*
X33585960Y-77778720D01*
X33459997Y-77590203D01*
X33373232Y-77380734D01*
X33329000Y-77158364D01*
X33329000Y-76931636D01*
X33337899Y-76886900D01*
X33373232Y-76709267D01*
X33459996Y-76499799D01*
X33459997Y-76499797D01*
X33585960Y-76311280D01*
X33746280Y-76150960D01*
X33934797Y-76024997D01*
X34144266Y-75938232D01*
X34327568Y-75901771D01*
X34366635Y-75894000D01*
X34593365Y-75894000D01*
X34632432Y-75901771D01*
G37*
G36*
X24848228Y-76471703D02*
G01*
X25003100Y-76535853D01*
X25142481Y-76628985D01*
X25261015Y-76747519D01*
X25354147Y-76886900D01*
X25418297Y-77041772D01*
X25451000Y-77206184D01*
X25451000Y-77373816D01*
X25418297Y-77538228D01*
X25354147Y-77693100D01*
X25261015Y-77832481D01*
X25142481Y-77951015D01*
X25003100Y-78044147D01*
X24848228Y-78108297D01*
X24683816Y-78141000D01*
X24516184Y-78141000D01*
X24351772Y-78108297D01*
X24196900Y-78044147D01*
X24057519Y-77951015D01*
X23938985Y-77832481D01*
X23845853Y-77693100D01*
X23781703Y-77538228D01*
X23749000Y-77373816D01*
X23749000Y-77206184D01*
X23781703Y-77041772D01*
X23845853Y-76886900D01*
X23938985Y-76747519D01*
X24057519Y-76628985D01*
X24196900Y-76535853D01*
X24351772Y-76471703D01*
X24516184Y-76439000D01*
X24683816Y-76439000D01*
X24848228Y-76471703D01*
G37*
G36*
X22308228Y-75331703D02*
G01*
X22463100Y-75395853D01*
X22602481Y-75488985D01*
X22721015Y-75607519D01*
X22814147Y-75746900D01*
X22878297Y-75901772D01*
X22911000Y-76066184D01*
X22911000Y-76233816D01*
X22878297Y-76398228D01*
X22814147Y-76553100D01*
X22721015Y-76692481D01*
X22602481Y-76811015D01*
X22463100Y-76904147D01*
X22308228Y-76968297D01*
X22143816Y-77001000D01*
X21976184Y-77001000D01*
X21811772Y-76968297D01*
X21656900Y-76904147D01*
X21517519Y-76811015D01*
X21398985Y-76692481D01*
X21305853Y-76553100D01*
X21241703Y-76398228D01*
X21209000Y-76233816D01*
X21209000Y-76066184D01*
X21241703Y-75901772D01*
X21305853Y-75746900D01*
X21398985Y-75607519D01*
X21517519Y-75488985D01*
X21656900Y-75395853D01*
X21811772Y-75331703D01*
X21976184Y-75299000D01*
X22143816Y-75299000D01*
X22308228Y-75331703D01*
G37*
G36*
X27388228Y-75331703D02*
G01*
X27543100Y-75395853D01*
X27682481Y-75488985D01*
X27801015Y-75607519D01*
X27894147Y-75746900D01*
X27958297Y-75901772D01*
X27991000Y-76066184D01*
X27991000Y-76233816D01*
X27958297Y-76398228D01*
X27894147Y-76553100D01*
X27801015Y-76692481D01*
X27682481Y-76811015D01*
X27543100Y-76904147D01*
X27388228Y-76968297D01*
X27223816Y-77001000D01*
X27056184Y-77001000D01*
X26891772Y-76968297D01*
X26736900Y-76904147D01*
X26597519Y-76811015D01*
X26478985Y-76692481D01*
X26385853Y-76553100D01*
X26321703Y-76398228D01*
X26289000Y-76233816D01*
X26289000Y-76066184D01*
X26321703Y-75901772D01*
X26385853Y-75746900D01*
X26478985Y-75607519D01*
X26597519Y-75488985D01*
X26736900Y-75395853D01*
X26891772Y-75331703D01*
X27056184Y-75299000D01*
X27223816Y-75299000D01*
X27388228Y-75331703D01*
G37*
G36*
X29624549Y-74011116D02*
G01*
X29735734Y-74033232D01*
X29945203Y-74119997D01*
X30133720Y-74245960D01*
X30294040Y-74406280D01*
X30328277Y-74457520D01*
X30420004Y-74594799D01*
X30506768Y-74804267D01*
X30551000Y-75026635D01*
X30551000Y-75253365D01*
X30535417Y-75331705D01*
X30506768Y-75475734D01*
X30420003Y-75685203D01*
X30294040Y-75873720D01*
X30133720Y-76034040D01*
X29945203Y-76160003D01*
X29735734Y-76246768D01*
X29624549Y-76268884D01*
X29513365Y-76291000D01*
X29286635Y-76291000D01*
X29175451Y-76268884D01*
X29064266Y-76246768D01*
X28854797Y-76160003D01*
X28666280Y-76034040D01*
X28505960Y-75873720D01*
X28379997Y-75685203D01*
X28293232Y-75475734D01*
X28264583Y-75331705D01*
X28249000Y-75253365D01*
X28249000Y-75026635D01*
X28293232Y-74804267D01*
X28379996Y-74594799D01*
X28471723Y-74457520D01*
X28505960Y-74406280D01*
X28666280Y-74245960D01*
X28854797Y-74119997D01*
X29064266Y-74033232D01*
X29175451Y-74011116D01*
X29286635Y-73989000D01*
X29513365Y-73989000D01*
X29624549Y-74011116D01*
G37*
G36*
X24848228Y-74181703D02*
G01*
X25003100Y-74245853D01*
X25142481Y-74338985D01*
X25261015Y-74457519D01*
X25354147Y-74596900D01*
X25418297Y-74751772D01*
X25451000Y-74916184D01*
X25451000Y-75083816D01*
X25418297Y-75248228D01*
X25354147Y-75403100D01*
X25261015Y-75542481D01*
X25142481Y-75661015D01*
X25003100Y-75754147D01*
X24848228Y-75818297D01*
X24683816Y-75851000D01*
X24516184Y-75851000D01*
X24351772Y-75818297D01*
X24196900Y-75754147D01*
X24057519Y-75661015D01*
X23938985Y-75542481D01*
X23845853Y-75403100D01*
X23781703Y-75248228D01*
X23749000Y-75083816D01*
X23749000Y-74916184D01*
X23781703Y-74751772D01*
X23845853Y-74596900D01*
X23938985Y-74457519D01*
X24057519Y-74338985D01*
X24196900Y-74245853D01*
X24351772Y-74181703D01*
X24516184Y-74149000D01*
X24683816Y-74149000D01*
X24848228Y-74181703D01*
G37*
G36*
X62127423Y-71181661D02*
G01*
X62518879Y-71343807D01*
X62518881Y-71343808D01*
X62871183Y-71579209D01*
X63170791Y-71878817D01*
X63406192Y-72231119D01*
X63406193Y-72231121D01*
X63568339Y-72622577D01*
X63651000Y-73038144D01*
X63651000Y-73461856D01*
X63568339Y-73877423D01*
X63411940Y-74255004D01*
X63406192Y-74268881D01*
X63170791Y-74621183D01*
X62871183Y-74920791D01*
X62518881Y-75156192D01*
X62518880Y-75156193D01*
X62518879Y-75156193D01*
X62127423Y-75318339D01*
X61711856Y-75401000D01*
X61288144Y-75401000D01*
X60872577Y-75318339D01*
X60481121Y-75156193D01*
X60481120Y-75156193D01*
X60481119Y-75156192D01*
X60128817Y-74920791D01*
X59829209Y-74621183D01*
X59593808Y-74268881D01*
X59588060Y-74255004D01*
X59431661Y-73877423D01*
X59349000Y-73461856D01*
X59349000Y-73038144D01*
X59431661Y-72622577D01*
X59593807Y-72231121D01*
X59593808Y-72231119D01*
X59829209Y-71878817D01*
X60128817Y-71579209D01*
X60481119Y-71343808D01*
X60481121Y-71343807D01*
X60872577Y-71181661D01*
X61288144Y-71099000D01*
X61711856Y-71099000D01*
X62127423Y-71181661D01*
G37*
G36*
X22308228Y-73041703D02*
G01*
X22463100Y-73105853D01*
X22602481Y-73198985D01*
X22721015Y-73317519D01*
X22814147Y-73456900D01*
X22878297Y-73611772D01*
X22911000Y-73776184D01*
X22911000Y-73943816D01*
X22878297Y-74108228D01*
X22814147Y-74263100D01*
X22721015Y-74402481D01*
X22602481Y-74521015D01*
X22463100Y-74614147D01*
X22308228Y-74678297D01*
X22143816Y-74711000D01*
X21976184Y-74711000D01*
X21811772Y-74678297D01*
X21656900Y-74614147D01*
X21517519Y-74521015D01*
X21398985Y-74402481D01*
X21305853Y-74263100D01*
X21241703Y-74108228D01*
X21209000Y-73943816D01*
X21209000Y-73776184D01*
X21241703Y-73611772D01*
X21305853Y-73456900D01*
X21398985Y-73317519D01*
X21517519Y-73198985D01*
X21656900Y-73105853D01*
X21811772Y-73041703D01*
X21976184Y-73009000D01*
X22143816Y-73009000D01*
X22308228Y-73041703D01*
G37*
G36*
X27388228Y-73041703D02*
G01*
X27543100Y-73105853D01*
X27682481Y-73198985D01*
X27801015Y-73317519D01*
X27894147Y-73456900D01*
X27958297Y-73611772D01*
X27991000Y-73776184D01*
X27991000Y-73943816D01*
X27958297Y-74108228D01*
X27894147Y-74263100D01*
X27801015Y-74402481D01*
X27682481Y-74521015D01*
X27543100Y-74614147D01*
X27388228Y-74678297D01*
X27223816Y-74711000D01*
X27056184Y-74711000D01*
X26891772Y-74678297D01*
X26736900Y-74614147D01*
X26597519Y-74521015D01*
X26478985Y-74402481D01*
X26385853Y-74263100D01*
X26321703Y-74108228D01*
X26289000Y-73943816D01*
X26289000Y-73776184D01*
X26321703Y-73611772D01*
X26385853Y-73456900D01*
X26478985Y-73317519D01*
X26597519Y-73198985D01*
X26736900Y-73105853D01*
X26891772Y-73041703D01*
X27056184Y-73009000D01*
X27223816Y-73009000D01*
X27388228Y-73041703D01*
G37*
G36*
X34704549Y-72106116D02*
G01*
X34815734Y-72128232D01*
X35025203Y-72214997D01*
X35213720Y-72340960D01*
X35374040Y-72501280D01*
X35500003Y-72689797D01*
X35580320Y-72883698D01*
X35586768Y-72899267D01*
X35631000Y-73121635D01*
X35631000Y-73348365D01*
X35609411Y-73456900D01*
X35586768Y-73570734D01*
X35500003Y-73780203D01*
X35374040Y-73968720D01*
X35213720Y-74129040D01*
X35025203Y-74255003D01*
X35025202Y-74255004D01*
X35025201Y-74255004D01*
X34991699Y-74268881D01*
X34815734Y-74341768D01*
X34704549Y-74363884D01*
X34593365Y-74386000D01*
X34366635Y-74386000D01*
X34255451Y-74363884D01*
X34144266Y-74341768D01*
X33968301Y-74268881D01*
X33934799Y-74255004D01*
X33934798Y-74255004D01*
X33934797Y-74255003D01*
X33746280Y-74129040D01*
X33585960Y-73968720D01*
X33459997Y-73780203D01*
X33373232Y-73570734D01*
X33350589Y-73456900D01*
X33329000Y-73348365D01*
X33329000Y-73121635D01*
X33373232Y-72899267D01*
X33379681Y-72883698D01*
X33459997Y-72689797D01*
X33585960Y-72501280D01*
X33746280Y-72340960D01*
X33934797Y-72214997D01*
X34144266Y-72128232D01*
X34255451Y-72106116D01*
X34366635Y-72084000D01*
X34593365Y-72084000D01*
X34704549Y-72106116D01*
G37*
G36*
X69494838Y-71378533D02*
G01*
X69651355Y-71443365D01*
X69713407Y-71469068D01*
X69910113Y-71600502D01*
X70077398Y-71767787D01*
X70203058Y-71955852D01*
X70208833Y-71964495D01*
X70299367Y-72183062D01*
X70345520Y-72415090D01*
X70345520Y-72651670D01*
X70299367Y-72883698D01*
X70233918Y-73041705D01*
X70208832Y-73102267D01*
X70077398Y-73298973D01*
X69910113Y-73466258D01*
X69713407Y-73597692D01*
X69713406Y-73597693D01*
X69713405Y-73597693D01*
X69494838Y-73688227D01*
X69262810Y-73734380D01*
X69026230Y-73734380D01*
X68794202Y-73688227D01*
X68575635Y-73597693D01*
X68575634Y-73597693D01*
X68575633Y-73597692D01*
X68378927Y-73466258D01*
X68211642Y-73298973D01*
X68080208Y-73102267D01*
X68055122Y-73041705D01*
X67989673Y-72883698D01*
X67943520Y-72651670D01*
X67943520Y-72415090D01*
X67989673Y-72183062D01*
X68080207Y-71964495D01*
X68085982Y-71955852D01*
X68211642Y-71767787D01*
X68378927Y-71600502D01*
X68575633Y-71469068D01*
X68637685Y-71443365D01*
X68794202Y-71378533D01*
X69026230Y-71332380D01*
X69262810Y-71332380D01*
X69494838Y-71378533D01*
G37*
G36*
X24848228Y-71891703D02*
G01*
X25003100Y-71955853D01*
X25142481Y-72048985D01*
X25261015Y-72167519D01*
X25354147Y-72306900D01*
X25418297Y-72461772D01*
X25451000Y-72626184D01*
X25451000Y-72793816D01*
X25418297Y-72958228D01*
X25354147Y-73113100D01*
X25261015Y-73252481D01*
X25142481Y-73371015D01*
X25003100Y-73464147D01*
X24848228Y-73528297D01*
X24683816Y-73561000D01*
X24516184Y-73561000D01*
X24351772Y-73528297D01*
X24196900Y-73464147D01*
X24057519Y-73371015D01*
X23938985Y-73252481D01*
X23845853Y-73113100D01*
X23781703Y-72958228D01*
X23749000Y-72793816D01*
X23749000Y-72626184D01*
X23781703Y-72461772D01*
X23845853Y-72306900D01*
X23938985Y-72167519D01*
X24057519Y-72048985D01*
X24196900Y-71955853D01*
X24351772Y-71891703D01*
X24516184Y-71859000D01*
X24683816Y-71859000D01*
X24848228Y-71891703D01*
G37*
G36*
X29624549Y-70201116D02*
G01*
X29735734Y-70223232D01*
X29945203Y-70309997D01*
X30133720Y-70435960D01*
X30294040Y-70596280D01*
X30420003Y-70784797D01*
X30420004Y-70784799D01*
X30432867Y-70815853D01*
X30506768Y-70994266D01*
X30524023Y-71081015D01*
X30551000Y-71216635D01*
X30551000Y-71443365D01*
X30528884Y-71554549D01*
X30506768Y-71665734D01*
X30420003Y-71875203D01*
X30294040Y-72063720D01*
X30133720Y-72224040D01*
X29945203Y-72350003D01*
X29735734Y-72436768D01*
X29624549Y-72458884D01*
X29513365Y-72481000D01*
X29286635Y-72481000D01*
X29175451Y-72458884D01*
X29064266Y-72436768D01*
X28854797Y-72350003D01*
X28666280Y-72224040D01*
X28505960Y-72063720D01*
X28379997Y-71875203D01*
X28293232Y-71665734D01*
X28271116Y-71554549D01*
X28249000Y-71443365D01*
X28249000Y-71216635D01*
X28275977Y-71081015D01*
X28293232Y-70994266D01*
X28367133Y-70815853D01*
X28379996Y-70784799D01*
X28379997Y-70784797D01*
X28505960Y-70596280D01*
X28666280Y-70435960D01*
X28854797Y-70309997D01*
X29064266Y-70223232D01*
X29175451Y-70201116D01*
X29286635Y-70179000D01*
X29513365Y-70179000D01*
X29624549Y-70201116D01*
G37*
G36*
X27388228Y-70751703D02*
G01*
X27543100Y-70815853D01*
X27682481Y-70908985D01*
X27801015Y-71027519D01*
X27894147Y-71166900D01*
X27958297Y-71321772D01*
X27991000Y-71486184D01*
X27991000Y-71653816D01*
X27958297Y-71818228D01*
X27894147Y-71973100D01*
X27801015Y-72112481D01*
X27682481Y-72231015D01*
X27543100Y-72324147D01*
X27388228Y-72388297D01*
X27223816Y-72421000D01*
X27056184Y-72421000D01*
X26891772Y-72388297D01*
X26736900Y-72324147D01*
X26597519Y-72231015D01*
X26478985Y-72112481D01*
X26385853Y-71973100D01*
X26321703Y-71818228D01*
X26289000Y-71653816D01*
X26289000Y-71486184D01*
X26321703Y-71321772D01*
X26385853Y-71166900D01*
X26478985Y-71027519D01*
X26597519Y-70908985D01*
X26736900Y-70815853D01*
X26891772Y-70751703D01*
X27056184Y-70719000D01*
X27223816Y-70719000D01*
X27388228Y-70751703D01*
G37*
G36*
X22308228Y-70751703D02*
G01*
X22463100Y-70815853D01*
X22602481Y-70908985D01*
X22721015Y-71027519D01*
X22814147Y-71166900D01*
X22878297Y-71321772D01*
X22911000Y-71486184D01*
X22911000Y-71653816D01*
X22878297Y-71818228D01*
X22814147Y-71973100D01*
X22721015Y-72112481D01*
X22602481Y-72231015D01*
X22463100Y-72324147D01*
X22308228Y-72388297D01*
X22143816Y-72421000D01*
X21976184Y-72421000D01*
X21811772Y-72388297D01*
X21656900Y-72324147D01*
X21517519Y-72231015D01*
X21398985Y-72112481D01*
X21305853Y-71973100D01*
X21241703Y-71818228D01*
X21209000Y-71653816D01*
X21209000Y-71486184D01*
X21241703Y-71321772D01*
X21305853Y-71166900D01*
X21398985Y-71027519D01*
X21517519Y-70908985D01*
X21656900Y-70815853D01*
X21811772Y-70751703D01*
X21976184Y-70719000D01*
X22143816Y-70719000D01*
X22308228Y-70751703D01*
G37*
G36*
X24848228Y-69601703D02*
G01*
X25003100Y-69665853D01*
X25142481Y-69758985D01*
X25261015Y-69877519D01*
X25354147Y-70016900D01*
X25418297Y-70171772D01*
X25451000Y-70336184D01*
X25451000Y-70503816D01*
X25418297Y-70668228D01*
X25354147Y-70823100D01*
X25261015Y-70962481D01*
X25142481Y-71081015D01*
X25003100Y-71174147D01*
X24848228Y-71238297D01*
X24683816Y-71271000D01*
X24516184Y-71271000D01*
X24351772Y-71238297D01*
X24196900Y-71174147D01*
X24057519Y-71081015D01*
X23938985Y-70962481D01*
X23845853Y-70823100D01*
X23781703Y-70668228D01*
X23749000Y-70503816D01*
X23749000Y-70336184D01*
X23781703Y-70171772D01*
X23845853Y-70016900D01*
X23938985Y-69877519D01*
X24057519Y-69758985D01*
X24196900Y-69665853D01*
X24351772Y-69601703D01*
X24516184Y-69569000D01*
X24683816Y-69569000D01*
X24848228Y-69601703D01*
G37*
G36*
X34704549Y-68296116D02*
G01*
X34815734Y-68318232D01*
X35025203Y-68404997D01*
X35213720Y-68530960D01*
X35374040Y-68691280D01*
X35500003Y-68879797D01*
X35586768Y-69089266D01*
X35631000Y-69311636D01*
X35631000Y-69538364D01*
X35586768Y-69760734D01*
X35500003Y-69970203D01*
X35374040Y-70158720D01*
X35213720Y-70319040D01*
X35025203Y-70445003D01*
X34815734Y-70531768D01*
X34719048Y-70551000D01*
X34593365Y-70576000D01*
X34366635Y-70576000D01*
X34240952Y-70551000D01*
X34144266Y-70531768D01*
X33934797Y-70445003D01*
X33746280Y-70319040D01*
X33585960Y-70158720D01*
X33459997Y-69970203D01*
X33373232Y-69760734D01*
X33329000Y-69538364D01*
X33329000Y-69311636D01*
X33373232Y-69089266D01*
X33459997Y-68879797D01*
X33585960Y-68691280D01*
X33746280Y-68530960D01*
X33934797Y-68404997D01*
X34144266Y-68318232D01*
X34255451Y-68296116D01*
X34366635Y-68274000D01*
X34593365Y-68274000D01*
X34704549Y-68296116D01*
G37*
G36*
X62106564Y-68489389D02*
G01*
X62297833Y-68568615D01*
X62297835Y-68568616D01*
X62469973Y-68683635D01*
X62616365Y-68830027D01*
X62647687Y-68876903D01*
X62731385Y-69002167D01*
X62810611Y-69193436D01*
X62851000Y-69396484D01*
X62851000Y-69603516D01*
X62810611Y-69806564D01*
X62731385Y-69997833D01*
X62731384Y-69997835D01*
X62616365Y-70169973D01*
X62469973Y-70316365D01*
X62297835Y-70431384D01*
X62297834Y-70431385D01*
X62297833Y-70431385D01*
X62106564Y-70510611D01*
X61903516Y-70551000D01*
X61696484Y-70551000D01*
X61493436Y-70510611D01*
X61302167Y-70431385D01*
X61302166Y-70431385D01*
X61302165Y-70431384D01*
X61130027Y-70316365D01*
X60983635Y-70169973D01*
X60868616Y-69997835D01*
X60868615Y-69997833D01*
X60789389Y-69806564D01*
X60749000Y-69603516D01*
X60749000Y-69396484D01*
X60789389Y-69193436D01*
X60868615Y-69002167D01*
X60952314Y-68876903D01*
X60983635Y-68830027D01*
X61130027Y-68683635D01*
X61302165Y-68568616D01*
X61302167Y-68568615D01*
X61493436Y-68489389D01*
X61696484Y-68449000D01*
X61903516Y-68449000D01*
X62106564Y-68489389D01*
G37*
G36*
X22308228Y-68461703D02*
G01*
X22463100Y-68525853D01*
X22602481Y-68618985D01*
X22721015Y-68737519D01*
X22814147Y-68876900D01*
X22878297Y-69031772D01*
X22911000Y-69196184D01*
X22911000Y-69363816D01*
X22878297Y-69528228D01*
X22814147Y-69683100D01*
X22721015Y-69822481D01*
X22602481Y-69941015D01*
X22463100Y-70034147D01*
X22308228Y-70098297D01*
X22143816Y-70131000D01*
X21976184Y-70131000D01*
X21811772Y-70098297D01*
X21656900Y-70034147D01*
X21517519Y-69941015D01*
X21398985Y-69822481D01*
X21305853Y-69683100D01*
X21241703Y-69528228D01*
X21209000Y-69363816D01*
X21209000Y-69196184D01*
X21241703Y-69031772D01*
X21305853Y-68876900D01*
X21398985Y-68737519D01*
X21517519Y-68618985D01*
X21656900Y-68525853D01*
X21811772Y-68461703D01*
X21976184Y-68429000D01*
X22143816Y-68429000D01*
X22308228Y-68461703D01*
G37*
G36*
X27388228Y-68461703D02*
G01*
X27543100Y-68525853D01*
X27682481Y-68618985D01*
X27801015Y-68737519D01*
X27894147Y-68876900D01*
X27958297Y-69031772D01*
X27991000Y-69196184D01*
X27991000Y-69363816D01*
X27958297Y-69528228D01*
X27894147Y-69683100D01*
X27801015Y-69822481D01*
X27682481Y-69941015D01*
X27543100Y-70034147D01*
X27388228Y-70098297D01*
X27223816Y-70131000D01*
X27056184Y-70131000D01*
X26891772Y-70098297D01*
X26736900Y-70034147D01*
X26597519Y-69941015D01*
X26478985Y-69822481D01*
X26385853Y-69683100D01*
X26321703Y-69528228D01*
X26289000Y-69363816D01*
X26289000Y-69196184D01*
X26321703Y-69031772D01*
X26385853Y-68876900D01*
X26478985Y-68737519D01*
X26597519Y-68618985D01*
X26736900Y-68525853D01*
X26891772Y-68461703D01*
X27056184Y-68429000D01*
X27223816Y-68429000D01*
X27388228Y-68461703D01*
G37*
G36*
X29624549Y-66391116D02*
G01*
X29735734Y-66413232D01*
X29945203Y-66499997D01*
X30133720Y-66625960D01*
X30294040Y-66786280D01*
X30420003Y-66974797D01*
X30506768Y-67184266D01*
X30551000Y-67406636D01*
X30551000Y-67633364D01*
X30506768Y-67855734D01*
X30420003Y-68065203D01*
X30294040Y-68253720D01*
X30133720Y-68414040D01*
X29945203Y-68540003D01*
X29735734Y-68626768D01*
X29624549Y-68648884D01*
X29513365Y-68671000D01*
X29286635Y-68671000D01*
X29175451Y-68648884D01*
X29064266Y-68626768D01*
X28854797Y-68540003D01*
X28666280Y-68414040D01*
X28505960Y-68253720D01*
X28379997Y-68065203D01*
X28293232Y-67855734D01*
X28249000Y-67633364D01*
X28249000Y-67406636D01*
X28293232Y-67184266D01*
X28379997Y-66974797D01*
X28505960Y-66786280D01*
X28666280Y-66625960D01*
X28854797Y-66499997D01*
X29064266Y-66413232D01*
X29175451Y-66391116D01*
X29286635Y-66369000D01*
X29513365Y-66369000D01*
X29624549Y-66391116D01*
G37*
G36*
X62127423Y-63681661D02*
G01*
X62491760Y-63832574D01*
X62518881Y-63843808D01*
X62871183Y-64079209D01*
X63170791Y-64378817D01*
X63257263Y-64508232D01*
X63406193Y-64731121D01*
X63568339Y-65122577D01*
X63651000Y-65538144D01*
X63651000Y-65961856D01*
X63568339Y-66377423D01*
X63406193Y-66768879D01*
X63406192Y-66768881D01*
X63170791Y-67121183D01*
X62871183Y-67420791D01*
X62518881Y-67656192D01*
X62518880Y-67656193D01*
X62518879Y-67656193D01*
X62127423Y-67818339D01*
X61711856Y-67901000D01*
X61288144Y-67901000D01*
X60872577Y-67818339D01*
X60481121Y-67656193D01*
X60481120Y-67656193D01*
X60481119Y-67656192D01*
X60128817Y-67420791D01*
X59829209Y-67121183D01*
X59593808Y-66768881D01*
X59593807Y-66768879D01*
X59431661Y-66377423D01*
X59349000Y-65961856D01*
X59349000Y-65538144D01*
X59431661Y-65122577D01*
X59593807Y-64731121D01*
X59742737Y-64508232D01*
X59829209Y-64378817D01*
X60128817Y-64079209D01*
X60481119Y-63843808D01*
X60508240Y-63832574D01*
X60872577Y-63681661D01*
X61288144Y-63599000D01*
X61711856Y-63599000D01*
X62127423Y-63681661D01*
G37*
G36*
X34704549Y-64486116D02*
G01*
X34815734Y-64508232D01*
X35025203Y-64594997D01*
X35213720Y-64720960D01*
X35374040Y-64881280D01*
X35500003Y-65069797D01*
X35586768Y-65279266D01*
X35631000Y-65501636D01*
X35631000Y-65728364D01*
X35586768Y-65950734D01*
X35500003Y-66160203D01*
X35374040Y-66348720D01*
X35213720Y-66509040D01*
X35025203Y-66635003D01*
X34815734Y-66721768D01*
X34704549Y-66743884D01*
X34593365Y-66766000D01*
X34366635Y-66766000D01*
X34255451Y-66743884D01*
X34144266Y-66721768D01*
X33934797Y-66635003D01*
X33746280Y-66509040D01*
X33585960Y-66348720D01*
X33459997Y-66160203D01*
X33373232Y-65950734D01*
X33329000Y-65728364D01*
X33329000Y-65501636D01*
X33373232Y-65279266D01*
X33459997Y-65069797D01*
X33585960Y-64881280D01*
X33746280Y-64720960D01*
X33934797Y-64594997D01*
X34144266Y-64508232D01*
X34255451Y-64486116D01*
X34366635Y-64464000D01*
X34593365Y-64464000D01*
X34704549Y-64486116D01*
G37*
G36*
X29624549Y-62581116D02*
G01*
X29735734Y-62603232D01*
X29945203Y-62689997D01*
X30133720Y-62815960D01*
X30294040Y-62976280D01*
X30367888Y-63086802D01*
X30420004Y-63164799D01*
X30506768Y-63374267D01*
X30551000Y-63596635D01*
X30551000Y-63823365D01*
X30531579Y-63921000D01*
X30506768Y-64045734D01*
X30420003Y-64255203D01*
X30294040Y-64443720D01*
X30133720Y-64604040D01*
X29945203Y-64730003D01*
X29735734Y-64816768D01*
X29624549Y-64838884D01*
X29513365Y-64861000D01*
X29286635Y-64861000D01*
X29175451Y-64838884D01*
X29064266Y-64816768D01*
X28854797Y-64730003D01*
X28666280Y-64604040D01*
X28505960Y-64443720D01*
X28379997Y-64255203D01*
X28293232Y-64045734D01*
X28268421Y-63921000D01*
X28249000Y-63823365D01*
X28249000Y-63596635D01*
X28293232Y-63374267D01*
X28379996Y-63164799D01*
X28432112Y-63086802D01*
X28505960Y-62976280D01*
X28666280Y-62815960D01*
X28854797Y-62689997D01*
X29064266Y-62603232D01*
X29175451Y-62581116D01*
X29286635Y-62559000D01*
X29513365Y-62559000D01*
X29624549Y-62581116D01*
G37*
G36*
X66598254Y-60027818D02*
G01*
X66971511Y-60182426D01*
X66971513Y-60182427D01*
X67174918Y-60318338D01*
X67307436Y-60406884D01*
X67593116Y-60692564D01*
X67817574Y-61028489D01*
X67972182Y-61401746D01*
X68051000Y-61797993D01*
X68051000Y-62202007D01*
X67972182Y-62598254D01*
X67878259Y-62825004D01*
X67817573Y-62971513D01*
X67593116Y-63307436D01*
X67307436Y-63593116D01*
X66971513Y-63817573D01*
X66971512Y-63817574D01*
X66971511Y-63817574D01*
X66598254Y-63972182D01*
X66202007Y-64051000D01*
X65797993Y-64051000D01*
X65401746Y-63972182D01*
X65028489Y-63817574D01*
X65028488Y-63817574D01*
X65028487Y-63817573D01*
X64692564Y-63593116D01*
X64406884Y-63307436D01*
X64182427Y-62971513D01*
X64121741Y-62825004D01*
X64027818Y-62598254D01*
X63949000Y-62202007D01*
X63949000Y-61797993D01*
X64027818Y-61401746D01*
X64182426Y-61028489D01*
X64406884Y-60692564D01*
X64692564Y-60406884D01*
X64825082Y-60318338D01*
X65028487Y-60182427D01*
X65028489Y-60182426D01*
X65401746Y-60027818D01*
X65797993Y-59949000D01*
X66202007Y-59949000D01*
X66598254Y-60027818D01*
G37*
G36*
X25048903Y-59363213D02*
G01*
X25271177Y-59407426D01*
X25689932Y-59580880D01*
X26066802Y-59832696D01*
X26387304Y-60153198D01*
X26639120Y-60530068D01*
X26812574Y-60948823D01*
X26901000Y-61393371D01*
X26901000Y-61846629D01*
X26812574Y-62291177D01*
X26639120Y-62709932D01*
X26387304Y-63086802D01*
X26066802Y-63407304D01*
X25689932Y-63659120D01*
X25271177Y-63832574D01*
X25048903Y-63876787D01*
X24826630Y-63921000D01*
X24373370Y-63921000D01*
X24151097Y-63876787D01*
X23928823Y-63832574D01*
X23510068Y-63659120D01*
X23133198Y-63407304D01*
X22812696Y-63086802D01*
X22560880Y-62709932D01*
X22387426Y-62291177D01*
X22299000Y-61846629D01*
X22299000Y-61393371D01*
X22387426Y-60948823D01*
X22560880Y-60530068D01*
X22812696Y-60153198D01*
X23133198Y-59832696D01*
X23510068Y-59580880D01*
X23928823Y-59407426D01*
X24151097Y-59363213D01*
X24373370Y-59319000D01*
X24826630Y-59319000D01*
X25048903Y-59363213D01*
G37*
G36*
X34704549Y-60676116D02*
G01*
X34815734Y-60698232D01*
X35025203Y-60784997D01*
X35213720Y-60910960D01*
X35374040Y-61071280D01*
X35500003Y-61259797D01*
X35586768Y-61469266D01*
X35631000Y-61691636D01*
X35631000Y-61918364D01*
X35586768Y-62140734D01*
X35500003Y-62350203D01*
X35374040Y-62538720D01*
X35213720Y-62699040D01*
X35025203Y-62825003D01*
X34815734Y-62911768D01*
X34704549Y-62933884D01*
X34593365Y-62956000D01*
X34366635Y-62956000D01*
X34255451Y-62933884D01*
X34144266Y-62911768D01*
X33934797Y-62825003D01*
X33746280Y-62699040D01*
X33585960Y-62538720D01*
X33459997Y-62350203D01*
X33373232Y-62140734D01*
X33329000Y-61918364D01*
X33329000Y-61691636D01*
X33373232Y-61469266D01*
X33459997Y-61259797D01*
X33585960Y-61071280D01*
X33746280Y-60910960D01*
X33934797Y-60784997D01*
X34144266Y-60698232D01*
X34255451Y-60676116D01*
X34366635Y-60654000D01*
X34593365Y-60654000D01*
X34704549Y-60676116D01*
G37*
G36*
X62127423Y-56181661D02*
G01*
X62431071Y-56307436D01*
X62518881Y-56343808D01*
X62871183Y-56579209D01*
X63170791Y-56878817D01*
X63285840Y-57051000D01*
X63406193Y-57231121D01*
X63568339Y-57622577D01*
X63651000Y-58038144D01*
X63651000Y-58461856D01*
X63568339Y-58877423D01*
X63406193Y-59268879D01*
X63406192Y-59268881D01*
X63170791Y-59621183D01*
X62871183Y-59920791D01*
X62518881Y-60156192D01*
X62518880Y-60156193D01*
X62518879Y-60156193D01*
X62127423Y-60318339D01*
X61711856Y-60401000D01*
X61288144Y-60401000D01*
X60872577Y-60318339D01*
X60481121Y-60156193D01*
X60481120Y-60156193D01*
X60481119Y-60156192D01*
X60128817Y-59920791D01*
X59829209Y-59621183D01*
X59593808Y-59268881D01*
X59593807Y-59268879D01*
X59431661Y-58877423D01*
X59349000Y-58461856D01*
X59349000Y-58038144D01*
X59431661Y-57622577D01*
X59593807Y-57231121D01*
X59714160Y-57051000D01*
X59829209Y-56878817D01*
X60128817Y-56579209D01*
X60481119Y-56343808D01*
X60568929Y-56307436D01*
X60872577Y-56181661D01*
X61288144Y-56099000D01*
X61711856Y-56099000D01*
X62127423Y-56181661D01*
G37*
G36*
X27798254Y-53027818D02*
G01*
X28171511Y-53182426D01*
X28171513Y-53182427D01*
X28507436Y-53406884D01*
X28793116Y-53692564D01*
X28999987Y-54002167D01*
X29017574Y-54028489D01*
X29172182Y-54401746D01*
X29251000Y-54797993D01*
X29251000Y-55202007D01*
X29172182Y-55598254D01*
X29017574Y-55971511D01*
X29017573Y-55971513D01*
X28793116Y-56307436D01*
X28507436Y-56593116D01*
X28171513Y-56817573D01*
X28171512Y-56817574D01*
X28171511Y-56817574D01*
X27798254Y-56972182D01*
X27402007Y-57051000D01*
X26997993Y-57051000D01*
X26601746Y-56972182D01*
X26228489Y-56817574D01*
X26228488Y-56817574D01*
X26228487Y-56817573D01*
X25892564Y-56593116D01*
X25606884Y-56307436D01*
X25382427Y-55971513D01*
X25382426Y-55971511D01*
X25227818Y-55598254D01*
X25149000Y-55202007D01*
X25149000Y-54797993D01*
X25227818Y-54401746D01*
X25382426Y-54028489D01*
X25400014Y-54002167D01*
X25606884Y-53692564D01*
X25892564Y-53406884D01*
X26228487Y-53182427D01*
X26228489Y-53182426D01*
X26601746Y-53027818D01*
X26997993Y-52949000D01*
X27402007Y-52949000D01*
X27798254Y-53027818D01*
G37*
G36*
X62106564Y-53489389D02*
G01*
X62297833Y-53568615D01*
X62297835Y-53568616D01*
X62469973Y-53683635D01*
X62616365Y-53830027D01*
X62731385Y-54002167D01*
X62810611Y-54193436D01*
X62851000Y-54396484D01*
X62851000Y-54603516D01*
X62810611Y-54806564D01*
X62731385Y-54997833D01*
X62731384Y-54997835D01*
X62616365Y-55169973D01*
X62469973Y-55316365D01*
X62297835Y-55431384D01*
X62297834Y-55431385D01*
X62297833Y-55431385D01*
X62106564Y-55510611D01*
X61903516Y-55551000D01*
X61696484Y-55551000D01*
X61493436Y-55510611D01*
X61302167Y-55431385D01*
X61302166Y-55431385D01*
X61302165Y-55431384D01*
X61130027Y-55316365D01*
X60983635Y-55169973D01*
X60868616Y-54997835D01*
X60868615Y-54997833D01*
X60789389Y-54806564D01*
X60749000Y-54603516D01*
X60749000Y-54396484D01*
X60789389Y-54193436D01*
X60868615Y-54002167D01*
X60983635Y-53830027D01*
X61130027Y-53683635D01*
X61302165Y-53568616D01*
X61302167Y-53568615D01*
X61493436Y-53489389D01*
X61696484Y-53449000D01*
X61903516Y-53449000D01*
X62106564Y-53489389D01*
G37*
G36*
X62127423Y-48681661D02*
G01*
X62518879Y-48843807D01*
X62518881Y-48843808D01*
X62871183Y-49079209D01*
X63170791Y-49378817D01*
X63406192Y-49731119D01*
X63406193Y-49731121D01*
X63568339Y-50122577D01*
X63651000Y-50538144D01*
X63651000Y-50961856D01*
X63568339Y-51377423D01*
X63482570Y-51584487D01*
X63406192Y-51768881D01*
X63170791Y-52121183D01*
X62871183Y-52420791D01*
X62518881Y-52656192D01*
X62518880Y-52656193D01*
X62518879Y-52656193D01*
X62127423Y-52818339D01*
X61711856Y-52901000D01*
X61288144Y-52901000D01*
X60872577Y-52818339D01*
X60481121Y-52656193D01*
X60481120Y-52656193D01*
X60481119Y-52656192D01*
X60128817Y-52420791D01*
X59829209Y-52121183D01*
X59593808Y-51768881D01*
X59517430Y-51584487D01*
X59431661Y-51377423D01*
X59349000Y-50961856D01*
X59349000Y-50538144D01*
X59431661Y-50122577D01*
X59593807Y-49731121D01*
X59593808Y-49731119D01*
X59829209Y-49378817D01*
X60128817Y-49079209D01*
X60481119Y-48843808D01*
X60481121Y-48843807D01*
X60872577Y-48681661D01*
X61288144Y-48599000D01*
X61711856Y-48599000D01*
X62127423Y-48681661D01*
G37*
G36*
X69494838Y-50311773D02*
G01*
X69713405Y-50402307D01*
X69713407Y-50402308D01*
X69910113Y-50533742D01*
X70077398Y-50701027D01*
X70208832Y-50897733D01*
X70208833Y-50897735D01*
X70299367Y-51116302D01*
X70345520Y-51348330D01*
X70345520Y-51584910D01*
X70299367Y-51816938D01*
X70256677Y-51920000D01*
X70208832Y-52035507D01*
X70077398Y-52232213D01*
X69910113Y-52399498D01*
X69713407Y-52530932D01*
X69713406Y-52530933D01*
X69713405Y-52530933D01*
X69494838Y-52621467D01*
X69262810Y-52667620D01*
X69026230Y-52667620D01*
X68794202Y-52621467D01*
X68575635Y-52530933D01*
X68575634Y-52530933D01*
X68575633Y-52530932D01*
X68378927Y-52399498D01*
X68211642Y-52232213D01*
X68080208Y-52035507D01*
X68032363Y-51920000D01*
X67989673Y-51816938D01*
X67943520Y-51584910D01*
X67943520Y-51348330D01*
X67989673Y-51116302D01*
X68080207Y-50897735D01*
X68080208Y-50897733D01*
X68211642Y-50701027D01*
X68378927Y-50533742D01*
X68575633Y-50402308D01*
X68575635Y-50402307D01*
X68794202Y-50311773D01*
X69026230Y-50265620D01*
X69262810Y-50265620D01*
X69494838Y-50311773D01*
G37*
G36*
X25217818Y-51327696D02*
G01*
X25331105Y-51362062D01*
X25435512Y-51417869D01*
X25527027Y-51492973D01*
X25602131Y-51584488D01*
X25657938Y-51688895D01*
X25692304Y-51802182D01*
X25703907Y-51920000D01*
X25692304Y-52037818D01*
X25657938Y-52151105D01*
X25602131Y-52255512D01*
X25527027Y-52347027D01*
X25435512Y-52422131D01*
X25331105Y-52477938D01*
X25217818Y-52512304D01*
X25129519Y-52521000D01*
X24470481Y-52521000D01*
X24382182Y-52512304D01*
X24268895Y-52477938D01*
X24164488Y-52422131D01*
X24072973Y-52347027D01*
X23997869Y-52255512D01*
X23942062Y-52151105D01*
X23907696Y-52037818D01*
X23896093Y-51920000D01*
X23907696Y-51802182D01*
X23942062Y-51688895D01*
X23997869Y-51584488D01*
X24072973Y-51492973D01*
X24164488Y-51417869D01*
X24268895Y-51362062D01*
X24382182Y-51327696D01*
X24470481Y-51319000D01*
X25129519Y-51319000D01*
X25217818Y-51327696D01*
G37*
G36*
X21417818Y-51327696D02*
G01*
X21531105Y-51362062D01*
X21635512Y-51417869D01*
X21727027Y-51492973D01*
X21802131Y-51584488D01*
X21857938Y-51688895D01*
X21892304Y-51802182D01*
X21903907Y-51920000D01*
X21892304Y-52037818D01*
X21857938Y-52151105D01*
X21802131Y-52255512D01*
X21727027Y-52347027D01*
X21635512Y-52422131D01*
X21531105Y-52477938D01*
X21417818Y-52512304D01*
X21329519Y-52521000D01*
X20670481Y-52521000D01*
X20582182Y-52512304D01*
X20468895Y-52477938D01*
X20364488Y-52422131D01*
X20272973Y-52347027D01*
X20197869Y-52255512D01*
X20142062Y-52151105D01*
X20107696Y-52037818D01*
X20096093Y-51920000D01*
X20107696Y-51802182D01*
X20142062Y-51688895D01*
X20197869Y-51584488D01*
X20272973Y-51492973D01*
X20364488Y-51417869D01*
X20468895Y-51362062D01*
X20582182Y-51327696D01*
X20670481Y-51319000D01*
X21329519Y-51319000D01*
X21417818Y-51327696D01*
G37*
G36*
X66598254Y-45027818D02*
G01*
X66971511Y-45182426D01*
X66971513Y-45182427D01*
X67174918Y-45318338D01*
X67307436Y-45406884D01*
X67593116Y-45692564D01*
X67817574Y-46028489D01*
X67972182Y-46401746D01*
X68051000Y-46797993D01*
X68051000Y-47202007D01*
X67972182Y-47598254D01*
X67817574Y-47971511D01*
X67817573Y-47971513D01*
X67593116Y-48307436D01*
X67307436Y-48593116D01*
X66971513Y-48817573D01*
X66971512Y-48817574D01*
X66971511Y-48817574D01*
X66598254Y-48972182D01*
X66202007Y-49051000D01*
X65797993Y-49051000D01*
X65401746Y-48972182D01*
X65028489Y-48817574D01*
X65028488Y-48817574D01*
X65028487Y-48817573D01*
X64692564Y-48593116D01*
X64406884Y-48307436D01*
X64182427Y-47971513D01*
X64182426Y-47971511D01*
X64027818Y-47598254D01*
X63949000Y-47202007D01*
X63949000Y-46797993D01*
X64027818Y-46401746D01*
X64182426Y-46028489D01*
X64406884Y-45692564D01*
X64692564Y-45406884D01*
X64825082Y-45318338D01*
X65028487Y-45182427D01*
X65028489Y-45182426D01*
X65401746Y-45027818D01*
X65797993Y-44949000D01*
X66202007Y-44949000D01*
X66598254Y-45027818D01*
G37*
G36*
X62127423Y-41181661D02*
G01*
X62518879Y-41343807D01*
X62518881Y-41343808D01*
X62871183Y-41579209D01*
X63170791Y-41878817D01*
X63299779Y-42071861D01*
X63406193Y-42231121D01*
X63568339Y-42622577D01*
X63651000Y-43038144D01*
X63651000Y-43461856D01*
X63568339Y-43877423D01*
X63566857Y-43881000D01*
X63406192Y-44268881D01*
X63170791Y-44621183D01*
X62871183Y-44920791D01*
X62518881Y-45156192D01*
X62518880Y-45156193D01*
X62518879Y-45156193D01*
X62127423Y-45318339D01*
X61711856Y-45401000D01*
X61288144Y-45401000D01*
X60872577Y-45318339D01*
X60481121Y-45156193D01*
X60481120Y-45156193D01*
X60481119Y-45156192D01*
X60128817Y-44920791D01*
X59829209Y-44621183D01*
X59593808Y-44268881D01*
X59433143Y-43881000D01*
X59431661Y-43877423D01*
X59349000Y-43461856D01*
X59349000Y-43038144D01*
X59431661Y-42622577D01*
X59593807Y-42231121D01*
X59700221Y-42071861D01*
X59829209Y-41878817D01*
X60128817Y-41579209D01*
X60481119Y-41343808D01*
X60481121Y-41343807D01*
X60872577Y-41181661D01*
X61288144Y-41099000D01*
X61711856Y-41099000D01*
X62127423Y-41181661D01*
G37*
G36*
X21417818Y-42687696D02*
G01*
X21531105Y-42722062D01*
X21635512Y-42777869D01*
X21727027Y-42852973D01*
X21802131Y-42944488D01*
X21857938Y-43048895D01*
X21892304Y-43162182D01*
X21903907Y-43280000D01*
X21892304Y-43397818D01*
X21857938Y-43511105D01*
X21802131Y-43615512D01*
X21727027Y-43707027D01*
X21635512Y-43782131D01*
X21531105Y-43837938D01*
X21417818Y-43872304D01*
X21329519Y-43881000D01*
X20670481Y-43881000D01*
X20582182Y-43872304D01*
X20468895Y-43837938D01*
X20364488Y-43782131D01*
X20272973Y-43707027D01*
X20197869Y-43615512D01*
X20142062Y-43511105D01*
X20107696Y-43397818D01*
X20096093Y-43280000D01*
X20107696Y-43162182D01*
X20142062Y-43048895D01*
X20197869Y-42944488D01*
X20272973Y-42852973D01*
X20364488Y-42777869D01*
X20468895Y-42722062D01*
X20582182Y-42687696D01*
X20670481Y-42679000D01*
X21329519Y-42679000D01*
X21417818Y-42687696D01*
G37*
G36*
X25217818Y-42687696D02*
G01*
X25331105Y-42722062D01*
X25435512Y-42777869D01*
X25527027Y-42852973D01*
X25602131Y-42944488D01*
X25657938Y-43048895D01*
X25692304Y-43162182D01*
X25703907Y-43280000D01*
X25692304Y-43397818D01*
X25657938Y-43511105D01*
X25602131Y-43615512D01*
X25527027Y-43707027D01*
X25435512Y-43782131D01*
X25331105Y-43837938D01*
X25217818Y-43872304D01*
X25129519Y-43881000D01*
X24470481Y-43881000D01*
X24382182Y-43872304D01*
X24268895Y-43837938D01*
X24164488Y-43782131D01*
X24072973Y-43707027D01*
X23997869Y-43615512D01*
X23942062Y-43511105D01*
X23907696Y-43397818D01*
X23896093Y-43280000D01*
X23907696Y-43162182D01*
X23942062Y-43048895D01*
X23997869Y-42944488D01*
X24072973Y-42852973D01*
X24164488Y-42777869D01*
X24268895Y-42722062D01*
X24382182Y-42687696D01*
X24470481Y-42679000D01*
X25129519Y-42679000D01*
X25217818Y-42687696D01*
G37*
G36*
X66379487Y-40948996D02*
G01*
X66616253Y-41047068D01*
X66616255Y-41047069D01*
X66693975Y-41099000D01*
X66829339Y-41189447D01*
X67010553Y-41370661D01*
X67152932Y-41583747D01*
X67251004Y-41820513D01*
X67301000Y-42071861D01*
X67301000Y-42328139D01*
X67251004Y-42579487D01*
X67191947Y-42722062D01*
X67152931Y-42816255D01*
X67010553Y-43029339D01*
X66829339Y-43210553D01*
X66616255Y-43352931D01*
X66616254Y-43352932D01*
X66616253Y-43352932D01*
X66379487Y-43451004D01*
X66128139Y-43501000D01*
X65871861Y-43501000D01*
X65620513Y-43451004D01*
X65383747Y-43352932D01*
X65383746Y-43352932D01*
X65383745Y-43352931D01*
X65170661Y-43210553D01*
X64989447Y-43029339D01*
X64847069Y-42816255D01*
X64808053Y-42722062D01*
X64748996Y-42579487D01*
X64699000Y-42328139D01*
X64699000Y-42071861D01*
X64748996Y-41820513D01*
X64847068Y-41583747D01*
X64989447Y-41370661D01*
X65170661Y-41189447D01*
X65306025Y-41099000D01*
X65383745Y-41047069D01*
X65383747Y-41047068D01*
X65620513Y-40948996D01*
X65871861Y-40899000D01*
X66128139Y-40899000D01*
X66379487Y-40948996D01*
G37*
M02*
