G04 #@! TF.GenerationSoftware,KiCad,Pcbnew,(5.1.12)-1*
G04 #@! TF.CreationDate,2021-11-28T05:59:15+13:00*
G04 #@! TF.ProjectId,RGB-to-component-covers,5247422d-746f-42d6-936f-6d706f6e656e,rev?*
G04 #@! TF.SameCoordinates,Original*
G04 #@! TF.FileFunction,Profile,NP*
%FSLAX46Y46*%
G04 Gerber Fmt 4.6, Leading zero omitted, Abs format (unit mm)*
G04 Created by KiCad (PCBNEW (5.1.12)-1) date 2021-11-28 05:59:15*
%MOMM*%
%LPD*%
G01*
G04 APERTURE LIST*
G04 #@! TA.AperFunction,Profile*
%ADD10C,0.050000*%
G04 #@! TD*
G04 #@! TA.AperFunction,Profile*
%ADD11C,0.100000*%
G04 #@! TD*
G04 APERTURE END LIST*
D10*
X102400000Y-112150000D02*
G75*
G03*
X104900000Y-109650000I0J2500000D01*
G01*
X78500000Y-112150000D02*
G75*
G02*
X76000000Y-109650000I0J2500000D01*
G01*
X78500000Y-112150000D02*
X102400000Y-112150000D01*
X78500000Y-37850000D02*
X102400000Y-37850000D01*
X104900000Y-75000000D02*
X104900000Y-109650000D01*
X78500000Y-37850000D02*
G75*
G03*
X76000000Y-40350000I0J-2500000D01*
G01*
X104900000Y-75000000D02*
X104900000Y-40350000D01*
X76000000Y-75000000D02*
X76000000Y-109650000D01*
X76000000Y-75000000D02*
X76000000Y-40350000D01*
X102400000Y-37850000D02*
G75*
G02*
X104900000Y-40350000I0J-2500000D01*
G01*
D11*
X84600000Y-56600000D02*
X84700000Y-56500000D01*
X84600000Y-105700000D02*
X84600000Y-56600000D01*
X87800000Y-52200000D02*
X84700000Y-52200000D01*
X84700000Y-52200000D02*
X84600000Y-52100000D01*
X101250000Y-105750000D02*
X84650000Y-105750000D01*
X101250000Y-56500000D02*
X101300000Y-56550000D01*
X84700000Y-56500000D02*
X101250000Y-56500000D01*
X87900000Y-52100000D02*
X87800000Y-52200000D01*
X101300000Y-105700000D02*
X101250000Y-105750000D01*
X84600000Y-43000000D02*
X84700000Y-42900000D01*
X87800000Y-42900000D02*
X87900000Y-43000000D01*
X84650000Y-105750000D02*
X84600000Y-105700000D01*
X84700000Y-42900000D02*
X87800000Y-42900000D01*
X87900000Y-43000000D02*
X87900000Y-52100000D01*
X101300000Y-56550000D02*
X101300000Y-105700000D01*
X84600000Y-52100000D02*
X84600000Y-43000000D01*
X87900000Y-128400000D02*
X87800000Y-128500000D01*
X84600000Y-128400000D02*
X84600000Y-119300000D01*
X84700000Y-128500000D02*
X84600000Y-128400000D01*
X84700000Y-119200000D02*
X87800000Y-119200000D01*
X84600000Y-119300000D02*
X84700000Y-119200000D01*
X87900000Y-119300000D02*
X87900000Y-128400000D01*
X87800000Y-128500000D02*
X84700000Y-128500000D01*
X87800000Y-119200000D02*
X87900000Y-119300000D01*
D10*
X97200000Y-134700000D02*
X97200000Y-165900000D01*
X78500000Y-114150000D02*
G75*
G03*
X76000000Y-116650000I0J-2500000D01*
G01*
X78500000Y-114150000D02*
X102400000Y-114150000D01*
X78500000Y-188450000D02*
G75*
G02*
X76000000Y-185950000I0J2500000D01*
G01*
X84600000Y-165900000D02*
X84600000Y-134700000D01*
X102400000Y-114150000D02*
G75*
G02*
X104900000Y-116650000I0J-2500000D01*
G01*
X78500000Y-188450000D02*
X102400000Y-188450000D01*
X84600000Y-134700000D02*
X97200000Y-134700000D01*
X76000000Y-151300000D02*
X76000000Y-185950000D01*
X76000000Y-151300000D02*
X76000000Y-116650000D01*
X104900000Y-151300000D02*
X104900000Y-116650000D01*
X104900000Y-151300000D02*
X104900000Y-185950000D01*
X97200000Y-165900000D02*
X84600000Y-165900000D01*
X102400000Y-188450000D02*
G75*
G03*
X104900000Y-185950000I0J2500000D01*
G01*
M02*
